<svg xmlns="http://www.w3.org/2000/svg" viewBox="0 0 1920 1080"><defs><style>.cls-1{isolation:isolate;}.cls-13,.cls-16,.cls-17,.cls-2{fill:#fff;}.cls-3,.cls-6{fill:#edf4f8;}.cls-10,.cls-14,.cls-15,.cls-16,.cls-18,.cls-19,.cls-20,.cls-23,.cls-24,.cls-25,.cls-3,.cls-5{stroke:#0c1733;}.cls-10,.cls-14,.cls-15,.cls-16,.cls-18,.cls-19,.cls-20,.cls-23,.cls-24,.cls-25,.cls-3,.cls-5,.cls-7,.cls-8{stroke-linecap:round;stroke-linejoin:round;}.cls-14,.cls-15,.cls-16,.cls-17,.cls-18,.cls-25,.cls-3,.cls-8{stroke-width:2px;}.cls-18,.cls-4{fill:#a3bdcc;}.cls-5,.cls-9{fill:#0c1733;}.cls-5{stroke-width:2.65px;}.cls-15,.cls-19,.cls-20,.cls-23,.cls-24,.cls-7,.cls-8{fill:none;}.cls-7,.cls-8{stroke:#a3bdcc;}.cls-19,.cls-20,.cls-7{stroke-width:5px;}.cls-10,.cls-14,.cls-21{fill:#f9ef35;}.cls-11{opacity:0.25;mix-blend-mode:multiply;}.cls-12{fill:#9dc7e0;}.cls-13{font-size:20.74px;font-family:Roboto-Regular, Roboto;}.cls-17{stroke:#000;stroke-miterlimit:10;}.cls-20{stroke-dasharray:0 18.73;}.cls-22,.cls-25{fill:#cfdde5;}.cls-23,.cls-24{stroke-width:4px;}.cls-24{stroke-dasharray:0 13.22;}</style></defs><g class="cls-1"><g id="Graphics"><rect class="cls-2" x="1210.41" y="263.63" width="333.81" height="198.99"/><path class="cls-3" d="M1414,505.72V475.53h-75.36v30.19a3.18,3.18,0,0,1-1,2.28l-12.88,12.46a3.17,3.17,0,0,0,2.21,5.45h98.63a3.17,3.17,0,0,0,2.2-5.45L1415,508A3.15,3.15,0,0,1,1414,505.72Z"/><rect class="cls-4" x="1210.41" y="263.63" width="333.81" height="15.16"/><rect class="cls-4" x="1210.41" y="448.56" width="333.81" height="15.16"/><path class="cls-5" d="M1543.37,250.08h-334a12.71,12.71,0,0,0-12.7,12.71v200a12.71,12.71,0,0,0,12.7,12.7h334a12.71,12.71,0,0,0,12.7-12.7v-200A12.71,12.71,0,0,0,1543.37,250.08Zm.85,212.54H1210.41v-199h333.81Z"/><rect class="cls-6" x="1225.22" y="288.87" width="68.36" height="149.42"/><rect class="cls-6" x="1303.83" y="288.87" width="68.36" height="149.42"/><rect class="cls-6" x="1382.44" y="288.87" width="68.36" height="149.42"/><rect class="cls-6" x="1461.05" y="288.87" width="68.36" height="149.42"/><rect class="cls-2" x="1231.05" y="311.49" width="56.69" height="104.18"/><rect class="cls-2" x="1309.66" y="311.49" width="56.69" height="104.18"/><line class="cls-7" x1="1236.04" y1="296.99" x2="1275.7" y2="296.99"/><line class="cls-7" x1="1314.65" y1="296.99" x2="1354.31" y2="296.99"/><line class="cls-7" x1="1393.26" y1="296.99" x2="1432.92" y2="296.99"/><line class="cls-7" x1="1471.87" y1="296.99" x2="1511.53" y2="296.99"/><line class="cls-7" x1="1330.89" y1="330.21" x2="1358.38" y2="330.21"/><line class="cls-7" x1="1318.72" y1="330.21" x2="1322.9" y2="330.21"/><line class="cls-7" x1="1330.89" y1="368.81" x2="1358.38" y2="368.81"/><line class="cls-7" x1="1318.72" y1="368.81" x2="1322.9" y2="368.81"/><line class="cls-7" x1="1252.28" y1="330.21" x2="1279.77" y2="330.21"/><line class="cls-7" x1="1240.11" y1="330.21" x2="1244.29" y2="330.21"/><line class="cls-7" x1="1252.28" y1="368.81" x2="1279.77" y2="368.81"/><line class="cls-7" x1="1240.11" y1="368.81" x2="1244.29" y2="368.81"/><rect class="cls-4" x="1231.05" y="311.49" width="56.69" height="10.73"/><rect class="cls-4" x="1309.66" y="311.49" width="56.69" height="10.73"/><line class="cls-8" x1="1348.15" y1="506.51" x2="1406.48" y2="506.51"/><path class="cls-9" d="M1282.81,543.4h9.44a5.77,5.77,0,0,1,2.5.53,4.15,4.15,0,0,1,1.72,1.51,4.39,4.39,0,0,1-.17,4.76,4.13,4.13,0,0,1-2,1.47v.1a4.11,4.11,0,0,1,2.4,1.45,4.27,4.27,0,0,1,.93,2.79,4.35,4.35,0,0,1-1.49,3.58,5.87,5.87,0,0,1-3.84,1.22h-9.44Zm8.57,7.13a2.43,2.43,0,0,0,1.76-.61,2.07,2.07,0,0,0,.63-1.55,2.18,2.18,0,0,0-.58-1.65,2.24,2.24,0,0,0-1.6-.56h-5.53v4.37Zm.44,7.51a2.57,2.57,0,0,0,1.77-.59,2.3,2.3,0,0,0,.66-1.79,2.34,2.34,0,0,0-.66-1.78,2.72,2.72,0,0,0-1.95-.63h-5.58V558Z"/><path class="cls-9" d="M1300.55,556.47v-9h3v8.48a2.16,2.16,0,0,0,2.46,2.53,2.79,2.79,0,0,0,2.13-.91,3.26,3.26,0,0,0,.87-2.34v-7.76h3v13.35h-2.51l-.25-1.78h-.18a5.19,5.19,0,0,1-1.82,1.54,5.41,5.41,0,0,1-2.47.54C1302,561.11,1300.55,559.56,1300.55,556.47Z"/><path class="cls-9" d="M1315.65,542.46h3v3h-3Zm0,5h3v13.35h-3Z"/><path class="cls-9" d="M1322.22,542.46h3v18.35h-3Z"/><path class="cls-9" d="M1329.72,560.16a3.69,3.69,0,0,1-.75-2.37V550h-1.63v-2.49H1329l.56-3.73H1332v3.73h2.29V550H1332v7.53c0,.76.37,1.15,1.1,1.15h1.19v2.08a7.92,7.92,0,0,1-1,.28,5.77,5.77,0,0,1-1.11.12A2.91,2.91,0,0,1,1329.72,560.16Z"/><path class="cls-9" d="M1343.84,543.4h7a8.53,8.53,0,0,1,6.25,2.17q2.2,2.16,2.21,6.53t-2.21,6.54a8.53,8.53,0,0,1-6.25,2.17h-7Zm7,14.64a4.9,4.9,0,0,0,3.8-1.42,6.22,6.22,0,0,0,1.33-4.26v-.51a6.06,6.06,0,0,0-1.32-4.25,4.91,4.91,0,0,0-3.81-1.44h-3.7V558Z"/><path class="cls-9" d="M1362.46,560.31a3.15,3.15,0,0,1-1.31-2.95,3.69,3.69,0,0,1,2.18-3.61,14.83,14.83,0,0,1,6.19-1V551.6a2.1,2.1,0,0,0-.49-1.5,2.38,2.38,0,0,0-1.79-.53,3.15,3.15,0,0,0-1.9.43,1.27,1.27,0,0,0-.56,1.06v.36h-3c0-.1,0-.29,0-.56a3.1,3.1,0,0,1,1.48-2.72,7,7,0,0,1,4-1,6.2,6.2,0,0,1,4,1.1,3.81,3.81,0,0,1,1.33,3.12v6.37a.83.83,0,0,0,.25.67,1,1,0,0,0,.64.22h.81v2.08a4.5,4.5,0,0,1-1.9.38,2.67,2.67,0,0,1-1.65-.49,2.33,2.33,0,0,1-.89-1.31h-.18a5.22,5.22,0,0,1-4.26,1.82A5.42,5.42,0,0,1,1362.46,560.31Zm6.2-2.5a3.12,3.12,0,0,0,.86-2.33v-.61a12.6,12.6,0,0,0-3.85.47,1.74,1.74,0,0,0-1.4,1.71c0,1.08.68,1.63,2,1.63A3.16,3.16,0,0,0,1368.66,557.81Z"/><path class="cls-9" d="M1377,560a3.57,3.57,0,0,1-1.51-3,1.7,1.7,0,0,1,0-.3c0-.05,0-.09,0-.11h3v.21a1.61,1.61,0,0,0,.85,1.46,4.17,4.17,0,0,0,2.07.47,4.56,4.56,0,0,0,1.9-.37,1.19,1.19,0,0,0,.79-1.1,1.24,1.24,0,0,0-.43-1,3.32,3.32,0,0,0-1.07-.58c-.42-.14-1-.31-1.8-.5a20.43,20.43,0,0,1-2.58-.76,4.17,4.17,0,0,1-1.71-1.19,3.08,3.08,0,0,1-.71-2.13,3.34,3.34,0,0,1,1.57-2.95,7.32,7.32,0,0,1,4.09-1,7.91,7.91,0,0,1,2.76.46,4.28,4.28,0,0,1,1.89,1.28,2.91,2.91,0,0,1,.68,1.89l0,.56h-3v-.1a1.42,1.42,0,0,0-.64-1.23,3.3,3.3,0,0,0-1.87-.44,3.57,3.57,0,0,0-1.8.36,1.1,1.1,0,0,0-.61,1,1.12,1.12,0,0,0,.75,1.06,11.71,11.71,0,0,0,2.29.67,20.58,20.58,0,0,1,2.71.77,4.78,4.78,0,0,1,1.79,1.24,3.24,3.24,0,0,1,.76,2.25,3.55,3.55,0,0,1-1.59,3.23,8,8,0,0,1-4.3,1A7,7,0,0,1,1377,560Z"/><path class="cls-9" d="M1389.88,542.46h3V549h.18a4.71,4.71,0,0,1,1.68-1.33,5.22,5.22,0,0,1,2.33-.5,4.36,4.36,0,0,1,3.17,1.11,4.73,4.73,0,0,1,1.14,3.54v9h-3v-8.48a2.17,2.17,0,0,0-2.46-2.54,2.8,2.8,0,0,0-2.13.92,3.23,3.23,0,0,0-.87,2.33v7.77h-3Z"/><path class="cls-9" d="M1409.55,560.58a4.31,4.31,0,0,1-1.73-1.55h-.15l-.26,1.78h-2.51V542.46h3V549h.15a4.43,4.43,0,0,1,4-1.86,4.52,4.52,0,0,1,3.73,1.76,8.21,8.21,0,0,1,1.4,5.2,8.31,8.31,0,0,1-1.4,5.28,4.76,4.76,0,0,1-3.93,1.72A5.25,5.25,0,0,1,1409.55,560.58Zm3.83-3.08a5.64,5.64,0,0,0,.71-3.19V554a5.69,5.69,0,0,0-.71-3.21,2.73,2.73,0,0,0-2.39-1q-3,0-3,4.24v.3a5.52,5.52,0,0,0,.73,3.14,2.62,2.62,0,0,0,2.31,1A2.75,2.75,0,0,0,1413.38,557.5Z"/><path class="cls-9" d="M1420.73,559.41c-1.1-1.13-1.64-2.89-1.64-5.28s.54-4.14,1.64-5.28a8,8,0,0,1,9.87,0q1.64,1.71,1.63,5.28t-1.63,5.28a8,8,0,0,1-9.87,0Zm7.55-1.84a5.34,5.34,0,0,0,.81-3.26V554a5.37,5.37,0,0,0-.81-3.27,3.12,3.12,0,0,0-2.62-1.05,3.07,3.07,0,0,0-2.62,1.05,5.38,5.38,0,0,0-.8,3.27v.35a5.34,5.34,0,0,0,.8,3.26,3.08,3.08,0,0,0,2.62,1.06A3.13,3.13,0,0,0,1428.28,557.57Z"/><path class="cls-9" d="M1435.27,560.31a3.17,3.17,0,0,1-1.31-2.95,3.69,3.69,0,0,1,2.18-3.61,14.85,14.85,0,0,1,6.2-1V551.6a2.11,2.11,0,0,0-.5-1.5,2.38,2.38,0,0,0-1.79-.53,3.15,3.15,0,0,0-1.9.43,1.29,1.29,0,0,0-.56,1.06v.36h-2.94a3.43,3.43,0,0,1,0-.56,3.11,3.11,0,0,1,1.49-2.72,7,7,0,0,1,3.94-1,6.2,6.2,0,0,1,4,1.1,3.78,3.78,0,0,1,1.33,3.12v6.37a.86.86,0,0,0,.25.67,1,1,0,0,0,.64.22h.81v2.08a4.47,4.47,0,0,1-1.9.38,2.67,2.67,0,0,1-1.65-.49,2.33,2.33,0,0,1-.89-1.31h-.18a5.22,5.22,0,0,1-4.26,1.82A5.44,5.44,0,0,1,1435.27,560.31Zm6.2-2.5a3.12,3.12,0,0,0,.87-2.33v-.61a12.63,12.63,0,0,0-3.86.47,1.74,1.74,0,0,0-1.4,1.71c0,1.08.68,1.63,2,1.63A3.16,3.16,0,0,0,1441.47,557.81Z"/><path class="cls-9" d="M1449.06,547.46h2.51l.28,2.11h.18c.61-1.61,1.61-2.42,3-2.42a3.34,3.34,0,0,1,1.27.23v2.87h-1q-3.22,0-3.22,3.6v7h-3Z"/><path class="cls-9" d="M1459,559.39a8.31,8.31,0,0,1-1.39-5.28,8.21,8.21,0,0,1,1.39-5.2,4.53,4.53,0,0,1,3.73-1.76,4.42,4.42,0,0,1,4,1.86h.16v-6.55h3v18.35h-2.51l-.25-1.78H1467a4.35,4.35,0,0,1-1.72,1.55,5.28,5.28,0,0,1-2.36.53A4.77,4.77,0,0,1,1459,559.39Zm7.16-1.94a5.51,5.51,0,0,0,.74-3.14V554q0-4.25-3.05-4.24a2.7,2.7,0,0,0-2.38,1,5.6,5.6,0,0,0-.72,3.21v.33a5.55,5.55,0,0,0,.72,3.19,2.72,2.72,0,0,0,2.38,1A2.62,2.62,0,0,0,1466.14,557.45Z"/><path class="cls-10" d="M1251.31,366.28a3.35,3.35,0,0,0-1.41-1.74l-28.43-17.71a3.35,3.35,0,0,0-5.11,2.88v10.56H980.41a14.51,14.51,0,0,0-14,14.51v33.13h14V379.28a5,5,0,0,1,5-5h231v10.85a3.35,3.35,0,0,0,5.11,2.88l28.43-17.73a3.25,3.25,0,0,0,1.49-2v0A3.44,3.44,0,0,0,1251.31,366.28Z"/><path class="cls-6" d="M1095,277.15H851.76c-14.62,0-26.48,11.17-26.48,25v143.3c0,13.78,11.86,24.95,26.48,24.95H1095c14.62,0,26.48-11.17,26.48-24.95V302.11C1121.49,288.32,1109.63,277.15,1095,277.15Z"/><path class="cls-10" d="M970.56,461.41l-17.34,28.1a3.31,3.31,0,0,0,2.81,5.05h10.34V541h14V494.56h10.35a3.31,3.31,0,0,0,2.82-5.05l-17.37-28.1A3.31,3.31,0,0,0,970.56,461.41Z"/><g class="cls-11"><rect class="cls-12" x="735.35" y="856.01" width="157.12" height="92.22" rx="13"/></g><rect class="cls-6" x="398.27" y="600.34" width="297.57" height="70.58" rx="15.96"/><circle class="cls-4" cx="359.56" cy="635.63" r="23.16"/><text class="cls-13" transform="translate(353.74 643.38)">1</text><path class="cls-10" d="M993.57,852.07,976.2,824a3.22,3.22,0,0,0-1.31-1.21,3.32,3.32,0,0,0-4.32,1.21l-17.34,28.09a3.31,3.31,0,0,0,2.81,5.06h10.34v45a5,5,0,0,1-5,5H662.82a5,5,0,0,1-5-5V684.31a15.83,15.83,0,0,0-7-30,15.59,15.59,0,0,0-7,1.61,15.83,15.83,0,0,0-.06,28.41V906.58a14.51,14.51,0,0,0,14,14.51H965.89a14.52,14.52,0,0,0,14.51-14c0-.17,0-.32,0-.5V857.13h10.35A3.32,3.32,0,0,0,993.57,852.07Z"/><rect class="cls-2" x="350.17" y="274.63" width="333.81" height="198.99"/><path class="cls-3" d="M553.8,516.73v-30.2H478.44v30.2a3.17,3.17,0,0,1-1,2.28L464.6,531.46a3.17,3.17,0,0,0,2.2,5.45h98.64a3.17,3.17,0,0,0,2.2-5.45L554.77,519A3.17,3.17,0,0,1,553.8,516.73Z"/><rect class="cls-4" x="350.17" y="274.64" width="333.81" height="15.16"/><rect class="cls-4" x="350.17" y="459.56" width="333.81" height="15.16"/><path class="cls-5" d="M683.14,261.09h-334a12.7,12.7,0,0,0-12.7,12.7v200a12.7,12.7,0,0,0,12.7,12.7h334a12.7,12.7,0,0,0,12.7-12.7v-200A12.7,12.7,0,0,0,683.14,261.09ZM684,473.62H350.17v-199H684Z"/><rect class="cls-6" x="364.98" y="299.88" width="68.36" height="149.42"/><rect class="cls-6" x="443.6" y="299.88" width="68.36" height="149.42"/><rect class="cls-6" x="522.21" y="299.88" width="68.36" height="149.42"/><rect class="cls-6" x="600.82" y="299.88" width="68.36" height="149.42"/><rect class="cls-2" x="370.82" y="322.5" width="56.69" height="104.18"/><rect class="cls-2" x="449.43" y="322.5" width="56.69" height="104.18"/><line class="cls-7" x1="375.8" y1="307.99" x2="415.46" y2="307.99"/><line class="cls-7" x1="454.42" y1="307.99" x2="494.08" y2="307.99"/><line class="cls-7" x1="533.03" y1="307.99" x2="572.69" y2="307.99"/><line class="cls-7" x1="611.64" y1="307.99" x2="651.3" y2="307.99"/><line class="cls-7" x1="470.66" y1="341.21" x2="498.15" y2="341.21"/><line class="cls-7" x1="458.49" y1="341.21" x2="462.67" y2="341.21"/><line class="cls-7" x1="470.66" y1="379.82" x2="498.15" y2="379.82"/><line class="cls-7" x1="458.49" y1="379.82" x2="462.67" y2="379.82"/><line class="cls-7" x1="392.05" y1="341.21" x2="419.53" y2="341.21"/><line class="cls-7" x1="379.87" y1="341.21" x2="384.06" y2="341.21"/><line class="cls-7" x1="392.05" y1="379.82" x2="419.53" y2="379.82"/><line class="cls-7" x1="379.87" y1="379.82" x2="384.06" y2="379.82"/><rect class="cls-4" x="370.82" y="322.5" width="56.69" height="10.73"/><rect class="cls-4" x="449.43" y="322.5" width="56.69" height="10.73"/><line class="cls-8" x1="487.91" y1="517.51" x2="546.25" y2="517.51"/><rect class="cls-14" x="724.57" y="845.23" width="157.12" height="92.22" rx="12.22"/><line class="cls-15" x1="729.51" y1="848.12" x2="786.46" y2="881.55"/><line class="cls-15" x1="876.76" y1="848.13" x2="819.81" y2="881.55"/><path class="cls-9" d="M819.45,897.41a13.79,13.79,0,0,1-2.48,8,7.29,7.29,0,0,1-6.1,3,5.66,5.66,0,0,1-2.91-.72,4.65,4.65,0,0,1-1.86-2.08,6,6,0,0,1-4.57,2.72A5.42,5.42,0,0,1,796.6,906a9.66,9.66,0,0,1-1.24-6.46,16.76,16.76,0,0,1,1.64-5.76,10.31,10.31,0,0,1,3.25-3.88,7.34,7.34,0,0,1,4.24-1.35,8.59,8.59,0,0,1,4.79,1.29l1.24.85-1,11.34a3.52,3.52,0,0,0,.34,2.38,1.9,1.9,0,0,0,1.72.82,3.51,3.51,0,0,0,3-2.11,11.84,11.84,0,0,0,1.34-5.52q.33-6.85-2.76-10.53T804,883.33a12.17,12.17,0,0,0-6.75,1.93,13,13,0,0,0-4.67,5.47,20.81,20.81,0,0,0-1.93,8.11q-.31,7,2.79,10.75t9.29,3.8a17.28,17.28,0,0,0,3.41-.36c.53-.11,1-.24,1.5-.38a1.62,1.62,0,0,1,2,1.18h0a1.63,1.63,0,0,1-1,1.91,13.13,13.13,0,0,1-1.94.6,17.72,17.72,0,0,1-4.09.48,17.47,17.47,0,0,1-8.84-2.09,12.78,12.78,0,0,1-5.44-6.16,21.65,21.65,0,0,1-1.56-9.73,22.81,22.81,0,0,1,2.47-9.71,17.09,17.09,0,0,1,23.28-6.88,13,13,0,0,1,5.32,6A19.89,19.89,0,0,1,819.45,897.41Zm-19.73,2.08a7.79,7.79,0,0,0,.45,3.94,2.26,2.26,0,0,0,2.16,1.34,2.62,2.62,0,0,0,1.83-.84,6.38,6.38,0,0,0,1.43-2.44l.83-9.28a5,5,0,0,0-1.57-.26,3.94,3.94,0,0,0-3.51,1.93A12.82,12.82,0,0,0,799.72,899.49Z"/><path class="cls-15" d="M1028.94,719.7A97.55,97.55,0,0,1,973.39,737a97.89,97.89,0,1,1,95.1-74.2"/><rect class="cls-16" x="1018.21" y="656.41" width="23.89" height="12.89"/><rect class="cls-16" x="1003.56" y="673.33" width="23.89" height="12.89"/><rect class="cls-16" x="1032.86" y="673.33" width="23.89" height="12.89"/><rect class="cls-16" x="988.91" y="690.26" width="23.89" height="12.89"/><rect class="cls-16" x="1018.21" y="690.26" width="23.89" height="12.89"/><rect class="cls-16" x="1047.51" y="690.26" width="23.89" height="12.89"/><path class="cls-16" d="M995.31,658.09h-10l-2.24,23.45a14.53,14.53,0,0,1-14.47,13.16H942.36v10.75H916c8.38-28.51,5-47.28-2.95-55.23h0a7,7,0,1,0-10.77-8.84c-5.41-7.46-4.57-17.28-.26-20.1,5.66-3.7,12.52,3.49,17.86,3.49s5-8.61,5-15.69h60v26.36Z"/><path class="cls-16" d="M942.36,705.45V732a97.47,97.47,0,0,1-29.75-16.12q2-5.39,3.43-10.38Z"/><path class="cls-14" d="M998.79,609.07H924.9a36.94,36.94,0,0,1,36.94-36.94c.8,0,1.59,0,2.38.07A36.94,36.94,0,0,1,998.79,609.07Z"/><path class="cls-14" d="M964.22,572.2c-.79-.05-1.58-.07-2.38-.07a36.94,36.94,0,0,0-36.94,36.94c0,7.08.36,15.69-5,15.69s-12.2-7.19-17.86-3.49c-4.31,2.82-5.15,12.64.26,20.1a7,7,0,0,0,10.77,8.85c7.91,7.95,11.33,26.72,2.95,55.23q-1.47,5-3.43,10.38c-1.49-1.17-2.94-2.4-4.36-3.66a98,98,0,0,1,6.46-151.73,50.89,50.89,0,0,1,49.51,11.76Z"/><path class="cls-16" d="M914.68,645.78a7,7,0,0,1-1.59,4.43h0a7,7,0,1,1,1.59-4.44Z"/><path class="cls-10" d="M336.9,357.24v10.34H264.46v14H336.9v10.35a3.3,3.3,0,0,0,5,2.81L370,377.4a3.26,3.26,0,0,0,1.08-1.11,3.3,3.3,0,0,0,0-3.44,3,3,0,0,0-1.07-1.09l-28.1-17.35A3.31,3.31,0,0,0,336.9,357.24Z"/><rect class="cls-17" x="866.89" y="254.68" width="206.22" height="125.53"/><path class="cls-18" d="M866.89,254.68V380.21a23,23,0,0,1-23-23V277.72A23,23,0,0,1,866.89,254.68Z"/><path class="cls-18" d="M1078.5,254.68h-5.39V380.21h5.39a23,23,0,0,0,23-23V277.72A23,23,0,0,0,1078.5,254.68Zm8.58,70.78a8,8,0,1,1,8-8A8,8,0,0,1,1087.08,325.46Z"/><path class="cls-14" d="M1095.1,317.44a8,8,0,1,1-8-8A8,8,0,0,1,1095.1,317.44Z"/><line class="cls-19" x1="904.44" y1="349.49" x2="904.44" y2="349.49"/><line class="cls-20" x1="923.17" y1="349.49" x2="1026.2" y2="349.49"/><line class="cls-19" x1="1035.57" y1="349.49" x2="1035.57" y2="349.49"/><path class="cls-15" d="M904.44,328.46c21.89,4.41,47.15,2.27,58.08-17.89,2.87-5.3,4.4-12.18,1.84-17.88-2.68-6-9.32-9.34-15.33-5.93-10.23,5.79-9.07,20-2,27.64,8.51,9.09,23.24,9.16,32.67,1.44,4.2-3.44,8.21-9.37,7.18-15.12-1.39-7.79-9.75-3.54-11.15,2-3.25,12.92,12.51,20.06,22.94,17.66a23.52,23.52,0,0,0,14.63-10.06c3.12-5.09,4.07-13.44-2.82-16s-11.2,4.91-10.39,10.92c.88,6.51,6.22,11.24,11.84,13.94,7.15,3.42,15.28,4.07,23.18,2.77"/></g><g id="Text"><path class="cls-9" d="M859.17,399.31h13.57v2.77H862.42v4.36h9.21v2.77h-9.21V414H872.9v2.76H859.17Z"/><path class="cls-9" d="M876.07,398.37h3v18.35h-3Z"/><path class="cls-9" d="M883.38,415.33q-1.57-1.71-1.58-5.28t1.59-5.28a6.29,6.29,0,0,1,4.81-1.7,5.57,5.57,0,0,1,4.4,1.65c1,1.1,1.46,2.82,1.46,5.15v.91H884.9a4.77,4.77,0,0,0,.85,2.91,3,3,0,0,0,2.47.93,3.14,3.14,0,0,0,2.06-.65,2.35,2.35,0,0,0,.79-1.92h3a4.42,4.42,0,0,1-1.62,3.72A6.74,6.74,0,0,1,888.2,417,6.27,6.27,0,0,1,883.38,415.33Zm7.51-6.7c0-2.1-.9-3.15-2.69-3.15a3.15,3.15,0,0,0-2.3.77,3.93,3.93,0,0,0-.95,2.38Z"/><path class="cls-9" d="M897.44,415.33q-1.53-1.71-1.53-5.28c0-2.39.52-4.15,1.54-5.28a7.21,7.21,0,0,1,8.84-.36,5.11,5.11,0,0,1,1.48,4h-3.1a3.15,3.15,0,0,0-.63-2.13,2.56,2.56,0,0,0-2-.71,2.6,2.6,0,0,0-2.31,1.08,5.94,5.94,0,0,0-.74,3.31v.31a5.69,5.69,0,0,0,.75,3.28,2.78,2.78,0,0,0,2.42,1.06,2.53,2.53,0,0,0,2-.74,3,3,0,0,0,.67-2.11h2.95a5.1,5.1,0,0,1-1.49,3.91,5.86,5.86,0,0,1-4.17,1.4A6,6,0,0,1,897.44,415.33Z"/><path class="cls-9" d="M911.31,416.08a3.74,3.74,0,0,1-.75-2.38v-7.84h-1.63v-2.49h1.68l.56-3.73h2.43v3.73h2.29v2.49H913.6v7.54c0,.76.37,1.14,1.09,1.14h1.2v2.08a6.57,6.57,0,0,1-1,.28,5.84,5.84,0,0,1-1.12.13A2.92,2.92,0,0,1,911.31,416.08Z"/><path class="cls-9" d="M918.35,403.37h2.51l.28,2.11h.18c.61-1.61,1.6-2.41,3-2.41a3.34,3.34,0,0,1,1.27.23v2.87h-1q-3.23,0-3.23,3.6v7h-3Z"/><path class="cls-9" d="M928.54,415.33q-1.63-1.71-1.64-5.28t1.64-5.28a8,8,0,0,1,9.87,0q1.64,1.69,1.64,5.28t-1.64,5.28a8,8,0,0,1-9.87,0Zm7.55-1.84a5.34,5.34,0,0,0,.81-3.26v-.36a5.34,5.34,0,0,0-.81-3.26,3.79,3.79,0,0,0-5.24,0,5.34,5.34,0,0,0-.8,3.26v.36a5.34,5.34,0,0,0,.8,3.26,3.79,3.79,0,0,0,5.24,0Z"/><path class="cls-9" d="M942.76,403.37h2.51l.26,1.78h.18a5.16,5.16,0,0,1,1.81-1.54,5.45,5.45,0,0,1,2.48-.54,4.4,4.4,0,0,1,3.17,1.1,4.76,4.76,0,0,1,1.14,3.54v9h-3v-8.47a2.16,2.16,0,0,0-2.46-2.54,2.82,2.82,0,0,0-2.13.91,3.29,3.29,0,0,0-.86,2.34v7.76h-3Z"/><path class="cls-9" d="M957.79,398.37h3v3h-3Zm0,5h3v13.35h-3Z"/><path class="cls-9" d="M965,415.33q-1.51-1.71-1.52-5.28t1.54-5.28a6,6,0,0,1,4.65-1.7,6,6,0,0,1,4.19,1.34,5.11,5.11,0,0,1,1.47,4h-3.09a3.15,3.15,0,0,0-.64-2.13,2.53,2.53,0,0,0-2-.71,2.6,2.6,0,0,0-2.31,1.08,6,6,0,0,0-.73,3.31v.31a5.69,5.69,0,0,0,.75,3.28,2.77,2.77,0,0,0,2.42,1.06,2.55,2.55,0,0,0,2-.74,3.05,3.05,0,0,0,.67-2.11h2.94a5.1,5.1,0,0,1-1.48,3.91,5.87,5.87,0,0,1-4.18,1.4A6,6,0,0,1,965,415.33Z"/><path class="cls-9" d="M978.3,416.23a3.19,3.19,0,0,1-1.3-3,3.65,3.65,0,0,1,2.18-3.6,14.64,14.64,0,0,1,6.19-1v-1.12a2.14,2.14,0,0,0-.49-1.5,2.42,2.42,0,0,0-1.79-.53,3.2,3.2,0,0,0-1.91.43,1.31,1.31,0,0,0-.55,1.07v.35h-3c0-.1,0-.28,0-.56a3.09,3.09,0,0,1,1.48-2.71,7,7,0,0,1,4-1,6.17,6.17,0,0,1,4,1.09,3.81,3.81,0,0,1,1.34,3.12v6.37a.81.81,0,0,0,.25.67.92.92,0,0,0,.64.22h.81v2.08a4.37,4.37,0,0,1-1.91.38,2.73,2.73,0,0,1-1.65-.48,2.31,2.31,0,0,1-.88-1.32h-.18a5.2,5.2,0,0,1-4.26,1.83A5.54,5.54,0,0,1,978.3,416.23Zm6.21-2.5a3.2,3.2,0,0,0,.86-2.34v-.61a12.67,12.67,0,0,0-3.86.47,1.75,1.75,0,0,0-1.39,1.72c0,1.08.67,1.62,2,1.62A3.21,3.21,0,0,0,984.51,413.73Z"/><path class="cls-9" d="M992.1,398.37h3v18.35h-3Z"/><path class="cls-9" d="M998.67,398.37h3v18.35h-3Z"/><path class="cls-9" d="M1005.39,421.2l-.56-.14V419h1.38a2.67,2.67,0,0,0,1.66-.52,3.38,3.38,0,0,0,1-1.72l-5.2-13.35h3.2l2.51,6.42c.29.77.66,2,1.12,3.71h.12c.42-1.62.77-2.86,1-3.71l2-6.42h3.07L1012.37,416a12.32,12.32,0,0,1-2.1,3.93,4.11,4.11,0,0,1-3.28,1.37A6.47,6.47,0,0,1,1005.39,421.2Z"/><path class="cls-9" d="M1026.7,415.89a3.57,3.57,0,0,1-1.51-3,2.2,2.2,0,0,1,0-.31.46.46,0,0,0,0-.1h3v.2a1.62,1.62,0,0,0,.85,1.46,4.07,4.07,0,0,0,2.07.47,4.43,4.43,0,0,0,1.91-.37,1.2,1.2,0,0,0,.35-2,3.23,3.23,0,0,0-1.07-.59c-.42-.14-1-.3-1.8-.49a21.43,21.43,0,0,1-2.57-.76,4.37,4.37,0,0,1-1.72-1.19,3.18,3.18,0,0,1-.71-2.14,3.32,3.32,0,0,1,1.58-2.94,7.3,7.3,0,0,1,4.08-1,7.74,7.74,0,0,1,2.77.46,4.31,4.31,0,0,1,1.89,1.28,2.9,2.9,0,0,1,.67,1.89l0,.56h-3v-.11a1.43,1.43,0,0,0-.65-1.23,3.32,3.32,0,0,0-1.86-.44,3.52,3.52,0,0,0-1.81.37,1.09,1.09,0,0,0-.61.95,1.12,1.12,0,0,0,.75,1.05,11.73,11.73,0,0,0,2.3.68,19.94,19.94,0,0,1,2.7.77,4.57,4.57,0,0,1,1.79,1.23,3.22,3.22,0,0,1,.76,2.26,3.55,3.55,0,0,1-1.58,3.22,7.88,7.88,0,0,1-4.3,1A7,7,0,0,1,1026.7,415.89Z"/><path class="cls-9" d="M1039.55,398.37h3v3h-3Zm0,5h3v13.35h-3Z"/><path class="cls-9" d="M1045.91,420.52a2.81,2.81,0,0,1-1-2.3,3,3,0,0,1,2.08-2.77,2.73,2.73,0,0,1-1-.83,2.09,2.09,0,0,1-.35-1.2,1.86,1.86,0,0,1,.67-1.47,3.73,3.73,0,0,1,1.64-.81,4,4,0,0,1-1.41-1.5,4.23,4.23,0,0,1-.5-2.05,4,4,0,0,1,1.51-3.32,6.65,6.65,0,0,1,4.23-1.2,7.47,7.47,0,0,1,2.64.41,3.38,3.38,0,0,0,1.19-1.11,2.61,2.61,0,0,0,.43-1.2h3a3.25,3.25,0,0,1-.74,2.18,3.62,3.62,0,0,1-2,1.14,4.39,4.39,0,0,1-.15,6.42,6.33,6.33,0,0,1-4.14,1.22h-2.08a1.42,1.42,0,0,0-.84.23.74.74,0,0,0-.3.63.76.76,0,0,0,.28.62,1.12,1.12,0,0,0,.76.25h5.84a3.3,3.3,0,0,1,2.46,1,3.39,3.39,0,0,1,1,2.48,3.75,3.75,0,0,1-.58,2,4,4,0,0,1-1.66,1.46,5.62,5.62,0,0,1-2.48.53h-6A3.69,3.69,0,0,1,1045.91,420.52Zm8.41-1.39a2,2,0,0,0,1.2-.36,1.19,1.19,0,0,0,.48-1,1.26,1.26,0,0,0-.41-1,1.55,1.55,0,0,0-1.06-.36h-5.13a1.44,1.44,0,0,0-1,.38,1.41,1.41,0,0,0,0,1.95,1.47,1.47,0,0,0,1,.36Zm-.45-9.78a2.27,2.27,0,0,0,.68-1.76,2.31,2.31,0,0,0-.68-1.77,3.65,3.65,0,0,0-4.07,0,2.31,2.31,0,0,0-.68,1.77,2.26,2.26,0,0,0,.68,1.77,3,3,0,0,0,2,.61A2.93,2.93,0,0,0,1053.87,409.35Z"/><path class="cls-9" d="M1061.15,403.37h2.51l.26,1.78h.17a5.19,5.19,0,0,1,1.82-1.54,5.44,5.44,0,0,1,2.47-.54,4.38,4.38,0,0,1,3.17,1.1,4.73,4.73,0,0,1,1.15,3.54v9h-3v-8.47a2.62,2.62,0,0,0-.62-2,2.59,2.59,0,0,0-1.84-.58,2.79,2.79,0,0,0-2.13.91,3.25,3.25,0,0,0-.86,2.34v7.76h-3Z"/><path class="cls-9" d="M1077,415.89a3.57,3.57,0,0,1-1.51-3,2.2,2.2,0,0,1,0-.31.46.46,0,0,0,0-.1h3v.2a1.62,1.62,0,0,0,.85,1.46,4.07,4.07,0,0,0,2.07.47,4.35,4.35,0,0,0,1.9-.37,1.2,1.2,0,0,0,.36-2,3.23,3.23,0,0,0-1.07-.59c-.42-.14-1-.3-1.8-.49a21.43,21.43,0,0,1-2.57-.76,4.37,4.37,0,0,1-1.72-1.19,3.18,3.18,0,0,1-.71-2.14,3.32,3.32,0,0,1,1.58-2.94,7.3,7.3,0,0,1,4.08-1,7.74,7.74,0,0,1,2.77.46,4.31,4.31,0,0,1,1.89,1.28,2.9,2.9,0,0,1,.67,1.89l0,.56h-3v-.11a1.43,1.43,0,0,0-.65-1.23,3.33,3.33,0,0,0-1.87-.44,3.5,3.5,0,0,0-1.8.37,1.09,1.09,0,0,0-.61.95,1.12,1.12,0,0,0,.75,1.05,11.73,11.73,0,0,0,2.3.68,19.94,19.94,0,0,1,2.7.77,4.57,4.57,0,0,1,1.79,1.23,3.22,3.22,0,0,1,.76,2.26,3.55,3.55,0,0,1-1.58,3.22,7.92,7.92,0,0,1-4.31,1A7,7,0,0,1,1077,415.89Z"/><path class="cls-9" d="M911.27,428.83h3v18.35h-3Z"/><path class="cls-9" d="M917.84,428.83h3v3h-3Zm0,5h3v13.35h-3Z"/><path class="cls-9" d="M925.15,445.78q-1.57-1.69-1.57-5.28c0-2.38.52-4.14,1.58-5.28a6.29,6.29,0,0,1,4.81-1.7,5.57,5.57,0,0,1,4.4,1.65c1,1.1,1.46,2.82,1.46,5.15v.92h-9.16a4.78,4.78,0,0,0,.85,2.9,3.67,3.67,0,0,0,4.53.28,2.32,2.32,0,0,0,.79-1.91h3a4.42,4.42,0,0,1-1.62,3.72,6.78,6.78,0,0,1-4.24,1.25A6.28,6.28,0,0,1,925.15,445.78Zm7.51-6.7c0-2.1-.9-3.15-2.69-3.15a3.12,3.12,0,0,0-2.3.78,3.93,3.93,0,0,0-.95,2.37Z"/><path class="cls-9" d="M938.52,433.83H941l.25,1.77h.18a5,5,0,0,1,1.81-1.53,5.49,5.49,0,0,1,2.48-.55,4.36,4.36,0,0,1,3.17,1.11,4.73,4.73,0,0,1,1.14,3.54v9h-3V438.7a2.18,2.18,0,0,0-2.47-2.54,2.83,2.83,0,0,0-2.13.92,3.27,3.27,0,0,0-.86,2.33v7.77h-3.05Z"/><path class="cls-9" d="M958.93,433.83h3.14l1.65,6.19c.16.54.42,1.74.79,3.6h.13c.35-1.79.61-3,.76-3.57l1.5-6.22h3.27l1.6,6.24c.15.66.41,1.85.76,3.55h.13c.34-1.59.6-2.77.78-3.55l1.6-6.24H978l-4,13.35h-3.2l-1.65-6.93c-.17-.69-.37-1.65-.61-2.87h-.13c-.2,1.2-.39,2.15-.55,2.84l-1.71,7h-3.19Z"/><path class="cls-9" d="M980.18,446.68a3.17,3.17,0,0,1-1.3-2.95,3.68,3.68,0,0,1,2.18-3.61,14.8,14.8,0,0,1,6.19-1V438a2.1,2.1,0,0,0-.5-1.49,2.35,2.35,0,0,0-1.78-.54,3.17,3.17,0,0,0-1.91.44,1.29,1.29,0,0,0-.56,1.06v.36h-2.94a3.43,3.43,0,0,1,0-.56,3.11,3.11,0,0,1,1.49-2.72,7,7,0,0,1,4-1,6.25,6.25,0,0,1,4,1.09,3.81,3.81,0,0,1,1.33,3.13v6.37a.83.83,0,0,0,.26.67,1,1,0,0,0,.63.21H992v2.09a4.55,4.55,0,0,1-1.91.38,2.67,2.67,0,0,1-1.65-.49,2.37,2.37,0,0,1-.89-1.32h-.17a5.2,5.2,0,0,1-4.27,1.83A5.44,5.44,0,0,1,980.18,446.68Zm6.21-2.5a3.16,3.16,0,0,0,.86-2.33v-.61a12.67,12.67,0,0,0-3.86.47,1.73,1.73,0,0,0-1.39,1.71c0,1.08.67,1.63,2,1.63A3.19,3.19,0,0,0,986.39,444.18Z"/><path class="cls-9" d="M994,428.83h3v3h-3Zm0,5h3v13.35h-3Z"/><path class="cls-9" d="M999,433.83h3.2l2.18,6.06c.27.75.67,2.1,1.2,4.06h.12c.48-1.86.87-3.21,1.17-4.06l2.16-6.06h3.07l-5,13.35H1004Z"/><path class="cls-9" d="M1014.91,445.78q-1.57-1.69-1.57-5.28t1.58-5.28a6.29,6.29,0,0,1,4.81-1.7,5.59,5.59,0,0,1,4.41,1.65q1.45,1.65,1.46,5.15v.92h-9.17a4.78,4.78,0,0,0,.85,2.9,3.67,3.67,0,0,0,4.53.28,2.32,2.32,0,0,0,.79-1.91h3a4.43,4.43,0,0,1-1.63,3.72,6.76,6.76,0,0,1-4.24,1.25A6.28,6.28,0,0,1,1014.91,445.78Zm7.51-6.7c0-2.1-.89-3.15-2.69-3.15a3.08,3.08,0,0,0-2.29.78,3.87,3.87,0,0,0-1,2.37Z"/><path class="cls-9" d="M1028.29,433.83h2.51l.28,2.1h.17c.61-1.6,1.61-2.41,3-2.41a3.38,3.38,0,0,1,1.27.23v2.87h-1c-2.14,0-3.22,1.2-3.22,3.6v7h-3Z"/><path class="cls-9" d="M426.49,628.05c-1.13-1.16-1.69-2.93-1.69-5.33a7.32,7.32,0,0,1,1.71-5.29,6.51,6.51,0,0,1,4.88-1.76,7.72,7.72,0,0,1,3.1.59,4.83,4.83,0,0,1,2.14,1.77,5.13,5.13,0,0,1,.78,2.91h-2.6a2.94,2.94,0,0,0-.92-2.31,3.61,3.61,0,0,0-2.46-.81,3.75,3.75,0,0,0-3,1.17,5.32,5.32,0,0,0-1,3.54v.39a5.39,5.39,0,0,0,1,3.55,3.77,3.77,0,0,0,3,1.16,3.82,3.82,0,0,0,2.55-.8,2.86,2.86,0,0,0,.93-2.28h2.5a4.67,4.67,0,0,1-1.66,3.89,6.71,6.71,0,0,1-4.36,1.33A6.54,6.54,0,0,1,426.49,628.05Z"/><path class="cls-9" d="M439.66,619.09h2l.22,1.65H442a2.47,2.47,0,0,1,2.34-1.89,2.62,2.62,0,0,1,1,.18v2.24h-.76q-2.52,0-2.52,2.82v5.45h-2.38Z"/><path class="cls-9" d="M447.58,628.44a7.52,7.52,0,0,1,0-8.26,4.9,4.9,0,0,1,3.76-1.33,4.37,4.37,0,0,1,3.45,1.29,6,6,0,0,1,1.14,4v.72h-7.17a3.69,3.69,0,0,0,.67,2.27,2.37,2.37,0,0,0,1.94.73,2.42,2.42,0,0,0,1.6-.51,1.84,1.84,0,0,0,.62-1.5h2.34a3.43,3.43,0,0,1-1.27,2.91,5.24,5.24,0,0,1-3.32,1A4.89,4.89,0,0,1,447.58,628.44Zm5.88-5.24c0-1.64-.7-2.46-2.11-2.46a2.44,2.44,0,0,0-1.79.6,3.07,3.07,0,0,0-.75,1.86Z"/><path class="cls-9" d="M458.3,629.15a2.48,2.48,0,0,1-1-2.31A2.87,2.87,0,0,1,459,624a11.45,11.45,0,0,1,4.85-.82v-.87a1.66,1.66,0,0,0-.39-1.18,1.9,1.9,0,0,0-1.4-.41,2.46,2.46,0,0,0-1.49.34,1,1,0,0,0-.44.83v.28h-2.3a3.87,3.87,0,0,1,0-.44,2.42,2.42,0,0,1,1.16-2.12,5.48,5.48,0,0,1,3.09-.78,4.87,4.87,0,0,1,3.13.86,3,3,0,0,1,1,2.44v5a.66.66,0,0,0,.2.53.76.76,0,0,0,.5.17h.63v1.63a3.45,3.45,0,0,1-1.49.3,2.16,2.16,0,0,1-1.29-.38,1.86,1.86,0,0,1-.69-1h-.14a4.08,4.08,0,0,1-3.34,1.42A4.25,4.25,0,0,1,458.3,629.15Zm4.85-2a2.47,2.47,0,0,0,.68-1.82v-.48a9.66,9.66,0,0,0-3,.37,1.36,1.36,0,0,0-1.09,1.34c0,.84.53,1.27,1.59,1.27A2.48,2.48,0,0,0,463.15,627.19Z"/><path class="cls-9" d="M469.82,629a2.94,2.94,0,0,1-.59-1.86V621H468v-1.95h1.31l.44-2.92h1.9v2.92h1.79V621h-1.79v5.89c0,.6.29.9.86.9h.93v1.63a6.11,6.11,0,0,1-.79.22,4.78,4.78,0,0,1-.88.09A2.27,2.27,0,0,1,469.82,629Z"/><path class="cls-9" d="M475.9,628.44a7.52,7.52,0,0,1,0-8.26,4.92,4.92,0,0,1,3.77-1.33,4.36,4.36,0,0,1,3.44,1.29,6,6,0,0,1,1.15,4v.72H477.1a3.76,3.76,0,0,0,.66,2.27,2.37,2.37,0,0,0,1.94.73,2.45,2.45,0,0,0,1.61-.51,1.83,1.83,0,0,0,.61-1.5h2.35a3.44,3.44,0,0,1-1.28,2.91,5.21,5.21,0,0,1-3.31,1A4.9,4.9,0,0,1,475.9,628.44Zm5.88-5.24q0-2.46-2.1-2.46a2.44,2.44,0,0,0-1.8.6,3.07,3.07,0,0,0-.74,1.86Z"/><path class="cls-9" d="M492.14,629.15a2.49,2.49,0,0,1-1-2.31,2.87,2.87,0,0,1,1.71-2.82,11.37,11.37,0,0,1,4.84-.82v-.87a1.66,1.66,0,0,0-.39-1.18,1.89,1.89,0,0,0-1.4-.41,2.42,2.42,0,0,0-1.48.34,1,1,0,0,0-.44.83v.28h-2.31a3.87,3.87,0,0,1,0-.44,2.41,2.41,0,0,1,1.17-2.12,5.43,5.43,0,0,1,3.08-.78,4.85,4.85,0,0,1,3.13.86,3,3,0,0,1,1.05,2.44v5a.66.66,0,0,0,.19.53.78.78,0,0,0,.5.17h.64v1.63a3.48,3.48,0,0,1-1.49.3,2.12,2.12,0,0,1-1.29-.38,1.83,1.83,0,0,1-.7-1h-.14a4.07,4.07,0,0,1-3.34,1.42A4.28,4.28,0,0,1,492.14,629.15Zm4.86-2a2.46,2.46,0,0,0,.67-1.82v-.48a9.7,9.7,0,0,0-3,.37,1.36,1.36,0,0,0-1.09,1.34c0,.84.53,1.27,1.59,1.27A2.51,2.51,0,0,0,497,627.19Z"/><path class="cls-9" d="M502.94,619.09h2l.2,1.39h.14a3.9,3.9,0,0,1,1.42-1.2,4.17,4.17,0,0,1,1.94-.43,3.42,3.42,0,0,1,2.48.87,3.71,3.71,0,0,1,.89,2.77v7h-2.38V622.9a1.69,1.69,0,0,0-1.93-2,2.19,2.19,0,0,0-1.67.71,2.57,2.57,0,0,0-.67,1.83v6.08h-2.38Z"/><path class="cls-9" d="M515.11,628.42a8.26,8.26,0,0,1,0-8.2,3.55,3.55,0,0,1,2.92-1.37,3.47,3.47,0,0,1,3.14,1.45h.12v-5.12h2.38v14.36h-2l-.19-1.39h-.12a3.49,3.49,0,0,1-1.35,1.21,4.08,4.08,0,0,1-1.85.41A3.73,3.73,0,0,1,515.11,628.42Zm5.6-1.52a4.28,4.28,0,0,0,.58-2.45v-.24c0-2.21-.8-3.31-2.39-3.31a2.12,2.12,0,0,0-1.86.78,4.41,4.41,0,0,0-.56,2.51v.26a4.36,4.36,0,0,0,.56,2.49,2.1,2.1,0,0,0,1.86.79A2.06,2.06,0,0,0,520.71,626.9Z"/><path class="cls-9" d="M532.58,628.88a2.77,2.77,0,0,1-1.18-2.32,1.36,1.36,0,0,1,0-.24.54.54,0,0,1,0-.08h2.32v.16a1.26,1.26,0,0,0,.67,1.14,3.17,3.17,0,0,0,1.61.37,3.5,3.5,0,0,0,1.49-.29.94.94,0,0,0,.28-1.61,2.64,2.64,0,0,0-.83-.46c-.33-.11-.8-.24-1.41-.38a17.16,17.16,0,0,1-2-.6,3.38,3.38,0,0,1-1.34-.93,2.46,2.46,0,0,1-.56-1.67,2.59,2.59,0,0,1,1.24-2.3,5.62,5.62,0,0,1,3.19-.82,6.13,6.13,0,0,1,2.17.36,3.43,3.43,0,0,1,1.48,1,2.29,2.29,0,0,1,.52,1.48l0,.44h-2.32v-.08a1.1,1.1,0,0,0-.51-1,2.48,2.48,0,0,0-1.46-.35,2.7,2.7,0,0,0-1.41.29.86.86,0,0,0-.47.74.88.88,0,0,0,.58.83,9.8,9.8,0,0,0,1.8.52,15.48,15.48,0,0,1,2.12.61,3.59,3.59,0,0,1,1.4,1,2.57,2.57,0,0,1,.59,1.77,2.77,2.77,0,0,1-1.24,2.52,6.2,6.2,0,0,1-3.37.79A5.42,5.42,0,0,1,532.58,628.88Z"/><path class="cls-9" d="M543.21,628.44a7.52,7.52,0,0,1,0-8.26,4.92,4.92,0,0,1,3.77-1.33,4.36,4.36,0,0,1,3.44,1.29,6,6,0,0,1,1.15,4v.72h-7.17a3.76,3.76,0,0,0,.66,2.27,2.37,2.37,0,0,0,1.94.73,2.45,2.45,0,0,0,1.61-.51,1.83,1.83,0,0,0,.61-1.5h2.35a3.44,3.44,0,0,1-1.28,2.91,5.21,5.21,0,0,1-3.31,1A4.9,4.9,0,0,1,543.21,628.44Zm5.88-5.24q0-2.46-2.1-2.46a2.44,2.44,0,0,0-1.8.6,3.07,3.07,0,0,0-.74,1.86Z"/><path class="cls-9" d="M553.68,619.09h2l.2,1.39H556a4,4,0,0,1,1.42-1.2,4.2,4.2,0,0,1,1.94-.43,3.39,3.39,0,0,1,2.48.87,3.67,3.67,0,0,1,.9,2.77v7h-2.39V622.9a1.68,1.68,0,0,0-1.92-2,2.19,2.19,0,0,0-1.67.71,2.57,2.57,0,0,0-.68,1.83v6.08h-2.38Z"/><path class="cls-9" d="M565.86,628.42a8.19,8.19,0,0,1,0-8.2,3.54,3.54,0,0,1,2.92-1.37,3.45,3.45,0,0,1,3.13,1.45H572v-5.12h2.39v14.36h-2l-.2-1.39h-.12a3.35,3.35,0,0,1-1.35,1.21,4,4,0,0,1-1.85.41A3.71,3.71,0,0,1,565.86,628.42Zm5.6-1.52a4.28,4.28,0,0,0,.57-2.45v-.24c0-2.21-.79-3.31-2.38-3.31a2.14,2.14,0,0,0-1.87.78,4.42,4.42,0,0,0-.55,2.51v.26a4.37,4.37,0,0,0,.55,2.49,2.12,2.12,0,0,0,1.87.79A2.07,2.07,0,0,0,571.46,626.9Z"/><path class="cls-9" d="M582.72,615.18h2.38v14.36h-2.38Z"/><path class="cls-9" d="M587.86,615.18h2.35v2.34h-2.35Zm0,3.91h2.39v10.45h-2.39Z"/><path class="cls-9" d="M593.58,628.44a7.52,7.52,0,0,1,0-8.26,4.9,4.9,0,0,1,3.77-1.33,4.36,4.36,0,0,1,3.44,1.29,6,6,0,0,1,1.14,4v.72h-7.17a3.76,3.76,0,0,0,.67,2.27,2.37,2.37,0,0,0,1.94.73,2.42,2.42,0,0,0,1.6-.51,1.84,1.84,0,0,0,.62-1.5h2.34a3.43,3.43,0,0,1-1.27,2.91,5.21,5.21,0,0,1-3.31,1A4.9,4.9,0,0,1,593.58,628.44Zm5.88-5.24q0-2.46-2.1-2.46a2.44,2.44,0,0,0-1.8.6,3.07,3.07,0,0,0-.75,1.86Z"/><path class="cls-9" d="M604.05,619.09h2l.19,1.39h.14a4,4,0,0,1,1.42-1.2,4.2,4.2,0,0,1,1.94-.43,3.39,3.39,0,0,1,2.48.87,3.67,3.67,0,0,1,.9,2.77v7H610.7V622.9a1.68,1.68,0,0,0-1.92-2,2.18,2.18,0,0,0-1.67.71,2.57,2.57,0,0,0-.68,1.83v6.08h-2.38Z"/><path class="cls-9" d="M424,642.92h2.46l1.29,4.85c.12.42.32,1.36.62,2.82h.1c.27-1.4.47-2.34.59-2.8l1.17-4.87h2.56l1.26,4.89c.12.52.31,1.44.59,2.78h.1c.27-1.24.47-2.17.62-2.78l1.25-4.89h2.28l-3.12,10.45h-2.5L432,648q-.19-.81-.48-2.25h-.1c-.15.94-.3,1.69-.43,2.23l-1.33,5.44h-2.51Z"/><path class="cls-9" d="M440.64,653a2.47,2.47,0,0,1-1-2.31,2.87,2.87,0,0,1,1.71-2.82,11.53,11.53,0,0,1,4.84-.82v-.87a1.65,1.65,0,0,0-.39-1.17,1.84,1.84,0,0,0-1.4-.42,2.48,2.48,0,0,0-1.49.34,1,1,0,0,0-.43.83V646h-2.31a3.74,3.74,0,0,1,0-.44,2.42,2.42,0,0,1,1.17-2.12,5.43,5.43,0,0,1,3.08-.78,4.85,4.85,0,0,1,3.13.86,3,3,0,0,1,1,2.44v5a.64.64,0,0,0,.2.52.72.72,0,0,0,.5.17h.64v1.63a3.48,3.48,0,0,1-1.49.3,2.17,2.17,0,0,1-1.3-.38,1.83,1.83,0,0,1-.69-1h-.14a4.07,4.07,0,0,1-3.34,1.43A4.29,4.29,0,0,1,440.64,653Zm4.86-2a2.47,2.47,0,0,0,.67-1.83v-.48a10,10,0,0,0-3,.37,1.36,1.36,0,0,0-1.09,1.34c0,.85.53,1.27,1.59,1.27A2.5,2.5,0,0,0,445.5,651Z"/><path class="cls-9" d="M451.43,639h2.35v2.34h-2.35Zm0,3.91h2.39v10.45h-2.39Z"/><path class="cls-9" d="M455.39,642.92h2.5l1.71,4.75q.31.87.93,3.18h.1c.37-1.46.68-2.52.91-3.18l1.69-4.75h2.41l-3.88,10.45h-2.5Z"/><path class="cls-9" d="M467.82,652.28a5.94,5.94,0,0,1-1.23-4.13,5.86,5.86,0,0,1,1.24-4.13,4.9,4.9,0,0,1,3.76-1.34A4.37,4.37,0,0,1,475,644a6,6,0,0,1,1.14,4v.71H469a3.72,3.72,0,0,0,.67,2.28,2.38,2.38,0,0,0,1.93.72,2.48,2.48,0,0,0,1.61-.5,1.84,1.84,0,0,0,.62-1.5h2.34a3.46,3.46,0,0,1-1.27,2.91,5.3,5.3,0,0,1-3.32,1A4.89,4.89,0,0,1,467.82,652.28ZM473.7,647c0-1.64-.7-2.46-2.11-2.46a2.4,2.4,0,0,0-1.79.61,3,3,0,0,0-.75,1.85Z"/><path class="cls-9" d="M478.29,642.92h2l.22,1.65h.14a2.47,2.47,0,0,1,2.34-1.89,2.59,2.59,0,0,1,1,.18v2.25h-.76q-2.52,0-2.52,2.82v5.44h-2.38Z"/><path class="cls-9" d="M486.24,652.72a2.78,2.78,0,0,1-1.18-2.33,1.36,1.36,0,0,1,0-.24.28.28,0,0,0,0-.08h2.32v.16a1.27,1.27,0,0,0,.67,1.14,3.18,3.18,0,0,0,1.62.37,3.39,3.39,0,0,0,1.49-.29.91.91,0,0,0,.61-.86.94.94,0,0,0-.33-.74,2.43,2.43,0,0,0-.84-.46q-.5-.17-1.41-.39a17.77,17.77,0,0,1-2-.6,3.25,3.25,0,0,1-1.34-.93,2.44,2.44,0,0,1-.55-1.67,2.6,2.6,0,0,1,1.23-2.3,5.73,5.73,0,0,1,3.2-.82,6.08,6.08,0,0,1,2.16.36,3.39,3.39,0,0,1,1.48,1,2.27,2.27,0,0,1,.53,1.47l0,.44h-2.33v-.08a1.09,1.09,0,0,0-.5-1,2.6,2.6,0,0,0-1.46-.35,2.8,2.8,0,0,0-1.41.29.85.85,0,0,0-.48.74.88.88,0,0,0,.59.83,9.75,9.75,0,0,0,1.79.53,15.66,15.66,0,0,1,2.12.6,3.73,3.73,0,0,1,1.4,1,2.53,2.53,0,0,1,.6,1.77,2.79,2.79,0,0,1-1.24,2.52,6.22,6.22,0,0,1-3.37.8A5.52,5.52,0,0,1,486.24,652.72Z"/><path class="cls-9" d="M501.82,639h2.35v2.34h-2.35Zm0,3.91h2.39v10.45h-2.39Z"/><path class="cls-9" d="M507,642.92h2l.2,1.39h.14a4.11,4.11,0,0,1,1.42-1.2,4.3,4.3,0,0,1,1.94-.43,3.41,3.41,0,0,1,2.48.87,3.7,3.7,0,0,1,.89,2.77v7h-2.38v-6.63a1.7,1.7,0,0,0-1.93-2,2.18,2.18,0,0,0-1.66.72,2.53,2.53,0,0,0-.68,1.82v6.08H507Z"/><path class="cls-9" d="M527.88,653.19a3.35,3.35,0,0,1-1.35-1.21h-.12l-.2,1.39h-2V639h2.38v5.13h.12a3.47,3.47,0,0,1,3.14-1.46,3.55,3.55,0,0,1,2.92,1.38,6.48,6.48,0,0,1,1.09,4.07,6.55,6.55,0,0,1-1.09,4.13,3.75,3.75,0,0,1-3.08,1.35A4.06,4.06,0,0,1,527.88,653.19Zm3-2.41a4.36,4.36,0,0,0,.56-2.49V648a4.41,4.41,0,0,0-.56-2.51,2.11,2.11,0,0,0-1.87-.79c-1.59,0-2.38,1.11-2.38,3.32v.24a4.24,4.24,0,0,0,.58,2.45,2,2,0,0,0,1.8.82A2.13,2.13,0,0,0,530.88,650.78Z"/><path class="cls-9" d="M535.94,650v-7.05h2.39v6.64a1.68,1.68,0,0,0,1.92,2,2.18,2.18,0,0,0,1.67-.71,2.57,2.57,0,0,0,.68-1.83v-6.08H545v10.45h-2l-.2-1.39h-.14a4,4,0,0,1-1.42,1.2,4.2,4.2,0,0,1-1.94.43Q535.95,653.61,535.94,650Z"/><path class="cls-9" d="M547.76,639h2.39v14.36h-2.39Z"/><path class="cls-9" d="M552.91,639h2.38v8.4l3.79-4.49h2.8L558.37,647l3.71,6.4h-2.74l-2.48-4.65-1.57,1.51v3.14h-2.38Z"/><path class="cls-9" d="M422.57,554.4H432a5.63,5.63,0,0,1,2.5.54,4.08,4.08,0,0,1,1.72,1.51,4.2,4.2,0,0,1-2.22,6.23v.1a4,4,0,0,1,2.4,1.44,4.32,4.32,0,0,1,.93,2.8,4.38,4.38,0,0,1-1.49,3.58,5.87,5.87,0,0,1-3.84,1.21h-9.45Zm8.58,7.13a2.43,2.43,0,0,0,1.75-.6,2.05,2.05,0,0,0,.64-1.55,2.17,2.17,0,0,0-.59-1.65,2.2,2.2,0,0,0-1.59-.56h-5.54v4.36Zm.43,7.52a2.54,2.54,0,0,0,1.78-.6,2.29,2.29,0,0,0,.66-1.79,2.37,2.37,0,0,0-.66-1.78,2.72,2.72,0,0,0-1.95-.63h-5.59v4.8Z"/><path class="cls-9" d="M440.31,567.47v-9h3.05v8.48a2.17,2.17,0,0,0,2.46,2.54,2.8,2.8,0,0,0,2.13-.92,3.22,3.22,0,0,0,.87-2.33v-7.77h3v13.35h-2.51L449.1,570h-.18a5.06,5.06,0,0,1-1.82,1.53,5.44,5.44,0,0,1-2.47.55Q440.31,572.12,440.31,567.47Z"/><path class="cls-9" d="M455.41,553.46h3v3h-3Zm0,5h3v13.35h-3Z"/><path class="cls-9" d="M462,553.46h3v18.35h-3Z"/><path class="cls-9" d="M469.49,571.17a3.74,3.74,0,0,1-.75-2.38V561h-1.63v-2.49h1.68l.56-3.73h2.43v3.73h2.29V561h-2.29v7.54c0,.76.37,1.14,1.09,1.14h1.2v2.08a6.57,6.57,0,0,1-1,.28,5.84,5.84,0,0,1-1.11.13A2.92,2.92,0,0,1,469.49,571.17Z"/><path class="cls-9" d="M483.61,554.4h6.95a8.59,8.59,0,0,1,6.25,2.17q2.2,2.17,2.2,6.54t-2.2,6.53a8.55,8.55,0,0,1-6.25,2.17h-6.95Zm6.95,14.65a4.93,4.93,0,0,0,3.8-1.42,6.23,6.23,0,0,0,1.33-4.27v-.51a6.1,6.1,0,0,0-1.32-4.25,4.94,4.94,0,0,0-3.81-1.43h-3.7v11.88Z"/><path class="cls-9" d="M502.22,571.32a3.19,3.19,0,0,1-1.3-3,3.65,3.65,0,0,1,2.18-3.6,14.64,14.64,0,0,1,6.19-1V562.6a2.14,2.14,0,0,0-.49-1.5,2.42,2.42,0,0,0-1.79-.53,3.2,3.2,0,0,0-1.91.43,1.3,1.3,0,0,0-.55,1.07v.35H501.6a3.74,3.74,0,0,1,0-.56,3.09,3.09,0,0,1,1.48-2.71,7,7,0,0,1,3.95-1,6.17,6.17,0,0,1,4,1.09,3.81,3.81,0,0,1,1.34,3.12v6.37a.81.81,0,0,0,.25.67.92.92,0,0,0,.64.22H514v2.08a4.37,4.37,0,0,1-1.91.38,2.73,2.73,0,0,1-1.65-.48,2.31,2.31,0,0,1-.88-1.32h-.18a5.2,5.2,0,0,1-4.27,1.83A5.53,5.53,0,0,1,502.22,571.32Zm6.21-2.5a3.18,3.18,0,0,0,.86-2.34v-.61a12.67,12.67,0,0,0-3.86.47,1.75,1.75,0,0,0-1.39,1.72c0,1.08.67,1.62,2,1.62A3.21,3.21,0,0,0,508.43,568.82Z"/><path class="cls-9" d="M516.79,571a3.54,3.54,0,0,1-1.51-3,2.2,2.2,0,0,1,0-.31.84.84,0,0,0,0-.1h3v.2a1.6,1.6,0,0,0,.85,1.46,4,4,0,0,0,2.06.47,4.43,4.43,0,0,0,1.91-.37,1.2,1.2,0,0,0,.35-2.05,3.28,3.28,0,0,0-1.06-.59c-.43-.14-1-.3-1.81-.49a22.61,22.61,0,0,1-2.57-.76,4.27,4.27,0,0,1-1.71-1.19,3.13,3.13,0,0,1-.71-2.14,3.31,3.31,0,0,1,1.57-2.94,7.3,7.3,0,0,1,4.08-1,7.7,7.7,0,0,1,2.77.46,4.31,4.31,0,0,1,1.89,1.28,2.9,2.9,0,0,1,.67,1.89l0,.56h-3v-.1a1.43,1.43,0,0,0-.65-1.24,3.32,3.32,0,0,0-1.86-.44,3.46,3.46,0,0,0-1.8.37,1.07,1.07,0,0,0-.61.95,1.12,1.12,0,0,0,.74,1.05,11.73,11.73,0,0,0,2.3.68,19.94,19.94,0,0,1,2.7.77,4.5,4.5,0,0,1,1.79,1.23,3.22,3.22,0,0,1,.77,2.26,3.53,3.53,0,0,1-1.59,3.22,7.88,7.88,0,0,1-4.3,1A6.92,6.92,0,0,1,516.79,571Z"/><path class="cls-9" d="M529.64,553.46h3.05V560h.18a4.79,4.79,0,0,1,1.67-1.34,5.29,5.29,0,0,1,2.34-.49,4.4,4.4,0,0,1,3.17,1.1,4.76,4.76,0,0,1,1.14,3.54v9h-3v-8.47a2.17,2.17,0,0,0-2.47-2.54,2.82,2.82,0,0,0-2.13.91,3.29,3.29,0,0,0-.86,2.34v7.76h-3.05Z"/><path class="cls-9" d="M549.31,571.58a4.32,4.32,0,0,1-1.72-1.54h-.15l-.26,1.77h-2.51V553.46h3V560h.16a4.44,4.44,0,0,1,4-1.85,4.53,4.53,0,0,1,3.73,1.75,10.57,10.57,0,0,1,0,10.48,4.79,4.79,0,0,1-3.94,1.73A5.15,5.15,0,0,1,549.31,571.58Zm3.84-3.08a5.62,5.62,0,0,0,.71-3.18V565a5.65,5.65,0,0,0-.71-3.21,2.73,2.73,0,0,0-2.39-1c-2,0-3,1.42-3,4.24v.31a5.48,5.48,0,0,0,.74,3.13,2.62,2.62,0,0,0,2.31,1A2.73,2.73,0,0,0,553.15,568.5Z"/><path class="cls-9" d="M560.49,570.42q-1.63-1.71-1.64-5.28t1.64-5.28a8,8,0,0,1,9.87,0c1.1,1.13,1.64,2.89,1.64,5.28s-.54,4.14-1.64,5.28a8,8,0,0,1-9.87,0Zm7.55-1.84a5.34,5.34,0,0,0,.81-3.26V565a5.34,5.34,0,0,0-.81-3.26,3.79,3.79,0,0,0-5.24,0A5.41,5.41,0,0,0,562,565v.36a5.41,5.41,0,0,0,.8,3.26,3.79,3.79,0,0,0,5.24,0Z"/><path class="cls-9" d="M575,571.32a3.19,3.19,0,0,1-1.3-3,3.65,3.65,0,0,1,2.18-3.6,14.64,14.64,0,0,1,6.19-1V562.6a2.14,2.14,0,0,0-.49-1.5,2.42,2.42,0,0,0-1.79-.53,3.2,3.2,0,0,0-1.91.43,1.3,1.3,0,0,0-.55,1.07v.35h-3c0-.1,0-.28,0-.56a3.09,3.09,0,0,1,1.48-2.71,7,7,0,0,1,4-1,6.17,6.17,0,0,1,4,1.09,3.81,3.81,0,0,1,1.34,3.12v6.37a.81.81,0,0,0,.25.67.92.92,0,0,0,.64.22h.81v2.08a4.37,4.37,0,0,1-1.91.38,2.73,2.73,0,0,1-1.65-.48,2.31,2.31,0,0,1-.88-1.32h-.18a5.2,5.2,0,0,1-4.27,1.83A5.53,5.53,0,0,1,575,571.32Zm6.21-2.5a3.18,3.18,0,0,0,.86-2.34v-.61a12.67,12.67,0,0,0-3.86.47,1.75,1.75,0,0,0-1.39,1.72c0,1.08.67,1.62,2,1.62A3.21,3.21,0,0,0,581.24,568.82Z"/><path class="cls-9" d="M588.83,558.46h2.51l.28,2.11h.18c.61-1.61,1.6-2.41,3-2.41a3.38,3.38,0,0,1,1.27.23v2.87h-1q-3.23,0-3.23,3.6v6.95h-3Z"/><path class="cls-9" d="M598.75,570.39a10.51,10.51,0,0,1,0-10.48,4.51,4.51,0,0,1,3.73-1.75,4.45,4.45,0,0,1,4,1.85h.15v-6.55h3.05v18.35h-2.51l-.26-1.77h-.15a4.35,4.35,0,0,1-1.73,1.54,5.12,5.12,0,0,1-2.36.54A4.77,4.77,0,0,1,598.75,570.39Zm7.16-1.94a5.48,5.48,0,0,0,.73-3.13V565c0-2.82-1-4.24-3-4.24a2.73,2.73,0,0,0-2.39,1,5.65,5.65,0,0,0-.71,3.21v.33a5.62,5.62,0,0,0,.71,3.18,2.73,2.73,0,0,0,2.39,1A2.62,2.62,0,0,0,605.91,568.45Z"/><rect class="cls-16" x="169.83" y="346.77" width="66.33" height="94.04"/><circle class="cls-16" cx="203" cy="346.77" r="10.05"/><circle class="cls-21" cx="203" cy="346.77" r="4.76"/><rect class="cls-22" x="180.3" y="363.62" width="45.39" height="6.08"/><rect class="cls-22" x="180.3" y="376.49" width="45.4" height="6.08"/><line class="cls-23" x1="183.17" y1="428.64" x2="183.17" y2="428.64"/><line class="cls-24" x1="196.39" y1="428.64" x2="216.22" y2="428.64"/><line class="cls-23" x1="222.83" y1="428.64" x2="222.83" y2="428.64"/><path class="cls-15" d="M183.17,420.83c8,1.77,17.47,1.2,21.5-6.24a7.44,7.44,0,0,0,.66-6.39c-1-2.13-3.33-3.33-5.48-2.12-3.65,2.07-3.24,7.16-.7,9.88a8.71,8.71,0,0,0,11.68.52c1.5-1.23,2.93-3.35,2.56-5.41-.5-2.78-3.48-1.26-4,.73-1.16,4.62,4.47,7.17,8.19,6.31a8.37,8.37,0,0,0,5.23-3.59"/><path class="cls-15" d="M153.28,443.61A98.92,98.92,0,0,1,114.93,442a98.42,98.42,0,0,1-61.26-45.54.31.31,0,0,1-.05-.1A98,98,0,1,1,234.86,330.7"/><path class="cls-14" d="M113.37,432.27v9.33A97.66,97.66,0,0,1,73,420a99.9,99.9,0,0,1-8.81-8.89H79.68Z"/><path class="cls-16" d="M159.77,373.39H146.48v22a15.65,15.65,0,0,1-15.65,15.66H113.37v21.19L79.68,411.08H64.22a98.72,98.72,0,0,1-10.55-14.62l-.05-.09A98.2,98.2,0,0,1,43.34,322H146.45c0,.54,0,1.09,0,1.64v12.16Z"/><path class="cls-25" d="M146.48,322v1.63c0-.54,0-1.09,0-1.63Z"/><path class="cls-14" d="M146.45,322H43.34a98,98,0,0,1,32.42-50.78h0A54.76,54.76,0,0,1,146.45,322Z"/><path class="cls-15" d="M63.41,295.9A38.83,38.83,0,0,1,127.72,300"/><line class="cls-15" x1="165.35" y1="321.96" x2="146.48" y2="321.96"/><path class="cls-15" d="M75.78,271.18h0A98.08,98.08,0,0,0,53.62,396.37l.05.09a98.2,98.2,0,0,0,10.55,14.62A99.9,99.9,0,0,0,73,420a97.66,97.66,0,0,0,40.34,21.63"/><path class="cls-9" d="M94.93,478.2q-2.18-2.22-2.18-6.79c0-3,.76-5.26,2.3-6.76s3.72-2.25,6.58-2.25a11.73,11.73,0,0,1,4.13.7,6.55,6.55,0,0,1,2.91,2.09,5.52,5.52,0,0,1,1.08,3.46H106.4a3,3,0,0,0-1.34-2.58,5.77,5.77,0,0,0-3.35-.93,5.52,5.52,0,0,0-4.24,1.5,6.44,6.44,0,0,0-1.4,4.52v.51a6.71,6.71,0,0,0,1.34,4.56,5.09,5.09,0,0,0,4,1.45,5.83,5.83,0,0,0,3.75-1.09,3.73,3.73,0,0,0,1.35-3.07v0h-5.58V470.8h8.83v9.32h-2.31l-.28-1.93a7.37,7.37,0,0,1-2.56,1.69,9.41,9.41,0,0,1-3.35.54A8.48,8.48,0,0,1,94.93,478.2Z"/><path class="cls-9" d="M113.89,478.72q-1.58-1.7-1.57-5.28c0-2.38.52-4.14,1.58-5.28a6.29,6.29,0,0,1,4.81-1.7,5.57,5.57,0,0,1,4.4,1.65c1,1.1,1.46,2.82,1.46,5.16v.91h-9.16a4.78,4.78,0,0,0,.85,2.9,3.67,3.67,0,0,0,4.53.28,2.32,2.32,0,0,0,.79-1.91h3a4.42,4.42,0,0,1-1.62,3.72,6.78,6.78,0,0,1-4.24,1.25A6.25,6.25,0,0,1,113.89,478.72Zm7.51-6.7c0-2.1-.9-3.15-2.69-3.15a3.12,3.12,0,0,0-2.3.78,3.93,3.93,0,0,0-1,2.37Z"/><path class="cls-9" d="M127.26,466.77h2.52l.25,1.77h.18A5.13,5.13,0,0,1,132,467a5.49,5.49,0,0,1,2.48-.55,4.36,4.36,0,0,1,3.17,1.11,4.73,4.73,0,0,1,1.14,3.54v9h-3v-8.48a2.18,2.18,0,0,0-2.47-2.54,2.83,2.83,0,0,0-2.13.92,3.27,3.27,0,0,0-.86,2.33v7.77h-3Z"/><path class="cls-9" d="M143,478.72q-1.58-1.7-1.57-5.28t1.59-5.28a6.27,6.27,0,0,1,4.81-1.7,5.57,5.57,0,0,1,4.4,1.65q1.45,1.65,1.46,5.16v.91h-9.16a4.72,4.72,0,0,0,.85,2.9,3,3,0,0,0,2.47.93,3.1,3.1,0,0,0,2.06-.65,2.34,2.34,0,0,0,.78-1.91h3a4.4,4.4,0,0,1-1.63,3.72,6.75,6.75,0,0,1-4.23,1.25A6.26,6.26,0,0,1,143,478.72Zm7.52-6.7c0-2.1-.9-3.15-2.69-3.15a3.09,3.09,0,0,0-2.3.78,3.87,3.87,0,0,0-1,2.37Z"/><path class="cls-9" d="M156.4,466.77h2.51l.28,2.1h.18c.61-1.6,1.6-2.41,3-2.41a3.34,3.34,0,0,1,1.27.23v2.87h-1q-3.22,0-3.23,3.6v7h-3Z"/><path class="cls-9" d="M166.11,479.62a3.16,3.16,0,0,1-1.31-2.95,3.69,3.69,0,0,1,2.18-3.61,14.83,14.83,0,0,1,6.19-1V470.9a2.09,2.09,0,0,0-.49-1.49,2.38,2.38,0,0,0-1.79-.54,3.14,3.14,0,0,0-1.9.44,1.27,1.27,0,0,0-.56,1.06v.36h-3c0-.1,0-.29,0-.56a3.1,3.1,0,0,1,1.48-2.72,7,7,0,0,1,3.95-1,6.2,6.2,0,0,1,4,1.1,3.81,3.81,0,0,1,1.33,3.12v6.37a.83.83,0,0,0,.25.67,1,1,0,0,0,.64.22h.81V480a4.5,4.5,0,0,1-1.9.38,2.67,2.67,0,0,1-1.65-.49,2.32,2.32,0,0,1-.89-1.32h-.18a5.2,5.2,0,0,1-4.26,1.83A5.42,5.42,0,0,1,166.11,479.62Zm6.2-2.5a3.12,3.12,0,0,0,.86-2.33v-.61a12.6,12.6,0,0,0-3.85.47,1.74,1.74,0,0,0-1.4,1.71c0,1.08.68,1.63,2,1.63A3.16,3.16,0,0,0,172.31,477.12Z"/><path class="cls-9" d="M179.9,461.77h3v18.35h-3Z"/><path class="cls-9" d="M78.51,508.67q-2.16-2.21-2.16-6.8t2.19-6.77a8.31,8.31,0,0,1,6.24-2.24,9.85,9.85,0,0,1,4,.75,6.17,6.17,0,0,1,2.73,2.25,6.58,6.58,0,0,1,1,3.72H89.15A3.72,3.72,0,0,0,88,496.64a4.56,4.56,0,0,0-3.14-1A4.79,4.79,0,0,0,81,497.1a6.8,6.8,0,0,0-1.27,4.51v.51a6.88,6.88,0,0,0,1.26,4.53,4.8,4.8,0,0,0,3.89,1.49,4.85,4.85,0,0,0,3.25-1,3.66,3.66,0,0,0,1.19-2.91h3.2a6,6,0,0,1-2.12,5,8.65,8.65,0,0,1-5.57,1.7A8.39,8.39,0,0,1,78.51,508.67Z"/><path class="cls-9" d="M96.14,509.18q-1.64-1.71-1.64-5.28t1.64-5.28a6.51,6.51,0,0,1,4.93-1.7,6.54,6.54,0,0,1,4.94,1.7q1.63,1.69,1.64,5.28T106,509.18a6.58,6.58,0,0,1-4.94,1.7A6.55,6.55,0,0,1,96.14,509.18Zm7.55-1.84a5.37,5.37,0,0,0,.81-3.27v-.35a5.34,5.34,0,0,0-.81-3.26,3.12,3.12,0,0,0-2.62-1.06,3.08,3.08,0,0,0-2.62,1.06,5.34,5.34,0,0,0-.8,3.26v.35a5.38,5.38,0,0,0,.8,3.27,3.07,3.07,0,0,0,2.62,1.05A3.11,3.11,0,0,0,103.69,507.34Z"/><path class="cls-9" d="M110.36,497.22h2.51l.26,1.78h.17a5.28,5.28,0,0,1,1.82-1.54,5.44,5.44,0,0,1,2.47-.54,4.4,4.4,0,0,1,3.18,1.1,4.76,4.76,0,0,1,1.14,3.54v9h-3V502.1a2.16,2.16,0,0,0-2.46-2.54,2.79,2.79,0,0,0-2.13.91,3.25,3.25,0,0,0-.86,2.34v7.76h-3Z"/><path class="cls-9" d="M126.31,509.92a3.69,3.69,0,0,1-.75-2.37v-7.84h-1.62v-2.49h1.67l.56-3.73h2.44v3.73h2.28v2.49h-2.28v7.54c0,.76.36,1.14,1.09,1.14h1.19v2.08a8.2,8.2,0,0,1-1,.28,5.93,5.93,0,0,1-1.12.13A2.92,2.92,0,0,1,126.31,509.92Z"/><path class="cls-9" d="M133.35,497.22h2.52l.28,2.11h.17c.61-1.61,1.61-2.41,3-2.41a3.23,3.23,0,0,1,1.27.23V500h-1c-2.15,0-3.22,1.21-3.22,3.61v6.95h-3.05Z"/><path class="cls-9" d="M143.06,510.08a3.2,3.2,0,0,1-1.31-3,3.66,3.66,0,0,1,2.19-3.6,14.64,14.64,0,0,1,6.19-1v-1.12a2.14,2.14,0,0,0-.5-1.5,2.41,2.41,0,0,0-1.79-.53,3.17,3.17,0,0,0-1.9.43,1.31,1.31,0,0,0-.56,1.07v.35h-2.94a3.43,3.43,0,0,1,0-.56,3.1,3.1,0,0,1,1.49-2.71,7,7,0,0,1,3.94-1,6.2,6.2,0,0,1,4,1.09,3.8,3.8,0,0,1,1.33,3.12v6.37a.82.82,0,0,0,.26.67.91.91,0,0,0,.63.22h.82v2.08a4.55,4.55,0,0,1-1.91.38,2.73,2.73,0,0,1-1.65-.48,2.37,2.37,0,0,1-.89-1.32h-.17a5.2,5.2,0,0,1-4.27,1.83A5.53,5.53,0,0,1,143.06,510.08Zm6.21-2.5a3.2,3.2,0,0,0,.86-2.34v-.61a12.67,12.67,0,0,0-3.86.47,1.75,1.75,0,0,0-1.39,1.72c0,1.08.67,1.62,2,1.62A3.23,3.23,0,0,0,149.27,507.58Z"/><path class="cls-9" d="M157.54,509.18c-1-1.14-1.52-2.9-1.52-5.28s.51-4.15,1.53-5.28a6,6,0,0,1,4.66-1.7,6,6,0,0,1,4.19,1.34,5.11,5.11,0,0,1,1.47,4h-3.1a3.13,3.13,0,0,0-.63-2.13,2.54,2.54,0,0,0-2-.71,2.6,2.6,0,0,0-2.31,1.08,5.94,5.94,0,0,0-.74,3.31v.3a5.73,5.73,0,0,0,.75,3.29,2.78,2.78,0,0,0,2.43,1.05,2.52,2.52,0,0,0,2-.73,3,3,0,0,0,.67-2.11h3a5.1,5.1,0,0,1-1.49,3.91,5.86,5.86,0,0,1-4.17,1.4A6,6,0,0,1,157.54,509.18Z"/><path class="cls-9" d="M171.41,509.92a3.69,3.69,0,0,1-.75-2.37v-7.84H169v-2.49h1.67l.56-3.73h2.44v3.73H176v2.49h-2.28v7.54c0,.76.36,1.14,1.09,1.14H176v2.08a7.92,7.92,0,0,1-1,.28,5.75,5.75,0,0,1-1.11.13A2.91,2.91,0,0,1,171.41,509.92Z"/><path class="cls-9" d="M179.25,509.18q-1.63-1.71-1.64-5.28t1.64-5.28a8,8,0,0,1,9.87,0q1.63,1.69,1.64,5.28t-1.64,5.28a8,8,0,0,1-9.87,0Zm7.55-1.84a5.37,5.37,0,0,0,.81-3.27v-.35a5.34,5.34,0,0,0-.81-3.26,3.77,3.77,0,0,0-5.24,0,5.41,5.41,0,0,0-.8,3.26v.35a5.45,5.45,0,0,0,.8,3.27,3.79,3.79,0,0,0,5.24,0Z"/><path class="cls-9" d="M193.47,497.22H196l.28,2.11h.17c.61-1.61,1.61-2.41,3-2.41a3.2,3.2,0,0,1,1.27.23V500h-1c-2.15,0-3.22,1.21-3.22,3.61v6.95h-3.05Z"/><rect class="cls-16" x="1805.91" y="346.77" width="66.33" height="94.04"/><circle class="cls-16" cx="1839.08" cy="346.77" r="10.05"/><circle class="cls-21" cx="1839.08" cy="346.77" r="4.76"/><rect class="cls-22" x="1816.39" y="363.62" width="45.39" height="6.08"/><rect class="cls-22" x="1816.38" y="376.49" width="45.4" height="6.08"/><line class="cls-23" x1="1819.25" y1="428.64" x2="1819.25" y2="428.64"/><line class="cls-24" x1="1832.47" y1="428.64" x2="1852.3" y2="428.64"/><line class="cls-23" x1="1858.91" y1="428.64" x2="1858.91" y2="428.64"/><path class="cls-15" d="M1819.25,420.83c8,1.77,17.47,1.2,21.5-6.24a7.4,7.4,0,0,0,.66-6.39,3.91,3.91,0,0,0-5.48-2.12c-3.65,2.07-3.24,7.16-.7,9.88a8.71,8.71,0,0,0,11.68.52c1.5-1.23,2.93-3.35,2.56-5.41-.49-2.78-3.48-1.26-4,.73-1.16,4.62,4.47,7.17,8.2,6.31a8.38,8.38,0,0,0,5.22-3.59"/><path class="cls-15" d="M1789.36,443.61a99.2,99.2,0,0,1-15.12,1.16,98.21,98.21,0,0,1-84.49-48.31.31.31,0,0,1,0-.1,98,98,0,1,1,181.24-65.66"/><path class="cls-14" d="M1749.45,432.28v9.32A97.58,97.58,0,0,1,1709.11,420a98.69,98.69,0,0,1-8.81-8.9h15.46Z"/><path class="cls-16" d="M1795.85,373.39h-13.29v22a15.64,15.64,0,0,1-15.66,15.65h-17.45v21.2l-33.69-21.2H1700.3a97.69,97.69,0,0,1-10.55-14.62l0-.08A98.32,98.32,0,0,1,1679.41,322h103.12c0,.54,0,1.09,0,1.64v12.16Z"/><path class="cls-25" d="M1782.56,322v1.64c0-.55,0-1.09,0-1.64Z"/><path class="cls-14" d="M1782.53,322H1679.41a98.22,98.22,0,0,1,32.43-50.78h0A54.79,54.79,0,0,1,1782.53,322Z"/><path class="cls-15" d="M1699.49,295.9A38.83,38.83,0,0,1,1763.8,300"/><line class="cls-15" x1="1801.43" y1="321.96" x2="1782.56" y2="321.96"/><path class="cls-9" d="M1664.56,478.23c-1.46-1.48-2.18-3.75-2.18-6.79s.76-5.27,2.29-6.76a9,9,0,0,1,6.59-2.25,11.41,11.41,0,0,1,4.12.7,6.45,6.45,0,0,1,2.92,2.09,5.47,5.47,0,0,1,1.08,3.45H1676a3,3,0,0,0-1.34-2.57,5.77,5.77,0,0,0-3.35-.93,5.52,5.52,0,0,0-4.24,1.5,6.42,6.42,0,0,0-1.4,4.52v.5a6.79,6.79,0,0,0,1.33,4.57,5.13,5.13,0,0,0,4,1.45,5.84,5.84,0,0,0,3.74-1.09,3.71,3.71,0,0,0,1.36-3.07v0h-5.58v-2.69h8.83v9.31h-2.31l-.28-1.92a7.21,7.21,0,0,1-2.56,1.68,9.19,9.19,0,0,1-3.35.55Q1666.74,480.45,1664.56,478.23Z"/><path class="cls-9" d="M1683.52,478.75c-1-1.14-1.58-2.89-1.58-5.28s.53-4.15,1.59-5.28a6.29,6.29,0,0,1,4.81-1.7,5.57,5.57,0,0,1,4.4,1.65c1,1.1,1.46,2.82,1.46,5.15v.92H1685a4.76,4.76,0,0,0,.85,2.9,3,3,0,0,0,2.47.93,3.14,3.14,0,0,0,2.06-.65,2.35,2.35,0,0,0,.79-1.92h3a4.4,4.4,0,0,1-1.62,3.72,6.74,6.74,0,0,1-4.24,1.26A6.27,6.27,0,0,1,1683.52,478.75Zm7.51-6.7c0-2.1-.9-3.15-2.69-3.15a3.11,3.11,0,0,0-2.3.78,3.87,3.87,0,0,0-1,2.37Z"/><path class="cls-9" d="M1696.89,466.79h2.51l.26,1.78h.18a5,5,0,0,1,1.81-1.53,5.33,5.33,0,0,1,2.48-.55,4.4,4.4,0,0,1,3.17,1.1,4.76,4.76,0,0,1,1.14,3.54v9h-3v-8.47a2.16,2.16,0,0,0-2.46-2.54,2.82,2.82,0,0,0-2.13.91,3.25,3.25,0,0,0-.86,2.34v7.76h-3Z"/><path class="cls-9" d="M1712.65,478.75c-1.05-1.14-1.57-2.89-1.57-5.28s.53-4.15,1.59-5.28a6.27,6.27,0,0,1,4.8-1.7,5.59,5.59,0,0,1,4.41,1.65q1.45,1.65,1.46,5.15v.92h-9.17a4.83,4.83,0,0,0,.86,2.9,3,3,0,0,0,2.47.93,3.11,3.11,0,0,0,2-.65,2.32,2.32,0,0,0,.79-1.92h3a4.38,4.38,0,0,1-1.63,3.72,6.71,6.71,0,0,1-4.24,1.26A6.28,6.28,0,0,1,1712.65,478.75Zm7.51-6.7c0-2.1-.89-3.15-2.69-3.15a3.08,3.08,0,0,0-2.29.78,3.76,3.76,0,0,0-1,2.37Z"/><path class="cls-9" d="M1726,466.79h2.51l.28,2.11h.18c.6-1.61,1.6-2.41,3-2.41a3.38,3.38,0,0,1,1.27.23v2.87h-1q-3.22,0-3.23,3.6v6.95h-3Z"/><path class="cls-9" d="M1735.73,479.65a3.18,3.18,0,0,1-1.3-3,3.65,3.65,0,0,1,2.18-3.6,14.8,14.8,0,0,1,6.19-1v-1.12a2.14,2.14,0,0,0-.49-1.5,2.42,2.42,0,0,0-1.79-.53,3.28,3.28,0,0,0-1.91.43,1.31,1.31,0,0,0-.55,1.07v.35h-3a3.66,3.66,0,0,1,0-.55,3.1,3.1,0,0,1,1.48-2.72,7,7,0,0,1,4-1,6.17,6.17,0,0,1,4,1.09,3.81,3.81,0,0,1,1.34,3.12v6.37a.85.85,0,0,0,.25.68,1,1,0,0,0,.64.21h.81V480a4.37,4.37,0,0,1-1.91.38,2.73,2.73,0,0,1-1.65-.48,2.31,2.31,0,0,1-.88-1.32h-.18a5.2,5.2,0,0,1-4.26,1.83A5.54,5.54,0,0,1,1735.73,479.65Zm6.21-2.5a3.18,3.18,0,0,0,.86-2.34v-.6a12.36,12.36,0,0,0-3.86.47,1.73,1.73,0,0,0-1.39,1.71c0,1.08.67,1.62,2,1.62A3.17,3.17,0,0,0,1741.94,477.15Z"/><path class="cls-9" d="M1749.53,461.8h3v18.34h-3Z"/><path class="cls-9" d="M1764.65,478.24q-2.16-2.21-2.16-6.8c0-3,.73-5.27,2.19-6.76a8.28,8.28,0,0,1,6.24-2.25,9.85,9.85,0,0,1,4,.75,6.12,6.12,0,0,1,2.73,2.26,6.52,6.52,0,0,1,1,3.71h-3.32a3.74,3.74,0,0,0-1.18-2.94,4.61,4.61,0,0,0-3.14-1,4.79,4.79,0,0,0-3.88,1.5,6.83,6.83,0,0,0-1.27,4.52v.5a6.88,6.88,0,0,0,1.26,4.53,4.8,4.8,0,0,0,3.89,1.49,4.85,4.85,0,0,0,3.25-1,3.65,3.65,0,0,0,1.19-2.91h3.2a6,6,0,0,1-2.12,5,8.65,8.65,0,0,1-5.57,1.7A8.39,8.39,0,0,1,1764.65,478.24Z"/><path class="cls-9" d="M1782.28,478.75c-1.09-1.14-1.64-2.89-1.64-5.28s.55-4.15,1.64-5.28a8,8,0,0,1,9.87,0q1.63,1.69,1.64,5.28c0,2.39-.55,4.14-1.64,5.28a8,8,0,0,1-9.87,0Zm7.55-1.84a5.34,5.34,0,0,0,.81-3.26v-.36a5.34,5.34,0,0,0-.81-3.26,3.79,3.79,0,0,0-5.24,0,5.34,5.34,0,0,0-.8,3.26v.36a5.34,5.34,0,0,0,.8,3.26,3.79,3.79,0,0,0,5.24,0Z"/><path class="cls-9" d="M1796.5,466.79H1799l.26,1.78h.18a5,5,0,0,1,1.81-1.53,5.33,5.33,0,0,1,2.48-.55,4.4,4.4,0,0,1,3.17,1.1,4.76,4.76,0,0,1,1.14,3.54v9h-3v-8.47a2.16,2.16,0,0,0-2.46-2.54,2.82,2.82,0,0,0-2.13.91,3.29,3.29,0,0,0-.86,2.34v7.76h-3Z"/><path class="cls-9" d="M1812.45,479.5a3.74,3.74,0,0,1-.75-2.38v-7.84h-1.62v-2.49h1.68l.55-3.73h2.44v3.73H1817v2.49h-2.28v7.54c0,.76.36,1.14,1.09,1.14H1817V480a6.74,6.74,0,0,1-1,.28,5.21,5.21,0,0,1-1.12.13A3,3,0,0,1,1812.45,479.5Z"/><path class="cls-9" d="M1819.5,466.79H1822l.28,2.11h.18c.6-1.61,1.6-2.41,3-2.41a3.38,3.38,0,0,1,1.27.23v2.87h-1c-2.14,0-3.22,1.2-3.22,3.6v6.95h-3Z"/><path class="cls-9" d="M1829.2,479.65a3.18,3.18,0,0,1-1.3-3,3.65,3.65,0,0,1,2.18-3.6,14.8,14.8,0,0,1,6.19-1v-1.12a2.14,2.14,0,0,0-.49-1.5,2.42,2.42,0,0,0-1.79-.53,3.26,3.26,0,0,0-1.91.43,1.32,1.32,0,0,0-.56,1.07v.35h-2.94a3.28,3.28,0,0,1,0-.55,3.11,3.11,0,0,1,1.49-2.72,7,7,0,0,1,4-1,6.19,6.19,0,0,1,4,1.09,3.81,3.81,0,0,1,1.34,3.12v6.37a.85.85,0,0,0,.25.68,1,1,0,0,0,.63.21h.82V480a4.4,4.4,0,0,1-1.91.38,2.73,2.73,0,0,1-1.65-.48,2.37,2.37,0,0,1-.89-1.32h-.17a5.2,5.2,0,0,1-4.27,1.83A5.53,5.53,0,0,1,1829.2,479.65Zm6.21-2.5a3.18,3.18,0,0,0,.86-2.34v-.6a12.36,12.36,0,0,0-3.86.47,1.73,1.73,0,0,0-1.39,1.71c0,1.08.67,1.62,2,1.62A3.17,3.17,0,0,0,1835.41,477.15Z"/><path class="cls-9" d="M1843.68,478.75c-1-1.14-1.52-2.89-1.52-5.28s.51-4.15,1.53-5.28a7.21,7.21,0,0,1,8.85-.35,5.07,5.07,0,0,1,1.47,4h-3.1a3.15,3.15,0,0,0-.63-2.13,2.53,2.53,0,0,0-2-.71A2.6,2.6,0,0,0,1846,470a5.94,5.94,0,0,0-.74,3.31v.31a5.69,5.69,0,0,0,.75,3.28,2.76,2.76,0,0,0,2.43,1.06,2.53,2.53,0,0,0,2-.74,3,3,0,0,0,.68-2.11H1854a5.13,5.13,0,0,1-1.48,3.91,5.88,5.88,0,0,1-4.18,1.4A6,6,0,0,1,1843.68,478.75Z"/><path class="cls-9" d="M1857.55,479.5a3.74,3.74,0,0,1-.75-2.38v-7.84h-1.62v-2.49h1.67l.56-3.73h2.44v3.73h2.28v2.49h-2.28v7.54c0,.76.36,1.14,1.09,1.14h1.19V480a6.74,6.74,0,0,1-1,.28,5.21,5.21,0,0,1-1.12.13A3,3,0,0,1,1857.55,479.5Z"/><path class="cls-9" d="M1865.39,478.75c-1.09-1.14-1.63-2.89-1.63-5.28s.54-4.15,1.63-5.28a8,8,0,0,1,9.87,0q1.63,1.69,1.64,5.28c0,2.39-.55,4.14-1.64,5.28a8,8,0,0,1-9.87,0Zm7.55-1.84a5.34,5.34,0,0,0,.81-3.26v-.36a5.34,5.34,0,0,0-.81-3.26,3.79,3.79,0,0,0-5.24,0,5.41,5.41,0,0,0-.8,3.26v.36a5.41,5.41,0,0,0,.8,3.26,3.79,3.79,0,0,0,5.24,0Z"/><path class="cls-9" d="M1879.62,466.79h2.51l.28,2.11h.18c.6-1.61,1.6-2.41,3-2.41a3.38,3.38,0,0,1,1.27.23v2.87h-1c-2.14,0-3.22,1.2-3.22,3.6v6.95h-3Z"/><path class="cls-9" d="M1659.7,497.25h2.51l.28,2.11h.18c.61-1.61,1.61-2.42,3-2.42a3.33,3.33,0,0,1,1.26.23V500h-1q-3.23,0-3.22,3.6v7h-3Z"/><path class="cls-9" d="M1669.83,509.2q-1.57-1.69-1.58-5.28t1.59-5.27a6.26,6.26,0,0,1,4.81-1.71,5.57,5.57,0,0,1,4.4,1.65q1.46,1.65,1.46,5.16v.91h-9.16a4.72,4.72,0,0,0,.85,2.9,3,3,0,0,0,2.47.93,3.08,3.08,0,0,0,2.06-.65,2.35,2.35,0,0,0,.79-1.91h3a4.42,4.42,0,0,1-1.62,3.72,6.8,6.8,0,0,1-4.24,1.25A6.23,6.23,0,0,1,1669.83,509.2Zm7.51-6.7c0-2.1-.9-3.14-2.69-3.14a3.11,3.11,0,0,0-2.3.77,3.93,3.93,0,0,0-.95,2.37Z"/><path class="cls-9" d="M1683.89,509.2q-1.53-1.69-1.53-5.28c0-2.38.52-4.14,1.54-5.27a7.18,7.18,0,0,1,8.84-.36,5.11,5.11,0,0,1,1.48,4h-3.1a3.11,3.11,0,0,0-.63-2.13,2.52,2.52,0,0,0-2-.71,2.61,2.61,0,0,0-2.31,1.07,6,6,0,0,0-.74,3.32v.3a5.73,5.73,0,0,0,.75,3.29,2.77,2.77,0,0,0,2.42,1.05,2.5,2.5,0,0,0,2-.74,3,3,0,0,0,.67-2.1h3a5.12,5.12,0,0,1-1.49,3.91,5.85,5.85,0,0,1-4.17,1.39A5.92,5.92,0,0,1,1683.89,509.2Z"/><path class="cls-9" d="M1697.57,509.2q-1.58-1.69-1.58-5.28t1.59-5.27a6.24,6.24,0,0,1,4.81-1.71,5.57,5.57,0,0,1,4.4,1.65q1.45,1.65,1.46,5.16v.91h-9.16a4.72,4.72,0,0,0,.85,2.9,3,3,0,0,0,2.47.93,3.1,3.1,0,0,0,2.06-.65,2.35,2.35,0,0,0,.79-1.91h3a4.42,4.42,0,0,1-1.62,3.72,6.8,6.8,0,0,1-4.24,1.25A6.22,6.22,0,0,1,1697.57,509.2Zm7.51-6.7c0-2.1-.9-3.14-2.69-3.14a3.11,3.11,0,0,0-2.3.77,3.87,3.87,0,0,0-.95,2.37Z"/><path class="cls-9" d="M1710.94,492.25h3v3h-3Zm0,5h3V510.6h-3Z"/><path class="cls-9" d="M1716,497.25h3.2l2.18,6.06c.27.75.67,2.1,1.19,4.07h.13c.47-1.87.86-3.22,1.17-4.07l2.15-6.06h3.08l-4.95,13.35h-3.2Z"/><path class="cls-9" d="M1731.88,509.2q-1.58-1.69-1.58-5.28t1.59-5.27a6.26,6.26,0,0,1,4.81-1.71,5.57,5.57,0,0,1,4.4,1.65q1.45,1.65,1.46,5.16v.91h-9.16a4.72,4.72,0,0,0,.85,2.9,3,3,0,0,0,2.47.93,3.1,3.1,0,0,0,2.06-.65,2.35,2.35,0,0,0,.79-1.91h3a4.42,4.42,0,0,1-1.62,3.72,6.8,6.8,0,0,1-4.24,1.25A6.22,6.22,0,0,1,1731.88,509.2Zm7.51-6.7c0-2.1-.9-3.14-2.69-3.14a3.11,3.11,0,0,0-2.3.77,3.87,3.87,0,0,0-1,2.37Z"/><path class="cls-9" d="M1746,509.76a3.57,3.57,0,0,1-1.51-3,1.7,1.7,0,0,1,0-.3.51.51,0,0,0,0-.1h3v.2a1.63,1.63,0,0,0,.85,1.46,4.17,4.17,0,0,0,2.07.47,4.38,4.38,0,0,0,1.9-.37,1.18,1.18,0,0,0,.79-1.1,1.24,1.24,0,0,0-.43-1,3.32,3.32,0,0,0-1.07-.58c-.42-.14-1-.31-1.8-.49a22,22,0,0,1-2.58-.77,4.17,4.17,0,0,1-1.71-1.19,3.13,3.13,0,0,1-.71-2.13,3.34,3.34,0,0,1,1.57-2.95,7.32,7.32,0,0,1,4.09-1,7.91,7.91,0,0,1,2.76.46,4.28,4.28,0,0,1,1.89,1.28,2.91,2.91,0,0,1,.68,1.89l0,.56h-3V501a1.42,1.42,0,0,0-.64-1.23,3.3,3.3,0,0,0-1.87-.44,3.6,3.6,0,0,0-1.8.36,1.1,1.1,0,0,0-.61,1,1.12,1.12,0,0,0,.75,1.05,11.71,11.71,0,0,0,2.29.67,19,19,0,0,1,2.71.78,4.64,4.64,0,0,1,1.79,1.23,3.24,3.24,0,0,1,.76,2.25,3.55,3.55,0,0,1-1.59,3.23,8,8,0,0,1-4.3,1A7,7,0,0,1,1746,509.76Z"/><path class="cls-9" d="M1765.93,492.25h3V510.6h-3Z"/><path class="cls-9" d="M1772.51,492.25h3v3h-3Zm0,5h3V510.6h-3Z"/><path class="cls-9" d="M1779.81,509.2q-1.57-1.69-1.57-5.28t1.59-5.27a6.24,6.24,0,0,1,4.81-1.71,5.57,5.57,0,0,1,4.4,1.65q1.45,1.65,1.46,5.16v.91h-9.16a4.72,4.72,0,0,0,.85,2.9,3,3,0,0,0,2.47.93,3.1,3.1,0,0,0,2.06-.65,2.34,2.34,0,0,0,.78-1.91h3a4.4,4.4,0,0,1-1.63,3.72,6.75,6.75,0,0,1-4.23,1.25A6.26,6.26,0,0,1,1779.81,509.2Zm7.52-6.7c0-2.1-.9-3.14-2.69-3.14a3.11,3.11,0,0,0-2.3.77,3.87,3.87,0,0,0-.95,2.37Z"/><path class="cls-9" d="M1793.19,497.25h2.51L1796,499h.17a5.09,5.09,0,0,1,1.82-1.54,5.44,5.44,0,0,1,2.47-.55,4.34,4.34,0,0,1,3.17,1.11,4.69,4.69,0,0,1,1.15,3.54v9h-3v-8.48a2.17,2.17,0,0,0-2.46-2.54,2.8,2.8,0,0,0-2.13.92,3.25,3.25,0,0,0-.87,2.33v7.77h-3Z"/><path class="cls-9" d="M1813.59,497.25h3.15l1.65,6.19c.15.54.41,1.74.79,3.61h.12c.36-1.8.61-3,.77-3.58l1.49-6.22h3.28l1.6,6.24c.15.66.4,1.85.76,3.56h.12c.34-1.6.6-2.78.79-3.56l1.6-6.24h2.92l-4,13.35h-3.19l-1.65-6.93c-.17-.69-.38-1.65-.61-2.87h-.13c-.2,1.2-.39,2.15-.56,2.84l-1.7,7h-3.2Z"/><path class="cls-9" d="M1834.85,510.1a3.18,3.18,0,0,1-1.31-3,3.69,3.69,0,0,1,2.18-3.61,14.85,14.85,0,0,1,6.2-1v-1.11a2.11,2.11,0,0,0-.5-1.5,2.38,2.38,0,0,0-1.79-.53,3.15,3.15,0,0,0-1.9.43,1.29,1.29,0,0,0-.56,1.06v.36h-2.94a3.43,3.43,0,0,1,0-.56,3.11,3.11,0,0,1,1.49-2.72,7,7,0,0,1,3.94-1,6.2,6.2,0,0,1,4,1.1,3.78,3.78,0,0,1,1.33,3.12v6.37a.83.83,0,0,0,.26.67,1,1,0,0,0,.63.22h.81v2.08a4.47,4.47,0,0,1-1.9.38,2.73,2.73,0,0,1-1.65-.48,2.39,2.39,0,0,1-.89-1.32H1842a5.22,5.22,0,0,1-4.26,1.82A5.44,5.44,0,0,1,1834.85,510.1Zm6.2-2.5a3.12,3.12,0,0,0,.87-2.33v-.61a12.63,12.63,0,0,0-3.86.47,1.74,1.74,0,0,0-1.4,1.71c0,1.09.68,1.63,2,1.63A3.16,3.16,0,0,0,1841.05,507.6Z"/><path class="cls-9" d="M1848.64,492.25h3v3h-3Zm0,5h3V510.6h-3Z"/><path class="cls-9" d="M1853.69,497.25h3.2l2.18,6.06c.27.75.67,2.1,1.19,4.07h.13c.47-1.87.86-3.22,1.17-4.07l2.16-6.06h3.07l-5,13.35h-3.2Z"/><path class="cls-9" d="M1869.58,509.2q-1.57-1.69-1.58-5.28t1.59-5.27a6.26,6.26,0,0,1,4.81-1.71,5.57,5.57,0,0,1,4.4,1.65q1.46,1.65,1.46,5.16v.91h-9.16a4.72,4.72,0,0,0,.85,2.9,3,3,0,0,0,2.47.93,3.08,3.08,0,0,0,2.06-.65,2.35,2.35,0,0,0,.79-1.91h3a4.42,4.42,0,0,1-1.62,3.72,6.8,6.8,0,0,1-4.24,1.25A6.23,6.23,0,0,1,1869.58,509.2Zm7.51-6.7c0-2.1-.9-3.14-2.69-3.14a3.11,3.11,0,0,0-2.3.77,3.93,3.93,0,0,0-.95,2.37Z"/><path class="cls-9" d="M1883,497.25h2.51l.28,2.11h.18c.61-1.61,1.61-2.42,3-2.42a3.33,3.33,0,0,1,1.26.23V500h-1q-3.23,0-3.22,3.6v7h-3Z"/><path class="cls-9" d="M894.06,772.58a5.81,5.81,0,0,1-2.64-1.79,4.57,4.57,0,0,1-1-3l0-.53h3.27c0,.1,0,.25,0,.46a2.25,2.25,0,0,0,1.09,2,5.49,5.49,0,0,0,3,.71,6.07,6.07,0,0,0,3-.59,1.8,1.8,0,0,0,1-1.62,1.76,1.76,0,0,0-.58-1.35,4.38,4.38,0,0,0-1.45-.85q-.85-.32-2.43-.75A30.29,30.29,0,0,1,894,764.2a5.91,5.91,0,0,1-2.2-1.55,4.34,4.34,0,0,1,1-6.27,9.23,9.23,0,0,1,5.05-1.23,8.73,8.73,0,0,1,4.88,1.25,4.26,4.26,0,0,1,1.89,3.8v.3h-3.2v-.28a1.94,1.94,0,0,0-1-1.71,4.9,4.9,0,0,0-2.63-.62,5.9,5.9,0,0,0-2.7.51,1.57,1.57,0,0,0-1,1.42,1.46,1.46,0,0,0,.56,1.15,4.11,4.11,0,0,0,1.41.76c.56.2,1.33.42,2.29.68a29.13,29.13,0,0,1,3.44,1.09,6.17,6.17,0,0,1,2.29,1.57,3.86,3.86,0,0,1,1,2.69,4.56,4.56,0,0,1-2,4.1,9.67,9.67,0,0,1-5.38,1.31A10.89,10.89,0,0,1,894.06,772.58Z"/><path class="cls-9" d="M908,768.52v-9h3V768a2.17,2.17,0,0,0,2.46,2.54,2.8,2.8,0,0,0,2.13-.92,3.22,3.22,0,0,0,.87-2.33v-7.77h3v13.35H917l-.25-1.77h-.18a5.06,5.06,0,0,1-1.82,1.53,5.41,5.41,0,0,1-2.47.55C909.38,773.17,908,771.62,908,768.52Z"/><path class="cls-9" d="M927.69,772.63a4.35,4.35,0,0,1-1.73-1.54h-.15l-.25,1.77h-2.51V754.51h3v6.55h.15a4.46,4.46,0,0,1,4-1.85A4.51,4.51,0,0,1,934,761a10.51,10.51,0,0,1,0,10.48,4.77,4.77,0,0,1-3.93,1.73A5.15,5.15,0,0,1,927.69,772.63Zm3.83-3.08a5.54,5.54,0,0,0,.71-3.18V766a5.57,5.57,0,0,0-.71-3.21,2.71,2.71,0,0,0-2.38-1c-2,0-3,1.42-3,4.24v.31a5.48,5.48,0,0,0,.74,3.13,2.62,2.62,0,0,0,2.31,1A2.71,2.71,0,0,0,931.52,769.55Z"/><path class="cls-9" d="M938.76,771.47q-1.53-1.71-1.53-5.28t1.54-5.28a6,6,0,0,1,4.65-1.7,6,6,0,0,1,4.19,1.34,5.11,5.11,0,0,1,1.47,4H946a3.1,3.1,0,0,0-.64-2.13,2.53,2.53,0,0,0-2-.71,2.61,2.61,0,0,0-2.31,1.08,6,6,0,0,0-.73,3.31v.31a5.69,5.69,0,0,0,.75,3.28,2.74,2.74,0,0,0,2.42,1.06,2.55,2.55,0,0,0,2-.74,3,3,0,0,0,.67-2.11h2.94a5.1,5.1,0,0,1-1.48,3.91,5.87,5.87,0,0,1-4.18,1.4A6,6,0,0,1,938.76,771.47Z"/><path class="cls-9" d="M952.5,771.47q-1.63-1.71-1.64-5.28t1.64-5.28a8,8,0,0,1,9.87,0q1.64,1.7,1.64,5.28t-1.64,5.28a8,8,0,0,1-9.87,0Zm7.55-1.84a5.34,5.34,0,0,0,.81-3.26V766a5.34,5.34,0,0,0-.81-3.26,3.79,3.79,0,0,0-5.24,0A5.34,5.34,0,0,0,954,766v.36a5.34,5.34,0,0,0,.8,3.26,3.79,3.79,0,0,0,5.24,0Z"/><path class="cls-9" d="M966.72,759.51h2.51l.26,1.78h.18a5.16,5.16,0,0,1,1.81-1.54,5.45,5.45,0,0,1,2.48-.54,4.4,4.4,0,0,1,3.17,1.1,4.76,4.76,0,0,1,1.14,3.54v9h-3v-8.47a2.16,2.16,0,0,0-2.46-2.54,2.82,2.82,0,0,0-2.13.91,3.25,3.25,0,0,0-.86,2.34v7.76h-3Z"/><path class="cls-9" d="M982.67,772.22a3.74,3.74,0,0,1-.75-2.38V762H980.3v-2.49H982l.56-3.73H985v3.73h2.28V762H985v7.54c0,.76.36,1.14,1.09,1.14h1.19v2.08a6.74,6.74,0,0,1-1,.28,5.93,5.93,0,0,1-1.12.13A3,3,0,0,1,982.67,772.22Z"/><path class="cls-9" d="M989.71,759.51h2.52l.28,2.11h.17c.61-1.61,1.61-2.41,3-2.41a3.38,3.38,0,0,1,1.27.23v2.87h-1q-3.22,0-3.22,3.6v7h-3Z"/><path class="cls-9" d="M999.42,772.37a3.19,3.19,0,0,1-1.3-3,3.65,3.65,0,0,1,2.18-3.6,14.64,14.64,0,0,1,6.19-1v-1.12a2.14,2.14,0,0,0-.49-1.5,2.42,2.42,0,0,0-1.79-.53,3.18,3.18,0,0,0-1.91.43,1.31,1.31,0,0,0-.56,1.07v.35H998.8a3.35,3.35,0,0,1,0-.56,3.1,3.1,0,0,1,1.49-2.71,7,7,0,0,1,4-1,6.19,6.19,0,0,1,4,1.09,3.81,3.81,0,0,1,1.34,3.12v6.37a.81.81,0,0,0,.25.67.91.91,0,0,0,.63.22h.82v2.08a4.4,4.4,0,0,1-1.91.38,2.73,2.73,0,0,1-1.65-.48,2.37,2.37,0,0,1-.89-1.32h-.17a5.2,5.2,0,0,1-4.27,1.83A5.53,5.53,0,0,1,999.42,772.37Zm6.21-2.5a3.18,3.18,0,0,0,.86-2.34v-.61a12.67,12.67,0,0,0-3.86.47,1.75,1.75,0,0,0-1.39,1.72c0,1.08.67,1.62,2,1.62A3.23,3.23,0,0,0,1005.63,769.87Z"/><path class="cls-9" d="M1013.9,771.47c-1-1.14-1.52-2.9-1.52-5.28s.51-4.15,1.53-5.28a7.23,7.23,0,0,1,8.85-.36,5.11,5.11,0,0,1,1.47,4h-3.1a3.15,3.15,0,0,0-.63-2.13,2.53,2.53,0,0,0-2-.71,2.6,2.6,0,0,0-2.31,1.08,5.94,5.94,0,0,0-.74,3.31v.31a5.69,5.69,0,0,0,.75,3.28,2.76,2.76,0,0,0,2.43,1.06,2.53,2.53,0,0,0,2-.74,3,3,0,0,0,.68-2.11h2.94a5.13,5.13,0,0,1-1.48,3.91,5.9,5.9,0,0,1-4.18,1.4A6,6,0,0,1,1013.9,771.47Z"/><path class="cls-9" d="M1027.77,772.22a3.74,3.74,0,0,1-.75-2.38V762h-1.62v-2.49h1.67l.56-3.73h2.44v3.73h2.28V762h-2.28v7.54c0,.76.36,1.14,1.09,1.14h1.19v2.08a6.57,6.57,0,0,1-1,.28,5.75,5.75,0,0,1-1.11.13A2.94,2.94,0,0,1,1027.77,772.22Z"/><path class="cls-9" d="M1035.61,771.47q-1.63-1.71-1.64-5.28t1.64-5.28a8,8,0,0,1,9.87,0q1.63,1.7,1.64,5.28t-1.64,5.28a8,8,0,0,1-9.87,0Zm7.55-1.84a5.34,5.34,0,0,0,.81-3.26V766a5.34,5.34,0,0,0-.81-3.26,3.79,3.79,0,0,0-5.24,0,5.41,5.41,0,0,0-.8,3.26v.36a5.41,5.41,0,0,0,.8,3.26,3.79,3.79,0,0,0,5.24,0Z"/><path class="cls-9" d="M1049.84,759.51h2.51l.28,2.11h.18c.6-1.61,1.6-2.41,3-2.41a3.38,3.38,0,0,1,1.27.23v2.87h-1c-2.14,0-3.22,1.2-3.22,3.6v7h-3Z"/><path class="cls-9" d="M917.7,801.92q-1.63-1.7-1.63-5.28t1.63-5.28a8,8,0,0,1,9.88,0q1.63,1.71,1.63,5.28t-1.63,5.28a8,8,0,0,1-9.88,0Zm7.55-1.84a5.27,5.27,0,0,0,.82-3.26v-.36a5.29,5.29,0,0,0-.82-3.26,3.79,3.79,0,0,0-5.24,0,5.43,5.43,0,0,0-.8,3.26v.36a5.41,5.41,0,0,0,.8,3.26,3.79,3.79,0,0,0,5.24,0Z"/><path class="cls-9" d="M931.93,790h2.51l.28,2.1h.18c.61-1.6,1.6-2.41,3-2.41a3.34,3.34,0,0,1,1.27.23v2.87h-1q-3.23,0-3.23,3.6v7h-3Z"/><path class="cls-9" d="M946.8,785.91h3.5L954,796.54c.16.41.38,1.08.69,2,.22.69.34,1.07.38,1.14h.13c.44-1.46.77-2.51,1-3.17L960,785.91h3.35L957,803.32h-3.78Z"/><path class="cls-9" d="M965.58,801.92q-1.58-1.7-1.57-5.28t1.58-5.28a6.29,6.29,0,0,1,4.81-1.7,5.57,5.57,0,0,1,4.4,1.65c1,1.1,1.46,2.82,1.46,5.15v.92H967.1a4.78,4.78,0,0,0,.85,2.9,3.05,3.05,0,0,0,2.48.93,3.13,3.13,0,0,0,2.05-.65,2.32,2.32,0,0,0,.79-1.91h3a4.39,4.39,0,0,1-1.62,3.71,6.72,6.72,0,0,1-4.24,1.26A6.25,6.25,0,0,1,965.58,801.92Zm7.51-6.7c0-2.1-.89-3.15-2.69-3.15a3.08,3.08,0,0,0-2.29.78,3.82,3.82,0,0,0-1,2.37Z"/><path class="cls-9" d="M979,790h2.52l.25,1.77h.18a5,5,0,0,1,1.81-1.53,5.49,5.49,0,0,1,2.48-.55,4.36,4.36,0,0,1,3.17,1.11,4.73,4.73,0,0,1,1.14,3.54v9h-3v-8.48A2.18,2.18,0,0,0,985,792.3a2.83,2.83,0,0,0-2.13.92,3.27,3.27,0,0,0-.86,2.33v7.77h-3Z"/><path class="cls-9" d="M994.51,801.9a10.59,10.59,0,0,1,0-10.49,4.55,4.55,0,0,1,3.73-1.75,4.43,4.43,0,0,1,4,1.86h.15V785h3.05v18.35h-2.51l-.26-1.78h-.15a4.35,4.35,0,0,1-1.72,1.55,5.31,5.31,0,0,1-2.36.53A4.77,4.77,0,0,1,994.51,801.9Zm7.16-1.95a5.46,5.46,0,0,0,.73-3.13v-.3q0-4.24-3-4.24a2.73,2.73,0,0,0-2.39,1,5.69,5.69,0,0,0-.71,3.21v.33A5.66,5.66,0,0,0,997,800a2.75,2.75,0,0,0,2.39,1A2.61,2.61,0,0,0,1001.67,800Z"/><path class="cls-9" d="M1009.8,801.92q-1.63-1.7-1.63-5.28t1.63-5.28a8,8,0,0,1,9.87,0c1.1,1.14,1.64,2.9,1.64,5.28s-.54,4.15-1.64,5.28a8,8,0,0,1-9.87,0Zm7.55-1.84a5.33,5.33,0,0,0,.82-3.26v-.36a5.35,5.35,0,0,0-.82-3.26,3.79,3.79,0,0,0-5.24,0,5.43,5.43,0,0,0-.8,3.26v.36a5.41,5.41,0,0,0,.8,3.26,3.79,3.79,0,0,0,5.24,0Z"/><path class="cls-9" d="M1024,790h2.51l.28,2.1h.18c.61-1.6,1.6-2.41,3-2.41a3.38,3.38,0,0,1,1.27.23v2.87h-1q-3.22,0-3.23,3.6v7h-3Z"/><path class="cls-10" d="M1654,364h0a3.3,3.3,0,0,1-1.49,2l-28.44,17.73a3.35,3.35,0,0,1-5.11-2.88V370h-77.81a16.14,16.14,0,0,1-29,0,15.87,15.87,0,0,1-1.64-7.07,16.16,16.16,0,0,1,30.74-7H1619V345.41a3.35,3.35,0,0,1,5.11-2.88l28.44,17.71a3.38,3.38,0,0,1,1.4,1.74A3.57,3.57,0,0,1,1654,364Z"/></g></g></svg>