<svg id="Layer_1" data-name="Layer 1" xmlns="http://www.w3.org/2000/svg" viewBox="0 0 1920 1080"><defs><style>.cls-1,.cls-4{fill:#edf4f8;}.cls-11,.cls-2,.cls-20{fill:#f9ef35;}.cls-10,.cls-11,.cls-12,.cls-13,.cls-14,.cls-15,.cls-2,.cls-22,.cls-23,.cls-24,.cls-4,.cls-6,.cls-9{stroke:#0c1733;}.cls-10,.cls-11,.cls-12,.cls-13,.cls-14,.cls-15,.cls-18,.cls-2,.cls-22,.cls-23,.cls-24,.cls-4,.cls-6,.cls-7,.cls-8{stroke-linecap:round;stroke-linejoin:round;}.cls-15,.cls-16,.cls-3,.cls-9{fill:#fff;}.cls-10,.cls-11,.cls-14,.cls-15,.cls-18,.cls-24,.cls-4,.cls-8,.cls-9{stroke-width:2px;}.cls-10,.cls-5{fill:#a3bdcc;}.cls-25,.cls-27,.cls-28,.cls-6{fill:#0c1733;}.cls-6{stroke-width:2.65px;}.cls-12,.cls-13,.cls-14,.cls-18,.cls-22,.cls-23,.cls-7,.cls-8{fill:none;}.cls-7,.cls-8{stroke:#a3bdcc;}.cls-12,.cls-13,.cls-7{stroke-width:5px;}.cls-9{stroke-miterlimit:10;}.cls-13{stroke-dasharray:0 18.83;}.cls-16,.cls-25,.cls-26,.cls-28{isolation:isolate;}.cls-16{font-size:20.85px;font-family:Roboto-Regular, Roboto;}.cls-17{opacity:0.77;}.cls-18{stroke:#9dc7e0;}.cls-19{fill:#9dc7e0;}.cls-21,.cls-24{fill:#cfdde5;}.cls-22,.cls-23{stroke-width:4px;}.cls-23{stroke-dasharray:0 13.29;}.cls-25{font-size:25.51px;}.cls-25,.cls-28{font-family:Archivo-SemiBold, Archivo;font-weight:600;}.cls-28{font-size:19.96px;}</style></defs><path class="cls-1" d="M1251.75,697.94H1829c31,0,56.08,24.18,56.08,54V957.29c0,29.82-25.11,54-56.08,54h-577.2c-31,0-56.07-24.18-56.07-54V751.94C1195.68,722.12,1220.78,697.94,1251.75,697.94Z"/><path class="cls-2" d="M1378.25,701l17.43-28.24a3.32,3.32,0,0,0-1.08-4.58,3.45,3.45,0,0,0-1.75-.5h-10.39v-26h-14.09v26H1358a3.34,3.34,0,0,0-2.83,5.08L1372.59,701a3.33,3.33,0,0,0,4.59,1.08A3.25,3.25,0,0,0,1378.25,701Z"/><path class="cls-1" d="M1498.35,452.65H1253.87c-14.7,0-26.62,11.23-26.62,25.09v144c0,13.85,11.92,25.09,26.62,25.09h244.48c14.7,0,26.62-11.24,26.62-25.09v-144C1525,463.88,1513.05,452.65,1498.35,452.65Z"/><path class="cls-1" d="M1249.11,65.18h577.21c31,0,56.07,24.18,56.07,54V324.53c0,29.82-25.11,54-56.07,54H1249.11c-31,0-56.07-24.18-56.07-54V119.18C1193,89.36,1218.14,65.18,1249.11,65.18Z"/><rect class="cls-3" x="395.59" y="395.66" width="335.52" height="200"/><path class="cls-4" d="M600.26,639V608.64H524.51V639a3.19,3.19,0,0,1-1,2.29L510.6,653.8a3.19,3.19,0,0,0,2.22,5.48H612a3.18,3.18,0,0,0,3.18-3.19,3.22,3.22,0,0,0-1-2.29l-12.94-12.52A3.17,3.17,0,0,1,600.26,639Z"/><rect class="cls-5" x="395.59" y="395.66" width="335.52" height="15.24"/><rect class="cls-5" x="395.59" y="581.53" width="335.52" height="15.24"/><path class="cls-6" d="M730.26,382.05H394.52a12.75,12.75,0,0,0-12.77,12.75h0V595.87a12.76,12.76,0,0,0,12.75,12.77H730.26A12.76,12.76,0,0,0,743,595.88h0V394.81a12.76,12.76,0,0,0-12.76-12.76Zm.85,213.61H395.59v-200H731.11Z"/><rect class="cls-1" x="410.48" y="421.03" width="68.71" height="150.18"/><rect class="cls-1" x="489.49" y="421.03" width="68.71" height="150.18"/><rect class="cls-1" x="568.5" y="421.03" width="68.71" height="150.18"/><rect class="cls-1" x="647.52" y="421.03" width="68.71" height="150.18"/><rect class="cls-3" x="416.34" y="443.77" width="56.98" height="104.71"/><rect class="cls-3" x="495.36" y="443.77" width="56.98" height="104.71"/><rect class="cls-3" x="574.37" y="443.77" width="56.98" height="52.35"/><line class="cls-7" x1="421.35" y1="429.19" x2="461.22" y2="429.19"/><line class="cls-7" x1="500.37" y1="429.19" x2="540.23" y2="429.19"/><line class="cls-7" x1="579.38" y1="429.19" x2="619.24" y2="429.19"/><line class="cls-7" x1="658.39" y1="429.19" x2="698.25" y2="429.19"/><line class="cls-7" x1="516.7" y1="462.58" x2="544.32" y2="462.58"/><line class="cls-7" x1="504.46" y1="462.58" x2="508.67" y2="462.58"/><line class="cls-7" x1="516.7" y1="501.38" x2="544.32" y2="501.38"/><line class="cls-7" x1="504.46" y1="501.38" x2="508.67" y2="501.38"/><line class="cls-7" x1="437.68" y1="462.58" x2="465.31" y2="462.58"/><line class="cls-7" x1="425.44" y1="462.58" x2="429.65" y2="462.58"/><line class="cls-7" x1="437.68" y1="501.38" x2="465.31" y2="501.38"/><line class="cls-7" x1="425.44" y1="501.38" x2="429.65" y2="501.38"/><line class="cls-7" x1="583.47" y1="462.58" x2="623.33" y2="462.58"/><rect class="cls-5" x="416.34" y="443.77" width="56.98" height="10.78"/><rect class="cls-5" x="495.36" y="443.77" width="56.98" height="10.78"/><rect class="cls-5" x="574.37" y="443.77" width="56.98" height="10.78"/><line class="cls-8" x1="534.04" y1="639.78" x2="592.67" y2="639.78"/><rect class="cls-9" x="1269.08" y="430.07" width="207.27" height="126.17"/><path class="cls-10" d="M1269.08,430.07V556.24a23.16,23.16,0,0,1-23.16-23.16h0V453.23a23.14,23.14,0,0,1,23.14-23.16Z"/><path class="cls-10" d="M1481.76,430.07h-5.41V556.24h5.41a23.16,23.16,0,0,0,23.16-23.16h0V453.23a23.14,23.14,0,0,0-23.14-23.16Zm8.63,71.13a8,8,0,1,1,.11,0Z"/><path class="cls-11" d="M1498.45,493.15a8.05,8.05,0,1,1-8.1-8h0A8,8,0,0,1,1498.45,493.15Z"/><line class="cls-12" x1="1306.81" y1="525.36" x2="1306.81" y2="525.36"/><line class="cls-13" x1="1325.64" y1="525.36" x2="1429.2" y2="525.36"/><line class="cls-12" x1="1438.61" y1="525.36" x2="1438.61" y2="525.36"/><path class="cls-14" d="M1306.81,504.23c22,4.42,47.4,2.28,58.38-18,2.88-5.32,4.42-12.24,1.85-18-2.69-6-9.37-9.38-15.41-6-10.28,5.82-9.11,20.14-2,27.77,8.56,9.15,23.36,9.22,32.84,1.46,4.22-3.46,8.25-9.42,7.22-15.2-1.4-7.83-9.8-3.55-11.21,2.05-3.27,13,12.57,20.16,23.06,17.75a23.64,23.64,0,0,0,14.7-10.11c3.14-5.12,4.09-13.51-2.83-16.07s-11.26,4.93-10.45,11c.89,6.55,6.25,11.3,11.91,14,7.18,3.45,15.35,4.1,23.29,2.79"/><rect class="cls-10" x="1302.86" y="152.44" width="145.12" height="117.85"/><rect class="cls-15" x="1339.14" y="163.41" width="24.19" height="96.69"/><rect class="cls-15" x="1387.51" y="163.41" width="24.19" height="96.69"/><rect class="cls-15" x="1435.88" y="163.41" width="24.19" height="96.69"/><rect class="cls-15" x="1290.77" y="163.41" width="24.19" height="96.69"/><polygon class="cls-15" points="1375.42 87.46 1272.57 137.29 1478.27 137.29 1375.42 87.46"/><rect class="cls-15" x="1272.57" y="137.29" width="205.69" height="26.12"/><rect class="cls-15" x="1272.57" y="260.1" width="205.69" height="26.12"/><path class="cls-11" d="M1385.3,226.31a8,8,0,0,0-2.24-5.83q-2.25-2.31-7.47-4.15a57,57,0,0,1-8.14-3.43q-9.67-5.18-9.67-15.35a15.83,15.83,0,0,1,4.19-11.34c2.79-3,6.59-4.71,11.37-5.27v-9.05H1380V181a16.49,16.49,0,0,1,11.16,6.13q3.94,5.09,3.94,13.22h-10q0-5.23-2.35-8.24a7.62,7.62,0,0,0-6.37-3,8.59,8.59,0,0,0-6.22,2.16,8.18,8.18,0,0,0-2.25,6.18,7.75,7.75,0,0,0,2.22,5.79c1.49,1.46,4,2.83,7.54,4.13A64.77,64.77,0,0,1,1386,211a21.85,21.85,0,0,1,5.11,3.8,15.22,15.22,0,0,1,3.19,4.92,17.27,17.27,0,0,1,1.13,6.52,15.53,15.53,0,0,1-4.3,11.37q-4.31,4.37-12,5.15v8.09h-6.6v-8q-8.22-.92-12.64-5.89t-4.42-13.2h10.09q0,5.22,2.64,8.09a9.62,9.62,0,0,0,7.45,2.87c3.15,0,5.55-.77,7.2-2.29A7.85,7.85,0,0,0,1385.3,226.31Z"/><path class="cls-14" d="M1736.81,279.85a98.4,98.4,0,1,1,65.36-81.78"/><path class="cls-15" d="M1726.32,206.07h-10.07L1714,229.64a14.62,14.62,0,0,1-14.55,13.22H1673.1v10.81h-26.46c8.42-28.66,5-47.52-3-55.52h0a7,7,0,0,0-10.83-8.89c-5.44-7.5-4.59-17.37-.26-20.2,5.69-3.72,12.59,3.5,18,3.5s5-8.65,5-15.76h60.26v26.49Z"/><path class="cls-15" d="M1673.11,253.67V280.3a98.13,98.13,0,0,1-29.91-16.2q2-5.42,3.45-10.43Z"/><path class="cls-11" d="M1729.83,156.8h-74.28a37.14,37.14,0,0,1,37.14-37.14h0a23.46,23.46,0,0,1,2.38.08A37.14,37.14,0,0,1,1729.83,156.8Z"/><path class="cls-11" d="M1695.07,119.74c-.78,0-1.58-.08-2.38-.08a37.14,37.14,0,0,0-37.14,37.14h0c0,7.11.37,15.76-5,15.76s-12.27-7.22-18-3.5c-4.33,2.83-5.18,12.7.26,20.2a7,7,0,1,0,10.83,8.89h0c8,8,11.38,26.86,3,55.52q-1.47,5-3.45,10.43c-1.49-1.18-3-2.41-4.37-3.67a98.46,98.46,0,0,1,6.49-152.51,51,51,0,0,1,49.75,11.82Z"/><path class="cls-15" d="M1645.28,193.69a7,7,0,0,1-1.59,4.46h0a7,7,0,1,1,1.59-4.46Z"/><rect class="cls-1" x="444.6" y="883.36" width="299.09" height="70.94" rx="15.96"/><rect class="cls-1" x="444.6" y="802.23" width="299.09" height="70.94" rx="15.96"/><rect class="cls-1" x="444.6" y="721.1" width="299.09" height="70.94" rx="15.96"/><circle class="cls-5" cx="405.69" cy="756.57" r="23.28"/><circle class="cls-5" cx="405.69" cy="837.7" r="23.28"/><circle class="cls-5" cx="405.69" cy="918.84" r="23.28"/><text class="cls-16" transform="translate(400.34 763.53)">1</text><text class="cls-16" transform="translate(400.34 844.66)">2</text><text class="cls-16" transform="translate(400.34 925.79)">3</text><path class="cls-2" d="M1037.9,730.37a3.34,3.34,0,0,0,3.33-3.34,3.26,3.26,0,0,0-.5-1.74l-4.67-7.55h0l-12.78-20.69a3.32,3.32,0,0,0-4.58-1.08,3.38,3.38,0,0,0-1.08,1.08l-17.44,28.24a3.33,3.33,0,0,0,1.09,4.58,3.26,3.26,0,0,0,1.74.5h10.4v8h0V907.19a5,5,0,0,1-5,5h-281a15.92,15.92,0,0,0-30.19,7,15.6,15.6,0,0,0,1.62,7,15.91,15.91,0,0,0,28.56.07H1012.9a14.59,14.59,0,0,0,14.59-14.1V730.34Z"/><g class="cls-17"><rect class="cls-5" x="918.53" y="878.4" width="161.66" height="94.89" rx="13"/></g><rect class="cls-1" x="907.44" y="867.31" width="161.66" height="94.89" rx="12.22"/><line class="cls-18" x1="912.52" y1="870.29" x2="971.12" y2="904.68"/><line class="cls-18" x1="1064.02" y1="870.29" x2="1005.42" y2="904.68"/><path class="cls-19" d="M1005.06,921a14.25,14.25,0,0,1-2.56,8.21,7.49,7.49,0,0,1-6.27,3,5.72,5.72,0,0,1-3-.75,4.77,4.77,0,0,1-1.91-2.14,6.18,6.18,0,0,1-4.71,2.8,5.57,5.57,0,0,1-5.07-2.38,9.9,9.9,0,0,1-1.27-6.64,17.1,17.1,0,0,1,1.69-5.93,10.53,10.53,0,0,1,3.34-4,7.52,7.52,0,0,1,4.37-1.39,8.81,8.81,0,0,1,4.92,1.33l1.28.87-1,11.67a3.6,3.6,0,0,0,.35,2.45A2,2,0,0,0,997,929a3.63,3.63,0,0,0,3.11-2.18,12.18,12.18,0,0,0,1.37-5.68q.35-7-2.84-10.84t-9.45-3.73a12.49,12.49,0,0,0-7,2,13.36,13.36,0,0,0-4.8,5.62,21.37,21.37,0,0,0-2,8.35q-.33,7.15,2.87,11.06t9.55,3.91a18,18,0,0,0,3.51-.38c.55-.11,1.06-.24,1.54-.38a1.66,1.66,0,0,1,2.06,1.13l0,.08h0a1.69,1.69,0,0,1-1,2,15.43,15.43,0,0,1-2,.62,18.08,18.08,0,0,1-4.21.49,17.89,17.89,0,0,1-9.09-2.15,13.22,13.22,0,0,1-5.61-6.34,22.36,22.36,0,0,1-1.6-10,23.69,23.69,0,0,1,2.54-10,17.57,17.57,0,0,1,24-7.07,13.37,13.37,0,0,1,5.47,6.21A20.74,20.74,0,0,1,1005.06,921Zm-20.3,2.14a8,8,0,0,0,.46,4.05,2.32,2.32,0,0,0,2.22,1.38,2.7,2.7,0,0,0,1.88-.87,6.42,6.42,0,0,0,1.48-2.5l.85-9.55a5,5,0,0,0-1.62-.27,4.07,4.07,0,0,0-3.61,2A13.13,13.13,0,0,0,984.76,923.14Z"/><rect class="cls-15" x="1742.44" y="821.08" width="66.67" height="94.52"/><circle class="cls-15" cx="1775.77" cy="821.08" r="10.1"/><circle class="cls-20" cx="1775.77" cy="821.08" r="4.78"/><rect class="cls-21" x="1752.96" y="838.02" width="45.62" height="6.11"/><rect class="cls-21" x="1752.96" y="850.95" width="45.63" height="6.11"/><line class="cls-22" x1="1755.84" y1="903.37" x2="1755.84" y2="903.37"/><line class="cls-23" x1="1769.13" y1="903.37" x2="1789.06" y2="903.37"/><line class="cls-22" x1="1795.71" y1="903.37" x2="1795.71" y2="903.37"/><path class="cls-14" d="M1755.84,895.52c8,1.78,17.57,1.2,21.62-6.27,1-1.9,1.58-4.38.66-6.42a4,4,0,0,0-5.51-2.13c-3.67,2.08-3.26,7.19-.7,9.92a8.72,8.72,0,0,0,11.73.52c1.51-1.23,2.95-3.36,2.58-5.43-.5-2.8-3.5-1.27-4,.73-1.16,4.65,4.5,7.21,8.24,6.35a8.48,8.48,0,0,0,5.26-3.61"/><path class="cls-14" d="M1725.8,918.41A98.74,98.74,0,0,1,1625.68,871v-.1a98.52,98.52,0,1,1,182.16-66"/><path class="cls-11" d="M1685.68,907v9.37a99,99,0,0,1-49.39-30.68h15.54Z"/><path class="cls-15" d="M1732.32,847.84H1719V870a15.74,15.74,0,0,1-15.74,15.73h-17.55V907l-33.85-21.31h-15.54A99,99,0,0,1,1625.68,871v-.09a98.76,98.76,0,0,1-10.34-74.79H1719V810Z"/><path class="cls-24" d="M1719,796.15v0Z"/><path class="cls-11" d="M1718.93,796.15H1615.29a98.38,98.38,0,0,1,32.6-51h0a55,55,0,0,1,71,51Z"/><path class="cls-14" d="M1635.47,770a39,39,0,0,1,64.64,4.08"/><line class="cls-14" x1="1737.93" y1="796.15" x2="1718.97" y2="796.15"/><rect class="cls-15" x="1737.83" y="214.94" width="77.22" height="40.34"/><rect class="cls-15" x="1730.14" y="222.63" width="77.22" height="40.34"/><path class="cls-14" d="M1791.88,228.12a10,10,0,0,0,10,10"/><path class="cls-14" d="M1801.87,247.49a10,10,0,0,0-10,10"/><path class="cls-14" d="M1745.63,257.48a10,10,0,0,0-10-10"/><path class="cls-14" d="M1735.64,238.12a10,10,0,0,0,10-10"/><circle class="cls-11" cx="1768.75" cy="242.8" r="11.38"/><rect class="cls-11" x="1738.87" y="160.96" width="40.56" height="40.56"/><rect class="cls-3" x="1744.54" y="166.63" width="29.22" height="29.22"/><polyline class="cls-14" points="1749.57 177.38 1759.04 186.84 1786.16 159.72"/><path class="cls-2" d="M319.28,481.65h-54v14.11h54v10.4a3.33,3.33,0,0,0,5.07,2.83l28.24-17.45a3.33,3.33,0,0,0,0-5.67l-28.24-17.43a3.33,3.33,0,0,0-5.07,2.83Z"/><path class="cls-2" d="M1372.58,370.08l-17.43,28.24a3.33,3.33,0,0,0,1.08,4.58,3.29,3.29,0,0,0,1.75.5h10.39v26h14.09v-26h10.4a3.33,3.33,0,0,0,2.83-5.08l-17.45-28.24a3.33,3.33,0,0,0-5.66,0Z"/><path class="cls-2" d="M1236.24,493.29,1208,475.86a3.32,3.32,0,0,0-4.58,1.08,3.45,3.45,0,0,0-.5,1.75v10.39h-56v14.09h56v10.4a3.34,3.34,0,0,0,5.08,2.83L1236.24,499a3.33,3.33,0,0,0,1.08-4.59A3.25,3.25,0,0,0,1236.24,493.29Z"/><text class="cls-25" transform="translate(466.55 694.36)">Built Dashboard</text><text class="cls-25" transform="translate(1259.5 592.94)">Electronically signs</text><text class="cls-25" transform="translate(1311.89 623.55)">lien waiver</text><rect class="cls-3" x="1248.1" y="755.88" width="249.11" height="148.49"/><path class="cls-4" d="M1400.06,936.54V914h-56.24v22.53a2.38,2.38,0,0,1-.72,1.7l-9.61,9.3a2.37,2.37,0,0,0,1.65,4.07h73.6a2.38,2.38,0,0,0,2.36-2.38,2.34,2.34,0,0,0-.72-1.69l-9.6-9.3A2.38,2.38,0,0,1,1400.06,936.54Z"/><rect class="cls-5" x="1248.1" y="755.88" width="249.11" height="11.31"/><rect class="cls-5" x="1248.1" y="893.88" width="249.11" height="11.31"/><path class="cls-6" d="M1496.58,745.77H1247.3a9.47,9.47,0,0,0-9.48,9.46v149.3a9.47,9.47,0,0,0,9.46,9.48h249.3a9.47,9.47,0,0,0,9.47-9.47h0V755.25a9.46,9.46,0,0,0-9.46-9.48Zm.63,158.6H1248.1V755.85h249.11Z"/><rect class="cls-1" x="1259.15" y="774.72" width="51.01" height="111.51"/><rect class="cls-1" x="1317.82" y="774.72" width="51.01" height="111.51"/><rect class="cls-1" x="1376.48" y="774.72" width="51.01" height="111.51"/><rect class="cls-1" x="1435.14" y="774.72" width="51.01" height="111.51"/><rect class="cls-3" x="1263.51" y="791.6" width="42.3" height="77.74"/><rect class="cls-3" x="1322.17" y="791.6" width="42.3" height="77.74"/><rect class="cls-3" x="1380.83" y="791.6" width="42.3" height="38.87"/><line class="cls-7" x1="1267.23" y1="780.77" x2="1296.82" y2="780.77"/><line class="cls-7" x1="1325.89" y1="780.77" x2="1355.49" y2="780.77"/><line class="cls-7" x1="1384.55" y1="780.77" x2="1414.15" y2="780.77"/><line class="cls-7" x1="1443.22" y1="780.77" x2="1472.81" y2="780.77"/><line class="cls-7" x1="1338.01" y1="805.56" x2="1358.52" y2="805.56"/><line class="cls-7" x1="1328.93" y1="805.56" x2="1332.05" y2="805.56"/><line class="cls-7" x1="1338.01" y1="834.37" x2="1358.52" y2="834.37"/><line class="cls-7" x1="1328.93" y1="834.37" x2="1332.05" y2="834.37"/><line class="cls-7" x1="1279.35" y1="805.56" x2="1299.86" y2="805.56"/><line class="cls-7" x1="1270.26" y1="805.56" x2="1273.39" y2="805.56"/><line class="cls-7" x1="1279.35" y1="834.37" x2="1299.86" y2="834.37"/><line class="cls-7" x1="1270.26" y1="834.37" x2="1273.39" y2="834.37"/><line class="cls-7" x1="1387.59" y1="805.56" x2="1417.19" y2="805.56"/><rect class="cls-5" x="1263.51" y="791.6" width="42.3" height="8"/><rect class="cls-5" x="1322.17" y="791.6" width="42.3" height="8"/><rect class="cls-5" x="1380.83" y="791.6" width="42.3" height="8"/><line class="cls-8" x1="1350.89" y1="937.13" x2="1394.42" y2="937.13"/><g class="cls-26"><path class="cls-27" d="M1281.4,966.49h9.49a5.78,5.78,0,0,1,2.51.53,4,4,0,0,1,2.36,3.78,4,4,0,0,1-.8,2.52,4.09,4.09,0,0,1-2,1.48v.11a4,4,0,0,1,2.41,1.45,4.33,4.33,0,0,1,.93,2.81,4.38,4.38,0,0,1-1.49,3.59,5.91,5.91,0,0,1-3.87,1.23h-9.49Zm8.62,7.17a2.42,2.42,0,0,0,1.76-.62,2,2,0,0,0,.64-1.55,2.16,2.16,0,0,0-.59-1.66,2.23,2.23,0,0,0-1.6-.56h-5.56v4.39Zm.44,7.55a2.54,2.54,0,0,0,1.78-.6,2.28,2.28,0,0,0,.67-1.8,2.35,2.35,0,0,0-.67-1.79,2.73,2.73,0,0,0-2-.63h-5.61v4.82Z"/><path class="cls-27" d="M1299.23,979.63v-9.06h3.06v8.52a2.18,2.18,0,0,0,2.48,2.55,2.84,2.84,0,0,0,2.14-.92,3.26,3.26,0,0,0,.87-2.34v-7.81h3.06V984h-2.53l-.25-1.79h-.18a5.12,5.12,0,0,1-1.82,1.55,5.56,5.56,0,0,1-2.49.54Q1299.24,984.29,1299.23,979.63Z"/><path class="cls-27" d="M1314.41,965.54h3v3h-3Zm0,5h3.06V984h-3.06Z"/><path class="cls-27" d="M1321,965.54h3.06V984H1321Z"/><path class="cls-27" d="M1328.56,983.34a3.72,3.72,0,0,1-.76-2.39v-7.88h-1.63v-2.5h1.68l.57-3.75h2.44v3.75h2.3v2.5h-2.3v7.58a1,1,0,0,0,1.1,1.14h1.2v2.1a7.92,7.92,0,0,1-1,.28,5.86,5.86,0,0,1-1.12.12A3,3,0,0,1,1328.56,983.34Z"/><path class="cls-27" d="M1342.75,966.49h7a8.55,8.55,0,0,1,6.28,2.18q2.22,2.18,2.22,6.57t-2.22,6.57a8.59,8.59,0,0,1-6.28,2.18h-7Zm7,14.72a4.91,4.91,0,0,0,3.81-1.43,6.17,6.17,0,0,0,1.34-4.29V975a6.12,6.12,0,0,0-1.32-4.27,5,5,0,0,0-3.83-1.44H1346v11.94Z"/><path class="cls-27" d="M1361.46,983.49a3.22,3.22,0,0,1-1.31-3,3.68,3.68,0,0,1,2.19-3.62,14.82,14.82,0,0,1,6.23-1v-1.12a2.15,2.15,0,0,0-.5-1.51,2.43,2.43,0,0,0-1.8-.53,3.18,3.18,0,0,0-1.91.43,1.3,1.3,0,0,0-.56,1.07v.36h-3a3.43,3.43,0,0,1,0-.56,3.12,3.12,0,0,1,1.49-2.73,7,7,0,0,1,4-1,6.24,6.24,0,0,1,4,1.1,3.84,3.84,0,0,1,1.34,3.14v6.4a.85.85,0,0,0,.25.68,1,1,0,0,0,.64.21h.82v2.1a4.57,4.57,0,0,1-1.92.38,2.67,2.67,0,0,1-1.65-.49,2.34,2.34,0,0,1-.9-1.32h-.18a5.22,5.22,0,0,1-4.28,1.83A5.51,5.51,0,0,1,1361.46,983.49Zm6.24-2.51a3.17,3.17,0,0,0,.87-2.35V978a12.77,12.77,0,0,0-3.88.47,1.74,1.74,0,0,0-1.4,1.72c0,1.09.68,1.63,2,1.63A3.2,3.2,0,0,0,1367.7,981Z"/><path class="cls-27" d="M1376.11,983.15a3.56,3.56,0,0,1-1.52-3,2.37,2.37,0,0,1,0-.31.46.46,0,0,0,0-.1h3V980a1.6,1.6,0,0,0,.85,1.46,4.1,4.1,0,0,0,2.08.48,4.55,4.55,0,0,0,1.91-.37,1.21,1.21,0,0,0,.36-2.07,3.23,3.23,0,0,0-1.07-.59c-.43-.14-1-.31-1.81-.49a21.68,21.68,0,0,1-2.59-.77,4.23,4.23,0,0,1-1.72-1.2,3.11,3.11,0,0,1-.72-2.14,3.34,3.34,0,0,1,1.59-3,7.27,7.27,0,0,1,4.1-1,8,8,0,0,1,2.78.46,4.39,4.39,0,0,1,1.9,1.29,2.93,2.93,0,0,1,.68,1.9l0,.56h-3v-.1a1.43,1.43,0,0,0-.65-1.24,3.29,3.29,0,0,0-1.88-.44,3.52,3.52,0,0,0-1.81.37,1.07,1.07,0,0,0-.61,1,1.12,1.12,0,0,0,.75,1.06,11.65,11.65,0,0,0,2.31.68,19.17,19.17,0,0,1,2.72.78,4.6,4.6,0,0,1,1.8,1.23,3.25,3.25,0,0,1,.76,2.27,3.57,3.57,0,0,1-1.59,3.24,8,8,0,0,1-4.33,1A7,7,0,0,1,1376.11,983.15Z"/><path class="cls-27" d="M1389,965.54h3.06v6.56h.18a4.73,4.73,0,0,1,1.68-1.34,5.31,5.31,0,0,1,2.35-.5,4.41,4.41,0,0,1,3.19,1.11,4.8,4.8,0,0,1,1.14,3.56V984h-3.06v-8.52a2.16,2.16,0,0,0-2.47-2.55,2.81,2.81,0,0,0-2.14.91,3.3,3.3,0,0,0-.87,2.35V984H1389Z"/><path class="cls-27" d="M1408.8,983.76a4.36,4.36,0,0,1-1.74-1.56h-.15l-.26,1.79h-2.52V965.54h3.06v6.59h.15a4.45,4.45,0,0,1,4-1.87,4.55,4.55,0,0,1,3.75,1.76,10.55,10.55,0,0,1,0,10.54,4.77,4.77,0,0,1-3.95,1.73A5.16,5.16,0,0,1,1408.8,983.76Zm3.85-3.1a5.68,5.68,0,0,0,.71-3.2v-.33a5.74,5.74,0,0,0-.71-3.23,2.75,2.75,0,0,0-2.4-1q-3.06,0-3.06,4.26v.31a5.55,5.55,0,0,0,.74,3.15,2.65,2.65,0,0,0,2.32,1.06A2.75,2.75,0,0,0,1412.65,980.66Z"/><path class="cls-27" d="M1420,982.58q-1.63-1.7-1.64-5.3T1420,972a8.06,8.06,0,0,1,9.93,0q1.63,1.71,1.64,5.31t-1.64,5.3a8.06,8.06,0,0,1-9.93,0Zm7.59-1.85a5.28,5.28,0,0,0,.82-3.27v-.36a5.33,5.33,0,0,0-.82-3.28,3.81,3.81,0,0,0-5.27,0,5.48,5.48,0,0,0-.8,3.28v.36a5.42,5.42,0,0,0,.8,3.27,3.81,3.81,0,0,0,5.27,0Z"/><path class="cls-27" d="M1434.65,983.49a3.19,3.19,0,0,1-1.31-3,3.68,3.68,0,0,1,2.19-3.62,14.77,14.77,0,0,1,6.22-1v-1.12a2.15,2.15,0,0,0-.49-1.51,2.43,2.43,0,0,0-1.8-.53,3.18,3.18,0,0,0-1.91.43,1.31,1.31,0,0,0-.57,1.07v.36h-3a3.43,3.43,0,0,1,0-.56,3.12,3.12,0,0,1,1.49-2.73,7,7,0,0,1,4-1,6.28,6.28,0,0,1,4,1.1,3.84,3.84,0,0,1,1.34,3.14v6.4a.85.85,0,0,0,.25.68,1,1,0,0,0,.64.21h.82v2.1a4.6,4.6,0,0,1-1.92.38,2.72,2.72,0,0,1-1.66-.49,2.32,2.32,0,0,1-.89-1.32h-.18a5.22,5.22,0,0,1-4.28,1.83A5.51,5.51,0,0,1,1434.65,983.49Zm6.24-2.51a3.16,3.16,0,0,0,.86-2.35V978a12.74,12.74,0,0,0-3.87.47,1.75,1.75,0,0,0-1.41,1.72c0,1.09.68,1.63,2,1.63A3.21,3.21,0,0,0,1440.89,981Z"/><path class="cls-27" d="M1448.51,970.57H1451l.28,2.12h.18c.61-1.62,1.62-2.43,3-2.43a3.44,3.44,0,0,1,1.28.23v2.89h-1c-2.16,0-3.24,1.2-3.24,3.62v7h-3.07Z"/><path class="cls-27" d="M1458.49,982.56c-.94-1.16-1.4-2.93-1.4-5.31a8.26,8.26,0,0,1,1.4-5.23,4.55,4.55,0,0,1,3.75-1.76,4.45,4.45,0,0,1,4,1.87h.15v-6.59h3.06V984H1467l-.26-1.79h-.15a4.4,4.4,0,0,1-1.73,1.56,5.23,5.23,0,0,1-2.38.53A4.77,4.77,0,0,1,1458.49,982.56Zm7.19-1.95a5.47,5.47,0,0,0,.74-3.15v-.31q0-4.26-3.06-4.26a2.75,2.75,0,0,0-2.4,1,5.74,5.74,0,0,0-.71,3.23v.33a5.68,5.68,0,0,0,.71,3.2,2.75,2.75,0,0,0,2.4,1A2.64,2.64,0,0,0,1465.68,980.61Z"/></g><g class="cls-26"><path class="cls-27" d="M1615.07,953.15a5.81,5.81,0,0,1-2.65-1.8,4.5,4.5,0,0,1-1-3l0-.54h3.29a2.61,2.61,0,0,0,0,.46,2.26,2.26,0,0,0,1.1,2,5.43,5.43,0,0,0,3,.71,6.13,6.13,0,0,0,3-.58,1.81,1.81,0,0,0,1-1.63,1.77,1.77,0,0,0-.59-1.36,4.38,4.38,0,0,0-1.45-.85c-.58-.21-1.4-.46-2.45-.75a30.3,30.3,0,0,1-3.38-1.09,6,6,0,0,1-2.21-1.55,4,4,0,0,1-.92-2.72,4,4,0,0,1,1.94-3.59,9.37,9.37,0,0,1,5.08-1.23,8.73,8.73,0,0,1,4.91,1.26,4.25,4.25,0,0,1,1.9,3.81V941h-3.21v-.28a1.93,1.93,0,0,0-1-1.72,4.82,4.82,0,0,0-2.64-.63,5.94,5.94,0,0,0-2.71.51,1.57,1.57,0,0,0-1,1.43,1.44,1.44,0,0,0,.57,1.16,4.3,4.3,0,0,0,1.41.77c.57.19,1.34.42,2.31.67a32.13,32.13,0,0,1,3.46,1.1,6.2,6.2,0,0,1,2.29,1.58,3.85,3.85,0,0,1,1,2.71,4.58,4.58,0,0,1-2,4.12,9.77,9.77,0,0,1-5.41,1.31A11,11,0,0,1,1615.07,953.15Z"/><path class="cls-27" d="M1629.1,935h3v3h-3Zm0,5h3.06v13.41h-3.06Z"/><path class="cls-27" d="M1635.49,957.25a2.85,2.85,0,0,1-1-2.31,3,3,0,0,1,2.09-2.78,2.84,2.84,0,0,1-1-.84,2.09,2.09,0,0,1-.35-1.2,1.86,1.86,0,0,1,.67-1.48,3.78,3.78,0,0,1,1.65-.82,4.08,4.08,0,0,1-1.42-1.5,4.31,4.31,0,0,1-.5-2.07,4,4,0,0,1,1.52-3.33,6.64,6.64,0,0,1,4.25-1.21,7.81,7.81,0,0,1,2.65.41,3.42,3.42,0,0,0,1.2-1.11,2.84,2.84,0,0,0,.44-1.21h3a3.23,3.23,0,0,1-.74,2.19,3.57,3.57,0,0,1-2,1.15,4.41,4.41,0,0,1-.15,6.45,6.33,6.33,0,0,1-4.16,1.23h-2.09a1.31,1.31,0,0,0-.84.23.75.75,0,0,0-.31.63.81.81,0,0,0,.28.63,1.16,1.16,0,0,0,.77.24h5.87a3.35,3.35,0,0,1,2.47,1,3.4,3.4,0,0,1,1,2.49,3.77,3.77,0,0,1-.59,2.05,4,4,0,0,1-1.67,1.47,5.48,5.48,0,0,1-2.48.54h-6A3.71,3.71,0,0,1,1635.49,957.25Zm8.46-1.39a1.94,1.94,0,0,0,1.19-.37,1.18,1.18,0,0,0,.49-1,1.26,1.26,0,0,0-.41-1,1.56,1.56,0,0,0-1.07-.36H1639a1.46,1.46,0,0,0-1,.38,1.43,1.43,0,0,0,0,2,1.5,1.5,0,0,0,1,.37Zm-.46-9.84a2.64,2.64,0,0,0,0-3.54,3.63,3.63,0,0,0-4.09,0,2.28,2.28,0,0,0-.68,1.77,2.31,2.31,0,0,0,.68,1.79,3,3,0,0,0,2,.61A2.93,2.93,0,0,0,1643.49,946Z"/><path class="cls-27" d="M1650.81,940h2.52l.26,1.78h.18a5.09,5.09,0,0,1,1.82-1.54,5.37,5.37,0,0,1,2.49-.55,4.41,4.41,0,0,1,3.19,1.11,4.79,4.79,0,0,1,1.14,3.56v9h-3.06v-8.52a2.17,2.17,0,0,0-2.47-2.55,2.82,2.82,0,0,0-2.14.92,3.28,3.28,0,0,0-.87,2.35v7.8h-3.06Z"/><path class="cls-27" d="M1666.65,952c-1.06-1.14-1.58-2.91-1.58-5.31s.53-4.16,1.59-5.3a6.31,6.31,0,0,1,4.84-1.71,5.58,5.58,0,0,1,4.42,1.66q1.47,1.65,1.47,5.18v.91h-9.21a4.78,4.78,0,0,0,.85,2.92,3,3,0,0,0,2.49.94,3.18,3.18,0,0,0,2.07-.65,2.39,2.39,0,0,0,.79-1.93h3a4.47,4.47,0,0,1-1.63,3.74,6.79,6.79,0,0,1-4.26,1.26A6.29,6.29,0,0,1,1666.65,952Zm7.55-6.73c0-2.11-.9-3.17-2.7-3.17a3.12,3.12,0,0,0-2.31.78,3.88,3.88,0,0,0-1,2.39Z"/><path class="cls-27" d="M1680.63,952q-1.41-1.72-1.41-5.3a8.24,8.24,0,0,1,1.41-5.23,4.55,4.55,0,0,1,3.75-1.76,4.47,4.47,0,0,1,4,1.86h.15V935h3.06v18.44h-2.52l-.26-1.78h-.15a4.3,4.3,0,0,1-1.73,1.55,5.24,5.24,0,0,1-2.38.54A4.78,4.78,0,0,1,1680.63,952Zm7.19-2a5.51,5.51,0,0,0,.74-3.15v-.3q0-4.26-3.06-4.26a2.75,2.75,0,0,0-2.4,1,5.77,5.77,0,0,0-.71,3.23v.33a5.65,5.65,0,0,0,.71,3.2,2.73,2.73,0,0,0,2.4,1A2.62,2.62,0,0,0,1687.82,950.05Z"/><path class="cls-27" d="M1702.29,935h3.06v18.44h-3.06Z"/><path class="cls-27" d="M1708.89,935h3v3h-3Zm0,5H1712v13.41h-3.06Z"/><path class="cls-27" d="M1716.24,952c-1.06-1.14-1.58-2.91-1.58-5.31s.53-4.16,1.59-5.3a6.31,6.31,0,0,1,4.84-1.71,5.58,5.58,0,0,1,4.42,1.66q1.47,1.65,1.47,5.18v.91h-9.21a4.85,4.85,0,0,0,.85,2.92,3,3,0,0,0,2.49.94,3.18,3.18,0,0,0,2.07-.65,2.36,2.36,0,0,0,.79-1.93h3a4.47,4.47,0,0,1-1.63,3.74,6.79,6.79,0,0,1-4.26,1.26A6.29,6.29,0,0,1,1716.24,952Zm7.55-6.73c0-2.11-.9-3.17-2.7-3.17a3.13,3.13,0,0,0-2.31.78,3.88,3.88,0,0,0-1,2.39Z"/><path class="cls-27" d="M1729.68,940h2.53l.25,1.78h.18a5,5,0,0,1,1.83-1.54,5.36,5.36,0,0,1,2.48-.55,4.39,4.39,0,0,1,3.19,1.11,4.75,4.75,0,0,1,1.15,3.56v9h-3.06v-8.52a2.18,2.18,0,0,0-2.48-2.55,2.84,2.84,0,0,0-2.14.92,3.28,3.28,0,0,0-.87,2.35v7.8h-3.06Z"/><path class="cls-27" d="M1750.19,940h3.17l1.65,6.22c.16.54.42,1.75.79,3.62h.13c.36-1.8.61-3,.77-3.59l1.5-6.25h3.29l1.61,6.27c.15.66.41,1.85.77,3.57h.12c.34-1.6.61-2.79.8-3.57l1.6-6.27h2.94l-4,13.41h-3.21l-1.66-7c-.17-.7-.38-1.66-.61-2.88h-.13c-.21,1.2-.39,2.16-.56,2.85l-1.71,7h-3.22Z"/><path class="cls-27" d="M1771.56,952.94a3.21,3.21,0,0,1-1.32-3,3.69,3.69,0,0,1,2.2-3.62,14.76,14.76,0,0,1,6.22-1v-1.13a2.08,2.08,0,0,0-.5-1.5,2.38,2.38,0,0,0-1.79-.54,3.21,3.21,0,0,0-1.92.44,1.31,1.31,0,0,0-.56,1.07V944h-3c0-.1,0-.28,0-.56a3.12,3.12,0,0,1,1.49-2.73,7.07,7.07,0,0,1,4-1,6.17,6.17,0,0,1,4,1.1,3.79,3.79,0,0,1,1.34,3.13v6.41a.83.83,0,0,0,.26.67.92.92,0,0,0,.64.22h.81v2.09a4.37,4.37,0,0,1-1.91.38,2.76,2.76,0,0,1-1.66-.48,2.35,2.35,0,0,1-.89-1.33h-.18a5.21,5.21,0,0,1-4.29,1.84A5.57,5.57,0,0,1,1771.56,952.94Zm6.23-2.52a3.15,3.15,0,0,0,.87-2.34v-.62a12.46,12.46,0,0,0-3.88.48,1.75,1.75,0,0,0-1.4,1.72c0,1.09.68,1.63,2,1.63A3.17,3.17,0,0,0,1777.79,950.42Z"/><path class="cls-27" d="M1785.42,935h3v3h-3Zm0,5h3.06v13.41h-3.06Z"/><path class="cls-27" d="M1790.5,940h3.21l2.2,6.09q.4,1.13,1.2,4.08h.12c.48-1.87.87-3.23,1.18-4.08l2.16-6.09h3.09l-5,13.41h-3.22Z"/><path class="cls-27" d="M1806.47,952c-1.06-1.14-1.58-2.91-1.58-5.31s.53-4.16,1.59-5.3a6.29,6.29,0,0,1,4.83-1.71,5.59,5.59,0,0,1,4.43,1.66q1.47,1.65,1.47,5.18v.91H1808a4.78,4.78,0,0,0,.85,2.92,3,3,0,0,0,2.49.94,3.18,3.18,0,0,0,2.07-.65,2.39,2.39,0,0,0,.79-1.93h3a4.45,4.45,0,0,1-1.64,3.74,6.75,6.75,0,0,1-4.26,1.26A6.28,6.28,0,0,1,1806.47,952Zm7.55-6.73c0-2.11-.9-3.17-2.71-3.17a3.09,3.09,0,0,0-2.3.78,3.88,3.88,0,0,0-1,2.39Z"/><path class="cls-27" d="M1819.91,940h2.53l.28,2.11h.18c.61-1.61,1.61-2.42,3-2.42a3.38,3.38,0,0,1,1.27.23v2.88h-1q-3.24,0-3.24,3.62v7h-3.06Z"/><path class="cls-27" d="M1572.43,970.63H1575l.28,2.11h.18c.62-1.61,1.62-2.42,3-2.42a3.44,3.44,0,0,1,1.28.23v2.88h-1q-3.24,0-3.24,3.63v7h-3.06Z"/><path class="cls-27" d="M1582.61,982.64c-1.06-1.14-1.58-2.91-1.58-5.3s.53-4.17,1.59-5.31a6.29,6.29,0,0,1,4.83-1.71,5.59,5.59,0,0,1,4.43,1.66q1.47,1.65,1.47,5.18v.92h-9.21A4.81,4.81,0,0,0,1585,981a3.07,3.07,0,0,0,2.49.93,3.18,3.18,0,0,0,2.07-.65,2.39,2.39,0,0,0,.79-1.93h3a4.44,4.44,0,0,1-1.64,3.74,6.77,6.77,0,0,1-4.26,1.26A6.28,6.28,0,0,1,1582.61,982.64Zm7.55-6.73c0-2.11-.9-3.17-2.71-3.17a3.09,3.09,0,0,0-2.3.78,3.91,3.91,0,0,0-1,2.39Z"/><path class="cls-27" d="M1596.74,982.64q-1.53-1.71-1.53-5.3t1.54-5.31a7.25,7.25,0,0,1,8.89-.36,5.11,5.11,0,0,1,1.48,4H1604a3.11,3.11,0,0,0-.64-2.14,2.52,2.52,0,0,0-2-.71,2.61,2.61,0,0,0-2.32,1.08,6,6,0,0,0-.74,3.33v.31a5.79,5.79,0,0,0,.75,3.3,2.82,2.82,0,0,0,2.44,1.06,2.56,2.56,0,0,0,2-.74,3,3,0,0,0,.67-2.12h3a5.16,5.16,0,0,1-1.49,3.93,7.15,7.15,0,0,1-8.89-.31Z"/><path class="cls-27" d="M1610.49,982.64c-1.06-1.14-1.58-2.91-1.58-5.3s.53-4.17,1.59-5.31a6.31,6.31,0,0,1,4.84-1.71,5.58,5.58,0,0,1,4.42,1.66q1.47,1.65,1.47,5.18v.92H1612a4.8,4.8,0,0,0,.86,2.92,3,3,0,0,0,2.48.93,3.18,3.18,0,0,0,2.07-.65,2.36,2.36,0,0,0,.79-1.93h3a4.46,4.46,0,0,1-1.63,3.74,6.79,6.79,0,0,1-4.26,1.26A6.29,6.29,0,0,1,1610.49,982.64Zm7.55-6.73c0-2.11-.9-3.17-2.7-3.17a3.13,3.13,0,0,0-2.31.78,3.91,3.91,0,0,0-1,2.39Z"/><path class="cls-27" d="M1623.93,965.6h3v3h-3Zm0,5H1627v13.42h-3.06Z"/><path class="cls-27" d="M1629,970.63h3.21l2.2,6.09c.27.75.67,2.11,1.2,4.09h.12c.48-1.87.87-3.24,1.18-4.09l2.17-6.09h3.08l-5,13.42H1634Z"/><path class="cls-27" d="M1645,982.64c-1.06-1.14-1.58-2.91-1.58-5.3s.53-4.17,1.59-5.31a6.31,6.31,0,0,1,4.84-1.71,5.58,5.58,0,0,1,4.42,1.66q1.47,1.65,1.47,5.18v.92h-9.21a4.81,4.81,0,0,0,.85,2.92,3.07,3.07,0,0,0,2.49.93,3.18,3.18,0,0,0,2.07-.65,2.39,2.39,0,0,0,.79-1.93h3a4.46,4.46,0,0,1-1.63,3.74,6.79,6.79,0,0,1-4.26,1.26A6.29,6.29,0,0,1,1645,982.64Zm7.55-6.73c0-2.11-.9-3.17-2.7-3.17a3.12,3.12,0,0,0-2.31.78,3.91,3.91,0,0,0-1,2.39Z"/><path class="cls-27" d="M1659,982.62a8.34,8.34,0,0,1-1.41-5.31,8.24,8.24,0,0,1,1.41-5.23,4.55,4.55,0,0,1,3.75-1.76,4.47,4.47,0,0,1,4,1.86h.15V965.6H1670v18.45h-2.52l-.26-1.79H1667a4.4,4.4,0,0,1-1.73,1.56,5.36,5.36,0,0,1-2.38.53A4.8,4.8,0,0,1,1659,982.62Zm7.19-2a5.55,5.55,0,0,0,.74-3.15v-.31q0-4.26-3.06-4.26a2.73,2.73,0,0,0-2.4,1,5.71,5.71,0,0,0-.71,3.22v.34a5.7,5.7,0,0,0,.71,3.2,2.75,2.75,0,0,0,2.4,1A2.64,2.64,0,0,0,1666.15,980.67Z"/><path class="cls-27" d="M1680.62,965.6h3v3h-3Zm0,5h3.06v13.42h-3.06Z"/><path class="cls-27" d="M1687.22,970.63h2.53l.25,1.78h.18a5.14,5.14,0,0,1,1.83-1.54,5.36,5.36,0,0,1,2.48-.55,4.39,4.39,0,0,1,3.19,1.11,4.76,4.76,0,0,1,1.15,3.56v9.06h-3.06v-8.53a2.18,2.18,0,0,0-2.48-2.55,2.84,2.84,0,0,0-2.14.92,3.28,3.28,0,0,0-.87,2.35v7.81h-3.06Z"/><path class="cls-27" d="M1703.1,983.2a3.57,3.57,0,0,1-1.52-3,1.85,1.85,0,0,1,0-.31.46.46,0,0,0,0-.1h3V980a1.63,1.63,0,0,0,.86,1.46,4.1,4.1,0,0,0,2.08.47,4.43,4.43,0,0,0,1.91-.37,1.21,1.21,0,0,0,.36-2.06,3.33,3.33,0,0,0-1.07-.59c-.43-.14-1-.31-1.81-.5a21.9,21.9,0,0,1-2.59-.76,4.26,4.26,0,0,1-1.72-1.2,3.11,3.11,0,0,1-.72-2.14,3.35,3.35,0,0,1,1.58-3,7.33,7.33,0,0,1,4.11-1,7.79,7.79,0,0,1,2.78.46,4.39,4.39,0,0,1,1.9,1.29,2.91,2.91,0,0,1,.68,1.9l0,.56h-3v-.1a1.43,1.43,0,0,0-.65-1.24,3.31,3.31,0,0,0-1.88-.45,3.63,3.63,0,0,0-1.81.37,1.1,1.1,0,0,0-.61,1,1.12,1.12,0,0,0,.75,1.06,12.38,12.38,0,0,0,2.31.68,20.79,20.79,0,0,1,2.72.77,4.78,4.78,0,0,1,1.79,1.24,3.25,3.25,0,0,1,.77,2.27,3.55,3.55,0,0,1-1.6,3.24,7.94,7.94,0,0,1-4.32,1A7,7,0,0,1,1703.1,983.2Z"/><path class="cls-27" d="M1717,983.4a3.77,3.77,0,0,1-.75-2.39v-7.88h-1.63v-2.5h1.68l.56-3.75h2.45v3.75h2.3v2.5h-2.3v7.57c0,.77.37,1.15,1.1,1.15h1.2v2.09a5.62,5.62,0,0,1-1,.28,5.21,5.21,0,0,1-1.12.13A3,3,0,0,1,1717,983.4Z"/><path class="cls-27" d="M1724.35,983.55a3.22,3.22,0,0,1-1.31-3,3.7,3.7,0,0,1,2.19-3.63,15,15,0,0,1,6.23-1v-1.12a2.15,2.15,0,0,0-.5-1.51,2.39,2.39,0,0,0-1.8-.54,3.17,3.17,0,0,0-1.91.44,1.28,1.28,0,0,0-.56,1.07v.36h-3a3.51,3.51,0,0,1,0-.56,3.12,3.12,0,0,1,1.49-2.73,7,7,0,0,1,4-1,6.24,6.24,0,0,1,4,1.1,3.82,3.82,0,0,1,1.34,3.14V981a.81.81,0,0,0,.25.67.94.94,0,0,0,.64.22h.82v2.09a4.45,4.45,0,0,1-1.92.39,2.74,2.74,0,0,1-1.65-.49,2.34,2.34,0,0,1-.9-1.32h-.18a5.22,5.22,0,0,1-4.28,1.83A5.6,5.6,0,0,1,1724.35,983.55Zm6.24-2.51a3.17,3.17,0,0,0,.87-2.35v-.61a12.46,12.46,0,0,0-3.88.47,1.74,1.74,0,0,0-1.4,1.72c0,1.09.68,1.63,2,1.63A3.24,3.24,0,0,0,1730.59,981Z"/><path class="cls-27" d="M1738.22,970.63h2.52l.26,1.78h.18a5.19,5.19,0,0,1,1.82-1.54,5.37,5.37,0,0,1,2.49-.55,4.41,4.41,0,0,1,3.19,1.11,4.8,4.8,0,0,1,1.14,3.56v9.06h-3.06v-8.53a2.17,2.17,0,0,0-2.47-2.55,2.82,2.82,0,0,0-2.14.92,3.28,3.28,0,0,0-.87,2.35v7.81h-3.06Z"/><path class="cls-27" d="M1754.25,983.4a3.77,3.77,0,0,1-.75-2.39v-7.88h-1.64v-2.5h1.69l.56-3.75h2.45v3.75h2.29v2.5h-2.29v7.57c0,.77.36,1.15,1.1,1.15h1.19v2.09a5.62,5.62,0,0,1-1,.28,5.14,5.14,0,0,1-1.12.13A3,3,0,0,1,1754.25,983.4Z"/><path class="cls-27" d="M1761.65,983.55a3.2,3.2,0,0,1-1.32-3,3.7,3.7,0,0,1,2.2-3.63,14.92,14.92,0,0,1,6.22-1v-1.12a2.1,2.1,0,0,0-.5-1.51,2.38,2.38,0,0,0-1.79-.54,3.21,3.21,0,0,0-1.92.44,1.31,1.31,0,0,0-.56,1.07v.36h-3a3.89,3.89,0,0,1,0-.56,3.1,3.1,0,0,1,1.49-2.73,7,7,0,0,1,4-1,6.23,6.23,0,0,1,4,1.1,3.79,3.79,0,0,1,1.34,3.14V981a.82.82,0,0,0,.26.67.92.92,0,0,0,.64.22h.81v2.09a4.37,4.37,0,0,1-1.91.39,2.77,2.77,0,0,1-1.66-.49,2.32,2.32,0,0,1-.89-1.32h-.18a5.23,5.23,0,0,1-4.29,1.83A5.54,5.54,0,0,1,1761.65,983.55Zm6.23-2.51a3.17,3.17,0,0,0,.87-2.35v-.61a12.5,12.5,0,0,0-3.88.47,1.75,1.75,0,0,0-1.4,1.72c0,1.09.68,1.63,2,1.63A3.21,3.21,0,0,0,1767.88,981Z"/><path class="cls-27" d="M1775.51,970.63H1778l.25,1.78h.18a5.19,5.19,0,0,1,1.82-1.54,5.43,5.43,0,0,1,2.49-.55,4.39,4.39,0,0,1,3.19,1.11,4.76,4.76,0,0,1,1.15,3.56v9.06h-3.06v-8.53a2.18,2.18,0,0,0-2.48-2.55,2.84,2.84,0,0,0-2.14.92,3.28,3.28,0,0,0-.87,2.35v7.81h-3.06Z"/><path class="cls-27" d="M1791.35,982.64q-1.57-1.71-1.58-5.3t1.6-5.31a6.29,6.29,0,0,1,4.83-1.71,5.6,5.6,0,0,1,4.43,1.66q1.45,1.65,1.46,5.18v.92h-9.21a4.8,4.8,0,0,0,.86,2.92,3.07,3.07,0,0,0,2.49.93,3.16,3.16,0,0,0,2.06-.65,2.36,2.36,0,0,0,.79-1.93h3a4.43,4.43,0,0,1-1.63,3.74,6.79,6.79,0,0,1-4.26,1.26A6.31,6.31,0,0,1,1791.35,982.64Zm7.55-6.73c0-2.11-.9-3.17-2.7-3.17a3.13,3.13,0,0,0-2.31.78,3.91,3.91,0,0,0-1,2.39Z"/><path class="cls-27" d="M1805.6,982.64c-1.1-1.14-1.64-2.91-1.64-5.3s.54-4.17,1.64-5.31a8,8,0,0,1,9.92,0q1.65,1.71,1.65,5.31t-1.65,5.3a8,8,0,0,1-9.92,0Zm7.59-1.85a5.37,5.37,0,0,0,.82-3.27v-.36a5.4,5.4,0,0,0-.82-3.28,3.81,3.81,0,0,0-5.27,0,5.48,5.48,0,0,0-.8,3.28v.36a5.45,5.45,0,0,0,.8,3.27,3.81,3.81,0,0,0,5.27,0Z"/><path class="cls-27" d="M1819.82,979.68v-9h3.06v8.52a2.18,2.18,0,0,0,2.48,2.55,2.84,2.84,0,0,0,2.14-.92,3.27,3.27,0,0,0,.87-2.35v-7.8h3.06v13.42h-2.53l-.25-1.79h-.18a5.09,5.09,0,0,1-1.82,1.54,5.43,5.43,0,0,1-2.49.55C1821.27,984.35,1819.82,982.8,1819.82,979.68Z"/><path class="cls-27" d="M1835.78,983.2a3.57,3.57,0,0,1-1.52-3,2.29,2.29,0,0,1,0-.31.84.84,0,0,0,0-.1h3V980a1.62,1.62,0,0,0,.85,1.46,4.13,4.13,0,0,0,2.08.47,4.47,4.47,0,0,0,1.92-.37,1.2,1.2,0,0,0,.35-2.06,3.13,3.13,0,0,0-1.07-.59c-.42-.14-1-.31-1.81-.5a22.49,22.49,0,0,1-2.59-.76,4.4,4.4,0,0,1-1.72-1.2,3.11,3.11,0,0,1-.71-2.14,3.33,3.33,0,0,1,1.58-3,7.27,7.27,0,0,1,4.1-1,7.85,7.85,0,0,1,2.79.46,4.45,4.45,0,0,1,1.9,1.29,2.9,2.9,0,0,1,.67,1.9l0,.56h-3v-.1a1.43,1.43,0,0,0-.65-1.24,3.27,3.27,0,0,0-1.87-.45,3.6,3.6,0,0,0-1.81.37,1.09,1.09,0,0,0,.14,2,12.47,12.47,0,0,0,2.3.68,20.34,20.34,0,0,1,2.72.77,4.73,4.73,0,0,1,1.8,1.24,3.25,3.25,0,0,1,.76,2.27,3.57,3.57,0,0,1-1.59,3.24,7.94,7.94,0,0,1-4.32,1A7,7,0,0,1,1835.78,983.2Z"/><path class="cls-27" d="M1848.7,965.6h3.06v18.45h-3.06Z"/><path class="cls-27" d="M1855.46,988.55l-.56-.14v-2.12h1.38a2.64,2.64,0,0,0,1.67-.52,3.43,3.43,0,0,0,1-1.72l-5.22-13.42H1857l2.52,6.45c.29.77.67,2,1.13,3.73h.12c.43-1.64.78-2.88,1-3.73l2-6.45h3.09l-4.47,12.73a12.36,12.36,0,0,1-2.11,3.95,4.14,4.14,0,0,1-3.29,1.38A7,7,0,0,1,1855.46,988.55Z"/></g><g class="cls-26"><path class="cls-27" d="M1279.88,318.87a5.81,5.81,0,0,1-2.65-1.8,4.55,4.55,0,0,1-1-3l0-.53h3.29a2.54,2.54,0,0,0,0,.46,2.26,2.26,0,0,0,1.1,2,5.51,5.51,0,0,0,3,.71,6.07,6.07,0,0,0,3-.59,1.81,1.81,0,0,0,1-1.63,1.77,1.77,0,0,0-.59-1.35,4.39,4.39,0,0,0-1.45-.86c-.58-.21-1.39-.46-2.45-.75a29.18,29.18,0,0,1-3.38-1.08,5.94,5.94,0,0,1-2.21-1.56,3.93,3.93,0,0,1-.91-2.71,4,4,0,0,1,1.93-3.59,9.39,9.39,0,0,1,5.08-1.24,8.7,8.7,0,0,1,4.91,1.27,4.25,4.25,0,0,1,1.9,3.81v.31h-3.21v-.28a2,2,0,0,0-1-1.73,5,5,0,0,0-2.64-.62,6,6,0,0,0-2.72.51,1.56,1.56,0,0,0-1,1.43,1.45,1.45,0,0,0,.56,1.16,4.29,4.29,0,0,0,1.41.76c.57.2,1.34.42,2.31.68a29.4,29.4,0,0,1,3.46,1.1,6.12,6.12,0,0,1,2.3,1.58,3.89,3.89,0,0,1,1,2.7,4.57,4.57,0,0,1-2,4.12,9.67,9.67,0,0,1-5.41,1.32A11,11,0,0,1,1279.88,318.87Z"/><path class="cls-27" d="M1293.83,314.79v-9.06h3.07v8.52a2.16,2.16,0,0,0,2.47,2.55,2.8,2.8,0,0,0,2.14-.92,3.26,3.26,0,0,0,.87-2.34v-7.81h3.06v13.42h-2.52l-.26-1.79h-.18a5.12,5.12,0,0,1-1.82,1.55,5.5,5.5,0,0,1-2.49.55Q1293.84,319.46,1293.83,314.79Z"/><path class="cls-27" d="M1313.68,318.92a4.4,4.4,0,0,1-1.73-1.56h-.16l-.25,1.79H1309V300.71h3.06v6.58h.16a4.46,4.46,0,0,1,4-1.86,4.54,4.54,0,0,1,3.75,1.76,10.6,10.6,0,0,1,0,10.53,4.81,4.81,0,0,1-4,1.74A5.22,5.22,0,0,1,1313.68,318.92Zm3.85-3.1a5.58,5.58,0,0,0,.72-3.2v-.33a5.65,5.65,0,0,0-.72-3.23,2.73,2.73,0,0,0-2.4-1q-3.06,0-3.06,4.26v.31a5.55,5.55,0,0,0,.74,3.15,2.64,2.64,0,0,0,2.32,1.06A2.73,2.73,0,0,0,1317.53,315.82Z"/><path class="cls-27" d="M1324.8,317.75q-1.53-1.71-1.53-5.31t1.55-5.31a7.27,7.27,0,0,1,8.89-.35,5.15,5.15,0,0,1,1.48,4h-3.12a3.19,3.19,0,0,0-.63-2.15,2.57,2.57,0,0,0-2-.71,2.63,2.63,0,0,0-2.33,1.08,6,6,0,0,0-.74,3.33v.31a5.74,5.74,0,0,0,.76,3.3,2.76,2.76,0,0,0,2.43,1.06,2.56,2.56,0,0,0,2-.74,3,3,0,0,0,.68-2.12h3a5.1,5.1,0,0,1-1.5,3.93,5.85,5.85,0,0,1-4.19,1.41A6,6,0,0,1,1324.8,317.75Z"/><path class="cls-27" d="M1338.62,317.75Q1337,316,1337,312.44t1.65-5.31a8.09,8.09,0,0,1,9.92,0q1.65,1.71,1.65,5.31t-1.65,5.31a8,8,0,0,1-9.92,0Zm7.59-1.85a5.4,5.4,0,0,0,.81-3.28v-.36a5.4,5.4,0,0,0-.81-3.28,3.83,3.83,0,0,0-5.27,0,5.4,5.4,0,0,0-.81,3.28v.36a5.4,5.4,0,0,0,.81,3.28,3.81,3.81,0,0,0,5.27,0Z"/><path class="cls-27" d="M1352.92,305.73h2.52l.26,1.79h.17a5.15,5.15,0,0,1,1.83-1.55,5.5,5.5,0,0,1,2.49-.54,4.37,4.37,0,0,1,3.18,1.11,4.72,4.72,0,0,1,1.15,3.55v9.06h-3.06v-8.52a2.62,2.62,0,0,0-.62-2,2.59,2.59,0,0,0-1.85-.59,2.82,2.82,0,0,0-2.15.92,3.25,3.25,0,0,0-.86,2.34v7.81h-3.06Z"/><path class="cls-27" d="M1369,318.5a3.75,3.75,0,0,1-.75-2.39v-7.88h-1.64v-2.5h1.69l.56-3.75h2.45v3.75h2.29v2.5h-2.29v7.58c0,.76.36,1.15,1.09,1.15h1.2v2.09a7.92,7.92,0,0,1-1,.28,5.93,5.93,0,0,1-1.12.13A2.93,2.93,0,0,1,1369,318.5Z"/><path class="cls-27" d="M1376,305.73h2.52l.28,2.12h.18c.61-1.62,1.62-2.42,3-2.42a3.44,3.44,0,0,1,1.28.22v2.89h-1q-3.24,0-3.24,3.62v7H1376Z"/><path class="cls-27" d="M1385.78,318.65a3.19,3.19,0,0,1-1.31-3,3.69,3.69,0,0,1,2.19-3.62,14.82,14.82,0,0,1,6.23-1.05v-1.12a2.15,2.15,0,0,0-.5-1.51,2.43,2.43,0,0,0-1.8-.53,3.18,3.18,0,0,0-1.91.43,1.3,1.3,0,0,0-.56,1.07v.36h-3a3.43,3.43,0,0,1,0-.56,3.1,3.1,0,0,1,1.5-2.73,7,7,0,0,1,4-1,6.24,6.24,0,0,1,4,1.09,3.84,3.84,0,0,1,1.34,3.14v6.4a.81.81,0,0,0,.26.68,1,1,0,0,0,.63.22h.82v2.09a4.55,4.55,0,0,1-1.91.38,2.74,2.74,0,0,1-1.66-.48,2.45,2.45,0,0,1-.9-1.33H1393a5.26,5.26,0,0,1-4.29,1.84A5.52,5.52,0,0,1,1385.78,318.65Zm6.24-2.51a3.17,3.17,0,0,0,.87-2.35v-.61a12.82,12.82,0,0,0-3.88.47,1.76,1.76,0,0,0-1.4,1.72c0,1.09.68,1.64,2,1.64A3.2,3.2,0,0,0,1392,316.14Z"/><path class="cls-27" d="M1400.34,317.75q-1.53-1.71-1.53-5.31t1.54-5.31a7.27,7.27,0,0,1,8.89-.35,5.11,5.11,0,0,1,1.48,4h-3.11a3.19,3.19,0,0,0-.64-2.15,2.57,2.57,0,0,0-2-.71,2.61,2.61,0,0,0-2.32,1.08,6,6,0,0,0-.74,3.33v.31a5.75,5.75,0,0,0,.75,3.3,2.78,2.78,0,0,0,2.44,1.06,2.53,2.53,0,0,0,2-.74,3,3,0,0,0,.68-2.12h3a5.13,5.13,0,0,1-1.49,3.93,5.89,5.89,0,0,1-4.2,1.41A6,6,0,0,1,1400.34,317.75Z"/><path class="cls-27" d="M1414.28,318.5a3.75,3.75,0,0,1-.75-2.39v-7.88h-1.64v-2.5h1.69l.56-3.75h2.45v3.75h2.29v2.5h-2.29v7.58c0,.76.36,1.15,1.09,1.15h1.2v2.09a7.92,7.92,0,0,1-1,.28,5.93,5.93,0,0,1-1.12.13A2.93,2.93,0,0,1,1414.28,318.5Z"/><path class="cls-27" d="M1422.16,317.75c-1.1-1.14-1.64-2.91-1.64-5.31s.54-4.17,1.64-5.31a8.09,8.09,0,0,1,9.92,0q1.65,1.71,1.65,5.31t-1.65,5.31a8,8,0,0,1-9.92,0Zm7.59-1.85a5.4,5.4,0,0,0,.82-3.28v-.36a5.4,5.4,0,0,0-.82-3.28,3.83,3.83,0,0,0-5.27,0,5.48,5.48,0,0,0-.8,3.28v.36a5.48,5.48,0,0,0,.8,3.28,3.81,3.81,0,0,0,5.27,0Z"/><path class="cls-27" d="M1436.46,305.73H1439l.28,2.12h.18c.62-1.62,1.62-2.42,3-2.42a3.44,3.44,0,0,1,1.28.22v2.89h-1q-3.24,0-3.24,3.62v7h-3.06Z"/><path class="cls-27" d="M1453.79,317.75q-1.63-1.71-1.64-5.31t1.64-5.31a8.1,8.1,0,0,1,9.93,0q1.63,1.71,1.64,5.31t-1.64,5.31a8.06,8.06,0,0,1-9.93,0Zm7.59-1.85a5.33,5.33,0,0,0,.82-3.28v-.36a5.33,5.33,0,0,0-.82-3.28,3.83,3.83,0,0,0-5.27,0,5.48,5.48,0,0,0-.8,3.28v.36a5.48,5.48,0,0,0,.8,3.28,3.81,3.81,0,0,0,5.27,0Z"/><path class="cls-27" d="M1468.09,305.73h2.53l.28,2.12h.18c.61-1.62,1.61-2.42,3-2.42a3.38,3.38,0,0,1,1.27.22v2.89h-1q-3.24,0-3.24,3.62v7h-3.06Z"/></g><g class="cls-26"><path class="cls-27" d="M1246.56,332.26h3.52l3.75,10.69q.24.62.69,2c.22.7.35,1.08.39,1.15h.12c.45-1.46.79-2.52,1-3.19l3.73-10.66h3.37l-6.38,17.5H1253Z"/></g><g class="cls-26"><path class="cls-27" d="M1265.45,348.36q-1.59-1.71-1.59-5.31c0-2.4.54-4.17,1.6-5.31a6.32,6.32,0,0,1,4.83-1.7,5.62,5.62,0,0,1,4.43,1.65q1.47,1.67,1.47,5.18v.92H1267a4.78,4.78,0,0,0,.85,2.92,3.7,3.7,0,0,0,4.55.28,2.32,2.32,0,0,0,.79-1.92h3a4.42,4.42,0,0,1-1.64,3.73,6.73,6.73,0,0,1-4.26,1.27A6.28,6.28,0,0,1,1265.45,348.36Zm7.55-6.74c0-2.11-.91-3.16-2.71-3.16a3.13,3.13,0,0,0-2.31.78,3.87,3.87,0,0,0-1,2.38Z"/><path class="cls-27" d="M1278.89,336.34h2.53l.25,1.79h.18a5.12,5.12,0,0,1,1.82-1.55,5.53,5.53,0,0,1,2.49-.54,4.41,4.41,0,0,1,3.19,1.11,4.78,4.78,0,0,1,1.15,3.55v9.06h-3.06v-8.52a2.18,2.18,0,0,0-2.48-2.55,2.8,2.8,0,0,0-2.14.92A3.26,3.26,0,0,0,1282,342v7.81h-3.06Z"/><path class="cls-27" d="M1294.53,348.33q-1.41-1.72-1.41-5.3a8.22,8.22,0,0,1,1.41-5.23,4.52,4.52,0,0,1,3.75-1.76,4.47,4.47,0,0,1,4,1.86h.15v-6.58h3.06v18.44H1303l-.26-1.79h-.15a4.36,4.36,0,0,1-1.74,1.56,5.16,5.16,0,0,1-2.37.54A4.78,4.78,0,0,1,1294.53,348.33Zm7.19-1.95a5.55,5.55,0,0,0,.74-3.15v-.31q0-4.26-3.06-4.26a2.75,2.75,0,0,0-2.4,1,5.66,5.66,0,0,0-.71,3.23v.33a5.59,5.59,0,0,0,.71,3.2,2.75,2.75,0,0,0,2.4,1A2.62,2.62,0,0,0,1301.72,346.38Z"/><path class="cls-27" d="M1309.9,348.36q-1.65-1.71-1.65-5.31t1.65-5.31a8.09,8.09,0,0,1,9.92,0q1.65,1.71,1.65,5.31t-1.65,5.31a8,8,0,0,1-9.92,0Zm7.59-1.85a5.4,5.4,0,0,0,.81-3.28v-.36a5.4,5.4,0,0,0-.81-3.28,3.83,3.83,0,0,0-5.27,0,5.4,5.4,0,0,0-.81,3.28v.36a5.4,5.4,0,0,0,.81,3.28,3.81,3.81,0,0,0,5.27,0Z"/><path class="cls-27" d="M1324.19,336.34h2.53l.28,2.12h.18c.61-1.62,1.61-2.42,3-2.42a3.16,3.16,0,0,1,1.27.23v2.88h-1q-3.24,0-3.24,3.62v7h-3.07Z"/><path class="cls-27" d="M1340.75,332.26h9.49a5.67,5.67,0,0,1,2.51.54,4.14,4.14,0,0,1,1.74,1.51,4.41,4.41,0,0,1-.18,4.79,4.15,4.15,0,0,1-2,1.48v.1a4.12,4.12,0,0,1,2.41,1.45,4.33,4.33,0,0,1,.93,2.81,4.39,4.39,0,0,1-1.5,3.6,5.91,5.91,0,0,1-3.86,1.22h-9.49Zm8.62,7.17a2.42,2.42,0,0,0,1.76-.61,2.06,2.06,0,0,0,.64-1.56,2.17,2.17,0,0,0-.59-1.66,2.23,2.23,0,0,0-1.6-.56H1344v4.39Zm.44,7.55a2.56,2.56,0,0,0,1.78-.6,2.32,2.32,0,0,0,.67-1.8,2.36,2.36,0,0,0-.67-1.78,2.69,2.69,0,0,0-2-.64H1344V347Z"/><path class="cls-27" d="M1359,349.26a3.18,3.18,0,0,1-1.32-3,3.68,3.68,0,0,1,2.2-3.62,14.74,14.74,0,0,1,6.22-1.05V340.5a2.1,2.1,0,0,0-.5-1.51,2.42,2.42,0,0,0-1.79-.53,3.22,3.22,0,0,0-1.92.43,1.32,1.32,0,0,0-.56,1.07v.36h-3a3.82,3.82,0,0,1,0-.56,3.1,3.1,0,0,1,1.49-2.73,7.07,7.07,0,0,1,4-1,6.23,6.23,0,0,1,4,1.09,3.81,3.81,0,0,1,1.34,3.14v6.4a.84.84,0,0,0,.26.68,1,1,0,0,0,.64.22h.81v2.09a4.52,4.52,0,0,1-1.91.38,2.76,2.76,0,0,1-1.66-.48,2.38,2.38,0,0,1-.89-1.33h-.18a5.24,5.24,0,0,1-4.29,1.84A5.46,5.46,0,0,1,1359,349.26Zm6.23-2.51a3.17,3.17,0,0,0,.87-2.35v-.61a12.82,12.82,0,0,0-3.88.47,1.76,1.76,0,0,0-1.4,1.72c0,1.09.68,1.64,2,1.64A3.17,3.17,0,0,0,1365.21,346.75Z"/><path class="cls-27" d="M1372.84,336.34h2.53l.25,1.79h.18a5.12,5.12,0,0,1,1.82-1.55,5.56,5.56,0,0,1,2.49-.54,4.39,4.39,0,0,1,3.19,1.11,4.74,4.74,0,0,1,1.15,3.55v9.06h-3.06v-8.52a2.18,2.18,0,0,0-2.48-2.55,2.8,2.8,0,0,0-2.14.92,3.26,3.26,0,0,0-.87,2.34v7.81h-3.06Z"/><path class="cls-27" d="M1387.94,331.32H1391v10.79l4.88-5.77h3.59l-4.51,5.21,4.77,8.21h-3.52l-3.19-6-2,1.94v4h-3.06Z"/></g><g class="cls-26"><path class="cls-27" d="M1412.75,332.26h4.11l6.81,17.5h-3.52l-1.43-3.8h-8l-1.4,3.8h-3.37Zm4.93,10.94-1.79-4.79c-.27-.68-.56-1.55-.87-2.6,0-.16-.09-.3-.14-.42s-.08-.24-.11-.32h-.13l-.25.79-.87,2.55-1.79,4.79Z"/><path class="cls-27" d="M1426.25,348.36q-1.53-1.71-1.53-5.31t1.54-5.31a7.27,7.27,0,0,1,8.89-.35,5.11,5.11,0,0,1,1.48,4h-3.11a3.14,3.14,0,0,0-.64-2.14,2.52,2.52,0,0,0-2-.72,2.61,2.61,0,0,0-2.32,1.08,6,6,0,0,0-.74,3.33v.31a5.75,5.75,0,0,0,.75,3.3,2.78,2.78,0,0,0,2.44,1.06,2.54,2.54,0,0,0,2-.74,3,3,0,0,0,.67-2.12h3a5.13,5.13,0,0,1-1.49,3.93,5.89,5.89,0,0,1-4.2,1.41A6,6,0,0,1,1426.25,348.36Z"/><path class="cls-27" d="M1440,348.36q-1.53-1.71-1.53-5.31t1.54-5.31a7.27,7.27,0,0,1,8.89-.35,5.11,5.11,0,0,1,1.48,4h-3.11a3.14,3.14,0,0,0-.64-2.14,2.54,2.54,0,0,0-2-.72,2.6,2.6,0,0,0-2.32,1.08,6,6,0,0,0-.74,3.33v.31a5.75,5.75,0,0,0,.75,3.3,2.77,2.77,0,0,0,2.44,1.06,2.51,2.51,0,0,0,2-.74,3,3,0,0,0,.68-2.12h3a5.13,5.13,0,0,1-1.49,3.93,5.89,5.89,0,0,1-4.2,1.41A6,6,0,0,1,1440,348.36Z"/><path class="cls-27" d="M1453.76,348.36q-1.65-1.71-1.65-5.31t1.65-5.31a8.09,8.09,0,0,1,9.92,0q1.65,1.71,1.65,5.31t-1.65,5.31a8,8,0,0,1-9.92,0Zm7.59-1.85a5.4,5.4,0,0,0,.82-3.28v-.36a5.4,5.4,0,0,0-.82-3.28,3.83,3.83,0,0,0-5.27,0,5.41,5.41,0,0,0-.8,3.28v.36a5.41,5.41,0,0,0,.8,3.28,3.81,3.81,0,0,0,5.27,0Z"/><path class="cls-27" d="M1468,345.4v-9.06H1471v8.52a2.17,2.17,0,0,0,2.48,2.55,2.8,2.8,0,0,0,2.14-.92,3.26,3.26,0,0,0,.87-2.34v-7.81h3.06v13.42h-2.53l-.25-1.79h-.18a5.12,5.12,0,0,1-1.82,1.55,5.56,5.56,0,0,1-2.49.55Q1468,350.07,1468,345.4Z"/><path class="cls-27" d="M1483.16,336.34h2.52l.26,1.79h.18a5.12,5.12,0,0,1,1.82-1.55,5.53,5.53,0,0,1,2.49-.54,4.41,4.41,0,0,1,3.19,1.11,4.78,4.78,0,0,1,1.15,3.55v9.06h-3.06v-8.52a2.18,2.18,0,0,0-2.48-2.55,2.8,2.8,0,0,0-2.14.92,3.26,3.26,0,0,0-.87,2.34v7.81h-3.06Z"/><path class="cls-27" d="M1499.19,349.11a3.75,3.75,0,0,1-.75-2.39v-7.88h-1.63v-2.5h1.68l.56-3.75h2.45v3.75h2.3v2.5h-2.3v7.58c0,.76.37,1.15,1.1,1.15h1.2v2.09a8.41,8.41,0,0,1-1,.28,6,6,0,0,1-1.13.13A2.93,2.93,0,0,1,1499.19,349.11Z"/></g><g class="cls-26"><path class="cls-27" d="M1604.35,301.65h5l3,10.43c.21.72.48,1.88.82,3.5h.13c.3-1.72.54-2.88.71-3.5l3.06-10.43H1622v17.5h-3.27v-11.3c0-.43,0-1.41.13-3h-.15c-.14.58-.31,1.22-.51,1.94l-3.6,12.32h-3L1608,306.83c-.12-.39-.24-.83-.36-1.33l-.15-.61h-.13c.07,1.53.1,2.52.1,3v11.3h-3.11Z"/><path class="cls-27" d="M1626.38,317.75q-1.65-1.71-1.65-5.31t1.65-5.31a8.09,8.09,0,0,1,9.92,0q1.65,1.71,1.65,5.31t-1.65,5.31a8,8,0,0,1-9.92,0Zm7.59-1.85a5.4,5.4,0,0,0,.81-3.28v-.36A5.4,5.4,0,0,0,1634,309a3.83,3.83,0,0,0-5.27,0,5.41,5.41,0,0,0-.8,3.28v.36a5.41,5.41,0,0,0,.8,3.28,3.81,3.81,0,0,0,5.27,0Z"/><path class="cls-27" d="M1640.68,305.73h2.52l.26,1.79h.18a5.12,5.12,0,0,1,1.82-1.55,5.5,5.5,0,0,1,2.49-.54,4.41,4.41,0,0,1,3.19,1.11,4.76,4.76,0,0,1,1.14,3.55v9.06h-3.06v-8.52a2.62,2.62,0,0,0-.62-2,2.59,2.59,0,0,0-1.85-.59,2.79,2.79,0,0,0-2.14.92,3.26,3.26,0,0,0-.87,2.34v7.81h-3.06Z"/><path class="cls-27" d="M1656.52,317.75c-1.06-1.14-1.58-2.91-1.58-5.31s.53-4.17,1.59-5.31a6.35,6.35,0,0,1,4.84-1.7,5.61,5.61,0,0,1,4.42,1.65q1.47,1.67,1.47,5.18v.92h-9.21a4.78,4.78,0,0,0,.85,2.92,3.07,3.07,0,0,0,2.49.93,3.13,3.13,0,0,0,2.07-.65,2.35,2.35,0,0,0,.79-1.92h3a4.42,4.42,0,0,1-1.64,3.73,6.74,6.74,0,0,1-4.25,1.27A6.29,6.29,0,0,1,1656.52,317.75Zm7.55-6.74c0-2.11-.9-3.16-2.7-3.16a3.13,3.13,0,0,0-2.31.78,3.87,3.87,0,0,0-1,2.38Z"/><path class="cls-27" d="M1670.12,323.65l-.57-.14V321.4h1.38a2.63,2.63,0,0,0,1.67-.53,3.39,3.39,0,0,0,1.06-1.72l-5.23-13.42h3.22l2.52,6.46c.29.76.66,2,1.12,3.72h.13q.64-2.45,1-3.72l2-6.46h3.09l-4.47,12.73a12.31,12.31,0,0,1-2.12,4,4.15,4.15,0,0,1-3.29,1.37A6.41,6.41,0,0,1,1670.12,323.65Z"/><path class="cls-27" d="M1691.29,317.72c-.94-1.15-1.4-2.92-1.4-5.3a8.22,8.22,0,0,1,1.4-5.23,4.52,4.52,0,0,1,3.75-1.76,4.47,4.47,0,0,1,4,1.86h.15v-6.58h3.06v18.44h-2.52l-.26-1.79h-.15a4.4,4.4,0,0,1-1.73,1.56,5.24,5.24,0,0,1-2.38.54A4.78,4.78,0,0,1,1691.29,317.72Zm7.19-2a5.47,5.47,0,0,0,.74-3.15v-.31q0-4.26-3.06-4.26a2.75,2.75,0,0,0-2.4,1,5.74,5.74,0,0,0-.71,3.23v.33a5.68,5.68,0,0,0,.71,3.2,2.75,2.75,0,0,0,2.4,1A2.62,2.62,0,0,0,1698.48,315.77Z"/><path class="cls-27" d="M1706.59,317.75Q1705,316,1705,312.44t1.6-5.31a6.32,6.32,0,0,1,4.83-1.7,5.63,5.63,0,0,1,4.43,1.65c1,1.11,1.46,2.84,1.46,5.18v.92h-9.21a4.85,4.85,0,0,0,.86,2.92,3.7,3.7,0,0,0,4.55.28,2.32,2.32,0,0,0,.79-1.92h3a4.41,4.41,0,0,1-1.63,3.73,6.79,6.79,0,0,1-4.26,1.27A6.31,6.31,0,0,1,1706.59,317.75Zm7.56-6.74c0-2.11-.91-3.16-2.71-3.16a3.13,3.13,0,0,0-2.31.78,3.81,3.81,0,0,0-1,2.38Z"/><path class="cls-27" d="M1720,305.73h2.52l.26,1.79h.15a4.36,4.36,0,0,1,1.74-1.56,5.16,5.16,0,0,1,2.37-.53,4.77,4.77,0,0,1,4,1.73,10.55,10.55,0,0,1,0,10.54,4.55,4.55,0,0,1-3.75,1.76,4.45,4.45,0,0,1-4-1.87h-.15v6H1720Zm8.52,10.09a5.68,5.68,0,0,0,.71-3.2v-.33a5.74,5.74,0,0,0-.71-3.23,2.75,2.75,0,0,0-2.4-1,2.63,2.63,0,0,0-2.32,1.07,5.62,5.62,0,0,0-.74,3.17v.3a5.62,5.62,0,0,0,.74,3.17,2.63,2.63,0,0,0,2.32,1.07A2.75,2.75,0,0,0,1728.56,315.82Z"/><path class="cls-27" d="M1735.94,317.75q-1.64-1.71-1.64-5.31t1.64-5.31a8.1,8.1,0,0,1,9.93,0q1.64,1.71,1.64,5.31t-1.64,5.31a8.06,8.06,0,0,1-9.93,0Zm7.59-1.85a5.33,5.33,0,0,0,.82-3.28v-.36a5.33,5.33,0,0,0-.82-3.28,3.83,3.83,0,0,0-5.27,0,5.48,5.48,0,0,0-.8,3.28v.36a5.48,5.48,0,0,0,.8,3.28,3.81,3.81,0,0,0,5.27,0Z"/><path class="cls-27" d="M1751,318.31a3.59,3.59,0,0,1-1.52-3c0-.15,0-.25,0-.3l0-.1h3v.2a1.64,1.64,0,0,0,.86,1.47,4.18,4.18,0,0,0,2.08.47,4.46,4.46,0,0,0,1.91-.37,1.19,1.19,0,0,0,.79-1.11,1.21,1.21,0,0,0-.43-1,3.47,3.47,0,0,0-1.08-.59c-.42-.14-1-.3-1.81-.49a22.88,22.88,0,0,1-2.59-.77,4.2,4.2,0,0,1-1.72-1.2,3.14,3.14,0,0,1-.71-2.14,3.33,3.33,0,0,1,1.58-3,7.28,7.28,0,0,1,4.11-1,8.07,8.07,0,0,1,2.78.45,4.45,4.45,0,0,1,1.9,1.29,2.94,2.94,0,0,1,.67,1.9l0,.56h-3v-.1a1.39,1.39,0,0,0-.65-1.23,3.27,3.27,0,0,0-1.87-.45,3.52,3.52,0,0,0-1.81.37,1.1,1.1,0,0,0-.62,1,1.13,1.13,0,0,0,.76,1.05,11.65,11.65,0,0,0,2.31.68,20.4,20.4,0,0,1,2.71.78,4.52,4.52,0,0,1,1.8,1.24,3.23,3.23,0,0,1,.77,2.27,3.55,3.55,0,0,1-1.6,3.24,7.94,7.94,0,0,1-4.32,1A7,7,0,0,1,1751,318.31Z"/><path class="cls-27" d="M1763.94,300.71h3v3h-3Zm0,5H1767v13.42h-3.06Z"/><path class="cls-27" d="M1771.48,318.5a3.75,3.75,0,0,1-.75-2.39v-7.88h-1.64v-2.5h1.69l.56-3.75h2.45v3.75h2.29v2.5h-2.29v7.58c0,.76.36,1.15,1.09,1.15h1.2v2.09a7.92,7.92,0,0,1-1,.28,5.93,5.93,0,0,1-1.12.13A2.93,2.93,0,0,1,1771.48,318.5Z"/><path class="cls-27" d="M1779.3,317.75q-1.59-1.71-1.59-5.31c0-2.4.54-4.17,1.6-5.31a6.32,6.32,0,0,1,4.83-1.7,5.62,5.62,0,0,1,4.43,1.65q1.47,1.67,1.47,5.18v.92h-9.21a4.78,4.78,0,0,0,.85,2.92,3.07,3.07,0,0,0,2.49.93,3.13,3.13,0,0,0,2.07-.65,2.35,2.35,0,0,0,.79-1.92h3a4.42,4.42,0,0,1-1.64,3.73,6.75,6.75,0,0,1-4.26,1.27A6.28,6.28,0,0,1,1779.3,317.75Zm7.55-6.74c0-2.11-.9-3.16-2.71-3.16a3.09,3.09,0,0,0-2.3.78,3.87,3.87,0,0,0-1,2.38Z"/><path class="cls-27" d="M1793.28,317.72q-1.41-1.73-1.41-5.3a8.22,8.22,0,0,1,1.41-5.23,4.52,4.52,0,0,1,3.75-1.76,4.47,4.47,0,0,1,4,1.86h.15v-6.58h3.06v18.44h-2.52l-.26-1.79h-.15a4.43,4.43,0,0,1-1.74,1.56,5.16,5.16,0,0,1-2.37.54A4.78,4.78,0,0,1,1793.28,317.72Zm7.19-2a5.55,5.55,0,0,0,.74-3.15v-.31q0-4.26-3.06-4.26a2.75,2.75,0,0,0-2.4,1,5.66,5.66,0,0,0-.71,3.23v.33a5.59,5.59,0,0,0,.71,3.2,2.75,2.75,0,0,0,2.4,1A2.62,2.62,0,0,0,1800.47,315.77Z"/></g><g class="cls-26"><path class="cls-27" d="M1649,348.92a3.58,3.58,0,0,1-1.51-3,2.12,2.12,0,0,1,0-.3.51.51,0,0,0,0-.1h3v.2a1.63,1.63,0,0,0,.85,1.47,4.21,4.21,0,0,0,2.08.47,4.4,4.4,0,0,0,1.91-.37,1.19,1.19,0,0,0,.79-1.11,1.21,1.21,0,0,0-.43-1,3.32,3.32,0,0,0-1.07-.58c-.43-.15-1-.31-1.81-.5a21.68,21.68,0,0,1-2.59-.77,4.13,4.13,0,0,1-1.72-1.2,3.1,3.1,0,0,1-.72-2.14,3.37,3.37,0,0,1,1.58-3,7.33,7.33,0,0,1,4.11-1,8,8,0,0,1,2.78.45,4.39,4.39,0,0,1,1.9,1.29,3,3,0,0,1,.68,1.9l0,.56h-3v-.1a1.41,1.41,0,0,0-.65-1.23,3.31,3.31,0,0,0-1.88-.45,3.52,3.52,0,0,0-1.81.37,1.1,1.1,0,0,0-.61,1,1.12,1.12,0,0,0,.75,1,11.65,11.65,0,0,0,2.31.68,20.61,20.61,0,0,1,2.72.78,4.59,4.59,0,0,1,1.8,1.24,3.23,3.23,0,0,1,.76,2.27,3.57,3.57,0,0,1-1.59,3.24,8,8,0,0,1-4.33,1A7.05,7.05,0,0,1,1649,348.92Z"/><path class="cls-27" d="M1662.23,349.26a3.19,3.19,0,0,1-1.31-3,3.69,3.69,0,0,1,2.19-3.62,14.82,14.82,0,0,1,6.23-1.05V340.5a2.15,2.15,0,0,0-.5-1.51,2.43,2.43,0,0,0-1.8-.53,3.18,3.18,0,0,0-1.91.43,1.3,1.3,0,0,0-.56,1.07v.36h-3a3.43,3.43,0,0,1,0-.56,3.1,3.1,0,0,1,1.5-2.73,7,7,0,0,1,4-1,6.24,6.24,0,0,1,4,1.09,3.84,3.84,0,0,1,1.34,3.14v6.4a.83.83,0,0,0,.25.68,1,1,0,0,0,.64.22h.82v2.09a4.55,4.55,0,0,1-1.91.38,2.74,2.74,0,0,1-1.66-.48,2.4,2.4,0,0,1-.9-1.33h-.18a5.23,5.23,0,0,1-4.28,1.84A5.52,5.52,0,0,1,1662.23,349.26Zm6.24-2.51a3.17,3.17,0,0,0,.87-2.35v-.61a12.82,12.82,0,0,0-3.88.47,1.75,1.75,0,0,0-1.4,1.72c0,1.09.68,1.64,2,1.64A3.2,3.2,0,0,0,1668.47,346.75Z"/><path class="cls-27" d="M1676.1,336.34h2.52l.26,1.79h.18a4.88,4.88,0,0,1,1.64-1.53A4.43,4.43,0,0,1,1683,336a3.44,3.44,0,0,1,3.49,2.09h.21a4.92,4.92,0,0,1,1.71-1.52,4.75,4.75,0,0,1,2.32-.57,4.11,4.11,0,0,1,3,1.07,4.61,4.61,0,0,1,1.1,3.42v9.23h-3.06v-8.62c0-1.63-.71-2.45-2.12-2.45a2.31,2.31,0,0,0-1.88.92A3.57,3.57,0,0,0,1687,342v7.81h-3.06v-8.62c0-1.63-.71-2.45-2.12-2.45a2.35,2.35,0,0,0-1.89.92,3.52,3.52,0,0,0-.76,2.34v7.81h-3.06Z"/><path class="cls-27" d="M1699,348.36q-1.58-1.71-1.58-5.31t1.59-5.31a6.36,6.36,0,0,1,4.84-1.7,5.6,5.6,0,0,1,4.42,1.65q1.47,1.67,1.47,5.18v.92h-9.21a4.78,4.78,0,0,0,.86,2.92,3,3,0,0,0,2.48.93A3.13,3.13,0,0,0,1706,347a2.32,2.32,0,0,0,.79-1.92h3a4.41,4.41,0,0,1-1.63,3.73,6.73,6.73,0,0,1-4.26,1.27A6.29,6.29,0,0,1,1699,348.36Zm7.55-6.74c0-2.11-.9-3.16-2.7-3.16a3.13,3.13,0,0,0-2.31.78,3.87,3.87,0,0,0-1,2.38Z"/><path class="cls-27" d="M1711.74,341.44h6.4v2.86h-6.4Z"/><path class="cls-27" d="M1721.5,348.33a10.6,10.6,0,0,1,0-10.53,4.54,4.54,0,0,1,3.75-1.76,4.47,4.47,0,0,1,4,1.86h.15v-6.58h3.06v18.44H1730l-.25-1.79h-.15a4.43,4.43,0,0,1-1.74,1.56,5.16,5.16,0,0,1-2.37.54A4.81,4.81,0,0,1,1721.5,348.33Zm7.2-1.95a5.55,5.55,0,0,0,.74-3.15v-.31q0-4.26-3.06-4.26a2.74,2.74,0,0,0-2.4,1,5.66,5.66,0,0,0-.71,3.23v.33a5.59,5.59,0,0,0,.71,3.2,2.74,2.74,0,0,0,2.4,1A2.62,2.62,0,0,0,1728.7,346.38Z"/><path class="cls-27" d="M1736.39,349.26a3.17,3.17,0,0,1-1.31-3,3.69,3.69,0,0,1,2.19-3.62,14.77,14.77,0,0,1,6.22-1.05V340.5A2.15,2.15,0,0,0,1743,339a2.43,2.43,0,0,0-1.8-.53,3.18,3.18,0,0,0-1.91.43,1.31,1.31,0,0,0-.57,1.07v.36h-3c0-.1,0-.29,0-.56a3.12,3.12,0,0,1,1.49-2.73,7.1,7.1,0,0,1,4-1,6.28,6.28,0,0,1,4,1.09,3.84,3.84,0,0,1,1.34,3.14v6.4a.83.83,0,0,0,.25.68,1,1,0,0,0,.64.22h.81v2.09a4.52,4.52,0,0,1-1.91.38,2.78,2.78,0,0,1-1.66-.48,2.38,2.38,0,0,1-.89-1.33h-.18a5.23,5.23,0,0,1-4.28,1.84A5.52,5.52,0,0,1,1736.39,349.26Zm6.24-2.51a3.16,3.16,0,0,0,.86-2.35v-.61a12.7,12.7,0,0,0-3.87.47,1.76,1.76,0,0,0-1.41,1.72c0,1.09.68,1.64,2,1.64A3.21,3.21,0,0,0,1742.63,346.75Z"/><path class="cls-27" d="M1750.41,354.26l-.56-.14V352h1.37a2.63,2.63,0,0,0,1.67-.53,3.33,3.33,0,0,0,1.06-1.72l-5.23-13.42h3.22l2.52,6.46c.29.76.67,2,1.13,3.72h.12q.64-2.44,1-3.72l2-6.46h3.09l-4.47,12.73a12.51,12.51,0,0,1-2.11,4,4.17,4.17,0,0,1-3.3,1.37A6.41,6.41,0,0,1,1750.41,354.26Z"/></g><rect class="cls-15" x="161.32" y="492.1" width="66.67" height="94.52"/><circle class="cls-15" cx="194.66" cy="492.1" r="10.1"/><circle class="cls-20" cx="194.66" cy="492.1" r="4.78"/><rect class="cls-21" x="171.85" y="509.04" width="45.62" height="6.11"/><rect class="cls-21" x="171.85" y="521.97" width="45.63" height="6.11"/><line class="cls-22" x1="174.73" y1="574.39" x2="174.73" y2="574.39"/><line class="cls-23" x1="188.02" y1="574.39" x2="207.95" y2="574.39"/><line class="cls-22" x1="214.59" y1="574.39" x2="214.59" y2="574.39"/><path class="cls-14" d="M174.73,566.54c8,1.78,17.56,1.2,21.61-6.27,1-1.9,1.58-4.38.66-6.42a4,4,0,0,0-5.5-2.13c-3.68,2.08-3.26,7.19-.71,9.92a8.74,8.74,0,0,0,11.74.52c1.51-1.23,2.94-3.36,2.58-5.43-.5-2.8-3.51-1.27-4,.74-1.17,4.64,4.49,7.2,8.24,6.34a8.43,8.43,0,0,0,5.25-3.61"/><path class="cls-14" d="M144.69,589.43A98.73,98.73,0,0,1,44.57,542.05V542a98.52,98.52,0,1,1,182.16-66"/><path class="cls-11" d="M104.57,578v9.37A98.19,98.19,0,0,1,64,565.68a100.46,100.46,0,0,1-8.81-8.94H70.75Z"/><path class="cls-15" d="M151.22,518.85H137.86V541a15.74,15.74,0,0,1-15.74,15.74H104.57V578l-33.86-21.3H55.22A99.41,99.41,0,0,1,44.61,542V542a98.78,98.78,0,0,1-10.39-74.79h103.6V481Z"/><path class="cls-24" d="M137.86,467.16v0Z"/><path class="cls-11" d="M137.82,467.16H34.22a98.41,98.41,0,0,1,32.6-51h0a55.05,55.05,0,0,1,71,51Z"/><path class="cls-14" d="M54.36,441A39,39,0,0,1,119,445.05"/><line class="cls-14" x1="156.82" y1="467.16" x2="137.86" y2="467.16"/><path class="cls-14" d="M66.79,416.12h0A98.57,98.57,0,0,0,44.52,542V542a99,99,0,0,0,60,45.37"/><text class="cls-25" transform="translate(82.73 626.13)">General</text><text class="cls-25" transform="translate(66.25 656.74)">Contractor</text><rect class="cls-15" x="1094.93" y="543.22" width="24.01" height="12.96"/><path class="cls-14" d="M1076.27,572.81A98.25,98.25,0,1,1,1116,515.57"/><rect class="cls-15" x="1065.48" y="509.19" width="24.01" height="12.96"/><rect class="cls-15" x="1050.76" y="526.2" width="24.01" height="12.96"/><rect class="cls-15" x="1080.2" y="526.2" width="24.01" height="12.96"/><rect class="cls-15" x="1036.03" y="543.22" width="24.01" height="12.96"/><rect class="cls-15" x="1065.48" y="543.22" width="24.01" height="12.96"/><path class="cls-15" d="M1042.46,510.89h-10.07l-2.25,23.56a14.6,14.6,0,0,1-14.54,13.23H989.25v10.8H962.79c8.42-28.65,5-47.51-3-55.51h0A7,7,0,0,0,949,494.09h0c-5.44-7.5-4.6-17.37-.27-20.2,5.7-3.72,12.6,3.5,18,3.5s5-8.65,5-15.76H1032v26.49Z"/><path class="cls-15" d="M989.25,558.48v26.69A98,98,0,0,1,959.34,569q2-5.4,3.45-10.44Z"/><path class="cls-11" d="M1046,461.62H971.69a37.14,37.14,0,0,1,37.14-37.14h0a23.56,23.56,0,0,1,2.38.08A37.13,37.13,0,0,1,1046,461.62Z"/><path class="cls-11" d="M1011.21,424.56c-.79,0-1.58-.08-2.38-.08a37.14,37.14,0,0,0-37.14,37.14h0c0,7.11.37,15.76-5,15.76s-12.26-7.22-18-3.5c-4.33,2.83-5.17,12.7.27,20.2A7,7,0,0,0,959.79,503c7.94,8,11.38,26.86,3,55.51q-1.47,5-3.45,10.44c-1.49-1.18-3-2.4-4.38-3.68a98.45,98.45,0,0,1,6.5-152.5,51.06,51.06,0,0,1,49.75,11.82Z"/><path class="cls-15" d="M961.42,498.51a6.93,6.93,0,0,1-1.59,4.45h0a7,7,0,1,1,1.59-4.46Z"/><g class="cls-26"><path class="cls-27" d="M940.71,626a5.89,5.89,0,0,1-2.66-1.8,4.55,4.55,0,0,1-1-3l0-.54h3.29c0,.1,0,.26,0,.46a2.25,2.25,0,0,0,1.09,2,5.49,5.49,0,0,0,3,.71,6.13,6.13,0,0,0,3-.58,1.83,1.83,0,0,0,1-1.64,1.77,1.77,0,0,0-.59-1.35,4.26,4.26,0,0,0-1.46-.85c-.57-.21-1.39-.47-2.44-.76a28,28,0,0,1-3.38-1.08,6,6,0,0,1-2.21-1.55,4,4,0,0,1-.92-2.72,4,4,0,0,1,1.94-3.59,9.34,9.34,0,0,1,5.08-1.23,8.75,8.75,0,0,1,4.91,1.26,4.28,4.28,0,0,1,1.9,3.81v.31H948.1v-.28a1.92,1.92,0,0,0-1-1.72,4.82,4.82,0,0,0-2.64-.63,6,6,0,0,0-2.72.51,1.58,1.58,0,0,0-1,1.43,1.46,1.46,0,0,0,.56,1.16,4.46,4.46,0,0,0,1.42.77c.57.19,1.34.42,2.31.67a31.15,31.15,0,0,1,3.45,1.1,6.15,6.15,0,0,1,2.3,1.58,3.85,3.85,0,0,1,1,2.7,4.58,4.58,0,0,1-2,4.12,9.69,9.69,0,0,1-5.41,1.32A10.91,10.91,0,0,1,940.71,626Z"/><path class="cls-27" d="M954.66,621.89v-9.06h3.06v8.53a2.18,2.18,0,0,0,2.47,2.55,2.84,2.84,0,0,0,2.15-.92,3.29,3.29,0,0,0,.86-2.35v-7.81h3.07v13.42h-2.53l-.25-1.78h-.18a5.12,5.12,0,0,1-1.83,1.54,5.36,5.36,0,0,1-2.48.55C956.1,626.56,954.66,625,954.66,621.89Z"/><path class="cls-27" d="M974.51,626a4.26,4.26,0,0,1-1.74-1.55h-.15l-.26,1.78h-2.52V607.81h3.06v6.58h.15a4.47,4.47,0,0,1,4-1.86,4.55,4.55,0,0,1,3.75,1.76,8.24,8.24,0,0,1,1.4,5.23c0,2.38-.46,4.15-1.4,5.3a4.78,4.78,0,0,1-4,1.74A5.16,5.16,0,0,1,974.51,626Zm3.85-3.1a5.65,5.65,0,0,0,.71-3.2v-.33a5.77,5.77,0,0,0-.71-3.23,2.75,2.75,0,0,0-2.4-1q-3.06,0-3.06,4.26v.3a5.51,5.51,0,0,0,.74,3.15,2.61,2.61,0,0,0,2.32,1.06A2.73,2.73,0,0,0,978.36,622.92Z"/><path class="cls-27" d="M985.63,624.85q-1.53-1.71-1.53-5.31t1.54-5.3a7.25,7.25,0,0,1,8.89-.36,5.11,5.11,0,0,1,1.48,4H992.9a3.09,3.09,0,0,0-.64-2.14,2.52,2.52,0,0,0-2-.72,2.6,2.6,0,0,0-2.32,1.09,6,6,0,0,0-.74,3.33v.3A5.8,5.8,0,0,0,988,623a2.8,2.8,0,0,0,2.44,1.05,2.54,2.54,0,0,0,2-.74,3,3,0,0,0,.67-2.11h3a5.16,5.16,0,0,1-1.49,3.93,7.15,7.15,0,0,1-8.89-.31Z"/><path class="cls-27" d="M999.44,624.85c-1.1-1.14-1.64-2.91-1.64-5.31s.54-4.16,1.64-5.3a8,8,0,0,1,9.92,0q1.65,1.71,1.65,5.3t-1.65,5.31a8,8,0,0,1-9.92,0ZM1007,623a5.4,5.4,0,0,0,.82-3.28v-.35a5.38,5.38,0,0,0-.82-3.28,3.81,3.81,0,0,0-5.27,0,5.46,5.46,0,0,0-.8,3.28v.35a5.48,5.48,0,0,0,.8,3.28,3.81,3.81,0,0,0,5.27,0Z"/><path class="cls-27" d="M1013.74,612.83h2.53l.25,1.79h.18a5.09,5.09,0,0,1,1.82-1.54,5.4,5.4,0,0,1,2.49-.55,4.41,4.41,0,0,1,3.19,1.11,4.79,4.79,0,0,1,1.15,3.56v9h-3.06v-8.52a2.58,2.58,0,0,0-.63-2,2.62,2.62,0,0,0-1.85-.59,2.84,2.84,0,0,0-2.14.92,3.27,3.27,0,0,0-.87,2.35v7.8h-3.06Z"/><path class="cls-27" d="M1029.77,625.6a3.74,3.74,0,0,1-.75-2.38v-7.89h-1.63v-2.5h1.68l.56-3.75h2.45v3.75h2.3v2.5h-2.3v7.58c0,.77.37,1.15,1.1,1.15h1.2v2.09a6.9,6.9,0,0,1-1,.28,5.3,5.3,0,0,1-1.13.13A2.93,2.93,0,0,1,1029.77,625.6Z"/><path class="cls-27" d="M1036.85,612.83h2.53l.28,2.12h.18c.61-1.61,1.61-2.42,3-2.42a3.38,3.38,0,0,1,1.27.23v2.88h-1q-3.24,0-3.24,3.62v7h-3.06Z"/><path class="cls-27" d="M1046.61,625.76a3.2,3.2,0,0,1-1.31-3,3.7,3.7,0,0,1,2.19-3.62,14.79,14.79,0,0,1,6.22-1V617a2.12,2.12,0,0,0-.49-1.5,2.42,2.42,0,0,0-1.8-.54,3.23,3.23,0,0,0-1.92.44,1.3,1.3,0,0,0-.56,1.07v.35h-3c0-.1,0-.28,0-.56a3.14,3.14,0,0,1,1.49-2.73,7.1,7.1,0,0,1,4-1,6.28,6.28,0,0,1,4,1.09,3.85,3.85,0,0,1,1.34,3.14v6.41a.83.83,0,0,0,.25.67.92.92,0,0,0,.64.22h.81v2.09a4.37,4.37,0,0,1-1.91.38,2.76,2.76,0,0,1-1.66-.48,2.35,2.35,0,0,1-.89-1.33h-.18a5.2,5.2,0,0,1-4.28,1.84A5.58,5.58,0,0,1,1046.61,625.76Zm6.24-2.52a3.2,3.2,0,0,0,.86-2.34v-.62a12.35,12.35,0,0,0-3.87.48,1.75,1.75,0,0,0-1.41,1.72c0,1.09.68,1.63,2,1.63A3.21,3.21,0,0,0,1052.85,623.24Z"/><path class="cls-27" d="M1061.16,624.85q-1.53-1.71-1.53-5.31t1.55-5.3a6,6,0,0,1,4.68-1.71,6,6,0,0,1,4.21,1.35,5.14,5.14,0,0,1,1.47,4h-3.11a3.09,3.09,0,0,0-.64-2.14,2.5,2.5,0,0,0-2-.72,2.62,2.62,0,0,0-2.33,1.09,6,6,0,0,0-.74,3.33v.3a5.72,5.72,0,0,0,.76,3.31,2.78,2.78,0,0,0,2.43,1.05,2.52,2.52,0,0,0,2-.74,3,3,0,0,0,.68-2.11h3a5.13,5.13,0,0,1-1.49,3.93,5.89,5.89,0,0,1-4.19,1.4A6,6,0,0,1,1061.16,624.85Z"/><path class="cls-27" d="M1075.1,625.6a3.74,3.74,0,0,1-.75-2.38v-7.89h-1.63v-2.5h1.68l.56-3.75h2.45v3.75h2.3v2.5h-2.3v7.58c0,.77.37,1.15,1.1,1.15h1.2v2.09a6.57,6.57,0,0,1-1,.28,5.28,5.28,0,0,1-1.12.13A3,3,0,0,1,1075.1,625.6Z"/><path class="cls-27" d="M1083,624.85q-1.65-1.71-1.65-5.31t1.65-5.3a8,8,0,0,1,9.92,0c1.1,1.14,1.64,2.91,1.64,5.3s-.54,4.17-1.64,5.31a8,8,0,0,1-9.92,0Zm7.58-1.85a5.33,5.33,0,0,0,.82-3.28v-.35a5.31,5.31,0,0,0-.82-3.28,3.79,3.79,0,0,0-5.26,0,5.38,5.38,0,0,0-.81,3.28v.35a5.4,5.4,0,0,0,.81,3.28,3.79,3.79,0,0,0,5.26,0Z"/><path class="cls-27" d="M1097.28,612.83h2.53l.28,2.12h.18c.61-1.61,1.61-2.42,3-2.42a3.38,3.38,0,0,1,1.27.23v2.88h-1q-3.24,0-3.24,3.62v7h-3.06Z"/></g><g class="cls-26"><path class="cls-27" d="M964.46,655.46q-1.63-1.71-1.64-5.31t1.64-5.3a8.06,8.06,0,0,1,9.93,0q1.64,1.71,1.64,5.3t-1.64,5.31a8.06,8.06,0,0,1-9.93,0Zm7.59-1.85a5.31,5.31,0,0,0,.82-3.28V650a5.31,5.31,0,0,0-.82-3.28,3.79,3.79,0,0,0-5.26,0A5.38,5.38,0,0,0,966,650v.35a5.38,5.38,0,0,0,.81,3.28,3.79,3.79,0,0,0,5.26,0Z"/><path class="cls-27" d="M978.76,643.45h2.53l.28,2.11h.18c.61-1.61,1.61-2.42,3-2.42a3.38,3.38,0,0,1,1.27.23v2.88h-1q-3.24,0-3.24,3.62v7h-3.06Z"/></g><g class="cls-26"><path class="cls-27" d="M993.71,639.36h3.52l3.75,10.69c.15.41.38,1.08.69,2,.22.69.35,1.08.38,1.15h.13c.44-1.47.78-2.53,1-3.19l3.72-10.67h3.37l-6.38,17.5h-3.8Z"/></g><g class="cls-26"><path class="cls-27" d="M1012.59,655.46q-1.58-1.71-1.58-5.31t1.59-5.3a6.33,6.33,0,0,1,4.84-1.71,5.57,5.57,0,0,1,4.42,1.66q1.47,1.65,1.47,5.18v.91h-9.21a4.78,4.78,0,0,0,.86,2.92,3,3,0,0,0,2.48.94,3.18,3.18,0,0,0,2.07-.65,2.36,2.36,0,0,0,.79-1.93h3a4.44,4.44,0,0,1-1.63,3.74,6.79,6.79,0,0,1-4.26,1.26A6.29,6.29,0,0,1,1012.59,655.46Zm7.55-6.73c0-2.11-.9-3.17-2.7-3.17a3.13,3.13,0,0,0-2.31.78,3.88,3.88,0,0,0-1,2.39Z"/><path class="cls-27" d="M1026,643.45h2.53l.26,1.78h.17a5.12,5.12,0,0,1,1.83-1.54,5.36,5.36,0,0,1,2.48-.55,4.38,4.38,0,0,1,3.19,1.11,4.75,4.75,0,0,1,1.15,3.56v9.05h-3.06v-8.52a2.17,2.17,0,0,0-2.47-2.55,2.86,2.86,0,0,0-2.15.92,3.28,3.28,0,0,0-.86,2.35v7.8H1026Z"/><path class="cls-27" d="M1041.67,655.43a10.6,10.6,0,0,1,0-10.53,4.57,4.57,0,0,1,3.75-1.76,4.46,4.46,0,0,1,4,1.86h.16v-6.58h3.06v18.44h-2.53l-.25-1.78h-.16a4.3,4.3,0,0,1-1.73,1.55,5.22,5.22,0,0,1-2.37.54A4.8,4.8,0,0,1,1041.67,655.43Zm7.2-1.95a5.51,5.51,0,0,0,.74-3.15V650q0-4.26-3.07-4.26a2.72,2.72,0,0,0-2.39,1,5.67,5.67,0,0,0-.72,3.23v.33a5.56,5.56,0,0,0,.72,3.2,2.7,2.7,0,0,0,2.39,1A2.64,2.64,0,0,0,1048.87,653.48Z"/><path class="cls-27" d="M1057,655.46c-1.1-1.14-1.64-2.91-1.64-5.31s.54-4.16,1.64-5.3a8,8,0,0,1,9.92,0q1.65,1.71,1.65,5.3t-1.65,5.31a8,8,0,0,1-9.92,0Zm7.59-1.85a5.38,5.38,0,0,0,.82-3.28V650a5.38,5.38,0,0,0-.82-3.28,3.81,3.81,0,0,0-5.27,0,5.46,5.46,0,0,0-.8,3.28v.35a5.46,5.46,0,0,0,.8,3.28,3.81,3.81,0,0,0,5.27,0Z"/><path class="cls-27" d="M1071.34,643.45h2.52l.29,2.11h.17c.62-1.61,1.62-2.42,3-2.42a3.4,3.4,0,0,1,1.28.23v2.88h-1q-3.24,0-3.24,3.62v7h-3.06Z"/></g><text class="cls-28" transform="translate(470.38 750.45)">Create lien waivers</text><text class="cls-28" transform="translate(470.38 774.41)">in bulk</text><text class="cls-28" transform="translate(470.38 831.45)">Decide who to pay</text><text class="cls-28" transform="translate(470.38 855.41)">via Built Pay</text><text class="cls-28" transform="translate(470.38 912.75)">Send lien waivers</text><text class="cls-28" transform="translate(470.38 936.71)">electronically</text></svg>