<?xml version="1.0" encoding="utf-8"?>
<!-- Generator: Adobe Illustrator 25.0.0, SVG Export Plug-In . SVG Version: 6.00 Build 0)  -->
<svg version="1.1" id="Layer_1" xmlns="http://www.w3.org/2000/svg" xmlns:xlink="http://www.w3.org/1999/xlink" x="0px" y="0px"
	 viewBox="0 0 300.7 66.1" style="enable-background:new 0 0 300.7 66.1;" xml:space="preserve">
<style type="text/css">
	.st0{fill-rule:evenodd;clip-rule:evenodd;fill:#303030;}
</style>
<g>
	<g>
		<path class="st0" d="M17.5,61.4c0.1,0.1,0.2,0.2,0.7,0.2h2.6c0.5,0,0.6-0.1,0.7-0.2c0.2-0.1,0.4-0.6,0.4-3.6c0-3-0.2-3.5-0.4-3.6
			c-0.1-0.1-0.2-0.2-0.7-0.2h-2.6c-0.5,0-0.6,0.1-0.7,0.2c-0.2,0.1-0.4,0.6-0.4,3.6C17.1,60.8,17.3,61.3,17.5,61.4z M21.1,52.6
			c1,0,1.4,0.1,1.7,0.4c0.6,0.5,0.9,1.3,0.9,4.8c0,3.5-0.4,4.3-0.9,4.8C22.4,62.9,22,63,21.1,63h-3c-1,0-1.4-0.1-1.7-0.4
			c-0.6-0.5-0.9-1.3-0.9-4.8c0-3.5,0.4-4.3,0.9-4.8c0.3-0.3,0.7-0.4,1.7-0.4H21.1z M124.9,4.9c0.1,0,0.2,0,0.2,0c0.1,0,0.1,0,0.2,0
			c0.1,0,0.1-0.1,0.1-0.1c0-0.1,0.1-0.1,0.1-0.2c0-0.1,0-0.1,0-0.2c0,0-0.1-0.1-0.1-0.1c0,0-0.1,0-0.2-0.1c-0.1,0-0.1,0-0.2,0h-0.5
			v0.7L124.9,4.9L124.9,4.9z M125.1,3.9c0.3,0,0.5,0.1,0.6,0.2c0.1,0.1,0.2,0.3,0.2,0.5c0,0.2-0.1,0.4-0.2,0.5
			c-0.1,0.1-0.3,0.2-0.4,0.2l0.7,1h-0.4l-0.6-1h-0.4v1h-0.4V3.9L125.1,3.9L125.1,3.9z M123.4,5.7c0.1,0.2,0.2,0.4,0.3,0.5
			c0.1,0.2,0.3,0.3,0.5,0.4c0.2,0.1,0.4,0.1,0.7,0.1c0.2,0,0.4,0,0.6-0.1c0.2-0.1,0.4-0.2,0.5-0.4c0.1-0.2,0.3-0.3,0.3-0.5
			c0.1-0.2,0.1-0.4,0.1-0.7c0-0.2,0-0.5-0.1-0.7c-0.1-0.2-0.2-0.4-0.3-0.5c-0.1-0.2-0.3-0.3-0.5-0.4c-0.2-0.1-0.4-0.1-0.6-0.1
			c-0.2,0-0.5,0-0.7,0.1c-0.2,0.1-0.4,0.2-0.5,0.4c-0.1,0.2-0.3,0.3-0.3,0.5c-0.1,0.2-0.1,0.4-0.1,0.7
			C123.3,5.2,123.4,5.5,123.4,5.7z M123.1,4.2c0.1-0.2,0.3-0.4,0.4-0.6c0.2-0.2,0.4-0.3,0.6-0.4c0.2-0.1,0.5-0.2,0.8-0.2
			s0.5,0.1,0.8,0.2c0.2,0.1,0.5,0.2,0.6,0.4c0.2,0.2,0.3,0.4,0.4,0.6c0.1,0.2,0.2,0.5,0.2,0.8c0,0.3-0.1,0.6-0.2,0.8
			c-0.1,0.2-0.3,0.5-0.4,0.6c-0.2,0.2-0.4,0.3-0.6,0.4C125.5,6.9,125.2,7,125,7s-0.5,0-0.8-0.1c-0.2-0.1-0.5-0.2-0.6-0.4
			c-0.2-0.2-0.3-0.4-0.4-0.6C123,5.6,123,5.3,123,5C123,4.7,123,4.5,123.1,4.2L123.1,4.2z M123.5,29.3c0,4.4-0.3,7.7-0.9,9.9
			c-0.5,2.2-1.4,3.9-2.6,5.1c-1.7,1.7-4.6,2.5-8.6,2.5H96.7c-4.1,0-7-0.8-8.7-2.5c-3.2-3.1-4.8-9.6-4.8-19.4
			c0-9.8,1.6-16.3,4.8-19.4C89.7,3.8,92.6,3,96.7,3h14.7c4.1,0,7,0.8,8.6,2.5c1.1,1.1,2,2.8,2.5,5c0.6,2.2,0.9,5.5,0.9,9.8l-12.6,0
			c-0.1-3.6-0.5-5.2-0.7-6c-0.1-0.4-0.5-0.6-0.9-0.6H98.8c-0.4,0-0.8,0.3-0.9,0.6c-0.3,1-0.8,3.6-0.8,10.5c0,6.9,0.5,9.6,0.8,10.6
			c0.1,0.4,0.5,0.6,0.9,0.6h10.4c0.4,0,0.8-0.3,0.9-0.6c0.3-0.8,0.6-2.4,0.7-6.2L123.5,29.3L123.5,29.3z M55.1,46.8h-6.9
			c-0.5,0-1-0.3-1.1-0.8l-0.6-1.7l-7.9-24l0-0.1c-0.1-0.3-0.6-0.2-0.6,0.1v26.5H25.6V3h16.9H44c0.5,0,1,0.3,1.1,0.8l0.5,1.7
			l6.1,19.9l0,0c0.1,0.3,0.5,0.3,0.6,0l0,0l5.7-19.9l0.5-1.7C58.7,3.3,59.2,3,59.7,3h1.6h16.8v43.8H65.3V20.3v-0.1
			c0-0.3-0.5-0.4-0.6-0.1l-0.1,0.2l-7.9,24L56.2,46C56,46.4,55.6,46.8,55.1,46.8L55.1,46.8z M5.5,46.8H19V3H5.5V46.8z M122.7,63H121
			c-0.4,0-0.6-0.1-0.8-0.5l-4-7.6H116V63h-1.6V52.6h1.9c0.4,0,0.6,0.1,0.8,0.5l3.9,7.3h0.2v-7.8h1.6L122.7,63L122.7,63z M105.6,61.4
			c0.1,0.1,0.2,0.2,0.7,0.2h2.6c0.5,0,0.6-0.1,0.7-0.2c0.2-0.1,0.4-0.6,0.4-3.6c0-3-0.2-3.5-0.4-3.6c-0.1-0.1-0.2-0.2-0.7-0.2h-2.6
			c-0.5,0-0.6,0.1-0.7,0.2c-0.2,0.1-0.4,0.6-0.4,3.6C105.2,60.8,105.4,61.3,105.6,61.4z M109.1,52.6c1,0,1.4,0.1,1.7,0.4
			c0.6,0.5,0.9,1.3,0.9,4.8c0,3.5-0.4,4.3-0.9,4.8c-0.3,0.3-0.7,0.4-1.7,0.4h-3c-1,0-1.4-0.1-1.7-0.4c-0.6-0.5-0.9-1.3-0.9-4.8
			c0-3.5,0.4-4.3,0.9-4.8c0.3-0.3,0.7-0.4,1.7-0.4H109.1z M99.2,63h1.7V52.6h-1.7V63z M93.6,54v9h-1.7v-9h-3.3v-1.4h8.2V54H93.6
			L93.6,54z M85.8,62.6c-0.3,0.3-0.7,0.4-1.7,0.4h-2.9c-1,0-1.4-0.1-1.7-0.4c-0.6-0.5-0.9-1.3-0.9-4.8c0-3.5,0.4-4.3,0.9-4.8
			c0.3-0.3,0.7-0.4,1.7-0.4h2.9c1,0,1.4,0.1,1.7,0.4c0.6,0.5,0.9,1.2,0.9,3H85c0-1.3-0.2-1.7-0.3-1.8c-0.1-0.1-0.2-0.2-0.7-0.2h-2.5
			c-0.5,0-0.6,0.1-0.7,0.2c-0.2,0.1-0.4,0.6-0.4,3.6c0,3,0.2,3.5,0.4,3.6c0.1,0.1,0.2,0.2,0.7,0.2h2.5c0.5,0,0.6-0.1,0.7-0.2
			c0.2-0.1,0.3-0.4,0.3-2h1.7C86.6,61.5,86.4,62.1,85.8,62.6L85.8,62.6z M76,58.7c0,2.6-0.2,3.1-0.8,3.7C74.7,62.9,74,63,72.7,63
			h-1.5c-1.4,0-2.1-0.2-2.5-0.6c-0.6-0.5-0.8-1.1-0.8-3.7v-6.1h1.7V59c0,1.9,0.1,2,0.4,2.3c0.2,0.2,0.4,0.2,1.6,0.2h0.9
			c1.1,0,1.4-0.1,1.6-0.2c0.2-0.2,0.3-0.3,0.3-2.3v-6.4H76L76,58.7L76,58.7z M62.6,57.4c0.4,0,0.6-0.1,0.6-0.1
			c0.1-0.1,0.3-0.5,0.3-1.5s-0.2-1.4-0.3-1.5c-0.1-0.1-0.2-0.1-0.7-0.1h-3.5v3.3H62.6z M63.2,58.9c-0.2-0.2-0.5-0.2-1.1-0.2h-2.9V63
			h-1.7V52.6h5.6c0.7,0,1.2,0.1,1.5,0.4c0.4,0.4,0.7,1,0.7,2.5c0,1.8-0.5,2.3-1.7,2.5v0c1.1,0.2,1.5,0.5,1.6,2
			c0.1,1.5,0.1,2.3,0.2,2.9h-1.7c-0.1-0.7-0.2-1.7-0.2-2.9C63.5,59.3,63.4,59.1,63.2,58.9L63.2,58.9z M52,54v9h-1.7v-9H47v-1.4h8.2
			V54H52L52,54z M44.5,62.5c-0.3,0.3-0.8,0.5-1.6,0.5h-3.5c-0.8,0-1.3-0.1-1.6-0.4c-0.4-0.4-0.6-0.9-0.6-2.8h1.7
			c0,1.3,0.1,1.6,0.2,1.7c0.1,0.1,0.2,0.2,0.7,0.2h2.9c0.4,0,0.6,0,0.7-0.2c0.1-0.1,0.2-0.5,0.2-1.4c0-0.8,0-1-0.2-1.2
			c-0.1-0.1-0.3-0.2-0.7-0.2l-3.3-0.3c-0.8-0.1-1.2-0.2-1.5-0.5c-0.4-0.4-0.5-0.9-0.5-2.3c0-1.3,0.1-2,0.6-2.5
			c0.3-0.3,0.8-0.5,1.6-0.5h3.2c0.8,0,1.3,0.1,1.6,0.4c0.4,0.4,0.5,0.9,0.6,2.8h-1.7c0-1.2-0.1-1.5-0.2-1.6C43,54.1,42.9,54,42.4,54
			h-2.6c-0.4,0-0.6,0-0.7,0.2c-0.1,0.1-0.2,0.5-0.2,1.3c0,0.7,0,1,0.2,1.1c0.1,0.1,0.3,0.1,0.7,0.2l3.3,0.3c0.7,0.1,1.2,0.2,1.5,0.5
			c0.4,0.4,0.5,0.9,0.5,2.3C45.1,61.4,45,62.1,44.5,62.5L44.5,62.5z M34.6,63h-1.7c-0.4,0-0.6-0.1-0.8-0.5l-4-7.6h-0.2V63h-1.6V52.6
			h1.9c0.4,0,0.6,0.1,0.8,0.5l3.9,7.3H33v-7.8h1.6L34.6,63L34.6,63z M12.2,62.6c-0.3,0.3-0.7,0.4-1.7,0.4H7.6c-1,0-1.4-0.1-1.7-0.4
			C5.3,62.1,5,61.3,5,57.8c0-3.5,0.4-4.3,0.9-4.8c0.3-0.3,0.7-0.4,1.7-0.4h2.9c1,0,1.4,0.1,1.7,0.4c0.6,0.5,0.9,1.2,0.9,3h-1.7
			c0-1.3-0.2-1.7-0.3-1.8C11,54.1,10.9,54,10.4,54H7.8c-0.5,0-0.6,0.1-0.7,0.2c-0.2,0.1-0.4,0.6-0.4,3.6c0,3,0.2,3.5,0.4,3.6
			c0.1,0.1,0.2,0.2,0.7,0.2h2.5c0.5,0,0.6-0.1,0.7-0.2c0.2-0.1,0.3-0.4,0.3-2h1.7C13.1,61.5,12.8,62.1,12.2,62.6L12.2,62.6z
			 M288.2,47.9l-1.6,0.2c0,0.5,0.2,1,0.4,1.3c0.2,0.4,0.5,0.7,0.8,0.9c0.3,0.2,0.7,0.4,1.2,0.5s0.9,0.2,1.3,0.2
			c0.5,0,0.9-0.1,1.3-0.2c0.4-0.1,0.8-0.3,1.2-0.5c0.3-0.2,0.6-0.5,0.8-0.8c0.2-0.3,0.3-0.7,0.3-1.1c0-0.5-0.1-1-0.4-1.3
			c-0.3-0.3-0.6-0.6-1-0.7c-0.4-0.2-0.9-0.3-1.4-0.4c-0.5-0.1-0.9-0.2-1.4-0.3c-0.4-0.1-0.8-0.2-1-0.4c-0.3-0.2-0.4-0.4-0.4-0.7
			c0-0.3,0.1-0.5,0.2-0.6c0.1-0.2,0.3-0.3,0.4-0.4c0.2-0.1,0.4-0.2,0.6-0.2c0.2,0,0.4-0.1,0.6-0.1c0.3,0,0.5,0,0.8,0.1
			c0.3,0.1,0.5,0.2,0.7,0.3c0.2,0.1,0.4,0.3,0.5,0.6c0.1,0.2,0.2,0.5,0.2,0.8l1.4-0.2c0-0.5-0.1-1-0.4-1.3c-0.3-0.3-0.6-0.6-1-0.8
			c-0.4-0.2-0.8-0.4-1.2-0.4c-0.4-0.1-0.8-0.1-1.1-0.1c-0.4,0-0.8,0-1.1,0.1c-0.4,0.1-0.7,0.2-1,0.4c-0.3,0.2-0.6,0.4-0.7,0.8
			c-0.2,0.3-0.3,0.7-0.3,1.1c0,0.5,0.1,1,0.4,1.3c0.3,0.3,0.6,0.5,1,0.7c0.4,0.2,0.9,0.3,1.3,0.4c0.5,0.1,0.9,0.2,1.3,0.3
			c0.4,0.1,0.8,0.2,1,0.4c0.3,0.2,0.4,0.4,0.4,0.8c0,0.3-0.1,0.5-0.2,0.7c-0.1,0.2-0.3,0.3-0.5,0.4c-0.2,0.1-0.4,0.2-0.6,0.2
			c-0.2,0-0.4,0.1-0.6,0.1c-0.3,0-0.6,0-0.9-0.1c-0.3-0.1-0.5-0.2-0.8-0.3c-0.2-0.2-0.4-0.4-0.6-0.6
			C288.2,48.6,288.1,48.2,288.2,47.9L288.2,47.9z M281.3,42.5v1.2h1.4v5.7c0,0.2,0,0.4,0,0.7c0,0.2,0.1,0.4,0.2,0.5
			c0.1,0.1,0.2,0.3,0.4,0.3c0.2,0.1,0.5,0.1,0.9,0.1c0.2,0,0.5,0,0.7,0c0.2,0,0.5-0.1,0.7-0.1v-1.2c-0.2,0.1-0.3,0.1-0.4,0.1
			c-0.1,0-0.3,0-0.5,0c-0.3,0-0.5-0.1-0.5-0.3c0-0.2-0.1-0.4-0.1-0.5v-5.3h1.6v-1.2h-1.6v-2.6h-1.4v2.6H281.3z M273.1,42.5v8.3h1.4
			v-5c0-0.7,0.2-1.2,0.6-1.6c0.4-0.4,1-0.6,1.6-0.6c0.3,0,0.5,0,0.7,0.1c0.2,0.1,0.4,0.2,0.6,0.3c0.2,0.1,0.3,0.3,0.4,0.6
			c0.1,0.2,0.1,0.5,0.1,0.9v5.3h1.4v-5.5c0-0.6-0.1-1.1-0.2-1.5c-0.2-0.4-0.4-0.7-0.6-0.9c-0.3-0.2-0.6-0.4-0.9-0.5
			s-0.8-0.1-1.2-0.1c-0.6,0-1,0.1-1.4,0.3c-0.4,0.2-0.8,0.6-1,1h0v-1.1L273.1,42.5L273.1,42.5z M265,46.9h6.4v-0.3
			c0-0.6-0.1-1.2-0.2-1.7c-0.2-0.5-0.4-1-0.7-1.4c-0.3-0.4-0.7-0.7-1.2-0.9c-0.5-0.2-1.1-0.3-1.7-0.3c-0.7,0-1.3,0.1-1.8,0.3
			c-0.5,0.2-0.9,0.5-1.3,0.9c-0.3,0.4-0.6,0.9-0.7,1.4c-0.2,0.5-0.2,1.2-0.2,1.8c0,0.6,0.1,1.2,0.3,1.7c0.2,0.5,0.4,1,0.8,1.4
			c0.3,0.4,0.8,0.7,1.3,0.9c0.5,0.2,1.1,0.3,1.7,0.3c0.9,0,1.8-0.2,2.4-0.7c0.7-0.5,1.2-1.2,1.4-2.1l-1.4-0.2
			c-0.3,1.2-1.1,1.9-2.4,1.9c-0.4,0-0.8-0.1-1.1-0.2c-0.3-0.2-0.6-0.4-0.8-0.6c-0.2-0.3-0.4-0.6-0.5-0.9C265,47.7,265,47.4,265,46.9
			L265,46.9z M269.8,45.8H265c0-0.3,0.1-0.6,0.2-0.9c0.1-0.3,0.3-0.6,0.5-0.8c0.2-0.2,0.4-0.4,0.7-0.5c0.3-0.1,0.6-0.2,0.9-0.2
			c0.4,0,0.7,0.1,1,0.2c0.3,0.1,0.5,0.3,0.8,0.5c0.2,0.2,0.4,0.5,0.5,0.8C269.7,45.2,269.8,45.5,269.8,45.8z M250.2,42.5v8.3h1.4
			v-5.5c0-0.3,0.1-0.6,0.2-0.8c0.1-0.2,0.3-0.4,0.5-0.5c0.2-0.1,0.4-0.2,0.7-0.3c0.2-0.1,0.5-0.1,0.7-0.1c0.5,0,0.9,0.1,1.1,0.4
			c0.2,0.3,0.4,0.7,0.4,1.2v5.6h1.4v-5.5c0-0.3,0.1-0.6,0.2-0.8c0.1-0.2,0.3-0.4,0.5-0.5c0.2-0.1,0.4-0.2,0.7-0.3
			c0.2-0.1,0.5-0.1,0.7-0.1c0.5,0,0.9,0.1,1.1,0.4c0.2,0.3,0.4,0.7,0.4,1.2v5.6h1.4v-5.5c0-0.6-0.1-1.1-0.2-1.5
			c-0.2-0.4-0.4-0.7-0.6-0.9c-0.3-0.2-0.6-0.4-0.9-0.5c-0.3-0.1-0.7-0.1-1-0.1c-0.2,0-0.5,0-0.7,0.1c-0.2,0.1-0.5,0.2-0.7,0.3
			c-0.2,0.1-0.4,0.3-0.6,0.5c-0.2,0.2-0.4,0.4-0.5,0.6c-0.1-0.3-0.3-0.5-0.5-0.7c-0.2-0.2-0.4-0.3-0.6-0.4s-0.5-0.2-0.7-0.2
			c-0.2-0.1-0.5-0.1-0.7-0.1c-0.5,0-0.9,0.1-1.4,0.4c-0.4,0.2-0.7,0.5-1,0.9h0v-1H250.2L250.2,42.5z M241,42.5v8.3h1.4v-5
			c0-0.7,0.2-1.2,0.6-1.6c0.4-0.4,1-0.6,1.6-0.6c0.3,0,0.5,0,0.7,0.1c0.2,0.1,0.4,0.2,0.6,0.3c0.2,0.1,0.3,0.3,0.4,0.6
			c0.1,0.2,0.1,0.5,0.1,0.9v5.3h1.4v-5.5c0-0.6-0.1-1.1-0.2-1.5s-0.4-0.7-0.6-0.9c-0.3-0.2-0.6-0.4-0.9-0.5
			c-0.4-0.1-0.8-0.1-1.2-0.1c-0.6,0-1,0.1-1.4,0.3c-0.4,0.2-0.8,0.6-1,1h0v-1.1L241,42.5L241,42.5z M231.1,46.6
			c0,0.6,0.1,1.2,0.3,1.7c0.2,0.5,0.5,1,0.8,1.4c0.4,0.4,0.8,0.7,1.3,0.9s1.1,0.3,1.7,0.3s1.2-0.1,1.7-0.3c0.5-0.2,0.9-0.5,1.3-0.9
			c0.4-0.4,0.6-0.9,0.8-1.4c0.2-0.5,0.3-1.1,0.3-1.7s-0.1-1.2-0.3-1.7c-0.2-0.5-0.5-1-0.8-1.4c-0.4-0.4-0.8-0.7-1.3-0.9
			c-0.5-0.2-1.1-0.3-1.7-0.3s-1.2,0.1-1.7,0.3c-0.5,0.2-0.9,0.5-1.3,0.9c-0.4,0.4-0.6,0.9-0.8,1.4C231.2,45.4,231.1,46,231.1,46.6z
			 M232.6,46.6c0-0.3,0-0.7,0.1-1.1c0.1-0.4,0.2-0.7,0.4-1.1c0.2-0.3,0.5-0.6,0.8-0.8c0.3-0.2,0.8-0.3,1.3-0.3
			c0.5,0,0.9,0.1,1.3,0.3c0.3,0.2,0.6,0.5,0.8,0.8c0.2,0.3,0.3,0.7,0.4,1.1c0.1,0.4,0.1,0.7,0.1,1.1c0,0.3,0,0.7-0.1,1.1
			c-0.1,0.4-0.2,0.7-0.4,1.1c-0.2,0.3-0.5,0.6-0.8,0.8c-0.3,0.2-0.8,0.3-1.3,0.3c-0.5,0-0.9-0.1-1.3-0.3c-0.3-0.2-0.6-0.5-0.8-0.8
			c-0.2-0.3-0.3-0.7-0.4-1.1C232.7,47.3,232.6,47,232.6,46.6z M225.7,42.5v8.3h1.4v-4.7c0-0.2,0-0.5,0.1-0.8
			c0.1-0.3,0.2-0.5,0.4-0.7c0.2-0.2,0.4-0.4,0.6-0.5c0.3-0.1,0.6-0.2,0.9-0.2c0.1,0,0.3,0,0.5,0c0.2,0,0.4,0,0.5,0v-1.6
			c-0.7,0-1.3,0.1-1.8,0.3c-0.5,0.2-0.9,0.6-1.2,1.2h0v-1.4L225.7,42.5L225.7,42.5z M222.1,42.5v8.3h1.4v-8.3H222.1z M222.1,38.4V40
			h1.4v-1.6H222.1z M213.3,42.5l3.1,8.3h1.4l3-8.3h-1.5l-2.2,6.2h0l-2.3-6.2H213.3z M205.1,42.5v8.3h1.4v-5c0-0.7,0.2-1.2,0.6-1.6
			c0.4-0.4,1-0.6,1.6-0.6c0.3,0,0.5,0,0.7,0.1c0.2,0.1,0.4,0.2,0.6,0.3c0.2,0.1,0.3,0.3,0.4,0.6c0.1,0.2,0.1,0.5,0.1,0.9v5.3h1.4
			v-5.5c0-0.6-0.1-1.1-0.2-1.5s-0.4-0.7-0.6-0.9c-0.3-0.2-0.6-0.4-0.9-0.5c-0.4-0.1-0.8-0.1-1.2-0.1c-0.6,0-1,0.1-1.4,0.3
			c-0.4,0.2-0.8,0.6-1,1h0v-1.1L205.1,42.5L205.1,42.5z M194.5,38.4v12.4h9v-1.4h-7.3v-4.3h6.2v-1.4h-6.2v-3.8h7.2v-1.4L194.5,38.4
			L194.5,38.4z M187.3,50.8V38.4h-1.4v5.1h0c-0.3-0.4-0.7-0.7-1.2-0.9c-0.5-0.2-1-0.3-1.5-0.3c-0.7,0-1.3,0.1-1.9,0.4
			c-0.5,0.2-0.9,0.6-1.2,1c-0.3,0.4-0.6,0.9-0.7,1.4c-0.1,0.5-0.2,1.1-0.2,1.6s0.1,1.1,0.2,1.6c0.1,0.5,0.4,1,0.7,1.4
			c0.3,0.4,0.8,0.7,1.3,1c0.5,0.2,1.2,0.4,2,0.4c0.5,0,1-0.1,1.5-0.3c0.5-0.2,0.8-0.5,1.1-0.9h0v1L187.3,50.8L187.3,50.8z
			 M180.6,46.6c0-0.4,0.1-0.8,0.2-1.2c0.1-0.4,0.3-0.7,0.5-1c0.2-0.3,0.5-0.5,0.8-0.7c0.3-0.2,0.7-0.3,1.2-0.3
			c0.4,0,0.8,0.1,1.1,0.3c0.3,0.2,0.6,0.4,0.8,0.7c0.2,0.3,0.4,0.6,0.5,1c0.1,0.4,0.2,0.8,0.2,1.2c0,0.4-0.1,0.8-0.2,1.2
			c-0.1,0.4-0.3,0.7-0.5,1c-0.2,0.3-0.5,0.5-0.8,0.7c-0.3,0.2-0.7,0.3-1.2,0.3s-0.9-0.1-1.2-0.3c-0.3-0.2-0.6-0.4-0.8-0.7
			c-0.2-0.3-0.4-0.6-0.5-1C180.7,47.4,180.6,47,180.6,46.6z M170.4,42.5v8.3h1.4v-5c0-0.7,0.2-1.2,0.6-1.6c0.4-0.4,1-0.6,1.6-0.6
			c0.3,0,0.5,0,0.7,0.1c0.2,0.1,0.4,0.2,0.6,0.3c0.2,0.1,0.3,0.3,0.4,0.6s0.1,0.5,0.1,0.9v5.3h1.4v-5.5c0-0.6-0.1-1.1-0.2-1.5
			c-0.2-0.4-0.4-0.7-0.6-0.9c-0.3-0.2-0.6-0.4-0.9-0.5c-0.4-0.1-0.8-0.1-1.2-0.1c-0.6,0-1,0.1-1.4,0.3c-0.4,0.2-0.8,0.6-1,1h0v-1.1
			L170.4,42.5L170.4,42.5z M166.6,46.7v1c0,0.7-0.2,1.2-0.7,1.6c-0.5,0.4-1,0.6-1.7,0.6c-0.2,0-0.4,0-0.5-0.1
			c-0.2,0-0.4-0.1-0.5-0.2c-0.2-0.1-0.3-0.2-0.4-0.4c-0.1-0.2-0.2-0.4-0.2-0.6c0-0.3,0.1-0.6,0.3-0.8c0.2-0.2,0.5-0.4,0.8-0.5
			c0.4-0.1,0.8-0.2,1.3-0.3C165.4,46.9,166,46.8,166.6,46.7L166.6,46.7z M166.6,45.1v0.7c-0.9,0-1.7,0.1-2.3,0.2s-1.3,0.2-1.7,0.5
			c-0.5,0.2-0.8,0.5-1.1,0.9c-0.3,0.4-0.4,0.8-0.4,1.4c0,0.3,0.1,0.6,0.2,0.9c0.1,0.3,0.3,0.5,0.6,0.7c0.2,0.2,0.5,0.4,0.9,0.5
			s0.7,0.2,1.1,0.2c1.2,0,2.2-0.4,3-1.3c0.1,0.4,0.3,0.7,0.5,0.9c0.2,0.2,0.6,0.3,1,0.3c0.2,0,0.3,0,0.5,0c0.2,0,0.3-0.1,0.4-0.1
			v-1.2c-0.2,0.1-0.3,0.1-0.4,0.1c-0.2,0-0.3-0.1-0.4-0.2c-0.1-0.1-0.2-0.4-0.2-0.8v-3.9c0-0.5-0.1-1-0.3-1.3
			c-0.2-0.3-0.5-0.6-0.8-0.8c-0.3-0.2-0.7-0.3-1.1-0.4c-0.4-0.1-0.8-0.1-1.1-0.1c-0.9,0-1.7,0.2-2.2,0.7c-0.5,0.4-0.9,1.1-1,2.1
			l1.4,0.1c0.1-1.1,0.6-1.7,1.7-1.7c0.7,0,1.2,0.1,1.5,0.4C166.4,44,166.6,44.5,166.6,45.1L166.6,45.1z M271.8,25.5l-1.6,0.2
			c0,0.5,0.2,1,0.4,1.3c0.2,0.4,0.5,0.7,0.8,0.9c0.3,0.2,0.7,0.4,1.2,0.5s0.9,0.2,1.3,0.2s0.9-0.1,1.3-0.2s0.8-0.3,1.2-0.5
			c0.3-0.2,0.6-0.5,0.8-0.8c0.2-0.3,0.3-0.7,0.3-1.1c0-0.5-0.1-1-0.4-1.3c-0.3-0.3-0.6-0.6-1-0.7c-0.4-0.2-0.9-0.3-1.4-0.4
			c-0.5-0.1-0.9-0.2-1.4-0.3c-0.4-0.1-0.8-0.2-1-0.4c-0.3-0.2-0.4-0.4-0.4-0.7c0-0.3,0.1-0.5,0.2-0.6c0.1-0.2,0.3-0.3,0.4-0.4
			c0.2-0.1,0.4-0.2,0.6-0.2c0.2,0,0.4-0.1,0.6-0.1c0.3,0,0.5,0,0.8,0.1c0.3,0.1,0.5,0.2,0.7,0.3c0.2,0.1,0.4,0.3,0.5,0.6
			c0.1,0.2,0.2,0.5,0.2,0.8l1.4-0.2c0-0.5-0.1-1-0.4-1.3c-0.3-0.3-0.6-0.6-1-0.8c-0.4-0.2-0.8-0.4-1.2-0.4c-0.4-0.1-0.8-0.1-1.1-0.1
			c-0.4,0-0.8,0-1.1,0.1c-0.4,0.1-0.7,0.2-1,0.4c-0.3,0.2-0.6,0.4-0.7,0.8c-0.2,0.3-0.3,0.7-0.3,1.1c0,0.5,0.1,1,0.4,1.3
			c0.3,0.3,0.6,0.5,1,0.7c0.4,0.2,0.9,0.3,1.3,0.4c0.5,0.1,0.9,0.2,1.3,0.3c0.4,0.1,0.8,0.2,1,0.4c0.3,0.2,0.4,0.4,0.4,0.8
			c0,0.3-0.1,0.5-0.2,0.7c-0.1,0.2-0.3,0.3-0.5,0.4c-0.2,0.1-0.4,0.2-0.6,0.2c-0.2,0-0.4,0.1-0.6,0.1c-0.3,0-0.6,0-0.9-0.1
			c-0.3-0.1-0.5-0.2-0.8-0.3c-0.2-0.2-0.4-0.4-0.6-0.6C271.8,26.2,271.8,25.9,271.8,25.5L271.8,25.5z M262.7,24.6h6.4v-0.3
			c0-0.6-0.1-1.2-0.2-1.7c-0.2-0.5-0.4-1-0.7-1.4c-0.3-0.4-0.7-0.7-1.2-0.9c-0.5-0.2-1.1-0.3-1.7-0.3c-0.7,0-1.3,0.1-1.8,0.3
			c-0.5,0.2-0.9,0.5-1.3,0.9c-0.3,0.4-0.6,0.9-0.7,1.4c-0.2,0.5-0.2,1.2-0.2,1.8c0,0.6,0.1,1.2,0.3,1.7c0.2,0.5,0.4,1,0.8,1.4
			c0.3,0.4,0.8,0.7,1.3,0.9c0.5,0.2,1.1,0.3,1.7,0.3c0.9,0,1.8-0.2,2.4-0.7c0.7-0.5,1.2-1.2,1.4-2.1l-1.4-0.2
			c-0.3,1.2-1.1,1.9-2.4,1.9c-0.4,0-0.8-0.1-1.1-0.2c-0.3-0.2-0.6-0.4-0.8-0.6c-0.2-0.3-0.4-0.6-0.5-0.9
			C262.7,25.4,262.7,25,262.7,24.6L262.7,24.6z M267.5,23.4h-4.9c0-0.3,0.1-0.6,0.2-0.9c0.1-0.3,0.3-0.6,0.5-0.8
			c0.2-0.2,0.4-0.4,0.7-0.5c0.3-0.1,0.6-0.2,0.9-0.2c0.4,0,0.7,0.1,1,0.2c0.3,0.1,0.5,0.3,0.8,0.5c0.2,0.2,0.4,0.5,0.5,0.8
			C267.4,22.8,267.5,23.1,267.5,23.4L267.5,23.4z M252.9,20.1l3.1,8.3h1.4l3-8.3h-1.5l-2.2,6.2h0l-2.3-6.2H252.9z M250.2,20.1v8.3
			h1.4v-8.3H250.2z M250.2,16v1.6h1.4V16H250.2z M240.5,16v12.4h7.9V27h-6.3V16H240.5z M229.2,21.1c0.4,0,0.8,0.1,1.1,0.2
			c0.3,0.1,0.6,0.3,0.8,0.5c0.2,0.2,0.4,0.6,0.6,1c0.1,0.4,0.2,0.9,0.2,1.4c0,0.4,0,0.8-0.2,1.2c-0.1,0.4-0.3,0.7-0.5,1
			c-0.2,0.3-0.5,0.5-0.9,0.7c-0.3,0.2-0.7,0.3-1.1,0.3c-0.4,0-0.8-0.1-1.1-0.2c-0.3-0.2-0.6-0.4-0.8-0.7c-0.2-0.3-0.4-0.6-0.5-1
			c-0.1-0.4-0.2-0.8-0.2-1.2c0-1.1,0.2-1.9,0.7-2.4C227.8,21.3,228.4,21.1,229.2,21.1L229.2,21.1z M231.9,20.1v1.1l0,0
			c-0.2-0.4-0.6-0.7-1.1-1c-0.5-0.2-1.1-0.4-1.8-0.4c-0.7,0-1.2,0.1-1.7,0.3c-0.5,0.2-0.9,0.5-1.2,0.9c-0.3,0.4-0.6,0.9-0.7,1.4
			c-0.2,0.5-0.2,1.1-0.2,1.7c0,0.9,0.1,1.6,0.4,2.2c0.3,0.6,0.6,1,1,1.3c0.4,0.3,0.8,0.5,1.3,0.7c0.4,0.1,0.9,0.2,1.2,0.2
			c0.6,0,1.2-0.1,1.6-0.4c0.4-0.2,0.9-0.6,1.3-1.1h0v1.2c0,0.3,0,0.6,0,1c0,0.3-0.1,0.6-0.3,0.9c-0.2,0.3-0.4,0.5-0.7,0.7
			c-0.3,0.2-0.8,0.3-1.4,0.3c-0.3,0-0.6,0-0.9-0.1c-0.3-0.1-0.5-0.2-0.7-0.3c-0.2-0.2-0.4-0.4-0.5-0.6c-0.1-0.2-0.2-0.5-0.2-0.9
			h-1.6c0,0.5,0.2,1,0.4,1.4c0.2,0.4,0.5,0.7,0.9,0.9s0.8,0.4,1.2,0.5c0.5,0.1,0.9,0.2,1.5,0.2c0.9,0,1.6-0.1,2.1-0.4
			c0.5-0.3,0.9-0.6,1.2-1c0.3-0.4,0.4-0.8,0.5-1.3s0.1-0.8,0.1-1.1v-8.4H231.9L231.9,20.1z M216.5,20.1v8.3h1.4v-5
			c0-0.7,0.2-1.2,0.6-1.6c0.4-0.4,1-0.6,1.6-0.6c0.3,0,0.5,0,0.7,0.1c0.2,0.1,0.4,0.2,0.6,0.3c0.2,0.1,0.3,0.3,0.4,0.6
			c0.1,0.2,0.1,0.5,0.1,0.9v5.3h1.4v-5.5c0-0.6-0.1-1.1-0.2-1.5c-0.2-0.4-0.4-0.7-0.6-0.9c-0.3-0.2-0.6-0.4-0.9-0.5
			c-0.4-0.1-0.8-0.1-1.2-0.1c-0.6,0-1,0.1-1.4,0.3c-0.4,0.2-0.8,0.6-1,1h0v-1.1L216.5,20.1L216.5,20.1z M212.9,20.1v8.3h1.4v-8.3
			H212.9z M212.9,16v1.6h1.4V16H212.9z M204.1,20.1l3.1,8.3h1.4l3-8.3h-1.5l-2.2,6.2h0l-2.3-6.2H204.1z M195.1,24.2
			c0,0.6,0.1,1.2,0.3,1.7c0.2,0.5,0.5,1,0.8,1.4c0.4,0.4,0.8,0.7,1.3,0.9c0.5,0.2,1.1,0.3,1.7,0.3s1.2-0.1,1.7-0.3
			c0.5-0.2,0.9-0.5,1.3-0.9c0.4-0.4,0.6-0.9,0.8-1.4c0.2-0.5,0.3-1.1,0.3-1.7s-0.1-1.2-0.3-1.7c-0.2-0.5-0.5-1-0.8-1.4
			c-0.4-0.4-0.8-0.7-1.3-0.9c-0.5-0.2-1.1-0.3-1.7-0.3s-1.2,0.1-1.7,0.3c-0.5,0.2-0.9,0.5-1.3,0.9c-0.4,0.4-0.6,0.9-0.8,1.4
			C195.2,23,195.1,23.6,195.1,24.2z M196.6,24.2c0-0.3,0-0.7,0.1-1.1c0.1-0.4,0.2-0.7,0.4-1.1c0.2-0.3,0.5-0.6,0.8-0.8
			c0.3-0.2,0.8-0.3,1.3-0.3c0.5,0,0.9,0.1,1.3,0.3c0.3,0.2,0.6,0.5,0.8,0.8c0.2,0.3,0.3,0.7,0.4,1.1c0.1,0.4,0.1,0.7,0.1,1.1
			c0,0.3,0,0.7-0.1,1.1c-0.1,0.4-0.2,0.7-0.4,1.1c-0.2,0.3-0.5,0.6-0.8,0.8c-0.3,0.2-0.8,0.3-1.3,0.3c-0.5,0-0.9-0.1-1.3-0.3
			c-0.3-0.2-0.6-0.5-0.8-0.8c-0.2-0.3-0.3-0.7-0.4-1.1C196.7,24.9,196.6,24.6,196.6,24.2z M189.7,20.1v8.3h1.4v-4.7
			c0-0.2,0-0.5,0.1-0.8c0.1-0.3,0.2-0.5,0.4-0.7c0.2-0.2,0.4-0.4,0.6-0.5c0.3-0.1,0.6-0.2,0.9-0.2c0.1,0,0.3,0,0.5,0
			c0.2,0,0.4,0,0.5,0V20c-0.7,0-1.3,0.1-1.8,0.3c-0.5,0.2-0.9,0.6-1.2,1.2h0v-1.4L189.7,20.1L189.7,20.1z M179.8,20.1v12.2h1.4v-4.9
			h0c0.3,0.4,0.7,0.7,1.2,0.9c0.5,0.2,1,0.3,1.5,0.3c0.7,0,1.3-0.1,1.8-0.4c0.5-0.2,0.9-0.6,1.3-1c0.3-0.4,0.6-0.9,0.7-1.4
			c0.1-0.5,0.2-1.1,0.2-1.6c0-0.6-0.1-1.1-0.2-1.6c-0.1-0.5-0.4-1-0.7-1.4c-0.3-0.4-0.7-0.7-1.3-1c-0.5-0.2-1.1-0.4-1.9-0.4
			c-0.6,0-1.1,0.1-1.6,0.4c-0.5,0.2-0.8,0.5-1.1,0.8h0v-1L179.8,20.1L179.8,20.1z M186.5,24.2c0,0.4-0.1,0.8-0.2,1.2
			c-0.1,0.4-0.3,0.7-0.5,1c-0.2,0.3-0.5,0.5-0.8,0.7c-0.3,0.2-0.7,0.3-1.2,0.3c-0.4,0-0.8-0.1-1.1-0.3c-0.3-0.2-0.6-0.4-0.8-0.7
			c-0.2-0.3-0.4-0.6-0.5-1c-0.1-0.4-0.2-0.8-0.2-1.2c0-0.4,0.1-0.8,0.2-1.2c0.1-0.4,0.3-0.7,0.5-1c0.2-0.3,0.5-0.5,0.8-0.7
			c0.3-0.2,0.7-0.3,1.2-0.3s0.9,0.1,1.2,0.3c0.3,0.2,0.6,0.4,0.8,0.7c0.2,0.3,0.4,0.6,0.5,1C186.4,23.4,186.5,23.8,186.5,24.2
			L186.5,24.2z M166.2,20.1v8.3h1.4v-5.5c0-0.3,0.1-0.6,0.2-0.8c0.1-0.2,0.3-0.4,0.5-0.5c0.2-0.1,0.4-0.2,0.7-0.3
			c0.2-0.1,0.5-0.1,0.7-0.1c0.5,0,0.9,0.1,1.1,0.4c0.2,0.3,0.4,0.7,0.4,1.2v5.6h1.4v-5.5c0-0.3,0.1-0.6,0.2-0.8
			c0.1-0.2,0.3-0.4,0.5-0.5c0.2-0.1,0.4-0.2,0.7-0.3c0.2-0.1,0.5-0.1,0.7-0.1c0.5,0,0.9,0.1,1.1,0.4c0.2,0.3,0.4,0.7,0.4,1.2v5.6
			h1.4v-5.5c0-0.6-0.1-1.1-0.2-1.5c-0.2-0.4-0.4-0.7-0.6-0.9c-0.3-0.2-0.6-0.4-0.9-0.5c-0.3-0.1-0.7-0.1-1-0.1c-0.2,0-0.5,0-0.7,0.1
			c-0.2,0.1-0.5,0.2-0.7,0.3c-0.2,0.1-0.4,0.3-0.6,0.5c-0.2,0.2-0.4,0.4-0.5,0.6c-0.1-0.3-0.3-0.5-0.5-0.7c-0.2-0.2-0.4-0.3-0.6-0.4
			s-0.5-0.2-0.7-0.2c-0.2-0.1-0.5-0.1-0.7-0.1c-0.5,0-0.9,0.1-1.4,0.4c-0.4,0.2-0.7,0.5-1,0.9h0v-1H166.2L166.2,20.1z M162,16v12.4
			h1.7V16H162z M143,63h1v-0.6V3.6V3h-1v0.6v58.8V63z"/>
	</g>
</g>
</svg>
