<?xml version="1.0" encoding="utf-8"?>
<!-- Generator: Adobe Illustrator 25.0.0, SVG Export Plug-In . SVG Version: 6.00 Build 0)  -->
<svg version="1.1" id="Layer_1" xmlns="http://www.w3.org/2000/svg" xmlns:xlink="http://www.w3.org/1999/xlink" x="0px" y="0px"
	 viewBox="0 0 1290.6 361.9" style="enable-background:new 0 0 1290.6 361.9;" xml:space="preserve">
<style type="text/css">
	.st0{fill:#D82A2E;}
	.st1{fill:#989291;}
	.st2{fill:#0B0B0B;}
</style>
<g id="E0YDh7_1_">
	<g>
		<path class="st0" d="M1278.2,242.8c0.1,1.8,0.4,3.6-0.4,5.6c-421.5,0-843.1,0-1264.8,0c-0.9-2-0.6-3.9-0.2-6.1
			c5.9-1.2,11.9,0.3,18.2-1c-1-3.4-4.4-4.3-5.9-7.2c2.9-3.5,7.2-5,10.9-7.3c6.2-3.8,12.6-7.3,19-10.8c4.3-2.4,7.6-5.2,6.4-10.9
			c-0.4-1.7,0.3-3.6-0.7-5.3c-2-1-3.7,0.1-5.1,1.1c-5,3.4-10.2,6.4-15.5,9c-4.6,2.3-6.9,5.4-6.5,10.5c0,0.4-0.3,0.9-0.6,1.7
			c-3.2-2.1-5.4-4.9-8-7.3c0.8-2.2,2.6-2.7,4.2-3.6c9.7-5.8,19.4-11.5,29.2-17.2c2-1.2,3.3-2.5,3.1-5.1c-0.2-3.1,0-6.2,0-9.9
			c-5.6,1.5-9.4,4.8-13.8,7c-1.9,1-3.6,2.5-5.5,3.4c-5.5,2.5-9.8,5.7-8.2,13.6c-3.8-2.9-6.6-5.1-9.3-8.4c6.7-4,13.1-8,19.6-11.9
			c4.9-2.9,9.7-5.7,14.8-8.3c1.6-0.8,2.3-1.9,2.3-3.5c0.1-4.8,0-9.6,0-14.1c-1.8-0.8-2.6,0.1-3.6,0.7c-5.2,3-10.3,6.2-15.6,8.9
			c-5.3,2.7-9.8,5.7-8.1,13.9c-4.1-3-6.9-5.3-9.4-8.6c12.3-7.3,24.2-14.3,36.2-21.4c5,2,7.6,7.3,13.4,9.7c0-8,0.3-15.1-0.1-22.2
			c-0.2-4.2,1.3-6.3,5-7.8c11.9-4.9,23.8-9.8,35.6-14.9c2.9-1.3,5.4-1.6,8.5-0.2c6.9,3,14,5.7,21.1,8.5c2.1,1.6,1.6,3.8,1.6,5.9
			c0,35.3,0,70.5,0.1,105.8c0,5.8,0.5,6.2,6.3,6.2c16.5,0,32.9,0.1,49.4,0c3.1,0,6.3,1.5,9.3-0.3c4.9,3.3,9.9,1.8,15,0.4
			c8.1,1,16.2,1.2,24.4,1.2c339,0,678.1,0,1017.1,0C1270.9,242.5,1274.6,242.7,1278.2,242.8z M119.5,241.6
			c1.1-8.3,0.7-115.8-0.5-119.8c-10.9,4.6-21.7,9.4-32.6,13.7c-2.5,1-3.3,2-3.3,4.5c0.1,8.5,0.1,17-0.1,25.5c0,2.6,0.8,4.5,2.8,6.1
			c3.2,2.6,6.3,5.2,9.5,7.7c4,3.1,6.1,6.6,5.9,12.1c-0.5,14.6-0.2,29.3-0.2,43.9c0,2.1-0.5,4.3,0.9,6.3
			C107.7,241.6,113.5,241.6,119.5,241.6z M60.9,218.4c-1.8,0.5-3.1,0.7-4.5,1.3c-6.2,3-11.5,7.3-17.5,10.6
			c-5.3,2.9-5.7,4.4-4.4,11.1c5.1,0.8,10.1,0.7,14.6-2.6c3.1-2.2,6.5-4.1,9.8-5.9c1.5-0.8,2.5-1.6,2.5-3.3
			C61.2,226.1,62,222.4,60.9,218.4z M53.5,241.4c3,1.3,5.5,1.9,7.8,0.1c1.1-0.9,1.1-2.7-0.4-3.8C58.3,238,56.4,239.5,53.5,241.4z"/>
		<path class="st1" d="M210.8,240.9c-3,1.8-6.2,0.2-9.3,0.3c-16.5,0.1-32.9,0.1-49.4,0c-5.8,0-6.2-0.5-6.3-6.2
			c0-35.3,0-70.5-0.1-105.8c0-2.1,0.5-4.4-1.6-5.9c1.5-1.5,1-3.4,1-5.2c0-11.7,0.1-23.3,0-35c0-3.3,0.9-5.5,3.5-7.7
			c20.5-17.5,40.8-35.2,61.2-52.8c0.4-0.3,0.8-0.5,1.7-1c20.2,11.9,40.6,24,61.5,36.4c-4.6,5.2-9.2,9.5-14.3,14.3
			c-1.2-4.4-1.5-8.3-1.8-12.1c-0.1-1.7-0.2-3.2-1.9-4.2C241,47.5,226.7,39.1,212,30.6c-1.1,2.7-0.6,5-0.6,7.2
			c-0.1,5.3,0.4,10.7-0.2,16c-0.5,4.8,1.7,7.1,5.5,9.3c7.7,4.3,15.1,9.2,22.8,13.3c4.4,2.4,5.9,5.4,4.2,11
			c-10.5-6.1-20.8-12-31-17.9c-2.1,1.3-1.3,3-1.4,4.3c-0.1,2.5,0.4,5.1-0.1,7.5c-1.7,8.7,1.9,14,9.8,17.3c3.7,1.5,6.9,4,10.4,5.9
			c4.9,2.7,5.4,3.9,3.6,10.4c-8.2-3.2-14.7-9.4-23.8-12.7c0,7.7,0,14.8,0,21.9c0,1.9,1.5,2.4,2.8,3.1c5.9,3.5,11.8,6.9,17.6,10.5
			c4.3,2.7,4.8,4,3.5,10.2c-8.1-3.3-15-8.9-23.8-13c0,8.1,0,15.3,0,22.5c0,1.9,1.8,2.3,3,3c5.4,3.2,10.9,6.4,16.3,9.6
			c5.7,3.4,5.8,3.6,4.7,11c-8.3-3.6-15.5-8.8-24.1-13.5c0,8,0,15.2,0,22.5c0,1.9,1.5,2.3,2.8,3.1c5.5,3.4,10.8,7.3,16.6,10
			c5.1,2.4,5.2,6,4.7,11.2c-8-4.4-15.4-8.6-22.8-12.7c-1.7,0.6-1.3,1.9-1.3,3c-0.1,1.7-0.1,3.3,0,5c0.2,5-1.8,10.8,0.8,14.6
			c2.6,3.8,8.1,5.5,12.3,8.1c2.4,1.5,4.9,2.9,7.3,4.3c1.9,1.2,4.4,1.9,4.1,4.8c5.8,0,10.9,0,16.1,0c338.6,0,677.2,0,1015.8,0.1
			c3.4,0,7.2-1.6,10.4,1.2c-3.7-0.1-7.3-0.3-11-0.3c-339,0-678.1,0-1017.1,0c-8.1,0-16.3-0.2-24.4-1.2c-5-1.5-8.9-5.4-14-7.2
			C210.8,236.4,211.9,238.8,210.8,240.9z"/>
		<path class="st2" d="M1209.7,226.1c-13.5,0-27,0-40.5,0c-4.3,0-8.6-0.1-12.8-1.3c-7.4-2-11.6-6.9-13-14.2
			c-0.7-3.7-1.2-7.5-1.2-11.4c0.1-25.1,0.1-50.3,0-75.4c0-3.9,0.5-7.7,1.2-11.4c1.6-8.1,6.8-12.8,14.6-14.4
			c3.7-0.8,7.5-1.2,11.4-1.2c27,0.1,54,0.1,80.9,0c3.9,0,7.7,0.5,11.4,1.1c8.6,1.5,14,7.2,15.3,16.1c0.6,3.8,0.9,7.6,0.9,11.4
			c0.1,24.1,0.1,48.3,0,72.4c0,4-0.4,8-1,11.9c-1.5,9.4-7.8,14.9-17.8,15.9c-6.5,0.7-13,0.4-19.5,0.4
			C1229.7,226.1,1219.7,226.1,1209.7,226.1z M1251.9,201.6c0-27.3,0-54.2,0-81.1c-28.1,0-55.9,0-83.9,0c0,27.2,0,54.1,0,81.1
			C1196.1,201.6,1223.9,201.6,1251.9,201.6z"/>
		<path class="st2" d="M586.2,225.9c-15.3,0-30.6,0-46,0c-2.7,0-5.3-0.4-7.9-1.2c-7-2.1-11.5-6.6-12.8-13.8
			c-0.7-3.9-1.3-7.9-1.3-11.9c0-25,0-50,0-74.9c0-3.9,0.5-7.7,1.2-11.4c1.4-8.1,6.9-13.4,15.4-14.8c3.6-0.6,7.2-1.1,10.9-1.1
			c27,0.1,54,0,80.9,0c4.7,0,9.3,0.5,13.8,1.8c7.2,2,11.1,7.1,12.5,14.1c0.8,3.9,1.2,7.9,1.2,11.9c-0.1,24.6-0.1,49.3,0,73.9
			c0,4-0.5,8-1.2,11.9c-1.5,9-8.1,14.7-18.3,15.2c-10.3,0.5-20.6,0.3-31,0.4c-5.8,0-11.7,0-17.5,0C586.2,226,586.2,226,586.2,225.9z
			 M628,201.6c0-27.3,0-54.2,0-81.1c-28.1,0-55.9,0-83.7,0c0,27.2,0,54.1,0,81.1C572.3,201.6,600,201.6,628,201.6z"/>
		<path class="st2" d="M879.7,225.9c-15.5,0-31,0.3-46.4-0.1c-13.8-0.3-20.7-7.3-21-21.3c-0.4-20-0.2-40-0.3-59.9
			c0-7.8-0.1-15.7,0.1-23.5c0.4-16.9,6.8-23.9,23.6-24.2c29.3-0.4,58.6-0.1,87.9-0.1c2.6,0,5.3,0.5,7.9,1.1
			c8.6,1.8,13.8,7,15.2,15.7c0.5,3.3,0.7,6.6,0.7,9.9c0.1,24.8,0,49.6,0,74.4c0,4,0.1,7.9-0.9,11.9c-2.5,10.1-7.8,15.2-18.4,15.8
			c-10,0.5-20,0.3-30,0.4c-6.2,0-12.3,0-18.5,0C879.7,226,879.7,226,879.7,225.9z M922,201.6c0-27.3,0-54,0-81.1
			c-28.2,0-56.2,0-84.4,0c0,27.2,0,54,0,81.1C865.7,201.6,893.6,201.6,922,201.6z"/>
		<path class="st2" d="M382.5,96.8c4.7,0,9.2,0,13.7,0c25.7,0,51.3,0,77,0c4,0,8,0.1,11.9,1c7.2,1.5,12.4,5.4,14.6,12.6
			c1.1,3.5,1.5,7.1,1.5,10.8c0,10.5,0,21,0,31.5c0,1,0,2,0,3c-0.6,13.8-7,20.4-20.7,21c-5.6,0.3-11.3,0.6-17.5,1
			c16.2,15.9,32.4,31.7,49.4,48.3c-12.5,0-23.9,0-35.3,0c-2.2,0-3.1-1.7-4.3-3.1c-12.7-14.1-25.4-28.1-38.1-42.3
			c-2.4-2.6-4.7-4.1-8.5-3.9c-6.1,0.4-12.3,0.1-18.9,0.1c0,16.5,0,32.7,0,49.1c-8.5,0-16.4,0-24.8,0
			C382.5,183.1,382.5,140.3,382.5,96.8z M407.4,155c7.2,0,14,0,20.8,0c12.8,0,25.6,0,38.4-0.1c7.1-0.1,9.4-2.7,9.6-9.8
			c0.1-4.8,0.1-9.6,0-14.5c-0.1-8.7-2.3-11-10.9-11c-18-0.1-35.9-0.1-53.9-0.1c-1.3,0-2.7-0.5-4,0.7
			C407.4,131.5,407.4,142.9,407.4,155z"/>
		<path class="st2" d="M794,139.8c-8.7,1.6-16.9,3.1-25.6,4.7c0-8,0-15.8,0-24c-23.2,0-46,0-69,0c0,27,0,53.9,0,81
			c22.9,0,45.6,0,68.7,0c0-9.1,0-18,0-27.5c8.9,2.2,17.2,4.2,25.8,6.4c-0.1,9.8,0.7,19.3-0.8,28.7c-1.7,10.1-7.2,15.2-17.6,16.6
			c-3.4,0.5-7,0.5-10.5,0.5c-21.8,0-43.6,0-65.5,0c-2.2,0-4.3-0.1-6.5-0.3c-12.2-1.3-18.5-7.8-19-20.1c-1-25.8-0.2-51.6-0.4-77.4
			c0-4.3,0.2-8.7,0.5-13c0.8-9.4,5.6-14.9,14.7-17.1c3.9-0.9,7.8-1.4,11.9-1.4c22,0,44,0,66,0c4.2,0,8.3,0.6,12.3,1.5
			c8.1,1.8,12.5,7.3,13.9,15.1C794.6,122,794.1,130.7,794,139.8z"/>
		<path class="st2" d="M994.7,175.7c0,17.1,0,33.5,0,50.2c-8.3,0-16.3,0-24.6,0c0-42.9,0-85.8,0-128.7c1-0.9,2.2-0.5,3.3-0.5
			c29,0,58,0,87,0c4,0,8,0.1,11.9,0.9c9.3,1.8,15.2,7.8,15.9,17.2c1,14.5,1.1,29-0.1,43.4c-0.9,10.5-8.8,17.1-20.8,17.3
			c-11.8,0.3-23.7,0.1-35.5,0.1C1019.7,175.7,1007.6,175.7,994.7,175.7z M995.1,152.8c0.9,0.9,1.8,0.8,2.6,0.8c18.2,0,36.3,0,54.5,0
			c1.6,0,3.3-0.4,4.9-0.6c3.8-0.5,5.9-2.7,6.3-6.6c0.8-6.5,0.8-13,0.1-19.4c-0.6-4.9-2.6-6.6-7.4-7.2c-1.5-0.2-3-0.2-4.5-0.2
			c-18,0-36,0-54,0c-1,0-2-0.2-2.6,0.5C995.1,131.2,995.1,142.1,995.1,152.8z"/>
		<path class="st2" d="M256.6,96.8c7.2,0,14.1,0,20.9,0c23.2,0,46.3,0,69.5,0c3.7,0,7.3,0,10.9,0.7c10.8,2,16.8,7.8,17.2,18.7
			c0.5,13.5,0.6,27,0,40.5c-0.5,11.7-8.6,18.8-20.9,18.9c-21.3,0.2-42.7,0.1-64,0.1c-2.7,0-5.3,0-8.6,0c0,16.8,0,33.3,0,50.1
			c-8.7,0-16.7,0-25.1,0C256.6,182.9,256.6,140.1,256.6,96.8z M281.8,119.5c0,11.8,0,22.8,0,34c19.9,0,39.3,0,58.8,0
			c1.1,0,2.3-0.4,3.4-0.6c4.2-1,6-2.9,6.2-7.1c0.2-5,0.2-10,0.2-15c-0.1-9.1-2.3-11.3-11.6-11.3c-12.8,0-25.6,0-38.4,0
			C294.3,119.5,288.1,119.5,281.8,119.5z"/>
		<path class="st2" d="M1095.4,96.9c8.3,0,16.3,0,24.2,0c0.9,3.9,1.2,119.6,0.3,129.2c-4,0-8.1,0-12.2,0c-4,0-8,0-12.3,0
			C1095.4,183.1,1095.4,140.2,1095.4,96.9z"/>
		<path class="st2" d="M698.4,262.4c4.1-1.3,6.6-0.2,8.9,3.3c10.2,15.5,20.8,30.8,31.2,46.2c0.7,1,1.1,2.5,3,2.8
			c6.5-9.6,13.2-19.3,19.7-29c4.4-6.5,8.8-13,13.2-19.4c3.1-4.5,3.1-4.5,9.3-3.9c0,29.9,0,59.8,0,90c-1.8,0.9-3.9,0.3-6.5,0.4
			c0-25.7,0-51.2,0-76.8c-0.3-0.1-0.7-0.2-1-0.4c-11.6,16.8-23.2,33.6-35.3,51.1c-11.9-17.2-23.4-33.9-34.9-50.6
			c-0.3,0.1-0.6,0.1-1,0.2c0,25.3,0,50.5,0,75.8c-2.5,0.9-4.4,0.4-6.6,0.6C698.4,322.6,698.4,292.7,698.4,262.4z"/>
		<path class="st2" d="M991.4,262.4c4.9-1.6,7.3,0.9,9.9,4.1c19.2,24.4,38.6,48.7,58.6,73.9c0-26.6,0-52.3,0-77.9
			c2.4-0.9,4.3-0.7,6.5-0.3c0,30,0,59.9,0,90c-3.4,1.4-5.6,0-7.8-2.8c-19.2-24.5-38.5-48.8-57.8-73.2c-0.6-0.8-1.3-1.4-2.9-3
			c-0.8,14-0.3,27-0.4,40c-0.1,13,0,26,0,39.2c-2.1,0.7-4,0.3-6.2,0.3C991.4,322.5,991.4,292.4,991.4,262.4z"/>
		<path class="st2" d="M675.3,307.5c0.8,20.1-13.3,40.4-34.4,45.6c-29,7.1-56.5-14.1-56.8-43.9c-0.2-17.2,5.9-31.2,20.1-41.2
			c18.9-13.4,52.4-10.6,66.1,16.8C674.3,293,675.3,298.2,675.3,307.5z M668.2,307.5c0.2-2.7-0.3-6-0.9-9.3c-0.6-3-1.6-5.8-2.7-8.5
			c-9.6-23.6-41.9-30.7-60.4-13.3c-10.5,9.9-14.4,22.2-12.8,36.1c1.8,15.3,9.5,27,24,32.8C641.7,355.8,668.2,336.8,668.2,307.5z"/>
		<path class="st2" d="M1136.4,346.7c19.5,0,38.6,0,57.7,0c0.6,2.1,0.7,3.9,0.1,5.8c-21.5,0-42.9,0-64.7,0c0-30,0-60,0-90.4
			c21.3,0,42.6,0,63.9,0c1,1.8,0.4,3.6,0.6,5.9c-19.4,0-38.4,0-57.8,0c0,12.1,0,23.7,0,35.7c17.1,0,34.1,0,51.2,0
			c0.9,2.1,0.6,3.9,0.4,6.1c-17.1,0-34.2,0-51.5,0C1136.4,322.2,1136.4,334.1,1136.4,346.7z"/>
		<path class="st2" d="M817.7,318.9c0,11.4,0,22.3,0,33.4c-2.3,0.8-4.2,0.4-6.5,0.5c0-30.2,0-60.2,0-90.2c0.3-0.2,0.5-0.5,0.8-0.5
			c13.6-0.1,27.3-1.4,40.9,0.7c24.5,3.8,29,25.4,21.7,40.1c-4.3,8.7-12.2,12.8-21.3,15c-5.7,1.4-11.6,1-17.4,1.1
			C830.1,318.9,824.1,318.9,817.7,318.9z M817.7,312.7c8.8,0,17.4,0,26.1,0c2.9,0,5.6-0.6,8.4-1.1c10.9-2,18.4-10.6,18.6-21.4
			c0.2-10.6-6.8-18.7-18.2-20.9c-2.8-0.5-5.6-0.9-8.4-0.9c-7.8-0.1-15.6,0-23.4-0.1c-1,0-2,0-2.9,1
			C817.7,283.5,817.7,297.9,817.7,312.7z"/>
		<path class="st2" d="M972.1,352.6c-2.8,0-4.9,0-7.5,0c-3.3-7.2-6.8-14.5-10.1-21.9c-0.8-1.7-1.3-3.2-3.7-3.2c-17,0.1-34,0-51.2,0
			c-3.8,8.4-7.6,16.7-11.4,24.9c-2.3,0.4-4.5,0.4-7.1,0c3.6-8,7.1-15.8,10.7-23.5c10-21.6,20.1-43.1,30-64.7c1-2.2,2.2-2.9,4.4-2.9
			c2.4,0,4.3,0.2,5,2.9c0.2,0.8,0.7,1.5,1.1,2.2C945.5,295,958.7,323.5,972.1,352.6z M950.1,321c-7.9-17.3-15.6-34.2-23.7-51.9
			c-8.1,17.8-15.8,34.5-23.7,51.9C918.8,321,934.2,321,950.1,321z"/>
		<path class="st2" d="M1215.2,334.7c6.7,5.6,13.5,10.5,22.1,12.2c7.4,1.5,14.9,1.8,22-1.2c6.2-2.6,10.4-7.1,11-14.2
			c0.7-8.1-2.1-12.7-9.5-16.2c-5-2.4-10.3-3.6-15.7-4.8c-6.5-1.4-12.9-3-18.9-6.1c-7.9-4.2-12.2-10.5-12-19.7
			c0.2-9.2,4.6-15.9,12.6-20.1c14.5-7.7,34.5-4.6,47.7,7.2c-1.2,1.6-2.4,3.3-3.8,5.1c-4.4-2.8-8.3-5.9-13.1-7.6
			c-8.4-2.8-16.8-3.8-25.3-0.4c-6.5,2.7-10.7,7.2-11.2,14.5c-0.5,7.7,3.5,12.4,10.1,15.5c6.1,2.8,12.6,4.2,19.1,5.6
			c5.5,1.2,10.8,3.1,15.9,5.7c15.4,7.8,14.2,30,0.7,38.6c-5.8,3.7-12.1,5.1-18.9,5.2c-14.8,0.3-27.7-4.7-37.2-14.6
			C1212,337.7,1213.5,336.3,1215.2,334.7z"/>
		<path class="st2" d="M571.1,275.2c-1.6,1.7-2.9,3.1-4.6,5c-10.1-9.9-21.8-15.1-35.8-13.1c-9.7,1.3-18,5.8-24.1,13.6
			c-13.4,16.9-11.6,43.1,4,57.7c12.6,11.8,36.4,16,56.5-3.9c1.8,0.8,3.2,2.2,4.3,3.9c-13.8,18-44.3,22.2-64,6.4
			c-20.9-16.7-22.8-50.6-3.8-70.8C521.1,255.3,553.5,256,571.1,275.2z"/>
		<path class="st2" d="M410.6,82.6c0-20.2,0-40.1,0-60.4c14.4,0,28.8,0,43.3,0c0.5,1.2,0.5,2.4-0.3,3.9c-12.5,0-25.2,0-38.1,0
			c0,7.8,0,15.4,0,23.6c11.2,0,22.6,0,33.4,0c1.7,1.7,1.4,2.9,0.8,4.6c-11.2,0-22.5,0-34.2,0c0,8.2,0,16.1,0,24.2
			c12.7,0,25.5,0,38,0c1.2,1.5,1.2,2.7,0.4,4.1C439.6,82.6,425.2,82.6,410.6,82.6z"/>
		<path class="st2" d="M392,82.5c-1.4,0.7-2.7,0.4-4.3-0.1c0-9.1,0-18.2,0-27.7c-13.1,0-25.8,0-39,0c0,9.2,0,18.3,0,27
			c-1.6,1.6-3,1.1-4.6,0.7c0-20.1,0-40.2,0-60.3c1.5-0.8,2.7-0.6,4.4,0c0,9,0,18.1,0,27.5c13.1,0,25.8,0,39,0c0-9.1,0-18.2,0-26.8
			c1.5-1.7,2.9-0.8,4.5-1.3C392,42,392,62.1,392,82.5z"/>
		<path class="st2" d="M1095.2,262c2.3,0,4.1-0.3,5.8,0.2c0.7,3.7,0.9,83.8,0.2,90.3c-1.9,0-3.8,0-6,0
			C1095.2,322.4,1095.2,292.4,1095.2,262z"/>
		<path class="st2" d="M309.3,82.2c-2,1-3.2,0.6-4.9,0.4c0-18.7,0-37.3,0-56.2c-7.1,0-13.8,0-20.1,0c-1.9-1.4-1-2.8-1.2-4.3
			c15.7,0,31.1,0,46.8,0c0.8,1,0.5,2.3,0.1,4c-6.7,0-13.4,0-20.6,0C309.3,45,309.3,63.6,309.3,82.2z"/>
	</g>
</g>
</svg>
