<?xml version="1.0" encoding="utf-8"?>
<!-- Generator: Adobe Illustrator 24.3.0, SVG Export Plug-In . SVG Version: 6.00 Build 0)  -->
<svg version="1.1" id="Layer_1" xmlns="http://www.w3.org/2000/svg" xmlns:xlink="http://www.w3.org/1999/xlink" x="0px" y="0px"
	 viewBox="0 0 998.4 527.5" style="enable-background:new 0 0 998.4 527.5;" xml:space="preserve">
<style type="text/css">
	.st0{fill:#030303;}
	.st1{fill:#CF2230;}
</style>
<g>
	<path class="st0" d="M443,236c0,42,0,84,0,125.9c0,15.7-0.1,31.3-0.4,47c-0.1,3.8,1.1,4.8,4.7,4.6c6.8-0.3,13.7-0.1,20.5-0.1
		c3.7,0,6.3,1.2,6.2,5.4c-0.1,4-2.5,5.3-6.3,5.3c-33.2-0.1-66.3-0.1-99.5,0c-3.9,0-6-1.4-6.1-5.4c-0.1-4.4,2.6-5.1,6.3-5
		c7,0.1,14-0.1,21,0.1c2.9,0.1,4-0.5,4-3.8c-0.1-85.3-0.1-170.6-0.2-255.9c0-27.8-0.2-55.6-0.1-83.5c0-3.8-0.8-5.2-4.9-5
		c-6.8,0.4-13.7,0.1-20.5,0.1c-3.3,0-5.5-1.1-5.6-4.8c0-3.6,1.6-5.5,5.4-5.5c23.2,0.1,46.3,0,69.5,0.1c4.9,0,5.9,1.4,5.9,7.5
		c0,42.3,0,84.6,0,126.9C443,205.3,443,220.6,443,236z"/>
	<path class="st0" d="M571.1,192.3c0,24.3,0.1,48.6-0.1,72.9c0,3.8,1,4.7,4.7,4.6c10.8-0.3,21.7-0.2,32.5-0.1
		c7.9,0.1,10.1,2,10.8,9.8c0.5,5.6,1,11.3-0.7,16.9c-2,6.4-5.9,7.5-10.3,2.5c-6.7-7.5-13.2-14.8-23.8-17.2
		c-13.2-3-13.1-3.3-13.1,9.9c0,33.3,0,66.6,0,99.9c0,4.5,0,9,1.4,13.4c2.5,8.3,8.9,11.4,17.2,8.4c5.9-2.2,10.6-6.2,15.5-9.9
		c1.2-0.9,2.4-1.8,3.6-2.7c2.1-1.5,4.4-3.9,7-1.6c2.6,2.3,1.3,5.3,0,7.8c-1.2,2.4-3,4.4-5.1,6.1c-18.6,15.3-39.7,18.8-62.4,12.4
		c-16.5-4.6-23.6-17.3-25.9-33.3c-0.7-4.9-1-9.9-1-14.9c0.1-30.6,0-61.3,0.1-91.9c0-4-0.6-5.5-5-5.3c-8.3,0.4-16.7,0-25,0.2
		c-3.7,0.1-5.6-1.5-5.7-5.3c-0.1-3.9,2-5.3,5.7-5.2c8.7,0.1,17.3-0.1,26,0.1c2.8,0.1,4-0.4,4-3.7c-0.1-46.8-0.1-93.6,0-140.4
		c0-3-1.1-3.5-3.7-3.5c-7.5,0.1-15-0.2-22.5,0c-3.3,0.1-4.6-1.4-4.8-4.3c-0.2-3.1,1.2-5.2,4.4-5.5c3-0.3,6-0.2,9-0.3c20,0,40,0,60,0
		c6.4,0,7.3,0.9,7.3,7.1C571.1,143.7,571.1,168,571.1,192.3z"/>
	<path class="st0" d="M86.2,267.6c11.7-31.6,23.4-63.3,35.2-94.9c20.3-54.6,40.7-109.3,61-163.9c1.5-3.9,2.7-9,7.5-8.9
		c4.9,0.1,5.1,5.5,6.2,9.2c22.1,75.9,44.1,151.9,66.2,227.8c0.1,0.3,0.1,0.7,0.1,1c-18.4-1.5-36.8-0.6-55.1,0.4
		c-12.7-43.8-25.4-87.6-38.1-131.4c-0.5,0.1-0.9,0.2-1.4,0.3c-0.5,1.5-1.1,3.1-1.6,4.6c-6.1,18.6-12.3,37.2-18.4,55.8
		c-9.7,29.5-19.4,59-29,88.5C107.9,260,97.1,263.8,86.2,267.6z"/>
	<path class="st0" d="M905.3,404c-11.7,11.3-24.8,19.2-40.6,21.6c-11.5,1.7-23,0.9-34-3.1c-19-6.9-26-22-27.4-40.8
		c-2.2-29.6,12.6-49,37.8-61.7c19.2-9.7,39.5-12.5,60.6-7.3c2.7,0.7,3.9,0.7,3.8-2.7c-0.2-8.3-0.2-16.7,0-25
		c0.1-2.7-0.8-3.9-3.4-4.3c-17.9-2.9-34.9-0.8-50.4,9c-7.4,4.7-14.4,10.2-21.6,15.3c-3.7,2.7-5.8,2.3-7-1.9
		c-4.2-15-2.2-29.6,16.1-33.4c23.6-4.9,47.6-6.6,71.4-2.3c28.8,5.2,43.5,22.9,44.2,53c0.6,26,0.2,52,0.3,77.9c0,4.4-0.8,9.6,4.1,12
		c5.3,2.6,9.7-0.6,13.6-3.7c4.3-3.4,8.4-7.1,12.4-10.8c2.2-2,4.4-2.4,6.7-0.8c2.5,1.7,3.2,4.1,2.1,7c-1.6,4.2-4.3,7.5-7.7,10.3
		c-19.5,16-41.4,17.5-64.4,9.8C913.5,419.1,909.4,413.9,905.3,404z M905.4,355.6c0-7.2-0.2-14.3,0.1-21.5c0.1-2.9-1-4.6-3.4-6
		c-9-5.7-19-5.8-29-4.6c-10.2,1.2-13.6,4.7-15,14.8c-2.9,20.7-2.1,41.5-0.9,62.3c0.5,9.4,4.9,12.5,14,9.8
		c12.3-3.6,21.3-11.9,29.3-21.5c3.5-4.3,5.2-9.1,5-14.8C905.3,367.9,905.4,361.8,905.4,355.6z"/>
	<path class="st0" d="M713.7,295.7c12.3-21.8,33.3-23.7,54.6-24.3c5.2-0.1,7.1-1.4,6.2-6.5c-0.3-1.6,0-3.3,0-5c0-3.6,2-4.9,5.5-4.9
		c3.3,0,5,1.6,5,4.9c0,5.2,0,10.3,0,15.5c0,19,0,38,0,57c0,3.7-0.5,6.7-5.1,6.8c-4.6,0.1-5.4-2.6-5.4-6.5
		c-0.1-10.8-2.2-21.2-8.6-30.2c-5.5-7.7-12.5-13-22.5-12.5c-8.6,0.4-14.5,5.3-18.9,12.2c-7.1,11.1-10.2,23.5-11,36.4
		c-1.6,24-0.3,48-0.7,71.9c-0.1,3.4,1.8,3.3,4.1,3.3c10.2,0,20.3,0,30.5,0c3.6,0,6.9,0.3,6.9,5.1c-0.1,4.4-2.9,5.4-6.7,5.4
		c-36.3-0.1-72.6-0.1-109,0c-4.1,0-6.4-1.4-6.3-5.7c0-4.4,3-4.9,6.5-4.8c7,0.1,14,0,21,0.1c2.6,0,3.8-0.3,3.8-3.4
		c-0.1-41.6-0.1-83.3,0-124.9c0-3.4-1.2-3.8-4.1-3.7c-7.2,0.2-14.3,0-21.5,0.1c-3.7,0.1-5.6-1.5-5.7-5.3c-0.1-3.9,2-5.3,5.6-5.2
		c23,0,46,0,69,0c4.2,0,6.1,1.8,6.1,6c-0.1,6,0,11.9,0,17.9C713,295.3,713.4,295.5,713.7,295.7z"/>
	<path class="st0" d="M283,307.4c5.6,19.7,11.1,39.3,16.8,59c4.1,14.4,8.4,28.7,12.5,43.1c0.8,2.7,1.8,3.7,4.8,3.6
		c8.7-0.2,17.3,0,26-0.1c3.5,0,6.4,0.6,6.4,5c0,4.5-2.7,5.4-6.6,5.4c-38-0.1-75.9,0-113.9,0c-3.8,0-6.6-0.8-6.6-5.4
		c0-4.9,3.2-5.1,6.8-5.1c8.2,0,16.3-0.2,24.5,0.1c4,0.1,4.2-1,3.1-4.5c-12.4-42.3-24.6-84.6-36.8-126.9c-1.9-6.5-3.7-13.1-5.6-19.7
		c7-1.7,14.1-1.8,21.2-1.9c11.3-0.3,22.6-0.9,33.8,1c4.3,14.7,8.6,29.4,12.9,44.1C282.5,305.9,282.8,306.7,283,307.4z"/>
	<path class="st1" d="M283,307.4c-0.3-0.7-0.5-1.5-0.8-2.2c7.1-4.7,13.7-10.1,18.7-17.1c6.8-9.4,5.1-16.2-5.5-21.2
		c-8.2-3.9-17-5.5-26.1-5.9c-11.2-1.8-22.5-1.2-33.8-1c-7.1,0.2-14.2,0.3-21.2,1.9c-14.7,0.6-29.1,3.3-43.4,6.1
		c-20.9,4-41.6,8.9-61.7,16.2c-11.6,3.6-23.1,7.7-33.8,13.6c-10.8,4.4-20.8,10.3-29.4,18.3c-1.8,1.7-3.5,3.6-4.9,5.6
		c-4.6,6.8-3.5,11.9,3.6,16.2c4.3,2.6,8.8,4.6,13.6,6c0,2.2-0.4,4.3-2.5,5.5c-9.1-1.9-17.5-5.3-24.6-11.3
		c-9.5-8.1-11.2-18.3-4.7-28.9c6.8-11.1,17.2-18.3,27.9-25.1c10.1-6.4,21.2-11.1,31.8-16.5c10.8-3.8,21.7-7.7,32.5-11.5
		c17.5-5,35.1-9.7,53.2-12.6c11.8-1.9,23.6-3.5,35.4-5.2c18.4-0.9,36.7-1.9,55.1-0.4c10.4,1.4,20.8,2.7,30.8,6.1
		c5.2,1.8,10.2,3.9,14.7,7.2c10.6,7.6,12.8,18,6,29.2c-5.2,8.6-12.8,14.8-20.8,20.5C289.9,303.4,286.4,305.3,283,307.4z"/>
	<path class="st0" d="M55.8,349.5c2.1-1.2,2.5-3.3,2.5-5.5c5.7-15.4,11.4-30.7,17.1-46.1c10.8-5.8,22.2-10,33.8-13.6
		c-10.8,33.2-21.6,66.3-32.3,99.6c-2.6,8.2-4.5,16.7-6.1,25.2c-0.6,3.1,0.1,4.1,3.4,4c9-0.2,18,0,27-0.1c3.7,0,6.3,0.9,6.2,5.3
		c-0.1,4.2-2.7,5.2-6.3,5.2c-31.7,0-63.3-0.1-95,0c-4,0-6.1-1.8-6.1-5.5c0-3.7,2.6-5,6.1-4.9c6.2,0.1,12.3-0.1,18.5,0.1
		c2.1,0,3.4-0.6,4.3-2.5c9.8-19.4,18.9-39.2,26.7-59.6C55.8,350.5,55.7,350,55.8,349.5z"/>
	<path class="st0" d="M761,475.4c0-5.8,0.2-11.7-0.1-17.5c-0.1-3.2,1.4-3.3,3.9-3.4c2.7-0.1,3.8,0.6,3.7,3.6
		c-0.2,9.5-0.1,19-0.1,28.5c0,3.7,0.3,7.3,1.3,10.9c1.8,6,6.2,9.3,12.1,9.4c6.1,0,10.7-3.3,12.6-9.3c1.3-4.2,1.2-8.5,1.2-12.9
		c0-8.8,0.2-17.7-0.1-26.5c-0.1-3.6,1.7-3.5,4.3-3.6c2.8-0.1,3.7,0.8,3.6,3.6c-0.2,11.5,0.2,23-0.4,34.4
		c-0.8,15.9-14.4,24.6-29.3,19.4c-8.3-2.9-11.7-9.6-12.4-17.6c-0.6-6.3-0.1-12.6-0.1-19C761.2,475.4,761.1,475.4,761,475.4z"/>
	<path class="st0" d="M375.3,506.4c-5.9,6.3-12.3,9.1-20.3,5.5c-9-4-13.3-15-10.5-27c2.2-9.6,9.9-15.3,19.6-14.9
		c4,0.2,7.1,2.3,10.8,5c0-7.2,0.2-13.6-0.1-20c-0.2-3.4,1.7-3.2,4-3.2c2.5-0.1,3.9,0.2,3.8,3.4c-0.1,18.1,0.1,36.3,0.2,54.4
		c0,1.7-0.2,3.1-2.3,2.7c-1.7-0.3-4.3,1.3-4.8-2C375.5,509.2,375.4,508.1,375.3,506.4z M374.7,491.3
		C374.7,491.3,374.7,491.3,374.7,491.3c0.1-1.5,0.2-3,0.1-4.5c-0.5-5.9-4.1-10-9.3-10.7c-5.4-0.8-9.9,1.9-12.2,7.3
		c-2.4,5.5-2.3,11,0.1,16.5c2.2,4.9,6.8,7.5,11.6,6.9c4.9-0.7,9.1-4.8,9.7-10C374.9,495,374.7,493.1,374.7,491.3z"/>
	<path class="st0" d="M677.1,506.6c-8.8,7.9-15.5,9-23.2,3.8c-7.6-5.1-10.8-16.8-7.4-27c2.9-8.9,10.2-13.9,19.3-13.3
		c3.9,0.3,7.1,2.1,10.5,5.3c0-7.2,0.2-13.5-0.1-19.8c-0.2-3.3,1-3.9,3.9-3.8c2.8,0,4.1,0.4,4,3.7c-0.1,17.6,0,35.3,0.1,52.9
		c0,2.3,0.4,4.1-3.1,4c-2.9-0.1-4.4-0.7-4-3.8C677.4,508,677.2,507.3,677.1,506.6z M676.4,491.5c0-1.3,0-2.7,0-4
		c-0.1-5.9-3.4-10.2-8.6-11.3c-5.3-1.1-10.6,1.6-12.9,7.1c-2.4,5.8-2.4,11.7,0.4,17.4c2.3,4.7,7.3,7,12,6c5.1-1.1,8.7-5.4,9-10.6
		C676.4,494.5,676.4,493,676.4,491.5z"/>
	<path class="st0" d="M563.9,453.8c3.9-0.1,7.5,0.4,11.1,1.4c2.6,0.7,2.3,2.1,1.6,4.1c-0.7,2-0.9,3.3-3.7,2.2
		c-4.4-1.7-9.1-2-13.8-1.1c-11.9,2.4-18.3,11.9-17.2,25.9c0.9,12.1,8.5,19.5,20.6,20c3.5,0.1,7-0.2,10.3-1.3
		c1.5-0.5,3.3-1.7,3.5,1.3c0.1,1.7,2.1,3.7-1.3,4.8c-14.1,4.5-31.6,1.7-38.6-12.8c-7.1-14.7-1.9-33.5,11.3-40.8
		C552.9,454.7,558.4,453.6,563.9,453.8z"/>
	<path class="st0" d="M892.9,469.9c11.8,0,19.9,8.5,20,20.9c0.2,12.8-9,22.6-21.1,22.4c-11.4-0.1-19.6-9-19.7-21.4
		C872.2,478.7,880.6,469.8,892.9,469.9z M904.9,490.8c-0.4-1.9-0.6-4.1-1.2-6.1c-1.8-5.8-5.8-9-11.1-9c-5.4,0-9.3,2.9-11.4,8.7
		c-1.4,3.9-1.5,7.8-0.7,11.8c1.3,6.5,6.1,11,11.7,11.1c5.8,0.1,10.7-4.5,12.1-11.2C904.5,494.4,904.6,492.7,904.9,490.8z"/>
	<path class="st0" d="M325.4,493c-3.7,0-7.3,0.2-11-0.1c-3.3-0.2-3.5,1.3-3,3.9c1.2,5.7,5.9,9.6,12.1,10.2c3.5,0.3,7-0.1,10.3-1.3
		c1.8-0.6,2.9-0.6,3.2,1.4c0.3,1.6,1.1,3.2-1.3,4c-10.2,3.6-22.4,2.8-28.6-6c-6-8.5-4.5-23.5,2.9-30.5c5.4-5,14.6-6.4,20.9-3.1
		c5.9,3.1,9.8,11.5,9.1,18.8c-0.2,2.3-1.3,2.7-3.2,2.6C333.1,492.9,329.3,493,325.4,493z M321.7,487.3c2.7,0,5.3-0.2,8,0
		c3,0.2,3.3-1.2,2.8-3.6c-1.1-4.7-3.7-7.9-8.6-8.4c-5-0.6-8.5,2-10.8,6.5c-2.5,5-2.2,5.5,3.2,5.5
		C318.1,487.3,319.9,487.3,321.7,487.3z"/>
	<path class="st0" d="M627.2,493c-3.7,0-7.3,0.2-11-0.1c-3.2-0.2-3.5,1.2-3,3.8c1.2,6,6.2,10,13,10.3c3.4,0.1,6.7-0.2,9.8-1.5
		c1.9-0.7,2.4,0.1,2.8,1.6c0.3,1.3,1.4,3-0.7,3.8c-11.3,4.5-27.5,3.3-31.8-11.5c-2.2-7.5-1.4-14.8,3-21.5c4.6-7,13.7-10,21.6-7.1
		c7,2.6,12,11.4,11,19.4c-0.2,2-0.9,2.9-3.1,2.8C634.9,492.9,631,493,627.2,493z M624.2,487.3c2.3,0,4.7-0.2,7,0
		c3.4,0.3,3.5-1.5,2.9-3.9c-1.2-4.4-3.8-7.5-8.4-8.1c-4.6-0.6-8.1,1.4-10.4,5.3c-1.1,1.8-2.7,4-1.6,6c0.9,1.6,3.4,0.5,5.1,0.6
		C620.5,487.4,622.3,487.3,624.2,487.3z"/>
	<path class="st0" d="M478.9,508c-5.2,3.8-10.3,7.2-17,4.7c-4.8-1.8-7.8-5.2-8.2-10.3c-0.5-5,1.3-9.2,5.5-12.1c4.4-3,9.4-4,14.6-4.3
		c4.8-0.3,5.9-2.4,3.3-6.6c-2.8-4.5-7.3-3.9-11.6-3.3c-1.6,0.2-3.3,0.7-4.8,1.4c-1.3,0.6-2.5,1.2-3.1-0.7c-0.5-1.5-1.7-3.2,0.7-4.2
		c6.8-2.9,13.8-4.2,20.7-0.7c6.1,3,7.1,8.8,7.2,14.8c0.1,7.3,0.2,14.6,0.1,22c0,1.3,1.6,3.7-1.5,3.7c-2.2,0-5.4,1.3-5.4-2.9
		C479.4,508.9,479.1,508.5,478.9,508z M478.5,496c-0.8-1.3,1.7-4.5-2.1-4.7c-4.1-0.1-8.3,0.4-11.8,2.9c-3.3,2.5-4.3,5.8-2.3,9.6
		c1.8,3.5,4.8,4.2,8.4,3.3C475.9,506,478.5,502.4,478.5,496z"/>
	<path class="st0" d="M410.8,493c-3.8,0-7.7,0.1-11.5,0c-2.3-0.1-2.8,0.7-2.4,3c1,6.2,5.7,10.5,12.4,11c3.4,0.3,6.7-0.2,9.9-1.2
		c1.8-0.6,2.9-1,3.5,1.5c0.6,2.2,0.5,3.1-1.8,4.1c-9.8,3.8-21.2,1.9-26.9-4.7c-5.8-6.6-6.6-18.9-1.8-27.3c4.6-8,13.8-11.6,22.3-8.7
		c7.4,2.6,12.2,11.2,11.2,19.8c-0.2,2-1,2.5-2.8,2.5C418.8,492.9,414.8,493,410.8,493z M407.6,487.3c2.5,0,5-0.2,7.5,0
		c3.2,0.3,3.6-1.2,2.9-3.9c-1.3-4.3-3.7-7.5-8.4-8.1c-4.6-0.6-8.1,1.4-10.4,5.3c-1.1,1.8-2.7,4-1.6,6c0.9,1.6,3.4,0.5,5.1,0.6
		C404.2,487.4,405.9,487.3,407.6,487.3z"/>
	<path class="st0" d="M820.3,476.8c3.3-3.8,6.6-6,10.6-6.6c9.5-1.5,16.8,4.2,17.4,14c0.5,8.5,0,17,0.2,25.5c0.1,3.5-2.2,2.5-4,2.6
		c-2,0.1-3.9,0.4-3.8-2.8c0.2-7.2,0.1-14.3,0-21.5c-0.1-7.7-3.5-11.9-9.2-11.8c-6,0.1-10.3,5.1-10.4,12.2
		c-0.1,6.8-0.2,13.7,0.1,20.5c0.1,3.4-1.7,3.3-4,3.2c-2-0.1-3.9,0.4-3.9-2.9c0.1-12,0-24-0.2-36c0-1.7,0.4-2.7,2.1-2.3
		c1.6,0.3,3.9-1.3,4.6,1.5C820,473.6,820,474.8,820.3,476.8z"/>
	<path class="st0" d="M926.4,476.2c3.1-2.9,6-5.1,9.7-5.9c8.8-2.1,16.7,2.9,18.1,11.9c1.4,9.2,0.4,18.6,0.5,27.9
		c0.1,3.5-2.9,1.8-4.5,2.1c-1.7,0.3-3.2,0.2-3.2-2.4c0.1-6.5,0.1-13,0-19.5c0-1.7,0-3.3-0.2-5c-1-6.1-4.2-9.3-9.3-9.2
		c-5.3,0.1-10.1,4.6-10.3,10.3c-0.2,7-0.2,14,0,21c0.1,3,0.1,4.8-4,4.8c-4.3,0-3.8-2.4-3.8-5.1c0-10.3-0.2-20.6-0.1-31
		c0-1.9-2.3-5.1,2.5-5.4C925.9,470.6,926.7,472.5,926.4,476.2z"/>
	<path class="st0" d="M270.5,483.4c0-8.3,0.1-16.6-0.1-25c-0.1-3.1,0.9-4,3.9-3.9c8,0.2,16,0.2,24,0c2.6-0.1,3.4,0.7,3.4,3.3
		c0,2.6-0.8,3.4-3.4,3.3c-5.5-0.2-11,0.1-16.5-0.1c-2.9-0.1-3.8,0.9-3.5,3.7c0.5,4.9-2.1,11.3,1.1,14.3c2.9,2.8,9.2,0.3,14,0.9
		c2.3,0.3,6.5-2.6,6.5,3.1c0,2.3-0.5,3.3-3,3.2c-5-0.2-10,0.1-15-0.1c-2.9-0.1-3.7,0.9-3.6,3.7c0.2,6.3-0.1,12.7,0.1,19
		c0.1,3-1.1,3.6-3.8,3.5c-2.5-0.1-4.4,0.2-4.3-3.5C270.6,500.4,270.5,491.9,270.5,483.4z"/>
	<path class="st0" d="M720.1,461.3c0.1,0.9,0.2,1.4,0.2,1.9c0.2,7.5,0.2,7.5,7.4,7.8c1.8,0.1,3.6-0.4,3.6,2.6c0,2.7-0.9,3.3-3.5,3.4
		c-7.5,0.1-7.5,0.3-7.5,8c0,5-0.1,10,0.1,15c0.1,4.5,2.2,7.4,7.2,6.7c1.9-0.3,2.8,0,2.8,2.1c0,1.9,0.2,3.4-2.2,4.3
		c-7,2.3-14.5-2-14.9-9.3c-0.5-7.5-0.3-15-0.3-22.4c0-2.8-0.1-5-3.8-4.4c-2.3,0.4-2.7-1.1-2.7-3c-0.1-2.2,0.7-3,2.9-2.9
		c1.8,0.1,4.1,0.5,3.6-2.5C711.8,462.6,715.9,462.1,720.1,461.3z"/>
	<path class="st0" d="M503.2,482.2c0,8.8-0.2,17.6,0.1,26.4c0.1,3.3-1.2,3.7-4,3.8c-2.9,0-4-0.5-4-3.8c0.2-17.8,0.2-35.6,0-53.4
		c0-3.7,1.9-3.3,4.3-3.5c2.7-0.1,3.8,0.5,3.7,3.5C503.1,464.2,503.2,473.2,503.2,482.2z"/>
	<path class="st0" d="M590.4,476.7c3.4-3.4,6.2-6.4,10.8-6.6c1.8-0.1,3.6-0.1,3.1,2.4c-0.3,1.7,1.6,4.3-2.2,4.9
		c-7.5,1.1-10.6,4.7-10.8,12.3c-0.1,6.5-0.2,13,0,19.4c0.1,3.4-1.7,3.2-4,3.2c-2.4,0-4,0-3.9-3.3c0.2-11.5,0.1-22.9,0.1-34.4
		c0-2-0.6-3.9,2.7-3.8c2.7,0.1,4.6,0.3,4.2,3.6C590.3,475.2,590.4,476,590.4,476.7z"/>
	<path class="st0" d="M439.4,477.5c3.2-4.1,6-7.3,10.9-7.4c1.9,0,3.4,0.3,3,2.7c-0.3,1.8,1.4,4.3-2.4,4.7
		c-7.3,0.8-10.5,4.5-10.7,11.8c-0.2,6.6-0.2,13.3,0,19.9c0.1,3.5-1.8,3.1-4,3.2c-2.5,0.1-3.9-0.1-3.8-3.3c0.2-11.5,0.1-22.9,0-34.4
		c0-2.1-0.4-3.9,2.8-3.8c2.6,0.1,4.7,0,4.1,3.6C439,475.1,439.2,475.8,439.4,477.5z"/>
	<path class="st0" d="M701.4,491.3c0,6-0.2,11.9,0.1,17.9c0.2,3.3-1.7,3-3.7,2.9c-1.9-0.1-4,0.6-4-2.7c0.1-11.9,0.2-23.9,0-35.8
		c-0.1-3.7,2.3-2.7,4.3-2.9c2.5-0.3,3.5,0.5,3.4,3.2C701.2,479.7,701.4,485.5,701.4,491.3z"/>
	<path class="st0" d="M857.9,491.1c0-5.8,0.2-11.7-0.1-17.5c-0.1-3.2,1.7-3,3.8-2.9c1.9,0,3.9-0.5,3.9,2.8
		c-0.2,11.8-0.2,23.6,0,35.5c0,2.8-1.1,3.4-3.5,3.2c-2.1-0.2-4.3,0.5-4.1-3.1C858.1,503.1,857.9,497.1,857.9,491.1z"/>
	<path class="st0" d="M866.5,458.7c-0.2,3.2-2,4.8-5.2,4.7c-3.1-0.1-4.5-2.1-4.5-4.9c0.1-3.2,2-4.9,5.2-4.7
		C865.1,453.8,866.4,455.7,866.5,458.7z"/>
	<path class="st0" d="M702.4,458.6c0,3.1-1.8,4.7-4.9,4.8c-3,0-4.7-1.9-4.7-4.7c0-3,1.7-5.1,5-5
		C700.6,453.7,702.4,455.3,702.4,458.6z"/>
</g>
</svg>
