<?xml version="1.0" encoding="utf-8"?>
<!-- Generator: Adobe Illustrator 24.3.0, SVG Export Plug-In . SVG Version: 6.00 Build 0)  -->
<svg version="1.1" id="Layer_1" xmlns="http://www.w3.org/2000/svg" xmlns:xlink="http://www.w3.org/1999/xlink" x="0px" y="0px"
	 viewBox="0 0 159.8 60.1" style="enable-background:new 0 0 159.8 60.1;" xml:space="preserve">
<style type="text/css">
	.st0{fill-rule:evenodd;clip-rule:evenodd;fill:#81BD41;}
	.st1{fill-rule:evenodd;clip-rule:evenodd;fill:#CCDC29;}
	.st2{fill-rule:evenodd;clip-rule:evenodd;fill:#0A2246;}
</style>
<path class="st0" d="M157,5.8c-2.3-3.2-5.4-5-9.2-5.6s-7.3,0.3-10.4,2.6c-3.1,2.3-4.9,5.4-5.5,9.2c-0.3,2-0.2,3.9,0.2,5.7l6.3-4.7
	l-4.2-5.6H155l2-1.5C157.1,5.9,157,5.8,157,5.8"/>
<path class="st1" d="M157.2,6.1c2.2,3.2,3,6.7,2.4,10.5c-0.7,3.8-2.6,6.8-5.8,9s-6.6,3-10.4,2.3c-2-0.4-3.8-1-5.4-2l6.4-4.5l4,5.7
	l6.7-19.8l2-1.5C157.2,6,157.2,6,157.2,6.1"/>
<g>
	<path class="st2" d="M114.3,41.6c-1.2-1.5-2.8-2.3-4.9-2.3c-1.2,0-2.3,0.2-3.2,0.6c-0.9,0.4-1.9,1.1-3,2V28.5H97v31.2h6.1v-9.1
		c0-2.2,0.3-3.7,0.9-4.7s1.5-1.5,2.7-1.5c1,0,1.8,0.4,2.4,1.3c0.7,0.9,1,2,1,3.3v10.8h6V47.9C116.1,45.2,115.5,43.1,114.3,41.6z
		 M143.4,27.9c-2-0.4-3.8-1-5.4-2v33.9h6.4V28.1C144.1,28,143.7,28,143.4,27.9z M128.4,33v26.8h6.4V28.5L128.4,33z M119.1,47.5v12.3
		h6.3V42.9L119.1,47.5z M119.1,39.9v5.2l6.3-4.6v-5L119.1,39.9z"/>
	<g>
		<path class="st0" d="M84.7,39.8h2.6v2.9c0.8-1.1,1.6-2,2.5-2.6s1.8-0.8,2.7-0.8c0.7,0,1.5,0.2,2.3,0.7l-1.3,2.1
			c-0.5-0.2-1-0.3-1.3-0.3c-0.9,0-1.7,0.3-2.5,1s-1.4,1.8-1.8,3.3c-0.3,1.1-0.5,3.4-0.5,6.8v6.7h-2.6L84.7,39.8L84.7,39.8z
			 M76.7,55.8c-0.6,0.6-1.4,1.1-2.4,1.4c-1,0.3-2,0.5-3,0.5c-2.1,0-3.9-0.7-5.3-2.2c-1.4-1.4-2.1-3.3-2.2-5.6h18
			c0-2.7-0.8-5-2.2-6.8c-2-2.5-4.7-3.8-8.1-3.8c-3.3,0-5.9,1.2-7.9,3.7c-1.5,2-2.3,4.2-2.3,6.7c0,2.7,0.9,5.1,2.7,7.2
			c1.8,2.1,4.4,3.2,7.6,3.2c1.4,0,2.7-0.3,3.9-0.7c1.1-0.4,2.2-1.1,3.1-1.9c0.9-0.8,1.7-1.9,2.4-3.3l-2.1-1.1
			C78.1,54.4,77.4,55.3,76.7,55.8z M66.4,43.6c1.4-1.3,3-1.9,5-1.9c1.2,0,2.3,0.2,3.4,0.7c1.1,0.5,1.9,1.2,2.6,2
			c0.7,0.9,1.2,1.9,1.5,3.3H64.1C64.6,45.9,65.4,44.5,66.4,43.6z M46.6,32.2h2.5v15.6l9.2-8H62l-10.9,9.5l11.6,10.4h-3.6l-10-9v9
			h-2.5V32.2z M40.7,39.9v3.6c-1-1.4-2.2-2.4-3.5-3.1s-2.8-1-4.4-1c-2.8,0-5.2,1-7.2,3s-3,4.5-3,7.3c0,2.9,1,5.4,3,7.4s4.4,3,7.2,3
			c1.5,0,3-0.4,4.3-1c1.3-0.6,2.5-1.6,3.6-2.9v3.4h2.5V39.9H40.7z M39.8,53.9c-0.7,1.2-1.7,2.1-2.9,2.8c-1.2,0.8-2.5,1.1-3.9,1.1
			s-2.7-0.4-3.9-1.1c-1.2-0.7-2.2-1.7-2.9-3c-0.7-1.3-1.1-2.6-1.1-4c0-1.4,0.4-2.7,1.1-4c0.8-1.2,1.7-2.2,2.9-2.9
			c1.2-0.7,2.5-1,3.9-1c2.2,0,4,0.8,5.5,2.4c1.5,1.5,2.3,3.4,2.3,5.7C40.8,51.4,40.5,52.7,39.8,53.9z M17.6,42.4c-2-2-4.4-3-7.2-3
			c-1.5,0-3,0.3-4.3,1C4.8,41,3.6,42,2.5,43.3V32.2H0v27.4h2.5V56c1,1.4,2.2,2.4,3.5,3.1s2.8,1,4.4,1c2.8,0,5.2-1,7.2-3s3-4.4,3-7.3
			C20.6,46.9,19.6,44.4,17.6,42.4z M17,53.8c-0.8,1.2-1.7,2.2-2.9,2.9c-1.2,0.7-2.5,1-3.9,1c-2.2,0-4.1-0.8-5.6-2.3S2.3,52,2.3,49.7
			c0-1.5,0.3-2.8,1-4C4,44.5,5,43.5,6.2,42.8c1.3-0.7,2.6-1.1,4-1.1c1.4,0,2.7,0.4,3.9,1.1c1.2,0.7,2.2,1.7,2.9,3s1.1,2.6,1.1,4
			C18.1,51.2,17.7,52.5,17,53.8z"/>
	</g>
</g>
</svg>
