<?xml version="1.0" encoding="utf-8"?>
<!-- Generator: Adobe Illustrator 24.2.3, SVG Export Plug-In . SVG Version: 6.00 Build 0)  -->
<svg version="1.1" id="layer" xmlns="http://www.w3.org/2000/svg" xmlns:xlink="http://www.w3.org/1999/xlink" x="0px" y="0px"
	 viewBox="0 0 570 222.6" style="enable-background:new 0 0 570 222.6;" xml:space="preserve">
<style type="text/css">
	.st0{fill:#006648;}
</style>
<g>
	<g>
		<path d="M40.1,149.4h8.5c3,0,5.1,0.6,5.1,4.2c0,3.7-3.3,4.8-5.9,4.8h-9.3L40.1,149.4z M15.4,194.9h30.9c11.7,0,22.1-5.7,22.1-20.1
			c0-5.5-3.2-10.8-8.1-12v-0.2h0.1c6.5-1.9,9.8-6.9,9.8-14.4c0-8.6-4.3-13.1-16-13.1H26.6L15.4,194.9z M36.3,169.5h9.1
			c3.5,0,6.3,0.6,6.3,5.1c0,4.9-4,6-7,6H34.2L36.3,169.5z"/>
		<path d="M88.9,164.6c0.8-3.3,3-4.4,5.9-4.4c2.2,0,4.7,0.7,4.7,3.8c0,5.4-6.7,4.7-10.9,5c-11.2,1-18.8,4-18.8,15.4
			c0,8.3,5.9,11.5,12.6,11.5c4.3,0,9.4-1.8,12.1-5.3h0.1c-0.1,1.4,0.1,2.9,0.5,4.2h14.6c-0.6-2-0.3-0.5-0.6-3.8
			c0-2.9,4.8-22.3,4.8-29.1c0-10.6-11.8-11.5-18.9-11.5c-9.5,0-17.6,2.6-19.9,14.2H88.9z M84.6,182.4c0-3.2,2.3-4.5,4.8-4.9
			c2.8-0.2,5.5-0.5,7.9-1.9c-1,6.5-3,10.6-7.9,10.6C86.9,186.2,84.6,185.4,84.6,182.4"/>
		<path d="M115.2,194.9h14.9l4.3-23c1-4.5,2.4-8.3,7.2-8.3c2.4,0,4.2,1.4,4.2,4.2c0,1.8-0.7,4.7-1.2,7.2l-3.8,19.9h14.9l4.8-24.4
			c0.6-3.2,1.1-6.3,1.1-8.3c0-8.6-5.8-11.7-12.7-11.7c-4.8,0-9.2,2.6-12.1,6.6h-0.1l1.2-5.5h-14.4L115.2,194.9z"/>
		<path d="M206.7,167.9c0.2-12.2-7.8-17.6-18.6-17.6c-14.9,0-23.6,11-23.6,25.7c0,8.1,3.3,19.8,19.9,19.8c11.3,0,18.4-6,20.9-18.4
			H191c-0.8,2.4-2.4,6.3-6.6,6.3c-4.3,0-5.1-3.8-5.1-7.9c0-4.1,1.7-13.5,8.1-13.5c1.7,0,3,0.3,3.8,1.3c0.8,0.8,1.2,2.2,1.1,4.2h14.3
			V167.9z"/>
		<path d="M207.5,175.6c0,14.5,8.7,20.3,19.5,20.3c18,0,23.6-15.4,23.6-26.6c0-13.1-7.5-18.9-18.9-18.9
			C215.7,150.3,207.5,161.8,207.5,175.6 M222.4,176.9c0-4.5,2.1-14.5,8-14.5c4,0,5.2,3,5.2,8.1c0,3.8-2.1,13.3-7.9,13.3
			C223.5,183.9,222.4,180.4,222.4,176.9"/>
		<path d="M251.3,194.9h14.9l3.4-18.1c1.7-9.1,4.9-12.2,11.2-12.2c1.9,0,3.9,0.3,5.7,1.1l2.8-14.6c-1.4-0.5-2.8-0.6-5.3-0.6
			c-3.8,0-8.8,3.3-11.3,7.8h-0.1l1.3-6.8h-14.4L251.3,194.9z"/>
		<path d="M380.9,153.2c0.3-14.7-10.1-19.5-21.5-19.5c-10.8,0-22.5,6.1-22.5,19.7c0,9.9,6.3,13.8,12.9,16.2
			c7.4,2.8,12.9,3.4,12.9,7.7c0,3.9-4,5.7-7.2,5.7c-2.8,0-4.7-0.2-6.1-1.5c-1.4-1.5-2-3.5-2-6.8h-16.1
			c-0.6,15.2,10.5,21.5,22.7,21.5c11.6,0,24.2-6.8,24.2-21.2c0-7.1-3.2-12.8-12.5-16.5c-5.3-2.1-13.3-2.3-13.3-6.9
			c0-3.9,3.6-4.9,6.3-4.9c1.9,0,3.6,0.3,4.8,1.4s2,2.5,1.9,5L380.9,153.2L380.9,153.2z"/>
		<path d="M381.2,175.6c0,14.5,8.7,20.3,19.5,20.3c18,0,23.6-15.4,23.6-26.6c0-13.1-7.5-18.9-18.9-18.9
			C389.3,150.3,381.2,161.8,381.2,175.6 M396,176.9c0-4.5,2.1-14.5,8-14.5c4,0,5.2,3,5.2,8.1c0,3.8-2.1,13.3-7.9,13.3
			C397.1,183.9,396,180.4,396,176.9"/>
		<path d="M473.3,151.5h-14.9l-3.4,17.7c-1.2,5.5-1.5,13.6-8.1,13.6c-2.2,0-4.3-1.4-4.3-4.1c0,0,0-2.2,0.6-4.5l4.3-22.6h-14.9
			c-4.5,23.9-5.8,29.2-5.8,32.9c0,8.3,5.6,11.5,12.4,11.5c5.1,0,9.3-2.3,12.6-6.6h0.1l-1.2,5.5h14.5L473.3,151.5z"/>
		<path d="M500,138.4h-14.9l-2.6,13.1H476l-2.1,10.2h6.7l-3.5,17.8c-0.4,2-0.8,3.6-0.8,5.9c0,3.2,1.5,6.6,4,8.1
			c2.9,1.8,6.2,1.8,9.4,1.8c2.8-0.2,5.4-0.5,8-1.1l2.2-12c-1.2,0.1-2.5,0.2-4.9,0.2c-2.3,0-3-1.2-3-2.5c0-1.4,0.4-3,0.6-4.3l2.6-14
			h7.9l2.1-10.2h-7.9L500,138.4z"/>
		<path d="M501.3,194.9h14.9l4.3-23c1-4.5,2.4-8.3,7.2-8.3c2.4,0,4.2,1.4,4.2,4.2c0,1.8-0.7,4.7-1.2,7.2L527,195h14.9l4.8-24.4
			c0.6-3.2,1.1-6.3,1.1-8.3c0-8.6-5.8-11.7-12.7-11.7c-4.1,0-8.9,2.3-11.5,6.6h-0.1l4-21.8h-15.1L501.3,194.9z"/>
		<path d="M547.7,138.4h1c0.5,0,1.2,0.1,1.2,0.7c0,0.7-0.5,0.8-1.2,0.8h-1.1v-1.6H547.7z M546.6,143.4h1.2v-2.5h0.7l1.5,2.5h1.3
			l-1.6-2.5c0.8-0.1,1.6-0.5,1.6-1.6c0-1.3-0.8-1.8-2.3-1.8h-2.2v5.9H546.6z M544.7,140.4c0-2.4,1.8-4.1,4-4.1s4,1.7,4,4.1
			s-1.8,4.1-4,4.1C546.5,144.6,544.7,142.8,544.7,140.4 M543.2,140.4c0,3.2,2.5,5.3,5.4,5.3c2.9,0,5.4-2.1,5.4-5.3
			c0-3.2-2.5-5.3-5.4-5.3C545.8,135.1,543.2,137.2,543.2,140.4"/>
		<path d="M314.9,170.1c0,5.6-1.9,13.8-7.8,13.8c-4.9,0-5.4-5.5-5.4-7.1c0-3.8,1.2-14.4,7.8-14.4
			C313.8,162.4,314.9,165.9,314.9,170.1 M329.7,168.2c0-7.7-3.2-17.8-14.2-17.8c-4.5,0-7.8,2-10.5,6H305l0.8-5h-14.4l-10.8,57.3
			h14.9l3.5-19.3c3.3,5.7,7.4,6.3,11.7,6.3C323.9,195.8,329.7,181,329.7,168.2"/>
		<polygon points="303.7,202.9 303.4,204.7 539.7,204.7 540,202.9 		"/>
		<polygon points="274.2,202.9 14.4,202.9 14.1,204.7 273.7,204.7 		"/>
	</g>
	<g>
		<path class="st0" d="M312.1,14h-60.4c-7.1,0-12.7,5.7-12.7,12.7v93.5c0,7,5.7,12.7,12.7,12.7H312c7.1,0,12.7-5.7,12.7-12.7V26.7
			C324.8,19.7,319,14,312.1,14 M320.6,119.6c0,4.9-3.9,8.8-8.6,8.8h-59.7c-4.7,0-8.6-4-8.6-8.8V27.3c0-4.9,3.8-8.8,8.6-8.8H312
			c4.7,0,8.6,4,8.6,8.8V119.6z"/>
		<path class="st0" d="M309.5,22.6h-54.9c-3.7,0-6.6,3-6.6,6.6v87.5c0,3.7,3,6.6,6.6,6.6h54.9c3.7,0,6.6-3,6.6-6.6V29.2
			C316.1,25.6,313.1,22.6,309.5,22.6 M309.3,77.5c-6,5-12.2,9.1-17.8,15.5c-2,2.2-3.9,4.5-5.4,7l2.8,19.4c0,0.6-0.4,0.8-1,0.8h-11.5
			c-0.8-0.1-0.9-0.5-1-0.8c0.2-1.4,0.4-2.7,0.6-4.1l2.3-15.3c-5.5-8.5-13.7-15.4-21.9-21.3c-2.3-1.6-3.8-4.9-3-8
			c0.4-1.5,1.8-2.6,3.3-2.8c7.5-0.4,8.8,8.2,12.7,12.6c2.7,3.8,5.7,7.3,8.8,10.7c0.5-1.7,0.6-3.9,0.4-5.7
			c-5.3-9.5-13.8-17.4-21.3-25.7c-2-2.3-1.8-4.7-0.9-7.1c0.5-1,1.5-1.8,2.7-2.2c2.3-0.6,4.9,0.2,6.7,3.3c4,7.3,7.3,15.7,13.3,22.2
			l0.1-0.9l0.2-8c-4-7.6-9.4-14.7-15.6-21.1c-1.8-1.8-2.7-6-0.9-8.7c0.6-0.9,1.6-1.5,2.8-1.6c3,0,5.1,1.4,6.7,4.4
			c2.7,5.1,3.9,11,6.8,15.9v-0.3c0.6-8.4-4-17.1-0.9-25.4c0.6-1.7,2-2.7,3.8-3c2-0.1,3.8,1.1,4.6,2.9c3.8,7.9-0.8,15.4-0.8,23.8
			c0,0.7,0.2,2,0.2,2c3-4.8,4.3-10.8,6.7-15.8c1.2-2.6,4.2-5.3,7.6-4.4c1.1,0.3,2,1.2,2.5,2.4c2.4,7.3-5.8,11.4-9.3,16.7
			c-3,3.9-5.9,7.8-7.9,12.2c0.1,2.9,0.1,6,0.4,8.9c5.4-6.6,9.1-14.2,12.9-21.7c1.2-2.3,4.5-4,7.4-3.3c1.1,0.4,1.8,0.8,2.3,2.2
			c2.5,8.4-7.9,11.7-11.5,17.6c-4.1,4.8-7.8,9.5-11,14.7c0,2.2,0,3.8,0.5,5.7c5.6-5.8,10.1-12.5,14.1-19.5c1.4-2.4,4.6-4,7.7-3.4
			c1.1,0.4,2,1,2.5,2.4C311.5,72.8,311.1,76,309.3,77.5"/>
	</g>
</g>
</svg>
