<?xml version="1.0" encoding="utf-8"?>
<!-- Generator: Adobe Illustrator 24.3.0, SVG Export Plug-In . SVG Version: 6.00 Build 0)  -->
<svg version="1.1" id="Layer_1" xmlns="http://www.w3.org/2000/svg" xmlns:xlink="http://www.w3.org/1999/xlink" x="0px" y="0px"
	 viewBox="0 0 299 131.9" style="enable-background:new 0 0 299 131.9;" xml:space="preserve">
<style type="text/css">
	.st0{fill:#256393;}
	.st1{fill:#7C7670;}
</style>
<g id="SUGcOa_1_">
	<g>
		<path class="st0" d="M299,86.7c0,0.6,0,1.1,0,1.5c0,10.2,0,20.4,0,30.6c0,1.1-0.4,1.6-1.4,2.1c-11.6,5.3-23.8,8.6-36.4,10.1
			c-12.8,1.5-25.6,1.2-38.4-0.2c-19.5-2.2-38.5-6.8-57.4-11.8c-18.1-4.8-36.1-10-54.3-14.3c-12.5-2.9-25-5.2-37.7-6.5
			c-20-2-39.7-1.1-58.9,5.1c-4.4,1.4-8.8,3.1-13,5.1c-0.4,0.2-0.9,0.4-1.5,0.6c0-1.2,0-2.3,0-3.4c0-0.6,0.5-0.8,0.9-1
			c10.7-6.7,22.2-11.6,34.5-14.7c15.3-3.9,30.9-4.8,46.6-4.1c19.1,0.9,37.9,4.3,56.6,8c17.2,3.4,34.4,7.1,51.8,9.6
			c15.6,2.3,31.2,3.6,47,2.7c21.8-1.3,42.1-7.2,60.7-18.7C298.3,87.1,298.6,87,299,86.7z"/>
		<path class="st1" d="M121.4,29.1c-2.7,0-5.4,0-8,0c-0.5,0-1.1,0.2-1.1-0.7c0-0.8,0.5-0.6,1-0.7c3-0.3,4-1.1,4.2-4.1
			c0.4-6.1,0.4-12.2,0-18.2c-0.2-2.9-1.2-3.7-4.1-4c-0.5,0-1.1,0.2-1.1-0.7c0-1,0.7-0.7,1.2-0.7c4.5,0,9,0,13.5,0
			c1.7,0,3.3,0.3,4.9,1c4.6,2,5.8,7.3,2.5,11.1c-0.7,0.8-0.9,1.1,0.2,1.8c2.8,1.7,4.2,4.3,3.9,7.6c-0.3,3.3-2.2,5.4-5.2,6.6
			c-1.7,0.7-3.4,0.9-5.2,0.9C125.9,29.1,123.6,29.1,121.4,29.1z M121.8,19.5c0,1.6,0,3.3,0.2,4.9c0.1,1,0.4,2,1.4,2.3
			c3.1,0.9,6.3,1,9-1.1c2-1.6,2.4-3.9,1.7-6.3c-0.8-2.7-2.9-3.9-5.5-4.2c-2-0.2-4-0.1-5.9-0.1c-0.7,0-0.9,0.3-0.9,0.9
			C121.9,17.1,121.8,18.3,121.8,19.5z M124.8,1.9c-0.7,0-1.4,0-2.1,0c-0.7,0-0.9,0.2-0.9,0.9c0,2.9,0,5.9,0,8.8
			c0,0.5,0.1,0.9,0.7,0.9c1.8,0,3.6,0.2,5.4-0.3c2.4-0.6,3.9-2.4,3.9-4.8c0-2.5-1.5-4.5-3.9-5.2C126.9,1.8,125.9,1.9,124.8,1.9z"/>
		<path class="st1" d="M6.2,67.9c0-1.6,0-3.2,0-4.8c0-0.5,0-0.9,0.6-0.9c0.6,0,0.7,0.3,0.8,0.8c0.2,0.9,0.4,1.9,0.8,2.7
			c1.5,3.9,5.9,6.1,9.8,5.1c3.6-0.9,4.6-4.7,2.1-7.4c-1-1.1-2.3-1.8-3.6-2.5c-1.9-1-3.8-1.9-5.6-2.9c-2.6-1.5-4.4-3.6-4.7-6.7
			C5.8,47,9,43.2,13.5,42.8c2.3-0.2,4.4,0.2,6.3,1.4c1,0.6,1.4,0.3,1.7-0.6c0.2-0.6,0.4-1.1,1.1-0.9c0.8,0.2,0.4,0.9,0.4,1.3
			c0,3,0,6,0,8.9c0,0.4,0.1,1-0.6,1c-0.7,0-0.7-0.4-0.8-0.9c-0.2-1.5-0.6-3-1.4-4.4c-1.5-2.7-4.1-3.9-7-3.2
			c-1.5,0.4-2.7,1.2-3.1,2.8c-0.4,1.5,0.2,2.8,1.3,3.8c1.3,1.2,2.9,1.9,4.4,2.7c1.6,0.8,3.2,1.6,4.7,2.5c4,2.2,5.6,5.6,4.7,9.5
			c-0.9,3.9-4.4,6.6-8.6,6.8c-2.4,0.1-4.7-0.5-6.8-1.7c-1.4-0.8-1.5-0.7-2.2,0.8c-0.1,0.1-0.1,0.2-0.1,0.4c-0.1,0.5-0.5,0.6-0.9,0.5
			c-0.5-0.1-0.4-0.5-0.4-0.8C6.2,71.2,6.2,69.5,6.2,67.9z"/>
		<path class="st1" d="M121.3,72.5c-2.2,0-4.3,0-6.5,0c-0.5,0-1,0.1-1-0.7c0-0.8,0.4-0.8,1-0.8c3.6-0.2,4.2-1.1,2.8-4.5
			c-1.4-3.6-1.4-3.6-5.3-3.6c-2,0-4,0-6,0c-0.9,0-1.3,0.3-1.6,1.1c-0.5,1.3-1.1,2.6-1.6,4c-0.6,1.8-0.1,2.6,1.8,2.9
			c0.6,0.1,1.2,0.1,1.8,0.1c0.5,0,0.7,0.2,0.7,0.7c0,0.5-0.2,0.8-0.7,0.8c-3.7,0-7.3,0-11,0c-0.5,0-0.8-0.2-0.8-0.7
			c0-0.6,0.3-0.8,0.8-0.7c2.9,0.2,4.3-1.6,5.3-4c3.3-7.6,6.6-15.2,9.9-22.8c0.1-0.3,0.3-0.6,0.4-1c0.1-0.3,0.3-0.6,0.7-0.7
			c0.5,0,0.6,0.3,0.8,0.7c1.1,2.5,2.1,4.9,3.2,7.4c2.3,5.3,4.5,10.5,6.8,15.8c0.5,1.1,1,2.1,1.7,3c0.9,1,2,1.5,3.3,1.5
			c0.5,0,0.9,0.1,0.9,0.8c0,0.7-0.5,0.7-1,0.7C125.7,72.5,123.5,72.5,121.3,72.5z M110.7,50.5c-1.5,3.4-2.8,6.4-4.1,9.4
			c-0.3,0.6,0,0.7,0.5,0.7c2.4,0,4.8,0,7.2,0c0.5,0,0.7-0.2,0.5-0.7C113.5,56.9,112.2,53.8,110.7,50.5z"/>
		<path class="st1" d="M210.1,16.4c3.2-2.9,6.4-5.2,9.1-8c0.9-1,0.7-1.5-0.7-1.8c-0.4-0.1-1.1,0.2-1-0.6c0-0.8,0.7-0.5,1.1-0.5
			c2.7,0,5.4,0,8.2,0c0.4,0,0.9-0.2,1,0.5c0.1,0.8-0.5,0.6-1,0.7c-1.9,0.2-3.4,1.1-4.9,2.3c-2.4,1.9-4.7,3.9-7.1,5.9
			c-0.5,0.4-0.7,0.7-0.1,1.2c4,3.3,7.7,6.9,11.8,10.1c1.1,0.9,2.2,1.6,3.7,1.8c0.4,0,0.7,0.2,0.6,0.6c0,0.6-0.4,0.6-0.8,0.6
			c-3.8,0-7.5,0-11.3,0c-0.3,0-0.7,0-0.8-0.5c-0.1-0.5,0.2-0.7,0.7-0.7c0.3,0,0.7,0,1-0.1c0.7-0.2,1-0.7,0.6-1.4
			c-0.4-0.7-0.9-1.3-1.4-1.8c-2.2-2-4.3-4.1-6.5-6.1c-0.3-0.3-0.6-0.8-1-0.5c-0.5,0.3-1.2,0.6-1.2,1.4c0,2.1-0.1,4.1,0.3,6.2
			c0.3,1.6,1.1,2.2,3.1,2.4c0.4,0.1,1.1-0.1,1,0.6c-0.1,0.7-0.6,0.5-1,0.5c-3.5,0-7.1,0-10.6,0c-0.4,0-0.8,0.1-0.9-0.5
			c-0.1-0.7,0.4-0.6,0.8-0.7c2.4-0.3,3.2-0.9,3.3-3.4c0.3-4.8,0.3-9.7,0-14.5c-0.2-2.5-0.8-3.1-3.3-3.4c-0.4,0-0.8,0-0.8-0.5
			c0-0.7,0.5-0.6,0.9-0.6c3.6,0,7.2,0,10.7,0c0.4,0,0.8-0.1,0.9,0.5c0.1,0.7-0.4,0.6-0.9,0.6c-2.5,0.3-3,0.9-3.3,3.3
			C210,11.9,210.2,13.9,210.1,16.4z"/>
		<path class="st1" d="M240.6,65.6c-0.1-4.4,0.2-8.7-0.2-13c-0.2-1.9-1.1-2.5-3-2.7c-0.5,0-1.2,0.2-1.1-0.7c0.1-0.8,0.7-0.5,1.1-0.5
			c2.9,0,5.8,0,8.7,0c0.4,0,0.9-0.2,1,0.5c0,0.7-0.5,0.6-1,0.7c-2.2,0.2-2.9,0.8-3.2,3c-0.1,0.9-0.1,1.9-0.1,2.8c0,5.5,0,11,0,16.5
			c0,0.4,0.3,1-0.4,1.2c-0.6,0.2-0.9-0.3-1.3-0.7c-4.8-5.7-9.5-11.4-14.3-17.1c-0.3-0.3-0.6-0.6-0.8-1c-0.5,0.2-0.3,0.5-0.3,0.8
			c0,3.8,0,7.6,0,11.4c0,0.6,0.1,1.1,0.2,1.7c0.4,2,1,2.6,3.1,2.8c0.4,0,1.1-0.2,1.1,0.6c0,0.8-0.6,0.5-1.1,0.5c-2.9,0-5.8,0-8.7,0
			c-0.4,0-0.9,0.2-1-0.5c-0.1-0.8,0.6-0.6,1-0.6c2.2-0.3,3-1,3.2-3.2c0.3-5,0.3-10.1,0-15.1c-0.1-2.3-0.9-3-3.2-3.2
			c-0.4,0-0.9,0.1-0.9-0.6c0-0.7,0.5-0.5,0.9-0.6c0.1,0,0.2,0,0.3,0c1.9,0,4-0.5,5.5,0.2c1.5,0.7,2.5,2.6,3.7,4.1
			c3.4,4,6.7,8,10.1,12C239.9,65.2,240,65.5,240.6,65.6z"/>
		<path class="st1" d="M216.6,60.7c0,7.5-6.9,13.5-14.4,12.8c-7-0.7-12.3-6-12.5-12.4c-0.2-9.3,9.8-15.9,18.6-12.2
			C213.4,50.9,216.6,55.5,216.6,60.7z M212.1,60.6c0-2.4-0.5-4.6-1.7-6.7c-1.7-2.8-4.2-4.1-7.5-4c-3.2,0.1-5.6,1.6-7.1,4.4
			c-2,3.9-2.1,8-0.3,12c1.5,3.4,4.1,5.1,7.9,5c3.7,0,6.2-1.9,7.6-5.2C211.7,64.4,212.1,62.5,212.1,60.6z"/>
		<path class="st1" d="M292.8,60.6c0,7.5-6.9,13.6-14.4,12.8c-7.1-0.7-12.3-5.9-12.5-12.4c-0.2-9.3,9.6-15.8,18.6-12.3
			C289.5,50.8,292.8,55.4,292.8,60.6z M270.5,60.7c0,2.5,0.5,4.8,1.9,6.9c3.3,5.1,10.8,5.2,14,0.1c2.5-3.9,2.6-8.2,0.8-12.4
			c-1.4-3.4-4-5.3-7.8-5.3c-3.8,0-6.3,1.9-7.8,5.3C270.8,57,270.5,58.8,270.5,60.7z"/>
		<path class="st1" d="M152.7,65.5c0.1-4.1,0.2-8.1-0.1-12.2c-0.2-2.5-0.8-3.1-3.3-3.4c-0.4-0.1-0.9,0-0.9-0.7
			c0-0.6,0.5-0.5,0.8-0.5c3,0,6,0,9.1,0c0.4,0,0.8-0.1,0.9,0.5c0,0.5-0.3,0.6-0.7,0.7c-2.8,0.4-3.5,1-3.5,3.9
			c-0.1,4.1-0.1,8.3-0.1,12.4c0,2,0,4.1,0,6.1c0,0.4,0.2,0.9-0.4,1.1c-0.5,0.2-0.9-0.2-1.2-0.6c-2.1-2.6-4.3-5.1-6.4-7.7
			c-2.9-3.5-5.9-7-8.8-10.5c-0.4,0.1-0.3,0.4-0.3,0.7c0,3.9,0,7.8,0,11.7c0,0.5,0,1,0.1,1.5c0.4,2,1,2.6,3.1,2.8
			c0.4,0.1,1.1-0.2,1.1,0.6c0,0.8-0.6,0.5-1.1,0.5c-2.8,0-5.7,0-8.5,0c-0.4,0-1,0.3-1.1-0.5c-0.1-0.8,0.6-0.6,1-0.7
			c2.2-0.3,3-1,3.2-3.2c0.3-5,0.3-10,0-15c-0.1-2.4-0.9-3-3.3-3.3c-0.4-0.1-0.9,0-0.9-0.7c0-0.7,0.6-0.5,1-0.5c1.6,0,3.1,0,4.7,0
			c0.8,0,1.3,0.2,1.9,0.9c4.2,5,8.4,10,12.7,15.1c0.3,0.4,0.7,0.7,1,1c0.1,0,0.1,0.1,0.2,0.1C152.7,65.7,152.7,65.6,152.7,65.5z"/>
		<path class="st1" d="M190.8,22.2c0.2-4.3,0.5-8.6,0.1-12.8c-0.2-2-1-2.6-3.1-2.9c-0.4-0.1-1.1,0.2-1-0.6c0.1-0.8,0.7-0.5,1.1-0.5
			c2.8,0,5.7,0,8.5,0c0.4,0,0.9-0.2,1,0.5c0,0.7-0.5,0.6-0.9,0.6c-2.4,0.3-3.2,1-3.3,3.5c-0.1,5.6-0.1,11.2-0.1,16.8
			c0,0.6,0,1.3,0,1.9c0,0.4,0.2,0.8-0.3,1c-0.5,0.2-0.9-0.1-1.2-0.5c-1.2-1.5-2.5-3-3.7-4.5c-3.6-4.3-7.2-8.7-10.9-13
			c-0.2-0.2-0.3-0.4-0.5-0.5c-0.4,0.1-0.3,0.3-0.3,0.5c0,3.7,0,7.3,0,11c0,0.7,0.1,1.4,0.2,2.1c0.3,2.1,1,2.7,3.1,3
			c0.4,0.1,1.1-0.2,1,0.6c0,0.8-0.7,0.5-1.1,0.5c-2.8,0-5.7,0-8.5,0c-0.4,0-0.9,0.2-1-0.5c-0.1-0.7,0.5-0.6,0.9-0.6
			c2.3-0.3,3.1-0.9,3.3-3.2c0.3-5,0.3-9.9,0-14.9c-0.1-2.3-1-3-3.3-3.2c-0.4,0-0.9,0.1-0.9-0.6c0-0.7,0.6-0.5,1-0.5
			c1.6,0,3.3,0,4.9,0c0.8,0,1.2,0.4,1.6,0.9c4,4.8,8.1,9.6,12.1,14.4C189.9,21.2,190.3,21.7,190.8,22.2z"/>
		<path class="st1" d="M78.5,65.7c-0.1-4.1,0.1-8.2-0.2-12.3c-0.2-2.5-0.8-3.2-3.4-3.5c-0.4-0.1-0.8,0-0.8-0.6
			c0-0.7,0.5-0.6,0.9-0.6c3,0,6,0,8.9,0c0.4,0,0.9-0.1,0.9,0.6c0,0.6-0.5,0.6-0.9,0.6c-2.3,0.2-3,0.8-3.3,3.2
			c-0.1,1.2-0.2,2.3-0.2,3.5c0,5.2,0,10.4,0,15.7c0,0.4,0.2,0.9-0.3,1.1c-0.6,0.2-0.9-0.2-1.3-0.6c-4.7-5.7-9.5-11.3-14.2-17
			c-0.3-0.4-0.6-0.9-1-1.1c-0.3,0.1-0.2,0.4-0.2,0.6c0,3.7,0,7.4,0,11.1c0,0.6,0.1,1.3,0.2,1.9c0.3,2.2,1,2.8,3.1,3.1
			c0.4,0.1,1.1-0.2,1,0.6c0,0.8-0.7,0.5-1.1,0.5c-2.9,0-5.8,0-8.7,0c-0.4,0-0.9,0.2-1-0.5c-0.1-0.7,0.5-0.6,0.9-0.6
			c2.4-0.3,3.2-1,3.3-3.5c0.3-4.9,0.3-9.8,0-14.6c-0.1-2.5-0.9-3.2-3.3-3.4c-0.4,0-0.9,0-0.9-0.6c0-0.7,0.6-0.5,1-0.5
			c1.6,0,3.1,0,4.7,0c0.9,0,1.4,0.3,2,0.9C69,54.9,73.3,60,77.7,65.2c0.2,0.2,0.3,0.4,0.4,0.6C78.3,65.8,78.4,65.7,78.5,65.7z"/>
		<path class="st1" d="M48.2,72.6c-1.7,0-3.5,0-5.2,0c-0.4,0-0.9,0.2-1-0.5c0-0.7,0.4-0.6,0.9-0.7c0.1,0,0.3,0,0.4,0
			c2.4-0.2,2.9-1,2.1-3.2c-1.2-3.4-1.2-3.4-4.8-3.4c-1.6,0-3.2,0-4.8,0c-0.7,0-1,0.2-1.3,0.8c-0.4,1.1-1,2.2-1.3,3.4
			c-0.5,1.5,0,2.2,1.6,2.4c0.5,0.1,0.9,0.1,1.4,0.1c0.4,0,0.6,0.2,0.6,0.6c0,0.4-0.2,0.5-0.6,0.5c-3.1,0-6.2,0-9.3,0
			c-0.4,0-0.5-0.2-0.6-0.5c0-0.3,0.1-0.6,0.5-0.6c0.1,0,0.3,0,0.4,0c1.9,0,3.1-1,3.9-2.7c1.9-4.4,3.8-8.8,5.7-13.2
			c0.9-2.1,1.8-4.3,2.8-6.4c0.2-0.5,0.2-1.2,0.9-1.3c0.7,0,0.7,0.7,0.9,1.2c2.5,5.8,5,11.6,7.5,17.5c0.4,0.9,0.8,1.8,1.3,2.7
			c0.7,1.3,1.7,2.1,3.3,2.2c0.4,0,0.9,0,0.9,0.6c0,0.7-0.5,0.5-0.9,0.6C51.7,72.6,49.9,72.6,48.2,72.6z M39.4,54.3
			c-1.2,2.8-2.3,5.2-3.3,7.6c-0.2,0.5-0.3,0.8,0.4,0.8c1.9,0,3.9,0,5.8,0c0.6,0,0.7-0.2,0.4-0.7C41.7,59.5,40.6,57,39.4,54.3z"/>
		<path class="st1" d="M161.1,29c-1.7,0-3.5,0-5.2,0c-0.4,0-0.9,0.1-0.9-0.6c0-0.7,0.5-0.6,0.9-0.6c0.3,0,0.5,0,0.8-0.1
			c1.8-0.2,2.3-1,1.8-2.8c-1.1-3.8-1.1-3.8-5.1-3.8c-1.5,0-3,0-4.5,0c-0.6,0-1,0.1-1.2,0.7c-0.4,1.1-1,2.2-1.4,3.3
			c-0.5,1.5-0.1,2.2,1.5,2.4c0.4,0.1,0.8,0.1,1.2,0.1c0.4,0,0.9,0,0.9,0.6c0,0.6-0.5,0.5-0.8,0.5c-2.9,0-5.8,0-8.7,0
			c-0.4,0-0.8,0.1-0.9-0.5c0-0.6,0.3-0.7,0.7-0.6c2.2,0.1,3.3-1.2,4.1-3c2.7-6.2,5.4-12.5,8.1-18.7c0.3-0.6,0.2-1.6,1.1-1.6
			c0.8,0,0.8,1,1.1,1.6c2.5,5.7,4.9,11.3,7.3,17c0.4,0.8,0.8,1.6,1.2,2.4c0.7,1.3,1.7,2.3,3.3,2.3c0.4,0,0.9,0,0.8,0.7
			c-0.1,0.6-0.5,0.5-0.9,0.5C164.7,29,162.9,29,161.1,29z M152.4,10.9c-1.2,2.7-2.2,5.1-3.3,7.5c-0.3,0.6,0,0.8,0.5,0.8
			c1.9,0,3.7,0,5.6,0c0.6,0,0.7-0.2,0.5-0.8C154.6,16,153.6,13.6,152.4,10.9z"/>
		<path class="st1" d="M174,48.7c3.7,0,7.4,0,11.1,0c0.9,0,1.2,0.3,1.2,1.1c0,1.6,0.2,3.2,0.3,4.8c0,0.4,0.2,0.8-0.5,0.9
			c-0.5,0-0.7-0.2-0.8-0.7c-0.6-3.6-2.3-3.8-5.3-3.9c-1.3,0-3-0.6-3.9,0.3c-0.8,0.7-0.2,2.4-0.2,3.6c0,4.4-0.2,8.7,0.2,13.1
			c0.2,2.5,0.9,3.2,3.4,3.5c0.4,0,0.9-0.1,0.9,0.6c-0.1,0.7-0.6,0.5-1,0.5c-3.6,0-7.2,0-10.8,0c-0.4,0-0.9,0.2-1-0.5
			c-0.1-0.8,0.6-0.6,1-0.7c2.2-0.3,2.9-0.9,3.2-3.2c0.3-2.6,0.1-5.2,0.1-7.8c0-2.8,0-5.7,0-8.5c0-0.8-0.2-1.1-1-1.1
			c-1.5,0.1-3,0-4.5,0.1c-2.2,0.1-3,0.9-3.6,3c-0.1,0.4-0.2,0.8-0.3,1.1c-0.1,0.4-0.4,0.4-0.8,0.3c-0.3,0-0.4-0.3-0.4-0.6
			c0.1-1.9,0.2-3.7,0.3-5.6c0-0.9,0.7-0.6,1.2-0.6C166.6,48.7,170.3,48.7,174,48.7z"/>
		<path class="st1" d="M256.3,48.7c1.8,0,3.6,0,5.4,0c0.4,0,0.8-0.1,0.9,0.5c0.1,0.6-0.3,0.7-0.8,0.7c-2.6,0.3-3.3,0.8-3.4,3.4
			c-0.3,4.9-0.3,9.7,0,14.6c0.1,2.6,0.8,3.1,3.4,3.5c0.4,0.1,0.8,0,0.8,0.6c0,0.6-0.4,0.5-0.8,0.5c-3.7,0-7.4,0-11.1,0
			c-0.3,0-0.7,0-0.8-0.5c-0.1-0.5,0.3-0.6,0.7-0.7c2.8-0.4,3.5-1.1,3.6-3.9c0.2-4.6,0.2-9.2,0-13.8c-0.1-2.8-0.8-3.4-3.5-3.8
			c-0.4-0.1-0.8-0.1-0.8-0.6c0-0.6,0.4-0.6,0.8-0.6C252.6,48.7,254.4,48.7,256.3,48.7z"/>
		<path class="st1" d="M89.7,22.5c-2.2,0-4.5,0-6.7,0c0.1-0.2,0.1-0.3,0.1-0.3c2.1-0.7,2.2-0.8,2.2-3.3c0-2.5,0-2.5-2.4-2.5
			c-1,0-2,0.1-3,0c-1.1-0.1-1.4,0.4-1.3,1.3c0,0.4,0,0.8,0,1.2c0,2.4,0.1,2.6,2.3,3.3c-0.7,0.5-5,0.6-6.7,0.2c0-0.1,0-0.2,0-0.2
			c2.2-0.8,2.2-0.9,2.3-3.3c0-1.7,0-3.4,0-5c0-2.6-0.1-2.7-2.3-3.6c0-0.5,0.4-0.3,0.7-0.3c1.7,0,3.5,0,5.2,0c0.3,0,0.7-0.2,0.8,0.2
			c0.1,0.5-0.4,0.4-0.6,0.4c-1,0.1-1.4,0.7-1.5,1.6c-0.5,3.1-0.4,3.2,2.7,3.2c1,0,2.1,0,3.1,0c0.4,0,0.8,0,0.8-0.6c0-1,0-2-0.1-3
			c-0.1-1.2-1.3-1.2-2.1-1.6c2.2-0.3,4.5-0.3,6.8,0c-2.9,0.4-2.4,2.5-2.4,4.3c0,1.5,0,2.9,0,4.4C87.5,21.4,87.5,21.4,89.7,22.5z"/>
		<path class="st1" d="M244.3,9.4c4,0,7.3,3.1,7.3,6.9c0,3.9-3.3,7-7.3,7c-3.9,0-7.2-3.1-7.2-6.8C236.9,12.5,240.2,9.4,244.3,9.4z
			 M249,16c0-0.1,0-0.6-0.1-1c-0.4-2.5-1.9-4.2-4-4.5c-2.1-0.3-4,0.7-4.9,2.6c-1,2.1-1,4.3,0.1,6.4c1.6,3.1,5.8,3.5,7.8,0.6
			C248.7,19,249.1,17.7,249,16z"/>
		<path class="st1" d="M91.7,10.2c0.3-0.5,0.8-0.3,1.1-0.3c2.7,0,5.4,0,8,0c0.9,0,1.4,0.2,1.3,1.2c0,0.6,0.1,1.2,0.1,1.8
			c0,0.2,0,0.5-0.3,0.5c-0.2,0-0.4-0.1-0.4-0.4c-0.2-0.8-0.5-1.6-1.4-1.9c-1.2-0.3-2.5-0.5-3.6-0.1c-1,0.4-0.3,1.9-0.4,2.8
			c-0.1,0.4-0.3,1.1,0.4,1.4c1.2,0.5,2.6-0.3,2.9-1.6c0.1-0.2,0-0.6,0.3-0.6c0.4,0,0.3,0.3,0.3,0.6c0,1.5,0,3,0,4.5
			c0,0.2,0,0.5-0.3,0.5c-0.4,0-0.3-0.3-0.4-0.5c-0.3-1.4-1.6-2.1-2.9-1.7c-0.3,0.1-0.4,0.3-0.4,0.6c0,1.1-0.1,2.2,0.2,3.4
			c0.1,0.2,0.1,0.4,0.3,0.6c1,1.3,4.9,0.6,5.5-0.9c0.1-0.3,0.1-1,0.5-0.9c0.6,0.1,0.2,0.7,0.2,1.1c-0.1,2.4-0.1,2.4-2.6,2.4
			c-2.5,0-4.9,0-7.4,0c-0.4,0-0.9,0.2-1.3-0.4c2.7-0.1,2.3-2,2.3-3.7c0-1.6,0-3.2,0-4.8C94,11.1,93.9,11.1,91.7,10.2z"/>
		<path class="st1" d="M252.5,22.2c3-0.1,2.6-2.2,2.6-3.9c0-1.9,0-3.8,0-5.7c0-1.1-0.4-2.1-1.7-2.1c-0.3,0-0.6-0.1-0.5-0.4
			c0-0.3,0.3-0.3,0.5-0.3c3.2,0,6.4,0,9.6,0c0.4,0,0.6,0.2,0.7,0.6c0.1,0.8,0.1,1.6,0.2,2.5c0,0.2,0,0.5-0.3,0.5
			c-0.2,0-0.4-0.2-0.4-0.4c-0.3-1.9-1.8-2-3.2-2c-3.1,0-2.5-0.4-2.6,2.5c0,0,0,0.1,0,0.1c0.2,0.6-0.6,1.7,0.8,1.8
			c1.5,0.2,2.4-0.3,2.6-1.6c0.1-0.3-0.1-0.7,0.4-0.7c0.3,0,0.3,0.4,0.3,0.6c0,1.5,0,2.9,0,4.4c0,0.3,0.1,0.6-0.3,0.6
			c-0.4,0.1-0.3-0.3-0.4-0.5c-0.3-1.4-1.6-2.1-2.9-1.7c-0.4,0.1-0.5,0.4-0.5,0.8c0,0.6,0,1.2,0,1.8c0,2.3,0.2,2.5,2.3,3.2
			C258.8,22.8,253.9,22.9,252.5,22.2z"/>
		<path class="st1" d="M69.3,22.5c-2.2,0-4.5,0-6.8,0c0.1-0.2,0.1-0.3,0.1-0.3c2.1-0.6,2.2-0.8,2.3-3.1c0-2.3,0-4.7,0-7
			c0-0.9-0.3-1.2-1.1-1.1c-0.4,0-0.9,0-1.3,0c-1.3,0-2.3,0.4-2.6,1.8c-0.1,0.3-0.1,0.7-0.5,0.5c-0.3-0.1-0.2-0.4-0.2-0.7
			c0-0.7,0.1-1.4,0.1-2.1c0-0.5,0.2-0.8,0.7-0.8c3.9,0,7.9,0,11.8,0c0.4,0,0.7,0.1,0.7,0.5c0,0.9,0.1,1.7,0.2,2.6
			c0,0.2,0,0.4-0.2,0.4c-0.3,0.1-0.4-0.1-0.5-0.3c-0.2-0.7-0.3-1.5-1.1-1.8c-1.1-0.4-2.2-0.2-3.3-0.3c-0.6,0-0.6,0.4-0.6,0.8
			c0,2.7,0,5.4,0,8c0,1.5,0.9,2.2,2.5,2.3C69.5,22.3,69.4,22.4,69.3,22.5z"/>
	</g>
</g>
</svg>
