<?xml version="1.0" encoding="UTF-8"?>
<svg width="306px" height="69px" viewBox="0 0 306 69" version="1.1" xmlns="http://www.w3.org/2000/svg" xmlns:xlink="http://www.w3.org/1999/xlink">
    <title>Logo / Contractors / Primary / Light</title>
    <g id="Brand-Taxonomy" stroke="none" stroke-width="1" fill="none" fill-rule="evenodd">
        <g id="Product-Logos---B4L" transform="translate(-64.000000, -413.000000)">
            <g id="Group" transform="translate(64.000000, 413.000000)">
                <g transform="translate(0.000000, 10.662500)" fill="#CF392B" id="logo/brandmark/red">
                    <path d="M32.7918519,30.9676652 L20,23.2372335 L7.20814815,30.9676652 L7.20814815,18.9451982 L20,11.2207753 L32.7918519,18.9515947 L32.7918519,30.9676652 Z M20,2.5085815 L7.20814815,10.239207 L7.20814815,0 L0,0 L0,43.9209163 L0.19,43.9209163 L20,31.9494273 L39.8037037,43.9209163 L40,43.9209163 L40,14.5954009 L20,2.5085815 L20,2.5085815 Z" id="Fill-1"></path>
                </g>
                <path d="M84.708,49.6665 C87.2,49.6665 89.412,49.2535 91.344,48.4275 C93.276,47.6015 94.802,46.3555 95.922,44.6895 C97.042,43.0235 97.602,40.9585 97.602,38.4945 L97.602,38.4945 L91.554,38.4945 C91.554,40.3705 90.945,41.8405 89.727,42.9045 C88.509,43.9685 86.878,44.5005 84.834,44.5005 C79.626,44.5005 77.022,41.4625 77.022,35.3865 L77.022,35.3865 L77.022,34.1265 C77.022,31.1865 77.666,28.9325 78.954,27.3645 C80.242,25.7965 82.202,25.0125 84.834,25.0125 C86.766,25.0125 88.334,25.5515 89.538,26.6295 C90.742,27.7075 91.344,29.1845 91.344,31.0605 L91.344,31.0605 L97.602,31.0605 C97.602,28.6245 97.035,26.5595 95.901,24.8655 C94.767,23.1715 93.227,21.9115 91.281,21.0855 C89.335,20.2595 87.144,19.8465 84.708,19.8465 C80.284,19.8465 76.854,21.0855 74.418,23.5635 C71.982,26.0415 70.764,29.7725 70.764,34.7565 C70.764,44.6965 75.412,49.6665 84.708,49.6665 Z M112.134,49.6665 C115.914,49.6665 118.735,48.7285 120.597,46.8525 C122.459,44.9765 123.39,42.0645 123.39,38.1165 C123.39,34.1685 122.459,31.2565 120.597,29.3805 C118.735,27.5045 115.914,26.5665 112.134,26.5665 C108.354,26.5665 105.54,27.5045 103.692,29.3805 C101.844,31.2565 100.92,34.1685 100.92,38.1165 C100.92,42.0645 101.844,44.9765 103.692,46.8525 C105.54,48.7285 108.354,49.6665 112.134,49.6665 Z M112.134,44.9625 C110.258,44.9625 108.907,44.4235 108.081,43.3455 C107.255,42.2675 106.842,40.6365 106.842,38.4525 L106.842,38.4525 L106.842,37.7805 C106.842,35.5965 107.255,33.9655 108.081,32.8875 C108.907,31.8095 110.258,31.2705 112.134,31.2705 C114.01,31.2705 115.368,31.8095 116.208,32.8875 C117.048,33.9655 117.468,35.5965 117.468,37.7805 L117.468,37.7805 L117.468,38.4525 C117.468,40.6365 117.048,42.2675 116.208,43.3455 C115.368,44.4235 114.01,44.9625 112.134,44.9625 Z M133.722,49.1625 L133.722,36.3945 C133.722,35.0505 134.149,33.9235 135.003,33.0135 C135.857,32.1035 136.928,31.6485 138.216,31.6485 C139.476,31.6485 140.428,31.9565 141.072,32.5725 C141.716,33.1885 142.038,34.1825 142.038,35.5545 L142.038,35.5545 L142.038,49.1625 L147.792,49.1625 L147.792,34.3365 C147.792,31.6205 147.141,29.6465 145.839,28.4145 C144.537,27.1825 142.752,26.5665 140.484,26.5665 C137.684,26.5665 135.388,27.7005 133.596,29.9685 L133.596,29.9685 L133.302,29.9685 L132.882,27.0705 L127.968,27.0705 L127.968,49.1625 L133.722,49.1625 Z M159.552,49.6665 C160.168,49.6665 160.833,49.5965 161.547,49.4565 C162.261,49.3165 162.856,49.1625 163.332,48.9945 L163.332,48.9945 L163.332,44.9625 L161.316,44.9625 C160.112,44.9625 159.51,44.3605 159.51,43.1565 L159.51,43.1565 L159.51,31.7745 L163.332,31.7745 L163.332,27.0705 L159.51,27.0705 L159.51,20.8545 L154.848,20.8545 L153.882,27.0705 L151.11,27.0705 L151.11,31.7745 L153.756,31.7745 L153.756,43.7445 C153.756,45.4525 154.204,46.8665 155.1,47.9865 C155.996,49.1065 157.48,49.6665 159.552,49.6665 Z M173.37,49.1625 L173.37,38.4945 C173.37,36.4225 173.79,34.8755 174.63,33.8535 C175.47,32.8315 176.828,32.3205 178.704,32.3205 L178.704,32.3205 L180.3,32.3205 L180.3,26.9445 C179.656,26.6925 178.928,26.5665 178.116,26.5665 C176.884,26.5665 175.89,26.9305 175.134,27.6585 C174.378,28.3865 173.762,29.3805 173.286,30.6405 L173.286,30.6405 L172.992,30.6405 L172.53,27.0705 L167.616,27.0705 L167.616,49.1625 L173.37,49.1625 Z M200.628,49.6665 C201.944,49.6665 203.05,49.4425 203.946,48.9945 L203.946,48.9945 L203.946,44.9625 L202.77,44.9625 C202.35,44.9625 202,44.8435 201.72,44.6055 C201.44,44.3675 201.3,43.9965 201.3,43.4925 L201.3,43.4925 L201.3,33.7485 C201.3,31.4245 200.551,29.6465 199.053,28.4145 C197.555,27.1825 195.294,26.5665 192.27,26.5665 C189.554,26.5665 187.377,27.1265 185.739,28.2465 C184.101,29.3665 183.282,30.8505 183.282,32.6985 C183.282,33.1465 183.296,33.4545 183.324,33.6225 L183.324,33.6225 L188.868,33.6225 L188.868,32.9925 C188.868,32.4605 189.141,31.9985 189.687,31.6065 C190.233,31.2145 191.15,31.0185 192.438,31.0185 C193.642,31.0185 194.461,31.2845 194.895,31.8165 C195.329,32.3485 195.546,33.1045 195.546,34.0845 L195.546,34.0845 L195.546,35.6385 C191.29,35.6385 188,36.2335 185.676,37.4235 C183.352,38.6135 182.19,40.6225 182.19,43.4505 C182.19,45.8025 182.904,47.4265 184.332,48.3225 C185.76,49.2185 187.328,49.6665 189.036,49.6665 C190.716,49.6665 192.081,49.4215 193.131,48.9315 C194.181,48.4415 195.112,47.7205 195.924,46.7685 L195.924,46.7685 L196.176,46.7685 C196.456,47.6925 196.981,48.4065 197.751,48.9105 C198.521,49.4145 199.48,49.6665 200.628,49.6665 Z M190.842,45.1305 C189.89,45.1305 189.183,44.9205 188.721,44.5005 C188.259,44.0805 188.028,43.5205 188.028,42.8205 C188.028,40.5805 190.534,39.4605 195.546,39.4605 L195.546,39.4605 L195.546,40.1325 C195.546,41.6445 195.168,42.8555 194.412,43.7655 C193.656,44.6755 192.466,45.1305 190.842,45.1305 Z M216.462,49.6665 C219.43,49.6665 221.782,48.9175 223.518,47.4195 C225.254,45.9215 226.122,43.7305 226.122,40.8465 L226.122,40.8465 L220.578,40.8465 C220.578,42.1625 220.221,43.1915 219.507,43.9335 C218.793,44.6755 217.834,45.0465 216.63,45.0465 C214.922,45.0465 213.683,44.4935 212.913,43.3875 C212.143,42.2815 211.758,40.6365 211.758,38.4525 L211.758,38.4525 L211.758,37.7805 C211.758,35.5965 212.129,33.9515 212.871,32.8455 C213.613,31.7395 214.768,31.1865 216.336,31.1865 C217.596,31.1865 218.576,31.5505 219.276,32.2785 C219.976,33.0065 220.326,34.0425 220.326,35.3865 L220.326,35.3865 L226.122,35.3865 C226.122,32.5025 225.247,30.3115 223.497,28.8135 C221.747,27.3155 219.402,26.5665 216.462,26.5665 C212.934,26.5665 210.295,27.5115 208.545,29.4015 C206.795,31.2915 205.92,34.1965 205.92,38.1165 C205.92,42.0645 206.795,44.9765 208.545,46.8525 C210.295,48.7285 212.934,49.6665 216.462,49.6665 Z M236.58,49.6665 C237.196,49.6665 237.861,49.5965 238.575,49.4565 C239.289,49.3165 239.884,49.1625 240.36,48.9945 L240.36,48.9945 L240.36,44.9625 L238.344,44.9625 C237.14,44.9625 236.538,44.3605 236.538,43.1565 L236.538,43.1565 L236.538,31.7745 L240.36,31.7745 L240.36,27.0705 L236.538,27.0705 L236.538,20.8545 L231.876,20.8545 L230.91,27.0705 L228.138,27.0705 L228.138,31.7745 L230.784,31.7745 L230.784,43.7445 C230.784,45.4525 231.232,46.8665 232.128,47.9865 C233.024,49.1065 234.508,49.6665 236.58,49.6665 Z M254.472,49.6665 C258.252,49.6665 261.073,48.7285 262.935,46.8525 C264.797,44.9765 265.728,42.0645 265.728,38.1165 C265.728,34.1685 264.797,31.2565 262.935,29.3805 C261.073,27.5045 258.252,26.5665 254.472,26.5665 C250.692,26.5665 247.878,27.5045 246.03,29.3805 C244.182,31.2565 243.258,34.1685 243.258,38.1165 C243.258,42.0645 244.182,44.9765 246.03,46.8525 C247.878,48.7285 250.692,49.6665 254.472,49.6665 Z M254.472,44.9625 C252.596,44.9625 251.245,44.4235 250.419,43.3455 C249.593,42.2675 249.18,40.6365 249.18,38.4525 L249.18,38.4525 L249.18,37.7805 C249.18,35.5965 249.593,33.9655 250.419,32.8875 C251.245,31.8095 252.596,31.2705 254.472,31.2705 C256.348,31.2705 257.706,31.8095 258.546,32.8875 C259.386,33.9655 259.806,35.5965 259.806,37.7805 L259.806,37.7805 L259.806,38.4525 C259.806,40.6365 259.386,42.2675 258.546,43.3455 C257.706,44.4235 256.348,44.9625 254.472,44.9625 Z M276.06,49.1625 L276.06,38.4945 C276.06,36.4225 276.48,34.8755 277.32,33.8535 C278.16,32.8315 279.518,32.3205 281.394,32.3205 L281.394,32.3205 L282.99,32.3205 L282.99,26.9445 C282.346,26.6925 281.618,26.5665 280.806,26.5665 C279.574,26.5665 278.58,26.9305 277.824,27.6585 C277.068,28.3865 276.452,29.3805 275.976,30.6405 L275.976,30.6405 L275.682,30.6405 L275.22,27.0705 L270.306,27.0705 L270.306,49.1625 L276.06,49.1625 Z M295.464,49.6665 C302.212,49.6665 305.586,47.2865 305.586,42.5265 C305.586,40.9025 305.152,39.6145 304.284,38.6625 C303.416,37.7105 302.394,37.0245 301.218,36.6045 C300.042,36.1845 298.516,35.7645 296.64,35.3445 C294.932,35.0085 293.693,34.6725 292.923,34.3365 C292.153,34.0005 291.768,33.4825 291.768,32.7825 C291.768,32.2225 292.104,31.7885 292.776,31.4805 C293.448,31.1725 294.358,31.0185 295.506,31.0185 C296.654,31.0185 297.571,31.2145 298.257,31.6065 C298.943,31.9985 299.286,32.5585 299.286,33.2865 L299.286,33.2865 L299.286,33.5385 L304.872,33.5385 L304.914,32.5725 C304.914,30.7245 304.046,29.2615 302.31,28.1835 C300.574,27.1055 298.376,26.5665 295.716,26.5665 C292.86,26.5665 290.529,27.1475 288.723,28.3095 C286.917,29.4715 286.014,31.1305 286.014,33.2865 C286.014,34.8265 286.434,36.0585 287.274,36.9825 C288.114,37.9065 289.108,38.5855 290.256,39.0195 C291.404,39.4535 292.888,39.8805 294.708,40.3005 C296.472,40.6925 297.767,41.0845 298.593,41.4765 C299.419,41.8685 299.832,42.4565 299.832,43.2405 C299.832,43.9405 299.426,44.4445 298.614,44.7525 C297.802,45.0605 296.822,45.2145 295.674,45.2145 C294.442,45.2145 293.399,44.9975 292.545,44.5635 C291.691,44.1295 291.25,43.4225 291.222,42.4425 L291.222,42.4425 L291.222,42.1485 L285.636,42.1485 L285.594,42.6525 C285.594,44.7805 286.469,46.4815 288.219,47.7555 C289.969,49.0295 292.384,49.6665 295.464,49.6665 Z" id="Contractors" fill="#ECF4F9" fill-rule="nonzero"></path>
                <path d="M54.5,0 C55.2796961,0 55.9204487,0.594888083 55.9931334,1.35553999 L56,1.5 L56,66.825 C56,67.6534271 55.3284271,68.325 54.5,68.325 C53.7203039,68.325 53.0795513,67.7301119 53.0068666,66.96946 L53,66.825 L53,1.5 C53,0.671572875 53.6715729,0 54.5,0 Z" id="Line-2-Copy" fill="#9DC7E0" fill-rule="nonzero"></path>
            </g>
        </g>
    </g>
</svg>