<?xml version="1.0" encoding="UTF-8"?>
<svg width="291px" height="69px" viewBox="0 0 291 69" version="1.1" xmlns="http://www.w3.org/2000/svg" xmlns:xlink="http://www.w3.org/1999/xlink">
    <title>Logo / Lenders / Software / CLA</title>
    <g id="Brand-Taxonomy" stroke="none" stroke-width="1" fill="none" fill-rule="evenodd">
        <g id="Product-Logos---B4L" transform="translate(-867.000000, -163.000000)">
            <g id="Group" transform="translate(867.000000, 163.000000)">
                <g transform="translate(0.000000, 10.662500)" fill="#CF392B" id="logo/brandmark/red">
                    <path d="M32.7918519,30.9676652 L20,23.2372335 L7.20814815,30.9676652 L7.20814815,18.9451982 L20,11.2207753 L32.7918519,18.9515947 L32.7918519,30.9676652 Z M20,2.5085815 L7.20814815,10.239207 L7.20814815,0 L0,0 L0,43.9209163 L0.19,43.9209163 L20,31.9494273 L39.8037037,43.9209163 L40,43.9209163 L40,14.5954009 L20,2.5085815 L20,2.5085815 Z" id="Fill-1"></path>
                </g>
                <path d="M54.5,1.42108547e-14 C55.2796961,1.42108547e-14 55.9204487,0.594888083 55.9931334,1.35553999 L56,1.5 L56,66.825 C56,67.6534271 55.3284271,68.325 54.5,68.325 C53.7203039,68.325 53.0795513,67.7301119 53.0068666,66.96946 L53,66.825 L53,1.5 C53,0.671572875 53.6715729,1.42108547e-14 54.5,1.42108547e-14 Z" id="Line-2" fill="#0C1733" fill-rule="nonzero"></path>
                <g id="Construction-Loan-Ad" transform="translate(68.044000, 3.756500)" fill-rule="nonzero">
                    <path d="M8.184,16.17 C9.48933333,16.17 10.648,15.9536667 11.66,15.521 C12.672,15.0883333 13.4713333,14.4356667 14.058,13.563 C14.6446667,12.6903333 14.938,11.6086667 14.938,10.318 L14.938,10.318 L11.77,10.318 C11.77,11.3006667 11.451,12.0706667 10.813,12.628 C10.175,13.1853333 9.32066667,13.464 8.25,13.464 C5.522,13.464 4.158,11.8726667 4.158,8.69 L4.158,8.69 L4.158,8.03 C4.158,6.49 4.49533333,5.30933333 5.17,4.488 C5.84466667,3.66666667 6.87133333,3.256 8.25,3.256 C9.262,3.256 10.0833333,3.53833333 10.714,4.103 C11.3446667,4.66766667 11.66,5.44133333 11.66,6.424 L11.66,6.424 L14.938,6.424 C14.938,5.148 14.641,4.06633333 14.047,3.179 C13.453,2.29166667 12.6463333,1.63166667 11.627,1.199 C10.6076667,0.766333333 9.46,0.55 8.184,0.55 C5.86666667,0.55 4.07,1.199 2.794,2.497 C1.518,3.795 0.88,5.74933333 0.88,8.36 C0.88,13.5666667 3.31466667,16.17 8.184,16.17 Z M22.55,16.17 C24.53,16.17 26.0076667,15.6786667 26.983,14.696 C27.9583333,13.7133333 28.446,12.188 28.446,10.12 C28.446,8.052 27.9583333,6.52666667 26.983,5.544 C26.0076667,4.56133333 24.53,4.07 22.55,4.07 C20.57,4.07 19.096,4.56133333 18.128,5.544 C17.16,6.52666667 16.676,8.052 16.676,10.12 C16.676,12.188 17.16,13.7133333 18.128,14.696 C19.096,15.6786667 20.57,16.17 22.55,16.17 Z M22.55,13.706 C21.5673333,13.706 20.8596667,13.4236667 20.427,12.859 C19.9943333,12.2943333 19.778,11.44 19.778,10.296 L19.778,10.296 L19.778,9.944 C19.778,8.8 19.9943333,7.94566667 20.427,7.381 C20.8596667,6.81633333 21.5673333,6.534 22.55,6.534 C23.5326667,6.534 24.244,6.81633333 24.684,7.381 C25.124,7.94566667 25.344,8.8 25.344,9.944 L25.344,9.944 L25.344,10.296 C25.344,11.44 25.124,12.2943333 24.684,12.859 C24.244,13.4236667 23.5326667,13.706 22.55,13.706 Z M33.858,15.906 L33.858,9.218 C33.858,8.514 34.0816667,7.92366667 34.529,7.447 C34.9763333,6.97033333 35.5373333,6.732 36.212,6.732 C36.872,6.732 37.3706667,6.89333333 37.708,7.216 C38.0453333,7.53866667 38.214,8.05933333 38.214,8.778 L38.214,8.778 L38.214,15.906 L41.228,15.906 L41.228,8.14 C41.228,6.71733333 40.887,5.68333333 40.205,5.038 C39.523,4.39266667 38.588,4.07 37.4,4.07 C35.9333333,4.07 34.7306667,4.664 33.792,5.852 L33.792,5.852 L33.638,5.852 L33.418,4.334 L30.844,4.334 L30.844,15.906 L33.858,15.906 Z M48.906,16.17 C52.4406667,16.17 54.208,14.9233333 54.208,12.43 C54.208,11.5793333 53.9806667,10.9046667 53.526,10.406 C53.0713333,9.90733333 52.536,9.548 51.92,9.328 C51.304,9.108 50.5046667,8.888 49.522,8.668 C48.6273333,8.492 47.9783333,8.316 47.575,8.14 C47.1716667,7.964 46.97,7.69266667 46.97,7.326 C46.97,7.03266667 47.146,6.80533333 47.498,6.644 C47.85,6.48266667 48.3266667,6.402 48.928,6.402 C49.5293333,6.402 50.0096667,6.50466667 50.369,6.71 C50.7283333,6.91533333 50.908,7.20866667 50.908,7.59 L50.908,7.59 L50.908,7.722 L53.834,7.722 L53.856,7.216 C53.856,6.248 53.4013333,5.48166667 52.492,4.917 C51.5826667,4.35233333 50.4313333,4.07 49.038,4.07 C47.542,4.07 46.321,4.37433333 45.375,4.983 C44.429,5.59166667 43.956,6.46066667 43.956,7.59 C43.956,8.39666667 44.176,9.042 44.616,9.526 C45.056,10.01 45.5766667,10.3656667 46.178,10.593 C46.7793333,10.8203333 47.5566667,11.044 48.51,11.264 C49.434,11.4693333 50.1123333,11.6746667 50.545,11.88 C50.9776667,12.0853333 51.194,12.3933333 51.194,12.804 C51.194,13.1706667 50.9813333,13.4346667 50.556,13.596 C50.1306667,13.7573333 49.6173333,13.838 49.016,13.838 C48.3706667,13.838 47.8243333,13.7243333 47.377,13.497 C46.9296667,13.2696667 46.6986667,12.8993333 46.684,12.386 L46.684,12.386 L46.684,12.232 L43.758,12.232 L43.736,12.496 C43.736,13.6106667 44.1943333,14.5016667 45.111,15.169 C46.0276667,15.8363333 47.2926667,16.17 48.906,16.17 Z M59.62,16.17 C59.9426667,16.17 60.291,16.1333333 60.665,16.06 C61.039,15.9866667 61.3506667,15.906 61.6,15.818 L61.6,15.818 L61.6,13.706 L60.544,13.706 C59.9133333,13.706 59.598,13.3906667 59.598,12.76 L59.598,12.76 L59.598,6.798 L61.6,6.798 L61.6,4.334 L59.598,4.334 L59.598,1.078 L57.156,1.078 L56.65,4.334 L55.198,4.334 L55.198,6.798 L56.584,6.798 L56.584,13.068 C56.584,13.9626667 56.8186667,14.7033333 57.288,15.29 C57.7573333,15.8766667 58.5346667,16.17 59.62,16.17 Z M66.858,15.906 L66.858,10.318 C66.858,9.23266667 67.078,8.42233333 67.518,7.887 C67.958,7.35166667 68.6693333,7.084 69.652,7.084 L69.652,7.084 L70.488,7.084 L70.488,4.268 C70.1506667,4.136 69.7693333,4.07 69.344,4.07 C68.6986667,4.07 68.178,4.26066667 67.782,4.642 C67.386,5.02333333 67.0633333,5.544 66.814,6.204 L66.814,6.204 L66.66,6.204 L66.418,4.334 L63.844,4.334 L63.844,15.906 L66.858,15.906 Z M76.164,16.17 C77.6306667,16.17 78.8333333,15.576 79.772,14.388 L79.772,14.388 L79.926,14.388 L80.146,15.906 L82.72,15.906 L82.72,4.334 L79.706,4.334 L79.706,11.022 C79.706,11.726 79.4823333,12.3163333 79.035,12.793 C78.5876667,13.2696667 78.0266667,13.508 77.352,13.508 C76.692,13.508 76.1933333,13.3466667 75.856,13.024 C75.5186667,12.7013333 75.35,12.1806667 75.35,11.462 L75.35,11.462 L75.35,4.334 L72.336,4.334 L72.336,12.1 C72.336,13.5226667 72.677,14.5566667 73.359,15.202 C74.041,15.8473333 74.976,16.17 76.164,16.17 Z M90.64,16.17 C92.1946667,16.17 93.4266667,15.7776667 94.336,14.993 C95.2453333,14.2083333 95.7,13.0606667 95.7,11.55 L95.7,11.55 L92.796,11.55 C92.796,12.2393333 92.609,12.7783333 92.235,13.167 C91.861,13.5556667 91.3586667,13.75 90.728,13.75 C89.8333333,13.75 89.1843333,13.4603333 88.781,12.881 C88.3776667,12.3016667 88.176,11.44 88.176,10.296 L88.176,10.296 L88.176,9.944 C88.176,8.8 88.3703333,7.93833333 88.759,7.359 C89.1476667,6.77966667 89.7526667,6.49 90.574,6.49 C91.234,6.49 91.7473333,6.68066667 92.114,7.062 C92.4806667,7.44333333 92.664,7.986 92.664,8.69 L92.664,8.69 L95.7,8.69 C95.7,7.17933333 95.2416667,6.03166667 94.325,5.247 C93.4083333,4.46233333 92.18,4.07 90.64,4.07 C88.792,4.07 87.4096667,4.565 86.493,5.555 C85.5763333,6.545 85.118,8.06666667 85.118,10.12 C85.118,12.188 85.5763333,13.7133333 86.493,14.696 C87.4096667,15.6786667 88.792,16.17 90.64,16.17 Z M101.178,16.17 C101.500667,16.17 101.849,16.1333333 102.223,16.06 C102.597,15.9866667 102.908667,15.906 103.158,15.818 L103.158,15.818 L103.158,13.706 L102.102,13.706 C101.471333,13.706 101.156,13.3906667 101.156,12.76 L101.156,12.76 L101.156,6.798 L103.158,6.798 L103.158,4.334 L101.156,4.334 L101.156,1.078 L98.714,1.078 L98.208,4.334 L96.756,4.334 L96.756,6.798 L98.142,6.798 L98.142,13.068 C98.142,13.9626667 98.3766667,14.7033333 98.846,15.29 C99.3153333,15.8766667 100.092667,16.17 101.178,16.17 Z M108.394,2.86 L108.394,-2.84217094e-14 L105.38,-2.84217094e-14 L105.38,2.86 L108.394,2.86 Z M108.394,15.906 L108.394,4.334 L105.38,4.334 L105.38,15.906 L108.394,15.906 Z M116.666,16.17 C118.646,16.17 120.123667,15.6786667 121.099,14.696 C122.074333,13.7133333 122.562,12.188 122.562,10.12 C122.562,8.052 122.074333,6.52666667 121.099,5.544 C120.123667,4.56133333 118.646,4.07 116.666,4.07 C114.686,4.07 113.212,4.56133333 112.244,5.544 C111.276,6.52666667 110.792,8.052 110.792,10.12 C110.792,12.188 111.276,13.7133333 112.244,14.696 C113.212,15.6786667 114.686,16.17 116.666,16.17 Z M116.666,13.706 C115.683333,13.706 114.975667,13.4236667 114.543,12.859 C114.110333,12.2943333 113.894,11.44 113.894,10.296 L113.894,10.296 L113.894,9.944 C113.894,8.8 114.110333,7.94566667 114.543,7.381 C114.975667,6.81633333 115.683333,6.534 116.666,6.534 C117.648667,6.534 118.36,6.81633333 118.8,7.381 C119.24,7.94566667 119.46,8.8 119.46,9.944 L119.46,9.944 L119.46,10.296 C119.46,11.44 119.24,12.2943333 118.8,12.859 C118.36,13.4236667 117.648667,13.706 116.666,13.706 Z M127.974,15.906 L127.974,9.218 C127.974,8.514 128.197667,7.92366667 128.645,7.447 C129.092333,6.97033333 129.653333,6.732 130.328,6.732 C130.988,6.732 131.486667,6.89333333 131.824,7.216 C132.161333,7.53866667 132.33,8.05933333 132.33,8.778 L132.33,8.778 L132.33,15.906 L135.344,15.906 L135.344,8.14 C135.344,6.71733333 135.003,5.68333333 134.321,5.038 C133.639,4.39266667 132.704,4.07 131.516,4.07 C130.049333,4.07 128.846667,4.664 127.908,5.852 L127.908,5.852 L127.754,5.852 L127.534,4.334 L124.96,4.334 L124.96,15.906 L127.974,15.906 Z M155.76,15.906 L155.76,13.134 L147.62,13.134 L147.62,0.814 L144.43,0.814 L144.43,15.906 L155.76,15.906 Z M163.108,16.17 C165.088,16.17 166.565667,15.6786667 167.541,14.696 C168.516333,13.7133333 169.004,12.188 169.004,10.12 C169.004,8.052 168.516333,6.52666667 167.541,5.544 C166.565667,4.56133333 165.088,4.07 163.108,4.07 C161.128,4.07 159.654,4.56133333 158.686,5.544 C157.718,6.52666667 157.234,8.052 157.234,10.12 C157.234,12.188 157.718,13.7133333 158.686,14.696 C159.654,15.6786667 161.128,16.17 163.108,16.17 Z M163.108,13.706 C162.125333,13.706 161.417667,13.4236667 160.985,12.859 C160.552333,12.2943333 160.336,11.44 160.336,10.296 L160.336,10.296 L160.336,9.944 C160.336,8.8 160.552333,7.94566667 160.985,7.381 C161.417667,6.81633333 162.125333,6.534 163.108,6.534 C164.090667,6.534 164.802,6.81633333 165.242,7.381 C165.682,7.94566667 165.902,8.8 165.902,9.944 L165.902,9.944 L165.902,10.296 C165.902,11.44 165.682,12.2943333 165.242,12.859 C164.802,13.4236667 164.090667,13.706 163.108,13.706 Z M180.136,16.17 C180.825333,16.17 181.404667,16.0526667 181.874,15.818 L181.874,15.818 L181.874,13.706 L181.258,13.706 C181.038,13.706 180.854667,13.6436667 180.708,13.519 C180.561333,13.3943333 180.488,13.2 180.488,12.936 L180.488,12.936 L180.488,7.832 C180.488,6.61466667 180.095667,5.68333333 179.311,5.038 C178.526333,4.39266667 177.342,4.07 175.758,4.07 C174.335333,4.07 173.195,4.36333333 172.337,4.95 C171.479,5.53666667 171.05,6.314 171.05,7.282 C171.05,7.51666667 171.057333,7.678 171.072,7.766 L171.072,7.766 L173.976,7.766 L173.976,7.436 C173.976,7.15733333 174.119,6.91533333 174.405,6.71 C174.691,6.50466667 175.171333,6.402 175.846,6.402 C176.476667,6.402 176.905667,6.54133333 177.133,6.82 C177.360333,7.09866667 177.474,7.49466667 177.474,8.008 L177.474,8.008 L177.474,8.822 C175.244667,8.822 173.521333,9.13366667 172.304,9.757 C171.086667,10.3803333 170.478,11.4326667 170.478,12.914 C170.478,14.146 170.852,14.9966667 171.6,15.466 C172.348,15.9353333 173.169333,16.17 174.064,16.17 C174.944,16.17 175.659,16.0416667 176.209,15.785 C176.759,15.5283333 177.246667,15.1506667 177.672,14.652 L177.672,14.652 L177.804,14.652 C177.950667,15.136 178.225667,15.51 178.629,15.774 C179.032333,16.038 179.534667,16.17 180.136,16.17 Z M175.01,13.794 C174.511333,13.794 174.141,13.684 173.899,13.464 C173.657,13.244 173.536,12.9506667 173.536,12.584 C173.536,11.4106667 174.848667,10.824 177.474,10.824 L177.474,10.824 L177.474,11.176 C177.474,11.968 177.276,12.6023333 176.88,13.079 C176.484,13.5556667 175.860667,13.794 175.01,13.794 Z M186.648,15.906 L186.648,9.218 C186.648,8.514 186.871667,7.92366667 187.319,7.447 C187.766333,6.97033333 188.327333,6.732 189.002,6.732 C189.662,6.732 190.160667,6.89333333 190.498,7.216 C190.835333,7.53866667 191.004,8.05933333 191.004,8.778 L191.004,8.778 L191.004,15.906 L194.018,15.906 L194.018,8.14 C194.018,6.71733333 193.677,5.68333333 192.995,5.038 C192.313,4.39266667 191.378,4.07 190.19,4.07 C188.723333,4.07 187.520667,4.664 186.582,5.852 L186.582,5.852 L186.428,5.852 L186.208,4.334 L183.634,4.334 L183.634,15.906 L186.648,15.906 Z M3.3,39.906 L4.378,37.024 L11.242,37.024 L12.32,39.906 L15.796,39.906 L9.9,24.814 L5.896,24.814 L-5.68434189e-14,39.906 L3.3,39.906 Z M10.23,34.362 L5.368,34.362 L6.798,30.534 C6.974,30.0646667 7.28933333,29.0746667 7.744,27.564 L7.744,27.564 L7.854,27.564 C8.30866667,29.0746667 8.624,30.0646667 8.8,30.534 L8.8,30.534 L10.23,34.362 Z M21.274,40.17 C22.022,40.17 22.704,40.0196667 23.32,39.719 C23.936,39.4183333 24.4273333,38.9746667 24.794,38.388 L24.794,38.388 L24.948,38.388 L25.146,39.906 L27.72,39.906 L27.72,24 L24.706,24 L24.706,29.676 L24.574,29.676 C24.2366667,29.1626667 23.771,28.7666667 23.177,28.488 C22.583,28.2093333 21.8973333,28.07 21.12,28.07 C19.7706667,28.07 18.689,28.576 17.875,29.588 C17.061,30.6 16.654,32.1033333 16.654,34.098 C16.654,36.1366667 17.0573333,37.6583333 17.864,38.663 C18.6706667,39.6676667 19.8073333,40.17 21.274,40.17 Z M22.242,37.552 C21.3473333,37.552 20.7093333,37.2843333 20.328,36.749 C19.9466667,36.2136667 19.756,35.4033333 19.756,34.318 L19.756,34.318 L19.756,33.922 C19.756,32.8366667 19.9466667,32.0263333 20.328,31.491 C20.7093333,30.9556667 21.3473333,30.688 22.242,30.688 C23.8846667,30.688 24.706,31.7806667 24.706,33.966 L24.706,33.966 L24.706,34.318 C24.706,36.474 23.8846667,37.552 22.242,37.552 Z M33.858,39.906 L33.858,33.218 C33.858,32.514 34.0523333,31.9236667 34.441,31.447 C34.8296667,30.9703333 35.3173333,30.732 35.904,30.732 C37.0333333,30.732 37.598,31.414 37.598,32.778 L37.598,32.778 L37.598,39.906 L40.612,39.906 L40.612,33.218 C40.612,32.514 40.8026667,31.9236667 41.184,31.447 C41.5653333,30.9703333 42.0493333,30.732 42.636,30.732 C43.7653333,30.732 44.33,31.414 44.33,32.778 L44.33,32.778 L44.33,39.906 L47.344,39.906 L47.344,32.14 C47.344,30.7173333 47.0176667,29.6833333 46.365,29.038 C45.7123333,28.3926667 44.836,28.07 43.736,28.07 C42.328,28.07 41.184,28.664 40.304,29.852 L40.304,29.852 L40.128,29.852 C39.5706667,28.664 38.5586667,28.07 37.092,28.07 C35.7426667,28.07 34.6426667,28.664 33.792,29.852 L33.792,29.852 L33.638,29.852 L33.418,28.334 L30.844,28.334 L30.844,39.906 L33.858,39.906 Z M53.394,26.86 L53.394,24 L50.38,24 L50.38,26.86 L53.394,26.86 Z M53.394,39.906 L53.394,28.334 L50.38,28.334 L50.38,39.906 L53.394,39.906 Z M59.532,39.906 L59.532,33.218 C59.532,32.514 59.7556667,31.9236667 60.203,31.447 C60.6503333,30.9703333 61.2113333,30.732 61.886,30.732 C62.546,30.732 63.0446667,30.8933333 63.382,31.216 C63.7193333,31.5386667 63.888,32.0593333 63.888,32.778 L63.888,32.778 L63.888,39.906 L66.902,39.906 L66.902,32.14 C66.902,30.7173333 66.561,29.6833333 65.879,29.038 C65.197,28.3926667 64.262,28.07 63.074,28.07 C61.6073333,28.07 60.4046667,28.664 59.466,29.852 L59.466,29.852 L59.312,29.852 L59.092,28.334 L56.518,28.334 L56.518,39.906 L59.532,39.906 Z M72.952,26.86 L72.952,24 L69.938,24 L69.938,26.86 L72.952,26.86 Z M72.952,39.906 L72.952,28.334 L69.938,28.334 L69.938,39.906 L72.952,39.906 Z M80.696,40.17 C84.2306667,40.17 85.998,38.9233333 85.998,36.43 C85.998,35.5793333 85.7706667,34.9046667 85.316,34.406 C84.8613333,33.9073333 84.326,33.548 83.71,33.328 C83.094,33.108 82.2946667,32.888 81.312,32.668 C80.4173333,32.492 79.7683333,32.316 79.365,32.14 C78.9616667,31.964 78.76,31.6926667 78.76,31.326 C78.76,31.0326667 78.936,30.8053333 79.288,30.644 C79.64,30.4826667 80.1166667,30.402 80.718,30.402 C81.3193333,30.402 81.7996667,30.5046667 82.159,30.71 C82.5183333,30.9153333 82.698,31.2086667 82.698,31.59 L82.698,31.59 L82.698,31.722 L85.624,31.722 L85.646,31.216 C85.646,30.248 85.1913333,29.4816667 84.282,28.917 C83.3726667,28.3523333 82.2213333,28.07 80.828,28.07 C79.332,28.07 78.111,28.3743333 77.165,28.983 C76.219,29.5916667 75.746,30.4606667 75.746,31.59 C75.746,32.3966667 75.966,33.042 76.406,33.526 C76.846,34.01 77.3666667,34.3656667 77.968,34.593 C78.5693333,34.8203333 79.3466667,35.044 80.3,35.264 C81.224,35.4693333 81.9023333,35.6746667 82.335,35.88 C82.7676667,36.0853333 82.984,36.3933333 82.984,36.804 C82.984,37.1706667 82.7713333,37.4346667 82.346,37.596 C81.9206667,37.7573333 81.4073333,37.838 80.806,37.838 C80.1606667,37.838 79.6143333,37.7243333 79.167,37.497 C78.7196667,37.2696667 78.4886667,36.8993333 78.474,36.386 L78.474,36.386 L78.474,36.232 L75.548,36.232 L75.526,36.496 C75.526,37.6106667 75.9843333,38.5016667 76.901,39.169 C77.8176667,39.8363333 79.0826667,40.17 80.696,40.17 Z M91.41,40.17 C91.7326667,40.17 92.081,40.1333333 92.455,40.06 C92.829,39.9866667 93.1406667,39.906 93.39,39.818 L93.39,39.818 L93.39,37.706 L92.334,37.706 C91.7033333,37.706 91.388,37.3906667 91.388,36.76 L91.388,36.76 L91.388,30.798 L93.39,30.798 L93.39,28.334 L91.388,28.334 L91.388,25.078 L88.946,25.078 L88.44,28.334 L86.988,28.334 L86.988,30.798 L88.374,30.798 L88.374,37.068 C88.374,37.9626667 88.6086667,38.7033333 89.078,39.29 C89.5473333,39.8766667 90.3246667,40.17 91.41,40.17 Z M98.648,39.906 L98.648,34.318 C98.648,33.2326667 98.868,32.4223333 99.308,31.887 C99.748,31.3516667 100.459333,31.084 101.442,31.084 L101.442,31.084 L102.278,31.084 L102.278,28.268 C101.940667,28.136 101.559333,28.07 101.134,28.07 C100.488667,28.07 99.968,28.2606667 99.572,28.642 C99.176,29.0233333 98.8533333,29.544 98.604,30.204 L98.604,30.204 L98.45,30.204 L98.208,28.334 L95.634,28.334 L95.634,39.906 L98.648,39.906 Z M112.926,40.17 C113.615333,40.17 114.194667,40.0526667 114.664,39.818 L114.664,39.818 L114.664,37.706 L114.048,37.706 C113.828,37.706 113.644667,37.6436667 113.498,37.519 C113.351333,37.3943333 113.278,37.2 113.278,36.936 L113.278,36.936 L113.278,31.832 C113.278,30.6146667 112.885667,29.6833333 112.101,29.038 C111.316333,28.3926667 110.132,28.07 108.548,28.07 C107.125333,28.07 105.985,28.3633333 105.127,28.95 C104.269,29.5366667 103.84,30.314 103.84,31.282 C103.84,31.5166667 103.847333,31.678 103.862,31.766 L103.862,31.766 L106.766,31.766 L106.766,31.436 C106.766,31.1573333 106.909,30.9153333 107.195,30.71 C107.481,30.5046667 107.961333,30.402 108.636,30.402 C109.266667,30.402 109.695667,30.5413333 109.923,30.82 C110.150333,31.0986667 110.264,31.4946667 110.264,32.008 L110.264,32.008 L110.264,32.822 C108.034667,32.822 106.311333,33.1336667 105.094,33.757 C103.876667,34.3803333 103.268,35.4326667 103.268,36.914 C103.268,38.146 103.642,38.9966667 104.39,39.466 C105.138,39.9353333 105.959333,40.17 106.854,40.17 C107.734,40.17 108.449,40.0416667 108.999,39.785 C109.549,39.5283333 110.036667,39.1506667 110.462,38.652 L110.462,38.652 L110.594,38.652 C110.740667,39.136 111.015667,39.51 111.419,39.774 C111.822333,40.038 112.324667,40.17 112.926,40.17 Z M107.8,37.794 C107.301333,37.794 106.931,37.684 106.689,37.464 C106.447,37.244 106.326,36.9506667 106.326,36.584 C106.326,35.4106667 107.638667,34.824 110.264,34.824 L110.264,34.824 L110.264,35.176 C110.264,35.968 110.066,36.6023333 109.67,37.079 C109.274,37.5556667 108.650667,37.794 107.8,37.794 Z M119.526,40.17 C119.848667,40.17 120.197,40.1333333 120.571,40.06 C120.945,39.9866667 121.256667,39.906 121.506,39.818 L121.506,39.818 L121.506,37.706 L120.45,37.706 C119.819333,37.706 119.504,37.3906667 119.504,36.76 L119.504,36.76 L119.504,30.798 L121.506,30.798 L121.506,28.334 L119.504,28.334 L119.504,25.078 L117.062,25.078 L116.556,28.334 L115.104,28.334 L115.104,30.798 L116.49,30.798 L116.49,37.068 C116.49,37.9626667 116.724667,38.7033333 117.194,39.29 C117.663333,39.8766667 118.440667,40.17 119.526,40.17 Z M126.742,26.86 L126.742,24 L123.728,24 L123.728,26.86 L126.742,26.86 Z M126.742,39.906 L126.742,28.334 L123.728,28.334 L123.728,39.906 L126.742,39.906 Z M135.014,40.17 C136.994,40.17 138.471667,39.6786667 139.447,38.696 C140.422333,37.7133333 140.91,36.188 140.91,34.12 C140.91,32.052 140.422333,30.5266667 139.447,29.544 C138.471667,28.5613333 136.994,28.07 135.014,28.07 C133.034,28.07 131.56,28.5613333 130.592,29.544 C129.624,30.5266667 129.14,32.052 129.14,34.12 C129.14,36.188 129.624,37.7133333 130.592,38.696 C131.56,39.6786667 133.034,40.17 135.014,40.17 Z M135.014,37.706 C134.031333,37.706 133.323667,37.4236667 132.891,36.859 C132.458333,36.2943333 132.242,35.44 132.242,34.296 L132.242,34.296 L132.242,33.944 C132.242,32.8 132.458333,31.9456667 132.891,31.381 C133.323667,30.8163333 134.031333,30.534 135.014,30.534 C135.996667,30.534 136.708,30.8163333 137.148,31.381 C137.588,31.9456667 137.808,32.8 137.808,33.944 L137.808,33.944 L137.808,34.296 C137.808,35.44 137.588,36.2943333 137.148,36.859 C136.708,37.4236667 135.996667,37.706 135.014,37.706 Z M146.322,39.906 L146.322,33.218 C146.322,32.514 146.545667,31.9236667 146.993,31.447 C147.440333,30.9703333 148.001333,30.732 148.676,30.732 C149.336,30.732 149.834667,30.8933333 150.172,31.216 C150.509333,31.5386667 150.678,32.0593333 150.678,32.778 L150.678,32.778 L150.678,39.906 L153.692,39.906 L153.692,32.14 C153.692,30.7173333 153.351,29.6833333 152.669,29.038 C151.987,28.3926667 151.052,28.07 149.864,28.07 C148.397333,28.07 147.194667,28.664 146.256,29.852 L146.256,29.852 L146.102,29.852 L145.882,28.334 L143.308,28.334 L143.308,39.906 L146.322,39.906 Z M168.564,40.17 C170.558667,40.17 172.131667,39.7886667 173.283,39.026 C174.434333,38.2633333 175.01,37.0753333 175.01,35.462 C175.01,34.4646667 174.731333,33.658 174.174,33.042 C173.616667,32.426 172.953,31.9603333 172.183,31.645 C171.413,31.3296667 170.426667,31.0106667 169.224,30.688 C168.417333,30.468 167.794,30.281 167.354,30.127 C166.914,29.973 166.547333,29.775 166.254,29.533 C165.960667,29.291 165.814,29.0013333 165.814,28.664 C165.814,28.224 166.059667,27.8793333 166.551,27.63 C167.042333,27.3806667 167.75,27.256 168.674,27.256 C169.539333,27.256 170.225,27.4173333 170.731,27.74 C171.237,28.0626667 171.49,28.5026667 171.49,29.06 L171.49,29.06 L171.49,29.258 L174.658,29.258 L174.658,28.994 C174.658,27.5126667 174.104333,26.4016667 172.997,25.661 C171.889667,24.9203333 170.463333,24.55 168.718,24.55 C166.87,24.55 165.388667,24.9093333 164.274,25.628 C163.159333,26.3466667 162.602,27.3953333 162.602,28.774 C162.602,29.7713333 162.866,30.5743333 163.394,31.183 C163.922,31.7916667 164.552667,32.25 165.286,32.558 C166.019333,32.866 166.98,33.1886667 168.168,33.526 C169.004,33.7606667 169.660333,33.9623333 170.137,34.131 C170.613667,34.2996667 171.009667,34.527 171.325,34.813 C171.640333,35.099 171.798,35.4546667 171.798,35.88 C171.798,36.364 171.556,36.749 171.072,37.035 C170.588,37.321 169.803333,37.464 168.718,37.464 C167.691333,37.464 166.892,37.2733333 166.32,36.892 C165.748,36.5106667 165.462,35.9973333 165.462,35.352 L165.462,35.352 L165.484,35 L162.25,35 L162.228,35.484 C162.228,36.4813333 162.514,37.332 163.086,38.036 C163.658,38.74 164.424333,39.2716667 165.385,39.631 C166.345667,39.9903333 167.405333,40.17 168.564,40.17 Z M181.302,40.17 C182.768667,40.17 183.971333,39.576 184.91,38.388 L184.91,38.388 L185.064,38.388 L185.284,39.906 L187.858,39.906 L187.858,28.334 L184.844,28.334 L184.844,35.022 C184.844,35.726 184.620333,36.3163333 184.173,36.793 C183.725667,37.2696667 183.164667,37.508 182.49,37.508 C181.83,37.508 181.331333,37.3466667 180.994,37.024 C180.656667,36.7013333 180.488,36.1806667 180.488,35.462 L180.488,35.462 L180.488,28.334 L177.474,28.334 L177.474,36.1 C177.474,37.5226667 177.815,38.5566667 178.497,39.202 C179.179,39.8473333 180.114,40.17 181.302,40.17 Z M193.974,26.86 L193.974,24 L190.96,24 L190.96,26.86 L193.974,26.86 Z M193.974,39.906 L193.974,28.334 L190.96,28.334 L190.96,39.906 L193.974,39.906 Z M200.2,40.17 C200.522667,40.17 200.871,40.1333333 201.245,40.06 C201.619,39.9866667 201.930667,39.906 202.18,39.818 L202.18,39.818 L202.18,37.706 L201.124,37.706 C200.493333,37.706 200.178,37.3906667 200.178,36.76 L200.178,36.76 L200.178,30.798 L202.18,30.798 L202.18,28.334 L200.178,28.334 L200.178,25.078 L197.736,25.078 L197.23,28.334 L195.778,28.334 L195.778,30.798 L197.164,30.798 L197.164,37.068 C197.164,37.9626667 197.398667,38.7033333 197.868,39.29 C198.337333,39.8766667 199.114667,40.17 200.2,40.17 Z M209.198,40.17 C210.738,40.17 211.977333,39.807 212.916,39.081 C213.854667,38.355 214.324,37.266 214.324,35.814 L214.324,35.814 L211.354,35.814 C211.354,36.4593333 211.159667,36.958 210.771,37.31 C210.382333,37.662 209.872667,37.838 209.242,37.838 C208.347333,37.838 207.709333,37.5923333 207.328,37.101 C206.946667,36.6096667 206.741333,35.8506667 206.712,34.824 L206.712,34.824 L214.324,34.824 L214.324,34.12 C214.324,32.0666667 213.898667,30.545 213.048,29.555 C212.197333,28.565 210.914,28.07 209.198,28.07 C207.335333,28.07 205.945667,28.5613333 205.029,29.544 C204.112333,30.5266667 203.654,32.052 203.654,34.12 C203.654,36.188 204.112333,37.7133333 205.029,38.696 C205.945667,39.6786667 207.335333,40.17 209.198,40.17 Z M211.2,32.822 L206.756,32.822 C206.844,32.0153333 207.082333,31.414 207.471,31.018 C207.859667,30.622 208.435333,30.424 209.198,30.424 C210.532667,30.424 211.2,31.2233333 211.2,32.822 L211.2,32.822 Z" id="ConstructionLoanAdministrationSuite" fill="#0C1733"></path>
                    <path d="M5.566,60.11 C7.10733333,60.11 8.32283333,59.8153333 9.2125,59.226 C10.1021667,58.6366667 10.547,57.7186667 10.547,56.472 C10.547,55.7013333 10.3316667,55.078 9.901,54.602 C9.47033333,54.126 8.9575,53.7661667 8.3625,53.5225 C7.7675,53.2788333 7.00533333,53.0323333 6.076,52.783 C5.45266667,52.613 4.971,52.4685 4.631,52.3495 C4.291,52.2305 4.00766667,52.0775 3.781,51.8905 C3.55433333,51.7035 3.441,51.4796667 3.441,51.219 C3.441,50.879 3.63083333,50.6126667 4.0105,50.42 C4.39016667,50.2273333 4.937,50.131 5.651,50.131 C6.31966667,50.131 6.8495,50.2556667 7.2405,50.505 C7.6315,50.7543333 7.827,51.0943333 7.827,51.525 L7.827,51.525 L7.827,51.678 L10.275,51.678 L10.275,51.474 C10.275,50.3293333 9.84716667,49.4708333 8.9915,48.8985 C8.13583333,48.3261667 7.03366667,48.04 5.685,48.04 C4.257,48.04 3.11233333,48.3176667 2.251,48.873 C1.38966667,49.4283333 0.959,50.2386667 0.959,51.304 C0.959,52.0746667 1.163,52.6951667 1.571,53.1655 C1.979,53.6358333 2.46633333,53.99 3.033,54.228 C3.59966667,54.466 4.342,54.7153333 5.26,54.976 C5.906,55.1573333 6.41316667,55.3131667 6.7815,55.4435 C7.14983333,55.5738333 7.45583333,55.7495 7.6995,55.9705 C7.94316667,56.1915 8.065,56.4663333 8.065,56.795 C8.065,57.169 7.878,57.4665 7.504,57.6875 C7.13,57.9085 6.52366667,58.019 5.685,58.019 C4.89166667,58.019 4.274,57.8716667 3.832,57.577 C3.39,57.2823333 3.169,56.8856667 3.169,56.387 L3.169,56.387 L3.186,56.115 L0.687,56.115 L0.67,56.489 C0.67,57.2596667 0.891,57.917 1.333,58.461 C1.775,59.005 2.36716667,59.4158333 3.1095,59.6935 C3.85183333,59.9711667 4.67066667,60.11 5.566,60.11 Z M17.908,60.11 C19.7893333,60.11 21.2456667,59.6085 22.277,58.6055 C23.3083333,57.6025 23.824,56.0923333 23.824,54.075 C23.824,52.0576667 23.3083333,50.5475 22.277,49.5445 C21.2456667,48.5415 19.7893333,48.04 17.908,48.04 C16.038,48.04 14.5873333,48.5415 13.556,49.5445 C12.5246667,50.5475 12.009,52.0576667 12.009,54.075 C12.009,56.0923333 12.5246667,57.6025 13.556,58.6055 C14.5873333,59.6085 16.038,60.11 17.908,60.11 Z M17.908,58.019 C16.7973333,58.019 15.9586667,57.6988333 15.392,57.0585 C14.8253333,56.4181667 14.542,55.5086667 14.542,54.33 L14.542,54.33 L14.542,53.82 C14.542,52.6413333 14.8253333,51.7318333 15.392,51.0915 C15.9586667,50.4511667 16.7973333,50.131 17.908,50.131 C19.0186667,50.131 19.8601667,50.4511667 20.4325,51.0915 C21.0048333,51.7318333 21.291,52.6413333 21.291,53.82 L21.291,53.82 L21.291,54.33 C21.291,55.5086667 21.0048333,56.4181667 20.4325,57.0585 C19.8601667,57.6988333 19.0186667,58.019 17.908,58.019 Z M28.125,59.906 L28.125,55.299 L33.48,55.299 L33.48,53.208 L28.125,53.208 L28.125,50.335 L34.109,50.335 L34.109,48.244 L25.66,48.244 L25.66,59.906 L28.125,59.906 Z M41.334,59.906 L41.334,50.369 L44.938,50.369 L44.938,48.244 L35.265,48.244 L35.265,50.369 L38.869,50.369 L38.869,59.906 L41.334,59.906 Z M51.092,59.906 L52.979,52.477 C53.0583333,52.1596667 53.1546667,51.61 53.268,50.828 L53.268,50.828 L53.336,50.828 C53.4266667,51.5533333 53.523,52.103 53.625,52.477 L53.625,52.477 L55.546,59.906 L58.215,59.906 L61.309,48.244 L59.031,48.244 L57.297,55.418 C57.2063333,55.7806667 57.1156667,56.3246667 57.025,57.05 L57.025,57.05 L56.94,57.05 C56.8266667,56.2566667 56.736,55.7126667 56.668,55.418 L56.668,55.418 L54.968,48.244 L51.993,48.244 L50.276,55.418 C50.1966667,55.7353333 50.106,56.2793333 50.004,57.05 L50.004,57.05 L49.919,57.05 C49.817,56.2793333 49.7263333,55.7353333 49.647,55.418 L49.647,55.418 L47.964,48.244 L45.329,48.244 L48.423,59.906 L51.092,59.906 Z M62.992,59.906 L63.825,57.679 L69.129,57.679 L69.962,59.906 L72.648,59.906 L68.092,48.244 L64.998,48.244 L60.442,59.906 L62.992,59.906 Z M68.347,55.622 L64.59,55.622 L65.695,52.664 C65.831,52.3013333 66.0746667,51.5363333 66.426,50.369 L66.426,50.369 L66.511,50.369 C66.8623333,51.5363333 67.106,52.3013333 67.242,52.664 L67.242,52.664 L68.347,55.622 Z M76.286,59.906 L76.286,55.554 L79.55,55.554 L81.607,59.906 L84.276,59.906 L81.896,55.163 C83.256,54.619 83.936,53.531 83.936,51.899 C83.936,50.743 83.6073333,49.8448333 82.95,49.2045 C82.2926667,48.5641667 81.3123333,48.244 80.009,48.244 L80.009,48.244 L73.821,48.244 L73.821,59.906 L76.286,59.906 Z M79.788,53.497 L76.286,53.497 L76.286,50.335 L79.788,50.335 C80.3206667,50.335 80.7286667,50.471 81.012,50.743 C81.2953333,51.015 81.437,51.4003333 81.437,51.899 C81.437,52.3976667 81.2953333,52.7886667 81.012,53.072 C80.7286667,53.3553333 80.3206667,53.497 79.788,53.497 L79.788,53.497 Z M95.36,59.906 L95.36,57.815 L88.56,57.815 L88.56,54.993 L94.51,54.993 L94.51,52.902 L88.56,52.902 L88.56,50.335 L95.258,50.335 L95.258,48.244 L86.095,48.244 L86.095,59.906 L95.36,59.906 Z M104.625,59.906 L104.625,55.299 L109.98,55.299 L109.98,53.208 L104.625,53.208 L104.625,50.335 L110.609,50.335 L110.609,48.244 L102.16,48.244 L102.16,59.906 L104.625,59.906 Z M118.021,60.11 C119.902333,60.11 121.358667,59.6085 122.39,58.6055 C123.421333,57.6025 123.937,56.0923333 123.937,54.075 C123.937,52.0576667 123.421333,50.5475 122.39,49.5445 C121.358667,48.5415 119.902333,48.04 118.021,48.04 C116.151,48.04 114.700333,48.5415 113.669,49.5445 C112.637667,50.5475 112.122,52.0576667 112.122,54.075 C112.122,56.0923333 112.637667,57.6025 113.669,58.6055 C114.700333,59.6085 116.151,60.11 118.021,60.11 Z M118.021,58.019 C116.910333,58.019 116.071667,57.6988333 115.505,57.0585 C114.938333,56.4181667 114.655,55.5086667 114.655,54.33 L114.655,54.33 L114.655,53.82 C114.655,52.6413333 114.938333,51.7318333 115.505,51.0915 C116.071667,50.4511667 116.910333,50.131 118.021,50.131 C119.131667,50.131 119.973167,50.4511667 120.5455,51.0915 C121.117833,51.7318333 121.404,52.6413333 121.404,53.82 L121.404,53.82 L121.404,54.33 C121.404,55.5086667 121.117833,56.4181667 120.5455,57.0585 C119.973167,57.6988333 119.131667,58.019 118.021,58.019 Z M128.238,59.906 L128.238,55.554 L131.502,55.554 L133.559,59.906 L136.228,59.906 L133.848,55.163 C135.208,54.619 135.888,53.531 135.888,51.899 C135.888,50.743 135.559333,49.8448333 134.902,49.2045 C134.244667,48.5641667 133.264333,48.244 131.961,48.244 L131.961,48.244 L125.773,48.244 L125.773,59.906 L128.238,59.906 Z M131.74,53.497 L128.238,53.497 L128.238,50.335 L131.74,50.335 C132.272667,50.335 132.680667,50.471 132.964,50.743 C133.247333,51.015 133.389,51.4003333 133.389,51.899 C133.389,52.3976667 133.247333,52.7886667 132.964,53.072 C132.680667,53.3553333 132.272667,53.497 131.74,53.497 L131.74,53.497 Z M151.528,59.906 L151.528,57.764 L145.238,57.764 L145.238,48.244 L142.773,48.244 L142.773,59.906 L151.528,59.906 Z M162.425,59.906 L162.425,57.815 L155.625,57.815 L155.625,54.993 L161.575,54.993 L161.575,52.902 L155.625,52.902 L155.625,50.335 L162.323,50.335 L162.323,48.244 L153.16,48.244 L153.16,59.906 L162.425,59.906 Z M166.896,59.906 L166.896,53.463 C166.896,53.2703333 166.879,52.9303333 166.845,52.443 L166.845,52.443 L166.93,52.392 C167.156667,52.834 167.377667,53.208 167.593,53.514 L167.593,53.514 L172.098,59.906 L174.495,59.906 L174.495,48.244 L172.098,48.244 L172.098,54.687 L172.149,55.673 L172.064,55.724 C171.746667,55.1573333 171.52,54.7776667 171.384,54.585 L171.384,54.585 L166.896,48.244 L164.499,48.244 L164.499,59.906 L166.896,59.906 Z M181.601,59.906 C183.380333,59.906 184.7545,59.4215 185.7235,58.4525 C186.6925,57.4835 187.177,56.0243333 187.177,54.075 C187.177,52.1256667 186.6925,50.6665 185.7235,49.6975 C184.7545,48.7285 183.380333,48.244 181.601,48.244 L181.601,48.244 L176.773,48.244 L176.773,59.906 L181.601,59.906 Z M181.601,57.815 L179.238,57.815 L179.238,50.335 L181.601,50.335 C182.598333,50.335 183.354833,50.6381667 183.8705,51.2445 C184.386167,51.8508333 184.644,52.7093333 184.644,53.82 L184.644,53.82 L184.644,54.33 C184.644,55.4406667 184.386167,56.2991667 183.8705,56.9055 C183.354833,57.5118333 182.598333,57.815 181.601,57.815 L181.601,57.815 Z M198.312,59.906 L198.312,57.815 L191.512,57.815 L191.512,54.993 L197.462,54.993 L197.462,52.902 L191.512,52.902 L191.512,50.335 L198.21,50.335 L198.21,48.244 L189.047,48.244 L189.047,59.906 L198.312,59.906 Z M202.851,59.906 L202.851,55.554 L206.115,55.554 L208.172,59.906 L210.841,59.906 L208.461,55.163 C209.821,54.619 210.501,53.531 210.501,51.899 C210.501,50.743 210.172333,49.8448333 209.515,49.2045 C208.857667,48.5641667 207.877333,48.244 206.574,48.244 L206.574,48.244 L200.386,48.244 L200.386,59.906 L202.851,59.906 Z M206.353,53.497 L202.851,53.497 L202.851,50.335 L206.353,50.335 C206.885667,50.335 207.293667,50.471 207.577,50.743 C207.860333,51.015 208.002,51.4003333 208.002,51.899 C208.002,52.3976667 207.860333,52.7886667 207.577,53.072 C207.293667,53.3553333 206.885667,53.497 206.353,53.497 L206.353,53.497 Z M217.131,60.11 C218.672333,60.11 219.887833,59.8153333 220.7775,59.226 C221.667167,58.6366667 222.112,57.7186667 222.112,56.472 C222.112,55.7013333 221.896667,55.078 221.466,54.602 C221.035333,54.126 220.5225,53.7661667 219.9275,53.5225 C219.3325,53.2788333 218.570333,53.0323333 217.641,52.783 C217.017667,52.613 216.536,52.4685 216.196,52.3495 C215.856,52.2305 215.572667,52.0775 215.346,51.8905 C215.119333,51.7035 215.006,51.4796667 215.006,51.219 C215.006,50.879 215.195833,50.6126667 215.5755,50.42 C215.955167,50.2273333 216.502,50.131 217.216,50.131 C217.884667,50.131 218.4145,50.2556667 218.8055,50.505 C219.1965,50.7543333 219.392,51.0943333 219.392,51.525 L219.392,51.525 L219.392,51.678 L221.84,51.678 L221.84,51.474 C221.84,50.3293333 221.412167,49.4708333 220.5565,48.8985 C219.700833,48.3261667 218.598667,48.04 217.25,48.04 C215.822,48.04 214.677333,48.3176667 213.816,48.873 C212.954667,49.4283333 212.524,50.2386667 212.524,51.304 C212.524,52.0746667 212.728,52.6951667 213.136,53.1655 C213.544,53.6358333 214.031333,53.99 214.598,54.228 C215.164667,54.466 215.907,54.7153333 216.825,54.976 C217.471,55.1573333 217.978167,55.3131667 218.3465,55.4435 C218.714833,55.5738333 219.020833,55.7495 219.2645,55.9705 C219.508167,56.1915 219.63,56.4663333 219.63,56.795 C219.63,57.169 219.443,57.4665 219.069,57.6875 C218.695,57.9085 218.088667,58.019 217.25,58.019 C216.456667,58.019 215.839,57.8716667 215.397,57.577 C214.955,57.2823333 214.734,56.8856667 214.734,56.387 L214.734,56.387 L214.751,56.115 L212.252,56.115 L212.235,56.489 C212.235,57.2596667 212.456,57.917 212.898,58.461 C213.34,59.005 213.932167,59.4158333 214.6745,59.6935 C215.416833,59.9711667 216.235667,60.11 217.131,60.11 Z" id="SOFTWAREFORLENDERS" fill="#DF3B26"></path>
                </g>
            </g>
        </g>
    </g>
</svg>