<?xml version="1.0" encoding="UTF-8"?>
<svg width="291px" height="69px" viewBox="0 0 291 69" version="1.1" xmlns="http://www.w3.org/2000/svg" xmlns:xlink="http://www.w3.org/1999/xlink">
    <title>Logo / Lenders / Software / Insights / Dark</title>
    <g id="Brand-Taxonomy" stroke="none" stroke-width="1" fill="none" fill-rule="evenodd">
        <g id="Product-Logos---B4L" transform="translate(-867.000000, -259.000000)">
            <g id="Group" transform="translate(867.000000, 259.000000)">
                <g transform="translate(0.000000, 10.662500)" fill="#CF392B" id="logo/brandmark/red">
                    <path d="M32.7918519,30.9676652 L20,23.2372335 L7.20814815,30.9676652 L7.20814815,18.9451982 L20,11.2207753 L32.7918519,18.9515947 L32.7918519,30.9676652 Z M20,2.5085815 L7.20814815,10.239207 L7.20814815,0 L0,0 L0,43.9209163 L0.19,43.9209163 L20,31.9494273 L39.8037037,43.9209163 L40,43.9209163 L40,14.5954009 L20,2.5085815 L20,2.5085815 Z" id="Fill-1"></path>
                </g>
                <path d="M54.5,0 C55.2796961,0 55.9204487,0.594888083 55.9931334,1.35553999 L56,1.5 L56,66.825 C56,67.6534271 55.3284271,68.325 54.5,68.325 C53.7203039,68.325 53.0795513,67.7301119 53.0068666,66.96946 L53,66.825 L53,1.5 C53,0.671572875 53.6715729,0 54.5,0 Z" id="Line-2" fill="#0C1733" fill-rule="nonzero"></path>
                <g id="Insights-Software-fo" transform="translate(68.714000, 14.141500)" fill-rule="nonzero">
                    <path d="M5.01,19.521 L5.01,0.999 L1.095,0.999 L1.095,19.521 L5.01,19.521 Z M12.408,19.521 L12.408,11.313 C12.408,10.449 12.6825,9.7245 13.2315,9.1395 C13.7805,8.5545 14.469,8.262 15.297,8.262 C16.107,8.262 16.719,8.46 17.133,8.856 C17.547,9.252 17.754,9.891 17.754,10.773 L17.754,10.773 L17.754,19.521 L21.453,19.521 L21.453,9.99 C21.453,8.244 21.0345,6.975 20.1975,6.183 C19.3605,5.391 18.213,4.995 16.755,4.995 C14.955,4.995 13.479,5.724 12.327,7.182 L12.327,7.182 L12.138,7.182 L11.868,5.319 L8.709,5.319 L8.709,19.521 L12.408,19.521 Z M30.876,19.845 C35.214,19.845 37.383,18.315 37.383,15.255 C37.383,14.211 37.104,13.383 36.546,12.771 C35.988,12.159 35.331,11.718 34.575,11.448 C33.819,11.178 32.838,10.908 31.632,10.638 C30.534,10.422 29.7375,10.206 29.2425,9.99 C28.7475,9.774 28.5,9.441 28.5,8.991 C28.5,8.631 28.716,8.352 29.148,8.154 C29.58,7.956 30.165,7.857 30.903,7.857 C31.641,7.857 32.2305,7.983 32.6715,8.235 C33.1125,8.487 33.333,8.847 33.333,9.315 L33.333,9.315 L33.333,9.477 L36.924,9.477 L36.951,8.856 C36.951,7.668 36.393,6.7275 35.277,6.0345 C34.161,5.3415 32.748,4.995 31.038,4.995 C29.202,4.995 27.7035,5.3685 26.5425,6.1155 C25.3815,6.8625 24.801,7.929 24.801,9.315 C24.801,10.305 25.071,11.097 25.611,11.691 C26.151,12.285 26.79,12.7215 27.528,13.0005 C28.266,13.2795 29.22,13.554 30.39,13.824 C31.524,14.076 32.3565,14.328 32.8875,14.58 C33.4185,14.832 33.684,15.21 33.684,15.714 C33.684,16.164 33.423,16.488 32.901,16.686 C32.379,16.884 31.749,16.983 31.011,16.983 C30.219,16.983 29.5485,16.8435 28.9995,16.5645 C28.4505,16.2855 28.167,15.831 28.149,15.201 L28.149,15.201 L28.149,15.012 L24.558,15.012 L24.531,15.336 C24.531,16.704 25.0935,17.7975 26.2185,18.6165 C27.3435,19.4355 28.896,19.845 30.876,19.845 Z M43.89,3.51 L43.89,2.84217094e-14 L40.191,2.84217094e-14 L40.191,3.51 L43.89,3.51 Z M43.89,19.521 L43.89,5.319 L40.191,5.319 L40.191,19.521 L43.89,19.521 Z M56.715,24.435 C57.687,24.435 58.578,24.255 59.388,23.895 C60.198,23.535 60.837,23.022 61.305,22.356 C61.773,21.69 62.007,20.925 62.007,20.061 C62.007,18.927 61.656,18.009 60.954,17.307 C60.252,16.605 59.379,16.254 58.335,16.254 L58.335,16.254 L51.882,16.254 C51.612,16.254 51.396,16.1775 51.234,16.0245 C51.072,15.8715 50.991,15.687 50.991,15.471 C50.991,15.219 51.0855,15.021 51.2745,14.877 C51.4635,14.733 51.72,14.661 52.044,14.661 L52.044,14.661 L54.204,14.661 C56.166,14.661 57.6735,14.229 58.7265,13.365 C59.7795,12.501 60.306,11.322 60.306,9.828 C60.306,8.496 59.856,7.407 58.956,6.561 C59.928,6.345 60.6795,5.9355 61.2105,5.3325 C61.7415,4.7295 62.007,3.933 62.007,2.943 L62.007,2.943 L58.389,2.943 C58.389,3.285 58.2675,3.6945 58.0245,4.1715 C57.7815,4.6485 57.39,5.058 56.85,5.4 C56.04,5.13 55.086,4.995 53.988,4.995 C51.972,4.995 50.4195,5.427 49.3305,6.291 C48.2415,7.155 47.697,8.334 47.697,9.828 C47.697,11.538 48.39,12.816 49.776,13.662 C49.038,13.842 48.435,14.1525 47.967,14.5935 C47.499,15.0345 47.265,15.552 47.265,16.146 C47.265,17.1 47.724,17.811 48.642,18.279 C47.184,18.945 46.455,19.908 46.455,21.168 C46.455,22.122 46.797,22.905 47.481,23.517 C48.165,24.129 49.002,24.435 49.992,24.435 L49.992,24.435 L56.715,24.435 Z M53.988,12.15 C53.124,12.15 52.4715,11.9475 52.0305,11.5425 C51.5895,11.1375 51.369,10.566 51.369,9.828 C51.369,9.09 51.5895,8.5185 52.0305,8.1135 C52.4715,7.7085 53.124,7.506 53.988,7.506 C54.852,7.506 55.509,7.7085 55.959,8.1135 C56.409,8.5185 56.634,9.09 56.634,9.828 C56.634,10.566 56.409,11.1375 55.959,11.5425 C55.509,11.9475 54.852,12.15 53.988,12.15 Z M56.661,21.87 L51.612,21.87 C51.198,21.87 50.856,21.753 50.586,21.519 C50.316,21.285 50.181,20.979 50.181,20.601 C50.181,20.241 50.3205,19.944 50.5995,19.71 C50.8785,19.476 51.216,19.359 51.612,19.359 L51.612,19.359 L56.823,19.359 C57.237,19.359 57.5835,19.467 57.8625,19.683 C58.1415,19.899 58.281,20.205 58.281,20.601 C58.281,20.979 58.128,21.285 57.822,21.519 C57.516,21.753 57.129,21.87 56.661,21.87 L56.661,21.87 Z M67.92,19.521 L67.92,11.313 C67.92,10.449 68.1945,9.7245 68.7435,9.1395 C69.2925,8.5545 69.981,8.262 70.809,8.262 C71.619,8.262 72.231,8.46 72.645,8.856 C73.059,9.252 73.266,9.891 73.266,10.773 L73.266,10.773 L73.266,19.521 L76.965,19.521 L76.965,9.99 C76.965,8.244 76.5465,6.975 75.7095,6.183 C74.8725,5.391 73.725,4.995 72.267,4.995 C70.575,4.995 69.189,5.652 68.109,6.966 L68.109,6.966 L67.92,6.966 L67.92,2.84217094e-14 L64.221,2.84217094e-14 L64.221,19.521 L67.92,19.521 Z M84.525,19.845 C84.921,19.845 85.3485,19.8 85.8075,19.71 C86.2665,19.62 86.649,19.521 86.955,19.413 L86.955,19.413 L86.955,16.821 L85.659,16.821 C84.885,16.821 84.498,16.434 84.498,15.66 L84.498,15.66 L84.498,8.343 L86.955,8.343 L86.955,5.319 L84.498,5.319 L84.498,1.323 L81.501,1.323 L80.88,5.319 L79.098,5.319 L79.098,8.343 L80.799,8.343 L80.799,16.038 C80.799,17.136 81.087,18.045 81.663,18.765 C82.239,19.485 83.193,19.845 84.525,19.845 Z M95.379,19.845 C99.717,19.845 101.886,18.315 101.886,15.255 C101.886,14.211 101.607,13.383 101.049,12.771 C100.491,12.159 99.834,11.718 99.078,11.448 C98.322,11.178 97.341,10.908 96.135,10.638 C95.037,10.422 94.2405,10.206 93.7455,9.99 C93.2505,9.774 93.003,9.441 93.003,8.991 C93.003,8.631 93.219,8.352 93.651,8.154 C94.083,7.956 94.668,7.857 95.406,7.857 C96.144,7.857 96.7335,7.983 97.1745,8.235 C97.6155,8.487 97.836,8.847 97.836,9.315 L97.836,9.315 L97.836,9.477 L101.427,9.477 L101.454,8.856 C101.454,7.668 100.896,6.7275 99.78,6.0345 C98.664,5.3415 97.251,4.995 95.541,4.995 C93.705,4.995 92.2065,5.3685 91.0455,6.1155 C89.8845,6.8625 89.304,7.929 89.304,9.315 C89.304,10.305 89.574,11.097 90.114,11.691 C90.654,12.285 91.293,12.7215 92.031,13.0005 C92.769,13.2795 93.723,13.554 94.893,13.824 C96.027,14.076 96.8595,14.328 97.3905,14.58 C97.9215,14.832 98.187,15.21 98.187,15.714 C98.187,16.164 97.926,16.488 97.404,16.686 C96.882,16.884 96.252,16.983 95.514,16.983 C94.722,16.983 94.0515,16.8435 93.5025,16.5645 C92.9535,16.2855 92.67,15.831 92.652,15.201 L92.652,15.201 L92.652,15.012 L89.061,15.012 L89.034,15.336 C89.034,16.704 89.5965,17.7975 90.7215,18.6165 C91.8465,19.4355 93.399,19.845 95.379,19.845 Z" id="Insights" fill="#0C1733"></path>
                    <path d="M4.896,40.725 C6.43733333,40.725 7.65283333,40.4303333 8.5425,39.841 C9.43216667,39.2516667 9.877,38.3336667 9.877,37.087 C9.877,36.3163333 9.66166667,35.693 9.231,35.217 C8.80033333,34.741 8.2875,34.3811667 7.6925,34.1375 C7.0975,33.8938333 6.33533333,33.6473333 5.406,33.398 C4.78266667,33.228 4.301,33.0835 3.961,32.9645 C3.621,32.8455 3.33766667,32.6925 3.111,32.5055 C2.88433333,32.3185 2.771,32.0946667 2.771,31.834 C2.771,31.494 2.96083333,31.2276667 3.3405,31.035 C3.72016667,30.8423333 4.267,30.746 4.981,30.746 C5.64966667,30.746 6.1795,30.8706667 6.5705,31.12 C6.9615,31.3693333 7.157,31.7093333 7.157,32.14 L7.157,32.14 L7.157,32.293 L9.605,32.293 L9.605,32.089 C9.605,30.9443333 9.17716667,30.0858333 8.3215,29.5135 C7.46583333,28.9411667 6.36366667,28.655 5.015,28.655 C3.587,28.655 2.44233333,28.9326667 1.581,29.488 C0.719666667,30.0433333 0.289,30.8536667 0.289,31.919 C0.289,32.6896667 0.493,33.3101667 0.901,33.7805 C1.309,34.2508333 1.79633333,34.605 2.363,34.843 C2.92966667,35.081 3.672,35.3303333 4.59,35.591 C5.236,35.7723333 5.74316667,35.9281667 6.1115,36.0585 C6.47983333,36.1888333 6.78583333,36.3645 7.0295,36.5855 C7.27316667,36.8065 7.395,37.0813333 7.395,37.41 C7.395,37.784 7.208,38.0815 6.834,38.3025 C6.46,38.5235 5.85366667,38.634 5.015,38.634 C4.22166667,38.634 3.604,38.4866667 3.162,38.192 C2.72,37.8973333 2.499,37.5006667 2.499,37.002 L2.499,37.002 L2.516,36.73 L0.017,36.73 L-5.68434189e-14,37.104 C-5.68434189e-14,37.8746667 0.221,38.532 0.663,39.076 C1.105,39.62 1.69716667,40.0308333 2.4395,40.3085 C3.18183333,40.5861667 4.00066667,40.725 4.896,40.725 Z M17.238,40.725 C19.1193333,40.725 20.5756667,40.2235 21.607,39.2205 C22.6383333,38.2175 23.154,36.7073333 23.154,34.69 C23.154,32.6726667 22.6383333,31.1625 21.607,30.1595 C20.5756667,29.1565 19.1193333,28.655 17.238,28.655 C15.368,28.655 13.9173333,29.1565 12.886,30.1595 C11.8546667,31.1625 11.339,32.6726667 11.339,34.69 C11.339,36.7073333 11.8546667,38.2175 12.886,39.2205 C13.9173333,40.2235 15.368,40.725 17.238,40.725 Z M17.238,38.634 C16.1273333,38.634 15.2886667,38.3138333 14.722,37.6735 C14.1553333,37.0331667 13.872,36.1236667 13.872,34.945 L13.872,34.945 L13.872,34.435 C13.872,33.2563333 14.1553333,32.3468333 14.722,31.7065 C15.2886667,31.0661667 16.1273333,30.746 17.238,30.746 C18.3486667,30.746 19.1901667,31.0661667 19.7625,31.7065 C20.3348333,32.3468333 20.621,33.2563333 20.621,34.435 L20.621,34.435 L20.621,34.945 C20.621,36.1236667 20.3348333,37.0331667 19.7625,37.6735 C19.1901667,38.3138333 18.3486667,38.634 17.238,38.634 Z M27.455,40.521 L27.455,35.914 L32.81,35.914 L32.81,33.823 L27.455,33.823 L27.455,30.95 L33.439,30.95 L33.439,28.859 L24.99,28.859 L24.99,40.521 L27.455,40.521 Z M40.664,40.521 L40.664,30.984 L44.268,30.984 L44.268,28.859 L34.595,28.859 L34.595,30.984 L38.199,30.984 L38.199,40.521 L40.664,40.521 Z M50.422,40.521 L52.309,33.092 C52.3883333,32.7746667 52.4846667,32.225 52.598,31.443 L52.598,31.443 L52.666,31.443 C52.7566667,32.1683333 52.853,32.718 52.955,33.092 L52.955,33.092 L54.876,40.521 L57.545,40.521 L60.639,28.859 L58.361,28.859 L56.627,36.033 C56.5363333,36.3956667 56.4456667,36.9396667 56.355,37.665 L56.355,37.665 L56.27,37.665 C56.1566667,36.8716667 56.066,36.3276667 55.998,36.033 L55.998,36.033 L54.298,28.859 L51.323,28.859 L49.606,36.033 C49.5266667,36.3503333 49.436,36.8943333 49.334,37.665 L49.334,37.665 L49.249,37.665 C49.147,36.8943333 49.0563333,36.3503333 48.977,36.033 L48.977,36.033 L47.294,28.859 L44.659,28.859 L47.753,40.521 L50.422,40.521 Z M62.322,40.521 L63.155,38.294 L68.459,38.294 L69.292,40.521 L71.978,40.521 L67.422,28.859 L64.328,28.859 L59.772,40.521 L62.322,40.521 Z M67.677,36.237 L63.92,36.237 L65.025,33.279 C65.161,32.9163333 65.4046667,32.1513333 65.756,30.984 L65.756,30.984 L65.841,30.984 C66.1923333,32.1513333 66.436,32.9163333 66.572,33.279 L66.572,33.279 L67.677,36.237 Z M75.616,40.521 L75.616,36.169 L78.88,36.169 L80.937,40.521 L83.606,40.521 L81.226,35.778 C82.586,35.234 83.266,34.146 83.266,32.514 C83.266,31.358 82.9373333,30.4598333 82.28,29.8195 C81.6226667,29.1791667 80.6423333,28.859 79.339,28.859 L79.339,28.859 L73.151,28.859 L73.151,40.521 L75.616,40.521 Z M79.118,34.112 L75.616,34.112 L75.616,30.95 L79.118,30.95 C79.6506667,30.95 80.0586667,31.086 80.342,31.358 C80.6253333,31.63 80.767,32.0153333 80.767,32.514 C80.767,33.0126667 80.6253333,33.4036667 80.342,33.687 C80.0586667,33.9703333 79.6506667,34.112 79.118,34.112 L79.118,34.112 Z M94.69,40.521 L94.69,38.43 L87.89,38.43 L87.89,35.608 L93.84,35.608 L93.84,33.517 L87.89,33.517 L87.89,30.95 L94.588,30.95 L94.588,28.859 L85.425,28.859 L85.425,40.521 L94.69,40.521 Z M103.955,40.521 L103.955,35.914 L109.31,35.914 L109.31,33.823 L103.955,33.823 L103.955,30.95 L109.939,30.95 L109.939,28.859 L101.49,28.859 L101.49,40.521 L103.955,40.521 Z M117.351,40.725 C119.232333,40.725 120.688667,40.2235 121.72,39.2205 C122.751333,38.2175 123.267,36.7073333 123.267,34.69 C123.267,32.6726667 122.751333,31.1625 121.72,30.1595 C120.688667,29.1565 119.232333,28.655 117.351,28.655 C115.481,28.655 114.030333,29.1565 112.999,30.1595 C111.967667,31.1625 111.452,32.6726667 111.452,34.69 C111.452,36.7073333 111.967667,38.2175 112.999,39.2205 C114.030333,40.2235 115.481,40.725 117.351,40.725 Z M117.351,38.634 C116.240333,38.634 115.401667,38.3138333 114.835,37.6735 C114.268333,37.0331667 113.985,36.1236667 113.985,34.945 L113.985,34.945 L113.985,34.435 C113.985,33.2563333 114.268333,32.3468333 114.835,31.7065 C115.401667,31.0661667 116.240333,30.746 117.351,30.746 C118.461667,30.746 119.303167,31.0661667 119.8755,31.7065 C120.447833,32.3468333 120.734,33.2563333 120.734,34.435 L120.734,34.435 L120.734,34.945 C120.734,36.1236667 120.447833,37.0331667 119.8755,37.6735 C119.303167,38.3138333 118.461667,38.634 117.351,38.634 Z M127.568,40.521 L127.568,36.169 L130.832,36.169 L132.889,40.521 L135.558,40.521 L133.178,35.778 C134.538,35.234 135.218,34.146 135.218,32.514 C135.218,31.358 134.889333,30.4598333 134.232,29.8195 C133.574667,29.1791667 132.594333,28.859 131.291,28.859 L131.291,28.859 L125.103,28.859 L125.103,40.521 L127.568,40.521 Z M131.07,34.112 L127.568,34.112 L127.568,30.95 L131.07,30.95 C131.602667,30.95 132.010667,31.086 132.294,31.358 C132.577333,31.63 132.719,32.0153333 132.719,32.514 C132.719,33.0126667 132.577333,33.4036667 132.294,33.687 C132.010667,33.9703333 131.602667,34.112 131.07,34.112 L131.07,34.112 Z M150.858,40.521 L150.858,38.379 L144.568,38.379 L144.568,28.859 L142.103,28.859 L142.103,40.521 L150.858,40.521 Z M161.755,40.521 L161.755,38.43 L154.955,38.43 L154.955,35.608 L160.905,35.608 L160.905,33.517 L154.955,33.517 L154.955,30.95 L161.653,30.95 L161.653,28.859 L152.49,28.859 L152.49,40.521 L161.755,40.521 Z M166.226,40.521 L166.226,34.078 C166.226,33.8853333 166.209,33.5453333 166.175,33.058 L166.175,33.058 L166.26,33.007 C166.486667,33.449 166.707667,33.823 166.923,34.129 L166.923,34.129 L171.428,40.521 L173.825,40.521 L173.825,28.859 L171.428,28.859 L171.428,35.302 L171.479,36.288 L171.394,36.339 C171.076667,35.7723333 170.85,35.3926667 170.714,35.2 L170.714,35.2 L166.226,28.859 L163.829,28.859 L163.829,40.521 L166.226,40.521 Z M180.931,40.521 C182.710333,40.521 184.0845,40.0365 185.0535,39.0675 C186.0225,38.0985 186.507,36.6393333 186.507,34.69 C186.507,32.7406667 186.0225,31.2815 185.0535,30.3125 C184.0845,29.3435 182.710333,28.859 180.931,28.859 L180.931,28.859 L176.103,28.859 L176.103,40.521 L180.931,40.521 Z M180.931,38.43 L178.568,38.43 L178.568,30.95 L180.931,30.95 C181.928333,30.95 182.684833,31.2531667 183.2005,31.8595 C183.716167,32.4658333 183.974,33.3243333 183.974,34.435 L183.974,34.435 L183.974,34.945 C183.974,36.0556667 183.716167,36.9141667 183.2005,37.5205 C182.684833,38.1268333 181.928333,38.43 180.931,38.43 L180.931,38.43 Z M197.642,40.521 L197.642,38.43 L190.842,38.43 L190.842,35.608 L196.792,35.608 L196.792,33.517 L190.842,33.517 L190.842,30.95 L197.54,30.95 L197.54,28.859 L188.377,28.859 L188.377,40.521 L197.642,40.521 Z M202.181,40.521 L202.181,36.169 L205.445,36.169 L207.502,40.521 L210.171,40.521 L207.791,35.778 C209.151,35.234 209.831,34.146 209.831,32.514 C209.831,31.358 209.502333,30.4598333 208.845,29.8195 C208.187667,29.1791667 207.207333,28.859 205.904,28.859 L205.904,28.859 L199.716,28.859 L199.716,40.521 L202.181,40.521 Z M205.683,34.112 L202.181,34.112 L202.181,30.95 L205.683,30.95 C206.215667,30.95 206.623667,31.086 206.907,31.358 C207.190333,31.63 207.332,32.0153333 207.332,32.514 C207.332,33.0126667 207.190333,33.4036667 206.907,33.687 C206.623667,33.9703333 206.215667,34.112 205.683,34.112 L205.683,34.112 Z M216.461,40.725 C218.002333,40.725 219.217833,40.4303333 220.1075,39.841 C220.997167,39.2516667 221.442,38.3336667 221.442,37.087 C221.442,36.3163333 221.226667,35.693 220.796,35.217 C220.365333,34.741 219.8525,34.3811667 219.2575,34.1375 C218.6625,33.8938333 217.900333,33.6473333 216.971,33.398 C216.347667,33.228 215.866,33.0835 215.526,32.9645 C215.186,32.8455 214.902667,32.6925 214.676,32.5055 C214.449333,32.3185 214.336,32.0946667 214.336,31.834 C214.336,31.494 214.525833,31.2276667 214.9055,31.035 C215.285167,30.8423333 215.832,30.746 216.546,30.746 C217.214667,30.746 217.7445,30.8706667 218.1355,31.12 C218.5265,31.3693333 218.722,31.7093333 218.722,32.14 L218.722,32.14 L218.722,32.293 L221.17,32.293 L221.17,32.089 C221.17,30.9443333 220.742167,30.0858333 219.8865,29.5135 C219.030833,28.9411667 217.928667,28.655 216.58,28.655 C215.152,28.655 214.007333,28.9326667 213.146,29.488 C212.284667,30.0433333 211.854,30.8536667 211.854,31.919 C211.854,32.6896667 212.058,33.3101667 212.466,33.7805 C212.874,34.2508333 213.361333,34.605 213.928,34.843 C214.494667,35.081 215.237,35.3303333 216.155,35.591 C216.801,35.7723333 217.308167,35.9281667 217.6765,36.0585 C218.044833,36.1888333 218.350833,36.3645 218.5945,36.5855 C218.838167,36.8065 218.96,37.0813333 218.96,37.41 C218.96,37.784 218.773,38.0815 218.399,38.3025 C218.025,38.5235 217.418667,38.634 216.58,38.634 C215.786667,38.634 215.169,38.4866667 214.727,38.192 C214.285,37.8973333 214.064,37.5006667 214.064,37.002 L214.064,37.002 L214.081,36.73 L211.582,36.73 L211.565,37.104 C211.565,37.8746667 211.786,38.532 212.228,39.076 C212.67,39.62 213.262167,40.0308333 214.0045,40.3085 C214.746833,40.5861667 215.565667,40.725 216.461,40.725 Z" id="SOFTWAREFORLENDERS" fill="#DF3B26"></path>
                </g>
            </g>
        </g>
    </g>
</svg>