<?xml version="1.0" encoding="UTF-8"?>
<svg width="320px" height="69px" viewBox="0 0 320 69" version="1.1" xmlns="http://www.w3.org/2000/svg" xmlns:xlink="http://www.w3.org/1999/xlink">
    <title>Logo / Lenders / Software / Insights Premium / Dark</title>
    <g id="Logo-/-Lenders-/-Software-/-Insights-Premium-/-Dark" stroke="none" stroke-width="1" fill="none" fill-rule="evenodd">
        <g id="logo/brandmark/red" transform="translate(0.000000, 10.662500)" fill="#CF392B">
            <path d="M32.7918519,30.9676652 L20,23.2372335 L7.20814815,30.9676652 L7.20814815,18.9451982 L20,11.2207753 L32.7918519,18.9515947 L32.7918519,30.9676652 Z M20,2.5085815 L7.20814815,10.239207 L7.20814815,0 L0,0 L0,43.9209163 L0.19,43.9209163 L20,31.9494273 L39.8037037,43.9209163 L40,43.9209163 L40,14.5954009 L20,2.5085815 L20,2.5085815 Z" id="Fill-1"></path>
        </g>
        <path d="M54.5,0 C55.2796961,0 55.9204487,0.594888083 55.9931334,1.35553999 L56,1.5 L56,66.825 C56,67.6534271 55.3284271,68.325 54.5,68.325 C53.7203039,68.325 53.0795513,67.7301119 53.0068666,66.96946 L53,66.825 L53,1.5 C53,0.671572875 53.6715729,0 54.5,0 Z" id="Line-2" fill="#0C1733" fill-rule="nonzero"></path>
        <path d="M73.61,54.8665 C75.1513333,54.8665 76.3668333,54.5718333 77.2565,53.9825 C78.1461667,53.3931667 78.591,52.4751667 78.591,51.2285 C78.591,50.4578333 78.3756667,49.8345 77.945,49.3585 C77.5143333,48.8825 77.0015,48.5226667 76.4065,48.279 C75.8115,48.0353333 75.0493333,47.7888333 74.12,47.5395 C73.4966667,47.3695 73.015,47.225 72.675,47.106 C72.335,46.987 72.0516667,46.834 71.825,46.647 C71.5983333,46.46 71.485,46.2361667 71.485,45.9755 C71.485,45.6355 71.6748333,45.3691667 72.0545,45.1765 C72.4341667,44.9838333 72.981,44.8875 73.695,44.8875 C74.3636667,44.8875 74.8935,45.0121667 75.2845,45.2615 C75.6755,45.5108333 75.871,45.8508333 75.871,46.2815 L75.871,46.2815 L75.871,46.4345 L78.319,46.4345 L78.319,46.2305 C78.319,45.0858333 77.8911667,44.2273333 77.0355,43.655 C76.1798333,43.0826667 75.0776667,42.7965 73.729,42.7965 C72.301,42.7965 71.1563333,43.0741667 70.295,43.6295 C69.4336667,44.1848333 69.003,44.9951667 69.003,46.0605 C69.003,46.8311667 69.207,47.4516667 69.615,47.922 C70.023,48.3923333 70.5103333,48.7465 71.077,48.9845 C71.6436667,49.2225 72.386,49.4718333 73.304,49.7325 C73.95,49.9138333 74.4571667,50.0696667 74.8255,50.2 C75.1938333,50.3303333 75.4998333,50.506 75.7435,50.727 C75.9871667,50.948 76.109,51.2228333 76.109,51.5515 C76.109,51.9255 75.922,52.223 75.548,52.444 C75.174,52.665 74.5676667,52.7755 73.729,52.7755 C72.9356667,52.7755 72.318,52.6281667 71.876,52.3335 C71.434,52.0388333 71.213,51.6421667 71.213,51.1435 L71.213,51.1435 L71.23,50.8715 L68.731,50.8715 L68.714,51.2455 C68.714,52.0161667 68.935,52.6735 69.377,53.2175 C69.819,53.7615 70.4111667,54.1723333 71.1535,54.45 C71.8958333,54.7276667 72.7146667,54.8665 73.61,54.8665 Z M85.952,54.8665 C87.8333333,54.8665 89.2896667,54.365 90.321,53.362 C91.3523333,52.359 91.868,50.8488333 91.868,48.8315 C91.868,46.8141667 91.3523333,45.304 90.321,44.301 C89.2896667,43.298 87.8333333,42.7965 85.952,42.7965 C84.082,42.7965 82.6313333,43.298 81.6,44.301 C80.5686667,45.304 80.053,46.8141667 80.053,48.8315 C80.053,50.8488333 80.5686667,52.359 81.6,53.362 C82.6313333,54.365 84.082,54.8665 85.952,54.8665 Z M85.952,52.7755 C84.8413333,52.7755 84.0026667,52.4553333 83.436,51.815 C82.8693333,51.1746667 82.586,50.2651667 82.586,49.0865 L82.586,49.0865 L82.586,48.5765 C82.586,47.3978333 82.8693333,46.4883333 83.436,45.848 C84.0026667,45.2076667 84.8413333,44.8875 85.952,44.8875 C87.0626667,44.8875 87.9041667,45.2076667 88.4765,45.848 C89.0488333,46.4883333 89.335,47.3978333 89.335,48.5765 L89.335,48.5765 L89.335,49.0865 C89.335,50.2651667 89.0488333,51.1746667 88.4765,51.815 C87.9041667,52.4553333 87.0626667,52.7755 85.952,52.7755 Z M96.169,54.6625 L96.169,50.0555 L101.524,50.0555 L101.524,47.9645 L96.169,47.9645 L96.169,45.0915 L102.153,45.0915 L102.153,43.0005 L93.704,43.0005 L93.704,54.6625 L96.169,54.6625 Z M109.378,54.6625 L109.378,45.1255 L112.982,45.1255 L112.982,43.0005 L103.309,43.0005 L103.309,45.1255 L106.913,45.1255 L106.913,54.6625 L109.378,54.6625 Z M119.136,54.6625 L121.023,47.2335 C121.102333,46.9161667 121.198667,46.3665 121.312,45.5845 L121.312,45.5845 L121.38,45.5845 C121.470667,46.3098333 121.567,46.8595 121.669,47.2335 L121.669,47.2335 L123.59,54.6625 L126.259,54.6625 L129.353,43.0005 L127.075,43.0005 L125.341,50.1745 C125.250333,50.5371667 125.159667,51.0811667 125.069,51.8065 L125.069,51.8065 L124.984,51.8065 C124.870667,51.0131667 124.78,50.4691667 124.712,50.1745 L124.712,50.1745 L123.012,43.0005 L120.037,43.0005 L118.32,50.1745 C118.240667,50.4918333 118.15,51.0358333 118.048,51.8065 L118.048,51.8065 L117.963,51.8065 C117.861,51.0358333 117.770333,50.4918333 117.691,50.1745 L117.691,50.1745 L116.008,43.0005 L113.373,43.0005 L116.467,54.6625 L119.136,54.6625 Z M131.036,54.6625 L131.869,52.4355 L137.173,52.4355 L138.006,54.6625 L140.692,54.6625 L136.136,43.0005 L133.042,43.0005 L128.486,54.6625 L131.036,54.6625 Z M136.391,50.3785 L132.634,50.3785 L133.739,47.4205 C133.875,47.0578333 134.118667,46.2928333 134.47,45.1255 L134.47,45.1255 L134.555,45.1255 C134.906333,46.2928333 135.15,47.0578333 135.286,47.4205 L135.286,47.4205 L136.391,50.3785 Z M144.33,54.6625 L144.33,50.3105 L147.594,50.3105 L149.651,54.6625 L152.32,54.6625 L149.94,49.9195 C151.3,49.3755 151.98,48.2875 151.98,46.6555 C151.98,45.4995 151.651333,44.6013333 150.994,43.961 C150.336667,43.3206667 149.356333,43.0005 148.053,43.0005 L148.053,43.0005 L141.865,43.0005 L141.865,54.6625 L144.33,54.6625 Z M147.832,48.2535 L144.33,48.2535 L144.33,45.0915 L147.832,45.0915 C148.364667,45.0915 148.772667,45.2275 149.056,45.4995 C149.339333,45.7715 149.481,46.1568333 149.481,46.6555 C149.481,47.1541667 149.339333,47.5451667 149.056,47.8285 C148.772667,48.1118333 148.364667,48.2535 147.832,48.2535 L147.832,48.2535 Z M163.404,54.6625 L163.404,52.5715 L156.604,52.5715 L156.604,49.7495 L162.554,49.7495 L162.554,47.6585 L156.604,47.6585 L156.604,45.0915 L163.302,45.0915 L163.302,43.0005 L154.139,43.0005 L154.139,54.6625 L163.404,54.6625 Z M172.669,54.6625 L172.669,50.0555 L178.024,50.0555 L178.024,47.9645 L172.669,47.9645 L172.669,45.0915 L178.653,45.0915 L178.653,43.0005 L170.204,43.0005 L170.204,54.6625 L172.669,54.6625 Z M186.065,54.8665 C187.946333,54.8665 189.402667,54.365 190.434,53.362 C191.465333,52.359 191.981,50.8488333 191.981,48.8315 C191.981,46.8141667 191.465333,45.304 190.434,44.301 C189.402667,43.298 187.946333,42.7965 186.065,42.7965 C184.195,42.7965 182.744333,43.298 181.713,44.301 C180.681667,45.304 180.166,46.8141667 180.166,48.8315 C180.166,50.8488333 180.681667,52.359 181.713,53.362 C182.744333,54.365 184.195,54.8665 186.065,54.8665 Z M186.065,52.7755 C184.954333,52.7755 184.115667,52.4553333 183.549,51.815 C182.982333,51.1746667 182.699,50.2651667 182.699,49.0865 L182.699,49.0865 L182.699,48.5765 C182.699,47.3978333 182.982333,46.4883333 183.549,45.848 C184.115667,45.2076667 184.954333,44.8875 186.065,44.8875 C187.175667,44.8875 188.017167,45.2076667 188.5895,45.848 C189.161833,46.4883333 189.448,47.3978333 189.448,48.5765 L189.448,48.5765 L189.448,49.0865 C189.448,50.2651667 189.161833,51.1746667 188.5895,51.815 C188.017167,52.4553333 187.175667,52.7755 186.065,52.7755 Z M196.282,54.6625 L196.282,50.3105 L199.546,50.3105 L201.603,54.6625 L204.272,54.6625 L201.892,49.9195 C203.252,49.3755 203.932,48.2875 203.932,46.6555 C203.932,45.4995 203.603333,44.6013333 202.946,43.961 C202.288667,43.3206667 201.308333,43.0005 200.005,43.0005 L200.005,43.0005 L193.817,43.0005 L193.817,54.6625 L196.282,54.6625 Z M199.784,48.2535 L196.282,48.2535 L196.282,45.0915 L199.784,45.0915 C200.316667,45.0915 200.724667,45.2275 201.008,45.4995 C201.291333,45.7715 201.433,46.1568333 201.433,46.6555 C201.433,47.1541667 201.291333,47.5451667 201.008,47.8285 C200.724667,48.1118333 200.316667,48.2535 199.784,48.2535 L199.784,48.2535 Z M219.572,54.6625 L219.572,52.5205 L213.282,52.5205 L213.282,43.0005 L210.817,43.0005 L210.817,54.6625 L219.572,54.6625 Z M230.469,54.6625 L230.469,52.5715 L223.669,52.5715 L223.669,49.7495 L229.619,49.7495 L229.619,47.6585 L223.669,47.6585 L223.669,45.0915 L230.367,45.0915 L230.367,43.0005 L221.204,43.0005 L221.204,54.6625 L230.469,54.6625 Z M234.94,54.6625 L234.94,48.2195 C234.94,48.0268333 234.923,47.6868333 234.889,47.1995 L234.889,47.1995 L234.974,47.1485 C235.200667,47.5905 235.421667,47.9645 235.637,48.2705 L235.637,48.2705 L240.142,54.6625 L242.539,54.6625 L242.539,43.0005 L240.142,43.0005 L240.142,49.4435 L240.193,50.4295 L240.108,50.4805 C239.790667,49.9138333 239.564,49.5341667 239.428,49.3415 L239.428,49.3415 L234.94,43.0005 L232.543,43.0005 L232.543,54.6625 L234.94,54.6625 Z M249.645,54.6625 C251.424333,54.6625 252.7985,54.178 253.7675,53.209 C254.7365,52.24 255.221,50.7808333 255.221,48.8315 C255.221,46.8821667 254.7365,45.423 253.7675,44.454 C252.7985,43.485 251.424333,43.0005 249.645,43.0005 L249.645,43.0005 L244.817,43.0005 L244.817,54.6625 L249.645,54.6625 Z M249.645,52.5715 L247.282,52.5715 L247.282,45.0915 L249.645,45.0915 C250.642333,45.0915 251.398833,45.3946667 251.9145,46.001 C252.430167,46.6073333 252.688,47.4658333 252.688,48.5765 L252.688,48.5765 L252.688,49.0865 C252.688,50.1971667 252.430167,51.0556667 251.9145,51.662 C251.398833,52.2683333 250.642333,52.5715 249.645,52.5715 L249.645,52.5715 Z M266.356,54.6625 L266.356,52.5715 L259.556,52.5715 L259.556,49.7495 L265.506,49.7495 L265.506,47.6585 L259.556,47.6585 L259.556,45.0915 L266.254,45.0915 L266.254,43.0005 L257.091,43.0005 L257.091,54.6625 L266.356,54.6625 Z M270.895,54.6625 L270.895,50.3105 L274.159,50.3105 L276.216,54.6625 L278.885,54.6625 L276.505,49.9195 C277.865,49.3755 278.545,48.2875 278.545,46.6555 C278.545,45.4995 278.216333,44.6013333 277.559,43.961 C276.901667,43.3206667 275.921333,43.0005 274.618,43.0005 L274.618,43.0005 L268.43,43.0005 L268.43,54.6625 L270.895,54.6625 Z M274.397,48.2535 L270.895,48.2535 L270.895,45.0915 L274.397,45.0915 C274.929667,45.0915 275.337667,45.2275 275.621,45.4995 C275.904333,45.7715 276.046,46.1568333 276.046,46.6555 C276.046,47.1541667 275.904333,47.5451667 275.621,47.8285 C275.337667,48.1118333 274.929667,48.2535 274.397,48.2535 L274.397,48.2535 Z M285.175,54.8665 C286.716333,54.8665 287.931833,54.5718333 288.8215,53.9825 C289.711167,53.3931667 290.156,52.4751667 290.156,51.2285 C290.156,50.4578333 289.940667,49.8345 289.51,49.3585 C289.079333,48.8825 288.5665,48.5226667 287.9715,48.279 C287.3765,48.0353333 286.614333,47.7888333 285.685,47.5395 C285.061667,47.3695 284.58,47.225 284.24,47.106 C283.9,46.987 283.616667,46.834 283.39,46.647 C283.163333,46.46 283.05,46.2361667 283.05,45.9755 C283.05,45.6355 283.239833,45.3691667 283.6195,45.1765 C283.999167,44.9838333 284.546,44.8875 285.26,44.8875 C285.928667,44.8875 286.4585,45.0121667 286.8495,45.2615 C287.2405,45.5108333 287.436,45.8508333 287.436,46.2815 L287.436,46.2815 L287.436,46.4345 L289.884,46.4345 L289.884,46.2305 C289.884,45.0858333 289.456167,44.2273333 288.6005,43.655 C287.744833,43.0826667 286.642667,42.7965 285.294,42.7965 C283.866,42.7965 282.721333,43.0741667 281.86,43.6295 C280.998667,44.1848333 280.568,44.9951667 280.568,46.0605 C280.568,46.8311667 280.772,47.4516667 281.18,47.922 C281.588,48.3923333 282.075333,48.7465 282.642,48.9845 C283.208667,49.2225 283.951,49.4718333 284.869,49.7325 C285.515,49.9138333 286.022167,50.0696667 286.3905,50.2 C286.758833,50.3303333 287.064833,50.506 287.3085,50.727 C287.552167,50.948 287.674,51.2228333 287.674,51.5515 C287.674,51.9255 287.487,52.223 287.113,52.444 C286.739,52.665 286.132667,52.7755 285.294,52.7755 C284.500667,52.7755 283.883,52.6281667 283.441,52.3335 C282.999,52.0388333 282.778,51.6421667 282.778,51.1435 L282.778,51.1435 L282.795,50.8715 L280.296,50.8715 L280.279,51.2455 C280.279,52.0161667 280.5,52.6735 280.942,53.2175 C281.384,53.7615 281.976167,54.1723333 282.7185,54.45 C283.460833,54.7276667 284.279667,54.8665 285.175,54.8665 Z" id="SOFTWAREFORLENDERS" fill="#DF3B26" fill-rule="nonzero"></path>
        <path d="M73.724,34 L73.724,15.478 L69.809,15.478 L69.809,34 L73.724,34 Z M81.122,34 L81.122,25.792 C81.122,24.928 81.3965,24.2035 81.9455,23.6185 C82.4945,23.0335 83.183,22.741 84.011,22.741 C84.821,22.741 85.433,22.939 85.847,23.335 C86.261,23.731 86.468,24.37 86.468,25.252 L86.468,25.252 L86.468,34 L90.167,34 L90.167,24.469 C90.167,22.723 89.7485,21.454 88.9115,20.662 C88.0745,19.87 86.927,19.474 85.469,19.474 C83.669,19.474 82.193,20.203 81.041,21.661 L81.041,21.661 L80.852,21.661 L80.582,19.798 L77.423,19.798 L77.423,34 L81.122,34 Z M99.59,34.324 C103.928,34.324 106.097,32.794 106.097,29.734 C106.097,28.69 105.818,27.862 105.26,27.25 C104.702,26.638 104.045,26.197 103.289,25.927 C102.533,25.657 101.552,25.387 100.346,25.117 C99.248,24.901 98.4515,24.685 97.9565,24.469 C97.4615,24.253 97.214,23.92 97.214,23.47 C97.214,23.11 97.43,22.831 97.862,22.633 C98.294,22.435 98.879,22.336 99.617,22.336 C100.355,22.336 100.9445,22.462 101.3855,22.714 C101.8265,22.966 102.047,23.326 102.047,23.794 L102.047,23.794 L102.047,23.956 L105.638,23.956 L105.665,23.335 C105.665,22.147 105.107,21.2065 103.991,20.5135 C102.875,19.8205 101.462,19.474 99.752,19.474 C97.916,19.474 96.4175,19.8475 95.2565,20.5945 C94.0955,21.3415 93.515,22.408 93.515,23.794 C93.515,24.784 93.785,25.576 94.325,26.17 C94.865,26.764 95.504,27.2005 96.242,27.4795 C96.98,27.7585 97.934,28.033 99.104,28.303 C100.238,28.555 101.0705,28.807 101.6015,29.059 C102.1325,29.311 102.398,29.689 102.398,30.193 C102.398,30.643 102.137,30.967 101.615,31.165 C101.093,31.363 100.463,31.462 99.725,31.462 C98.933,31.462 98.2625,31.3225 97.7135,31.0435 C97.1645,30.7645 96.881,30.31 96.863,29.68 L96.863,29.68 L96.863,29.491 L93.272,29.491 L93.245,29.815 C93.245,31.183 93.8075,32.2765 94.9325,33.0955 C96.0575,33.9145 97.61,34.324 99.59,34.324 Z M112.604,17.989 L112.604,14.479 L108.905,14.479 L108.905,17.989 L112.604,17.989 Z M112.604,34 L112.604,19.798 L108.905,19.798 L108.905,34 L112.604,34 Z M125.429,38.914 C126.401,38.914 127.292,38.734 128.102,38.374 C128.912,38.014 129.551,37.501 130.019,36.835 C130.487,36.169 130.721,35.404 130.721,34.54 C130.721,33.406 130.37,32.488 129.668,31.786 C128.966,31.084 128.093,30.733 127.049,30.733 L127.049,30.733 L120.596,30.733 C120.326,30.733 120.11,30.6565 119.948,30.5035 C119.786,30.3505 119.705,30.166 119.705,29.95 C119.705,29.698 119.7995,29.5 119.9885,29.356 C120.1775,29.212 120.434,29.14 120.758,29.14 L120.758,29.14 L122.918,29.14 C124.88,29.14 126.3875,28.708 127.4405,27.844 C128.4935,26.98 129.02,25.801 129.02,24.307 C129.02,22.975 128.57,21.886 127.67,21.04 C128.642,20.824 129.3935,20.4145 129.9245,19.8115 C130.4555,19.2085 130.721,18.412 130.721,17.422 L130.721,17.422 L127.103,17.422 C127.103,17.764 126.9815,18.1735 126.7385,18.6505 C126.4955,19.1275 126.104,19.537 125.564,19.879 C124.754,19.609 123.8,19.474 122.702,19.474 C120.686,19.474 119.1335,19.906 118.0445,20.77 C116.9555,21.634 116.411,22.813 116.411,24.307 C116.411,26.017 117.104,27.295 118.49,28.141 C117.752,28.321 117.149,28.6315 116.681,29.0725 C116.213,29.5135 115.979,30.031 115.979,30.625 C115.979,31.579 116.438,32.29 117.356,32.758 C115.898,33.424 115.169,34.387 115.169,35.647 C115.169,36.601 115.511,37.384 116.195,37.996 C116.879,38.608 117.716,38.914 118.706,38.914 L118.706,38.914 L125.429,38.914 Z M122.702,26.629 C121.838,26.629 121.1855,26.4265 120.7445,26.0215 C120.3035,25.6165 120.083,25.045 120.083,24.307 C120.083,23.569 120.3035,22.9975 120.7445,22.5925 C121.1855,22.1875 121.838,21.985 122.702,21.985 C123.566,21.985 124.223,22.1875 124.673,22.5925 C125.123,22.9975 125.348,23.569 125.348,24.307 C125.348,25.045 125.123,25.6165 124.673,26.0215 C124.223,26.4265 123.566,26.629 122.702,26.629 Z M125.375,36.349 L120.326,36.349 C119.912,36.349 119.57,36.232 119.3,35.998 C119.03,35.764 118.895,35.458 118.895,35.08 C118.895,34.72 119.0345,34.423 119.3135,34.189 C119.5925,33.955 119.93,33.838 120.326,33.838 L120.326,33.838 L125.537,33.838 C125.951,33.838 126.2975,33.946 126.5765,34.162 C126.8555,34.378 126.995,34.684 126.995,35.08 C126.995,35.458 126.842,35.764 126.536,35.998 C126.23,36.232 125.843,36.349 125.375,36.349 L125.375,36.349 Z M136.634,34 L136.634,25.792 C136.634,24.928 136.9085,24.2035 137.4575,23.6185 C138.0065,23.0335 138.695,22.741 139.523,22.741 C140.333,22.741 140.945,22.939 141.359,23.335 C141.773,23.731 141.98,24.37 141.98,25.252 L141.98,25.252 L141.98,34 L145.679,34 L145.679,24.469 C145.679,22.723 145.2605,21.454 144.4235,20.662 C143.5865,19.87 142.439,19.474 140.981,19.474 C139.289,19.474 137.903,20.131 136.823,21.445 L136.823,21.445 L136.634,21.445 L136.634,14.479 L132.935,14.479 L132.935,34 L136.634,34 Z M153.239,34.324 C153.635,34.324 154.0625,34.279 154.5215,34.189 C154.9805,34.099 155.363,34 155.669,33.892 L155.669,33.892 L155.669,31.3 L154.373,31.3 C153.599,31.3 153.212,30.913 153.212,30.139 L153.212,30.139 L153.212,22.822 L155.669,22.822 L155.669,19.798 L153.212,19.798 L153.212,15.802 L150.215,15.802 L149.594,19.798 L147.812,19.798 L147.812,22.822 L149.513,22.822 L149.513,30.517 C149.513,31.615 149.801,32.524 150.377,33.244 C150.953,33.964 151.907,34.324 153.239,34.324 Z M164.093,34.324 C168.431,34.324 170.6,32.794 170.6,29.734 C170.6,28.69 170.321,27.862 169.763,27.25 C169.205,26.638 168.548,26.197 167.792,25.927 C167.036,25.657 166.055,25.387 164.849,25.117 C163.751,24.901 162.9545,24.685 162.4595,24.469 C161.9645,24.253 161.717,23.92 161.717,23.47 C161.717,23.11 161.933,22.831 162.365,22.633 C162.797,22.435 163.382,22.336 164.12,22.336 C164.858,22.336 165.4475,22.462 165.8885,22.714 C166.3295,22.966 166.55,23.326 166.55,23.794 L166.55,23.794 L166.55,23.956 L170.141,23.956 L170.168,23.335 C170.168,22.147 169.61,21.2065 168.494,20.5135 C167.378,19.8205 165.965,19.474 164.255,19.474 C162.419,19.474 160.9205,19.8475 159.7595,20.5945 C158.5985,21.3415 158.018,22.408 158.018,23.794 C158.018,24.784 158.288,25.576 158.828,26.17 C159.368,26.764 160.007,27.2005 160.745,27.4795 C161.483,27.7585 162.437,28.033 163.607,28.303 C164.741,28.555 165.5735,28.807 166.1045,29.059 C166.6355,29.311 166.901,29.689 166.901,30.193 C166.901,30.643 166.64,30.967 166.118,31.165 C165.596,31.363 164.966,31.462 164.228,31.462 C163.436,31.462 162.7655,31.3225 162.2165,31.0435 C161.6675,30.7645 161.384,30.31 161.366,29.68 L161.366,29.68 L161.366,29.491 L157.775,29.491 L157.748,29.815 C157.748,31.183 158.3105,32.2765 159.4355,33.0955 C160.5605,33.9145 162.113,34.324 164.093,34.324 Z M184.748,34 L184.748,27.628 L189.392,27.628 C191.552,27.628 193.1765,27.0925 194.2655,26.0215 C195.3545,24.9505 195.899,23.452 195.899,21.526 C195.899,19.6 195.377,18.1105 194.333,17.0575 C193.289,16.0045 191.732,15.478 189.662,15.478 L189.662,15.478 L180.833,15.478 L180.833,34 L184.748,34 Z M189.311,24.307 L184.748,24.307 L184.748,18.799 L189.311,18.799 C190.157,18.799 190.805,19.0375 191.255,19.5145 C191.705,19.9915 191.93,20.662 191.93,21.526 C191.93,22.408 191.705,23.092 191.255,23.578 C190.805,24.064 190.157,24.307 189.311,24.307 L189.311,24.307 Z M202.649,34 L202.649,27.142 C202.649,25.81 202.919,24.8155 203.459,24.1585 C203.999,23.5015 204.872,23.173 206.078,23.173 L206.078,23.173 L207.104,23.173 L207.104,19.717 C206.69,19.555 206.222,19.474 205.7,19.474 C204.908,19.474 204.269,19.708 203.783,20.176 C203.297,20.644 202.901,21.283 202.595,22.093 L202.595,22.093 L202.406,22.093 L202.109,19.798 L198.95,19.798 L198.95,34 L202.649,34 Z M215.312,34.324 C217.202,34.324 218.723,33.8785 219.875,32.9875 C221.027,32.0965 221.603,30.76 221.603,28.978 L221.603,28.978 L217.958,28.978 C217.958,29.77 217.7195,30.382 217.2425,30.814 C216.7655,31.246 216.14,31.462 215.366,31.462 C214.268,31.462 213.485,31.1605 213.017,30.5575 C212.549,29.9545 212.297,29.023 212.261,27.763 L212.261,27.763 L221.603,27.763 L221.603,26.899 C221.603,24.379 221.081,22.5115 220.037,21.2965 C218.993,20.0815 217.418,19.474 215.312,19.474 C213.026,19.474 211.3205,20.077 210.1955,21.283 C209.0705,22.489 208.508,24.361 208.508,26.899 C208.508,29.437 209.0705,31.309 210.1955,32.515 C211.3205,33.721 213.026,34.324 215.312,34.324 Z M217.769,25.306 L212.315,25.306 C212.423,24.316 212.7155,23.578 213.1925,23.092 C213.6695,22.606 214.376,22.363 215.312,22.363 C216.95,22.363 217.769,23.344 217.769,25.306 L217.769,25.306 Z M228.164,34 L228.164,25.792 C228.164,24.928 228.4025,24.2035 228.8795,23.6185 C229.3565,23.0335 229.955,22.741 230.675,22.741 C232.061,22.741 232.754,23.578 232.754,25.252 L232.754,25.252 L232.754,34 L236.453,34 L236.453,25.792 C236.453,24.928 236.687,24.2035 237.155,23.6185 C237.623,23.0335 238.217,22.741 238.937,22.741 C240.323,22.741 241.016,23.578 241.016,25.252 L241.016,25.252 L241.016,34 L244.715,34 L244.715,24.469 C244.715,22.723 244.3145,21.454 243.5135,20.662 C242.7125,19.87 241.637,19.474 240.287,19.474 C238.559,19.474 237.155,20.203 236.075,21.661 L236.075,21.661 L235.859,21.661 C235.175,20.203 233.933,19.474 232.133,19.474 C230.477,19.474 229.127,20.203 228.083,21.661 L228.083,21.661 L227.894,21.661 L227.624,19.798 L224.465,19.798 L224.465,34 L228.164,34 Z M252.14,17.989 L252.14,14.479 L248.441,14.479 L248.441,17.989 L252.14,17.989 Z M252.14,34 L252.14,19.798 L248.441,19.798 L248.441,34 L252.14,34 Z M260.591,34.324 C262.391,34.324 263.867,33.595 265.019,32.137 L265.019,32.137 L265.208,32.137 L265.478,34 L268.637,34 L268.637,19.798 L264.938,19.798 L264.938,28.006 C264.938,28.87 264.6635,29.5945 264.1145,30.1795 C263.5655,30.7645 262.877,31.057 262.049,31.057 C261.239,31.057 260.627,30.859 260.213,30.463 C259.799,30.067 259.592,29.428 259.592,28.546 L259.592,28.546 L259.592,19.798 L255.893,19.798 L255.893,29.329 C255.893,31.075 256.3115,32.344 257.1485,33.136 C257.9855,33.928 259.133,34.324 260.591,34.324 Z M276.17,34 L276.17,25.792 C276.17,24.928 276.4085,24.2035 276.8855,23.6185 C277.3625,23.0335 277.961,22.741 278.681,22.741 C280.067,22.741 280.76,23.578 280.76,25.252 L280.76,25.252 L280.76,34 L284.459,34 L284.459,25.792 C284.459,24.928 284.693,24.2035 285.161,23.6185 C285.629,23.0335 286.223,22.741 286.943,22.741 C288.329,22.741 289.022,23.578 289.022,25.252 L289.022,25.252 L289.022,34 L292.721,34 L292.721,24.469 C292.721,22.723 292.3205,21.454 291.5195,20.662 C290.7185,19.87 289.643,19.474 288.293,19.474 C286.565,19.474 285.161,20.203 284.081,21.661 L284.081,21.661 L283.865,21.661 C283.181,20.203 281.939,19.474 280.139,19.474 C278.483,19.474 277.133,20.203 276.089,21.661 L276.089,21.661 L275.9,21.661 L275.63,19.798 L272.471,19.798 L272.471,34 L276.17,34 Z" id="InsightsPremium" fill="#0C1733" fill-rule="nonzero"></path>
    </g>
</svg>