<?xml version="1.0" encoding="UTF-8"?>
<svg width="291px" height="69px" viewBox="0 0 291 69" version="1.1" xmlns="http://www.w3.org/2000/svg" xmlns:xlink="http://www.w3.org/1999/xlink">
    <title>Logo / Lenders / Software / Post Close / Dark</title>
    <g id="Brand-Taxonomy" stroke="none" stroke-width="1" fill="none" fill-rule="evenodd">
        <g id="Product-Logos---B4L" transform="translate(-867.000000, -364.000000)">
            <g id="Group" transform="translate(867.000000, 364.000000)">
                <g transform="translate(0.000000, 10.662500)" fill="#CF392B" id="logo/brandmark/red">
                    <path d="M32.7918519,30.9676652 L20,23.2372335 L7.20814815,30.9676652 L7.20814815,18.9451982 L20,11.2207753 L32.7918519,18.9515947 L32.7918519,30.9676652 Z M20,2.5085815 L7.20814815,10.239207 L7.20814815,0 L0,0 L0,43.9209163 L0.19,43.9209163 L20,31.9494273 L39.8037037,43.9209163 L40,43.9209163 L40,14.5954009 L20,2.5085815 L20,2.5085815 Z" id="Fill-1"></path>
                </g>
                <path d="M54.5,0 C55.2796961,0 55.9204487,0.594888083 55.9931334,1.35553999 L56,1.5 L56,66.825 C56,67.6534271 55.3284271,68.325 54.5,68.325 C53.7203039,68.325 53.0795513,67.7301119 53.0068666,66.96946 L53,66.825 L53,1.5 C53,0.671572875 53.6715729,0 54.5,0 Z" id="Line-2" fill="#0C1733" fill-rule="nonzero"></path>
                <g id="Post-Close-Software" transform="translate(68.714000, 14.141500)" fill-rule="nonzero">
                    <path d="M5.01,19.521 L5.01,13.149 L9.654,13.149 C11.814,13.149 13.4385,12.6135 14.5275,11.5425 C15.6165,10.4715 16.161,8.973 16.161,7.047 C16.161,5.121 15.639,3.6315 14.595,2.5785 C13.551,1.5255 11.994,0.999 9.924,0.999 L9.924,0.999 L1.095,0.999 L1.095,19.521 L5.01,19.521 Z M9.573,9.828 L5.01,9.828 L5.01,4.32 L9.573,4.32 C10.419,4.32 11.067,4.5585 11.517,5.0355 C11.967,5.5125 12.192,6.183 12.192,7.047 C12.192,7.929 11.967,8.613 11.517,9.099 C11.067,9.585 10.419,9.828 9.573,9.828 L9.573,9.828 Z M25.53,19.845 C27.96,19.845 29.7735,19.242 30.9705,18.036 C32.1675,16.83 32.766,14.958 32.766,12.42 C32.766,9.882 32.1675,8.01 30.9705,6.804 C29.7735,5.598 27.96,4.995 25.53,4.995 C23.1,4.995 21.291,5.598 20.103,6.804 C18.915,8.01 18.321,9.882 18.321,12.42 C18.321,14.958 18.915,16.83 20.103,18.036 C21.291,19.242 23.1,19.845 25.53,19.845 Z M25.53,16.821 C24.324,16.821 23.4555,16.4745 22.9245,15.7815 C22.3935,15.0885 22.128,14.04 22.128,12.636 L22.128,12.636 L22.128,12.204 C22.128,10.8 22.3935,9.7515 22.9245,9.0585 C23.4555,8.3655 24.324,8.019 25.53,8.019 C26.736,8.019 27.609,8.3655 28.149,9.0585 C28.689,9.7515 28.959,10.8 28.959,12.204 L28.959,12.204 L28.959,12.636 C28.959,14.04 28.689,15.0885 28.149,15.7815 C27.609,16.4745 26.736,16.821 25.53,16.821 Z M41.379,19.845 C45.717,19.845 47.886,18.315 47.886,15.255 C47.886,14.211 47.607,13.383 47.049,12.771 C46.491,12.159 45.834,11.718 45.078,11.448 C44.322,11.178 43.341,10.908 42.135,10.638 C41.037,10.422 40.2405,10.206 39.7455,9.99 C39.2505,9.774 39.003,9.441 39.003,8.991 C39.003,8.631 39.219,8.352 39.651,8.154 C40.083,7.956 40.668,7.857 41.406,7.857 C42.144,7.857 42.7335,7.983 43.1745,8.235 C43.6155,8.487 43.836,8.847 43.836,9.315 L43.836,9.315 L43.836,9.477 L47.427,9.477 L47.454,8.856 C47.454,7.668 46.896,6.7275 45.78,6.0345 C44.664,5.3415 43.251,4.995 41.541,4.995 C39.705,4.995 38.2065,5.3685 37.0455,6.1155 C35.8845,6.8625 35.304,7.929 35.304,9.315 C35.304,10.305 35.574,11.097 36.114,11.691 C36.654,12.285 37.293,12.7215 38.031,13.0005 C38.769,13.2795 39.723,13.554 40.893,13.824 C42.027,14.076 42.8595,14.328 43.3905,14.58 C43.9215,14.832 44.187,15.21 44.187,15.714 C44.187,16.164 43.926,16.488 43.404,16.686 C42.882,16.884 42.252,16.983 41.514,16.983 C40.722,16.983 40.0515,16.8435 39.5025,16.5645 C38.9535,16.2855 38.67,15.831 38.652,15.201 L38.652,15.201 L38.652,15.012 L35.061,15.012 L35.034,15.336 C35.034,16.704 35.5965,17.7975 36.7215,18.6165 C37.8465,19.4355 39.399,19.845 41.379,19.845 Z M54.528,19.845 C54.924,19.845 55.3515,19.8 55.8105,19.71 C56.2695,19.62 56.652,19.521 56.958,19.413 L56.958,19.413 L56.958,16.821 L55.662,16.821 C54.888,16.821 54.501,16.434 54.501,15.66 L54.501,15.66 L54.501,8.343 L56.958,8.343 L56.958,5.319 L54.501,5.319 L54.501,1.323 L51.504,1.323 L50.883,5.319 L49.101,5.319 L49.101,8.343 L50.802,8.343 L50.802,16.038 C50.802,17.136 51.09,18.045 51.666,18.765 C52.242,19.485 53.196,19.845 54.528,19.845 Z M65.544,13.824 L65.544,10.638 L59.037,10.638 L59.037,13.824 L65.544,13.824 Z M76.884,19.845 C78.486,19.845 79.908,19.5795 81.15,19.0485 C82.392,18.5175 83.373,17.7165 84.093,16.6455 C84.813,15.5745 85.173,14.247 85.173,12.663 L85.173,12.663 L81.285,12.663 C81.285,13.869 80.8935,14.814 80.1105,15.498 C79.3275,16.182 78.279,16.524 76.965,16.524 C73.617,16.524 71.943,14.571 71.943,10.665 L71.943,10.665 L71.943,9.855 C71.943,7.965 72.357,6.516 73.185,5.508 C74.013,4.5 75.273,3.996 76.965,3.996 C78.207,3.996 79.215,4.3425 79.989,5.0355 C80.763,5.7285 81.15,6.678 81.15,7.884 L81.15,7.884 L85.173,7.884 C85.173,6.318 84.8085,4.9905 84.0795,3.9015 C83.3505,2.8125 82.3605,2.0025 81.1095,1.4715 C79.8585,0.9405 78.45,0.675 76.884,0.675 C74.04,0.675 71.835,1.4715 70.269,3.0645 C68.703,4.6575 67.92,7.056 67.92,10.26 C67.92,16.65 70.908,19.845 76.884,19.845 Z M91.896,19.521 L91.896,0 L88.197,0 L88.197,19.521 L91.896,19.521 Z M102.021,19.845 C104.451,19.845 106.2645,19.242 107.4615,18.036 C108.6585,16.83 109.257,14.958 109.257,12.42 C109.257,9.882 108.6585,8.01 107.4615,6.804 C106.2645,5.598 104.451,4.995 102.021,4.995 C99.591,4.995 97.782,5.598 96.594,6.804 C95.406,8.01 94.812,9.882 94.812,12.42 C94.812,14.958 95.406,16.83 96.594,18.036 C97.782,19.242 99.591,19.845 102.021,19.845 Z M102.021,16.821 C100.815,16.821 99.9465,16.4745 99.4155,15.7815 C98.8845,15.0885 98.619,14.04 98.619,12.636 L98.619,12.636 L98.619,12.204 C98.619,10.8 98.8845,9.7515 99.4155,9.0585 C99.9465,8.3655 100.815,8.019 102.021,8.019 C103.227,8.019 104.1,8.3655 104.64,9.0585 C105.18,9.7515 105.45,10.8 105.45,12.204 L105.45,12.204 L105.45,12.636 C105.45,14.04 105.18,15.0885 104.64,15.7815 C104.1,16.4745 103.227,16.821 102.021,16.821 Z M117.87,19.845 C122.208,19.845 124.377,18.315 124.377,15.255 C124.377,14.211 124.098,13.383 123.54,12.771 C122.982,12.159 122.325,11.718 121.569,11.448 C120.813,11.178 119.832,10.908 118.626,10.638 C117.528,10.422 116.7315,10.206 116.2365,9.99 C115.7415,9.774 115.494,9.441 115.494,8.991 C115.494,8.631 115.71,8.352 116.142,8.154 C116.574,7.956 117.159,7.857 117.897,7.857 C118.635,7.857 119.2245,7.983 119.6655,8.235 C120.1065,8.487 120.327,8.847 120.327,9.315 L120.327,9.315 L120.327,9.477 L123.918,9.477 L123.945,8.856 C123.945,7.668 123.387,6.7275 122.271,6.0345 C121.155,5.3415 119.742,4.995 118.032,4.995 C116.196,4.995 114.6975,5.3685 113.5365,6.1155 C112.3755,6.8625 111.795,7.929 111.795,9.315 C111.795,10.305 112.065,11.097 112.605,11.691 C113.145,12.285 113.784,12.7215 114.522,13.0005 C115.26,13.2795 116.214,13.554 117.384,13.824 C118.518,14.076 119.3505,14.328 119.8815,14.58 C120.4125,14.832 120.678,15.21 120.678,15.714 C120.678,16.164 120.417,16.488 119.895,16.686 C119.373,16.884 118.743,16.983 118.005,16.983 C117.213,16.983 116.5425,16.8435 115.9935,16.5645 C115.4445,16.2855 115.161,15.831 115.143,15.201 L115.143,15.201 L115.143,15.012 L111.552,15.012 L111.525,15.336 C111.525,16.704 112.0875,17.7975 113.2125,18.6165 C114.3375,19.4355 115.89,19.845 117.87,19.845 Z M133.071,19.845 C134.961,19.845 136.482,19.3995 137.634,18.5085 C138.786,17.6175 139.362,16.281 139.362,14.499 L139.362,14.499 L135.717,14.499 C135.717,15.291 135.4785,15.903 135.0015,16.335 C134.5245,16.767 133.899,16.983 133.125,16.983 C132.027,16.983 131.244,16.6815 130.776,16.0785 C130.308,15.4755 130.056,14.544 130.02,13.284 L130.02,13.284 L139.362,13.284 L139.362,12.42 C139.362,9.9 138.84,8.0325 137.796,6.8175 C136.752,5.6025 135.177,4.995 133.071,4.995 C130.785,4.995 129.0795,5.598 127.9545,6.804 C126.8295,8.01 126.267,9.882 126.267,12.42 C126.267,14.958 126.8295,16.83 127.9545,18.036 C129.0795,19.242 130.785,19.845 133.071,19.845 Z M135.528,10.827 L130.074,10.827 C130.182,9.837 130.4745,9.099 130.9515,8.613 C131.4285,8.127 132.135,7.884 133.071,7.884 C134.709,7.884 135.528,8.865 135.528,10.827 L135.528,10.827 Z" id="Post-Close" fill="#0C1733"></path>
                    <path d="M4.896,40.725 C6.43733333,40.725 7.65283333,40.4303333 8.5425,39.841 C9.43216667,39.2516667 9.877,38.3336667 9.877,37.087 C9.877,36.3163333 9.66166667,35.693 9.231,35.217 C8.80033333,34.741 8.2875,34.3811667 7.6925,34.1375 C7.0975,33.8938333 6.33533333,33.6473333 5.406,33.398 C4.78266667,33.228 4.301,33.0835 3.961,32.9645 C3.621,32.8455 3.33766667,32.6925 3.111,32.5055 C2.88433333,32.3185 2.771,32.0946667 2.771,31.834 C2.771,31.494 2.96083333,31.2276667 3.3405,31.035 C3.72016667,30.8423333 4.267,30.746 4.981,30.746 C5.64966667,30.746 6.1795,30.8706667 6.5705,31.12 C6.9615,31.3693333 7.157,31.7093333 7.157,32.14 L7.157,32.14 L7.157,32.293 L9.605,32.293 L9.605,32.089 C9.605,30.9443333 9.17716667,30.0858333 8.3215,29.5135 C7.46583333,28.9411667 6.36366667,28.655 5.015,28.655 C3.587,28.655 2.44233333,28.9326667 1.581,29.488 C0.719666667,30.0433333 0.289,30.8536667 0.289,31.919 C0.289,32.6896667 0.493,33.3101667 0.901,33.7805 C1.309,34.2508333 1.79633333,34.605 2.363,34.843 C2.92966667,35.081 3.672,35.3303333 4.59,35.591 C5.236,35.7723333 5.74316667,35.9281667 6.1115,36.0585 C6.47983333,36.1888333 6.78583333,36.3645 7.0295,36.5855 C7.27316667,36.8065 7.395,37.0813333 7.395,37.41 C7.395,37.784 7.208,38.0815 6.834,38.3025 C6.46,38.5235 5.85366667,38.634 5.015,38.634 C4.22166667,38.634 3.604,38.4866667 3.162,38.192 C2.72,37.8973333 2.499,37.5006667 2.499,37.002 L2.499,37.002 L2.516,36.73 L0.017,36.73 L-5.68434189e-14,37.104 C-5.68434189e-14,37.8746667 0.221,38.532 0.663,39.076 C1.105,39.62 1.69716667,40.0308333 2.4395,40.3085 C3.18183333,40.5861667 4.00066667,40.725 4.896,40.725 Z M17.238,40.725 C19.1193333,40.725 20.5756667,40.2235 21.607,39.2205 C22.6383333,38.2175 23.154,36.7073333 23.154,34.69 C23.154,32.6726667 22.6383333,31.1625 21.607,30.1595 C20.5756667,29.1565 19.1193333,28.655 17.238,28.655 C15.368,28.655 13.9173333,29.1565 12.886,30.1595 C11.8546667,31.1625 11.339,32.6726667 11.339,34.69 C11.339,36.7073333 11.8546667,38.2175 12.886,39.2205 C13.9173333,40.2235 15.368,40.725 17.238,40.725 Z M17.238,38.634 C16.1273333,38.634 15.2886667,38.3138333 14.722,37.6735 C14.1553333,37.0331667 13.872,36.1236667 13.872,34.945 L13.872,34.945 L13.872,34.435 C13.872,33.2563333 14.1553333,32.3468333 14.722,31.7065 C15.2886667,31.0661667 16.1273333,30.746 17.238,30.746 C18.3486667,30.746 19.1901667,31.0661667 19.7625,31.7065 C20.3348333,32.3468333 20.621,33.2563333 20.621,34.435 L20.621,34.435 L20.621,34.945 C20.621,36.1236667 20.3348333,37.0331667 19.7625,37.6735 C19.1901667,38.3138333 18.3486667,38.634 17.238,38.634 Z M27.455,40.521 L27.455,35.914 L32.81,35.914 L32.81,33.823 L27.455,33.823 L27.455,30.95 L33.439,30.95 L33.439,28.859 L24.99,28.859 L24.99,40.521 L27.455,40.521 Z M40.664,40.521 L40.664,30.984 L44.268,30.984 L44.268,28.859 L34.595,28.859 L34.595,30.984 L38.199,30.984 L38.199,40.521 L40.664,40.521 Z M50.422,40.521 L52.309,33.092 C52.3883333,32.7746667 52.4846667,32.225 52.598,31.443 L52.598,31.443 L52.666,31.443 C52.7566667,32.1683333 52.853,32.718 52.955,33.092 L52.955,33.092 L54.876,40.521 L57.545,40.521 L60.639,28.859 L58.361,28.859 L56.627,36.033 C56.5363333,36.3956667 56.4456667,36.9396667 56.355,37.665 L56.355,37.665 L56.27,37.665 C56.1566667,36.8716667 56.066,36.3276667 55.998,36.033 L55.998,36.033 L54.298,28.859 L51.323,28.859 L49.606,36.033 C49.5266667,36.3503333 49.436,36.8943333 49.334,37.665 L49.334,37.665 L49.249,37.665 C49.147,36.8943333 49.0563333,36.3503333 48.977,36.033 L48.977,36.033 L47.294,28.859 L44.659,28.859 L47.753,40.521 L50.422,40.521 Z M62.322,40.521 L63.155,38.294 L68.459,38.294 L69.292,40.521 L71.978,40.521 L67.422,28.859 L64.328,28.859 L59.772,40.521 L62.322,40.521 Z M67.677,36.237 L63.92,36.237 L65.025,33.279 C65.161,32.9163333 65.4046667,32.1513333 65.756,30.984 L65.756,30.984 L65.841,30.984 C66.1923333,32.1513333 66.436,32.9163333 66.572,33.279 L66.572,33.279 L67.677,36.237 Z M75.616,40.521 L75.616,36.169 L78.88,36.169 L80.937,40.521 L83.606,40.521 L81.226,35.778 C82.586,35.234 83.266,34.146 83.266,32.514 C83.266,31.358 82.9373333,30.4598333 82.28,29.8195 C81.6226667,29.1791667 80.6423333,28.859 79.339,28.859 L79.339,28.859 L73.151,28.859 L73.151,40.521 L75.616,40.521 Z M79.118,34.112 L75.616,34.112 L75.616,30.95 L79.118,30.95 C79.6506667,30.95 80.0586667,31.086 80.342,31.358 C80.6253333,31.63 80.767,32.0153333 80.767,32.514 C80.767,33.0126667 80.6253333,33.4036667 80.342,33.687 C80.0586667,33.9703333 79.6506667,34.112 79.118,34.112 L79.118,34.112 Z M94.69,40.521 L94.69,38.43 L87.89,38.43 L87.89,35.608 L93.84,35.608 L93.84,33.517 L87.89,33.517 L87.89,30.95 L94.588,30.95 L94.588,28.859 L85.425,28.859 L85.425,40.521 L94.69,40.521 Z M103.955,40.521 L103.955,35.914 L109.31,35.914 L109.31,33.823 L103.955,33.823 L103.955,30.95 L109.939,30.95 L109.939,28.859 L101.49,28.859 L101.49,40.521 L103.955,40.521 Z M117.351,40.725 C119.232333,40.725 120.688667,40.2235 121.72,39.2205 C122.751333,38.2175 123.267,36.7073333 123.267,34.69 C123.267,32.6726667 122.751333,31.1625 121.72,30.1595 C120.688667,29.1565 119.232333,28.655 117.351,28.655 C115.481,28.655 114.030333,29.1565 112.999,30.1595 C111.967667,31.1625 111.452,32.6726667 111.452,34.69 C111.452,36.7073333 111.967667,38.2175 112.999,39.2205 C114.030333,40.2235 115.481,40.725 117.351,40.725 Z M117.351,38.634 C116.240333,38.634 115.401667,38.3138333 114.835,37.6735 C114.268333,37.0331667 113.985,36.1236667 113.985,34.945 L113.985,34.945 L113.985,34.435 C113.985,33.2563333 114.268333,32.3468333 114.835,31.7065 C115.401667,31.0661667 116.240333,30.746 117.351,30.746 C118.461667,30.746 119.303167,31.0661667 119.8755,31.7065 C120.447833,32.3468333 120.734,33.2563333 120.734,34.435 L120.734,34.435 L120.734,34.945 C120.734,36.1236667 120.447833,37.0331667 119.8755,37.6735 C119.303167,38.3138333 118.461667,38.634 117.351,38.634 Z M127.568,40.521 L127.568,36.169 L130.832,36.169 L132.889,40.521 L135.558,40.521 L133.178,35.778 C134.538,35.234 135.218,34.146 135.218,32.514 C135.218,31.358 134.889333,30.4598333 134.232,29.8195 C133.574667,29.1791667 132.594333,28.859 131.291,28.859 L131.291,28.859 L125.103,28.859 L125.103,40.521 L127.568,40.521 Z M131.07,34.112 L127.568,34.112 L127.568,30.95 L131.07,30.95 C131.602667,30.95 132.010667,31.086 132.294,31.358 C132.577333,31.63 132.719,32.0153333 132.719,32.514 C132.719,33.0126667 132.577333,33.4036667 132.294,33.687 C132.010667,33.9703333 131.602667,34.112 131.07,34.112 L131.07,34.112 Z M150.858,40.521 L150.858,38.379 L144.568,38.379 L144.568,28.859 L142.103,28.859 L142.103,40.521 L150.858,40.521 Z M161.755,40.521 L161.755,38.43 L154.955,38.43 L154.955,35.608 L160.905,35.608 L160.905,33.517 L154.955,33.517 L154.955,30.95 L161.653,30.95 L161.653,28.859 L152.49,28.859 L152.49,40.521 L161.755,40.521 Z M166.226,40.521 L166.226,34.078 C166.226,33.8853333 166.209,33.5453333 166.175,33.058 L166.175,33.058 L166.26,33.007 C166.486667,33.449 166.707667,33.823 166.923,34.129 L166.923,34.129 L171.428,40.521 L173.825,40.521 L173.825,28.859 L171.428,28.859 L171.428,35.302 L171.479,36.288 L171.394,36.339 C171.076667,35.7723333 170.85,35.3926667 170.714,35.2 L170.714,35.2 L166.226,28.859 L163.829,28.859 L163.829,40.521 L166.226,40.521 Z M180.931,40.521 C182.710333,40.521 184.0845,40.0365 185.0535,39.0675 C186.0225,38.0985 186.507,36.6393333 186.507,34.69 C186.507,32.7406667 186.0225,31.2815 185.0535,30.3125 C184.0845,29.3435 182.710333,28.859 180.931,28.859 L180.931,28.859 L176.103,28.859 L176.103,40.521 L180.931,40.521 Z M180.931,38.43 L178.568,38.43 L178.568,30.95 L180.931,30.95 C181.928333,30.95 182.684833,31.2531667 183.2005,31.8595 C183.716167,32.4658333 183.974,33.3243333 183.974,34.435 L183.974,34.435 L183.974,34.945 C183.974,36.0556667 183.716167,36.9141667 183.2005,37.5205 C182.684833,38.1268333 181.928333,38.43 180.931,38.43 L180.931,38.43 Z M197.642,40.521 L197.642,38.43 L190.842,38.43 L190.842,35.608 L196.792,35.608 L196.792,33.517 L190.842,33.517 L190.842,30.95 L197.54,30.95 L197.54,28.859 L188.377,28.859 L188.377,40.521 L197.642,40.521 Z M202.181,40.521 L202.181,36.169 L205.445,36.169 L207.502,40.521 L210.171,40.521 L207.791,35.778 C209.151,35.234 209.831,34.146 209.831,32.514 C209.831,31.358 209.502333,30.4598333 208.845,29.8195 C208.187667,29.1791667 207.207333,28.859 205.904,28.859 L205.904,28.859 L199.716,28.859 L199.716,40.521 L202.181,40.521 Z M205.683,34.112 L202.181,34.112 L202.181,30.95 L205.683,30.95 C206.215667,30.95 206.623667,31.086 206.907,31.358 C207.190333,31.63 207.332,32.0153333 207.332,32.514 C207.332,33.0126667 207.190333,33.4036667 206.907,33.687 C206.623667,33.9703333 206.215667,34.112 205.683,34.112 L205.683,34.112 Z M216.461,40.725 C218.002333,40.725 219.217833,40.4303333 220.1075,39.841 C220.997167,39.2516667 221.442,38.3336667 221.442,37.087 C221.442,36.3163333 221.226667,35.693 220.796,35.217 C220.365333,34.741 219.8525,34.3811667 219.2575,34.1375 C218.6625,33.8938333 217.900333,33.6473333 216.971,33.398 C216.347667,33.228 215.866,33.0835 215.526,32.9645 C215.186,32.8455 214.902667,32.6925 214.676,32.5055 C214.449333,32.3185 214.336,32.0946667 214.336,31.834 C214.336,31.494 214.525833,31.2276667 214.9055,31.035 C215.285167,30.8423333 215.832,30.746 216.546,30.746 C217.214667,30.746 217.7445,30.8706667 218.1355,31.12 C218.5265,31.3693333 218.722,31.7093333 218.722,32.14 L218.722,32.14 L218.722,32.293 L221.17,32.293 L221.17,32.089 C221.17,30.9443333 220.742167,30.0858333 219.8865,29.5135 C219.030833,28.9411667 217.928667,28.655 216.58,28.655 C215.152,28.655 214.007333,28.9326667 213.146,29.488 C212.284667,30.0433333 211.854,30.8536667 211.854,31.919 C211.854,32.6896667 212.058,33.3101667 212.466,33.7805 C212.874,34.2508333 213.361333,34.605 213.928,34.843 C214.494667,35.081 215.237,35.3303333 216.155,35.591 C216.801,35.7723333 217.308167,35.9281667 217.6765,36.0585 C218.044833,36.1888333 218.350833,36.3645 218.5945,36.5855 C218.838167,36.8065 218.96,37.0813333 218.96,37.41 C218.96,37.784 218.773,38.0815 218.399,38.3025 C218.025,38.5235 217.418667,38.634 216.58,38.634 C215.786667,38.634 215.169,38.4866667 214.727,38.192 C214.285,37.8973333 214.064,37.5006667 214.064,37.002 L214.064,37.002 L214.081,36.73 L211.582,36.73 L211.565,37.104 C211.565,37.8746667 211.786,38.532 212.228,39.076 C212.67,39.62 213.262167,40.0308333 214.0045,40.3085 C214.746833,40.5861667 215.565667,40.725 216.461,40.725 Z" id="SOFTWAREFORLENDERS" fill="#DF3B26"></path>
                </g>
            </g>
        </g>
    </g>
</svg>