<?xml version="1.0" encoding="utf-8"?>
<!-- Generator: Adobe Illustrator 24.3.0, SVG Export Plug-In . SVG Version: 6.00 Build 0)  -->
<svg version="1.1" id="Layer_1" xmlns="http://www.w3.org/2000/svg" xmlns:xlink="http://www.w3.org/1999/xlink" x="0px" y="0px"
	 viewBox="0 0 668 169.8" style="enable-background:new 0 0 668 169.8;" xml:space="preserve">
<style type="text/css">
	.st0{fill:#418A90;}
	.st1{fill:#00ADDC;}
	.st2{fill:#F7921E;}
	.st3{fill:#0067AC;}
	.st4{fill:#A7A9AC;}
</style>
<g>
	<path class="st0" d="M237.1,22c0-0.6-0.1-1.2-0.1-1.8c-0.1,0-0.3,0-0.4,0c-24,0-43.5,19.5-43.5,43.5c0,0,0,0.1,0,0.1
		c0.7,0,1.4,0.1,2.1,0.1C218.4,64,237.1,45.2,237.1,22"/>
	<path class="st1" d="M195.2,64c-0.7,0-1.4,0.1-2.1,0.1c0.2,23.9,19.6,43.2,43.5,43.2c0.1,0,0.3,0,0.4,0c0-0.4,0.1-0.9,0.1-1.3
		C237.1,82.8,218.4,64,195.2,64"/>
	<path class="st2" d="M279.1,64c0.4,0,0.7,0,1.1-0.1c0-0.1,0-0.1,0-0.2c0-23.8-19.2-43.2-42.9-43.5c0,0.6-0.1,1.2-0.1,1.8
		C237.1,45.2,255.9,64,279.1,64"/>
	<path class="st3" d="M237.1,105.9c0,0.4,0.1,0.9,0.1,1.3c23.7-0.3,42.8-19.5,43-43.2c-0.4,0-0.7-0.1-1.1-0.1
		C255.9,64,237.1,82.8,237.1,105.9"/>
	<polygon class="st3" points="0.1,0 55.8,0 55.8,12.5 14.4,12.5 14.4,41.6 52.1,41.6 52.1,54.1 14.4,54.1 14.4,86.9 55.8,86.9 
		55.8,99.4 0.1,99.4 	"/>
	<path class="st3" d="M65.5,26.8h13v11.5h0.3c4-8.3,13.7-13.2,23.8-13.2c18.8,0,27.2,11.7,27.2,31.2v43.2h-13.4V61.8
		c0-16.9-3.7-25.2-15.4-25.9c-15.2,0-22.1,12.2-22.1,29.9v33.6H65.5V26.8z"/>
	<path class="st3" d="M189.3,39c-5.1-2.1-10.3-3.1-14.5-3.1c-15,0-23.4,13.4-23.4,27.2c0,13,7,27.2,24.2,27.2
		c4.6,0,10.3-1.4,14.4-4.1l1,12c-5.6,2.6-12,3-16.8,3c-21.9,0-37-17.2-37-38c0-22.1,14.8-38,37-38c5.4,0,12.4,1.3,16.2,2.9L189.3,39
		z"/>
	<path class="st3" d="M287.2,26.8h12.5v10.5h0.3c5.1-8.4,12.4-12.2,23.1-12.2c8.4,0,16.8,4.3,20.7,14.1c5-10.4,16-14.1,22.5-14.1
		c18.5,0,25.2,12,25.2,27.8v46.6H378V56.1c0-9-2.1-20.2-13-20.2c-13.7,0-19.1,13.4-19.1,26.9v36.6h-13.4V56.1c0-9-2.1-20.2-13-20.2
		c-13.7,0-19.1,13.4-19.1,26.9v36.6h-13.4V26.8z"/>
	<path class="st3" d="M403.6,26.8h12.8V37h0.3c3.6-5.4,11.8-12,24.6-12c21.1,0,31.3,17.2,31.3,36.7c0,19.9-9.3,39.3-31.2,39.3
		c-12.8,0-20.1-5-24.2-11.7H417V121h-13.4V26.8z M438.5,35.9c-14.5,0-21.5,13.8-21.5,27.3c0,12.1,6.3,27.1,21.4,27.1
		c14.4,0,20.4-16.1,20.1-27.5C458.7,49.7,453,35.9,438.5,35.9"/>
	<path class="st3" d="M494,47l-10.1-2.3c3.4-16.5,19-19.6,28.3-19.6c20.8,0,29.2,10.3,29.2,30.1v30.1c0,8.3,0.2,12.2,1.6,14.2h-13.6
		V90h-0.3c-3.1,4.4-10.3,11.1-22.5,11.1c-15.7,0-26.6-6.8-26.6-22.7c0-18.2,19.9-23.9,33.8-23.9c5.3,0,9,0,14.2,0.3
		c0-12.5-4.7-20.5-18-19.7C497,35.8,494,47,494,47 M528.1,64.8c-2.9,0-5.7-0.3-8.5-0.3c-7.3,0-25.2,1.1-25.2,14
		c0,7.7,7.4,11.8,13.5,11.8c13.3,0,20.2-8.3,20.2-19.1V64.8z"/>
	<path class="st3" d="M553,85.2c5.3,3.4,12.8,5.1,16.7,5.1c6.1,0,13.7-2.6,13.7-10.4c0-13.2-31.5-12.1-31.5-32.5
		c0-15.1,11.3-22.4,25.6-22.4c6.3,0,11.4,1.3,16.7,2.9L593,39.6c-3-1.8-11-3.7-14.1-3.7c-6.8,0-12.8,2.8-12.8,8.8
		c0,14.8,31.5,10.5,31.5,33.8c0,15.5-12.4,22.7-25.4,22.7c-6.8,0-13.8-0.7-19.9-4L553,85.2z"/>
	<path class="st3" d="M605,85.2c5.3,3.4,12.8,5.1,16.7,5.1c6.1,0,13.7-2.6,13.7-10.4c0-13.2-31.5-12.1-31.5-32.5
		c0-15.1,11.3-22.4,25.6-22.4c6.3,0,11.4,1.3,16.7,2.9l-1.1,11.7c-3-1.8-11-3.7-14.1-3.7c-6.8,0-12.8,2.8-12.8,8.8
		c0,14.8,31.5,10.5,31.5,33.8c0,15.5-12.4,22.7-25.4,22.7c-6.8,0-13.8-0.7-19.9-4L605,85.2z"/>
	<path class="st3" d="M661,25.5c3.9,0,7,3.1,7,7c0,3.9-3.1,7-7,7c-3.9,0-7-3.1-7-7C654,28.7,657.2,25.5,661,25.5 M661,38.4
		c3.2,0,5.6-2.6,5.6-5.9c0-3.3-2.4-5.9-5.6-5.9c-3.3,0-5.7,2.6-5.7,5.9C655.4,35.9,657.8,38.4,661,38.4 M658.3,28.4h3.1
		c1.9,0,2.8,0.8,2.8,2.3c0,1.3-0.8,2.3-2.1,2.3l2.3,3.6h-1.4l-2.3-3.6h-1.1v3.6h-1.3V28.4z M659.7,31.9h1.6c1,0,1.7-0.2,1.7-1.3
		c0-0.9-0.8-1.2-1.7-1.2h-1.6V31.9z"/>
	<path class="st4" d="M0,122h3v10h0.1c0.9-1.5,2.6-2.6,5.4-2.6c4.8,0,7.1,3.9,7.1,8.3c0,4.5-2.1,8.9-7,8.9c-2.9,0-4.8-1.5-5.6-2.7
		H2.9v2.3H0V122z M7.9,131.8c-3.3,0-4.9,3.1-4.9,6.2c0,2.7,1.4,6.1,4.8,6.1c3.2,0,4.6-3.6,4.5-6.2C12.4,134.9,11.2,131.8,7.9,131.8"
		/>
	<path class="st4" d="M18.4,150.6c0.4,0.1,0.9,0.3,1.4,0.3c2.7,0,3.6-3.7,3.6-4.1c0-0.4-0.4-1.2-0.6-1.7l-5.6-15.3h3.3l4.4,13.6h0.1
		l4.5-13.6h3.1l-6,16.8c-1.1,3.2-2.3,6.8-6.3,6.8c-1,0-1.5-0.1-2.1-0.2L18.4,150.6z"/>
	<path class="st4" d="M276.6,126.2c3,0,5.4,2.4,5.4,5.4s-2.4,5.4-5.4,5.4c-3,0-5.4-2.4-5.4-5.4S273.6,126.2,276.6,126.2
		 M276.6,136.2c2.5,0,4.4-2,4.4-4.6c0-2.6-1.9-4.6-4.4-4.6c-2.5,0-4.4,2-4.4,4.6C272.2,134.2,274.1,136.2,276.6,136.2 M274.5,128.4
		h2.4c1.5,0,2.2,0.6,2.2,1.8c0,1-0.6,1.8-1.6,1.8l1.8,2.8h-1.1l-1.8-2.8h-0.9v2.8h-1V128.4z M275.5,131.1h1.2c0.8,0,1.3-0.2,1.3-1
		c0-0.7-0.6-0.9-1.3-0.9h-1.2V131.1z"/>
	<polygon class="st4" points="46.1,121.9 72.5,121.9 72.5,127.8 52.8,127.8 52.8,141.6 70.7,141.6 70.7,147.5 52.8,147.5 52.8,163 
		72.5,163 72.5,169 46.1,169 	"/>
	<rect x="77.9" y="121.5" class="st4" width="6.3" height="47.5"/>
	<rect x="91.1" y="121.5" class="st4" width="6.3" height="47.5"/>
	<path class="st4" d="M110.7,129h-6.5v-7.5h6.5V129z M104.4,134.6h6.3V169h-6.3V134.6z"/>
	<path class="st4" d="M143.2,167.6c-2.4,0.9-5.2,2.2-10.9,2.2c-12.2,0-17.8-7.4-17.8-18.6c0-10.2,6.4-17.4,16.1-17.4
		c11.5,0,15.2,8.4,15.2,19.4h-24.6c0,6.8,5.3,11.5,11.3,11.5c4.2,0,9-2.2,10.6-3.4V167.6z M139,148.5c0-5.3-3.1-9.6-8.6-9.6
		c-6.2,0-8.8,5.1-9.2,9.6H139z"/>
	<polygon class="st4" points="151.6,121.9 162.7,121.9 177.5,161 192,121.9 203.2,121.9 203.2,169 196.4,169 196.4,128.2 
		196.3,128.2 180.7,169 174.1,169 158.5,128.2 158.3,128.2 158.3,169 151.6,169 	"/>
	<path class="st4" d="M267.5,167.6c-2.4,0.9-5.2,2.2-10.9,2.2c-12.2,0-17.8-7.4-17.8-18.6c0-10.2,6.4-17.4,16.1-17.4
		c11.5,0,15.2,8.4,15.2,19.4h-24.6c0,6.8,5.3,11.5,11.3,11.5c4.2,0,9-2.2,10.6-3.4V167.6z M263.4,148.5c0-5.3-3.1-9.6-8.6-9.6
		c-6.2,0-8.8,5.1-9.2,9.6H263.4z"/>
	<path class="st4" d="M213.8,144.1L209,143c1.6-7.8,9-9.3,13.4-9.3c9.8,0,13.8,4.8,13.8,14.2v14.2c0,3.9,0.1,5.8,0.8,6.7h-6.4v-4.4
		h-0.1c-1.5,2.1-4.8,5.2-10.6,5.2c-7.4,0-12.6-3.2-12.6-10.7c0-8.6,9.4-11.3,15.9-11.3c2.5,0,4.2,0,6.7,0.1c0-5.9-2.2-9.7-8.5-9.3
		C215.2,138.8,213.8,144.1,213.8,144.1 M229.8,152.5c-1.3,0-2.7-0.1-4-0.1c-3.4,0-11.9,0.5-11.9,6.6c0,3.6,3.5,5.6,6.4,5.6
		c6.3,0,9.5-3.9,9.5-9V152.5z"/>
</g>
</svg>
