<?xml version="1.0" encoding="utf-8"?>
<!-- Generator: Adobe Illustrator 24.3.0, SVG Export Plug-In . SVG Version: 6.00 Build 0)  -->
<svg version="1.1" id="Layer_1" xmlns="http://www.w3.org/2000/svg" xmlns:xlink="http://www.w3.org/1999/xlink" x="0px" y="0px"
	 viewBox="0 0 1190.8 501.8" style="enable-background:new 0 0 1190.8 501.8;" xml:space="preserve">
<style type="text/css">
	.st0{fill:#8CC53F;}
	.st1{fill:#CEE4AD;}
	.st2{fill:#E4F0D3;}
	.st3{fill:#A2CE62;}
	.st4{fill:#B8D888;}
</style>
<g>
	<path class="st0" d="M22.4,501.8c-0.7-1.5-2.2-1.3-3.4-1.8c-11.7-4.7-18.7-14.4-18.7-26.9c-0.1-51.6-0.9-103.3,0.4-154.9
		c1.1-46.2,17-86.9,51.8-118.8c23.6-21.7,51.9-33.8,83.2-39.4c14.2-2.5,28.4-3.1,42.8-3.1c84.5,0.1,169,0.1,253.4,0.1
		c15.5,0,27.3,11.5,27.3,26.5c0,15-11.9,26.4-27.4,26.4c-86.5,0-173,0.1-259.4,0.1c-22.9,0-44.7,4.3-64.5,16.4
		c-26.7,16.3-41.2,40.9-47.4,70.9c-2.3,11-3,22.1-3,33.3c0.1,44.6-0.5,89.3,0.3,133.9c0.3,18.3-5.1,31.4-23.3,37.4
		C30.4,501.8,26.4,501.8,22.4,501.8z"/>
	<path class="st0" d="M595.3,501.8c-0.5-0.4-0.8-1-1.4-1.2c-14.8-5.6-20.3-16.9-20.3-32.1c0.1-65.8,0.1-131.5,0.1-197.3
		c0-28.1,0-56.3,0-84.4c0-12.8,4.2-23.2,16.2-29.2c18.6-9.4,40.4,3.8,41.4,24.9c0.1,1.8,0,3.7,0,5.5c0,92.1-0.2,184.2,0.2,276.2
		c0.1,18.2-5.1,31.4-23.1,37.6C604,501.8,599.7,501.8,595.3,501.8z"/>
	<path class="st1" d="M242.4,0c7,2.1,13.6,4.7,19.4,9.5c21.3,17.6,15.6,54.3-10.1,64.7c-26.4,10.7-53.7-8.7-53.2-37
		c0.3-16.4,12.3-31.3,28.8-35.9c1.1-0.3,2.4,0,3.1-1.2C234.4,0,238.4,0,242.4,0z"/>
	<path class="st2" d="M120.4,0c6.3,2,12.5,3.9,17.8,8.2c16.1,13,19.4,34.3,8.7,51.3c-11,17.4-32.9,22.8-50.7,12.8
		C81.5,64.1,75,48.2,76.7,35.2c2.6-19.2,13.9-31.1,31-34.3c0.6-0.1,1.1-0.6,1.7-0.9C113.1,0,116.7,0,120.4,0z"/>
	<path class="st3" d="M487.3,0c8.2,2.9,15.9,6.3,21.8,13c10.7,12.1,12.7,31.2,4.3,45.1C504.6,73,488.2,80,471.6,76
		c-15.9-3.8-28-18-29.2-34.1c-1.2-17.3,8.6-33.2,24.2-39.2c1.9-0.7,4.3-0.6,5.7-2.7C477.3,0,482.3,0,487.3,0z"/>
	<path class="st4" d="M365.4,0c8,2.8,15.6,6.1,21.5,12.7c10.4,11.5,13.1,29.7,5.7,43.7c-7.8,14.8-24,23.1-39.9,20.5
		c-15.8-2.6-28.6-15.1-31.4-30.8c-3.6-19.9,6.9-37.7,26.1-44.2c1.3-0.5,3.1-0.3,4-1.8C356,0,360.7,0,365.4,0z"/>
	<path class="st0" d="M609.3,0c1,1.7,3,1.2,4.4,1.7c18.1,5.8,29,23.4,26.5,42.9C638,62.1,622,76.5,604.4,77
		c-19.9,0.6-35.6-12-39.5-31.7c-3.5-17.8,6.9-36.3,24.2-42.9c2.1-0.8,4.6-0.7,6.3-2.5C600,0,604.7,0,609.3,0z"/>
	<path class="st0" d="M943.8,499.4c-51.5,0-103,0-154.5,0c-15.2,0-25.5-7.9-28.5-21.4c-3.2-14.8,7.5-29.8,22.5-31.4
		c3.1-0.3,6.3-0.5,9.5-0.5c98.3,0,196.6-0.3,294.9,0.2c25.7,0.1,45.8-22.1,45.4-46.5c-0.4-25.4-21.3-45.5-45.5-45.4
		c-79.6,0.5-159.3,0.2-238.9,0.2c-23.5,0-45.3-6-63.9-20.7c-33-26.1-45.3-60.7-35.9-101.2c9.3-40.4,36.5-64.6,76.8-73.9
		c6.8-1.6,13.8-2.1,20.8-2.1c100.6,0,201.3,0,301.9,0c10.8,0,19.1,4.2,24.4,13.6c5,9,4.7,18.3-0.8,27.1c-4.8,7.8-12,11.8-21.1,12.3
		c-2,0.1-4,0-6,0c-98.6,0-197.3,0-295.9,0c-22.6,0-40.7,15-44.8,37.1c-4.1,22.1,8,44.1,28.6,52c5.4,2.1,11,2.6,16.7,2.6
		c79.3,0,158.6,0.1,238-0.1c30-0.1,56.1,9.5,76.5,31.7c25.7,27.9,32.9,61,21.8,97c-11.1,35.8-36.5,57.5-72.7,66.5
		c-8.6,2.2-17.4,2.6-26.3,2.6C1039.1,499.4,991.4,499.4,943.8,499.4z"/>
	<path class="st0" d="M244,301.6c43.7,0,87.3,0,131,0c10.4,0,18.4,4.5,23.3,13.6c4.9,9,4.7,18.3-0.8,27.1
		c-5.5,8.8-13.9,12.4-24.1,12.4c-38.3,0-76.6,0-115,0c-48.2,0-96.3,0-144.5,0c-15.8,0-27.5-11.2-27.6-26.2
		c-0.2-15.1,11-26.8,26.2-26.8c29-0.2,58-0.1,87-0.1C214.3,301.6,229.2,301.6,244,301.6z"/>
</g>
</svg>
