<?xml version="1.0" encoding="utf-8"?>
<!-- Generator: Adobe Illustrator 24.3.0, SVG Export Plug-In . SVG Version: 6.00 Build 0)  -->
<svg version="1.1" id="Layer_1" xmlns="http://www.w3.org/2000/svg" xmlns:xlink="http://www.w3.org/1999/xlink" x="0px" y="0px"
	 viewBox="0 0 2000 1004" style="enable-background:new 0 0 2000 1004;" xml:space="preserve">
<style type="text/css">
	.st0{fill:#FE6601;}
	.st1{fill:#FE6600;}
	.st2{fill:#FE761B;}
	.st3{fill:#FE7417;}
</style>
<g>
	<path class="st0" d="M985,1004c-8.6-1.6-17.3-3-25.9-4.8c-66.6-14.8-110.6-60.8-122-128.2c-2.4-14.4-4-29.1-4-43.7
		c-0.3-121-0.3-242,0-363c0.1-28.9,4-57.4,14.5-84.7c15.8-41.1,45.6-66.6,87.5-78.6c33.4-9.6,67.6-10.7,102-8.5
		c23.4,1.5,46.2,5.9,67.9,15.2c38.5,16.5,62.5,45.7,75,85.2c8.1,25.8,10.8,52.5,10.8,79.4c0.2,70,0.1,140,0.1,210c0,1.5,0,2.9,0,5
		c-80.7,0-160.9,0-241.4,0c-0.1,2.2-0.2,3.8-0.2,5.4c0,47.2-0.1,94.3,0,141.5c0,15.2,1.2,30.3,6.6,44.7
		c8.9,23.7,26.4,35.8,51.2,37.1c9.4,0.5,19.2-0.1,28.2-2.4c23.9-6,35.9-23.6,40.5-46.5c2.1-10.5,2.9-21.5,3.1-32.2
		c0.5-19.7,0.1-39.3,0-59c0-1.6,0-3.2,0-5.1c37.4,0,74.3,0,111.6,0c0.1,1.1,0.3,2,0.3,3c-0.3,24.8,0.3,49.7-1.1,74.5
		c-1.8,33.7-9.9,65.8-29.6,94c-21.2,30.4-51.1,47.4-86.5,55.9c-9.8,2.4-20,3.5-30,5.2c-0.9,0.2-1.8,0.6-2.7,0.9
		C1022.3,1004,1003.7,1004,985,1004z M1078.9,593.1c0-1.6,0-2.6,0-3.6c0-46.6,0.2-93.3-0.2-139.9c-0.1-11.6-1.4-23.3-3.9-34.6
		c-4.6-21.1-16.7-36.4-38.3-42.6c-12-3.5-24.4-3.7-36.6-1.9c-23.9,3.6-38.9,17.4-45.8,40.4c-4,13.2-4.9,26.8-4.9,40.5
		c-0.1,45.5,0,91,0,136.4c0,1.7,0,3.5,0,5.3C992.8,593.1,1035.6,593.1,1078.9,593.1z"/>
	<path class="st0" d="M588,1004c-7.6-1.3-15.2-2.6-22.8-4c-21.8-4.2-42.5-11.1-60.7-24.2c-24.7-17.9-38.1-42.7-43.4-72.1
		c-2.3-12.9-3.5-26.1-3.7-39.2c-0.5-29.5-0.2-59-0.2-88.5c0-1.1,0.1-2.3,0.2-3.7c39,0,77.8,0,117.2,0c0,2,0,3.9,0,5.9
		c0.1,29.8,0,59.7,0.3,89.5c0.1,6.4,1.1,13,2.7,19.2c4.4,17,15.8,27.3,33,30c9.4,1.5,19.3,1.9,28.8,0.6
		c20.1-2.7,31.4-14.6,35.7-35.1c4.2-19.9,3.6-40.1,3.1-60.2c-0.3-13.1-1.3-26.3-3.6-39.2c-3.3-19.1-14-34.6-28-47.4
		c-22.5-20.6-45.5-40.6-68.6-60.4c-27.7-23.7-54.4-48.2-75.6-78c-18.6-26.1-32.1-54.4-36.8-86.4c-3.6-24-2.9-48.2-1.9-72.3
		c0.9-21.4,4-42.4,11-62.7c13.5-39.6,40.2-65.6,80.8-75.7c53-13.1,106.1-12.8,157.8,6.3c37.4,13.8,63.2,39.6,72.1,79.6
		c2.1,9.5,3.3,19.4,3.4,29.2c0.4,34,0.2,68,0.2,102c0,1.1-0.1,2.3-0.2,3.6c-37.2,0-74.1,0-111.6,0c0-1.9,0-3.7,0-5.5
		c0-22.3,0.4-44.7-0.2-67c-0.3-12.3-1.3-24.7-3.8-36.7c-4.4-21.4-16.6-31.6-38.5-33.2c-6.7-0.5-13.7-0.1-20.4,1
		c-15.1,2.5-25.2,11.5-28.9,26.2c-2.6,10.4-4.3,21.3-4.5,32c-0.4,16.9-0.1,34,1.5,50.9c1.8,19.1,11.7,35.1,25.1,48.3
		c19.9,19.7,40.4,38.8,61.1,57.5c27.8,25.2,56.2,49.6,81.3,77.6c27.3,30.6,42,66.2,44.5,107.1c1.8,29.6,2.5,59.3-0.3,88.9
		c-2.3,23.8-7.5,47-18.4,68.5c-17,33.5-44.9,52.7-80.7,61.4c-9.8,2.4-20,3.5-30,5.3c-1.3,0.2-2.5,0.6-3.8,0.9
		C636.7,1004,612.3,1004,588,1004z"/>
	<path class="st1" d="M262,0c0.1,1.1,0.4,2.3,0.4,3.4c0,29,0,58,0,87c0,1.3-0.2,2.6-0.3,4.4c-6.6,0-13.1-0.5-19.5,0.1
		c-9.6,0.9-19.4,1.4-28.5,4.2c-18.8,5.6-27.8,20.2-31,38.7c-1.2,7.2-1.8,14.6-1.8,21.9c-0.2,45.3-0.1,90.7-0.1,136c0,1,0,2,0,3.7
		c27.1,0,53.9,0,81.1,0c0,31.1,0,61.6,0,92.4c-26.8,0-53.6,0-80.8,0c0,201.5,0,402.5,0,603.9c-38.7,0-76.9,0-115.6,0
		c0-201.1,0-402.2,0-603.8c-22.3,0-44.1,0-65.9,0c0-30.7,0-61.3,0-92c1.8-0.1,3.6-0.4,5.4-0.4c18.3,0,36.6,0,55,0
		c1.7,0,3.5-0.2,5.5-0.3c0-2.6,0-4.6,0-6.6c0-51,0-101.9,0-152.9c0-19.7,0.9-39.3,5.2-58.6c6.8-30.8,23.3-53.5,53.4-65.4
		C140.9,9.4,158,5.4,175.5,3c7.8-1.1,15.6-2,23.5-3C220,0,241,0,262,0z"/>
	<path class="st0" d="M2000,996c-41.8,0-83.6,0-125.8,0c0-42.4,0-84.8,0-127.7c2,0,4,0,5.9,0c38,0,76,0,113.9,0c2,0,4-0.2,6-0.3
		C2000,910.7,2000,953.3,2000,996z"/>
	<path class="st0" d="M1885.1,299.6c-1.9,12-3.7,23.5-5.5,34.9c-6.9,43.1-13.7,86.1-20.6,129.2c-6.9,43.1-13.7,86.1-20.6,129.2
		c-6.8,42.7-13.6,85.5-20.4,128.2c-7.2,45.2-14.4,90.4-21.6,135.6c-6.8,42.7-13.6,85.4-20.4,128.2c-1.8,11.3-1.6,11.3-12.9,11.3
		c-50.8,0-101.7,0-152.5,0.1c-3.9,0-5.3-0.9-5.9-5c-9-58.2-18.3-116.4-27.5-174.6c-8.5-53.9-16.9-107.9-25.4-161.8
		c-8.5-53.9-17.1-107.8-25.6-161.7c-7.5-47.7-14.9-95.4-22.4-143c-2.6-16.6-5.3-33.2-8-50.2c1.7-0.1,3.2-0.3,4.6-0.3
		c36.3,0,72.7,0.1,109-0.1c4.1,0,5.1,1.2,5.7,5.2c6.7,51.3,13.7,102.6,20.5,153.9c6.8,51.3,13.5,102.6,20.4,154
		c7.2,53.8,14.5,107.6,21.6,161.3c4.2,31.3,8.3,62.7,13.1,94.1c1.7-12.6,3.4-25.2,5.1-37.9c4.5-34,9-68,13.6-102
		c4.5-33.7,9-67.3,13.4-101c4.5-33.8,9-67.7,13.5-101.5c4.5-33.8,9-67.6,13.5-101.5c4.5-34,9.1-68,13.6-102c0.8-5.8,2-11.5,2.2-17.3
		c0.1-4.9,2.3-5.5,6.5-5.5c35.7,0.1,71.3,0.1,107,0.1C1881,299.6,1882.8,299.6,1885.1,299.6z"/>
	<path class="st0" d="M1240.5,299.7c35.2,0,70,0,105.3,0c0,23.3,0,46.3,0,70.2c6.1-10.8,11.5-20.9,17.4-30.6
		c13.9-22.6,32.9-38.9,59.8-43.7c13.3-2.4,26.9-3.3,40.8-4.9c0,42.1,0,82.9,0,123.6c-10.2,0.9-20.5,0.9-30.3,2.9
		c-11.8,2.4-23.8,5.3-34.7,10.3c-28,12.8-40.5,36.7-43.7,66.3c-0.8,7.6-1,15.3-1,23c-0.1,157.5,0,315,0,472.5c0,2.1,0,4.2,0,6.6
		c-38.1,0-75.7,0-113.6,0C1240.5,763.9,1240.5,532,1240.5,299.7z"/>
	<path class="st1" d="M299,299.6c38.5,0,76.6,0,115,0c0,232.1,0,464,0,696.1c-38.2,0-76.5,0-115,0C299,763.9,299,532,299,299.6z"/>
	<path class="st2" d="M1914.4,273.7c8.5-0.1,15.3,6.4,15.4,14.9c0.2,8.5-6.9,15.5-15.5,15.4c-8.4-0.1-15.2-6.8-15.2-15.2
		C1899.2,280.3,1905.9,273.7,1914.4,273.7z M1927.1,288.7c-0.1-7.1-5.6-12.6-12.7-12.5c-7.1,0.1-12.5,5.6-12.4,12.8
		c0,7.2,5.4,12.5,12.7,12.4C1921.9,301.3,1927.2,295.9,1927.1,288.7z"/>
	<path class="st3" d="M1909.3,280.1c1.8,0,3.6-0.3,5.1,0.1c2.2,0.6,5.1,1.2,6.2,2.9c0.8,1.3-1,4.1-1.1,6.2c-0.1,2.4,0.4,4.7,0.9,8.7
		c-2.9-3.2-5.1-5.6-7.8-8.5c-0.8,3.3-1.4,5.4-1.9,7.5c-0.5-0.1-0.9-0.2-1.4-0.2C1909.3,291.5,1909.3,286.2,1909.3,280.1z
		 M1912.2,282.5c-1.1,4.1-0.2,5.9,3,5.1c1.2-0.3,2-1.9,3-2.9C1916.3,284,1914.3,283.3,1912.2,282.5z"/>
</g>
</svg>
