<?xml version="1.0" encoding="utf-8"?>
<!-- Generator: Adobe Illustrator 24.3.0, SVG Export Plug-In . SVG Version: 6.00 Build 0)  -->
<svg version="1.1" id="Layer_1" xmlns="http://www.w3.org/2000/svg" xmlns:xlink="http://www.w3.org/1999/xlink" x="0px" y="0px"
	 viewBox="0 0 360 73.5" style="enable-background:new 0 0 360 73.5;" xml:space="preserve">
<style type="text/css">
	.st0{fill-rule:evenodd;clip-rule:evenodd;fill:#004B85;}
</style>
<g>
	<path class="st0" d="M33.2,11.8C30.9,23,28.9,34,26.6,48.6c-0.9,6.6-3.6,11.8-15,11.8C7.8,60.4,3.8,60,0,59.2l0.8-11.6
		c1.3,0.4,2.7,0.8,4,0.8c4,0,5.7-1.7,6.8-5.5c1.7-6.3,3.4-16.3,5.7-31.1H33.2L33.2,11.8z M35.5,0c-0.6,2.1-1.3,5.3-2.1,8.9H18.2
		c0.8-3,1.1-6.1,1.7-8.9H35.5L35.5,0z"/>
	<path class="st0" d="M58.1,22.8c-0.6,3.6-2.3,11-7.2,11c-2.5,0-3.2-2.5-2.8-4.6c0.6-4,4-6.8,7.8-6.8C56.6,22.4,57.3,22.6,58.1,22.8
		L58.1,22.8z M69.1,44.8c2.3-12.5,4.7-24.7,6.6-31.9C70.1,11.8,64.6,11,57.2,11c-13.5,0-23,7.6-24.9,19.2C31.1,38.4,35.1,45,43.7,45
		c3.6,0,7.2-1.3,10.4-3.2c-0.2,1.1-0.4,2.1-0.8,3H69.1L69.1,44.8z"/>
	<path class="st0" d="M100.3,44.2c-3.6,0.9-7.2,1.3-10.6,1.3c-15,0-15.8-10.4-14.8-16.5c1.7-10.8,8.4-18,21.8-18
		c3.6,0,7.2,0.4,10.6,1.1l-1.1,12c-2.5-0.9-4.9-1.7-7.8-1.7c-4,0-6.8,1.9-7.4,6.1c-0.8,3.8,1.1,5.5,4.9,5.5c2.5,0,5.5-0.8,8.2-1.7
		L100.3,44.2L100.3,44.2z"/>
	<path class="st0" d="M104.4,44.8c3.8-14.6,6.6-29.2,9.1-44.1h15.8c-3.6,14.6-6.6,29.2-8.9,44.1H104.4L104.4,44.8z M135.2,11.8h17.3
		l-12,14.4l6.1,18.6h-16.9l-4.9-18.6L135.2,11.8L135.2,11.8z"/>
	<path class="st0" d="M185.7,0.8c-1.1,4.9-2.5,9.9-3.2,14.4c2.1-1.5,6.3-4.2,12.7-4.2c8.9,0,11.4,4.2,10.6,9.5
		c-0.6,2.7-3.2,14.2-4.9,24.3h-15.9c1.1-5.1,2.5-10.1,3.2-15c0.4-2.3,0.9-6.5-2.3-6.5c-3.2,0-4.9,3.6-5.9,6.3
		c-1.7,4.9-2.5,10.1-3.6,15.2h-16.3c3.6-13.7,6.5-26.4,9.3-44.1H185.7L185.7,0.8z"/>
	<path class="st0" d="M222.3,24.7c0.6-2.3,2.1-4.7,4.7-4.7c2.3,0,3,1.5,2.7,3.4l-0.2,1.3H222.3L222.3,24.7z M242.8,30.6
		c0.6-1.7,1.1-3.4,1.3-4.9c1.7-11-5.9-14.6-15.6-14.6c-17.7,0-22,12.9-22.8,18.6c-2.7,15.9,12.9,15.9,18.2,15.9
		c4,0,8.2-0.4,12.3-1.1L240,33c-4,1.1-8.4,2.3-12.3,2.3c-3.2,0-7.2-0.4-6.6-4.7H242.8L242.8,30.6z"/>
	<path class="st0" d="M264.1,15.2c2.1-1.5,6.3-4.2,12.7-4.2c8.9,0,11.4,4.2,10.6,9.7c-0.6,2.7-3.2,14.2-4.9,24.1h-15.9
		c1.1-4.9,2.5-9.9,3.2-14.8c0.4-2.5,0.9-6.5-2.3-6.5c-3.2,0-4.9,3.4-5.9,6.1c-1.7,4.9-2.5,10.1-3.6,15.2h-16.3c3.2-11,5.5-22,7.4-33
		h15.9L264.1,15.2L264.1,15.2z"/>
	<path class="st0" d="M305.3,14.8c2.7-2.3,5.1-3.8,8.5-3.8c0.8,0,1.5,0,2.3,0.2l-1.5,13.1c-0.9-0.2-2.1-0.4-3.2-0.4
		c-3.6,0-6.5,1.7-8,5.1c-1.3,2.7-2.3,8-2.7,10.8c-0.4,1.7-0.6,3.2-0.6,4.9h-15.9c2.1-8.7,4-16.5,6.6-33h15L305.3,14.8L305.3,14.8z"
		/>
	<path class="st0" d="M334.2,11.8h-15.6l5.5,33.4c-0.8,3.4-3.8,4.7-6.6,4.7c-2.3,0-4.6-0.8-6.3-2.1L311,59.2
		c2.8,0.8,5.9,1.1,8.9,1.1c6.1,0,12.5-1.3,17.5-9.9L360,11.8h-15.2l-9.7,20.1L334.2,11.8L334.2,11.8z"/>
	<path class="st0" d="M45.6,58.5c-0.9-1.5-2.1-3.4-2.1-5.1c0-1.9,0.9-3.4,2.8-3.4c1.7,0,2.8,1.3,2.8,3
		C49.2,55.4,47.5,57.2,45.6,58.5L45.6,58.5z M53,67.8c1.7-2.1,3.2-4.2,4.6-6.5c-0.4-0.4-0.9-0.9-1.1-1.5c-1.1,2.3-2.8,4.9-4.2,7
		l-1.7-2.1c-1.5-1.7-2.8-3.8-4.4-5.5c2.3-1.5,4.7-3.4,4.7-6.5c0-2.5-2.1-3.8-4.6-3.8c-3,0-5.3,2.1-5.3,5.3c0,2.1,1.3,3.8,2.3,5.5
		L43.1,60c-3.2,1.5-5.9,4-5.9,7.4c0,3.8,2.7,6.1,6.5,6.1c2.8,0,5.5-1.3,7.4-3.6c0.8,0.9,1.5,2.1,2.1,3c0.8,0,1.3,0,2.1,0
		c0.6,0,1.3,0,2.1,0L53,67.8L53,67.8z M43.9,60.8c2.1,2.8,4.4,5.7,6.5,8.4c-0.4,0.6-2.7,2.7-5.3,2.7c-2.8,0-5.1-2.1-5.1-5.1
		c0-2.7,1.7-4.4,3.8-5.7C43.7,60.8,43.9,60.8,43.9,60.8L43.9,60.8z"/>
	<path class="st0" d="M78.8,61.9h-7.6l3.8-9.1L78.8,61.9L78.8,61.9z M76.3,48h-0.9L64.7,73.1c0.4-0.2,0.8-0.2,1.3-0.2
		c0.4,0,0.8,0,1.1,0.2c0.9-3.4,2.3-6.6,3.4-9.7h8.7c1.3,3.2,2.7,6.6,3.6,9.7c0.6-0.2,1.1-0.2,1.7-0.2c0.6,0,1.1,0,1.9,0.2L76.3,48
		L76.3,48z"/>
	<path class="st0" d="M88.3,68.2c1.3,2.3,2.8,3.8,5.5,3.8c2.8,0,4.7-2.5,4.7-5.3c0-6.6-10.6-3.6-10.6-11.8c0-4.6,3.4-6.8,7.6-6.8
		c1.5,0,3.6,0.6,4.9,1.7c-0.6,0.9-0.8,1.9-0.9,3h-0.4c-0.8-1.9-2.3-3.2-4.4-3.2c-2.3,0-4.2,1.7-4.2,4.2c0,6.6,10.8,4,10.8,11.6
		c0,5.1-3.8,8.2-8.5,8.2c-1.7,0-4.4-0.8-5.5-2.1c0.2-1.1,0.4-2.1,0.6-3.2H88.3L88.3,68.2z"/>
	<path class="st0" d="M103.3,68.2c1.3,2.3,2.8,3.8,5.5,3.8c2.8,0,4.9-2.5,4.9-5.3c0-6.6-10.8-3.6-10.8-11.8c0-4.6,3.4-6.8,7.6-6.8
		c1.7,0,3.6,0.6,4.9,1.7c-0.4,0.9-0.8,1.9-0.9,3h-0.4c-0.8-1.9-2.1-3.2-4.2-3.2c-2.5,0-4.4,1.7-4.4,4.2c0,6.6,10.8,4,10.8,11.6
		c0,5.1-3.8,8.2-8.5,8.2c-1.5,0-4.4-0.8-5.5-2.1c0.4-1.1,0.6-2.1,0.6-3.2H103.3L103.3,68.2z"/>
	<path class="st0" d="M140.3,60.6c0.2,4-2.5,11.8-9.7,11.8c-5.1,0-9.3-3.8-9.3-11c0-7.4,3.6-12.2,9.7-12.2c2.7,0,5.5,1.3,7.2,3.6
		C139.9,55.1,140.3,57.5,140.3,60.6L140.3,60.6z M130.6,73.5c7.6,0,13.1-5.3,13.1-13.1c0-8.7-6.6-12.3-13.1-12.3
		c-7,0-12.7,4.9-12.7,12.7C117.9,68.5,123,73.5,130.6,73.5L130.6,73.5z"/>
	<path class="st0" d="M164.6,71.4c-2.1,1.5-4.9,2.1-7.6,2.1c-7.4,0-12-4.9-12-12.7c0-8.2,5.7-12.7,12.9-12.7c2.5,0,5.1,0.6,7.4,1.7
		c-0.4,0.9-0.6,1.9-0.8,2.7l-0.2,0.2c-0.6-0.8-3-3.2-6.6-3.2c-6.3,0-9.3,5.3-9.3,11.4c0,6.8,3.6,11.2,9.1,11.2
		c3.6,0,6.6-2.3,7.2-2.8L164.6,71.4L164.6,71.4z"/>
	<path class="st0" d="M167.8,48.6c0.4,0,0.9,0.2,1.5,0.2c0.4,0,0.9-0.2,1.5-0.2v24.5c-0.6-0.2-1.1-0.2-1.5-0.2c-0.6,0-1.1,0-1.5,0.2
		V48.6L167.8,48.6z"/>
	<path class="st0" d="M187.2,61.9h-7.4l3.6-9.1L187.2,61.9L187.2,61.9z M184.7,48H184l-10.8,25.1c0.4-0.2,0.8-0.2,1.3-0.2
		c0.4,0,0.8,0,1.1,0.2c0.9-3.4,2.3-6.6,3.4-9.7h8.7c1.3,3.2,2.7,6.6,3.6,9.7c0.6-0.2,1.1-0.2,1.9-0.2c0.6,0,1.1,0,1.7,0.2L184.7,48
		L184.7,48z"/>
	<path class="st0" d="M201.5,73.1c-0.6,0-0.9-0.2-1.5-0.2s-0.9,0.2-1.5,0.2V50.3c-3.4,0-5.5,0.2-7.4,0.4c0-0.2,0-0.6,0-0.9
		c0-0.4,0-0.8,0-1.1h17.7c0,0.4-0.2,0.8-0.2,1.1c0,0.4,0.2,0.8,0.2,0.9c-1.7-0.2-4.2-0.4-7.2-0.4V73.1L201.5,73.1z"/>
	<path class="st0" d="M213.2,59.2h5.3c1.1,0,2.1-0.2,3.2-0.2c-0.2,0.4-0.2,0.6-0.2,0.9c0,0.4,0,0.6,0.2,0.9c-1.1,0-2.1-0.2-3.2-0.2
		h-5.3v10.4c2.3,0.2,4.2,0,6.3-0.2c1.1,0,2.1,0,3.2-0.2c0,0.4-0.2,0.6-0.2,0.9c0,0.4,0.2,0.8,0.2,1.1h-12.3V48.6h12.2
		c-0.2,0.4-0.2,0.8-0.2,1.1c0,0.4,0,0.8,0.2,0.9c-1.1-0.2-2.1-0.2-3.2-0.4h-3.4h-2.7V59.2L213.2,59.2z"/>
	<path class="st0" d="M224.8,68.2c1.3,2.3,2.8,3.8,5.7,3.8c2.7,0,4.7-2.5,4.7-5.3c0-6.6-10.8-3.6-10.8-11.8c0-4.6,3.6-6.8,7.6-6.8
		c1.7,0,3.6,0.6,4.9,1.7c-0.4,0.9-0.6,1.9-0.9,3h-0.4c-0.6-1.9-2.1-3.2-4.2-3.2c-2.3,0-4.4,1.7-4.4,4.2c0,6.6,10.8,4,10.8,11.6
		c0,5.1-3.8,8.2-8.5,8.2c-1.5,0-4.4-0.8-5.5-2.1c0.4-1.1,0.6-2.1,0.8-3.2H224.8L224.8,68.2z"/>
	<path class="st0" d="M248.2,48.6c0.4,0,0.9,0.2,1.5,0.2c0.4,0,0.9-0.2,1.5-0.2v24.5c-0.6-0.2-1.1-0.2-1.5-0.2c-0.6,0-1.1,0-1.5,0.2
		V48.6L248.2,48.6z"/>
	<path class="st0" d="M274.9,73.1H274c-0.4-0.6-1.1-1.5-1.9-2.3l-14.8-17.1h-0.2v19.4c-0.4-0.2-0.8-0.2-0.9-0.2
		c-0.4,0-0.8,0-1.1,0.2V48.6h1.5L272.7,67h0.4V48.6c0.4,0,0.6,0.2,0.9,0.2c0.4,0,0.6-0.2,0.9-0.2V73.1L274.9,73.1z"/>
	<path class="st0" d="M297.2,71.4c-2.1,1.5-4.9,2.1-7.6,2.1c-7.4,0-12-4.9-12-12.7c0-8.2,5.7-12.7,12.9-12.7c2.5,0,5.1,0.6,7.4,1.7
		c-0.4,0.9-0.6,1.9-0.8,2.7l-0.2,0.2c-0.6-0.8-3-3.2-6.6-3.2c-6.3,0-9.3,5.3-9.3,11.4c0,6.8,3.6,11.2,9.1,11.2
		c3.6,0,6.6-2.3,7.2-2.8L297.2,71.4L297.2,71.4z"/>
	<path class="st0" d="M301.1,69.1c1.1,0,2.1,1,2.1,2.1c0,1.1-1,2.1-2.1,2.1c-1.1,0-2.1-0.9-2.1-2.1C299.1,70.1,300,69.1,301.1,69.1
		L301.1,69.1z"/>
</g>
</svg>
