<?xml version="1.0" encoding="UTF-8"?>
<svg width="291px" height="69px" viewBox="0 0 291 69" version="1.1" xmlns="http://www.w3.org/2000/svg" xmlns:xlink="http://www.w3.org/1999/xlink">
    <title>Logo / Lenders / Software / Insights / Light</title>
    <g id="Brand-Taxonomy" stroke="none" stroke-width="1" fill="none" fill-rule="evenodd">
        <g id="Product-Logos---B4L" transform="translate(-867.000000, -368.000000)">
            <g id="Group" transform="translate(867.000000, 368.000000)">
                <g transform="translate(0.000000, 10.662500)" fill="#CF392B" id="logo/brandmark/red-copy">
                    <path d="M32.7918519,30.9676652 L20,23.2372335 L7.20814815,30.9676652 L7.20814815,18.9451982 L20,11.2207753 L32.7918519,18.9515947 L32.7918519,30.9676652 Z M20,2.5085815 L7.20814815,10.239207 L7.20814815,0 L0,0 L0,43.9209163 L0.19,43.9209163 L20,31.9494273 L39.8037037,43.9209163 L40,43.9209163 L40,14.5954009 L20,2.5085815 L20,2.5085815 Z" id="Fill-1"></path>
                </g>
                <path d="M54.5,0 C55.2796961,0 55.9204487,0.594888083 55.9931334,1.35553999 L56,1.5 L56,66.825 C56,67.6534271 55.3284271,68.325 54.5,68.325 C53.7203039,68.325 53.0795513,67.7301119 53.0068666,66.96946 L53,66.825 L53,1.5 C53,0.671572875 53.6715729,0 54.5,0 Z" id="Line-2" fill="#9DC7E0" fill-rule="nonzero"></path>
                <path d="M73.724,33.6625 L73.724,15.1405 L69.809,15.1405 L69.809,33.6625 L73.724,33.6625 Z M81.122,33.6625 L81.122,25.4545 C81.122,24.5905 81.3965,23.866 81.9455,23.281 C82.4945,22.696 83.183,22.4035 84.011,22.4035 C84.821,22.4035 85.433,22.6015 85.847,22.9975 C86.261,23.3935 86.468,24.0325 86.468,24.9145 L86.468,24.9145 L86.468,33.6625 L90.167,33.6625 L90.167,24.1315 C90.167,22.3855 89.7485,21.1165 88.9115,20.3245 C88.0745,19.5325 86.927,19.1365 85.469,19.1365 C83.669,19.1365 82.193,19.8655 81.041,21.3235 L81.041,21.3235 L80.852,21.3235 L80.582,19.4605 L77.423,19.4605 L77.423,33.6625 L81.122,33.6625 Z M99.59,33.9865 C103.928,33.9865 106.097,32.4565 106.097,29.3965 C106.097,28.3525 105.818,27.5245 105.26,26.9125 C104.702,26.3005 104.045,25.8595 103.289,25.5895 C102.533,25.3195 101.552,25.0495 100.346,24.7795 C99.248,24.5635 98.4515,24.3475 97.9565,24.1315 C97.4615,23.9155 97.214,23.5825 97.214,23.1325 C97.214,22.7725 97.43,22.4935 97.862,22.2955 C98.294,22.0975 98.879,21.9985 99.617,21.9985 C100.355,21.9985 100.9445,22.1245 101.3855,22.3765 C101.8265,22.6285 102.047,22.9885 102.047,23.4565 L102.047,23.4565 L102.047,23.6185 L105.638,23.6185 L105.665,22.9975 C105.665,21.8095 105.107,20.869 103.991,20.176 C102.875,19.483 101.462,19.1365 99.752,19.1365 C97.916,19.1365 96.4175,19.51 95.2565,20.257 C94.0955,21.004 93.515,22.0705 93.515,23.4565 C93.515,24.4465 93.785,25.2385 94.325,25.8325 C94.865,26.4265 95.504,26.863 96.242,27.142 C96.98,27.421 97.934,27.6955 99.104,27.9655 C100.238,28.2175 101.0705,28.4695 101.6015,28.7215 C102.1325,28.9735 102.398,29.3515 102.398,29.8555 C102.398,30.3055 102.137,30.6295 101.615,30.8275 C101.093,31.0255 100.463,31.1245 99.725,31.1245 C98.933,31.1245 98.2625,30.985 97.7135,30.706 C97.1645,30.427 96.881,29.9725 96.863,29.3425 L96.863,29.3425 L96.863,29.1535 L93.272,29.1535 L93.245,29.4775 C93.245,30.8455 93.8075,31.939 94.9325,32.758 C96.0575,33.577 97.61,33.9865 99.59,33.9865 Z M112.604,17.6515 L112.604,14.1415 L108.905,14.1415 L108.905,17.6515 L112.604,17.6515 Z M112.604,33.6625 L112.604,19.4605 L108.905,19.4605 L108.905,33.6625 L112.604,33.6625 Z M125.429,38.5765 C126.401,38.5765 127.292,38.3965 128.102,38.0365 C128.912,37.6765 129.551,37.1635 130.019,36.4975 C130.487,35.8315 130.721,35.0665 130.721,34.2025 C130.721,33.0685 130.37,32.1505 129.668,31.4485 C128.966,30.7465 128.093,30.3955 127.049,30.3955 L127.049,30.3955 L120.596,30.3955 C120.326,30.3955 120.11,30.319 119.948,30.166 C119.786,30.013 119.705,29.8285 119.705,29.6125 C119.705,29.3605 119.7995,29.1625 119.9885,29.0185 C120.1775,28.8745 120.434,28.8025 120.758,28.8025 L120.758,28.8025 L122.918,28.8025 C124.88,28.8025 126.3875,28.3705 127.4405,27.5065 C128.4935,26.6425 129.02,25.4635 129.02,23.9695 C129.02,22.6375 128.57,21.5485 127.67,20.7025 C128.642,20.4865 129.3935,20.077 129.9245,19.474 C130.4555,18.871 130.721,18.0745 130.721,17.0845 L130.721,17.0845 L127.103,17.0845 C127.103,17.4265 126.9815,17.836 126.7385,18.313 C126.4955,18.79 126.104,19.1995 125.564,19.5415 C124.754,19.2715 123.8,19.1365 122.702,19.1365 C120.686,19.1365 119.1335,19.5685 118.0445,20.4325 C116.9555,21.2965 116.411,22.4755 116.411,23.9695 C116.411,25.6795 117.104,26.9575 118.49,27.8035 C117.752,27.9835 117.149,28.294 116.681,28.735 C116.213,29.176 115.979,29.6935 115.979,30.2875 C115.979,31.2415 116.438,31.9525 117.356,32.4205 C115.898,33.0865 115.169,34.0495 115.169,35.3095 C115.169,36.2635 115.511,37.0465 116.195,37.6585 C116.879,38.2705 117.716,38.5765 118.706,38.5765 L118.706,38.5765 L125.429,38.5765 Z M122.702,26.2915 C121.838,26.2915 121.1855,26.089 120.7445,25.684 C120.3035,25.279 120.083,24.7075 120.083,23.9695 C120.083,23.2315 120.3035,22.66 120.7445,22.255 C121.1855,21.85 121.838,21.6475 122.702,21.6475 C123.566,21.6475 124.223,21.85 124.673,22.255 C125.123,22.66 125.348,23.2315 125.348,23.9695 C125.348,24.7075 125.123,25.279 124.673,25.684 C124.223,26.089 123.566,26.2915 122.702,26.2915 Z M125.375,36.0115 L120.326,36.0115 C119.912,36.0115 119.57,35.8945 119.3,35.6605 C119.03,35.4265 118.895,35.1205 118.895,34.7425 C118.895,34.3825 119.0345,34.0855 119.3135,33.8515 C119.5925,33.6175 119.93,33.5005 120.326,33.5005 L120.326,33.5005 L125.537,33.5005 C125.951,33.5005 126.2975,33.6085 126.5765,33.8245 C126.8555,34.0405 126.995,34.3465 126.995,34.7425 C126.995,35.1205 126.842,35.4265 126.536,35.6605 C126.23,35.8945 125.843,36.0115 125.375,36.0115 L125.375,36.0115 Z M136.634,33.6625 L136.634,25.4545 C136.634,24.5905 136.9085,23.866 137.4575,23.281 C138.0065,22.696 138.695,22.4035 139.523,22.4035 C140.333,22.4035 140.945,22.6015 141.359,22.9975 C141.773,23.3935 141.98,24.0325 141.98,24.9145 L141.98,24.9145 L141.98,33.6625 L145.679,33.6625 L145.679,24.1315 C145.679,22.3855 145.2605,21.1165 144.4235,20.3245 C143.5865,19.5325 142.439,19.1365 140.981,19.1365 C139.289,19.1365 137.903,19.7935 136.823,21.1075 L136.823,21.1075 L136.634,21.1075 L136.634,14.1415 L132.935,14.1415 L132.935,33.6625 L136.634,33.6625 Z M153.239,33.9865 C153.635,33.9865 154.0625,33.9415 154.5215,33.8515 C154.9805,33.7615 155.363,33.6625 155.669,33.5545 L155.669,33.5545 L155.669,30.9625 L154.373,30.9625 C153.599,30.9625 153.212,30.5755 153.212,29.8015 L153.212,29.8015 L153.212,22.4845 L155.669,22.4845 L155.669,19.4605 L153.212,19.4605 L153.212,15.4645 L150.215,15.4645 L149.594,19.4605 L147.812,19.4605 L147.812,22.4845 L149.513,22.4845 L149.513,30.1795 C149.513,31.2775 149.801,32.1865 150.377,32.9065 C150.953,33.6265 151.907,33.9865 153.239,33.9865 Z M164.093,33.9865 C168.431,33.9865 170.6,32.4565 170.6,29.3965 C170.6,28.3525 170.321,27.5245 169.763,26.9125 C169.205,26.3005 168.548,25.8595 167.792,25.5895 C167.036,25.3195 166.055,25.0495 164.849,24.7795 C163.751,24.5635 162.9545,24.3475 162.4595,24.1315 C161.9645,23.9155 161.717,23.5825 161.717,23.1325 C161.717,22.7725 161.933,22.4935 162.365,22.2955 C162.797,22.0975 163.382,21.9985 164.12,21.9985 C164.858,21.9985 165.4475,22.1245 165.8885,22.3765 C166.3295,22.6285 166.55,22.9885 166.55,23.4565 L166.55,23.4565 L166.55,23.6185 L170.141,23.6185 L170.168,22.9975 C170.168,21.8095 169.61,20.869 168.494,20.176 C167.378,19.483 165.965,19.1365 164.255,19.1365 C162.419,19.1365 160.9205,19.51 159.7595,20.257 C158.5985,21.004 158.018,22.0705 158.018,23.4565 C158.018,24.4465 158.288,25.2385 158.828,25.8325 C159.368,26.4265 160.007,26.863 160.745,27.142 C161.483,27.421 162.437,27.6955 163.607,27.9655 C164.741,28.2175 165.5735,28.4695 166.1045,28.7215 C166.6355,28.9735 166.901,29.3515 166.901,29.8555 C166.901,30.3055 166.64,30.6295 166.118,30.8275 C165.596,31.0255 164.966,31.1245 164.228,31.1245 C163.436,31.1245 162.7655,30.985 162.2165,30.706 C161.6675,30.427 161.384,29.9725 161.366,29.3425 L161.366,29.3425 L161.366,29.1535 L157.775,29.1535 L157.748,29.4775 C157.748,30.8455 158.3105,31.939 159.4355,32.758 C160.5605,33.577 162.113,33.9865 164.093,33.9865 Z" id="Insights" fill="#ECF4F9" fill-rule="nonzero"></path>
                <path d="M73.61,54.8665 C75.1513333,54.8665 76.3668333,54.5718333 77.2565,53.9825 C78.1461667,53.3931667 78.591,52.4751667 78.591,51.2285 C78.591,50.4578333 78.3756667,49.8345 77.945,49.3585 C77.5143333,48.8825 77.0015,48.5226667 76.4065,48.279 C75.8115,48.0353333 75.0493333,47.7888333 74.12,47.5395 C73.4966667,47.3695 73.015,47.225 72.675,47.106 C72.335,46.987 72.0516667,46.834 71.825,46.647 C71.5983333,46.46 71.485,46.2361667 71.485,45.9755 C71.485,45.6355 71.6748333,45.3691667 72.0545,45.1765 C72.4341667,44.9838333 72.981,44.8875 73.695,44.8875 C74.3636667,44.8875 74.8935,45.0121667 75.2845,45.2615 C75.6755,45.5108333 75.871,45.8508333 75.871,46.2815 L75.871,46.2815 L75.871,46.4345 L78.319,46.4345 L78.319,46.2305 C78.319,45.0858333 77.8911667,44.2273333 77.0355,43.655 C76.1798333,43.0826667 75.0776667,42.7965 73.729,42.7965 C72.301,42.7965 71.1563333,43.0741667 70.295,43.6295 C69.4336667,44.1848333 69.003,44.9951667 69.003,46.0605 C69.003,46.8311667 69.207,47.4516667 69.615,47.922 C70.023,48.3923333 70.5103333,48.7465 71.077,48.9845 C71.6436667,49.2225 72.386,49.4718333 73.304,49.7325 C73.95,49.9138333 74.4571667,50.0696667 74.8255,50.2 C75.1938333,50.3303333 75.4998333,50.506 75.7435,50.727 C75.9871667,50.948 76.109,51.2228333 76.109,51.5515 C76.109,51.9255 75.922,52.223 75.548,52.444 C75.174,52.665 74.5676667,52.7755 73.729,52.7755 C72.9356667,52.7755 72.318,52.6281667 71.876,52.3335 C71.434,52.0388333 71.213,51.6421667 71.213,51.1435 L71.213,51.1435 L71.23,50.8715 L68.731,50.8715 L68.714,51.2455 C68.714,52.0161667 68.935,52.6735 69.377,53.2175 C69.819,53.7615 70.4111667,54.1723333 71.1535,54.45 C71.8958333,54.7276667 72.7146667,54.8665 73.61,54.8665 Z M85.952,54.8665 C87.8333333,54.8665 89.2896667,54.365 90.321,53.362 C91.3523333,52.359 91.868,50.8488333 91.868,48.8315 C91.868,46.8141667 91.3523333,45.304 90.321,44.301 C89.2896667,43.298 87.8333333,42.7965 85.952,42.7965 C84.082,42.7965 82.6313333,43.298 81.6,44.301 C80.5686667,45.304 80.053,46.8141667 80.053,48.8315 C80.053,50.8488333 80.5686667,52.359 81.6,53.362 C82.6313333,54.365 84.082,54.8665 85.952,54.8665 Z M85.952,52.7755 C84.8413333,52.7755 84.0026667,52.4553333 83.436,51.815 C82.8693333,51.1746667 82.586,50.2651667 82.586,49.0865 L82.586,49.0865 L82.586,48.5765 C82.586,47.3978333 82.8693333,46.4883333 83.436,45.848 C84.0026667,45.2076667 84.8413333,44.8875 85.952,44.8875 C87.0626667,44.8875 87.9041667,45.2076667 88.4765,45.848 C89.0488333,46.4883333 89.335,47.3978333 89.335,48.5765 L89.335,48.5765 L89.335,49.0865 C89.335,50.2651667 89.0488333,51.1746667 88.4765,51.815 C87.9041667,52.4553333 87.0626667,52.7755 85.952,52.7755 Z M96.169,54.6625 L96.169,50.0555 L101.524,50.0555 L101.524,47.9645 L96.169,47.9645 L96.169,45.0915 L102.153,45.0915 L102.153,43.0005 L93.704,43.0005 L93.704,54.6625 L96.169,54.6625 Z M109.378,54.6625 L109.378,45.1255 L112.982,45.1255 L112.982,43.0005 L103.309,43.0005 L103.309,45.1255 L106.913,45.1255 L106.913,54.6625 L109.378,54.6625 Z M119.136,54.6625 L121.023,47.2335 C121.102333,46.9161667 121.198667,46.3665 121.312,45.5845 L121.312,45.5845 L121.38,45.5845 C121.470667,46.3098333 121.567,46.8595 121.669,47.2335 L121.669,47.2335 L123.59,54.6625 L126.259,54.6625 L129.353,43.0005 L127.075,43.0005 L125.341,50.1745 C125.250333,50.5371667 125.159667,51.0811667 125.069,51.8065 L125.069,51.8065 L124.984,51.8065 C124.870667,51.0131667 124.78,50.4691667 124.712,50.1745 L124.712,50.1745 L123.012,43.0005 L120.037,43.0005 L118.32,50.1745 C118.240667,50.4918333 118.15,51.0358333 118.048,51.8065 L118.048,51.8065 L117.963,51.8065 C117.861,51.0358333 117.770333,50.4918333 117.691,50.1745 L117.691,50.1745 L116.008,43.0005 L113.373,43.0005 L116.467,54.6625 L119.136,54.6625 Z M131.036,54.6625 L131.869,52.4355 L137.173,52.4355 L138.006,54.6625 L140.692,54.6625 L136.136,43.0005 L133.042,43.0005 L128.486,54.6625 L131.036,54.6625 Z M136.391,50.3785 L132.634,50.3785 L133.739,47.4205 C133.875,47.0578333 134.118667,46.2928333 134.47,45.1255 L134.47,45.1255 L134.555,45.1255 C134.906333,46.2928333 135.15,47.0578333 135.286,47.4205 L135.286,47.4205 L136.391,50.3785 Z M144.33,54.6625 L144.33,50.3105 L147.594,50.3105 L149.651,54.6625 L152.32,54.6625 L149.94,49.9195 C151.3,49.3755 151.98,48.2875 151.98,46.6555 C151.98,45.4995 151.651333,44.6013333 150.994,43.961 C150.336667,43.3206667 149.356333,43.0005 148.053,43.0005 L148.053,43.0005 L141.865,43.0005 L141.865,54.6625 L144.33,54.6625 Z M147.832,48.2535 L144.33,48.2535 L144.33,45.0915 L147.832,45.0915 C148.364667,45.0915 148.772667,45.2275 149.056,45.4995 C149.339333,45.7715 149.481,46.1568333 149.481,46.6555 C149.481,47.1541667 149.339333,47.5451667 149.056,47.8285 C148.772667,48.1118333 148.364667,48.2535 147.832,48.2535 L147.832,48.2535 Z M163.404,54.6625 L163.404,52.5715 L156.604,52.5715 L156.604,49.7495 L162.554,49.7495 L162.554,47.6585 L156.604,47.6585 L156.604,45.0915 L163.302,45.0915 L163.302,43.0005 L154.139,43.0005 L154.139,54.6625 L163.404,54.6625 Z M172.669,54.6625 L172.669,50.0555 L178.024,50.0555 L178.024,47.9645 L172.669,47.9645 L172.669,45.0915 L178.653,45.0915 L178.653,43.0005 L170.204,43.0005 L170.204,54.6625 L172.669,54.6625 Z M186.065,54.8665 C187.946333,54.8665 189.402667,54.365 190.434,53.362 C191.465333,52.359 191.981,50.8488333 191.981,48.8315 C191.981,46.8141667 191.465333,45.304 190.434,44.301 C189.402667,43.298 187.946333,42.7965 186.065,42.7965 C184.195,42.7965 182.744333,43.298 181.713,44.301 C180.681667,45.304 180.166,46.8141667 180.166,48.8315 C180.166,50.8488333 180.681667,52.359 181.713,53.362 C182.744333,54.365 184.195,54.8665 186.065,54.8665 Z M186.065,52.7755 C184.954333,52.7755 184.115667,52.4553333 183.549,51.815 C182.982333,51.1746667 182.699,50.2651667 182.699,49.0865 L182.699,49.0865 L182.699,48.5765 C182.699,47.3978333 182.982333,46.4883333 183.549,45.848 C184.115667,45.2076667 184.954333,44.8875 186.065,44.8875 C187.175667,44.8875 188.017167,45.2076667 188.5895,45.848 C189.161833,46.4883333 189.448,47.3978333 189.448,48.5765 L189.448,48.5765 L189.448,49.0865 C189.448,50.2651667 189.161833,51.1746667 188.5895,51.815 C188.017167,52.4553333 187.175667,52.7755 186.065,52.7755 Z M196.282,54.6625 L196.282,50.3105 L199.546,50.3105 L201.603,54.6625 L204.272,54.6625 L201.892,49.9195 C203.252,49.3755 203.932,48.2875 203.932,46.6555 C203.932,45.4995 203.603333,44.6013333 202.946,43.961 C202.288667,43.3206667 201.308333,43.0005 200.005,43.0005 L200.005,43.0005 L193.817,43.0005 L193.817,54.6625 L196.282,54.6625 Z M199.784,48.2535 L196.282,48.2535 L196.282,45.0915 L199.784,45.0915 C200.316667,45.0915 200.724667,45.2275 201.008,45.4995 C201.291333,45.7715 201.433,46.1568333 201.433,46.6555 C201.433,47.1541667 201.291333,47.5451667 201.008,47.8285 C200.724667,48.1118333 200.316667,48.2535 199.784,48.2535 L199.784,48.2535 Z M219.572,54.6625 L219.572,52.5205 L213.282,52.5205 L213.282,43.0005 L210.817,43.0005 L210.817,54.6625 L219.572,54.6625 Z M230.469,54.6625 L230.469,52.5715 L223.669,52.5715 L223.669,49.7495 L229.619,49.7495 L229.619,47.6585 L223.669,47.6585 L223.669,45.0915 L230.367,45.0915 L230.367,43.0005 L221.204,43.0005 L221.204,54.6625 L230.469,54.6625 Z M234.94,54.6625 L234.94,48.2195 C234.94,48.0268333 234.923,47.6868333 234.889,47.1995 L234.889,47.1995 L234.974,47.1485 C235.200667,47.5905 235.421667,47.9645 235.637,48.2705 L235.637,48.2705 L240.142,54.6625 L242.539,54.6625 L242.539,43.0005 L240.142,43.0005 L240.142,49.4435 L240.193,50.4295 L240.108,50.4805 C239.790667,49.9138333 239.564,49.5341667 239.428,49.3415 L239.428,49.3415 L234.94,43.0005 L232.543,43.0005 L232.543,54.6625 L234.94,54.6625 Z M249.645,54.6625 C251.424333,54.6625 252.7985,54.178 253.7675,53.209 C254.7365,52.24 255.221,50.7808333 255.221,48.8315 C255.221,46.8821667 254.7365,45.423 253.7675,44.454 C252.7985,43.485 251.424333,43.0005 249.645,43.0005 L249.645,43.0005 L244.817,43.0005 L244.817,54.6625 L249.645,54.6625 Z M249.645,52.5715 L247.282,52.5715 L247.282,45.0915 L249.645,45.0915 C250.642333,45.0915 251.398833,45.3946667 251.9145,46.001 C252.430167,46.6073333 252.688,47.4658333 252.688,48.5765 L252.688,48.5765 L252.688,49.0865 C252.688,50.1971667 252.430167,51.0556667 251.9145,51.662 C251.398833,52.2683333 250.642333,52.5715 249.645,52.5715 L249.645,52.5715 Z M266.356,54.6625 L266.356,52.5715 L259.556,52.5715 L259.556,49.7495 L265.506,49.7495 L265.506,47.6585 L259.556,47.6585 L259.556,45.0915 L266.254,45.0915 L266.254,43.0005 L257.091,43.0005 L257.091,54.6625 L266.356,54.6625 Z M270.895,54.6625 L270.895,50.3105 L274.159,50.3105 L276.216,54.6625 L278.885,54.6625 L276.505,49.9195 C277.865,49.3755 278.545,48.2875 278.545,46.6555 C278.545,45.4995 278.216333,44.6013333 277.559,43.961 C276.901667,43.3206667 275.921333,43.0005 274.618,43.0005 L274.618,43.0005 L268.43,43.0005 L268.43,54.6625 L270.895,54.6625 Z M274.397,48.2535 L270.895,48.2535 L270.895,45.0915 L274.397,45.0915 C274.929667,45.0915 275.337667,45.2275 275.621,45.4995 C275.904333,45.7715 276.046,46.1568333 276.046,46.6555 C276.046,47.1541667 275.904333,47.5451667 275.621,47.8285 C275.337667,48.1118333 274.929667,48.2535 274.397,48.2535 L274.397,48.2535 Z M285.175,54.8665 C286.716333,54.8665 287.931833,54.5718333 288.8215,53.9825 C289.711167,53.3931667 290.156,52.4751667 290.156,51.2285 C290.156,50.4578333 289.940667,49.8345 289.51,49.3585 C289.079333,48.8825 288.5665,48.5226667 287.9715,48.279 C287.3765,48.0353333 286.614333,47.7888333 285.685,47.5395 C285.061667,47.3695 284.58,47.225 284.24,47.106 C283.9,46.987 283.616667,46.834 283.39,46.647 C283.163333,46.46 283.05,46.2361667 283.05,45.9755 C283.05,45.6355 283.239833,45.3691667 283.6195,45.1765 C283.999167,44.9838333 284.546,44.8875 285.26,44.8875 C285.928667,44.8875 286.4585,45.0121667 286.8495,45.2615 C287.2405,45.5108333 287.436,45.8508333 287.436,46.2815 L287.436,46.2815 L287.436,46.4345 L289.884,46.4345 L289.884,46.2305 C289.884,45.0858333 289.456167,44.2273333 288.6005,43.655 C287.744833,43.0826667 286.642667,42.7965 285.294,42.7965 C283.866,42.7965 282.721333,43.0741667 281.86,43.6295 C280.998667,44.1848333 280.568,44.9951667 280.568,46.0605 C280.568,46.8311667 280.772,47.4516667 281.18,47.922 C281.588,48.3923333 282.075333,48.7465 282.642,48.9845 C283.208667,49.2225 283.951,49.4718333 284.869,49.7325 C285.515,49.9138333 286.022167,50.0696667 286.3905,50.2 C286.758833,50.3303333 287.064833,50.506 287.3085,50.727 C287.552167,50.948 287.674,51.2228333 287.674,51.5515 C287.674,51.9255 287.487,52.223 287.113,52.444 C286.739,52.665 286.132667,52.7755 285.294,52.7755 C284.500667,52.7755 283.883,52.6281667 283.441,52.3335 C282.999,52.0388333 282.778,51.6421667 282.778,51.1435 L282.778,51.1435 L282.795,50.8715 L280.296,50.8715 L280.279,51.2455 C280.279,52.0161667 280.5,52.6735 280.942,53.2175 C281.384,53.7615 281.976167,54.1723333 282.7185,54.45 C283.460833,54.7276667 284.279667,54.8665 285.175,54.8665 Z" id="SOFTWAREFORLENDERS" fill="#9DC7E0" fill-rule="nonzero"></path>
            </g>
        </g>
    </g>
</svg>