<?xml version="1.0" encoding="UTF-8"?>
<svg width="190px" height="69px" viewBox="0 0 190 69" version="1.1" xmlns="http://www.w3.org/2000/svg" xmlns:xlink="http://www.w3.org/1999/xlink">
    <title>Logo / Lenders / Services / Light</title>
    <g id="Brand-Taxonomy" stroke="none" stroke-width="1" fill="none" fill-rule="evenodd">
        <g id="Product-Logos---B4L" transform="translate(-471.000000, -464.000000)">
            <g id="Group" transform="translate(471.000000, 464.000000)">
                <g transform="translate(0.000000, 11.000000)" fill="#CF392B" id="logo/brandmark/red">
                    <path d="M32.7918519,30.9676652 L20,23.2372335 L7.20814815,30.9676652 L7.20814815,18.9451982 L20,11.2207753 L32.7918519,18.9515947 L32.7918519,30.9676652 Z M20,2.5085815 L7.20814815,10.239207 L7.20814815,0 L0,0 L0,43.9209163 L0.19,43.9209163 L20,31.9494273 L39.8037037,43.9209163 L40,43.9209163 L40,14.5954009 L20,2.5085815 L20,2.5085815 Z" id="Fill-1"></path>
                </g>
                <path d="M54.5,0.3375 C55.2796961,0.3375 55.9204487,0.932388083 55.9931334,1.69303999 L56,1.8375 L56,67.1625 C56,67.9909271 55.3284271,68.6625 54.5,68.6625 C53.7203039,68.6625 53.0795513,68.0676119 53.0068666,67.30696 L53,67.1625 L53,1.8375 C53,1.00907288 53.6715729,0.3375 54.5,0.3375 Z" id="Line-2" fill="#9DC7E0" fill-rule="nonzero"></path>
                <path d="M76.91,34.324 C79.358,34.324 81.2885,33.856 82.7015,32.92 C84.1145,31.984 84.821,30.526 84.821,28.546 C84.821,27.322 84.479,26.332 83.795,25.576 C83.111,24.82 82.2965,24.2485 81.3515,23.8615 C80.4065,23.4745 79.196,23.083 77.72,22.687 C76.73,22.417 75.965,22.1875 75.425,21.9985 C74.885,21.8095 74.435,21.5665 74.075,21.2695 C73.715,20.9725 73.535,20.617 73.535,20.203 C73.535,19.663 73.8365,19.24 74.4395,18.934 C75.0425,18.628 75.911,18.475 77.045,18.475 C78.107,18.475 78.9485,18.673 79.5695,19.069 C80.1905,19.465 80.501,20.005 80.501,20.689 L80.501,20.689 L80.501,20.932 L84.389,20.932 L84.389,20.608 C84.389,18.79 83.7095,17.4265 82.3505,16.5175 C80.9915,15.6085 79.241,15.154 77.099,15.154 C74.831,15.154 73.013,15.595 71.645,16.477 C70.277,17.359 69.593,18.646 69.593,20.338 C69.593,21.562 69.917,22.5475 70.565,23.2945 C71.213,24.0415 71.987,24.604 72.887,24.982 C73.787,25.36 74.966,25.756 76.424,26.17 C77.45,26.458 78.2555,26.7055 78.8405,26.9125 C79.4255,27.1195 79.9115,27.3985 80.2985,27.7495 C80.6855,28.1005 80.879,28.537 80.879,29.059 C80.879,29.653 80.582,30.1255 79.988,30.4765 C79.394,30.8275 78.431,31.003 77.099,31.003 C75.839,31.003 74.858,30.769 74.156,30.301 C73.454,29.833 73.103,29.203 73.103,28.411 L73.103,28.411 L73.13,27.979 L69.161,27.979 L69.134,28.573 C69.134,29.797 69.485,30.841 70.187,31.705 C70.889,32.569 71.8295,33.2215 73.0085,33.6625 C74.1875,34.1035 75.488,34.324 76.91,34.324 Z M93.785,34.324 C95.675,34.324 97.196,33.8785 98.348,32.9875 C99.5,32.0965 100.076,30.76 100.076,28.978 L100.076,28.978 L96.431,28.978 C96.431,29.77 96.1925,30.382 95.7155,30.814 C95.2385,31.246 94.613,31.462 93.839,31.462 C92.741,31.462 91.958,31.1605 91.49,30.5575 C91.022,29.9545 90.77,29.023 90.734,27.763 L90.734,27.763 L100.076,27.763 L100.076,26.899 C100.076,24.379 99.554,22.5115 98.51,21.2965 C97.466,20.0815 95.891,19.474 93.785,19.474 C91.499,19.474 89.7935,20.077 88.6685,21.283 C87.5435,22.489 86.981,24.361 86.981,26.899 C86.981,29.437 87.5435,31.309 88.6685,32.515 C89.7935,33.721 91.499,34.324 93.785,34.324 Z M96.242,25.306 L90.788,25.306 C90.896,24.316 91.1885,23.578 91.6655,23.092 C92.1425,22.606 92.849,22.363 93.785,22.363 C95.423,22.363 96.242,23.344 96.242,25.306 L96.242,25.306 Z M106.637,34 L106.637,27.142 C106.637,25.81 106.907,24.8155 107.447,24.1585 C107.987,23.5015 108.86,23.173 110.066,23.173 L110.066,23.173 L111.092,23.173 L111.092,19.717 C110.678,19.555 110.21,19.474 109.688,19.474 C108.896,19.474 108.257,19.708 107.771,20.176 C107.285,20.644 106.889,21.283 106.583,22.093 L106.583,22.093 L106.394,22.093 L106.097,19.798 L102.938,19.798 L102.938,34 L106.637,34 Z M120.974,34 L126.293,19.798 L122.54,19.798 L120.353,25.9 C120.065,26.71 119.669,28.132 119.165,30.166 L119.165,30.166 L119.03,30.166 C118.49,28.006 118.094,26.584 117.842,25.9 L117.842,25.9 L115.628,19.798 L111.767,19.798 L117.059,34 L120.974,34 Z M132.125,17.989 L132.125,14.479 L128.426,14.479 L128.426,17.989 L132.125,17.989 Z M132.125,34 L132.125,19.798 L128.426,19.798 L128.426,34 L132.125,34 Z M141.845,34.324 C143.753,34.324 145.265,33.8425 146.381,32.8795 C147.497,31.9165 148.055,30.508 148.055,28.654 L148.055,28.654 L144.491,28.654 C144.491,29.5 144.2615,30.1615 143.8025,30.6385 C143.3435,31.1155 142.727,31.354 141.953,31.354 C140.855,31.354 140.0585,30.9985 139.5635,30.2875 C139.0685,29.5765 138.821,28.519 138.821,27.115 L138.821,27.115 L138.821,26.683 C138.821,25.279 139.0595,24.2215 139.5365,23.5105 C140.0135,22.7995 140.756,22.444 141.764,22.444 C142.574,22.444 143.204,22.678 143.654,23.146 C144.104,23.614 144.329,24.28 144.329,25.144 L144.329,25.144 L148.055,25.144 C148.055,23.29 147.4925,21.8815 146.3675,20.9185 C145.2425,19.9555 143.735,19.474 141.845,19.474 C139.577,19.474 137.8805,20.0815 136.7555,21.2965 C135.6305,22.5115 135.068,24.379 135.068,26.899 C135.068,29.437 135.6305,31.309 136.7555,32.515 C137.8805,33.721 139.577,34.324 141.845,34.324 Z M156.83,34.324 C158.72,34.324 160.241,33.8785 161.393,32.9875 C162.545,32.0965 163.121,30.76 163.121,28.978 L163.121,28.978 L159.476,28.978 C159.476,29.77 159.2375,30.382 158.7605,30.814 C158.2835,31.246 157.658,31.462 156.884,31.462 C155.786,31.462 155.003,31.1605 154.535,30.5575 C154.067,29.9545 153.815,29.023 153.779,27.763 L153.779,27.763 L163.121,27.763 L163.121,26.899 C163.121,24.379 162.599,22.5115 161.555,21.2965 C160.511,20.0815 158.936,19.474 156.83,19.474 C154.544,19.474 152.8385,20.077 151.7135,21.283 C150.5885,22.489 150.026,24.361 150.026,26.899 C150.026,29.437 150.5885,31.309 151.7135,32.515 C152.8385,33.721 154.544,34.324 156.83,34.324 Z M159.287,25.306 L153.833,25.306 C153.941,24.316 154.2335,23.578 154.7105,23.092 C155.1875,22.606 155.894,22.363 156.83,22.363 C158.468,22.363 159.287,23.344 159.287,25.306 L159.287,25.306 Z M171.653,34.324 C175.991,34.324 178.16,32.794 178.16,29.734 C178.16,28.69 177.881,27.862 177.323,27.25 C176.765,26.638 176.108,26.197 175.352,25.927 C174.596,25.657 173.615,25.387 172.409,25.117 C171.311,24.901 170.5145,24.685 170.0195,24.469 C169.5245,24.253 169.277,23.92 169.277,23.47 C169.277,23.11 169.493,22.831 169.925,22.633 C170.357,22.435 170.942,22.336 171.68,22.336 C172.418,22.336 173.0075,22.462 173.4485,22.714 C173.8895,22.966 174.11,23.326 174.11,23.794 L174.11,23.794 L174.11,23.956 L177.701,23.956 L177.728,23.335 C177.728,22.147 177.17,21.2065 176.054,20.5135 C174.938,19.8205 173.525,19.474 171.815,19.474 C169.979,19.474 168.4805,19.8475 167.3195,20.5945 C166.1585,21.3415 165.578,22.408 165.578,23.794 C165.578,24.784 165.848,25.576 166.388,26.17 C166.928,26.764 167.567,27.2005 168.305,27.4795 C169.043,27.7585 169.997,28.033 171.167,28.303 C172.301,28.555 173.1335,28.807 173.6645,29.059 C174.1955,29.311 174.461,29.689 174.461,30.193 C174.461,30.643 174.2,30.967 173.678,31.165 C173.156,31.363 172.526,31.462 171.788,31.462 C170.996,31.462 170.3255,31.3225 169.7765,31.0435 C169.2275,30.7645 168.944,30.31 168.926,29.68 L168.926,29.68 L168.926,29.491 L165.335,29.491 L165.308,29.815 C165.308,31.183 165.8705,32.2765 166.9955,33.0955 C168.1205,33.9145 169.673,34.324 171.653,34.324 Z" id="Services" fill="#ECF4F9" fill-rule="nonzero"></path>
                <path d="M71.604,55 L71.604,50.393 L76.959,50.393 L76.959,48.302 L71.604,48.302 L71.604,45.429 L77.588,45.429 L77.588,43.338 L69.139,43.338 L69.139,55 L71.604,55 Z M85,55.204 C86.8813333,55.204 88.3376667,54.7025 89.369,53.6995 C90.4003333,52.6965 90.916,51.1863333 90.916,49.169 C90.916,47.1516667 90.4003333,45.6415 89.369,44.6385 C88.3376667,43.6355 86.8813333,43.134 85,43.134 C83.13,43.134 81.6793333,43.6355 80.648,44.6385 C79.6166667,45.6415 79.101,47.1516667 79.101,49.169 C79.101,51.1863333 79.6166667,52.6965 80.648,53.6995 C81.6793333,54.7025 83.13,55.204 85,55.204 Z M85,53.113 C83.8893333,53.113 83.0506667,52.7928333 82.484,52.1525 C81.9173333,51.5121667 81.634,50.6026667 81.634,49.424 L81.634,49.424 L81.634,48.914 C81.634,47.7353333 81.9173333,46.8258333 82.484,46.1855 C83.0506667,45.5451667 83.8893333,45.225 85,45.225 C86.1106667,45.225 86.9521667,45.5451667 87.5245,46.1855 C88.0968333,46.8258333 88.383,47.7353333 88.383,48.914 L88.383,48.914 L88.383,49.424 C88.383,50.6026667 88.0968333,51.5121667 87.5245,52.1525 C86.9521667,52.7928333 86.1106667,53.113 85,53.113 Z M95.217,55 L95.217,50.648 L98.481,50.648 L100.538,55 L103.207,55 L100.827,50.257 C102.187,49.713 102.867,48.625 102.867,46.993 C102.867,45.837 102.538333,44.9388333 101.881,44.2985 C101.223667,43.6581667 100.243333,43.338 98.94,43.338 L98.94,43.338 L92.752,43.338 L92.752,55 L95.217,55 Z M98.719,48.591 L95.217,48.591 L95.217,45.429 L98.719,45.429 C99.2516667,45.429 99.6596667,45.565 99.943,45.837 C100.226333,46.109 100.368,46.4943333 100.368,46.993 C100.368,47.4916667 100.226333,47.8826667 99.943,48.166 C99.6596667,48.4493333 99.2516667,48.591 98.719,48.591 L98.719,48.591 Z M118.507,55 L118.507,52.858 L112.217,52.858 L112.217,43.338 L109.752,43.338 L109.752,55 L118.507,55 Z M129.404,55 L129.404,52.909 L122.604,52.909 L122.604,50.087 L128.554,50.087 L128.554,47.996 L122.604,47.996 L122.604,45.429 L129.302,45.429 L129.302,43.338 L120.139,43.338 L120.139,55 L129.404,55 Z M133.875,55 L133.875,48.557 C133.875,48.3643333 133.858,48.0243333 133.824,47.537 L133.824,47.537 L133.909,47.486 C134.135667,47.928 134.356667,48.302 134.572,48.608 L134.572,48.608 L139.077,55 L141.474,55 L141.474,43.338 L139.077,43.338 L139.077,49.781 L139.128,50.767 L139.043,50.818 C138.725667,50.2513333 138.499,49.8716667 138.363,49.679 L138.363,49.679 L133.875,43.338 L131.478,43.338 L131.478,55 L133.875,55 Z M148.58,55 C150.359333,55 151.7335,54.5155 152.7025,53.5465 C153.6715,52.5775 154.156,51.1183333 154.156,49.169 C154.156,47.2196667 153.6715,45.7605 152.7025,44.7915 C151.7335,43.8225 150.359333,43.338 148.58,43.338 L148.58,43.338 L143.752,43.338 L143.752,55 L148.58,55 Z M148.58,52.909 L146.217,52.909 L146.217,45.429 L148.58,45.429 C149.577333,45.429 150.333833,45.7321667 150.8495,46.3385 C151.365167,46.9448333 151.623,47.8033333 151.623,48.914 L151.623,48.914 L151.623,49.424 C151.623,50.5346667 151.365167,51.3931667 150.8495,51.9995 C150.333833,52.6058333 149.577333,52.909 148.58,52.909 L148.58,52.909 Z M165.291,55 L165.291,52.909 L158.491,52.909 L158.491,50.087 L164.441,50.087 L164.441,47.996 L158.491,47.996 L158.491,45.429 L165.189,45.429 L165.189,43.338 L156.026,43.338 L156.026,55 L165.291,55 Z M169.83,55 L169.83,50.648 L173.094,50.648 L175.151,55 L177.82,55 L175.44,50.257 C176.8,49.713 177.48,48.625 177.48,46.993 C177.48,45.837 177.151333,44.9388333 176.494,44.2985 C175.836667,43.6581667 174.856333,43.338 173.553,43.338 L173.553,43.338 L167.365,43.338 L167.365,55 L169.83,55 Z M173.332,48.591 L169.83,48.591 L169.83,45.429 L173.332,45.429 C173.864667,45.429 174.272667,45.565 174.556,45.837 C174.839333,46.109 174.981,46.4943333 174.981,46.993 C174.981,47.4916667 174.839333,47.8826667 174.556,48.166 C174.272667,48.4493333 173.864667,48.591 173.332,48.591 L173.332,48.591 Z M184.11,55.204 C185.651333,55.204 186.866833,54.9093333 187.7565,54.32 C188.646167,53.7306667 189.091,52.8126667 189.091,51.566 C189.091,50.7953333 188.875667,50.172 188.445,49.696 C188.014333,49.22 187.5015,48.8601667 186.9065,48.6165 C186.3115,48.3728333 185.549333,48.1263333 184.62,47.877 C183.996667,47.707 183.515,47.5625 183.175,47.4435 C182.835,47.3245 182.551667,47.1715 182.325,46.9845 C182.098333,46.7975 181.985,46.5736667 181.985,46.313 C181.985,45.973 182.174833,45.7066667 182.5545,45.514 C182.934167,45.3213333 183.481,45.225 184.195,45.225 C184.863667,45.225 185.3935,45.3496667 185.7845,45.599 C186.1755,45.8483333 186.371,46.1883333 186.371,46.619 L186.371,46.619 L186.371,46.772 L188.819,46.772 L188.819,46.568 C188.819,45.4233333 188.391167,44.5648333 187.5355,43.9925 C186.679833,43.4201667 185.577667,43.134 184.229,43.134 C182.801,43.134 181.656333,43.4116667 180.795,43.967 C179.933667,44.5223333 179.503,45.3326667 179.503,46.398 C179.503,47.1686667 179.707,47.7891667 180.115,48.2595 C180.523,48.7298333 181.010333,49.084 181.577,49.322 C182.143667,49.56 182.886,49.8093333 183.804,50.07 C184.45,50.2513333 184.957167,50.4071667 185.3255,50.5375 C185.693833,50.6678333 185.999833,50.8435 186.2435,51.0645 C186.487167,51.2855 186.609,51.5603333 186.609,51.889 C186.609,52.263 186.422,52.5605 186.048,52.7815 C185.674,53.0025 185.067667,53.113 184.229,53.113 C183.435667,53.113 182.818,52.9656667 182.376,52.671 C181.934,52.3763333 181.713,51.9796667 181.713,51.481 L181.713,51.481 L181.73,51.209 L179.231,51.209 L179.214,51.583 C179.214,52.3536667 179.435,53.011 179.877,53.555 C180.319,54.099 180.911167,54.5098333 181.6535,54.7875 C182.395833,55.0651667 183.214667,55.204 184.11,55.204 Z" id="FORLENDERS" fill="#9DC7E0" fill-rule="nonzero"></path>
            </g>
        </g>
    </g>
</svg>