<?xml version="1.0" encoding="utf-8"?>
<!-- Generator: Adobe Illustrator 19.2.1, SVG Export Plug-In . SVG Version: 6.00 Build 0)  -->
<svg version="1.1" id="layer" xmlns="http://www.w3.org/2000/svg" xmlns:xlink="http://www.w3.org/1999/xlink" x="0px" y="0px"
	 viewBox="0 0 652 652" style="enable-background:new 0 0 652 652;" xml:space="preserve">
<style type="text/css">
	.st0{fill:url(#SVGID_1_);}
	.st1{fill:url(#SVGID_2_);}
	.st2{fill:url(#SVGID_3_);}
	.st3{fill:url(#SVGID_4_);}
	.st4{fill:#231F20;}
</style>
<g id="Layer_2">
	<g id="Layer_1-2">
		
			<linearGradient id="SVGID_1_" gradientUnits="userSpaceOnUse" x1="195.2102" y1="241.7962" x2="192.1322" y2="329.8217" gradientTransform="matrix(1 0 0 -1 0 651.89)">
			<stop  offset="0" style="stop-color:#9F1E2E"/>
			<stop  offset="0.49" style="stop-color:#AF1F2D"/>
			<stop  offset="0.96" style="stop-color:#BA202E"/>
		</linearGradient>
		<rect x="173.6" y="246.2" class="st0" width="37.1" height="150.8"/>
		
			<linearGradient id="SVGID_2_" gradientUnits="userSpaceOnUse" x1="140.9265" y1="220.272" x2="140.9265" y2="386.9216" gradientTransform="matrix(1 0 0 -1 0 651.89)">
			<stop  offset="0" style="stop-color:#B5812D"/>
			<stop  offset="0.27" style="stop-color:#D09335"/>
			<stop  offset="0.5" style="stop-color:#E3A03A"/>
			<stop  offset="0.72" style="stop-color:#FBAF41"/>
			<stop  offset="0.94" style="stop-color:#FBAF41"/>
		</linearGradient>
		<rect x="122.4" y="308.2" class="st1" width="37.1" height="88.9"/>
		
			<linearGradient id="SVGID_3_" gradientUnits="userSpaceOnUse" x1="89.7372" y1="227.6883" x2="89.7372" y2="368.7767" gradientTransform="matrix(1 0 0 -1 0 651.89)">
			<stop  offset="0.12" style="stop-color:#62933F"/>
			<stop  offset="0.34" style="stop-color:#76A942"/>
			<stop  offset="0.53" style="stop-color:#86BF40"/>
			<stop  offset="0.8" style="stop-color:#8CC640"/>
			<stop  offset="0.91" style="stop-color:#8CC640"/>
		</linearGradient>
		<rect x="71.2" y="285.8" class="st2" width="37.1" height="111.3"/>
		
			<linearGradient id="SVGID_4_" gradientUnits="userSpaceOnUse" x1="38.5479" y1="235.1158" x2="38.5479" y2="389.1075" gradientTransform="matrix(1 0 0 -1 0 651.89)">
			<stop  offset="0" style="stop-color:#0482B3"/>
			<stop  offset="0.29" style="stop-color:#0093C8"/>
			<stop  offset="0.5" style="stop-color:#0FA1DC"/>
			<stop  offset="0.94" style="stop-color:#C2E3F7"/>
		</linearGradient>
		<rect x="20" y="323.8" class="st3" width="37.1" height="73.2"/>
		<path class="st4" d="M539.4,388.2c-4.7-4.1-8.2-9.5-9.8-15.5c-2-6.6-3-13.4-2.9-20.3c0-5.8,0.8-11.6,2.5-17.2
			c1.4-5.3,4-10.2,7.7-14.4c5.6-6.4,13.5-10.4,21.9-11.3c8.1-1.2,16.4-0.5,24.2,2.1c8,3,14.6,8.9,18.3,16.6c3.7,7,5.6,15.2,5.6,24.5
			c0.1,5.9-0.7,11.9-2.3,17.6c-1.3,4.4-3.3,8.6-5.9,12.5c-4.8,6.7-11.9,11.4-20,13.1c-7.1,1.9-14.6,2.1-21.7,0.5
			C549.6,394.7,543.7,392,539.4,388.2z M555.1,331.9c-4.6,4.9-6.7,12.2-6.2,21.9c0.4,9.7,2.3,16.4,5.6,20.3c1.3,1.7,3.6,3.1,6.9,4.3
			c3.2,1.2,6.7,1.3,10,0.3c3.4-1,6.4-3.4,9-7.2s4-10,4.3-18.5c0-7.7-1.3-13.4-3.8-17.2s-5.4-6.3-8.7-7.3c-3.2-1.1-6.6-1.1-9.8-0.2
			C559.6,328.9,557.1,330.2,555.1,331.9z M313.3,316c-7.9-5-17.1-7.6-26.5-7.5c-9.1,0.4-18,3.2-25.7,8.2c-7.7,5-11.6,14.9-11.6,29.8
			v51h22.9v-55.6c0-5.2,1.5-9,4.6-11.4c3-2.4,6.7-3.6,10.5-3.6c3.8,0,7.6,1.2,10.6,3.6c3.2,2.4,4.7,6.2,4.7,11.4v55.6h22.6v-51
			C325.4,331.1,321.4,321,313.3,316z M509.2,316c-7.9-5-17.1-7.6-26.4-7.5c-9.1,0.4-18,3.2-25.7,8.2c-7.7,5-11.6,14.9-11.6,29.8v51
			h22.8v-55.6c0-5.2,1.5-9,4.6-11.4c3-2.4,6.7-3.6,10.5-3.6c3.8,0,7.6,1.2,10.6,3.6c3.2,2.4,4.7,6.2,4.7,11.4v55.6h22.6v-51
			C521.3,331.1,517.3,321,509.2,316L509.2,316z M383.9,371.2c-2.6,3.8-5.6,6.2-9,7.2c-3.3,1-6.8,0.8-10-0.3
			c-3.3-1.2-5.6-2.6-6.9-4.3c-3.3-3.8-5.1-10.6-5.6-20.3c-0.4-9.7,1.6-17,6.2-21.9c2.1-1.8,4.5-3,7.2-3.7c3.2-1,6.6-0.9,9.8,0.2
			c3.3,1.1,6.2,3.5,8.7,7.3c0.8,1.2,1.4,2.5,1.9,3.8H409c-0.9-4-2.3-7.9-4.2-11.5c-3.7-7.7-10.2-13.6-18.2-16.6
			c-7.8-2.6-16.1-3.3-24.2-2.1c-8.5,0.9-16.3,5-21.9,11.3c-3.6,4.1-6.3,9-7.7,14.4c-1.6,5.6-2.4,11.4-2.5,17.2
			c0,6.9,1,13.7,2.9,20.3c1.7,6,5.1,11.4,9.8,15.5c4.4,3.8,10.2,6.5,17.5,8.1c7.2,1.6,14.6,1.4,21.7-0.5c8.1-1.7,15.2-6.4,20-13.1
			c2.6-3.8,4.6-8,5.9-12.5c0.4-1.2,0.7-2.5,1-3.8h-22.8C385.8,367.9,385,369.6,383.9,371.2L383.9,371.2z M426,308.3h-11.7v89.3h22.9
			v-78.2C437.2,313.2,432.2,308.3,426,308.3L426,308.3z M427.2,301.1c3.2-0.1,6.3,1.1,8.7,3.3c0.5,0.4,0.9,0.9,1.3,1.4v-20.1h-11.7
			c-6.2,0-11.2,5-11.2,11.2v4.3L427.2,301.1z"/>
		<path class="st4" d="M620,389.3c0.1,4.4-3.4,8.1-7.8,8.3c-4.4,0.1-8.1-3.4-8.3-7.8c-0.1-4.4,3.4-8.1,7.8-8.3c0.1,0,0.2,0,0.3,0
			C616.4,381.5,620,385,620,389.3C620,389.3,620,389.3,620,389.3z M605.9,389.3c-0.1,3.4,2.6,6.2,5.9,6.3c0.1,0,0.1,0,0.2,0
			c3.3,0,6-2.7,6-6c0-0.1,0-0.1,0-0.2c0.2-3.3-2.3-6.2-5.7-6.4s-6.2,2.3-6.4,5.7C605.9,388.9,605.9,389.1,605.9,389.3L605.9,389.3z
			 M610.7,393.4h-1.8v-7.8c1-0.1,2-0.2,3-0.2c0.9-0.1,1.9,0.1,2.7,0.6c0.5,0.4,0.8,1,0.8,1.7c-0.1,0.9-0.7,1.7-1.6,1.9v0.1
			c0.8,0.2,1.1,0.9,1.4,1.9c0.1,0.7,0.3,1.3,0.6,1.9h-1.9c-0.3-0.6-0.5-1.2-0.6-1.9c-0.1-0.8-0.6-1.2-1.6-1.2h-0.9L610.7,393.4z
			 M610.7,389h0.9c1,0,1.8-0.3,1.8-1.1c0-0.8-0.5-1.2-1.7-1.2c-0.3,0-0.7,0-1,0.1V389z"/>
	</g>
</g>
</svg>
