<?xml version="1.0" encoding="utf-8"?>
<!-- Generator: Adobe Illustrator 24.3.0, SVG Export Plug-In . SVG Version: 6.00 Build 0)  -->
<svg version="1.1" id="layer" xmlns="http://www.w3.org/2000/svg" xmlns:xlink="http://www.w3.org/1999/xlink" x="0px" y="0px"
	 viewBox="0 0 600.1 92.5" style="enable-background:new 0 0 600.1 92.5;" xml:space="preserve">
<style type="text/css">
	.st0{fill:#0055B8;}
	.st1{fill:#40B4E5;}
	.st2{fill:#F6A700;}
	.st3{fill:#B3282D;}
</style>
<g>
	<path class="st0" d="M151.8,32.1c-0.8,5.8-5.7,8-10.9,8h-6.1c1.6-8.5,2.8-14.2,2.8-14.2s4.8,0,7.3,0
		C149.3,25.9,152.5,26.8,151.8,32.1 M155.7,12.3h-34.2c-2.7,18.6-9.7,54.9-12.2,64.7h19.1c1.2-8.2,2.6-16.6,4-24.3h12.2
		c13.1,0,24.7-8.3,26.7-22C172.2,24.8,171.5,12.3,155.7,12.3"/>
	<path class="st0" d="M191.9,33.8l0.2-0.2c3.6-3.5,8.2-6.2,13-6.2c1.3,0,2.6,0.1,3.8,0.5l-1.7,15.6c-1.6-0.5-3.2-1-4.9-1
		c-5.8,0-10.6,3.6-12.7,9.2c-1.9,5-3.2,13.3-4.9,25.2h-18.6c3-13.3,5.8-26.7,9-48.4h17.8L191.9,33.8z"/>
	<path class="st0" d="M225.4,53.7c-0.8,5.5,1.1,10.9,7.5,10.9c7.2,0,11-6.8,11.9-12.9c0.8-5.7-1.1-10.7-7.4-10.7
		C230.2,41,226.3,47.4,225.4,53.7 M263.6,51.9c-2.5,17.2-16.3,26.3-32.5,26.3c-23.9,0-25.8-16.7-24.7-24.3
		c2.5-17.1,16.9-26.5,33-26.5C254.5,27.4,266,35.6,263.6,51.9"/>
	<path class="st0" d="M310,25.7l1.9-11.5h18.7l-2.1,11.5H310z M300,77c3.8-14.7,6.6-29.1,9.6-48.4h19.3c-4,16.1-6.5,32.3-8.8,48.4
		H300z M266.3,41.3l2.5-12.7h6.7l0.8-5.5c1.2-8.3,6-13.7,18.1-13.7c4.5,0,9.1,0.7,13.2,1.9l-1.2,12.4c-2.6-1-5.3-1.7-8.2-1.7
		c-3.9,0-5.7,1.7-6.3,6.5h10.8l-2.5,12.7h-9.8c-2.5,12.4-4.7,24.1-6.8,35.7h-18.9c2.8-11.6,4.9-23.3,7.4-35.7h-5.8V41.3z"/>
	<path class="st0" d="M361.4,64l-6,14.1h-11.2c-9.3,0-12.2-4.3-10.9-14.7c0.6-5,3.1-13.5,4.7-22.1h-7.2l2.3-12.7h7.8l3.2-14.2h15.6
		l-2.8,14.2h10.8l-2.2,12.7h-11.1c-1.1,5.4-2.6,12.2-3.5,16.7c-0.7,3.7,0.1,5.8,4.2,5.8L361.4,64z"/>
	<path class="st0" d="M381.2,64.3c3.2,0,9.2-0.6,9.8-5c1.1-7.5-20.6-15.2-18.4-30.4c0.7-4.5,5.2-17.8,27.1-17.8
		c5.8,0,11.5,0.8,16.9,1.8l-2.9,14.5c-4.1-1.8-6.9-2.4-11.6-2.4c-3,0-8.8,1.1-9.4,5.1c-1.1,7.7,20.7,14.8,18.6,29.2
		c-1,6.6-7.4,18.8-28,18.8h-23.2l5.8-14.1C365.8,64.1,376.8,64.4,381.2,64.3"/>
	<path class="st0" d="M530.6,33.8l0.2-0.2c3.6-3.5,8.2-6.2,13-6.2c1.3,0,2.6,0.1,3.8,0.5l-1.7,15.6c-1.6-0.5-3.2-1-4.9-1
		c-5.8,0-10.6,3.6-12.7,9.2c-1.9,5-3.2,13.3-4.9,25.2h-18.6c3-13.3,5.8-26.7,9-48.4h17.8L530.6,33.8z"/>
	<path class="st0" d="M585.8,42.4c-3.2-1.4-6.7-2.2-11-2.2c-2.3,0-6.7,0-7,2.4c-0.8,5.2,15.5,9.1,13.6,21.6
		c-1.6,10.7-14.1,14-22.7,14c-5.8,0-11.3-1-16.8-2.1l0.6-14.1c4.2,1.7,8.8,3.5,13.5,3.5c2.1,0,6.3-0.1,6.7-2.9
		c0.7-4.6-15.3-10-13.7-21.3c1.2-8.1,7.9-13.8,21.5-13.8c5.5,0,11,0.8,16.4,1.6L585.8,42.4z"/>
	<path class="st0" d="M484.7,40.1c-9.7,0-15.5,7.2-16.6,14.9c-0.8,5.2,1.3,10,7.1,10c10.4,0,12.7-15.1,14.1-24.3
		C487.8,40.3,486.3,40.1,484.7,40.1 M484.5,71.1h-0.2c-5,4.8-10.8,7.1-17.5,7.1c-12.7,0-19-9.9-17.2-22.1c2-14,11.8-28.6,33.1-28.6
		c3.2,0,6.2,0.3,9.3,0.7c5.1,0.8,17.6,3,17.6,3s-1.4,6.5-2.4,11.1c-2.1,10.4-4.4,21.2-6.3,34.8h-17.5L484.5,71.1z"/>
	<path class="st0" d="M593.4,20.5h0.7c0.4,0,1,0,1-0.7c0-0.6-0.6-0.7-1-0.7h-0.7V20.5z M591.9,17.9h2c1.4,0,2.8,0.3,2.8,1.8
		c0,1.1-0.7,1.8-1.4,1.9l1.6,2.5h-1.7l-1.4-2.4h-0.4v2.4h-1.5V17.9z M594.2,25.6c2.5,0,4.4-2,4.4-4.6s-1.9-4.6-4.4-4.6
		s-4.4,2-4.4,4.6C589.8,23.6,591.7,25.6,594.2,25.6 M594.2,15.1c3.3,0,5.9,2.7,5.9,5.9c0,3.3-2.7,5.9-5.9,5.9
		c-3.3,0-5.9-2.7-5.9-5.9C588.3,17.8,590.9,15.1,594.2,15.1"/>
	<path class="st0" d="M438.9,41.3c-1.1,5.4-2.4,9.8-3.4,16.2c-0.5,3.7,0.1,6.8,4.2,6.8c2.3,0,4.6-0.5,6.9-1.1l-4.4,13.4
		c-4.3,1.1-8.6,1.6-12.9,1.6c-8.3,0-13.2-3-11.8-12.9c1.1-7.7,3.3-15.3,4.8-24h-7.2l2.3-12.7h7.8l3.2-14.2H444l-2.9,14.2h10.8
		l-2.2,12.7H438.9z"/>
	<path class="st1" d="M44.2,40.4L10,3.1c-1.2-1.4,0-3.5,1.8-3l59,15.9c1.6,0.4,2.1,2.5,0.9,3.7L49.2,40.6
		C47.8,41.9,45.5,41.8,44.2,40.4"/>
	<path class="st2" d="M51.9,44.4L89,10c1.4-1.3,3.5,0,3,1.8L76.2,71.1c-0.4,1.6-2.5,2.2-3.7,0.9L51.7,49.3
		C50.4,47.9,50.5,45.7,51.9,44.4"/>
	<path class="st3" d="M48,52.1l34.2,37.3c1.2,1.4,0,3.5-1.8,3l-59-15.9c-1.6-0.4-2.1-2.5-0.9-3.7L43,51.9
		C44.4,50.6,46.6,50.7,48,52.1"/>
	<path class="st0" d="M40.2,48.1L3.1,82.5c-1.4,1.3-3.5,0-3-1.8l15.8-59.3c0.4-1.6,2.5-2.2,3.7-0.9l20.8,22.6
		C41.8,44.6,41.7,46.8,40.2,48.1"/>
</g>
</svg>
