<?xml version="1.0" encoding="UTF-8"?>
<svg width="190px" height="69px" viewBox="0 0 190 69" version="1.1" xmlns="http://www.w3.org/2000/svg" xmlns:xlink="http://www.w3.org/1999/xlink">
    <title>Logo / Lenders / Software</title>
    <g id="Brand-Taxonomy" stroke="none" stroke-width="1" fill="none" fill-rule="evenodd">
        <g id="Product-Logos---B4L" transform="translate(-471.000000, -163.000000)">
            <g id="Group" transform="translate(471.000000, 164.000000)">
                <g transform="translate(0.000000, 10.000000)" fill="#CF392B" id="logo/brandmark/red">
                    <path d="M32.7918519,30.9676652 L20,23.2372335 L7.20814815,30.9676652 L7.20814815,18.9451982 L20,11.2207753 L32.7918519,18.9515947 L32.7918519,30.9676652 Z M20,2.5085815 L7.20814815,10.239207 L7.20814815,0 L0,0 L0,43.9209163 L0.19,43.9209163 L20,31.9494273 L39.8037037,43.9209163 L40,43.9209163 L40,14.5954009 L20,2.5085815 L20,2.5085815 Z" id="Fill-1"></path>
                </g>
                <path d="M54.5,-0.6625 C55.2796961,-0.6625 55.9204487,-0.0676119167 55.9931334,0.693039989 L56,0.8375 L56,66.1625 C56,66.9909271 55.3284271,67.6625 54.5,67.6625 C53.7203039,67.6625 53.0795513,67.0676119 53.0068666,66.30696 L53,66.1625 L53,0.8375 C53,0.00907287525 53.6715729,-0.6625 54.5,-0.6625 Z" id="Line-2" fill="#0C1733" fill-rule="nonzero"></path>
                <g id="Software-for-Lenders" transform="translate(69.134000, 13.263000)" fill-rule="nonzero">
                    <path d="M7.776,20.061 C10.224,20.061 12.1545,19.593 13.5675,18.657 C14.9805,17.721 15.687,16.263 15.687,14.283 C15.687,13.059 15.345,12.069 14.661,11.313 C13.977,10.557 13.1625,9.9855 12.2175,9.5985 C11.2725,9.2115 10.062,8.82 8.586,8.424 C7.596,8.154 6.831,7.9245 6.291,7.7355 C5.751,7.5465 5.301,7.3035 4.941,7.0065 C4.581,6.7095 4.401,6.354 4.401,5.94 C4.401,5.4 4.7025,4.977 5.3055,4.671 C5.9085,4.365 6.777,4.212 7.911,4.212 C8.973,4.212 9.8145,4.41 10.4355,4.806 C11.0565,5.202 11.367,5.742 11.367,6.426 L11.367,6.426 L11.367,6.669 L15.255,6.669 L15.255,6.345 C15.255,4.527 14.5755,3.1635 13.2165,2.2545 C11.8575,1.3455 10.107,0.891 7.965,0.891 C5.697,0.891 3.879,1.332 2.511,2.214 C1.143,3.096 0.459,4.383 0.459,6.075 C0.459,7.299 0.783,8.2845 1.431,9.0315 C2.079,9.7785 2.853,10.341 3.753,10.719 C4.653,11.097 5.832,11.493 7.29,11.907 C8.316,12.195 9.1215,12.4425 9.7065,12.6495 C10.2915,12.8565 10.7775,13.1355 11.1645,13.4865 C11.5515,13.8375 11.745,14.274 11.745,14.796 C11.745,15.39 11.448,15.8625 10.854,16.2135 C10.26,16.5645 9.297,16.74 7.965,16.74 C6.705,16.74 5.724,16.506 5.022,16.038 C4.32,15.57 3.969,14.94 3.969,14.148 L3.969,14.148 L3.996,13.716 L0.027,13.716 L-2.13162821e-14,14.31 C-2.13162821e-14,15.534 0.351,16.578 1.053,17.442 C1.755,18.306 2.6955,18.9585 3.8745,19.3995 C5.0535,19.8405 6.354,20.061 7.776,20.061 Z M25.11,20.061 C27.54,20.061 29.3535,19.458 30.5505,18.252 C31.7475,17.046 32.346,15.174 32.346,12.636 C32.346,10.098 31.7475,8.226 30.5505,7.02 C29.3535,5.814 27.54,5.211 25.11,5.211 C22.68,5.211 20.871,5.814 19.683,7.02 C18.495,8.226 17.901,10.098 17.901,12.636 C17.901,15.174 18.495,17.046 19.683,18.252 C20.871,19.458 22.68,20.061 25.11,20.061 Z M25.11,17.037 C23.904,17.037 23.0355,16.6905 22.5045,15.9975 C21.9735,15.3045 21.708,14.256 21.708,12.852 L21.708,12.852 L21.708,12.42 C21.708,11.016 21.9735,9.9675 22.5045,9.2745 C23.0355,8.5815 23.904,8.235 25.11,8.235 C26.316,8.235 27.189,8.5815 27.729,9.2745 C28.269,9.9675 28.539,11.016 28.539,12.42 L28.539,12.42 L28.539,12.852 C28.539,14.256 28.269,15.3045 27.729,15.9975 C27.189,16.6905 26.316,17.037 25.11,17.037 Z M39.339,19.737 L39.339,8.559 L41.85,8.559 L41.85,5.535 L39.339,5.535 L39.339,4.185 C39.339,3.411 39.726,3.024 40.5,3.024 L40.5,3.024 L41.85,3.024 L41.85,0.432 C41.544,0.324 41.166,0.225 40.716,0.135 C40.266,0.045 39.852,-3.55271368e-14 39.474,-3.55271368e-14 C38.106,-3.55271368e-14 37.125,0.3735 36.531,1.1205 C35.937,1.8675 35.64,2.799 35.64,3.915 L35.64,3.915 L35.64,5.535 L33.615,5.535 L33.615,8.559 L35.64,8.559 L35.64,19.737 L39.339,19.737 Z M48.087,20.061 C48.483,20.061 48.9105,20.016 49.3695,19.926 C49.8285,19.836 50.211,19.737 50.517,19.629 L50.517,19.629 L50.517,17.037 L49.221,17.037 C48.447,17.037 48.06,16.65 48.06,15.876 L48.06,15.876 L48.06,8.559 L50.517,8.559 L50.517,5.535 L48.06,5.535 L48.06,1.539 L45.063,1.539 L44.442,5.535 L42.66,5.535 L42.66,8.559 L44.361,8.559 L44.361,16.254 C44.361,17.352 44.649,18.261 45.225,18.981 C45.801,19.701 46.755,20.061 48.087,20.061 Z M59.535,19.737 L61.236,12.933 C61.452,12.069 61.641,11.034 61.803,9.828 L61.803,9.828 L61.938,9.828 C62.172,11.052 62.388,12.096 62.586,12.96 L62.586,12.96 L64.206,19.737 L68.04,19.737 L72.252,5.535 L68.742,5.535 L67.284,11.421 C67.05,12.375 66.762,13.716 66.42,15.444 L66.42,15.444 L66.312,15.444 C65.934,13.59 65.637,12.249 65.421,11.421 L65.421,11.421 L63.882,5.535 L60.075,5.535 L58.617,11.394 C58.437,12.168 58.149,13.518 57.753,15.444 L57.753,15.444 L57.645,15.444 C57.249,13.356 56.97,11.997 56.808,11.367 L56.808,11.367 L55.269,5.535 L51.462,5.535 L55.701,19.737 L59.535,19.737 Z M84.996,20.061 C85.842,20.061 86.553,19.917 87.129,19.629 L87.129,19.629 L87.129,17.037 L86.373,17.037 C86.103,17.037 85.878,16.9605 85.698,16.8075 C85.518,16.6545 85.428,16.416 85.428,16.092 L85.428,16.092 L85.428,9.828 C85.428,8.334 84.9465,7.191 83.9835,6.399 C83.0205,5.607 81.567,5.211 79.623,5.211 C77.877,5.211 76.4775,5.571 75.4245,6.291 C74.3715,7.011 73.845,7.965 73.845,9.153 C73.845,9.441 73.854,9.639 73.872,9.747 L73.872,9.747 L77.436,9.747 L77.436,9.342 C77.436,9 77.6115,8.703 77.9625,8.451 C78.3135,8.199 78.903,8.073 79.731,8.073 C80.505,8.073 81.0315,8.244 81.3105,8.586 C81.5895,8.928 81.729,9.414 81.729,10.044 L81.729,10.044 L81.729,11.043 C78.993,11.043 76.878,11.4255 75.384,12.1905 C73.89,12.9555 73.143,14.247 73.143,16.065 C73.143,17.577 73.602,18.621 74.52,19.197 C75.438,19.773 76.446,20.061 77.544,20.061 C78.624,20.061 79.5015,19.9035 80.1765,19.5885 C80.8515,19.2735 81.45,18.81 81.972,18.198 L81.972,18.198 L82.134,18.198 C82.314,18.792 82.6515,19.251 83.1465,19.575 C83.6415,19.899 84.258,20.061 84.996,20.061 Z M78.705,17.145 C78.093,17.145 77.6385,17.01 77.3415,16.74 C77.0445,16.47 76.896,16.11 76.896,15.66 C76.896,14.22 78.507,13.5 81.729,13.5 L81.729,13.5 L81.729,13.932 C81.729,14.904 81.486,15.6825 81,16.2675 C80.514,16.8525 79.749,17.145 78.705,17.145 Z M92.988,19.737 L92.988,12.879 C92.988,11.547 93.258,10.5525 93.798,9.8955 C94.338,9.2385 95.211,8.91 96.417,8.91 L96.417,8.91 L97.443,8.91 L97.443,5.454 C97.029,5.292 96.561,5.211 96.039,5.211 C95.247,5.211 94.608,5.445 94.122,5.913 C93.636,6.381 93.24,7.02 92.934,7.83 L92.934,7.83 L92.745,7.83 L92.448,5.535 L89.289,5.535 L89.289,19.737 L92.988,19.737 Z M105.651,20.061 C107.541,20.061 109.062,19.6155 110.214,18.7245 C111.366,17.8335 111.942,16.497 111.942,14.715 L111.942,14.715 L108.297,14.715 C108.297,15.507 108.0585,16.119 107.5815,16.551 C107.1045,16.983 106.479,17.199 105.705,17.199 C104.607,17.199 103.824,16.8975 103.356,16.2945 C102.888,15.6915 102.636,14.76 102.6,13.5 L102.6,13.5 L111.942,13.5 L111.942,12.636 C111.942,10.116 111.42,8.2485 110.376,7.0335 C109.332,5.8185 107.757,5.211 105.651,5.211 C103.365,5.211 101.6595,5.814 100.5345,7.02 C99.4095,8.226 98.847,10.098 98.847,12.636 C98.847,15.174 99.4095,17.046 100.5345,18.252 C101.6595,19.458 103.365,20.061 105.651,20.061 Z M108.108,11.043 L102.654,11.043 C102.762,10.053 103.0545,9.315 103.5315,8.829 C104.0085,8.343 104.715,8.1 105.651,8.1 C107.289,8.1 108.108,9.081 108.108,11.043 L108.108,11.043 Z" id="Software" fill="#0C1733"></path>
                    <path d="M2.47,40.737 L2.47,36.13 L7.825,36.13 L7.825,34.039 L2.47,34.039 L2.47,31.166 L8.454,31.166 L8.454,29.075 L0.005,29.075 L0.005,40.737 L2.47,40.737 Z M15.866,40.941 C17.7473333,40.941 19.2036667,40.4395 20.235,39.4365 C21.2663333,38.4335 21.782,36.9233333 21.782,34.906 C21.782,32.8886667 21.2663333,31.3785 20.235,30.3755 C19.2036667,29.3725 17.7473333,28.871 15.866,28.871 C13.996,28.871 12.5453333,29.3725 11.514,30.3755 C10.4826667,31.3785 9.967,32.8886667 9.967,34.906 C9.967,36.9233333 10.4826667,38.4335 11.514,39.4365 C12.5453333,40.4395 13.996,40.941 15.866,40.941 Z M15.866,38.85 C14.7553333,38.85 13.9166667,38.5298333 13.35,37.8895 C12.7833333,37.2491667 12.5,36.3396667 12.5,35.161 L12.5,35.161 L12.5,34.651 C12.5,33.4723333 12.7833333,32.5628333 13.35,31.9225 C13.9166667,31.2821667 14.7553333,30.962 15.866,30.962 C16.9766667,30.962 17.8181667,31.2821667 18.3905,31.9225 C18.9628333,32.5628333 19.249,33.4723333 19.249,34.651 L19.249,34.651 L19.249,35.161 C19.249,36.3396667 18.9628333,37.2491667 18.3905,37.8895 C17.8181667,38.5298333 16.9766667,38.85 15.866,38.85 Z M26.083,40.737 L26.083,36.385 L29.347,36.385 L31.404,40.737 L34.073,40.737 L31.693,35.994 C33.053,35.45 33.733,34.362 33.733,32.73 C33.733,31.574 33.4043333,30.6758333 32.747,30.0355 C32.0896667,29.3951667 31.1093333,29.075 29.806,29.075 L29.806,29.075 L23.618,29.075 L23.618,40.737 L26.083,40.737 Z M29.585,34.328 L26.083,34.328 L26.083,31.166 L29.585,31.166 C30.1176667,31.166 30.5256667,31.302 30.809,31.574 C31.0923333,31.846 31.234,32.2313333 31.234,32.73 C31.234,33.2286667 31.0923333,33.6196667 30.809,33.903 C30.5256667,34.1863333 30.1176667,34.328 29.585,34.328 L29.585,34.328 Z M49.373,40.737 L49.373,38.595 L43.083,38.595 L43.083,29.075 L40.618,29.075 L40.618,40.737 L49.373,40.737 Z M60.27,40.737 L60.27,38.646 L53.47,38.646 L53.47,35.824 L59.42,35.824 L59.42,33.733 L53.47,33.733 L53.47,31.166 L60.168,31.166 L60.168,29.075 L51.005,29.075 L51.005,40.737 L60.27,40.737 Z M64.741,40.737 L64.741,34.294 C64.741,34.1013333 64.724,33.7613333 64.69,33.274 L64.69,33.274 L64.775,33.223 C65.0016667,33.665 65.2226667,34.039 65.438,34.345 L65.438,34.345 L69.943,40.737 L72.34,40.737 L72.34,29.075 L69.943,29.075 L69.943,35.518 L69.994,36.504 L69.909,36.555 C69.5916667,35.9883333 69.365,35.6086667 69.229,35.416 L69.229,35.416 L64.741,29.075 L62.344,29.075 L62.344,40.737 L64.741,40.737 Z M79.446,40.737 C81.2253333,40.737 82.5995,40.2525 83.5685,39.2835 C84.5375,38.3145 85.022,36.8553333 85.022,34.906 C85.022,32.9566667 84.5375,31.4975 83.5685,30.5285 C82.5995,29.5595 81.2253333,29.075 79.446,29.075 L79.446,29.075 L74.618,29.075 L74.618,40.737 L79.446,40.737 Z M79.446,38.646 L77.083,38.646 L77.083,31.166 L79.446,31.166 C80.4433333,31.166 81.1998333,31.4691667 81.7155,32.0755 C82.2311667,32.6818333 82.489,33.5403333 82.489,34.651 L82.489,34.651 L82.489,35.161 C82.489,36.2716667 82.2311667,37.1301667 81.7155,37.7365 C81.1998333,38.3428333 80.4433333,38.646 79.446,38.646 L79.446,38.646 Z M96.157,40.737 L96.157,38.646 L89.357,38.646 L89.357,35.824 L95.307,35.824 L95.307,33.733 L89.357,33.733 L89.357,31.166 L96.055,31.166 L96.055,29.075 L86.892,29.075 L86.892,40.737 L96.157,40.737 Z M100.696,40.737 L100.696,36.385 L103.96,36.385 L106.017,40.737 L108.686,40.737 L106.306,35.994 C107.666,35.45 108.346,34.362 108.346,32.73 C108.346,31.574 108.017333,30.6758333 107.36,30.0355 C106.702667,29.3951667 105.722333,29.075 104.419,29.075 L104.419,29.075 L98.231,29.075 L98.231,40.737 L100.696,40.737 Z M104.198,34.328 L100.696,34.328 L100.696,31.166 L104.198,31.166 C104.730667,31.166 105.138667,31.302 105.422,31.574 C105.705333,31.846 105.847,32.2313333 105.847,32.73 C105.847,33.2286667 105.705333,33.6196667 105.422,33.903 C105.138667,34.1863333 104.730667,34.328 104.198,34.328 L104.198,34.328 Z M114.976,40.941 C116.517333,40.941 117.732833,40.6463333 118.6225,40.057 C119.512167,39.4676667 119.957,38.5496667 119.957,37.303 C119.957,36.5323333 119.741667,35.909 119.311,35.433 C118.880333,34.957 118.3675,34.5971667 117.7725,34.3535 C117.1775,34.1098333 116.415333,33.8633333 115.486,33.614 C114.862667,33.444 114.381,33.2995 114.041,33.1805 C113.701,33.0615 113.417667,32.9085 113.191,32.7215 C112.964333,32.5345 112.851,32.3106667 112.851,32.05 C112.851,31.71 113.040833,31.4436667 113.4205,31.251 C113.800167,31.0583333 114.347,30.962 115.061,30.962 C115.729667,30.962 116.2595,31.0866667 116.6505,31.336 C117.0415,31.5853333 117.237,31.9253333 117.237,32.356 L117.237,32.356 L117.237,32.509 L119.685,32.509 L119.685,32.305 C119.685,31.1603333 119.257167,30.3018333 118.4015,29.7295 C117.545833,29.1571667 116.443667,28.871 115.095,28.871 C113.667,28.871 112.522333,29.1486667 111.661,29.704 C110.799667,30.2593333 110.369,31.0696667 110.369,32.135 C110.369,32.9056667 110.573,33.5261667 110.981,33.9965 C111.389,34.4668333 111.876333,34.821 112.443,35.059 C113.009667,35.297 113.752,35.5463333 114.67,35.807 C115.316,35.9883333 115.823167,36.1441667 116.1915,36.2745 C116.559833,36.4048333 116.865833,36.5805 117.1095,36.8015 C117.353167,37.0225 117.475,37.2973333 117.475,37.626 C117.475,38 117.288,38.2975 116.914,38.5185 C116.54,38.7395 115.933667,38.85 115.095,38.85 C114.301667,38.85 113.684,38.7026667 113.242,38.408 C112.8,38.1133333 112.579,37.7166667 112.579,37.218 L112.579,37.218 L112.596,36.946 L110.097,36.946 L110.08,37.32 C110.08,38.0906667 110.301,38.748 110.743,39.292 C111.185,39.836 111.777167,40.2468333 112.5195,40.5245 C113.261833,40.8021667 114.080667,40.941 114.976,40.941 Z" id="FORLENDERS" fill="#DF3B26"></path>
                </g>
            </g>
        </g>
    </g>
</svg>