<?xml version="1.0" encoding="utf-8"?>
<!-- Generator: Adobe Illustrator 24.3.0, SVG Export Plug-In . SVG Version: 6.00 Build 0)  -->
<svg version="1.1" id="Layer_1" xmlns="http://www.w3.org/2000/svg" xmlns:xlink="http://www.w3.org/1999/xlink" x="0px" y="0px"
	 viewBox="0 0 168.4 51.1" style="enable-background:new 0 0 168.4 51.1;" xml:space="preserve">
<style type="text/css">
	.st0{fill:#FFFFFF;}
	.st1{fill:#003F2D;}
	.st2{fill:#54B848;}
</style>
<g>
	<g>
		<rect x="0.8" y="0.7" class="st0" width="59.4" height="49.7"/>
		<path class="st1" d="M85.7,14.4h2.4c1.6,0,3,0.5,3,2.2c0,1.7-1.7,2.2-3.2,2.2h-2.2L85.7,14.4L85.7,14.4z M77.4,33h13.3
			c4.8,0,9.4-0.6,9.4-6.4c0-2.3-2-4.8-5.2-5.2v-0.1c3.1-0.8,4.7-2.5,4.7-5.6c0-4.4-3.9-5.6-7.9-5.6H77.4V33z M85.7,23.6H88
			c1.6,0,3.3,0.4,3.3,2.3c0,1.8-1.7,2.4-3.4,2.4h-2.3V23.6z"/>
		<path class="st1" d="M103.4,21.3c1.6-0.8,3.7-1.4,5.7-1.4c2.1,0,4.3,0.3,4.4,2.5c-0.8-0.1-2.1-0.2-3.2-0.2c-4.1,0-8.8,1.1-8.8,6.3
			c0,3.6,3.1,5,6.3,5c2.3,0,4.4-0.9,5.6-2.9h0.1V33h7.7V22.6c0-6.2-5.8-7.1-10.5-7.1c-3.2,0-4.7,0.3-7.2,1L103.4,21.3L103.4,21.3z
			 M113.5,26c0,1.5-0.9,3.1-2.6,3.1c-1.3,0-1.9-0.5-1.9-1.6c0-1.8,2-1.9,3.7-1.9h0.8L113.5,26L113.5,26z"/>
		<path class="st1" d="M123.4,15.9h7.8v3h0.1c1-2.4,3.3-3.3,5.6-3.3c4.4,0,6,2.3,6,5.6V33h-8.3v-9.9c0-1,0-2.3-1.4-2.3
			c-1.5,0-1.5,1.3-1.5,2.3V33h-8.3L123.4,15.9L123.4,15.9z"/>
		<polygon class="st1" points="154,22.7 154.1,22.7 158.8,15.9 168.2,15.9 162.4,23.5 168.4,33 158.7,33 154.1,24.7 154,24.7 
			154,33 145.7,33 145.7,8.4 154,8.4 		"/>
		<path class="st2" d="M39.9,40H25.7v-24h7.1v19.7h6.8c4.7,0,6.7-3.1,6.7-11c0-8-2.3-10.3-7-10.3H23.7V40h-7V14.5H6.4v-4.2h35.1
			C50,10.3,54,14.4,54,24.7C54,38.4,48,40,39.9,40 M0,51.1h60.8V0H0V51.1z"/>
	</g>
</g>
</svg>
