<?xml version="1.0" encoding="utf-8"?>
<!-- Generator: Adobe Illustrator 24.3.0, SVG Export Plug-In . SVG Version: 6.00 Build 0)  -->
<svg version="1.1" id="Layer_1" xmlns="http://www.w3.org/2000/svg" xmlns:xlink="http://www.w3.org/1999/xlink" x="0px" y="0px"
	 viewBox="0 0 899.9 376.6" style="enable-background:new 0 0 899.9 376.6;" xml:space="preserve">
<g id="wK8CAf_1_">
	<g>
		<path d="M167.9,376.6c-0.7-1.6-1.8-3.1-2.2-4.8c-4.4-21.8-7.7-44-13.5-65.4c-5.5-20.1-13.3-39.7-20.8-59.2
			c-7.9-20.4-19.1-39.2-31.7-57.1c-16.2-23.1-35.6-42.9-61-56c-11.6-6-23.9-10.3-37.2-11.2c-0.6,0-1.1-0.4-1.6-1.5
			c56,0,112,0,168.6,0c0-40.9,0-81.1,0-121.3c29.8,69.8,82,110.1,156.7,121.8c-51.7,0-103.3,0-155.6,0c0,84.9,0,169.5,0,254.2
			C169.1,376.2,168.5,376.4,167.9,376.6z"/>
		<path d="M397.7,227.6c13.8,11.7,26.5,22.5,39.7,33.8c-1.5,0.5-2.4,1-3.4,1.1c-1.3,0.2-2.7-0.1-4,0.1c-10.8,1.7-18.8-2-26-10.4
			c-7-8.3-15.6-15.3-23.5-22.8c-0.8-0.7-1.9-1.6-2.8-1.6c-7.9-0.1-15.9-0.1-24.3-0.1c0,10.2-0.1,20,0.1,29.8c0.1,3.8-1,5.3-5,5.2
			c-12.9-0.4-10.9,1.6-10.9-10.7c-0.1-24.4,0-48.9,0-73.3c0-1.8,0-3.6,0-5.8c1.8,0,3,0,4.3,0c23.5,0,46.9,0,70.4,0
			c6.7,0,14,2.1,14.7,8.9c1.3,12.3,1.2,24.9-0.1,37.3c-0.6,6-7,8.6-13.3,8.7C408.7,227.7,403.9,227.6,397.7,227.6z M353.6,215.6
			c16.8,0,33,0.2,49.2-0.1c8.1-0.1,9.6-2,9.6-10.5c0-4.5,0.5-9-0.2-13.4c-0.3-2.1-2.3-4.6-4.2-5.7c-2.1-1.2-5.1-1.2-7.6-1.2
			c-13.3-0.1-26.6,0-39.9,0c-2.3,0-4.5,0-6.8,0C353.6,195.3,353.6,205.2,353.6,215.6z"/>
		<path d="M514.2,173.6c9.6-3.8,14.4,2.9,19.9,7.6c15.2,13.3,30.3,26.8,45.4,40.3c6.5,5.8,12.8,11.9,19.2,17.9c0-21.9,0-44,0-66.4
			c4.5,0,9.1,0,14.4,0c0,1.5,0,3,0,4.6c0,26.4,0,52.8-0.1,79.2c0,1.8-0.8,5-1.5,5.1c-2.6,0.4-6.1,0.6-7.9-0.8
			c-6.5-5-12.4-10.8-18.6-16.2c-16.1-14.4-32.2-28.7-48.2-43.2c-2.7-2.4-5-5.3-7.4-8c-0.4,0.2-0.8,0.4-1.2,0.6
			c0.3,2.7,0.9,5.4,0.9,8.2c0.1,18.4,0,36.9,0.1,55.3c0,3.8-1.3,4.9-5,4.8c-11.8-0.3-10,1.3-10-10.1c-0.1-24.6,0-49.2,0-73.7
			C514.2,177,514.2,175.2,514.2,173.6z"/>
		<path d="M262.5,185.8c-13.4,0-26.3,0-39.6,0c0-4.4,0-8.4,0-12.8c32,0,63.9,0,96.1,0c0,4,0,8,0,12.6c-13.4,0-26.7,0-40.5,0
			c0,25.7,0,50.9,0,76.8c-4.6,0-8.9,0.1-13.1,0c-3.7-0.1-2.9-3-2.9-5.1c0-21.9,0-43.9,0-65.8C262.5,189.8,262.5,188,262.5,185.8z"/>
		<path d="M741.9,185.5c0,24,0,47.1,0,70.2c0,6.8,0,6.8-6.8,6.8c-10.3-0.1-9.1,1.2-9.1-8.9c0-20.6,0-41.2,0-61.8c0-1.8,0-3.6,0-6
			c-13.4,0-26.4,0-39.7,0c0-4.5,0-8.4,0-12.7c32,0,64.1,0,96.3,0c0,4,0,7.9,0,12.4C769.3,185.5,755.9,185.5,741.9,185.5z"/>
		<path d="M899.9,172.8c-6.5,7.3-11.8,13.5-17.3,19.6c-8.8,9.8-17.7,19.5-26.3,29.4c-1,1.2-1.4,3.3-1.4,4.9
			c-0.1,10.5-0.1,20.9,0,31.4c0,3.1-0.9,4.5-4.2,4.4c-14.2-0.3-11.5,1.8-11.7-11.4c-0.1-6.6-0.5-13.3,0.1-19.9
			c0.6-6.4-2.1-10.8-6.1-15.2c-12.9-14-25.7-28.2-39.4-43.3c7.1,0,13.1-0.2,19.1,0.2c1.5,0.1,3,1.9,4.1,3.2
			c9.2,10.5,18.4,21,27.6,31.5c1,1.1,1.8,2.3,3.1,4.1c5.2-6,10.4-11.8,15.3-17.7c5.4-6.5,10.7-13.2,16.1-19.7
			c0.6-0.8,1.9-1.5,2.9-1.5C887.3,172.7,892.9,172.8,899.9,172.8z"/>
		<path d="M462.5,262.5c0-30.1,0-59.6,0-89.4c5.2,0,10.2,0,15.6,0c0.1,1.5,0.2,3,0.2,4.4c0,26.4-0.1,52.8,0.1,79.2
			c0,4.6-1.2,6.4-5.9,5.9C469.3,262.3,466.1,262.5,462.5,262.5z"/>
		<path d="M647.4,173.2c0.6-0.2,0.9-0.3,1.2-0.3c14.3-0.7,14.3-0.7,14.3,13.6c0,23.6-0.1,47.1,0.1,70.7c0,4.1-1.2,5.7-5.4,5.4
			c-3.3-0.3-6.6-0.1-10.3-0.1C647.4,232.7,647.4,203.1,647.4,173.2z"/>
	</g>
</g>
</svg>
