<?xml version="1.0" encoding="utf-8"?>
<!-- Generator: Adobe Illustrator 24.3.0, SVG Export Plug-In . SVG Version: 6.00 Build 0)  -->
<svg version="1.1" id="Layer_1" xmlns="http://www.w3.org/2000/svg" xmlns:xlink="http://www.w3.org/1999/xlink" x="0px" y="0px"
	 viewBox="0 0 396.5 126.8" style="enable-background:new 0 0 396.5 126.8;" xml:space="preserve">
<style type="text/css">
	.st0{fill:#CD6727;}
	.st1{fill:#664913;}
</style>
<g>
	<g>
		<path class="st0" d="M39.2,0c1.4,4.8,2.9,9.6,4.2,14.4c0.4,1.6,1.1,2.2,2.7,2.1c4.2-0.1,8.3-0.1,12.5,0c0.7,0,1.7-0.3,2,0.7
			c0.3,0.9-0.6,1.2-1.2,1.6c-3.6,2.7-7.2,5.5-10.8,8.1c-1,0.7-1.3,1.4-0.9,2.7c1.4,4.5,2.7,9.1,4,13.6c0.2,0.7,0.7,1.4,0,2
			c-0.9,0.7-1.4-0.3-2-0.7c-3.4-2.6-6.8-5.1-10-7.8c-1.4-1.2-2.3-1-3.6,0.1c-3.2,2.6-6.4,5-9.7,7.5c-0.6,0.4-1.1,1.4-2,0.7
			c-0.7-0.5-0.2-1.3,0-2c1.4-4.3,2.7-8.6,4.1-12.9c0.4-1.3,0.2-1.9-0.8-2.7c-3.6-2.7-7.1-5.5-10.7-8.3c-0.5-0.4-1.2-0.7-1-1.5
			c0.3-1,1.1-0.7,1.8-0.7c4.4-0.1,8.7-0.1,13.1-0.1c1.4,0,2-0.4,2.4-1.8c1.5-5,3.1-10,4.6-15C38.3,0,38.7,0,39.2,0z"/>
		<path class="st0" d="M37.9,81.9c2.7-5.9,5.2-11.3,7.7-16.8c2.9-6.4,5.8-12.8,8.7-19.2c0.6-1.4,1.3-2,2.9-1.9c5.5,0.1,11,0,16.6,0
			c2.2,0,2.5,0.4,1.5,2.4c-12,25.4-24,50.7-36.1,76.1c-0.3,0.6-0.4,1.5-1.3,1.5c-0.9,0-1-0.9-1.3-1.5c-12-25.3-24-50.6-36-75.9
			c-1-2.1-0.7-2.5,1.5-2.5c5.5,0,11.1,0,16.6,0c1.6,0,2.4,0.5,3.1,2C26.8,57.4,31.9,68.7,37,80C37.2,80.4,37.4,80.9,37.9,81.9z"/>
	</g>
	<g>
		<path class="st1" d="M395.4,85.9c-3.1-0.1-6.3,0.1-9.4-0.2c-0.7-0.1-2,0.1-0.6-1.2c0.3-0.3,0.2-0.8,0-1.2
			c-2.9-5.4-5.8-10.8-8.8-16.3c-2.8,5.1-5.5,9.9-8.2,14.8c-0.2,0.4-0.3,0.9-0.4,1.4c-0.3,1,0,1.7,1.2,1.8c0.3,0,0.9,0,0.9,0.5
			c-0.1,0.5-0.6,0.4-1,0.4c-3-0.1-6-0.1-9,0c-0.3,0-0.9,0.2-0.9-0.4c0-0.5,0.5-0.4,0.8-0.4c2.2,0,3.7-1.2,4.7-3
			c3.4-5.6,6.8-11.3,10.2-16.9c0.3-0.5,0.2-0.8,0-1.2c-2.9-5.1-5.8-10.2-8.7-15.3c-1.2-2-2.7-3.5-5.3-3.5c-0.3,0-0.7-0.1-0.7-0.4
			c0-0.5,0.4-0.5,0.8-0.5c1.2,0,2.4,0,3.7,0.1c2.4,0.2,4.9-0.1,7.3-0.1c0.4,0,1-0.2,1,0.5c0,0.6-0.6,0.4-0.9,0.4
			c-1.6,0.2-1.9,0.9-1.1,2.6c1.9,3.8,3.9,7.5,5.9,11.2c0.3,0.6,0.7,1.3,1.2,2.1c2-3.3,3.9-6.5,5.7-9.7c0.7-1.3,1.6-2.5,2.1-3.9
			c0.6-1.6,0.2-2.2-1.5-2.3c-0.4,0-1.1,0.2-1.1-0.5c0-0.5,0.7-0.4,1.1-0.4c2.8,0.1,5.7,0.2,8.5,0c0.4,0,1-0.2,1,0.4
			c0,0.5-0.5,0.5-0.9,0.5c-2,0-3.1,1.3-4,2.8c-2.7,4.3-5.4,8.7-8.2,12.9c-1.1,1.7-1.2,2.9-0.1,4.7c3.2,5.2,6.1,10.6,9.1,15.9
			c1.2,2.1,2.8,3.6,5.3,3.7c0.2,0,0.3-0.1,0.5-0.1C395.4,85.2,395.4,85.5,395.4,85.9z"/>
		<path class="st1" d="M98.3,44.3c0.5-0.2,1-0.2,1.5-0.2c3.5,0.1,7,0.2,10.6,0c0.4,0,0.8,0,1.2,0.1c0.2,0,0.4,0.2,0.4,0.4
			s-0.2,0.3-0.5,0.4c-0.1,0-0.2,0-0.3,0c-2.5-0.1-2.7,0.9-2,3c3.6,10.2,7.2,20.4,10.8,30.6c0.6-0.7,0.7-1.5,1-2.2
			c3.6-9.4,7.2-18.7,10.2-28.3c0.1-0.3,0.2-0.6,0.2-0.9c0.4-1.6,0-2.1-1.7-2.3c-0.5,0-1.3,0.3-1.3-0.4s0.8-0.5,1.3-0.5
			c2.9,0.1,5.7,0.2,8.6,0c0.4,0,1.2-0.2,1.2,0.4c0.1,0.7-0.7,0.5-1.1,0.5c-1.7,0.1-2.7,1.1-3.4,2.5c-1.2,2.3-2,4.8-2.9,7.2
			c-4,10-7.7,20.1-12,30c-0.3,0.7-0.4,1.8-1.2,1.8c-1,0-1.1-1.1-1.3-1.9c-4.5-11.8-8.9-23.7-13.4-35.5c-1.3-3.4-2.6-4.3-6-4.2
			C98.3,44.8,98.3,44.5,98.3,44.3z"/>
		<path class="st1" d="M200.1,62.8c0-4.4,0.1-9.4-0.2-14.4c-0.1-2.4-0.8-3.1-3.2-3.3c-0.4,0-1.1,0.2-1.1-0.5c0-0.5,0.7-0.4,1.1-0.4
			c5.1,0.4,10.2-0.3,15.3,0.2c5.2,0.5,8.9,3.7,9.5,8.5c0.5,3.3-0.5,6.3-2.1,9.1c-1,1.6-2.2,3-3.5,4.4c-0.4,0.4-0.5,0.6-0.1,1.2
			c3.2,4.3,6.3,8.7,9.8,12.8c2.3,2.7,4.9,4.7,8.6,4.8c0.3,0,0.8-0.1,0.8,0.4c0,0.4-0.4,0.4-0.7,0.4c-2.3,0-4.6,0-6.9-0.1
			c-2.4-0.2-4.2-1.5-5.7-3.3c-3.3-4-6.2-8.4-9.1-12.7c-0.6-0.9-1.3-1.5-2.5-1.4c-1.6,0.1-3.1-0.1-4.7-0.2c-0.8,0-1,0.3-1,1
			c0.1,4.3-0.1,8.5,0.3,12.8c0.2,2.2,0.8,2.8,3.1,3c0.6,0,1.6-0.2,1.5,0.5c0,0.9-1,0.5-1.6,0.5c-3.3,0-6.7,0-10,0
			c-0.4,0-1.1,0.2-1.2-0.4c0-0.6,0.6-0.5,1-0.5c1.5,0,2-0.9,2.2-2.2c0.5-2.8,0.3-5.6,0.4-8.3C200.2,70.7,200.1,67,200.1,62.8z
			 M204.3,55.9c0,2.8,0,5.6,0,8.4c0,0.9,0.3,1.3,1.2,1.6c1.3,0.4,2.6,0.4,3.9,0.5c3.3,0.3,5.6-1,6.8-4.1c1.1-2.8,1.3-5.7,0.7-8.6
			c-0.7-3.7-2.5-6.6-6.5-7.5c-1.5-0.4-3.1-0.2-4.7-0.1c-1,0-1.4,0.5-1.4,1.6C204.4,50.4,204.3,53.2,204.3,55.9z"/>
		<path class="st1" d="M329,54.5c0,2.3,0,4.6,0,6.9c0,0.9,0.2,1.2,1.2,1.2c2.6-0.1,5.1,0,7.7-0.2c0.9-0.1,1.8-0.2,2.4-1.1
			c0.1-0.2,0.3-0.4,0.6-0.3c0.2,0.1,0.2,0.4,0.2,0.6c-0.3,2.3-0.5,4.6-0.6,6.9c0,0.3-0.1,0.6-0.4,0.6c-0.4,0-0.3-0.3-0.4-0.6
			c-0.5-3.2-0.8-3.5-4.1-3.7c-1.9-0.1-3.7-0.1-5.6-0.2c-0.6,0-1,0-1,0.8c0.1,5-0.2,9.9,0.1,14.9c0.1,2.2,1,3,3.2,3.2
			c1.9,0.2,3.7,0.2,5.6,0c2.6-0.3,3.6-1.1,4.2-3.7c0.1-0.4,0.1-0.8,0.2-1.1c0.1-0.2,0.2-0.4,0.4-0.4c0.3,0,0.3,0.3,0.3,0.5
			c-0.1,2.1-0.2,4.2-0.8,6.2c-0.3,1-1.1,1-1.9,1c-4.1-0.1-8.1-0.1-12.1-0.3c-2.1-0.1-4.3,0.2-6.4,0.1c-0.4,0-1,0.2-1-0.5
			c0-0.5,0.6-0.4,0.9-0.5c1.8-0.3,2.2-0.7,2.4-2.5c0.2-1.6,0.3-3.1,0.3-4.7c0-9.5,0-19.1,0-28.6c0-3-0.7-4-3.6-4.1
			c-0.3,0-0.8,0-0.8-0.4c0-0.5,0.5-0.5,0.9-0.5c1.6,0,3.1,0.1,4.7,0.1c4.8,0,9.6,0.3,14.4-0.2c2-0.2,1.9-0.2,1.6,1.8
			c-0.2,1.4-0.3,2.9-0.4,4.3c0,0.4,0.1,0.9-0.5,0.9c-0.5,0-0.4-0.5-0.4-0.8c-0.4-2.8-0.9-3.3-3.8-3.6c-2.2-0.2-4.3-0.2-6.5-0.2
			c-0.8,0-1.1,0.3-1,1.1C329,49.8,329,52.1,329,54.5z"/>
		<path class="st1" d="M162.4,72.9c0,2.4,0,4.7,0,7.1c0.1,2.5,0.9,3.4,3.3,3.6c1.8,0.2,3.6,0.2,5.5,0c2.7-0.3,3.8-1.2,4.3-3.9
			c0.1-0.5,0-1.3,0.6-1.2c0.7,0.1,0.4,0.9,0.3,1.4c-0.2,1.5-0.4,2.9-0.6,4.4c-0.2,1.2-0.9,1.8-2.1,1.8c-4.1-0.1-8.3-0.2-12.4-0.3
			c-2,0-4,0.1-6,0.1c-0.4,0-1.1,0.2-1.2-0.4c0-0.6,0.7-0.5,1-0.5c1.5,0,2-0.9,2.2-2.2c0.5-2.9,0.4-5.8,0.4-8.7c0.1-7,0-14,0-21.1
			c0-1.7-0.1-3.3-0.2-5c-0.1-1.9-0.9-2.7-2.8-2.9c-0.3,0-0.5,0-0.8,0s-0.7,0-0.7-0.4c0-0.5,0.4-0.5,0.7-0.5c1.6,0,3.2,0.1,4.8,0.1
			c4.7,0,9.5,0.3,14.2-0.2c2-0.2,2-0.2,1.8,1.8c-0.2,1.4-0.2,2.9-0.4,4.3c0,0.3,0,0.9-0.5,0.9s-0.4-0.6-0.4-0.9
			c-0.2-2.4-1-3.2-3.4-3.5c-2.3-0.3-4.7-0.2-7-0.3c-0.7,0-0.9,0.3-0.9,0.9c0,4.8,0,9.6,0,14.4c0,0.8,0.2,1,1,0.9c2.7,0,5.3,0,8-0.2
			c0.9-0.1,1.6-0.2,2.2-1c0.2-0.2,0.4-0.5,0.8-0.3c0.3,0.2,0.2,0.5,0.2,0.7c-0.5,2.1-0.4,4.3-0.7,6.5c0,0.3,0.1,0.8-0.4,0.8
			s-0.4-0.4-0.5-0.8c-0.3-2.7-0.9-3.3-3.6-3.4c-2-0.1-3.9-0.1-5.9-0.2c-0.8-0.1-1.1,0.2-1.1,1.1C162.5,68.1,162.4,70.5,162.4,72.9z"
			/>
		<path class="st1" d="M291,64.6c0.1,4.9-0.2,10.8,0.2,16.7c0.2,2.9,0.6,3.4,3.5,3.6c0.2,0,0.4,0,0.6,0.1c0.3,0.1,0.7,0,0.7,0.4
			s-0.4,0.4-0.7,0.4c-1.4,0-2.7,0-4.1-0.1c-2.4-0.2-4.9,0.1-7.3,0.1c-0.4,0-1,0.2-1-0.4s0.6-0.5,1-0.5c1.4,0,2-0.9,2.2-2.1
			c0.4-2.5,0.4-5.1,0.4-7.7c0-9.1,0-18.2,0-27.3c0-1-0.2-1.3-1.2-1.2c-2.7,0.1-5.5,0-8.2,0.2c-2.1,0.1-3.5,1.1-4.3,3
			c-0.1,0.3-0.2,0.9-0.7,0.8c-0.6-0.1-0.3-0.8-0.2-1.1c0.3-1.8,0.7-3.5,1.1-5.2c0.2-0.8,0.5-1.1,1.4-0.7c1.7,0.7,3.6,0.7,5.4,0.7
			c6.8,0.1,13.5,0,20.3,0c1.3,0,2.6-0.2,3.9-0.5c0.6-0.1,1-0.1,1,0.7c-0.1,2-0.1,3.9-0.1,5.9c0,0.3,0,0.8-0.4,0.8s-0.4-0.5-0.5-0.8
			c-0.4-2.4-1.2-3.2-3.7-3.5c-2.8-0.4-5.6-0.2-8.4-0.3c-1,0-0.8,0.6-0.8,1.1C291,53,291,58.2,291,64.6z"/>
		<path class="st1" d="M249.6,64.2c0-5.1,0-10.3,0-15.4c0-2.7-0.4-3.2-3.2-3.8c-0.3-0.1-0.7-0.1-0.6-0.5c0-0.4,0.4-0.4,0.7-0.4
			c1.1,0,2.2,0,3.3,0.1c2.3,0.2,4.6-0.1,6.9-0.1c0.4,0,1.1-0.2,1.1,0.5c0,0.5-0.7,0.4-1.1,0.4c-1.7,0.2-2.3,0.9-2.4,2.8
			c-0.2,4-0.2,8.1-0.2,12.1c0,6.7-0.1,13.3,0.2,20c0,0.4,0,0.8,0,1.2c0.2,3,0.6,3.4,3.6,3.7c0.1,0,0.3,0,0.4,0
			c0.3,0.1,0.8,0,0.8,0.5c0,0.4-0.5,0.4-0.8,0.4c-1.6,0-3.1,0.1-4.7-0.1c-2.2-0.2-4.3,0.2-6.5,0.1c-0.4,0-1,0.2-1.1-0.4
			c-0.1-0.7,0.6-0.5,1-0.6c1.7-0.3,2.1-0.7,2.4-2.7c0.2-1.7,0.3-3.5,0.3-5.2C249.6,72.8,249.6,68.5,249.6,64.2L249.6,64.2z"/>
		<g>
			<path class="st1" d="M182.9,122c-1.7,0-1.5-1.2-1.6-2.4c-0.2-2.6-0.5-5.3-0.8-8.3c-1.6,3.3-3,6.3-4.4,9.3
				c-0.2,0.4-0.2,1.1-0.8,1.1c-0.5,0-0.5-0.6-0.7-1c-1.5-2.9-2.9-5.8-4.5-9c-0.2,2.4-0.4,4.6-0.6,6.7c0,0.6,0,1.1-0.1,1.7
				c-0.1,0.8,0,1.5,1.1,1.6c-1.2,0-2.4,0-4.1,0c1.7-0.3,1.7-1.3,1.8-2.3c0.4-3.5,0.7-7,1.1-10.5c0.1-0.4,0-0.9,0.5-1.5
				c1.9,4,3.8,7.9,5.8,11.9c1.9-4,3.7-7.9,5.7-12c0.6,1.2,0.5,2.4,0.6,3.4c0.4,2.8,0.6,5.5,0.9,8.3c0.1,1.3,0.2,2.6,2.1,2.6
				c0.6,0-0.1,0.3,0,0.5C184.3,122,183.6,122,182.9,122z"/>
			<path class="st1" d="M159.6,122c-1.4-0.1-1.4-1-1.4-2c-0.2-2.7-0.5-5.4-0.7-8.2c-0.5,0.1-0.5,0.6-0.7,0.9c-1.3,2.8-2.6,5.6-4,8.4
				c-0.1,0.3-0.2,0.7-0.5,0.7c-0.5,0.1-0.5-0.4-0.6-0.7c-1.5-3-3-6.1-4.7-9.4c-0.3,3.2-0.5,6.1-0.7,9c-0.1,0.8,0.7,0.8,1.2,1.1
				c-1.2,0-2.5,0-3.7,0c1.1-0.2,1.2-1,1.3-1.9c0.4-3.9,0.8-7.7,1.3-11.6c0-0.3,0-0.6,0.5-0.8c1.9,3.8,3.7,7.7,5.8,11.8
				c1.9-4.1,3.8-7.9,5.6-11.8c0.1,0,0.3,0.1,0.4,0.1c0.3,2.4,0.5,4.9,0.8,7.3c0.2,1.6,0.4,3.3,0.5,4.9c0.1,1,0.6,1.6,1.6,1.7
				c0.4,0,0.7,0,0.5,0.5C161.2,122,160.4,122,159.6,122z"/>
			<path class="st1" d="M331.1,122c-2.4-2.5-4.8-5-7.1-7.6c-1.1-1.1-2.1-2.3-3.3-3.6c0,2.5,0,4.8,0,7.1c0,0.7,0,1.3,0.1,2
				c0.1,1,0.3,1.8,1.6,1.9c-1.4,0-2.7,0-4.1,0c1.3-0.2,1.3-1.2,1.3-2.2c0-3.4,0-6.9,0-10.3c0-0.5,0-1,0.1-2c3.8,4.1,7.3,7.8,11,11.9
				c0-0.8,0-1.4,0-2c0-2.3-0.1-4.6-0.2-6.9c-0.1-1.8-0.1-1.8-1.7-2.2c0.7-0.2,2.6-0.3,4.4-0.1c-1.8,0.4-1.6,1.5-1.6,2.5
				c0,3.9,0,7.8-0.1,11.6C331.4,122,331.2,122,331.1,122z"/>
			<path class="st1" d="M222.5,122c-3.5-3.7-7.1-7.3-10.5-11.3c-0.4,1,0,1.8,0,2.5c0,2,0,4,0.1,6c0,1.1,0.1,2.3,1.7,2.5
				c-1.4,0-2.7,0-4.1,0c1.5-0.3,1.2-1.5,1.2-2.5c0-3.6,0.1-7.2,0.1-10.8c0-0.3,0.1-0.6,0.1-1.2c3.7,4,7.2,7.8,11,11.8
				c0-2.2,0-4.1,0-6.1c0-1-0.1-1.9-0.1-2.9c0-1.1-0.2-2.1-1.7-2.1c1.4-0.3,2.7,0.1,4.1-0.2c-1.4,0.5-1.3,1.6-1.3,2.6
				c0,3.9,0,7.8,0,11.6C222.8,122,222.6,122,222.5,122z"/>
			<path class="st1" d="M128.2,122c-0.3-0.5-0.8-0.5-1.3-0.7c-2.6-1.4-4.1-4.6-3.5-7.7c0.6-3.3,2.8-5.6,6-6c4.1-0.6,7.6,1.4,8.4,5
				c0.9,3.9-0.9,7.5-4.5,9.1c-0.2,0.1-0.5,0-0.4,0.3C131.4,122,129.8,122,128.2,122z M136.1,114.8c0.1-1.1-0.2-2.4-0.8-3.6
				c-1.1-2-2.7-3.1-5-3c-2.1,0.1-3.8,1.1-4.6,3.1c-0.9,2.4-0.8,4.9,0.6,7.2c1.2,2.1,3.4,3.1,5.6,2.7c2-0.3,3.4-1.9,4-4.2
				C136.1,116.4,136.1,115.8,136.1,114.8z"/>
			<path class="st1" d="M350.7,122c-1.6-0.7-2.8-1.9-4-3.2c-1.2-1.3-2.4-2.5-3.8-4c0,2.2-0.1,4.1,0.2,6c0.1,0.8,1,0.5,1.6,1
				c-1.6,0-3,0-4.4,0c1.1-0.4,1.1-1.2,1.1-2.1c0-3.3,0-6.5,0-9.8c0-1.1-0.2-1.8-1.5-1.9c1.4-0.4,2.9,0.1,4.3-0.2
				c-1.3,0.5-1.2,1.6-1.2,2.5c0,1.2,0,2.3,0,3.9c1.8-1.9,3.4-3.6,5-5.3c0.2-0.2,0.3-0.4,0.1-0.7c-0.2-0.3-0.1-0.6,0.2-0.5
				c1.1,0.2,2.1-0.1,3.5,0.1c-3.2,1.1-4.8,3.8-7,5.7c-0.5,0.4-0.2,0.7,0.1,0.9c2,2,3.8,4.1,5.9,5.9c0.6,0.6,1.3,1,2.2,1.1
				c0.5,0,0.5,0.2,0.3,0.6C352.4,122,351.6,122,350.7,122z"/>
			<path class="st1" d="M285.8,122c1.9-1.6,1.1-3.8,1.2-5.7c0.1-2,0-4.1,0-6.1c0-1.1-0.1-2.1-1.5-2.3c2.2,0.1,4.3-0.6,6.4,0.3
				c1.6,0.6,2.2,2.3,1.4,3.9c-0.3,0.6-0.8,1.2-1.2,1.9c0.3,0.2,0.6,0.3,0.9,0.5c1.4,0.9,2.3,2.2,2.1,3.9c-0.2,1.7-1.4,3-3.2,3.4
				c-0.2,0.1-0.5-0.1-0.7,0.3C289.5,122,287.6,122,285.8,122z M288.6,117.4C288.7,117.4,288.7,117.4,288.6,117.4c0,0.8,0,1.6,0,2.3
				c0,0.5,0.1,0.9,0.5,1.1c1.3,0.9,3.5,0.2,4.1-1.2c0.7-2-0.7-4.7-2.8-5.1c-1.6-0.4-1.8-0.2-1.8,1.5
				C288.6,116.4,288.6,116.9,288.6,117.4z M292.1,111.7c0-2.1-0.9-3.2-2.4-3.3c-0.7,0-1.1,0.1-1.1,1c0.1,1,0,1.9,0,2.9
				c0,1.5,0.4,1.9,1.9,1.5C291.9,113.5,292,112.4,292.1,111.7z"/>
			<path class="st1" d="M194.7,122c-2.8-1.3-3.5-3.6-3.5-6.5c0-1.8,0-3.7,0-5.5c0-1.6,0-1.6-1.4-2.2c1.4-0.2,2.9,0.1,4.4,0
				c-1.1,0.2-1.3,1.1-1.3,1.9c0,2.7-0.2,5.3,0.1,8c0.3,2.2,1.6,3.5,3.6,3.6c2.2,0.1,3.6-1,4-3.2c0.5-3,0.2-6,0.2-9
				c0-0.9-0.9-0.9-1.5-1.2c1.3-0.3,2.7,0.1,4.1-0.1c-1.3,0.3-1.3,1.2-1.3,2.2c-0.1,2.5,0.2,5-0.1,7.4c-0.2,2-1.2,3.5-3.1,4.3
				c-0.1,0.1-0.2,0.1-0.1,0.3C197.5,122,196.1,122,194.7,122z"/>
			<path class="st1" d="M110.4,122c-0.2-0.5-0.7-0.4-1.1-0.5c-2.6-1.1-4.2-3.1-4.4-6c-0.2-3.2,0.8-5.8,3.8-7.3
				c2.1-1,4.3-0.9,6.5-0.6c2.3,0.3,2.3,0.3,2.2,2.8c0,0.4,0.1,0.8-0.3,1.3c-0.2-1.6-0.8-2.7-2.3-3.1c-1.3-0.4-2.6-0.4-3.9-0.2
				c-2.4,0.3-3.9,2.2-4.2,4.7c-0.6,5.3,3.5,8.7,8,7.9c1.4-0.3,1.5-0.3,2.8-2.5c-0.1,1.3,0.2,2.7-1.3,3.5
				C114.3,122,112.4,122,110.4,122z"/>
			<path class="st1" d="M310.1,122c0-1.8-1-3.3-1.5-5c-0.1-0.3-0.2-0.6-0.6-0.6c-1.1,0-2.3,0-3.4,0c-0.2,0-0.4,0.1-0.5,0.3
				c-0.4,1.3-0.9,2.5-1.3,3.8c-0.2,0.7,0.3,1,0.9,1.1c-1.3,0-2.7,0-4,0c1.4-0.2,1.9-1.2,2.3-2.4c1.3-3.6,2.6-7.2,3.9-10.8
				c0.1-0.4,0.2-0.8,0.6-1.1c0.5,0.3,0.6,0.9,0.7,1.3c1.4,3.5,2.7,7,4.1,10.4c0.4,1.1,0.8,2.1,2.3,2.2c0.4,0-0.1,0.3,0,0.5
				C312.4,122,311.3,122,310.1,122z M306.2,110.4c-0.3,1-0.6,1.6-0.8,2.3c-1,3.1-1,3.1,2.3,3c0.1,0,0.1-0.1,0.2-0.2
				C307.5,113.9,306.9,112.3,306.2,110.4z"/>
			<path class="st1" d="M257.7,107.8c1.2,0,2.4,0,3.8-0.2c-0.4,0.6-0.6,1-0.3,1.5c1.1,1.8,2.1,3.7,3.3,5.7c1.1-2,2.2-3.8,3.2-5.6
				c0.3-0.5,0.2-1-0.5-1.4c1.4,0,2.5,0,3.7,0c-1.2,0.5-1.9,1.4-2.6,2.4c-0.6,0.9-1.1,1.9-1.7,2.8c-1.6,2.1-1.6,4.4-1.5,6.8
				c0,1.1,0.5,1.8,1.6,1.9c-1.5,0-3,0-4.5,0c1.1-0.3,1.1-1.3,1.2-2.2c0.6-4.5-2.3-7.5-4.6-10.8C258.7,108.3,258.1,108.2,257.7,107.8
				z"/>
			<path class="st1" d="M241.9,110.2c-0.2-1,0-1.5,0.1-2.1c0.1-0.5,0.2-0.6,0.8-0.5c3.3,0.3,6.7,0.3,10,0.1c0.5,0,0.8,0,0.7,0.6
				s0.1,1.2-0.1,1.8c-0.8-1.1-3.3-1.9-4.5-1.4c-0.4,0.2-0.3,0.5-0.3,0.8c0,3.5,0,7,0,10.5c0,1.1,0.4,1.8,1.6,1.8c-1.5,0-2.9,0-4.7,0
				c1.3-0.3,1.4-1.1,1.4-1.9c0-3.4,0-6.7,0.1-10.1c0-0.8-0.2-1.2-1.1-1.1c-0.4,0.1-0.8,0-1.2,0C243.6,108.6,242.5,108.6,241.9,110.2
				z"/>
			<path class="st1" d="M236,121.8c-1.5,0-3,0-4.5,0c1.1-0.3,1.2-1.2,1.2-2.1c0-3.3,0-6.5,0-9.8c0-1-0.1-1.8-1.2-2.1
				c1.4,0,2.7,0,4.1,0c-1.1,0.3-1.1,1-1.1,1.9c-0.2,3.3-0.1,6.6,0,9.9C234.4,120.7,234.5,121.7,236,121.8z"/>
		</g>
	</g>
</g>
</svg>
