<svg width="200px" height="40px" viewBox="0 0 121 27" version="1.1" xmlns="http://www.w3.org/2000/svg" xmlns:xlink="http://www.w3.org/1999/xlink">
    <g id="yellow-grey" stroke="none" stroke-width="1" fill="none" fill-rule="evenodd">
        <line x1="11.523" y1="24.378" x2="1.046" y2="24.378" id="Fill-1" fill="#0A0B09"></line>
        <polygon id="Fill-2" fill="#ECBB29" points="1.046 24.977 11.523 24.977 11.523 23.778 1.046 23.778"></polygon>
        <path d="M9.511,5.853 L9.511,5.813 C9.511,4.033 8.051,2.633 5.95,2.633 C3.85,2.633 2.589,4.173 2.589,5.913 L2.589,5.953 C2.589,7.734 3.99,9.014 6.03,9.014 C8.171,9.014 9.511,7.454 9.511,5.853 Z M1.289,13.995 L2.209,12.775 C3.349,13.775 4.41,14.275 5.65,14.275 C8.171,14.275 9.871,11.715 9.811,8.134 C9.051,9.354 7.79,10.374 5.85,10.374 C2.97,10.374 0.969,8.553 0.969,6.033 L0.969,5.993 C0.969,3.333 3.03,1.232 6.01,1.232 C7.611,1.232 8.791,1.772 9.691,2.673 C10.751,3.733 11.431,5.293 11.431,8.094 L11.431,8.134 C11.431,12.575 9.071,15.716 5.61,15.716 C3.79,15.716 2.47,14.975 1.289,13.995 L1.289,13.995 Z" id="Fill-3" fill="#ECBB29"></path>
        <polyline id="Fill-4" fill="#646561" points="25.01 9.934 19.189 1.472 21.109 1.472 25.83 8.473 30.591 1.472 32.431 1.472 26.611 9.914 26.611 15.475 25.01 15.475 25.01 9.934"></polyline>
        <polyline id="Fill-5" fill="#646561" points="47.41 1.373 45.93 1.373 39.549 15.475 41.169 15.475 46.651 3.213 52.092 15.475 53.792 15.475 47.41 1.373"></polyline>
        <path d="M70.43,8.614 C72.531,8.614 74.031,7.534 74.031,5.733 L74.031,5.693 C74.031,3.972 72.711,2.932 70.451,2.932 L66.129,2.932 L66.129,8.614 L70.43,8.614 Z M64.549,1.472 L70.571,1.472 C72.291,1.472 73.671,1.993 74.551,2.873 C75.231,3.553 75.632,4.533 75.632,5.634 L75.632,5.674 C75.632,7.994 74.031,9.354 71.831,9.754 L76.132,15.475 L74.191,15.475 L70.13,10.034 L66.129,10.034 L66.129,15.475 L64.549,15.475 L64.549,1.472 L64.549,1.472 Z" id="Fill-6" fill="#646561"></path>
        <path d="M91.869,14.015 C95.41,14.015 97.671,11.615 97.671,8.513 L97.671,8.473 C97.671,5.373 95.41,2.932 91.869,2.932 L88.589,2.932 L88.589,14.015 L91.869,14.015 Z M87.009,1.472 L91.869,1.472 C96.27,1.472 99.311,4.493 99.311,8.433 L99.311,8.473 C99.311,12.415 96.27,15.475 91.869,15.475 L87.009,15.475 L87.009,1.472 L87.009,1.472 Z" id="Fill-7" fill="#646561"></path>
        <path d="M109.529,13.435 L110.509,12.275 C111.969,13.595 113.369,14.255 115.31,14.255 C117.191,14.255 118.431,13.255 118.431,11.875 L118.431,11.835 C118.431,10.534 117.731,9.794 114.79,9.174 C111.569,8.473 110.089,7.433 110.089,5.134 L110.089,5.094 C110.089,2.892 112.03,1.272 114.69,1.272 C116.731,1.272 118.191,1.852 119.611,2.993 L118.691,4.213 C117.391,3.153 116.09,2.692 114.65,2.692 C112.829,2.692 111.669,3.693 111.669,4.953 L111.669,4.993 C111.669,6.313 112.389,7.053 115.47,7.714 C118.591,8.394 120.031,9.534 120.031,11.675 L120.031,11.715 C120.031,14.115 118.031,15.676 115.25,15.676 C113.03,15.676 111.209,14.935 109.529,13.435" id="Fill-8" fill="#646561"></path>
        <path d="M20.727,23.246 L20.727,23.232 C20.727,21.839 21.771,20.697 23.256,20.697 C24.159,20.697 24.706,21.012 25.175,21.46 L24.622,22.097 C24.229,21.733 23.809,21.488 23.249,21.488 C22.31,21.488 21.631,22.259 21.631,23.218 L21.631,23.232 C21.631,24.191 22.31,24.976 23.249,24.976 C23.851,24.976 24.236,24.731 24.657,24.339 L25.21,24.899 C24.699,25.431 24.139,25.767 23.221,25.767 C21.792,25.767 20.727,24.654 20.727,23.246" id="Fill-9" fill="#646561"></path>
        <path d="M40.364,23.736 L39.517,21.775 L38.676,23.736 L40.364,23.736 Z M39.132,20.746 L39.93,20.746 L42.088,25.683 L41.176,25.683 L40.68,24.5 L38.361,24.5 L37.857,25.683 L36.974,25.683 L39.132,20.746 L39.132,20.746 Z" id="Fill-10" fill="#646561"></path>
        <path d="M56.071,23.33 C56.722,23.33 57.129,22.966 57.129,22.455 L57.129,22.44 C57.129,21.866 56.716,21.565 56.071,21.565 L55.07,21.565 L55.07,23.33 L56.071,23.33 Z M54.208,20.781 L56.141,20.781 C57.283,20.781 58.005,21.432 58.005,22.42 L58.005,22.433 C58.005,23.533 57.122,24.107 56.043,24.107 L55.07,24.107 L55.07,25.683 L54.208,25.683 L54.208,20.781 L54.208,20.781 Z" id="Fill-11" fill="#646561"></path>
        <polygon id="Fill-12" fill="#646561" points="70.218 25.683 71.079 25.683 71.079 20.781 70.218 20.781"></polygon>
        <polyline id="Fill-13" fill="#646561" points="84.876 21.579 83.321 21.579 83.321 20.781 87.299 20.781 87.299 21.579 85.744 21.579 85.744 25.683 84.876 25.683 84.876 21.579"></polyline>
        <path d="M101.831,23.736 L100.984,21.775 L100.143,23.736 L101.831,23.736 Z M100.598,20.746 L101.397,20.746 L103.554,25.683 L102.643,25.683 L102.146,24.5 L99.828,24.5 L99.324,25.683 L98.441,25.683 L100.598,20.746 L100.598,20.746 Z" id="Fill-14" fill="#646561"></path>
        <polyline id="Fill-15" fill="#646561" points="115.675 20.781 116.537 20.781 116.537 24.899 119.114 24.899 119.114 25.683 115.675 25.683 115.675 20.781"></polyline>
    </g>
</svg>