<?xml version="1.0" encoding="utf-8"?>
<!-- Generator: Adobe Illustrator 24.3.0, SVG Export Plug-In . SVG Version: 6.00 Build 0)  -->
<svg version="1.1" id="Layer_1" xmlns="http://www.w3.org/2000/svg" xmlns:xlink="http://www.w3.org/1999/xlink" x="0px" y="0px"
	 viewBox="0 0 555.1 154.5" style="enable-background:new 0 0 555.1 154.5;" xml:space="preserve">
<style type="text/css">
	.st0{fill:#FEFEFE;}
	.st1{fill:#D2313A;}
	.st2{fill:#585A5C;}
</style>
<g>
	<rect x="360.8" y="5.3" class="st0" width="158.5" height="82.6"/>
	<g>
		<path class="st1" d="M555.1,92c-3,1.4-5.9,3.1-8.8,4.7c-34.6,19-69.2,38-103.8,57.1c-1.7,0.9-3.2,0.9-4.9,0
			C399.4,133.4,361.2,113,323,92.5c-0.4-0.2-0.7-0.4-1.1-0.8c0.4,0,0.8,0,1.2,0c12.1,0,24.2,0,36.3,0c1.1,0,1.4-0.3,1.4-1.4
			c0-29.6,0-59.2,0-88.9c0-0.5,0-1,0-1.6c52.9,0,105.7,0,158.6,0c0,0.3,0,0.6,0,0.8c0,29.9,0,59.8,0,89.8c0,0.9,0.2,1.2,1.2,1.2
			c11.5,0,23.1,0,34.6,0C555.1,91.8,555.1,91.9,555.1,92z M394.6,44.8c0.5-0.1,0.7-0.2,1-0.2c5.4-1.2,9.4-4.2,11-9.7
			c1.4-4.4,1.3-8.9-0.4-13.3c-1.6-4.1-4.2-7.2-8.8-8.1c-1.8-0.4-3.6-0.5-5.4-0.5c-6.7,0-13.3,0-20,0c-1.1,0-1.4,0.3-1.4,1.4
			c0,18.6,0,37.2,0,55.8c0,0.2,0,0.4,0,0.6c-0.1,0.6,0.2,0.8,0.7,0.7c1.3,0,2.6-0.1,3.8,0c1.2,0.1,1.6-0.2,1.6-1.5
			c-0.1-7.7,0-15.4-0.1-23.1c0-1.1,0.3-1.3,1.3-1.3c2.2,0.1,4.4,0,6.6,0c2.5,0,4.7,0.9,6.3,2.9c1.1,1.4,2.1,2.8,2.9,4.4
			c3.2,5.8,6.1,11.8,9.1,17.8c0.2,0.4,0.3,0.9,0.9,0.9c2.3,0,4.7,0,7.1,0c-0.1-0.3-0.2-0.5-0.3-0.7c-2.7-5.4-5.4-10.9-8.2-16.2
			C400.7,50.8,398.6,47.2,394.6,44.8z M448.2,71.4c-0.9-2.3-1.4-4.4-1.5-6.7c-0.3-4.4-0.1-8.9-0.2-13.3c0-4.2,0.1-8.4-0.2-12.6
			c-0.5-6.2-3.4-9.5-9.3-10.5c-2.1-0.3-4.1-0.3-6.2-0.1c-5.6,0.6-9.4,3.4-11.2,8.8c-0.3,1-0.5,2.1-0.9,3.1c-0.2,0.7-0.2,1,0.7,1.1
			c0.8,0.1,1.5,0.3,2.2,0.4c0.8,0.1,1.8,0.6,2.4,0.3c0.6-0.3,0.5-1.5,0.8-2.3c0.9-2.9,2.6-5,5.8-5.5c1.4-0.2,2.9-0.2,4.3,0
			c3.2,0.5,5.2,2.3,5.8,5.5c0.2,1.1,0.1,2.1,0.2,3.2c0.1,1.2-0.4,1.7-1.5,2.1c-3.4,1.1-6.9,1.7-10.4,2.3c-3.3,0.6-6.4,1.6-8.6,4.3
			c-3.1,3.9-3.5,8.4-2.2,13c1.2,4.2,4.1,6.6,8.4,7.4c4.5,0.8,8.4-0.6,11.8-3.4c0.9-0.7,1.8-1.6,2.7-2.4c0.2,1.5,0.4,2.9,0.8,4.3
			c0.1,0.5,0.4,0.8,1,0.8C444.6,71.4,446.3,71.4,448.2,71.4z M495.8,52.1c3.7,0,7.4-0.1,11.1,0c1.1,0,1.3-0.4,1.3-1.4
			c0-2.2-0.1-4.4-0.4-6.6c-0.6-4.2-1.8-8.1-4.7-11.3c-2.9-3.3-6.5-5-10.9-4.7c-5.4,0.3-9.1,3.1-11.7,7.6c-2.1,3.6-2.8,7.5-3.1,11.6
			c-0.3,5.3-0.1,10.5,2,15.5c3.3,7.8,10.9,11.4,18.6,8.8c5.9-2,8.4-6.8,9.8-12.4c0.1-0.5-0.1-0.7-0.6-0.8c-1.5-0.2-2.9-0.5-4.4-0.8
			c-0.6-0.1-0.8,0.1-1,0.6c-0.5,1.7-1.2,3.2-2.2,4.6c-3,4.1-8.4,4.6-12.1,1.1c-2.9-2.8-3.8-6.4-4.2-10.2c-0.2-2.1-0.3-1.7,1.6-1.7
			C488.6,52.1,492.2,52.1,495.8,52.1z M465.2,14.2c-1.8,1.4-3.3,2.6-4.9,3.7c-0.7,0.5-1,1-0.9,1.9c0.1,2.5,0.1,5,0.1,7.5
			c0,1.9,0.2,1.6-1.6,1.7c-2.6,0-2.6,0-2.6,2.6c0,1-0.4,2.3,0.2,2.9c0.6,0.6,1.9,0.2,2.9,0.2c0.9,0,1.2,0.2,1.2,1.2
			c-0.1,6.3,0,12.7-0.1,19c0,3.3-0.1,6.6,0.2,9.9c0.3,3.7,1.9,5.9,4.8,6.7c2.2,0.6,4.4,0.4,6.6-0.1c0.7-0.2,0.5-0.5,0.5-1
			c-0.2-1.5-0.5-2.9-0.6-4.4c-0.1-1-0.3-1.4-1.4-1c-0.1,0.1-0.3,0-0.5,0.1c-2.8,0.2-3.9-0.7-4-3.5c-0.1-3.2,0-6.4,0-9.6
			c0-5.4,0.1-10.8,0-16.2c0-1,0.3-1.3,1.3-1.2c1.2,0.1,2.4,0,3.6,0c0.6,0,0.9-0.1,0.8-0.8c0-1.4,0-2.7,0-4.1c0-0.7-0.2-0.9-0.9-0.9
			c-1.2,0-2.5,0-3.7,0c-0.8,0-1.1-0.2-1.1-1c0-2.4,0-4.9,0-7.3C465.2,18.6,465.2,16.6,465.2,14.2z"/>
		<path class="st2" d="M24.3,34c0-1.6,0-2.8,0-4c0-0.7,0.2-1,0.9-1c1.1,0.1,2.2,0.1,3.2,0c0.9-0.1,1.1,0.2,1.1,1.1
			c0,7.2,0,14.4,0,21.6c0,5.9,0,11.7-0.1,17.6c0,2.7-0.3,5.3-0.8,8c-1.5,7.2-7,11.6-14.4,11.4c-4.2-0.1-8-1.2-10.6-4.7
			c-1.8-2.5-2.4-5.3-2.5-8.3c0-0.6,0.2-0.7,0.7-0.6c1.5,0.3,2.9,0.5,4.4,0.8c0.5,0.1,0.7,0.3,0.7,0.8c0.6,4.6,4.1,6.5,8.6,5.9
			c4.4-0.5,6.9-2.9,7.7-7.3c0.6-2.9,0.5-5.9,0.5-9.1c-0.8,0.9-1.5,1.7-2.2,2.4c-4.3,3.9-10.7,3.7-15.1-0.4c-3.3-3.1-5-7-5.8-11.3
			c-1.2-7-1-13.9,2-20.5c1.7-3.6,4.1-6.4,8-7.7c4.9-1.6,9.4-0.2,12.6,3.9C23.6,33,23.8,33.3,24.3,34z M6,49.6c0,1.8,0.1,3.7,0.3,5.5
			c0.5,3,1.4,5.9,3.7,8.1c2.9,2.8,6.9,2.9,10,0.3c1.5-1.3,2.6-2.9,3.2-4.8c1.5-4.7,1.5-9.6,0.8-14.4c-0.5-3.2-1.6-6-4-8.2
			c-3-2.7-7-2.6-9.8,0.2c-1.1,1.1-2,2.4-2.6,3.8C6.2,43.2,5.9,46.4,6,49.6z"/>
		<path class="st2" d="M341.8,66.2c-0.9,1.4-1.6,2.5-2.6,3.4c-3.7,3.5-9.3,3.6-13.5,0.4c-4-3.1-6.1-7.3-7-12.2
			c-1.2-6.8-1.1-13.5,1.3-20.1c1.2-3.2,3-6,5.9-7.9c5.1-3.3,11.1-2.1,14.6,2.8c0.2,0.3,0.4,0.6,0.8,1.1c0-0.9,0-1.5,0-2.2
			c0-5.8,0-11.6,0-17.4c0-1.2,0.3-1.5,1.5-1.4c1.2,0.1,2.4,0,3.6,0c0.6,0,0.8,0.2,0.7,0.7c0,0.2,0,0.4,0,0.6c0,18.6,0,37.2,0,55.8
			c0,1.1-0.3,1.4-1.4,1.3c-1.1-0.1-2.2,0-3.2,0c-0.6,0-0.8-0.2-0.7-0.8C341.9,69.3,341.8,67.9,341.8,66.2z M341.9,50.3
			c0-1.1-0.1-2.9-0.3-4.6c-0.4-3.3-1.2-6.4-3.5-9c-2.9-3.3-7.3-3.4-10.3-0.2c-1.2,1.2-2,2.6-2.5,4.2c-1.7,5.3-1.6,10.6-0.8,16
			c0.5,3.3,1.8,6.2,4.5,8.3c2.3,1.9,5.2,2,7.7,0.3c1.9-1.3,3.2-3.2,4-5.4C341.7,56.9,341.9,53.9,341.9,50.3z"/>
		<path class="st2" d="M172.3,71.4c-1.9,0-3.6,0-5.3,0c-0.5,0-0.8-0.2-0.9-0.7c-0.4-1.4-0.6-2.8-0.8-4.3c-1.2,1.1-2.3,2.2-3.6,3.1
			c-3.3,2.4-7,3.4-11.1,2.7c-4.2-0.8-7.2-3.2-8.3-7.3c-1.4-5.2-0.9-10.1,3.1-14.1c2-2,4.7-2.8,7.4-3.3c3.5-0.7,7-1.2,10.4-2.3
			c1.2-0.4,1.9-0.9,1.7-2.3c-0.1-0.9-0.1-1.9-0.2-2.9c-0.5-3.2-2.4-5.2-5.6-5.7c-1.5-0.3-3.1-0.2-4.7,0c-3,0.5-4.7,2.5-5.6,5.3
			c-0.3,0.8-0.1,2.1-0.9,2.4c-0.7,0.3-1.8-0.2-2.7-0.4c-0.2,0-0.5-0.1-0.7-0.2c-2.2-0.4-2.2-0.4-1.6-2.5c2-8.1,7.3-11.4,16.5-10.8
			c2,0.1,3.9,0.5,5.6,1.5c3.9,2,5.1,5.5,5.3,9.5c0.4,6.5,0.1,13,0.2,19.5c0,2.9,0,5.8,0.5,8.7C171.3,68.7,171.7,70,172.3,71.4z
			 M164.8,50.3c-3.2,1.5-6.4,2.3-9.7,2.9c-1.3,0.3-2.6,0.5-3.8,1c-2.4,1-3.9,3.5-3.6,6.3c0.2,3.2,1.8,5.2,4.5,5.9
			c5.1,1.4,10.6-1.9,12-7.3C164.9,56.2,164.9,53.3,164.8,50.3z"/>
		<path class="st2" d="M108.8,71.4c-1.9,0-3.6,0-5.3,0c-0.5,0-0.8-0.2-0.9-0.7c-0.4-1.3-0.6-2.7-0.8-4.2c-0.8,0.4-1.3,1.1-1.9,1.6
			c-3.6,3.2-7.7,4.9-12.6,4.1c-4.5-0.7-7.5-3.3-8.6-7.7c-1.3-5.1-0.6-9.8,3.3-13.7c2-2,4.7-2.8,7.4-3.3c3.4-0.6,6.9-1.2,10.3-2.2
			c1.3-0.4,2-1,1.7-2.4c-0.1-1,0-2.1-0.2-3.1c-0.6-3.1-2.5-4.9-5.6-5.4c-1.5-0.2-3-0.2-4.5,0c-3.1,0.5-4.8,2.5-5.6,5.3
			c-0.3,0.8-0.1,2-0.8,2.4c-0.7,0.3-1.7-0.2-2.5-0.3c-0.6-0.1-1.1-0.3-1.7-0.3c-1.1-0.1-1.3-0.5-1.1-1.6c1.3-5.6,4-9.9,10-11.2
			c2.3-0.5,4.7-0.7,7.1-0.4c1.8,0.2,3.6,0.6,5.3,1.5c3.2,1.7,4.8,4.6,5.1,8.1c0.2,1.9,0.3,3.9,0.3,5.9c0,6.8-0.1,13.6,0.2,20.5
			C107.4,66.6,107.9,68.9,108.8,71.4z M101.4,50.2c-2.8,1.4-5.6,2.1-8.4,2.7c-1.7,0.4-3.4,0.6-5,1.2c-2.6,1.1-3.9,3.4-3.7,6.7
			c0.2,2.8,1.9,4.9,4.4,5.6c4.2,1.2,9-1,11.1-5.1C101.6,57.9,101.3,54.1,101.4,50.2z"/>
		<path class="st2" d="M258.8,52.1c-3.8,0-7.6,0-11.4,0c-0.8,0-1.1,0.1-1,1.1c0.4,4,1.2,7.9,4.3,10.9c3.6,3.5,9.1,3,12-1
			c1-1.3,1.7-2.8,2.1-4.4c0.2-0.9,0.6-1.1,1.5-0.9c1.3,0.3,2.7,0.5,4,0.7c0.5,0.1,0.7,0.2,0.6,0.8c-1.4,6-4.8,11.8-11.9,12.9
			c-7.3,1.2-13.4-2.3-16.4-9.1c-2.2-5.2-2.4-10.7-2-16.2c0.2-3.3,0.9-6.6,2.3-9.6c2-4.2,5-7.4,9.7-8.6c6.2-1.7,12.1,1,15.6,7
			c1.9,3.3,2.7,7,3,10.7c0.1,1.5,0.1,3,0.2,4.5c0,0.9-0.2,1.4-1.3,1.4C266.2,52.1,262.5,52.1,258.8,52.1z M255.9,46
			c2.8,0,5.6,0,8.4,0c0.6,0,1-0.1,0.9-0.8c-0.3-2.2-0.6-4.3-1.7-6.3c-2.7-5-8.6-6.3-12.7-2.7c-2.8,2.4-3.8,5.7-4.1,9.3
			c-0.1,0.7,0.4,0.6,0.8,0.6C250.3,46,253.1,46,255.9,46z"/>
		<path class="st2" d="M297.6,52.1c-3.8,0-7.5,0-11.3,0c-0.9,0-1.2,0.3-1.1,1.2c0.3,3.3,0.9,6.6,3,9.3c2.2,2.9,5.1,4.4,8.9,3.5
			c2.8-0.7,4.4-2.7,5.6-5.2c0.4-0.8,0.7-1.7,1-2.6c0.2-0.6,0.4-0.9,1.2-0.7c1.4,0.3,2.8,0.5,4.2,0.8c0.4,0.1,0.8,0.2,0.6,0.7
			c-1.3,6-4.7,11.7-11.5,12.9c-7.8,1.4-14.2-2.3-17-9.7c-1.9-4.9-2.1-10-1.8-15.2c0.2-3.6,0.9-7.1,2.5-10.3c2.5-4.9,6.2-8.3,12-8.7
			c5.3-0.4,9.3,1.9,12.3,6.2c2.5,3.5,3.4,7.5,3.8,11.7c0.2,1.7,0.1,3.4,0.2,5.1c0,0.8-0.3,1-1,1C305.3,52.1,301.4,52.1,297.6,52.1z
			 M294.8,46c2.8,0,5.6,0,8.4,0c0.5,0,1,0.1,0.9-0.7c-0.2-2.4-0.6-4.7-1.9-6.8c-3-5-9-5.9-13.1-1.8c-2.4,2.4-3.2,5.4-3.5,8.7
			c-0.1,0.7,0.4,0.6,0.8,0.6C289.2,46,292,46,294.8,46z"/>
		<path class="st2" d="M62.9,65.6c-0.9,1.1-1.5,2.1-2.3,3c-3.2,3.5-7.1,4.6-11.6,3.3c-4.3-1.3-6.6-4.4-7.5-8.8
			c-0.5-2.4-0.6-4.8-0.6-7.3c0-8.5,0-17.1,0-25.6c0-0.9,0.2-1.3,1.2-1.2c1.1,0.1,2.2,0.1,3.4,0c1-0.1,1.2,0.3,1.2,1.2
			c0,8,0,16,0,24.1c0,1.9,0.1,3.7,0.4,5.6c0.4,2.8,1.7,5,4.5,5.9c3,0.9,5.6,0,7.8-2.2c2.3-2.4,2.8-5.4,2.9-8.5
			c0.3-8.1,0.1-16.1,0.1-24.2c0-1.9,0-1.9,1.9-1.9c1.3,0,2.9-0.6,3.7,0.2c0.7,0.7,0.2,2.4,0.2,3.6c0,12.4,0,24.8,0,37.2
			c0,1.1-0.3,1.4-1.3,1.3c-0.9-0.1-1.8-0.1-2.6,0c-1.1,0.1-1.3-0.3-1.3-1.3C63,68.7,62.9,67.2,62.9,65.6z"/>
		<path class="st2" d="M187.7,34.8c1-1.5,1.7-2.7,2.8-3.7c3.3-3,7.1-3.7,11.2-2.4c4.2,1.3,6.4,4.3,7.3,8.5c0.4,2.1,0.5,4.2,0.5,6.3
			c0,8.9,0,17.8,0,26.7c0,0.9-0.2,1.3-1.2,1.2c-1.1-0.1-2.2-0.1-3.4,0c-0.9,0.1-1.1-0.2-1.1-1.1c0-8,0-16,0-24.1
			c0-1.9-0.1-3.7-0.4-5.6c-0.6-3.4-2.5-5.7-5.2-6.1c-3.5-0.6-6.8,0.9-8.4,3.9c-1.4,2.7-1.8,5.6-1.8,8.6c0,7.7,0,15.5,0,23.2
			c0,0.9-0.2,1.3-1.2,1.2c-1.2-0.1-2.5-0.1-3.7,0c-0.7,0-0.9-0.2-0.9-0.9c0-1.5,0-3,0-4.4c0-11.9,0-23.9,0-35.8
			c0-1.1,0.3-1.4,1.3-1.3c1,0.1,2.1,0.1,3.1,0c0.7,0,0.9,0.2,0.9,0.9C187.7,31.4,187.7,32.9,187.7,34.8z"/>
		<path class="st2" d="M228.2,14.2c0,4.7,0,9,0,13.3c0,1.2,0.3,1.6,1.5,1.5c1.1-0.1,2.2,0,3.4,0c0.5,0,0.8,0.1,0.8,0.7
			c0,1.4,0,2.9,0,4.3c0,0.6-0.3,0.7-0.8,0.7c-1.3,0-2.6,0-4,0c-0.7,0-0.9,0.2-0.9,0.9c0,1.7,0,3.4,0,5c0,6.8,0,13.6,0,20.5
			c0,0.6,0.1,1.1,0.2,1.7c0.3,1.7,1.2,2.4,2.9,2.4c0.6,0,1.1,0,1.7-0.2c0.7-0.1,1-0.1,1.1,0.7c0.1,1.5,0.4,3.1,0.6,4.6
			c0.1,0.7,0,1-0.7,1.2c-1.7,0.4-3.5,0.5-5.2,0.3c-3.6-0.5-5.6-2.9-6-6.8c-0.3-3.1-0.2-6.1-0.2-9.2c0.1-6.6,0-13.2,0.1-19.9
			c0-0.9-0.2-1.3-1.2-1.2c0,0-0.1,0-0.1,0c-1-0.1-2.3,0.4-2.9-0.2c-0.6-0.6-0.2-1.9-0.2-2.9c0-2.6,0-2.6,2.6-2.6
			c1.9,0,1.7,0.4,1.7-1.7c0-2.6-0.1-5.2-0.1-7.8c0-0.4,0-0.8,0.4-1.2C224.5,17.1,226.2,15.7,228.2,14.2z"/>
		<path class="st2" d="M124.3,34.8c0.5-1,1-2,1.6-2.9c2.3-4,5.6-4.8,9.6-2.5c1.7,1,1.7,1,1.1,2.8c-0.4,1.5-0.9,2.9-1.3,4.4
			c-0.2,0.6-0.3,0.7-0.9,0.3c-4-2.7-7.8-0.4-8.8,3.8c-0.7,2.6-1,5.3-1,8c0,7.1,0,14.2,0,21.3c0,1.3-0.4,1.6-1.5,1.5
			c-1.1-0.1-2.2-0.1-3.4,0c-0.7,0-0.9-0.2-0.9-0.9c0-2.9,0-5.7,0-8.6c0-10.5,0-21.1,0-31.6c0-1.1,0.3-1.4,1.3-1.3
			c0.9,0.1,1.8,0.1,2.8,0c0.8-0.1,1.1,0.2,1.1,1c-0.1,1.6,0,3.2,0,4.7C124.2,34.8,124.3,34.8,124.3,34.8z"/>
		<path class="st1" d="M527.8,78.2c0-5.4,4.4-9.6,10-9.6c5.5,0,9.9,4.4,9.9,9.8c-0.1,5.3-4.5,9.6-9.9,9.6
			C532.2,87.9,527.7,83.5,527.8,78.2z M537.7,70.9c-4.2,0-7.8,3.3-7.8,7.3c0,3.9,3.4,7.3,7.5,7.3c4.3,0.1,7.8-3.2,7.9-7.2
			C545.4,74.2,542,70.9,537.7,70.9z"/>
		<path class="st1" d="M376.8,29.1c0-2.9,0-5.7,0-8.6c0-0.8,0.2-1.1,1.1-1.1c4.6,0,9.1,0,13.7,0c4.7,0,7.8,2,9,5.7
			c1.2,4,0.8,7.8-2.2,11c-1.9,2-4.5,2.4-7,2.5c-4.5,0.1-9.1,0-13.6,0.1c-0.8,0-0.8-0.4-0.8-1C376.8,34.9,376.8,32,376.8,29.1z"/>
		<path class="st1" d="M440.7,50.3c0.1,3.2,0.2,6.2-0.7,9.1c-1.5,5.2-6.9,8.4-12,7c-2.7-0.7-4.3-2.9-4.5-5.9
			c-0.2-2.8,1.3-5.3,3.8-6.3c1.6-0.6,3.3-0.9,5-1.2C435.2,52.3,438,51.5,440.7,50.3z"/>
		<path class="st1" d="M492.9,46c-2.8,0-5.6,0-8.4,0c-0.7,0-0.9-0.1-0.9-0.9c0.3-2.7,0.9-5.3,2.6-7.5c3.9-5.2,10.9-4.7,14.1,0.9
			c1.2,2.1,1.6,4.3,1.8,6.6c0.1,0.7-0.3,0.8-0.8,0.7C498.5,46,495.7,46,492.9,46z"/>
		<path class="st1" d="M539.5,78.5c1.5,1.2,1.4,3.1,1.9,4.7c0.1,0.3,0,0.5-0.3,0.5c-0.4,0-1,0.3-1.2-0.5c-0.2-0.8-0.4-1.5-0.6-2.3
			c-0.1-0.5-0.3-1.1-0.8-1.4c-0.7-0.5-1.5-0.5-2.2-0.3c-0.5,0.2-0.2,0.9-0.2,1.4c0,0.8,0,1.7,0,2.5c0,0.6-0.2,0.7-0.7,0.7
			c-0.5,0-0.7-0.2-0.7-0.7c0-3.1,0-6.2,0-9.3c0-0.4,0.1-0.7,0.6-0.8c1.3-0.1,2.5-0.3,3.8,0.1c1.1,0.3,1.8,1,2,2.1
			C541.5,76.6,540.9,77.7,539.5,78.5z M536.2,75.9c0,2.2,0,2.3,1.8,2c1.2-0.2,1.9-1.1,1.8-2.2c-0.1-1.2-1.1-1.7-2.6-1.7
			c-1.6,0-0.9,1.1-1,1.8C536.2,75.8,536.2,75.8,536.2,75.9z"/>
	</g>
</g>
</svg>
