<svg xmlns="http://www.w3.org/2000/svg" viewBox="0 0 1200 937"><defs><style>.cls-1{isolation:isolate;}.cls-2,.cls-4{fill:#9dc7e0;}.cls-2{opacity:0.15;}.cls-3{opacity:0.25;mix-blend-mode:multiply;}.cls-5{fill:#fff;}.cls-5,.cls-7,.cls-8{stroke:#0c1733;stroke-linecap:round;stroke-linejoin:round;stroke-width:2px;}.cls-6{fill:#edf4f8;}.cls-7{fill:none;}.cls-8{fill:#ff0;}</style></defs><title>01_Vector</title><g class="cls-1"><g id="Layer_1" data-name="Layer 1"><path class="cls-2" d="M804.2,787.44c-118.63,4.45-247.92-31.93-361.62-85.27h0A1061.64,1061.64,0,0,1,313,630C186.74,547.34,105.44,452.31,127.61,398.05c73-178.61,444.86-232.46,666.13-200.76C870,208.21,919.56,249.56,951.32,311c14.13,27.31,24.73,58.59,32.57,92.93,4.67,20.42,8.36,41.92,11.24,64.31C1012.48,603.08,1059.2,777.88,804.2,787.44Z"/><g class="cls-3"><path class="cls-4" d="M983.89,403.88l-18.84,15.38V500l-.19.75a7.82,7.82,0,0,1-.44,1.69,7.17,7.17,0,0,1-.8,1.51,6.72,6.72,0,0,1-.41.66l-.18.32-1.19,1.2-70,70v22.42L930,659.11a9.17,9.17,0,0,1,1.41,4.87V709.4a9.15,9.15,0,0,1-9.13,9.13H906.42a9.12,9.12,0,0,1-7-3.33l-40.32-49a9.16,9.16,0,0,1-2.08-5.8V641.22l-10.38-10.38-18.43,8.73a9.12,9.12,0,0,1-9.95-1.41l-10.68-9.45H767v15.36a9.14,9.14,0,0,1-9.13,9.13h-24a9.08,9.08,0,0,1-6.45-2.67l-5.24-5.24H691.15L641.5,676.66v29.67a9.14,9.14,0,0,1-12.89,8.33L601.55,702.4a9.17,9.17,0,0,1-4.41-4.26L569,641.46h-12.2l-9,12.13a9.13,9.13,0,0,1-13.54,1.26l-19.89-18.36a9.15,9.15,0,0,1-2.94-6.71v-12l-22-22H478.87V597a9.15,9.15,0,0,1-9.13,9.13H428.57a9.1,9.1,0,0,1-5.08-1.55l-56.55-37.92H339.77a9.14,9.14,0,0,1-9.13-9.12v-19.7l-39.85-39.85a9.17,9.17,0,0,1-2.48-4.58l-21.09-100a9.17,9.17,0,0,1,.07-4.07l30.62-123.51a9.12,9.12,0,0,1,8.86-6.94h21.49v-1.07a9.14,9.14,0,0,1,9.13-9.13h68.39a8.07,8.07,0,0,1,1.11.07l331.72,40.82a9.13,9.13,0,0,1,5.73,15.1l6.51-5.25a9.17,9.17,0,0,1,10.95-1.64l51,28.13A9.12,9.12,0,0,1,808.43,343c4.09,0,5.65,2,7.37,4.3l28.06,38.28a9.12,9.12,0,0,1,.55,10L837,408.35h1l65.9-50V337.61a9.11,9.11,0,0,1,5.48-8.36L951.32,311C965.45,338.26,976.05,369.54,983.89,403.88Z"/><path class="cls-4" d="M442.57,702.16A1061.64,1061.64,0,0,1,313,630V612.44a9.06,9.06,0,0,1,5.82-8.51l30.11-11.74a9.14,9.14,0,0,1,6.25-.13l35.16,11.72a9.11,9.11,0,0,1,6.24,8.66v60.78h13.33a9,9,0,0,1,6.45,2.68Z"/></g><path class="cls-5" d="M999.31,281.85,979.4,239.49a9.15,9.15,0,0,0-8.26-5.25h-27a9.14,9.14,0,0,0-9.12,9.13v32.81l-54.75,23.89a9.15,9.15,0,0,0-5.47,8.37v20.73l-65.9,50h-1l7.41-12.84a9.14,9.14,0,0,0-.54-10L786.62,318.1c-1.71-2.34-3.28-4.3-7.36-4.3h0a9.12,9.12,0,0,0,4.4-17.12l-51-28.13a9.18,9.18,0,0,0-11,1.64l-6.51,5.25a9.13,9.13,0,0,0-5.73-15.1L377.72,219.51a10.36,10.36,0,0,0-1.12-.07H308.22a9.14,9.14,0,0,0-9.13,9.13v1.08h-21.5a9.12,9.12,0,0,0-8.86,6.93L238.11,360.09a9.17,9.17,0,0,0-.07,4.07l21.09,100a9.14,9.14,0,0,0,2.48,4.57l39.86,39.86v19.69a9.13,9.13,0,0,0,9.13,9.13h27.16l56.55,37.92a9.13,9.13,0,0,0,5.09,1.55h41.16a9.15,9.15,0,0,0,9.13-9.13v-1.16h10.65l22,22v12a9.16,9.16,0,0,0,2.93,6.71l19.89,18.36a9.13,9.13,0,0,0,13.54-1.26l9-12.13h12.2L568,669a9.17,9.17,0,0,0,4.42,4.27l27.06,12.25a9.13,9.13,0,0,0,12.88-8.32V647.49L662,616.12h31.08l5.24,5.23a9.07,9.07,0,0,0,6.46,2.68h24a9.14,9.14,0,0,0,9.13-9.13V599.53h40.49L789,609a9.1,9.1,0,0,0,10,1.41l18.42-8.73,10.38,10.39v19.18a9.18,9.18,0,0,0,2.08,5.8l40.32,49a9.12,9.12,0,0,0,7,3.32h15.82a9.14,9.14,0,0,0,9.13-9.13V634.8a9.1,9.1,0,0,0-1.4-4.86l-38.15-60.55V547l70-70,1.2-1.2.17-.31a7,7,0,0,0,.42-.66,7.74,7.74,0,0,0,.79-1.51,8,8,0,0,0,.45-1.7l.18-.74V390.09l26.75-21.83h1.71l1.18-2.36,11.4-9.3A9.07,9.07,0,0,0,979,344.91l-13.63-23.24,31.83-29.21A9.11,9.11,0,0,0,999.31,281.85Z"/><path class="cls-5" d="M387.14,646.72a9.07,9.07,0,0,0-6.46-2.68H367.36V583.26a9.11,9.11,0,0,0-6.24-8.66L326,562.88a9.11,9.11,0,0,0-6.26.14l-30.11,11.73a9.08,9.08,0,0,0-5.81,8.51v31.19H273a9.14,9.14,0,0,0-9.13,9.13v38.27a9.1,9.1,0,0,0,3.53,7.2H250a9.14,9.14,0,0,0-9.13,9.13v11.48a9.13,9.13,0,0,0,9.13,9.13h37a9.08,9.08,0,0,0,6.45-2.67L315.57,674h46L401.53,714a9.14,9.14,0,0,0,12.91,0L428,700.46a9.14,9.14,0,0,0,0-12.91Z"/><path class="cls-6" d="M924.14,385.77v22.64h-20L917,392.78a2.66,2.66,0,0,0-.37-3.7l-6.57-5.27,3.42-11.66,10,6Z"/><path class="cls-6" d="M821.68,458.67l-10.15,11.06-84.35,15.42,4.59-9.84h0l6.47-14.14H757a2.63,2.63,0,0,0,1.88-.78l22.77-23.08L814,443Z"/><polygon class="cls-6" points="941.48 353.37 941.48 370.35 928.96 380.57 928.65 376.58 927.06 355.64 941.48 353.37"/><path class="cls-6" d="M616.4,312.16V375H596.26v-9.65a2.61,2.61,0,0,0-2.61-2.61h-59V312.16Z"/><path class="cls-6" d="M430.13,324.42v17.21H367.64V231.19h7.22l38.45,91.61a2.67,2.67,0,0,0,2.43,1.62Z"/><polygon class="cls-6" points="867.22 413.49 867.22 417.9 825.64 454.89 818.81 440.93 840.23 413.39 867.22 413.49"/><polygon class="cls-6" points="955 359.34 946.7 366.1 946.7 352.56 949.15 352.17 955 359.34"/><path class="cls-6" d="M362.42,231.19V283.8h-62.5V265.31a2.6,2.6,0,0,0-2.61-2.61H274.36l5.27-21.31h28.59a2.62,2.62,0,0,0,2.61-2.61v-7.59Z"/><polygon class="cls-6" points="987.86 285.11 954.21 315.99 946.7 305.32 946.7 245.98 969.5 245.98 987.86 285.11"/><path class="cls-6" d="M362.42,289v52.61H254.77l18.29-73.71h21.65v18.49a2.61,2.61,0,0,0,2.6,2.61Z"/><path class="cls-6" d="M726.13,583.33v28.95H705.82l-7.15-7.12a2.53,2.53,0,0,0-1.83-.78h-34.4V552.94h37.38l-.24,27.75a2.59,2.59,0,0,0,.76,1.85,2.62,2.62,0,0,0,1.85.79Z"/><path class="cls-6" d="M908.85,369.39,905,382.56l-35.79,8.58a2.6,2.6,0,0,0-2,2.53v14.61l-25.64-.11v-38L901.39,365Z"/><polygon class="cls-6" points="883.19 509.82 853.53 539.5 820.12 505.57 839.18 496 883.19 509.82"/><polygon class="cls-6" points="517.91 468.92 517.91 554.87 453.71 554.87 453.71 461.77 517.91 468.92"/><polygon class="cls-6" points="924.14 413.62 924.14 463.99 912.24 453.01 902.04 413.62 924.14 413.62"/><path class="cls-6" d="M923,470l-35.63,35.61-47.6-14.95a2.56,2.56,0,0,0-2,.16l-22.67,11.37H803.26l36.89-32.42,68.94-12.6Z"/><path class="cls-6" d="M702.32,388.35l-16.38,21.34H632l-10.35-32.51V364.9h66.22v11.68a2.75,2.75,0,0,0,.19.92l.07.15a2.2,2.2,0,0,0,.47.71l.13.13a.33.33,0,0,1,.11.1s.08.06.13.11l.13.08Z"/><path class="cls-6" d="M958.36,332.89H935.43v-44.1l6.05-2.64v20a2.57,2.57,0,0,0,.47,1.48l9.6,13.59.05.11.06.08Z"/><path class="cls-6" d="M541.9,390.41v75.93L521,464a2.89,2.89,0,0,0-.53,0l-66.8-7.44V390.41Z"/><path class="cls-6" d="M739.65,390.93v54.72l-5.27,11.53a3.24,3.24,0,0,0-.19.37L729,468.92,690.45,412.4l17.63-23a2.58,2.58,0,0,0,.53-2,2.69,2.69,0,0,0-1.07-1.72l-9-6.5h33.7v9.13a2.61,2.61,0,0,0,2.61,2.61Z"/><path class="cls-6" d="M732.24,314.37V374H693.06V354.8a2.63,2.63,0,0,0-1.2-2.21l-20.74-13.17V320.87l7.2-12.89L693,314.17a2.22,2.22,0,0,0,.94.18l.08,0Z"/><path class="cls-6" d="M906.69,452.33l-68,12.44a.82.82,0,0,0-.26.06L820,468.19l6.49-7.12.11-.1.1-.08s0-.08.08-.11l43.58-38.71,31.49,11.82Z"/><polygon class="cls-6" points="900.3 427.71 872.44 417.27 872.44 413.52 896.64 413.62 900.3 427.71"/><path class="cls-6" d="M778.17,390.93v42.49L756,456H740.66l4-8.64a2.63,2.63,0,0,0,.23-1.09v-55.3Z"/><path class="cls-6" d="M836.37,373v36.83l-21.73,27.91-31.25-5.48V390.93h28.53a2.58,2.58,0,0,0,1.57-.55Z"/><path class="cls-6" d="M793.74,553.56v21.73h-35a2.62,2.62,0,0,0-2.61,2.61v9.89h-7.64V507.45h30.44Z"/><path class="cls-6" d="M547.12,423.3V387.8a2.61,2.61,0,0,0-2.61-2.61h-9.83V368h56.37v9.65a2.61,2.61,0,0,0,2.6,2.61H617.1l13.72,43.09Z"/><path class="cls-6" d="M923.07,371.76l-9.6-5.71c-.13-.06-.26-.16-.39-.21l-9.76-5.79a2.52,2.52,0,0,0-1.56-.37l-54,4.72,37.71-28.61a2.61,2.61,0,0,0,1-2.09V310.15l25.3-11,8.56,36.77,1.38,17.95Z"/><path class="cls-6" d="M649.42,483.53v56L569.55,522V491.41a2.59,2.59,0,0,0-2.61-2.61H523.12V469.5Z"/><polygon class="cls-6" points="529.46 250.03 529.46 319.2 417.46 319.2 380.76 231.71 529.46 250.03"/><path class="cls-6" d="M711.68,507.45l-11.21,40.27h-38v-3.26a2.57,2.57,0,0,0-2-2.53l-5.76-1.28V484.1L703,489.48v15.36a2.61,2.61,0,0,0,2.61,2.61Z"/><polygon class="cls-6" points="616.4 260.72 616.4 306.94 534.68 306.94 534.68 250.65 616.4 260.72"/><path class="cls-6" d="M769.12,302.06H734.85a2.62,2.62,0,0,0-2.61,2.61v4.49h-32l28.51-29.37Z"/><polygon class="cls-6" points="911.33 391.5 897.45 408.41 872.44 408.3 872.44 395.73 906.45 387.57 911.33 391.5"/><polygon class="cls-6" points="830.18 471.63 795.36 502.23 719.22 502.23 724.49 490.96 830.18 471.63"/><path class="cls-6" d="M667.11,343l20.73,13.2v3.44H621.62V261.35l81.46,10-27.68,31.4a1.21,1.21,0,0,1-.16.16v0a2,2,0,0,0-.28.36s0,0-.05.05l-8.66,15.52a2.36,2.36,0,0,0-.34,1.28v20.66A2.56,2.56,0,0,0,667.11,343Z"/><polygon class="cls-6" points="930.22 291.06 930.22 332.89 925 332.89 916.63 296.98 930.22 291.06"/><polygon class="cls-6" points="648.33 478.15 547.12 466.91 547.12 428.52 632.49 428.52 648.33 478.15"/><path class="cls-6" d="M417.82,694,408,703.83l-40.77-40.77a2.61,2.61,0,0,0-1.85-.75H311.79a2.59,2.59,0,0,0-1.85.75l-24,24H252.63V680.8h26.5A2.57,2.57,0,0,0,281,680l16.33-16.33a2.54,2.54,0,0,0,.57-2.84,2.6,2.6,0,0,0-2.4-1.62H275.61V626.18h17.3a2.62,2.62,0,0,0,2.61-2.61V585.05l27.57-10.75,32.52,10.85v68a2.62,2.62,0,0,0,2.61,2.61h21.39Z"/><polyline class="cls-7" points="779.26 313.8 744.04 313.8 744.04 381.93"/><line class="cls-7" x1="715.16" y1="275.44" x2="691.82" y2="301.64"/><polygon class="cls-8" points="359.51 505.18 340.08 528.69 310.1 528.69 310.1 505.18 267.5 462.58 246.38 362.4 250.86 344.34 296.81 344.34 296.81 402.27 359.51 505.18"/><polygon class="cls-8" points="450.83 459.14 450.83 557.91 440.27 557.91 440.27 568.22 399.04 568.22 340.08 528.69 359.51 505.18 359.51 452.02 386.77 452.02 450.83 459.14"/><polygon class="cls-8" points="659.88 544.87 659.88 607.49 659.37 607.49 603.15 643.01 603.15 677.77 576.06 665.5 545.39 603.65 522.9 603.65 511.14 619.5 491.21 601.1 491.21 585.25 463.86 557.91 520.34 557.91 520.34 491.72 566.86 491.72 566.86 524.43 652.05 543.15 659.88 544.87"/><polygon class="cls-8" points="971.67 349.62 959.16 359.83 950.72 349.45 944.58 350.42 924.74 353.55 923.37 335.57 963.43 335.57 971.67 349.62"/><polygon class="cls-8" points="807.6 361.89 792.27 388.47 751.89 388.47 751.89 323.55 779.49 323.55 807.6 361.89"/><polygon class="cls-8" points="893.47 635.35 893.47 680.84 877.63 680.84 837.25 631.77 837.25 608.77 819.61 591.13 795.33 602.63 782.04 590.88 758.89 590.88 758.89 578.35 844.66 578.35 844.66 570.81 853.86 570.81 853.86 572.48 893.47 635.35"/><polygon class="cls-8" points="853.86 543.6 853.86 570.81 844.66 570.81 844.66 578.35 796.61 578.35 796.61 553.56 781.02 505.18 816.03 505.18 853.86 543.6"/><polygon class="cls-8" points="746.01 505.18 746.01 590.88 728.89 590.88 728.89 581.16 702.31 581.16 702.56 550.75 715.26 505.18 746.01 505.18"/><polygon class="cls-8" points="386.77 344.34 386.77 452.02 359.51 452.02 359.51 505.18 296.81 402.27 296.81 344.34 386.77 344.34"/><polygon class="cls-8" points="450.83 387.96 450.83 459.14 386.77 452.02 386.77 344.34 432.43 344.34 432.43 387.96 450.83 387.96"/><rect class="cls-8" x="432.43" y="321.85" width="99.5" height="66.11"/><polygon class="cls-8" points="729.57 474.51 722.84 488.94 722.83 488.94 715.26 505.18 705.72 505.18 705.72 487.46 652.05 481.5 652.05 481.49 634.41 426.12 630.07 412.49 687.31 412.49 729.57 474.51"/></g></g></svg>