<svg xmlns="http://www.w3.org/2000/svg" viewBox="0 0 1200 937"><defs><style>.cls-1{isolation:isolate;}.cls-2,.cls-4{fill:#9dc7e0;}.cls-2{opacity:0.15;}.cls-3{opacity:0.25;mix-blend-mode:multiply;}.cls-5{fill:#fff;}.cls-5,.cls-7,.cls-8{stroke:#0c1733;stroke-linecap:round;stroke-linejoin:round;stroke-width:2px;}.cls-6{fill:#edf4f8;}.cls-7{fill:none;}.cls-8{fill:#cfdde5;}</style></defs><title>01_Vector</title><g class="cls-1"><g id="Layer_1" data-name="Layer 1"><path class="cls-2" d="M1029.36,445.85c-15.9,64.44-65.93,122.07-128.11,167.68C887,624,872.19,633.75,857,642.85c-44.92,26.89-93.09,47.74-137.75,61-163.94,48.57-373.3,80.55-426.17,62-114.62-40.13-39.5-161-21.79-353.39,1.49-16.19,2.57-32.88,3.1-50.08,0-.66.05-1.33.08-2A132.26,132.26,0,0,1,287,309.77c8.73-18.59,21.77-35.66,38.49-50.94.95-.88,1.92-1.74,2.9-2.6q4.42-3.9,9.16-7.61c81.11-63.77,231.26-91.48,397.11-60.32,92.78,17.43,174.92,51.8,229.48,97.41,18.81,15.72,34.34,32.78,45.89,50.94C1031.16,369.84,1039,406.72,1029.36,445.85Z"/><g class="cls-3"><path class="cls-4" d="M1008.2,374.08a9.09,9.09,0,0,1-2.12,11.7l-11.39,9.3-1.18,2.35H991.8l-26.75,21.83V500l-.19.75a8,8,0,0,1-.44,1.7,7.44,7.44,0,0,1-.8,1.51,6.72,6.72,0,0,1-.41.66l-.18.31-1.19,1.2-70,70v22.42l9.43,15C887,624,872.19,633.75,857,642.85v-1.63l-10.38-10.38-18.43,8.73a9.1,9.1,0,0,1-9.95-1.41l-10.68-9.45H767v15.37a9.15,9.15,0,0,1-9.13,9.13h-24a9,9,0,0,1-6.45-2.68l-5.24-5.23H691.15L641.5,676.67v29.67a9.13,9.13,0,0,1-12.89,8.32l-27.06-12.25a9.19,9.19,0,0,1-4.41-4.27L569,641.47h-12.2l-9,12.13a9.13,9.13,0,0,1-13.54,1.26l-19.89-18.37a9.14,9.14,0,0,1-2.94-6.7v-12l-22-22H478.87V597a9.14,9.14,0,0,1-9.13,9.13H428.57a9.09,9.09,0,0,1-5.08-1.54l-56.55-37.92H339.77a9.15,9.15,0,0,1-9.13-9.13v-19.7l-39.85-39.85a9.14,9.14,0,0,1-2.48-4.57l-17.05-80.89-4-19.14a9.17,9.17,0,0,1,.07-4.07l7.15-28.86L287,309.77l10.91-44a9.12,9.12,0,0,1,8.86-6.93h21.49v-1.08a8.51,8.51,0,0,1,.13-1.52,9.14,9.14,0,0,1,9-7.61h68.39a8.07,8.07,0,0,1,1.11.07l331.72,40.83a9.13,9.13,0,0,1,5.73,15.1l6.51-5.26a9.15,9.15,0,0,1,10.95-1.63l51,28.12a9.12,9.12,0,0,1,4.43,10.27,9.13,9.13,0,0,1-8.84,6.86c4.09,0,5.65,2,7.37,4.29l28.06,38.28a9.13,9.13,0,0,1,.55,10L837,408.36h1l65.9-50V337.62a9.13,9.13,0,0,1,5.48-8.37l54.74-23.89V285.71c18.81,15.72,34.34,32.78,45.89,50.94l-15.46,14.19Z"/><path class="cls-4" d="M457.14,729.63l-13.52,13.53a9.14,9.14,0,0,1-12.91,0l-39.94-39.94h-46l-4.34,4.34a554.33,554.33,0,0,1-47.35-31.3V652.75a9.15,9.15,0,0,1,9.13-9.13H313V612.44a9.06,9.06,0,0,1,5.82-8.51l30.11-11.74a9.14,9.14,0,0,1,6.25-.13l35.16,11.72a9.11,9.11,0,0,1,6.24,8.66v60.78h13.33a9,9,0,0,1,6.45,2.68l40.83,40.82A9.14,9.14,0,0,1,457.14,729.63Z"/></g><path class="cls-5" d="M999.31,281.85,979.4,239.49a9.15,9.15,0,0,0-8.26-5.25h-27a9.14,9.14,0,0,0-9.12,9.13v32.81l-54.75,23.89a9.15,9.15,0,0,0-5.47,8.37v20.73l-65.9,50h-1l7.41-12.84a9.14,9.14,0,0,0-.54-10L786.62,318.1c-1.71-2.34-3.28-4.3-7.36-4.3h0a9.12,9.12,0,0,0,4.4-17.12l-51-28.13a9.18,9.18,0,0,0-11,1.64l-6.51,5.25a9.13,9.13,0,0,0-5.73-15.1L377.72,219.51a10.36,10.36,0,0,0-1.12-.07H308.22a9.14,9.14,0,0,0-9.13,9.13v1.08h-21.5a9.12,9.12,0,0,0-8.86,6.93L238.11,360.09a9.17,9.17,0,0,0-.07,4.07l21.09,100a9.14,9.14,0,0,0,2.48,4.57l39.86,39.86v19.69a9.13,9.13,0,0,0,9.13,9.13h27.16l56.55,37.92a9.13,9.13,0,0,0,5.09,1.55h41.16a9.15,9.15,0,0,0,9.13-9.13v-1.16h10.65l22,22v12a9.16,9.16,0,0,0,2.93,6.71l19.89,18.36a9.13,9.13,0,0,0,13.54-1.26l9-12.13h12.2L568,669a9.17,9.17,0,0,0,4.42,4.27l27.06,12.25a9.13,9.13,0,0,0,12.88-8.32V647.49L662,616.12h31.08l5.24,5.23a9.07,9.07,0,0,0,6.46,2.68h24a9.14,9.14,0,0,0,9.13-9.13V599.53h40.49L789,609a9.1,9.1,0,0,0,10,1.41l18.42-8.73,10.38,10.39v19.18a9.18,9.18,0,0,0,2.08,5.8l40.32,49a9.12,9.12,0,0,0,7,3.32h15.82a9.14,9.14,0,0,0,9.13-9.13V634.8a9.1,9.1,0,0,0-1.4-4.86l-38.15-60.55V547l70-70,1.2-1.2.17-.31a7,7,0,0,0,.42-.66,7.74,7.74,0,0,0,.79-1.51,8,8,0,0,0,.45-1.7l.18-.74V390.09l26.75-21.83h1.71l1.18-2.36,11.4-9.3A9.07,9.07,0,0,0,979,344.91l-13.63-23.24,31.83-29.21A9.11,9.11,0,0,0,999.31,281.85Z"/><path class="cls-5" d="M387.14,646.72a9.07,9.07,0,0,0-6.46-2.68H367.36V583.26a9.11,9.11,0,0,0-6.24-8.66L326,562.88a9.11,9.11,0,0,0-6.26.14l-30.11,11.73a9.08,9.08,0,0,0-5.81,8.51v31.19H273a9.14,9.14,0,0,0-9.13,9.13v38.27a9.1,9.1,0,0,0,3.53,7.2H250a9.14,9.14,0,0,0-9.13,9.13v11.48a9.13,9.13,0,0,0,9.13,9.13h37a9.08,9.08,0,0,0,6.45-2.67L315.57,674h46L401.53,714a9.14,9.14,0,0,0,12.91,0L428,700.46a9.14,9.14,0,0,0,0-12.91Z"/><path class="cls-6" d="M924.14,385.77v22.64h-20L917,392.78a2.66,2.66,0,0,0-.37-3.7l-6.57-5.27,3.42-11.66,10,6Z"/><path class="cls-6" d="M821.68,458.67l-10.15,11.06-84.35,15.42,4.59-9.84h0l6.47-14.14H757a2.63,2.63,0,0,0,1.88-.78l22.77-23.08L814,443Z"/><polygon class="cls-6" points="941.48 353.37 941.48 370.35 928.96 380.57 928.65 376.58 927.06 355.64 941.48 353.37"/><path class="cls-6" d="M616.4,312.16V375H596.26v-9.65a2.61,2.61,0,0,0-2.61-2.61h-59V312.16Z"/><path class="cls-6" d="M356.73,504.6l-17.42,21.11H313.2V504.84a2.54,2.54,0,0,0-.76-1.85l-42-42-20.79-98.7,3.83-15.47h41.22v55.24a2.58,2.58,0,0,0,.39,1.36Z"/><path class="cls-6" d="M430.13,324.42v17.21H367.64V231.19h7.22l38.45,91.61a2.67,2.67,0,0,0,2.43,1.62Z"/><path class="cls-6" d="M448.5,461.2v93.67h-7.93a2.61,2.61,0,0,0-2.61,2.61v7.69H400.19L344.4,527.74,362,506.51a2.71,2.71,0,0,0,.29-.52c0-.06.08-.11.1-.16a2.59,2.59,0,0,0,.18-.91V454.37H387Z"/><polygon class="cls-6" points="867.22 413.49 867.22 417.9 825.64 454.89 818.81 440.93 840.23 413.39 867.22 413.49"/><polygon class="cls-6" points="955 359.34 946.7 366.1 946.7 352.56 949.15 352.17 955 359.34"/><path class="cls-6" d="M362.42,231.19V283.8h-62.5V265.31a2.6,2.6,0,0,0-2.61-2.61H274.36l5.27-21.31h28.59a2.62,2.62,0,0,0,2.61-2.61v-7.59Z"/><polygon class="cls-6" points="987.86 285.11 954.21 315.99 946.7 305.32 946.7 245.98 969.5 245.98 987.86 285.11"/><path class="cls-6" d="M967.75,348.91,959,356.06l-6.81-8.35a2.59,2.59,0,0,0-2.43-.94l-6.23,1-16.9,2.66-.94-12.31h35.68Z"/><path class="cls-6" d="M362.42,289v52.61H254.77l18.29-73.71h21.65v18.49a2.61,2.61,0,0,0,2.6,2.61Z"/><path class="cls-6" d="M726.13,583.33v28.95H705.82l-7.15-7.12a2.53,2.53,0,0,0-1.83-.78h-34.4V552.94h37.38l-.24,27.75a2.59,2.59,0,0,0,.76,1.85,2.62,2.62,0,0,0,1.85.79Z"/><path class="cls-6" d="M908.85,369.39,905,382.56l-35.79,8.58a2.6,2.6,0,0,0-2,2.53v14.61l-25.64-.11v-38L901.39,365Z"/><path class="cls-6" d="M850.89,544.25v23.5h-6.57a2.62,2.62,0,0,0-2.61,2.61v4.93H799V553.15a2.85,2.85,0,0,0-.13-.81l-14.45-44.89h30.28Z"/><path class="cls-6" d="M448.5,390.41V456l-58.74-6.52V346.85h40.37V387.8a2.62,2.62,0,0,0,2.61,2.61Z"/><path class="cls-6" d="M384.54,346.85v102.3H359.92a2.61,2.61,0,0,0-2.61,2.61v43.79l-57.39-94.19V346.85Z"/><path class="cls-6" d="M890.46,635.55v42.07h-12L839.52,630.3v-22a2.61,2.61,0,0,0-.76-1.85l-17.6-17.61a2.64,2.64,0,0,0-2.95-.49l-22.69,10.74-12-10.61a2.69,2.69,0,0,0-1.75-.65H761.3v-7.28h83a2.62,2.62,0,0,0,2.61-2.61V573h4.17a1.38,1.38,0,0,0,.21.44Z"/><path class="cls-6" d="M743.22,507.45v80.34H731.35v-7.07a2.6,2.6,0,0,0-2.61-2.61H704.82l.24-27.39,12.05-43.27Z"/><polygon class="cls-6" points="883.19 509.82 853.53 539.5 820.12 505.57 839.18 496 883.19 509.82"/><polygon class="cls-6" points="517.91 468.92 517.91 554.87 453.71 554.87 453.71 461.77 517.91 468.92"/><polygon class="cls-6" points="924.14 413.62 924.14 463.99 912.24 453.01 902.04 413.62 924.14 413.62"/><path class="cls-6" d="M657.22,546.57v58.67l-55.43,35a2.67,2.67,0,0,0-1.2,2.22v30.65l-22.53-10.2L547.85,602a2.59,2.59,0,0,0-2.32-1.46H523.07a2.6,2.6,0,0,0-2.11,1.07L511,615.1,494,599.47V584.79a2.7,2.7,0,0,0-.78-1.86l-22.85-22.85h50.1a2.59,2.59,0,0,0,2.61-2.6V494h41.22v30a2.59,2.59,0,0,0,2.06,2.53l85,18.68a.43.43,0,0,0,.21.05Z"/><rect class="cls-6" x="435.35" y="324.42" width="94.11" height="60.78"/><path class="cls-6" d="M923,470l-35.63,35.61-47.6-14.95a2.56,2.56,0,0,0-2,.16l-22.67,11.37H803.26l36.89-32.42,68.94-12.6Z"/><path class="cls-6" d="M702.32,388.35l-16.38,21.34H632l-10.35-32.51V364.9h66.22v11.68a2.75,2.75,0,0,0,.19.92l.07.15a2.2,2.2,0,0,0,.47.71l.13.13a.33.33,0,0,1,.11.1s.08.06.13.11l.13.08Z"/><path class="cls-6" d="M958.36,332.89H935.43v-44.1l6.05-2.64v20a2.57,2.57,0,0,0,.47,1.48l9.6,13.59.05.11.06.08Z"/><path class="cls-6" d="M541.9,390.41v75.93L521,464a2.89,2.89,0,0,0-.53,0l-66.8-7.44V390.41Z"/><path class="cls-6" d="M739.65,390.93v54.72l-5.27,11.53a3.24,3.24,0,0,0-.19.37L729,468.92,690.45,412.4l17.63-23a2.58,2.58,0,0,0,.53-2,2.69,2.69,0,0,0-1.07-1.72l-9-6.5h33.7v9.13a2.61,2.61,0,0,0,2.61,2.61Z"/><path class="cls-6" d="M732.24,314.37V374H693.06V354.8a2.63,2.63,0,0,0-1.2-2.21l-20.74-13.17V320.87l7.2-12.89L693,314.17a2.22,2.22,0,0,0,.94.18l.08,0Z"/><path class="cls-6" d="M906.69,452.33l-68,12.44a.82.82,0,0,0-.26.06L820,468.19l6.49-7.12.11-.1.1-.08s0-.08.08-.11l43.58-38.71,31.49,11.82Z"/><polygon class="cls-6" points="900.3 427.71 872.44 417.27 872.44 413.52 896.64 413.62 900.3 427.71"/><path class="cls-6" d="M778.17,390.93v42.49L756,456H740.66l4-8.64a2.63,2.63,0,0,0,.23-1.09v-55.3Z"/><path class="cls-6" d="M836.37,373v36.83l-21.73,27.91-31.25-5.48V390.93h28.53a2.58,2.58,0,0,0,1.57-.55Z"/><path class="cls-6" d="M793.74,553.56v21.73h-35a2.62,2.62,0,0,0-2.61,2.61v9.89h-7.64V507.45h30.44Z"/><path class="cls-6" d="M547.12,423.3V387.8a2.61,2.61,0,0,0-2.61-2.61h-9.83V368h56.37v9.65a2.61,2.61,0,0,0,2.6,2.61H617.1l13.72,43.09Z"/><path class="cls-6" d="M923.07,371.76l-9.6-5.71c-.13-.06-.26-.16-.39-.21l-9.76-5.79a2.52,2.52,0,0,0-1.56-.37l-54,4.72,37.71-28.61a2.61,2.61,0,0,0,1-2.09V310.15l25.3-11,8.56,36.77,1.38,17.95Z"/><path class="cls-6" d="M649.42,483.53v56L569.55,522V491.41a2.59,2.59,0,0,0-2.61-2.61H523.12V469.5Z"/><polygon class="cls-6" points="529.46 250.03 529.46 319.2 417.46 319.2 380.76 231.71 529.46 250.03"/><path class="cls-6" d="M726.42,474.45l-13,27.78h-5.25V487.15a2.63,2.63,0,0,0-2.32-2.6L654,478.78,633.64,414.9h52.19Z"/><path class="cls-6" d="M711.68,507.45l-11.21,40.27h-38v-3.26a2.57,2.57,0,0,0-2-2.53l-5.76-1.28V484.1L703,489.48v15.36a2.61,2.61,0,0,0,2.61,2.61Z"/><polygon class="cls-6" points="616.4 260.72 616.4 306.94 534.68 306.94 534.68 250.65 616.4 260.72"/><path class="cls-6" d="M769.12,302.06H734.85a2.62,2.62,0,0,0-2.61,2.61v4.49h-32l28.51-29.37Z"/><polygon class="cls-6" points="911.33 391.5 897.45 408.41 872.44 408.3 872.44 395.73 906.45 387.57 911.33 391.5"/><polygon class="cls-6" points="830.18 471.63 795.36 502.23 719.22 502.23 724.49 490.96 830.18 471.63"/><path class="cls-6" d="M667.11,343l20.73,13.2v3.44H621.62V261.35l81.46,10-27.68,31.4a1.21,1.21,0,0,1-.16.16v0a2,2,0,0,0-.28.36s0,0-.05.05l-8.66,15.52a2.36,2.36,0,0,0-.34,1.28v20.66A2.56,2.56,0,0,0,667.11,343Z"/><polygon class="cls-6" points="804.2 361.95 790.51 385.71 754.3 385.71 754.3 326.11 777.94 326.11 804.2 361.95"/><polygon class="cls-6" points="930.22 291.06 930.22 332.89 925 332.89 916.63 296.98 930.22 291.06"/><polygon class="cls-6" points="648.33 478.15 547.12 466.91 547.12 428.52 632.49 428.52 648.33 478.15"/><path class="cls-6" d="M417.82,694,408,703.83l-40.77-40.77a2.61,2.61,0,0,0-1.85-.75H311.79a2.59,2.59,0,0,0-1.85.75l-24,24H252.63V680.8h26.5A2.57,2.57,0,0,0,281,680l16.33-16.33a2.54,2.54,0,0,0,.57-2.84,2.6,2.6,0,0,0-2.4-1.62H275.61V626.18h17.3a2.62,2.62,0,0,0,2.61-2.61V585.05l27.57-10.75,32.52,10.85v68a2.62,2.62,0,0,0,2.61,2.61h21.39Z"/><polyline class="cls-7" points="779.26 313.8 744.04 313.8 744.04 381.93"/><line class="cls-7" x1="715.16" y1="275.44" x2="691.82" y2="301.64"/><polygon class="cls-8" points="991.61 285.73 954.3 319.98 944.59 306.18 944.59 243.31 971.68 243.31 991.61 285.73"/><polygon class="cls-8" points="963.44 335.57 933.29 335.57 933.29 287.08 944.59 282.15 944.59 306.18 954.3 319.98 963.44 335.57"/><polygon class="cls-8" points="933.29 287.08 933.29 335.57 923.37 335.57 914.05 295.48 933.29 287.08"/><polygon class="cls-8" points="944.59 350.42 944.59 371.73 927.21 385.91 926.51 376.71 924.74 353.55 944.59 350.42"/><polygon class="cls-8" points="959.17 359.83 944.59 371.73 944.59 350.42 950.72 349.45 959.17 359.83"/><polygon class="cls-8" points="926.51 376.71 912.37 368.31 902.42 362.4 839.29 367.91 884.27 333.78 884.27 308.48 914.05 295.48 923.37 335.57 924.74 353.55 926.51 376.71"/><polygon class="cls-8" points="915.45 391.28 899.1 411.21 870.22 411.09 870.22 393.83 907.53 384.89 915.45 391.28"/><polygon class="cls-8" points="927.21 470.25 888.49 508.97 839.29 493.51 816.04 505.18 796.61 505.18 839.29 467.65 910.34 454.66 927.21 470.25"/><polygon class="cls-8" points="888.49 508.97 853.86 543.6 816.04 505.18 839.29 493.51 888.49 508.97"/><polygon class="cls-8" points="839.29 367.91 839.29 410.96 816.04 440.86 781.02 434.73 781.02 388.47 812.2 388.47 839.29 367.91"/><polygon class="cls-8" points="796.61 553.56 796.61 578.35 758.89 578.35 758.89 590.88 746.01 590.88 746.01 505.18 781.02 505.18 796.61 553.56"/><polygon class="cls-8" points="781.02 388.47 781.02 434.73 757.26 458.83 736.76 458.83 742.43 446.48 742.43 388.47 781.02 388.47"/><polygon class="cls-8" points="742.43 388.47 742.43 446.48 736.76 458.83 729.57 474.51 687.32 412.49 706.14 387.96 690.55 376.71 735.02 376.71 735.02 388.47 742.43 388.47"/><polygon class="cls-8" points="728.89 581.17 728.89 615.41 704.87 615.41 696.94 607.49 659.89 607.49 659.89 550.75 702.57 550.75 702.31 581.17 728.89 581.17"/><polygon class="cls-8" points="735.02 311.8 735.02 376.71 690.55 376.71 690.55 354.9 668.57 340.93 668.57 320.23 677.26 304.7 694.13 311.8 735.02 311.8"/><polygon class="cls-8" points="668.57 340.93 690.55 354.9 690.55 362.4 619 362.4 619 258.36 708.44 269.37 677.26 304.7 668.57 320.23 668.57 340.93"/><polygon class="cls-8" points="619 258.36 619 309.58 531.93 309.58 531.93 247.65 619 258.36"/><polygon class="cls-8" points="520.35 466.86 520.35 557.91 450.83 557.91 450.83 459.14 520.35 466.86"/><polygon class="cls-8" points="531.93 247.65 531.93 321.85 415.39 321.85 376.21 228.48 531.93 247.65"/><polygon class="cls-8" points="432.43 321.85 432.43 344.34 364.62 344.34 364.62 228.48 376.21 228.48 415.39 321.85 432.43 321.85"/><polygon class="cls-8" points="364.62 228.48 364.62 286.41 296.81 286.41 296.81 265.28 270.46 265.28 277.05 238.71 307.72 238.71 307.72 228.48 364.62 228.48"/><polygon class="cls-8" points="364.62 286.41 364.62 344.34 250.86 344.34 270.46 265.28 296.81 265.28 296.81 286.41 364.62 286.41"/><polygon class="cls-8" points="779.49 304.7 735.02 304.7 735.02 311.8 694.13 311.8 728.38 276.53 779.49 304.7"/><polygon class="cls-8" points="421.19 694.64 407.64 708.18 364.96 665.5 311.29 665.5 286.5 690.29 249.45 690.29 249.45 678.79 278.58 678.79 294.94 662.44 272.45 662.44 272.45 624.1 292.38 624.1 292.38 583.72 322.54 571.97 357.81 583.72 357.81 653.75 380.3 653.75 421.19 694.64"/><polygon class="cls-8" points="619 309.58 619 377.73 593.61 377.73 593.61 365.47 531.93 365.47 531.93 309.58 619 309.58"/><polygon class="cls-8" points="652.06 481.5 652.06 543.15 566.86 524.43 566.86 491.72 520.35 491.72 520.35 466.86 544.39 469.53 652.06 481.5"/><polygon class="cls-8" points="544.39 387.96 544.39 469.53 520.35 466.86 450.83 459.14 450.83 387.96 544.39 387.96"/><polygon class="cls-8" points="544.39 426.12 544.39 387.96 531.93 387.96 531.93 365.47 593.61 365.47 593.61 377.73 619 377.73 630.07 412.49 634.41 426.12 544.39 426.12"/><polygon class="cls-8" points="652.06 481.5 544.39 469.53 544.39 426.12 634.41 426.12 652.06 481.5"/><polygon class="cls-8" points="715.26 505.18 702.57 550.75 659.89 550.75 659.89 544.87 652.06 543.15 652.06 481.5 705.72 487.46 705.72 505.18 715.26 505.18"/><polygon class="cls-8" points="706.14 387.96 687.32 412.49 630.07 412.49 619 377.73 619 362.4 690.55 362.4 690.55 376.71 706.14 387.96"/><polygon class="cls-8" points="825.11 459.39 813.16 472.43 722.84 488.94 729.57 474.51 736.76 458.83 757.26 458.83 781.02 434.73 816.04 440.86 825.11 459.39"/><polygon class="cls-8" points="912.37 368.31 907.53 384.89 870.22 393.83 870.22 411.09 839.29 410.96 839.29 367.91 902.42 362.4 912.37 368.31"/><polygon class="cls-8" points="870.22 411.09 870.22 419.28 825.11 459.39 816.04 440.86 839.29 410.96 870.22 411.09"/><polygon class="cls-8" points="927.21 385.91 927.21 470.25 910.34 454.66 904.52 432.16 899.1 411.21 915.45 391.28 907.53 384.89 912.37 368.31 926.51 376.71 927.21 385.91"/><polygon class="cls-8" points="904.52 432.16 870.22 419.28 870.22 411.09 899.1 411.21 904.52 432.16"/><polygon class="cls-8" points="910.34 454.66 839.29 467.65 813.16 472.43 825.11 459.39 870.22 419.28 904.52 432.16 910.34 454.66"/><polygon class="cls-8" points="839.29 467.65 796.61 505.18 715.26 505.18 722.83 488.94 722.84 488.94 813.16 472.43 839.29 467.65"/></g></g></svg>