<svg xmlns="http://www.w3.org/2000/svg" viewBox="0 0 1200 937"><defs><style>.cls-1{isolation:isolate;}.cls-2,.cls-3{fill:#9dc7e0;}.cls-2{opacity:0.15;}.cls-3{opacity:0.25;mix-blend-mode:multiply;}.cls-4{fill:#f9ef35;}.cls-11,.cls-12,.cls-4{stroke:#0c1733;}.cls-11,.cls-4{stroke-linecap:round;stroke-linejoin:round;}.cls-10,.cls-11,.cls-12,.cls-16,.cls-4,.cls-5,.cls-6,.cls-7,.cls-8,.cls-9{stroke-width:2px;}.cls-10,.cls-16,.cls-5,.cls-6,.cls-7,.cls-8,.cls-9{fill:none;}.cls-10,.cls-5,.cls-6,.cls-7,.cls-8,.cls-9{stroke:#000;}.cls-10,.cls-12,.cls-16,.cls-5,.cls-6,.cls-7,.cls-8,.cls-9{stroke-miterlimit:10;}.cls-6{stroke-dasharray:20 10;}.cls-7{stroke-dasharray:20.09 10.05;}.cls-8{stroke-dasharray:20.11 10.05;}.cls-9{stroke-dasharray:21.08 10.54;}.cls-10{stroke-dasharray:20 10;}.cls-11,.cls-15{fill:#fff;}.cls-12{fill:#e13a25;}.cls-13{fill:#cfdde5;}.cls-14{fill:#a3bdcc;}.cls-16{stroke:#cfdde5;}</style></defs><title>01_Vector</title><g class="cls-1"><g id="Layer_1" data-name="Layer 1"><path class="cls-2" d="M1040.06,529.09c-2.09,66.46-17.18,116.34-41,152.75a175.33,175.33,0,0,1-63,58.71c-45.26,24.91-100.5,30-155.67,22.64-58.55-7.83-117-29.71-163.44-56.87-66.25-38.78-155.3-57.18-237.2-77.22-76.33-18.68-146.46-38.8-186.14-78.18-20.09-19.93-32.38-44.8-33.73-76.9-1.09-25.85,4.24-48.43,14.66-68.31,30.11-57.47,102.66-92.32,185.22-118.12,74-23.13,156-39,222.77-57.3,60.49-16.6,132-37.3,200.31-40.89,57.32-3,112.39,6,156.82,39.59,22.19,16.76,41.72,39.66,57.56,70.24,19,36.6,32.62,84.23,39.18,145.53.31,2.85.6,5.66.86,8.45A600.7,600.7,0,0,1,1040.06,529.09Z"/><path class="cls-3" d="M1040.06,529.09c-2.09,66.46-17.18,116.34-41,152.75a80.86,80.86,0,0,1-76.78-80.75c0-1.62.05-3.21.15-4.81L840,573.93h0a256.11,256.11,0,0,1-45.88,81.63,14.94,14.94,0,0,0,.48,19.79l24.35,26a80.91,80.91,0,0,1,117.13,39.14c-45.26,24.91-100.5,30-155.67,22.64A80.44,80.44,0,0,1,794.91,724l-33.29-35.62-.52-.55a32.7,32.7,0,0,1-.21-44.46l1.88-2.07a224.52,224.52,0,0,0,57.4-134.57l-58.41-1A167.16,167.16,0,0,1,449,571.25l-72.66,31.19a109.93,109.93,0,0,1,3.52,26.66c-76.33-18.68-146.46-38.8-186.14-78.18a109.93,109.93,0,0,1,169.59,21.21L435.94,541a166.25,166.25,0,0,1-5.78-24.61,169.43,169.43,0,0,1-2-25.86A166.89,166.89,0,0,1,435.94,440l-72.68-31.19a110,110,0,0,1-188.66-3.13c30.11-57.47,102.66-92.32,185.22-118.12a110.14,110.14,0,0,1,16.47,91L449,409.73a168,168,0,0,1,60.24-62.5A167.17,167.17,0,0,1,761.51,472.65l58.62,1.05a224.58,224.58,0,0,0-59-135.82l-1.28-1.38a32.74,32.74,0,0,1,.29-45.11L794.19,256A80.91,80.91,0,0,1,782.9,189.4c57.32-3,112.39,6,156.82,39.59A80.87,80.87,0,0,1,817.94,278.9l-24.27,25.19a14.94,14.94,0,0,0-.58,20,255.93,255.93,0,0,1,46.42,81.38l82.9-21.61c-.07-1.32-.1-2.67-.1-4a80.87,80.87,0,0,1,75-80.66c19,36.6,32.62,84.23,39.18,145.53.31,2.85.6,5.66.86,8.45a80.91,80.91,0,0,1-106.6-37.39L848.3,437.31a261.41,261.41,0,0,1,5.44,53.16v.38a261,261,0,0,1-5.12,51.24l82.46,22.36a80.92,80.92,0,0,1,109-35.36Z"/><path class="cls-4" d="M985.06,563.06l-158.43-43a261,261,0,0,0,5.12-51.24v-.38a261.58,261.58,0,0,0-5.44-53.17h0l159-41.45A16.49,16.49,0,1,0,977,342L817.52,383.52a256.12,256.12,0,0,0-46.42-81.38,15,15,0,0,1,.58-20l79.2-82.19A16.49,16.49,0,1,0,827.13,177l-89,92.38h0a32.73,32.73,0,0,0-.29,45.11c.43.46.86.92,1.28,1.39a224.53,224.53,0,0,1,59,135.81l-78.72-1.41h-.29a16.49,16.49,0,0,0-.3,33l79.35,1.41a224.46,224.46,0,0,1-57.4,134.57l-1.88,2.07a32.68,32.68,0,0,0,.21,44.45l.52.56L827,759.8a16.49,16.49,0,0,0,24.1-22.52l-78.4-83.9a14.94,14.94,0,0,1-.49-19.79A256.26,256.26,0,0,0,818.05,552h0L976.87,595a16.47,16.47,0,0,0,20.44-12.44C999.18,573.92,993.6,565.38,985.06,563.06Z"/><line class="cls-5" x1="839.01" y1="188.46" x2="832.09" y2="195.68"/><path class="cls-6" d="M825.17,202.91,757,274.1a25.43,25.43,0,0,0-1.17,33.82c21.91,26.45,59.54,83.16,59.54,160.58,0,77.08-37.31,131.7-59.25,157.15a25.34,25.34,0,0,0,.62,33.73l72.13,78.13"/><line class="cls-5" x1="832.22" y1="741.19" x2="839.01" y2="748.54"/><line class="cls-5" x1="981.18" y1="357.9" x2="971.5" y2="360.41"/><line class="cls-7" x1="961.77" y1="362.92" x2="820.72" y2="399.36"/><line class="cls-5" x1="815.86" y1="400.62" x2="806.17" y2="403.12"/><line class="cls-5" x1="981.18" y1="579.1" x2="971.52" y2="576.53"/><line class="cls-8" x1="961.8" y1="573.95" x2="820.91" y2="536.52"/><line class="cls-5" x1="816.05" y1="535.23" x2="806.39" y2="532.67"/><line class="cls-5" x1="815.33" y1="468.5" x2="805.33" y2="468.5"/><line class="cls-9" x1="794.79" y1="468.5" x2="736.82" y2="468.5"/><line class="cls-5" x1="731.55" y1="468.5" x2="721.55" y2="468.5"/><path class="cls-4" d="M589.11,473.26c.08-.26.14-.52.2-.79s.14-.53.2-.79.07-.49.11-.73.09-.57.12-.86,0-.51,0-.76,0-.55,0-.83,0-.56,0-.85,0-.49,0-.74-.08-.58-.12-.87-.07-.48-.11-.72-.13-.53-.2-.8-.12-.52-.2-.78-.16-.47-.24-.71-.2-.56-.32-.84a1.07,1.07,0,0,0-.07-.19c-.07-.17-.16-.32-.23-.48s-.26-.54-.4-.81-.26-.45-.39-.68-.28-.46-.43-.69l-.48-.68c-.16-.2-.31-.41-.48-.61s-.36-.43-.54-.63l-.54-.57c-.2-.19-.39-.38-.6-.56s-.39-.36-.6-.53l-.64-.49c-.21-.16-.43-.32-.65-.46s-.48-.31-.72-.45-.43-.26-.66-.38a8.86,8.86,0,0,0-.82-.4,5.08,5.08,0,0,0-.47-.23L254.39,313.68a16.49,16.49,0,0,0-13,30.31L531.51,468.5,241.39,593a16.49,16.49,0,1,0,13,30.31L579.83,483.65l.14-.07c.46-.2.91-.41,1.34-.65l.18-.11c.37-.21.73-.43,1.08-.67a4.44,4.44,0,0,0,.38-.27c.3-.21.6-.44.88-.68l.28-.22a13.85,13.85,0,0,0,1-1,2.73,2.73,0,0,0,.23-.25c.26-.27.51-.56.75-.85.09-.11.18-.22.26-.34.23-.3.45-.6.66-.92.06-.09.13-.18.19-.28.26-.4.5-.82.73-1.26l.1-.22c.14-.29.29-.57.41-.87a1.07,1.07,0,0,0,.07-.19c.12-.28.22-.56.32-.85S589,473.49,589.11,473.26Z"/><polyline class="cls-10" points="249.84 328.83 573.33 468.5 248.27 608.17"/><rect class="cls-11" x="406.19" y="301.36" width="334.28" height="334.28" rx="167.14"/><path class="cls-12" d="M573.33,389.63l-53.64,32.13V380.45h-30.4v176.1l83.76-49.33,84.31,49.33V439Zm53.63,115-53.63-32.12-53.64,32.12V455.88l53.64-32.12L627,455.88Z"/><circle class="cls-11" cx="839.01" cy="188.46" r="80.87"/><circle class="cls-11" cx="981.18" cy="357.9" r="80.87"/><circle class="cls-11" cx="981.18" cy="579.1" r="80.87"/><circle class="cls-11" cx="839.01" cy="748.54" r="80.87"/><circle class="cls-11" cx="247.89" cy="608.17" r="109.94"/><circle class="cls-11" cx="247.89" cy="328.83" r="109.94"/><rect class="cls-13" x="193.68" y="283" width="108.42" height="86.91"/><rect class="cls-14" x="193.68" y="261.49" width="108.42" height="15.06"/><polygon class="cls-15" points="276.73 355.47 223.07 355.47 223.07 319.14 249.9 296.74 276.73 319.14 276.73 355.47"/><rect class="cls-13" x="255.01" y="326.06" width="12.21" height="24.68"/><rect class="cls-13" x="232.58" y="326.06" width="15.73" height="12.21"/><circle class="cls-16" cx="210.97" cy="397.91" r="9.26"/><circle class="cls-13" cx="250.01" cy="397.91" r="6.55"/><circle class="cls-13" cx="289.05" cy="397.91" r="6.55"/><rect class="cls-13" x="193.68" y="568.56" width="23.13" height="100.54"/><rect class="cls-13" x="224.76" y="568.56" width="23.13" height="11.54"/><rect class="cls-13" x="224.76" y="586.36" width="23.13" height="11.54"/><rect class="cls-13" x="224.76" y="604.16" width="23.13" height="11.54"/><rect class="cls-13" x="224.76" y="621.96" width="23.13" height="11.54"/><rect class="cls-13" x="224.76" y="639.76" width="23.13" height="11.54"/><rect class="cls-13" x="224.76" y="657.57" width="23.13" height="11.54"/><rect class="cls-13" x="255.28" y="568.56" width="46.82" height="11.54"/><rect class="cls-13" x="255.28" y="586.36" width="46.82" height="11.54"/><rect class="cls-13" x="255.28" y="604.16" width="46.82" height="11.54"/><rect class="cls-13" x="255.28" y="621.96" width="46.82" height="11.54"/><rect class="cls-13" x="255.28" y="639.76" width="46.82" height="11.54"/><rect class="cls-13" x="255.28" y="657.57" width="46.82" height="11.54"/><rect class="cls-14" x="193.68" y="547.24" width="108.42" height="15.06"/><path class="cls-14" d="M835.45,150.82a23,23,0,0,0-4.61,25.9l-4.15,4.15v6.64h-6.64v6.65h-6.64v6.64h-6.65v6.65h-6.64L799,219.79l12.34-1.16L842,187.9a23,23,0,1,0-6.57-37.08Zm28.36,12.54a6,6,0,1,1,0-8.43A5.93,5.93,0,0,1,863.81,163.36Z"/><path class="cls-13" d="M843.78,192.65v1.86l4.7,4.69-4.7,4.7,4.7,4.7-4.7,4.7,4.7,4.69-4.7,4.7,4.7,4.7-4.7,4.7,7.91,9.54,7.9-9.54V192.63A27,27,0,0,1,843.78,192.65Z"/><rect class="cls-13" x="971.6" y="335.96" width="17.5" height="83" rx="2.35"/><path class="cls-14" d="M949.61,315.37v9.71a1.77,1.77,0,0,0,1.77,1.77H958a1.77,1.77,0,0,1,1.77,1.77h0a1.78,1.78,0,0,0,1.78,1.78h31.84a3.68,3.68,0,0,0,3.68-3.68v-3.47a3.68,3.68,0,0,1,3-3.61l19.19-3.69a3,3,0,0,0,2.3-2.92,3,3,0,0,0-3-3h-57a1.75,1.75,0,0,0-1.78,1.72,1.78,1.78,0,0,1-.52,1.31,1.76,1.76,0,0,1-1.25.52h-6.63A1.78,1.78,0,0,0,949.61,315.37Z"/><rect class="cls-13" x="925.91" y="593.85" width="33.1" height="16.51" rx="1.95"/><rect class="cls-13" x="964.63" y="593.85" width="33.1" height="16.51" rx="1.95"/><rect class="cls-13" x="1003.36" y="593.85" width="33.1" height="16.51" rx="1.95"/><rect class="cls-13" x="945.27" y="568.78" width="33.1" height="16.51" rx="1.95"/><rect class="cls-13" x="984" y="568.78" width="33.1" height="16.51" rx="1.95"/><rect class="cls-13" x="964.63" y="543.7" width="33.1" height="16.51" rx="1.95"/><path class="cls-14" d="M848.56,694v26.66H829.44V694a24.18,24.18,0,0,0,0,44.41V799a4.09,4.09,0,0,0,4.09,4.09h10.94a4.09,4.09,0,0,0,4.09-4.09V738.36a24.17,24.17,0,0,0,0-44.41Z"/></g></g></svg>