<?xml version="1.0" encoding="UTF-8"?>
<svg width="322px" height="70px" viewBox="0 0 322 70" version="1.1" xmlns="http://www.w3.org/2000/svg" xmlns:xlink="http://www.w3.org/1999/xlink">
    <title>Built for Construction SVG</title>
    <g id="Brand-Taxonomy" stroke="none" stroke-width="1" fill="none" fill-rule="evenodd">
        <g id="Product-Logos---B4L" transform="translate(-1418.000000, -405.000000)">
            <g id="Built-for-Construction-SVG" transform="translate(1418.478000, 405.337500)">
                <path d="M54.637625,2.13162821e-14 C55.3832094,2.13162821e-14 55.995929,0.594888083 56.0654338,1.35553999 L56.072,1.5 L56.072,66.825 C56.072,67.6534271 55.4298084,68.325 54.637625,68.325 C53.8920406,68.325 53.279321,67.7301119 53.2098162,66.96946 L53.20325,66.825 L53.20325,1.5 C53.20325,0.671572875 53.8454416,2.13162821e-14 54.637625,2.13162821e-14 Z" id="Line-2-Copy-3" fill="#0C1733" fill-rule="nonzero"></path>
                <path d="M83.1623796,47.1322448 C85.4850067,47.1322448 87.5466644,46.747315 89.3473528,45.9774555 C91.1480412,45.207596 92.5703241,44.0462824 93.6142014,42.4935149 C94.6580787,40.9407474 95.1800174,39.0160985 95.1800174,36.7195684 L95.1800174,36.7195684 L89.5430798,36.7195684 C89.5430798,38.4680629 88.9754715,39.8381519 87.8402549,40.8298354 C86.7050383,41.8215189 85.1848919,42.3173606 83.2798158,42.3173606 C78.4257862,42.3173606 75.9987714,39.4858433 75.9987714,33.8228088 L75.9987714,33.8228088 L75.9987714,32.6484468 C75.9987714,29.9082688 76.5990009,27.8074657 77.7994598,26.3460374 C78.9999187,24.8846091 80.8267041,24.153895 83.2798158,24.153895 C85.0805042,24.153895 86.5419325,24.656261 87.6641006,25.6609929 C88.7862687,26.6657248 89.3473528,28.0423381 89.3473528,29.7908326 L89.3473528,29.7908326 L95.1800174,29.7908326 C95.1800174,27.5203994 94.6515545,25.5957506 93.5946287,24.0168861 C92.5377029,22.4380216 91.1023716,21.2636596 89.2886347,20.4938001 C87.4748978,19.7239406 85.4328128,19.3390108 83.1623796,19.3390108 C79.0390641,19.3390108 75.8421898,20.4938001 73.5717566,22.8033787 C71.3013234,25.1129573 70.1661068,28.5903737 70.1661068,33.2356278 C70.1661068,42.5000391 74.4981977,47.1322448 83.1623796,47.1322448 Z M109.346039,47.1322448 C112.869125,47.1322448 115.498391,46.2579975 117.233837,44.509503 C118.969283,42.7610085 119.837006,40.0469274 119.837006,36.3672598 C119.837006,32.6875922 118.969283,29.9735111 117.233837,28.2250166 C115.498391,26.4765221 112.869125,25.6022748 109.346039,25.6022748 C105.822953,25.6022748 103.200211,26.4765221 101.477813,28.2250166 C99.7554158,29.9735111 98.894217,32.6875922 98.894217,36.3672598 C98.894217,40.0469274 99.7554158,42.7610085 101.477813,44.509503 C103.200211,46.2579975 105.822953,47.1322448 109.346039,47.1322448 Z M109.346039,42.74796 C107.597544,42.74796 106.338367,42.245594 105.568508,41.2408621 C104.798648,40.2361302 104.413718,38.7159838 104.413718,36.680423 L104.413718,36.680423 L104.413718,36.0540966 C104.413718,34.0185358 104.798648,32.4983894 105.568508,31.4936575 C106.338367,30.4889256 107.597544,29.9865596 109.346039,29.9865596 C111.094533,29.9865596 112.360235,30.4889256 113.143143,31.4936575 C113.926051,32.4983894 114.317505,34.0185358 114.317505,36.0540966 L114.317505,36.0540966 L114.317505,36.680423 C114.317505,38.7159838 113.926051,40.2361302 113.143143,41.2408621 C112.360235,42.245594 111.094533,42.74796 109.346039,42.74796 Z M130.088487,46.6625 L130.088487,34.7622984 C130.088487,33.5096456 130.486466,32.459244 131.282422,31.6110937 C132.078379,30.7629434 133.076586,30.3388682 134.277045,30.3388682 C135.451407,30.3388682 136.338703,30.6259345 136.938932,31.200067 C137.539162,31.7741995 137.839277,32.7006407 137.839277,33.9793904 L137.839277,33.9793904 L137.839277,46.6625 L143.202196,46.6625 L143.202196,32.8441738 C143.202196,30.3127713 142.595443,28.4729375 141.381935,27.3246724 C140.168428,26.1764073 138.504748,25.6022748 136.390897,25.6022748 C133.781203,25.6022748 131.641255,26.6592006 129.971051,28.7730522 L129.971051,28.7730522 L129.697033,28.7730522 L129.305579,26.0720196 L124.725568,26.0720196 L124.725568,46.6625 L130.088487,46.6625 Z M157.485654,47.1322448 C163.775015,47.1322448 166.919695,44.9140055 166.919695,40.4775268 C166.919695,38.9639047 166.515193,37.7634457 165.706188,36.87615 C164.897183,35.9888543 163.944645,35.3494794 162.848574,34.9580254 C161.752503,34.5665714 160.33022,34.1751174 158.581725,33.7836634 C156.989812,33.4705002 155.835023,33.157337 155.117357,32.8441738 C154.399692,32.5310106 154.040859,32.0482173 154.040859,31.395794 C154.040859,30.8738553 154.354022,30.4693529 154.980348,30.1822866 C155.606675,29.8952203 156.454825,29.7516872 157.524799,29.7516872 C158.594774,29.7516872 159.449448,29.9343657 160.088823,30.2997228 C160.728198,30.6650799 161.047885,31.1870185 161.047885,31.8655388 L161.047885,31.8655388 L161.047885,32.1004112 L166.254224,32.1004112 L166.293369,31.200067 C166.293369,29.4776694 165.484364,28.1141046 163.866354,27.1093727 C162.248344,26.1046408 160.199735,25.6022748 157.720526,25.6022748 C155.058639,25.6022748 152.88607,26.1437862 151.202817,27.2268089 C149.519565,28.3098316 148.677939,29.8560749 148.677939,31.8655388 C148.677939,33.3008701 149.069393,34.4491352 149.852301,35.310334 C150.635209,36.1715328 151.56165,36.8043834 152.631624,37.2088859 C153.701599,37.6133884 155.084736,38.0113666 156.781037,38.4028206 C158.425144,38.7681777 159.632127,39.1335347 160.401986,39.4988918 C161.171846,39.8642489 161.556776,40.4122845 161.556776,41.1429986 C161.556776,41.7954219 161.17837,42.2651667 160.421559,42.552233 C159.664748,42.8392993 158.751355,42.9828324 157.681381,42.9828324 C156.533116,42.9828324 155.561005,42.7805812 154.765049,42.3760787 C153.969092,41.9715762 153.558066,41.3126287 153.531969,40.399236 L153.531969,40.399236 L153.531969,40.1252182 L148.32563,40.1252182 L148.286485,40.594963 C148.286485,42.5783299 149.102014,44.1637186 150.733073,45.3511291 C152.364131,46.5385396 154.614991,47.1322448 157.485654,47.1322448 Z M177.171177,47.1322448 C177.745309,47.1322448 178.365112,47.0670025 179.030583,46.9365178 C179.696055,46.8060331 180.250615,46.6625 180.694263,46.5059184 L180.694263,46.5059184 L180.694263,42.74796 L178.815284,42.74796 C177.693115,42.74796 177.132031,42.1868759 177.132031,41.0647078 L177.132031,41.0647078 L177.132031,30.4563044 L180.694263,30.4563044 L180.694263,26.0720196 L177.132031,26.0720196 L177.132031,20.2785004 L172.786892,20.2785004 L171.886548,26.0720196 L169.302951,26.0720196 L169.302951,30.4563044 L171.769112,30.4563044 L171.769112,41.6127434 C171.769112,43.2046563 172.186663,44.5225515 173.021764,45.5664288 C173.856866,46.6103061 175.240004,47.1322448 177.171177,47.1322448 Z M190.671726,46.6625 L190.671726,36.7195684 C190.671726,34.7883953 191.06318,33.3465398 191.846088,32.3940017 C192.628996,31.4414636 193.894698,30.9651946 195.643192,30.9651946 L195.643192,30.9651946 L197.130717,30.9651946 L197.130717,25.9545834 C196.530488,25.719711 195.851968,25.6022748 195.095157,25.6022748 C193.946892,25.6022748 193.02045,25.9415349 192.315833,26.6200552 C191.611216,27.2985755 191.037083,28.2250166 190.593436,29.3993786 L190.593436,29.3993786 L190.319418,29.3993786 L189.888818,26.0720196 L185.308807,26.0720196 L185.308807,46.6625 L190.671726,46.6625 Z M207.851944,47.1322448 C210.461637,47.1322448 212.601585,46.075319 214.271789,43.9614674 L214.271789,43.9614674 L214.545807,43.9614674 L214.937261,46.6625 L219.517273,46.6625 L219.517273,26.0720196 L214.154353,26.0720196 L214.154353,37.9722212 C214.154353,39.224874 213.756375,40.2752756 212.960418,41.1234259 C212.164462,41.9715762 211.166254,42.3956514 209.965795,42.3956514 C208.791433,42.3956514 207.904137,42.1085851 207.303908,41.5344526 C206.703679,40.9603201 206.403564,40.0338789 206.403564,38.7551292 L206.403564,38.7551292 L206.403564,26.0720196 L201.040644,26.0720196 L201.040644,39.8903458 C201.040644,42.4217483 201.647398,44.2615821 202.860905,45.4098472 C204.074413,46.5581123 205.738092,47.1322448 207.851944,47.1322448 Z M234.23133,47.1322448 C236.997605,47.1322448 239.189747,46.4341518 240.807757,45.0379659 C242.425767,43.64178 243.234772,41.5996949 243.234772,38.9117108 L243.234772,38.9117108 L238.067579,38.9117108 C238.067579,40.1382667 237.734843,41.097329 237.069371,41.7888977 C236.4039,42.4804664 235.51008,42.8262508 234.387911,42.8262508 C232.795998,42.8262508 231.641209,42.3108364 230.923544,41.2800075 C230.205878,40.2491786 229.847045,38.7159838 229.847045,36.680423 L229.847045,36.680423 L229.847045,36.0540966 C229.847045,34.0185358 230.192829,32.485341 230.884398,31.4545121 C231.575967,30.4236832 232.652465,29.9082688 234.113894,29.9082688 C235.288256,29.9082688 236.201648,30.2475289 236.854072,30.9260492 C237.506495,31.6045695 237.832707,32.570156 237.832707,33.8228088 L237.832707,33.8228088 L243.234772,33.8228088 C243.234772,31.1348247 242.419243,29.0927396 240.788184,27.6965537 C239.157126,26.3003678 236.971508,25.6022748 234.23133,25.6022748 C230.943116,25.6022748 228.48348,26.4830463 226.852422,28.2445893 C225.221364,30.0061323 224.405834,32.7136891 224.405834,36.3672598 C224.405834,40.0469274 225.221364,42.7610085 226.852422,44.509503 C228.48348,46.2579975 230.943116,47.1322448 234.23133,47.1322448 Z M253.603689,47.1322448 C254.177822,47.1322448 254.797624,47.0670025 255.463096,46.9365178 C256.128568,46.8060331 256.683128,46.6625 257.126775,46.5059184 L257.126775,46.5059184 L257.126775,42.74796 L255.247796,42.74796 C254.125628,42.74796 253.564544,42.1868759 253.564544,41.0647078 L253.564544,41.0647078 L253.564544,30.4563044 L257.126775,30.4563044 L257.126775,26.0720196 L253.564544,26.0720196 L253.564544,20.2785004 L249.219405,20.2785004 L248.31906,26.0720196 L245.735464,26.0720196 L245.735464,30.4563044 L248.201624,30.4563044 L248.201624,41.6127434 C248.201624,43.2046563 248.619175,44.5225515 249.454277,45.5664288 C250.289379,46.6103061 251.672516,47.1322448 253.603689,47.1322448 Z M267.065094,23.4492778 L267.065094,18.3603758 L261.702174,18.3603758 L261.702174,23.4492778 L267.065094,23.4492778 Z M267.065094,46.6625 L267.065094,26.0720196 L261.702174,26.0720196 L261.702174,46.6625 L267.065094,46.6625 Z M282.405477,47.1322448 C285.928563,47.1322448 288.557829,46.2579975 290.293275,44.509503 C292.028721,42.7610085 292.896444,40.0469274 292.896444,36.3672598 C292.896444,32.6875922 292.028721,29.9735111 290.293275,28.2250166 C288.557829,26.4765221 285.928563,25.6022748 282.405477,25.6022748 C278.882391,25.6022748 276.259649,26.4765221 274.537252,28.2250166 C272.814854,29.9735111 271.953655,32.6875922 271.953655,36.3672598 C271.953655,40.0469274 272.814854,42.7610085 274.537252,44.509503 C276.259649,46.2579975 278.882391,47.1322448 282.405477,47.1322448 Z M282.405477,42.74796 C280.656982,42.74796 279.397805,42.245594 278.627946,41.2408621 C277.858086,40.2361302 277.473157,38.7159838 277.473157,36.680423 L277.473157,36.680423 L277.473157,36.0540966 C277.473157,34.0185358 277.858086,32.4983894 278.627946,31.4936575 C279.397805,30.4889256 280.656982,29.9865596 282.405477,29.9865596 C284.153972,29.9865596 285.419673,30.4889256 286.202581,31.4936575 C286.985489,32.4983894 287.376943,34.0185358 287.376943,36.0540966 L287.376943,36.0540966 L287.376943,36.680423 C287.376943,38.7159838 286.985489,40.2361302 286.202581,41.2408621 C285.419673,42.245594 284.153972,42.74796 282.405477,42.74796 Z M303.147926,46.6625 L303.147926,34.7622984 C303.147926,33.5096456 303.545904,32.459244 304.34186,31.6110937 C305.137817,30.7629434 306.136024,30.3388682 307.336483,30.3388682 C308.510845,30.3388682 309.398141,30.6259345 309.998371,31.200067 C310.5986,31.7741995 310.898715,32.7006407 310.898715,33.9793904 L310.898715,33.9793904 L310.898715,46.6625 L316.261635,46.6625 L316.261635,32.8441738 C316.261635,30.3127713 315.654881,28.4729375 314.441374,27.3246724 C313.227866,26.1764073 311.564187,25.6022748 309.450335,25.6022748 C306.840642,25.6022748 304.700693,26.6592006 303.030489,28.7730522 L303.030489,28.7730522 L302.756472,28.7730522 L302.365018,26.0720196 L297.785006,26.0720196 L297.785006,46.6625 L303.147926,46.6625 Z" id="Construction" fill="#040A1A" fill-rule="nonzero"></path>
                <g id="Built-Logo/brandmark/red" transform="translate(0.000000, 12.662500)" fill="#CF392B">
                    <path d="M30.332463,27.4486123 L18.5,20.5966388 L6.66753704,27.4486123 L6.66753704,16.7923348 L18.5,9.94568722 L30.332463,16.7980044 L30.332463,27.4486123 Z M18.5,2.22351542 L6.66753704,9.07566079 L6.66753704,0 L0,0 L0,38.9299031 L0.17575,38.9299031 L18.5,28.3188106 L36.8184259,38.9299031 L37,38.9299031 L37,12.9368326 L18.5,2.22351542 L18.5,2.22351542 Z" id="Fill-1"></path>
                </g>
            </g>
        </g>
    </g>
</svg>