<?xml version="1.0" encoding="utf-8"?>
<!-- Generator: Adobe Illustrator 25.0.1, SVG Export Plug-In . SVG Version: 6.00 Build 0)  -->
<svg version="1.1" id="Layer_1" xmlns="http://www.w3.org/2000/svg" xmlns:xlink="http://www.w3.org/1999/xlink" x="0px" y="0px"
	 viewBox="0 0 1200 937" style="enable-background:new 0 0 1200 937;" xml:space="preserve">
<style type="text/css">
	.st0{opacity:0.15;fill:#9DC7E0;enable-background:new    ;}
	.st1{opacity:0.25;fill:#9DC7E0;enable-background:new    ;}
	.st2{fill:#FFFFFF;}
	.st3{fill:#EDF4F8;stroke:#0C1733;stroke-width:2;stroke-linecap:round;stroke-linejoin:round;}
	.st4{fill:#A3BDCC;}
	.st5{fill:#0C1733;stroke:#0C1733;stroke-width:2.65;stroke-linecap:round;stroke-linejoin:round;}
	.st6{fill:#EDF4F8;}
	.st7{fill:none;stroke:#A3BDCC;stroke-width:5;stroke-linecap:round;stroke-linejoin:round;}
	.st8{fill:none;stroke:#A3BDCC;stroke-width:2;stroke-linecap:round;stroke-linejoin:round;}
	.st9{fill:#E13B26;}
	.st10{fill:#0B1733;}
</style>
<g>
	<g id="Layer_1_1_">
		<path class="st0" d="M1037.4,189.1c84.9,59.1,27.4,220.6,20,330.9c-9.5,141.7-16.5,212-271.6,212s-225.4-160.2-345-160.2H143.3
			c-162,0-152-310.4-56.4-361.1c85.3-45.2,255.2-5.4,437.6-8.7C755,197.9,952.5,130,1037.4,189.1z"/>
		<path class="st1" d="M1085.9,259.1H559.6c-10.1-0.2-18.5,7.9-18.6,18.1c0,0.6,0,1.3,0.1,1.9l23.2,315.1c1,11.2,10.2,19.8,21.5,20
			h203.8l3.5,47.6c0.1,1.3-0.3,2.6-1.2,3.6L772.9,685c-3,3.1-0.4,8.6,4.1,8.6h155.4c4.5,0,6.3-5.5,2.8-8.6l-21.7-19.6
			c-1-0.9-1.7-2.2-1.8-3.6l-3.5-47.6H1112c10.1,0.1,18.5-7.9,18.6-18.1c0-0.6,0-1.3-0.1-1.9l-23.2-315.1
			C1106.4,267.9,1097.1,259.3,1085.9,259.1z"/>
		<rect x="619.7" y="280.4" class="st2" width="525.9" height="313.5"/>
		<path class="st3" d="M940.5,661.8v-47.6H821.8v47.6c0,1.4-0.6,2.7-1.5,3.6L800,685c-2,1.9-2,5.1-0.1,7.1c0.9,1,2.2,1.5,3.6,1.5
			h155.4c2.8,0,5-2.2,5-5c0-1.3-0.6-2.6-1.5-3.6L942,665.4C941,664.5,940.5,663.2,940.5,661.8z"/>
		<rect x="619.7" y="280.4" class="st4" width="525.9" height="23.9"/>
		<rect x="619.7" y="571.8" class="st4" width="525.9" height="23.9"/>
		<path class="st5" d="M1144.3,259.1H618c-11,0-20,9-20,20v315.2c0,11,9,20,20,20h526.2c11,0,20-9,20-20V279.1
			C1164.2,268.1,1155.3,259.1,1144.3,259.1z M1145.6,593.9H619.7V280.4h525.9L1145.6,593.9z"/>
		<rect x="643" y="320.2" class="st6" width="107.7" height="235.4"/>
		<rect x="766.9" y="320.2" class="st6" width="107.7" height="235.4"/>
		<rect x="890.7" y="320.2" class="st6" width="107.7" height="235.4"/>
		<rect x="1014.6" y="320.2" class="st6" width="107.7" height="235.4"/>
		<rect x="652.2" y="355.8" class="st2" width="89.3" height="164.1"/>
		<rect x="776.1" y="355.8" class="st2" width="89.3" height="164.1"/>
		<rect x="899.9" y="355.8" class="st2" width="89.3" height="82.1"/>
		<line class="st7" x1="660.1" y1="333" x2="722.6" y2="333"/>
		<line class="st7" x1="783.9" y1="333" x2="846.4" y2="333"/>
		<line class="st7" x1="907.8" y1="333" x2="970.2" y2="333"/>
		<line class="st7" x1="1031.6" y1="333" x2="1094.1" y2="333"/>
		<line class="st7" x1="809.5" y1="385.3" x2="852.8" y2="385.3"/>
		<line class="st7" x1="790.3" y1="385.3" x2="796.9" y2="385.3"/>
		<line class="st7" x1="809.5" y1="446.1" x2="852.8" y2="446.1"/>
		<line class="st7" x1="790.3" y1="446.1" x2="796.9" y2="446.1"/>
		<line class="st7" x1="685.7" y1="385.3" x2="729" y2="385.3"/>
		<line class="st7" x1="666.5" y1="385.3" x2="673.1" y2="385.3"/>
		<line class="st7" x1="685.7" y1="446.1" x2="729" y2="446.1"/>
		<line class="st7" x1="666.5" y1="446.1" x2="673.1" y2="446.1"/>
		<line class="st7" x1="914.2" y1="385.3" x2="976.7" y2="385.3"/>
		<rect x="652.2" y="355.8" class="st4" width="89.3" height="16.9"/>
		<rect x="776.1" y="355.8" class="st4" width="89.3" height="16.9"/>
		<rect x="899.9" y="355.8" class="st4" width="89.3" height="16.9"/>
		<line class="st8" x1="836.7" y1="663.1" x2="928.6" y2="663.1"/>
		<path class="st9" d="M142,598.7h280.4c25.4,0,46.1,20.6,46.1,46.1v0c0,25.4-20.6,46.1-46.1,46.1H142c-25.4,0-46.1-20.6-46.1-46.1
			v0C95.9,619.3,116.5,598.7,142,598.7z"/>
		<g id="Built_Logo_Full_Color">
			<path class="st9" d="M115.4,395l29.2-16.9l29.3,16.9v26.3l-29.3-16.9l-29.2,16.8V395z M98.9,353.6v96h0.4l45.3-26.2l45.4,26.2
				h0.4v-64.2l-45.7-26.3l-29.2,16.8v-22.3H98.9z"/>
			<path class="st10" d="M259.8,378.5h-15.9v-24.9h-16.6v96h32.3c18.5,0,33.6-15,33.6-33.5c0,0,0-0.1,0-0.1v-3.9
				c0.1-18.4-14.7-33.5-33.1-33.6C260,378.5,259.9,378.5,259.8,378.5 M276.8,416.5c0,9.8-7.9,17.7-17.6,17.7c0,0-0.1,0-0.1,0h-15.3
				v-40.5h15.3c9.8,0,17.7,7.9,17.7,17.6c0,0,0,0.1,0,0.1L276.8,416.5z M366.8,378.5v38.8c0,17.8-14.3,32.2-32.1,32.2
				c0,0-0.1,0-0.1,0h-2.2c-17.8,0-32.2-14.3-32.2-32.1c0,0,0-0.1,0-0.1v-38.8h16.5v39.8c0,8.8,7.1,15.9,15.9,15.9l0,0h1.8
				c8.8,0,15.9-7.1,15.9-15.9l0,0v-39.8L366.8,378.5z M422.8,449.6h-16.6v-96h16.5L422.8,449.6z M394.1,449.6h-16.6v-71.1h16.6
				L394.1,449.6z M395.3,361.6c0,5.2-4.2,9.4-9.4,9.4s-9.4-4.2-9.4-9.4c0-5.2,4.2-9.4,9.4-9.4l0,0
				C391.1,352.2,395.2,356.4,395.3,361.6 M449.7,386.2V424c0,5.7,4.6,10.2,10.3,10.3h2.4v15.4h-3.5c-14.2,0-25.7-11.5-25.7-25.6
				c0,0,0,0,0,0v-70.4h16.5v17.3h18.6v15.4L449.7,386.2L449.7,386.2z"/>
		</g>
		<path class="st2" d="M202.3,652.2h10.9v3.3h-15v-23.9h4.2L202.3,652.2z"/>
		<path class="st2" d="M223.8,655.9c-2.3,0.1-4.5-0.8-6.2-2.4c-1.6-1.7-2.5-4-2.4-6.4v-0.5c0-1.6,0.3-3.3,1-4.8
			c0.6-1.3,1.6-2.5,2.9-3.3c1.2-0.8,2.7-1.2,4.1-1.2c2.1-0.1,4.2,0.7,5.6,2.3c1.4,1.9,2.1,4.2,2,6.6v1.6h-11.6
			c0,1.3,0.6,2.5,1.5,3.5c0.9,0.9,2,1.3,3.2,1.3c1.8,0,3.4-0.8,4.5-2.2l2.1,2.1c-0.7,1.1-1.7,1.9-2.9,2.5
			C226.5,655.6,225.2,655.9,223.8,655.9z M223.3,640.7c-1,0-2,0.4-2.6,1.2c-0.7,0.9-1.2,2-1.3,3.2h7.6v-0.3c0-1.1-0.4-2.1-1.1-3
			C225.3,641,224.3,640.6,223.3,640.7z"/>
		<path class="st2" d="M244.6,655.6c-0.2-0.5-0.4-1.1-0.5-1.7c-1.2,1.3-2.9,2-4.7,2c-1.6,0.1-3.2-0.5-4.4-1.5
			c-1.1-0.9-1.7-2.3-1.7-3.8c-0.1-1.7,0.7-3.4,2.1-4.4c1.8-1.1,3.9-1.6,6-1.5h2.4v-1.2c0-0.8-0.2-1.6-0.8-2.2
			c-0.6-0.6-1.5-0.9-2.4-0.8c-0.8,0-1.6,0.2-2.2,0.7c-0.6,0.4-0.9,1.1-0.9,1.7h-4c0-1,0.4-2,1-2.7c0.7-0.9,1.6-1.6,2.6-2
			c1.2-0.5,2.5-0.7,3.7-0.7c1.8-0.1,3.6,0.5,5,1.6c1.3,1.1,2,2.7,1.9,4.4v8c-0.1,1.3,0.2,2.6,0.7,3.8v0.3L244.6,655.6z M240.3,652.7
			c0.8,0,1.5-0.2,2.2-0.6c0.7-0.4,1.2-0.9,1.6-1.5v-3.4h-2.2c-1.2-0.1-2.3,0.2-3.3,0.8c-0.7,0.5-1.2,1.3-1.1,2.2
			c0,0.7,0.2,1.4,0.8,1.8C238.8,652.5,239.5,652.7,240.3,652.7z"/>
		<path class="st2" d="M261.5,641.4c-0.5-0.1-1.1-0.1-1.6-0.1c-1.6-0.2-3,0.7-3.7,2.1v12.2h-4v-17.8h3.8l0.1,2
			c0.8-1.5,2.3-2.3,4-2.3c0.5,0,1,0.1,1.4,0.2L261.5,641.4z"/>
		<path class="st2" d="M267.8,637.8l0.1,2c1.3-1.6,3.2-2.4,5.2-2.4c3.7,0,5.6,2.1,5.7,6.4v11.8h-4V644c0.1-0.9-0.2-1.8-0.7-2.5
			c-0.6-0.6-1.5-0.9-2.4-0.8c-1.5,0-2.9,0.8-3.6,2.2v12.7h-4v-17.7H267.8z"/>
		<path class="st2" d="M294.9,637.8l0.1,1.9c1.3-1.5,3.2-2.3,5.1-2.2c2.4,0,4,0.9,4.9,2.7c1.2-1.8,3.3-2.8,5.5-2.7
			c1.6-0.1,3.2,0.5,4.4,1.6c1.1,1.4,1.6,3.1,1.5,4.8v11.7h-4V644c0.1-0.9-0.2-1.8-0.7-2.5c-0.7-0.6-1.6-0.9-2.5-0.8
			c-0.8,0-1.6,0.2-2.2,0.7c-0.6,0.5-1,1.2-1.2,1.9v12.2h-4v-11.7c0-2.1-1.1-3.1-3.2-3.1c-1.4-0.1-2.8,0.7-3.4,2v12.9h-4v-17.8H294.9
			z"/>
		<path class="st2" d="M319.7,646.5c0-1.6,0.3-3.2,1-4.7c0.6-1.3,1.6-2.5,2.9-3.2c1.3-0.8,2.8-1.2,4.3-1.1c2.2-0.1,4.3,0.8,5.8,2.3
			c1.5,1.7,2.4,3.9,2.4,6.1v0.9c0,1.6-0.3,3.2-1,4.7c-0.6,1.3-1.6,2.4-2.9,3.2c-1.3,0.8-2.8,1.2-4.4,1.1c-2.3,0.1-4.5-0.8-6-2.5
			c-1.6-1.9-2.4-4.3-2.3-6.7L319.7,646.5z M323.7,646.9c-0.1,1.5,0.3,3,1.1,4.3c0.7,1,1.9,1.6,3.1,1.5c1.2,0.1,2.4-0.5,3.1-1.6
			c0.8-1.4,1.2-3,1.1-4.6c0.1-1.5-0.3-3-1.2-4.3c-1.3-1.7-3.7-2.1-5.5-0.8c-0.3,0.2-0.6,0.5-0.8,0.8
			C324,643.6,323.6,645.2,323.7,646.9L323.7,646.9z"/>
		<path class="st2" d="M349,641.4c-0.5-0.1-1.1-0.1-1.6-0.1c-1.6-0.2-3,0.7-3.7,2.1v12.2h-4v-17.8h3.8l0.1,2c0.8-1.5,2.3-2.3,4-2.3
			c0.5,0,1,0.1,1.4,0.2L349,641.4z"/>
		<path class="st2" d="M359,655.9c-2.3,0.1-4.5-0.8-6.2-2.4c-1.6-1.7-2.5-4-2.4-6.4v-0.5c0-1.6,0.3-3.3,1-4.8c1.3-2.7,4-4.4,7-4.4
			c2.1-0.1,4.2,0.7,5.6,2.3c1.4,1.9,2.1,4.2,2,6.6v1.6h-11.6c0,1.3,0.6,2.5,1.5,3.5c0.9,0.9,2,1.3,3.2,1.3c1.8,0,3.4-0.8,4.5-2.2
			l2.1,2.1c-0.7,1.1-1.7,1.9-2.9,2.5C361.8,655.6,360.4,655.9,359,655.9z M358.5,640.7c-1,0-2,0.4-2.7,1.2c-0.7,0.9-1.2,2-1.3,3.2
			h7.6v-0.3c0-1.1-0.4-2.1-1.1-3C360.4,641,359.5,640.6,358.5,640.7z"/>
		<g>
			<path class="st10" d="M101.3,269.8h22.8c4.7,0,8.2,1.2,10.6,3.5c2.4,2.3,3.6,5.5,3.6,9.6c0,2.9-0.7,5.4-2,7.5
				c-1.3,2.1-3.2,3.6-5.7,4.6l9.3,18H131l-8.2-16.7h-13.4V313h-8.1V269.8z M123.5,289.5c2.1,0,3.7-0.6,4.9-1.8
				c1.2-1.2,1.8-2.8,1.8-4.9c0-2-0.6-3.5-1.7-4.6c-1.1-1.1-2.8-1.6-4.9-1.6h-14.1v12.9H123.5z"/>
			<path class="st10" d="M148.6,309.5c-2.6-2.8-3.9-7.2-3.9-13.1s1.3-10.3,3.9-13.1c2.6-2.8,6.6-4.2,11.9-4.2
				c4.9,0,8.5,1.4,10.9,4.1c2.4,2.7,3.6,7,3.6,12.8v2.3h-22.7c0.1,3.3,0.8,5.7,2.1,7.2c1.3,1.5,3.3,2.3,6.1,2.3
				c2.1,0,3.8-0.5,5.1-1.6c1.3-1.1,2-2.7,2-4.8h7.4c0,4.1-1.3,7.2-4,9.2c-2.7,2.1-6.2,3.1-10.5,3.1
				C155.2,313.7,151.2,312.3,148.6,309.5z M167.2,292.9c0-5.2-2.2-7.8-6.7-7.8c-2.5,0-4.4,0.6-5.7,1.9c-1.3,1.3-2.1,3.2-2.4,5.9
				H167.2z"/>
			<path class="st10" d="M182.6,311.8c-2.2-1.3-3.2-3.8-3.2-7.3c0-4.2,1.8-7.2,5.4-8.9c3.6-1.7,8.7-2.6,15.4-2.6v-2.8
				c0-1.6-0.4-2.8-1.2-3.7c-0.8-0.9-2.3-1.3-4.4-1.3c-2.2,0-3.8,0.4-4.7,1.1c-0.9,0.7-1.4,1.6-1.4,2.6v0.9H181
				c0-0.3-0.1-0.7-0.1-1.4c0-2.9,1.2-5.1,3.7-6.7c2.5-1.6,5.7-2.5,9.8-2.5c4.4,0,7.7,0.9,9.9,2.7c2.2,1.8,3.3,4.4,3.3,7.7v15.8
				c0,0.8,0.2,1.3,0.6,1.7c0.4,0.4,0.9,0.5,1.6,0.5h2v5.2c-1.3,0.6-2.9,0.9-4.7,0.9c-1.6,0-3-0.4-4.1-1.2c-1.1-0.8-1.8-1.9-2.2-3.3
				h-0.4c-2.5,3-6,4.5-10.6,4.5C187.2,313.7,184.7,313.1,182.6,311.8z M198,305.6c1.4-1.4,2.1-3.4,2.1-5.8v-1.5
				c-4.1,0-7.3,0.4-9.6,1.2c-2.3,0.8-3.5,2.2-3.5,4.3c0,2.7,1.7,4,5,4C194.6,307.7,196.6,307,198,305.6z"/>
			<path class="st10" d="M218.1,309.5c-2.3-2.9-3.5-7.2-3.5-13.1c0-5.7,1.2-10,3.5-12.9c2.3-2.9,5.4-4.3,9.3-4.3
				c4.6,0,7.9,1.5,10,4.6h0.4v-16.3h7.6V313h-6.2l-0.6-4.4h-0.4c-1.1,1.7-2.5,3-4.3,3.8s-3.7,1.3-5.9,1.3
				C223.7,313.7,220.5,312.3,218.1,309.5z M235.9,304.6c1.2-1.7,1.8-4.3,1.8-7.8v-0.8c0-7-2.5-10.5-7.6-10.5c-2.8,0-4.7,0.8-5.9,2.5
				c-1.2,1.7-1.8,4.3-1.8,8v0.8c0,3.6,0.6,6.2,1.8,7.9c1.2,1.7,3.1,2.5,5.9,2.5C232.8,307.3,234.7,306.4,235.9,304.6z"/>
			<path class="st10" d="M254.5,324.1c-0.9-0.2-1.3-0.3-1.4-0.3v-5.2h3.4c1.6,0,3-0.4,4.1-1.3c1.1-0.9,2-2.3,2.6-4.3l-12.9-33.1h7.9
				l6.2,15.9c0.7,1.9,1.6,5,2.8,9.2h0.3c1-4,1.9-7.1,2.6-9.2l5-15.9h7.6l-11,31.4c-1.5,4.2-3.3,7.5-5.2,9.8c-2,2.3-4.7,3.4-8.1,3.4
				C256.7,324.5,255.4,324.3,254.5,324.1z"/>
			<path class="st10" d="M307.8,311.4c-1.2-1.6-1.9-3.5-1.9-5.9V286h-4v-6.2h4.2l1.4-9.3h6v9.3h5.7v6.2h-5.7v18.7
				c0,1.9,0.9,2.8,2.7,2.8h3v5.2c-0.7,0.3-1.5,0.5-2.5,0.7s-1.9,0.3-2.8,0.3C311,313.7,309,313,307.8,311.4z"/>
			<path class="st10" d="M327.2,309.5c-2.7-2.8-4.1-7.2-4.1-13.1s1.4-10.3,4.1-13.1s6.8-4.2,12.3-4.2c5.5,0,9.5,1.4,12.3,4.2
				s4.1,7.2,4.1,13.1s-1.4,10.3-4.1,13.1s-6.8,4.2-12.3,4.2C334,313.7,329.9,312.3,327.2,309.5z M346,305c1.3-1.7,2-4.4,2-8.1V296
				c0-3.7-0.7-6.4-2-8.1c-1.3-1.7-3.5-2.6-6.5-2.6c-3,0-5.2,0.9-6.5,2.6c-1.3,1.7-2,4.4-2,8.1v0.9c0,3.7,0.7,6.4,2,8.1
				c1.3,1.7,3.5,2.6,6.5,2.6C342.5,307.6,344.6,306.7,346,305z"/>
			<path class="st10" d="M379.5,322.4c-1.7-1.4-2.5-3.3-2.5-5.7c0-3,1.7-5.3,5.2-6.9c-1-0.5-1.8-1.2-2.4-2.1c-0.6-0.8-0.9-1.8-0.9-3
				c0-1.5,0.6-2.7,1.7-3.7c1.1-1,2.5-1.6,4.1-2c-1.5-1-2.7-2.2-3.5-3.7c-0.8-1.5-1.2-3.2-1.2-5.1c0-3.5,1.2-6.2,3.7-8.2
				c2.5-2,6-3,10.5-3c2.5,0,4.7,0.3,6.6,1c1.3-0.8,2.3-1.7,3-2.7c0.6-1,1-2,1.1-3h7.3c0,2.2-0.6,4-1.8,5.4c-1.2,1.4-2.9,2.4-5,2.8
				c2.2,2.1,3.3,4.6,3.3,7.7c0,3.5-1.2,6.2-3.7,8.3c-2.4,2-5.9,3-10.3,3h-5.2c-0.9,0-1.6,0.2-2.1,0.6c-0.5,0.4-0.8,0.9-0.8,1.6
				c0,0.6,0.2,1.1,0.7,1.5c0.5,0.4,1.1,0.6,1.9,0.6h14.5c2.5,0,4.5,0.8,6.1,2.4c1.6,1.6,2.4,3.7,2.4,6.1c0,1.8-0.5,3.5-1.4,5.1
				c-1,1.5-2.3,2.7-4.1,3.6c-1.8,0.9-3.8,1.3-6.1,1.3h-14.9C383.2,324.5,381.2,323.8,379.5,322.4z M400.4,319c1.2,0,2.2-0.3,3-0.9
				c0.8-0.6,1.2-1.4,1.2-2.4c0-1-0.3-1.9-1-2.5c-0.7-0.6-1.6-0.9-2.6-0.9h-12.7c-1.1,0-1.9,0.3-2.6,0.9c-0.7,0.6-1,1.4-1,2.4
				c0,1,0.3,1.8,1,2.4c0.7,0.6,1.5,0.9,2.6,0.9H400.4z M399.3,294.7c1.1-1,1.7-2.5,1.7-4.4c0-1.9-0.6-3.3-1.7-4.4s-2.8-1.5-5-1.5
				c-2.2,0-3.9,0.5-5,1.5c-1.1,1-1.7,2.5-1.7,4.4c0,1.9,0.6,3.4,1.7,4.4c1.1,1,2.8,1.5,5,1.5C396.5,296.2,398.1,295.7,399.3,294.7z"
				/>
			<path class="st10" d="M417.3,267.4h7.4v7.4h-7.4V267.4z M417.3,279.9h7.6V313h-7.6V279.9z"/>
			<path class="st10" d="M429.9,279.9h7.9l5.4,15.1c0.7,1.8,1.7,5.2,3,10.1h0.3c1.2-4.6,2.1-8,2.9-10.1l5.4-15.1h7.6L450.1,313h-7.9
				L429.9,279.9z"/>
			<path class="st10" d="M469.3,309.5c-2.6-2.8-3.9-7.2-3.9-13.1s1.3-10.3,3.9-13.1c2.6-2.8,6.6-4.2,11.9-4.2
				c4.9,0,8.5,1.4,10.9,4.1c2.4,2.7,3.6,7,3.6,12.8v2.3h-22.7c0.1,3.3,0.8,5.7,2.1,7.2c1.3,1.5,3.3,2.3,6.1,2.3
				c2.1,0,3.8-0.5,5.1-1.6c1.3-1.1,2-2.7,2-4.8h7.4c0,4.1-1.3,7.2-4,9.2c-2.7,2.1-6.2,3.1-10.5,3.1
				C475.9,313.7,471.9,312.3,469.3,309.5z M488,292.9c0-5.2-2.2-7.8-6.7-7.8c-2.5,0-4.4,0.6-5.7,1.9c-1.3,1.3-2.1,3.2-2.4,5.9H488z"
				/>
		</g>
		<g>
			<path class="st10" d="M102.1,527.8c-2.2-1.3-3.2-3.8-3.2-7.3c0-4.2,1.8-7.2,5.4-8.9c3.6-1.7,8.7-2.6,15.4-2.6v-2.8
				c0-1.6-0.4-2.8-1.2-3.7c-0.8-0.9-2.3-1.3-4.4-1.3c-2.2,0-3.8,0.4-4.7,1.1c-0.9,0.7-1.4,1.6-1.4,2.6v0.9h-7.3
				c0-0.3-0.1-0.7-0.1-1.4c0-2.9,1.2-5.1,3.7-6.7s5.7-2.5,9.8-2.5c4.4,0,7.7,0.9,9.9,2.7c2.2,1.8,3.3,4.4,3.3,7.7v15.8
				c0,0.8,0.2,1.3,0.6,1.7c0.4,0.4,0.9,0.5,1.6,0.5h2v5.2c-1.3,0.6-2.9,0.9-4.7,0.9c-1.6,0-3-0.4-4.1-1.2c-1.1-0.8-1.8-1.9-2.2-3.3
				h-0.4c-2.5,3-6,4.5-10.6,4.5C106.7,529.7,104.2,529.1,102.1,527.8z M117.5,521.6c1.4-1.4,2.1-3.4,2.1-5.8v-1.5
				c-4.1,0-7.3,0.4-9.6,1.2c-2.3,0.8-3.5,2.2-3.5,4.3c0,2.7,1.7,4,5,4C114.1,523.7,116,523,117.5,521.6z"/>
			<path class="st10" d="M156.1,527.4c-1.2-1.6-1.9-3.5-1.9-5.9V502h-4v-6.2h4.2l1.4-9.3h6v9.3h5.7v6.2h-5.7v18.7
				c0,1.9,0.9,2.8,2.7,2.8h3v5.2c-0.7,0.3-1.5,0.5-2.5,0.7s-1.9,0.3-2.8,0.3C159.4,529.7,157.4,529,156.1,527.4z"/>
			<path class="st10" d="M173.6,495.9h6.2l0.7,5.2h0.4c1.5-4,4-6,7.4-6c1.2,0,2.2,0.2,3.2,0.6v7.1h-2.4c-5.3,0-8,3-8,8.9V529h-7.6
				V495.9z"/>
			<path class="st10" d="M197.3,540.1c-0.9-0.2-1.3-0.3-1.4-0.3v-5.2h3.4c1.6,0,3-0.4,4.1-1.3c1.1-0.9,2-2.3,2.6-4.3l-12.9-33.1h7.9
				l6.2,15.9c0.7,1.9,1.6,5,2.8,9.2h0.3c1-4,1.9-7.1,2.6-9.2l5-15.9h7.6l-11,31.4c-1.5,4.2-3.3,7.5-5.2,9.8c-2,2.3-4.7,3.4-8.1,3.4
				C199.5,540.5,198.2,540.3,197.3,540.1z"/>
			<path class="st10" d="M241.1,513.9c0-1.7,0.3-3.2,0.9-4.4c0.6-1.2,1.2-2.3,2-3.1c0.8-0.8,1.8-1.7,3.1-2.7
				c1.5-1.2,2.6-2.2,3.3-3.1c0.7-0.9,1.1-2,1.1-3.4c0-1.4-0.5-2.7-1.4-3.8c-0.9-1.2-2.7-1.7-5.3-1.7c-2.8,0-4.7,0.7-5.6,2.1
				c-1,1.4-1.5,2.9-1.5,4.6l0.1,1.7h-7.7c-0.2-0.8-0.3-1.5-0.3-2.2c0-2.4,0.6-4.6,1.8-6.5c1.2-2,2.9-3.5,5.3-4.6
				c2.3-1.1,5.2-1.7,8.5-1.7c4.4,0,7.8,1,10.4,2.9c2.6,2,3.8,4.7,3.8,8.3c0,2-0.3,3.7-0.9,5.2c-0.6,1.4-1.4,2.6-2.3,3.5
				c-0.9,0.9-2,1.9-3.5,3c-1.6,1.3-2.8,2.4-3.6,3.3c-0.8,1-1.2,2.2-1.2,3.7v2.1h-7.1V513.9z M240.7,521h7.8v8h-7.8V521z"/>
		</g>
	</g>
</g>
</svg>
