<svg xmlns="http://www.w3.org/2000/svg" viewBox="0 0 1200 937"><defs><style>.cls-1{isolation:isolate;}.cls-2,.cls-4{fill:#9dc7e0;}.cls-2{opacity:0.15;}.cls-3{opacity:0.25;mix-blend-mode:multiply;}.cls-11,.cls-5{fill:#f9ef35;}.cls-10,.cls-5,.cls-6,.cls-7,.cls-8{stroke:#0c1733;stroke-width:2px;}.cls-5,.cls-6,.cls-8{stroke-linecap:round;stroke-linejoin:round;}.cls-6,.cls-9{fill:#fff;}.cls-7{fill:#e13a25;}.cls-10,.cls-7{stroke-miterlimit:10;}.cls-12,.cls-8{fill:#cfdde5;}.cls-10,.cls-13{fill:#a3bdcc;}</style></defs><title>01_Vector</title><g class="cls-1"><g id="Layer_1" data-name="Layer 1"><path class="cls-2" d="M943.91,778.86C886.84,815,827,815.27,767.94,799.44c-60-16.09-119.19-48.79-173.84-77.27h0c-25.47-13.28-50-25.63-73.06-35C503.07,680,485.94,674.55,469.83,672c-33.11-5.35-64.51-8.55-93.48-12-80.63-9.71-142.43-21.69-169.8-88.6C147.84,427.74,332.23,243.47,517.1,165.23a548.24,548.24,0,0,1,66.84-23.53C626,130,666.41,125,702.31,128.46c48.51,4.65,96.23,36.43,138.92,83.83,24.63,27.34,47.59,59.88,68,95.39C1006.64,476.7,1047.53,713.23,943.91,778.86Z"/><g class="cls-3"><circle class="cls-4" cx="643.48" cy="481.3" r="157.83"/><path class="cls-4" d="M913.49,479.22a268.51,268.51,0,0,0-35.08-131.14,73.88,73.88,0,0,0,30.86-40.4c-20.45-35.51-43.41-68.05-68-95.39-.79,0-1.57,0-2.36,0a73.63,73.63,0,0,0-62.16,34.13A268.5,268.5,0,0,0,645.58,211.3a73.71,73.71,0,0,0-61.64-69.6,548.24,548.24,0,0,0-66.84,23.53,73.66,73.66,0,0,0-10.45,83.25,271.42,271.42,0,0,0-96,96,73.67,73.67,0,1,0-37.18,138.93,268.59,268.59,0,0,0,35.09,131.14,73.77,73.77,0,0,0-32.22,45.38c29,3.49,60.37,6.69,93.48,12,16.11,2.6,33.24,8,51.19,15.26A73.67,73.67,0,0,0,431,605,244.73,244.73,0,0,1,397.65,481.3c0-.31,0-.6,0-.91a73.64,73.64,0,0,0,32.43-121.22,247,247,0,0,1,91.26-91.25,73.66,73.66,0,0,0,121.23-32.44h.91A244.65,244.65,0,0,1,767.2,268.84,73.64,73.64,0,0,0,856,357.59,244.65,244.65,0,0,1,889.32,481.3c0,.31,0,.6,0,.91a73.66,73.66,0,0,0-32.43,121.24,247.06,247.06,0,0,1-91.26,91.25,73.65,73.65,0,0,0-121.23,32.43h-.9a245.74,245.74,0,0,1-49.39-5c54.65,28.48,113.83,61.18,173.84,77.27a73.67,73.67,0,0,0,12.39-85.31,271.42,271.42,0,0,0,96-96,73.67,73.67,0,1,0,37.18-138.92Z"/></g><path class="cls-5" d="M625.08,199c-149.14,0-270,120.9-270,270s120.89,270,270,270,270-120.9,270-270S774.21,199,625.08,199Zm0,515.87c-135.77,0-245.84-110.06-245.84-245.84S489.31,223.2,625.08,223.2,870.91,333.27,870.91,469,760.85,714.87,625.08,714.87Z"/><circle class="cls-6" cx="625.08" cy="469.03" r="157.83"/><path class="cls-7" d="M625.08,401.09l-46.21,27.67V393.18H552.68V544.89l72.16-42.5,72.64,42.5V443.59Zm46.21,99.08L625.08,472.5l-46.21,27.67v-42l46.21-27.68,46.21,27.68Z"/><circle class="cls-8" cx="553.57" cy="202.14" r="73.68"/><path class="cls-9" d="M598.42,183.42c-9.32,0-15.41,6.39-15.41,17,0,13.11,9.33,16.86,16,16.86a18.3,18.3,0,0,0,13.24-5.67l-4.3-4.3a12.39,12.39,0,0,1-8.86,3.28c-5.19,0-8.68-3-8.68-7.19h23.16s4-19.93-15.16-19.93m-8,14.22c0-5.62,4.26-8.3,8.81-8.3s8.69,2.77,8.69,8.3Zm-77.27-.55c-3-.38-11.54,0-11.54-4,0-2.3,3.57-3.58,6.9-3.58a17.65,17.65,0,0,1,9.79,2.81l4.47-4.47a23.28,23.28,0,0,0-14.26-4.47c-7.33,0-13.93,3.83-13.93,10,0,9.4,11.37,9.4,16.1,9.87,2.89.3,5.49.47,5.49,3.28,0,2.64-4,4.09-7.11,4.09A15,15,0,0,1,498,206.29l-4.77,4.81a22,22,0,0,0,15.46,6.13c8.51,0,14.68-3.75,14.68-11.29,0-5-3.36-8-10.21-8.85m24.43-13.67a20.5,20.5,0,0,0-13,4.52l4.47,4.47a13.86,13.86,0,0,1,8.64-2.81c5.66,0,7.36,2.25,7.36,4.81v3.19H534.94c-3.74,0-11.06.94-11.06,9.15,0,6.05,3.44,10.48,11.7,10.48,4.13,0,7.28-1.37,9.45-3.92v3.28h7.33V194.92c-.05-7.58-4.69-11.5-14.78-11.5m7.5,21.33c0,6.26-4.47,5.92-8.43,5.92s-6.6-1.06-6.6-3.87c0-2.6,2.08-3.49,6.43-3.49h8.6v1.44Zm29.84-20.65v3.62a11.78,11.78,0,0,0-9.53-4.3c-6.94,0-10.52,3.88-11.71,8.05-.47,1.53-.6,4.47-.6,8.81,0,4.09,0,7.84,1.45,10.69,2,4,6.81,6.26,10.86,6.26a12.47,12.47,0,0,0,9.53-4.13v2a6.14,6.14,0,0,1-2.34,5.2,9.31,9.31,0,0,1-6.13,2,11.12,11.12,0,0,1-6.05-2.26L555.47,225a18,18,0,0,0,11.11,4.38,16.64,16.64,0,0,0,10.94-3.7c2.94-2.3,4.81-6.68,4.81-11.28V184.1Zm0,16.18a31.73,31.73,0,0,1-.25,5.32c-.47,2.09-2.86,4.86-7.2,4.86-1.11,0-6.64-.64-7.28-5.45a36.38,36.38,0,0,1-.21-4.77,31.42,31.42,0,0,1,.34-5.92c.38-1.87,2.85-4.68,7.15-4.68,5.24,0,6.94,3.57,7.2,5a37.4,37.4,0,0,1,.25,5.66"/><circle class="cls-10" cx="696.59" cy="735.93" r="73.68"/><path class="cls-9" d="M743.78,713.31c0-7.92-1.3-13.11-4.6-16.42-3.31-2.6-8.51-3.9-17-3.9H671c-8.51,0-13.82,1.3-17,3.9s-4.61,7.91-4.61,16.42v45.24c0,7.91,1.3,13.11,4.61,16.42,3.31,2.6,8.5,3.9,17,3.9h51.15c8.5,0,13.82-1.3,17-3.9s4.6-7.92,4.6-16.42v-11.1H722.17l-8.63,15H682l-15.71-26.82L682,708.7h31.54l8.51,15.12h21.62Z"/><polygon class="cls-11" points="680.12 735.63 688.62 750.63 706.34 750.63 714.84 735.63 706.34 720.51 688.62 720.51 680.12 735.63"/><circle class="cls-8" cx="891.97" cy="540.55" r="73.68"/><path class="cls-9" d="M867.79,554.29a2.23,2.23,0,0,1-1.64,2.35,2.26,2.26,0,0,1-2.28-.66q-6.14-6.13-12.25-12.26c-3.86,3.84-7.68,7.72-11.56,11.51-.59.58-1.13,1.35-2,1.45a2.23,2.23,0,0,1-2-3.75c4.09-4.13,8.24-8.18,12.29-12.34l-.08-.23c-3.75-3.78-7.55-7.55-11.32-11.32a4.13,4.13,0,0,1-1.51-2.17,2.28,2.28,0,0,1,1.83-2.5,2.34,2.34,0,0,1,2.15.75c4.07,4.07,8.12,8.16,12.24,12.19,4.13-4.14,8.27-8.25,12.38-12.38a2.27,2.27,0,0,1,3.43.44,2.31,2.31,0,0,1-.34,2.86c-4.09,4.11-8.21,8.2-12.3,12.32,4,4,8,8,11.94,11.91A2.79,2.79,0,0,1,867.79,554.29Z"/><path class="cls-9" d="M899.74,537.56a16.37,16.37,0,0,0-4.5-8.58,15.73,15.73,0,0,0-9.16-4.52A16.25,16.25,0,0,0,874.61,554,16.05,16.05,0,0,0,885,556.79a17.24,17.24,0,0,0,7.36-2.43,18.5,18.5,0,0,0,4.43-4.18,2.68,2.68,0,0,0,.4-2.41,2.26,2.26,0,0,0-3.19-1.21c-.73.38-1.07,1.15-1.6,1.75a11.73,11.73,0,0,1-5.52,3.51,11.56,11.56,0,0,1-10.55-2.26,11.89,11.89,0,0,1-4.18-7.24c7.48,0,15,0,22.47,0a5.83,5.83,0,0,0,3.38-.75A3.91,3.91,0,0,0,899.74,537.56Zm-27.39.24a12,12,0,0,1,5-7.06,11.72,11.72,0,0,1,17.75,7.06Z"/><path class="cls-9" d="M947.44,534.62a16.2,16.2,0,0,0-7.21-8.29,16.51,16.51,0,0,0-10.12-1.94,16.27,16.27,0,0,0-7.63,29.12,16.32,16.32,0,0,0,19.72-.07,16.33,16.33,0,0,0,5.81-8.78A16.13,16.13,0,0,0,947.44,534.62Zm-5.65,12.58a11.76,11.76,0,0,1-7.14,4.71,11.52,11.52,0,0,1-7.63-1,11.62,11.62,0,0,1,3.15-21.78,11.4,11.4,0,0,1,7,.9,11.7,11.7,0,0,1,6.43,8A11.5,11.5,0,0,1,941.79,547.2Z"/><path class="cls-9" d="M917.05,527.44a2.17,2.17,0,0,1-2,1.51,9.27,9.27,0,0,0-4.09,1,4.27,4.27,0,0,0-1.92,2.84,26.58,26.58,0,0,0-.34,5.84v15.7a2.24,2.24,0,0,1-2.24,2.24,2.33,2.33,0,0,1-2.28-2.43v-27a2.3,2.3,0,0,1,1.64-2.3,2.33,2.33,0,0,1,2.81,1.59,9.64,9.64,0,0,1,6.87-1.76A2.25,2.25,0,0,1,917.05,527.44Z"/><path class="cls-9" d="M933.52,544.38a4,4,0,0,1-4.39-1.3,4,4,0,1,1,7.18-2.83A4,4,0,0,1,933.52,544.38Z"/><circle class="cls-10" cx="820.46" cy="273.65" r="73.68"/><path class="cls-9" d="M816.58,246.82v63.65h-7.64V255.12h-7.66a18.53,18.53,0,1,0,0,37.06v8.31a26.84,26.84,0,0,1,0-53.67Z"/><path class="cls-9" d="M824.34,300.49V232.73H832v59.45h7.66a18.53,18.53,0,0,0,0-37.06v-8.3a26.84,26.84,0,0,1,0,53.67Z"/><circle class="cls-6" cx="429.7" cy="664.41" r="73.68"/><polygon class="cls-12" points="459.71 633.34 459.71 682.42 399.69 682.42 399.69 620.51 446.97 620.51 446.97 633.34 459.71 633.34"/><polygon class="cls-13" points="459.71 633.26 459.71 633.34 446.97 633.34 446.97 620.51 459.71 633.26"/><rect class="cls-9" x="408.29" y="667.1" width="12.59" height="4.85"/><rect class="cls-9" x="423.29" y="667.1" width="12.59" height="4.85"/><rect class="cls-9" x="438.3" y="667.1" width="12.59" height="4.85"/><rect class="cls-9" x="408.29" y="660.77" width="12.59" height="4.85"/><rect class="cls-9" x="423.29" y="660.77" width="12.59" height="4.85"/><rect class="cls-9" x="438.3" y="660.77" width="12.59" height="4.85"/><rect class="cls-9" x="408.29" y="654.44" width="12.59" height="4.85"/><rect class="cls-9" x="423.29" y="654.44" width="12.59" height="4.85"/><rect class="cls-9" x="438.3" y="654.44" width="12.59" height="4.85"/><rect class="cls-9" x="408.29" y="648.11" width="12.59" height="4.85"/><rect class="cls-9" x="423.29" y="648.11" width="12.59" height="4.85"/><rect class="cls-9" x="438.3" y="648.11" width="12.59" height="4.85"/><rect class="cls-9" x="408.29" y="641.78" width="12.59" height="4.85"/><rect class="cls-9" x="423.29" y="641.78" width="12.59" height="4.85"/><rect class="cls-9" x="438.3" y="641.78" width="12.59" height="4.85"/><rect class="cls-13" x="399.69" y="682.42" width="60.02" height="25.9"/><path class="cls-9" d="M413.38,696.29H409v2.81h4.87v2.2h-7.56V689.45h7.31v2.2H409v2.46h4.36Z"/><path class="cls-9" d="M422,701.3l-1.08-2.14c-.44-.83-.72-1.44-1.05-2.13h0c-.24.69-.54,1.3-.91,2.13l-1,2.14h-3.06l3.42-6-3.3-5.86H418l1,2.16c.35.73.62,1.31.9,2h0c.29-.75.51-1.28.81-2l1-2.16h3.05l-3.34,5.79,3.52,6.06Z"/><path class="cls-9" d="M434.52,701a7.74,7.74,0,0,1-3,.51c-4.09,0-6.2-2.55-6.2-5.93,0-4,2.88-6.29,6.47-6.29a6.94,6.94,0,0,1,2.92.53l-.55,2.12a6,6,0,0,0-2.25-.44,3.9,3.9,0,0,0,0,7.79,6.72,6.72,0,0,0,2.23-.38Z"/><path class="cls-9" d="M443.33,696.29H439v2.81h4.87v2.2h-7.56V689.45h7.31v2.2H439v2.46h4.36Z"/><path class="cls-9" d="M445.67,689.45h2.69v9.6h4.71v2.25h-7.4Z"/><circle class="cls-5" cx="358.18" cy="397.52" r="73.68"/><rect class="cls-13" x="316.72" y="424.33" width="82.94" height="11.75"/><polygon class="cls-13" points="350.38 410.24 358.56 418.43 366.75 410.24 366.75 410.24 390.27 386.72 382.08 378.54 364.08 396.54 364.08 352.96 352.51 352.96 352.51 396 335.04 378.54 326.86 386.72 350.38 410.24 350.38 410.24"/></g></g></svg>