<svg xmlns="http://www.w3.org/2000/svg" viewBox="0 0 1200 937"><defs><style>.cls-1{isolation:isolate;}.cls-2,.cls-3{fill:#9dc7e0;}.cls-2{opacity:0.15;}.cls-3{opacity:0.25;mix-blend-mode:multiply;}.cls-4,.cls-6{fill:#fff;}.cls-10,.cls-4,.cls-5,.cls-8,.cls-9{stroke:#0c1733;stroke-linecap:round;stroke-linejoin:round;}.cls-10,.cls-4,.cls-5,.cls-6{stroke-width:2px;}.cls-5{fill:#f9ef35;}.cls-6{stroke:#000;}.cls-12,.cls-6{stroke-miterlimit:10;}.cls-7{fill:#cfdde5;}.cls-10,.cls-12,.cls-8,.cls-9{fill:none;}.cls-8,.cls-9{stroke-width:5px;}.cls-9{stroke-dasharray:0 19.3;}.cls-11{fill:#a3bdcc;}.cls-12{stroke:#a3bdcc;stroke-width:7px;}</style></defs><title>01_Vector</title><g class="cls-1"><g id="Layer_1" data-name="Layer 1"><path class="cls-2" d="M950,577c-41.18,19-95.82,28.79-142.21,56.42-28.63,17.06-45.42,40-58.88,64C718.13,752.32,704.69,780,607,789c-114.08,10.5-132.37-35.51-175.74-91.52-10-13-21.46-24.75-35.72-33.87-26.53-17-58.08-29.08-88.52-42.95-56.46-25.71-109.11-57.47-118.88-137.54C179.42,412.13,240.77,380.28,307,356c49.92-18.29,102.61-32.26,130.16-55.41,11.34-9.53,20.7-21,29-33.48,38.64-58,54.48-116,140.82-120.42,102.77-5.27,132.83,116.65,194.14,151.85,1.27.73,2.56,1.42,3.85,2.05,38.73,18.92,99.19,24.09,145,55.13,29.84,20.19,53.48,51.35,60.9,104.38C1020.4,528.27,992.27,557.47,950,577Z"/><path class="cls-3" d="M950,355.74V577c-41.18,19-95.82,28.79-142.21,56.42-28.63,17.06-45.42,40-58.88,64H668.63v-180H649v38.77H610.18V517.39H588.31v180H431.21c-10-13-21.46-24.75-35.72-33.87-26.53-17-58.08-29.08-88.52-42.95V356c49.92-18.29,102.61-32.26,130.16-55.41,11.34-9.53,20.7-21,29-33.48a36.42,36.42,0,0,1,18,31.43h104.2V478.61h21.87V439.84H649v38.77h19.68v-180H801.09c1.27.73,2.56,1.42,3.85,2.05C843.67,319.53,904.13,324.7,950,355.74Z"/><rect class="cls-4" x="284.04" y="275.63" width="281.35" height="398.87"/><circle class="cls-5" cx="424.71" cy="275.63" r="36.46"/><circle class="cls-6" cx="424.71" cy="275.63" r="19.87"/><rect class="cls-7" x="327" y="347.11" width="194.8" height="11.91"/><rect class="cls-7" x="327" y="373.45" width="194.8" height="11.91"/><rect class="cls-7" x="327" y="440.06" width="103.62" height="11.91"/><rect class="cls-7" x="327" y="411.01" width="103.62" height="11.91"/><rect class="cls-7" x="450.8" y="411.01" width="71.03" height="40.73"/><rect class="cls-7" x="327" y="469" width="194.82" height="11.91"/><rect class="cls-7" x="327" y="497.94" width="194.8" height="11.91"/><line class="cls-8" x1="329.62" y1="598.29" x2="329.62" y2="598.29"/><line class="cls-9" x1="348.92" y1="598.29" x2="416.48" y2="598.29"/><line class="cls-8" x1="426.13" y1="598.29" x2="426.13" y2="598.29"/><path class="cls-10" d="M424.53,575.49c-22.13,9.12-36.15,5.64-41.32-3.89a15.67,15.67,0,0,1-.87-13.32c2.07-5,6.9-8.81,11.11-7.29,7.17,2.58,6,13.67.71,20.76-6.32,8.47-15.81,12.63-22.71,11.59-6.72-1-11.93-6.53-11.68-14.58.32-10.68,9.17-13.27,12.86-4S361.8,586,348.09,583.64,331.22,575,331.22,575"/><rect class="cls-4" x="645.7" y="275.63" width="281.35" height="398.87"/><rect class="cls-7" x="688.97" y="347.11" width="83.32" height="11.91"/><rect class="cls-7" x="688.97" y="373.45" width="83.32" height="11.91"/><rect class="cls-7" x="688.97" y="431.37" width="114.8" height="11.91"/><rect class="cls-7" x="688.97" y="450.5" width="114.8" height="11.91"/><rect class="cls-7" x="688.97" y="469.63" width="114.8" height="11.91"/><rect class="cls-7" x="688.97" y="488.75" width="114.8" height="11.91"/><rect class="cls-7" x="688.97" y="507.88" width="114.8" height="11.91"/><rect class="cls-7" x="816.78" y="431.37" width="66.99" height="11.91"/><rect class="cls-7" x="816.78" y="450.5" width="66.99" height="11.91"/><rect class="cls-7" x="816.78" y="469.63" width="66.99" height="11.91"/><rect class="cls-7" x="816.78" y="488.75" width="66.99" height="11.91"/><rect class="cls-7" x="816.78" y="507.88" width="66.99" height="11.91"/><path class="cls-11" d="M860.51,381.72a8.31,8.31,0,0,0-2.32-6q-2.33-2.39-7.74-4.3a61.63,61.63,0,0,1-8.43-3.55q-10-5.37-10-15.91a16.44,16.44,0,0,1,4.34-11.74q4.35-4.6,11.79-5.46v-9.37H855v9.46a17,17,0,0,1,11.56,6.34q4.09,5.27,4.09,13.7H860.25c0-3.62-.81-6.46-2.43-8.54a7.92,7.92,0,0,0-6.6-3.12,8.93,8.93,0,0,0-6.45,2.24,8.47,8.47,0,0,0-2.32,6.41,8,8,0,0,0,2.3,6q2.29,2.26,7.81,4.28a67,67,0,0,1,8.64,3.74,22.3,22.3,0,0,1,5.29,3.94,15.64,15.64,0,0,1,3.31,5.09,18.16,18.16,0,0,1,1.16,6.76q0,7.26-4.45,11.78t-12.41,5.33v8.39h-6.83v-8.35q-8.52-.94-13.1-6.1T829.59,379H840q0,5.42,2.73,8.39c1.82,2,4.4,3,7.72,3s5.76-.79,7.46-2.37A8.13,8.13,0,0,0,860.51,381.72Z"/><rect class="cls-7" x="768.97" y="577.99" width="86.39" height="11.91"/><circle class="cls-12" cx="855.36" cy="583.95" r="28.41"/><polygon class="cls-5" points="626.02 455.68 626.02 416.91 587.25 416.91 587.25 455.68 548.48 455.68 548.48 494.45 587.25 494.45 587.25 533.23 626.02 533.23 626.02 494.45 664.79 494.45 664.79 455.68 626.02 455.68"/></g></g></svg>