<svg xmlns="http://www.w3.org/2000/svg" viewBox="0 0 1465.48 941.05"><defs><style>.cls-1{isolation:isolate;}.cls-2,.cls-3{fill:#9dc7e0;}.cls-2{opacity:0.15;}.cls-3{opacity:0.25;}.cls-4,.cls-8{fill:#fff;}.cls-13,.cls-14,.cls-5,.cls-7{fill:#cfdde5;}.cls-11,.cls-6{fill:#edf4f8;}.cls-7{stroke:#cfdde5;stroke-width:2.6px;opacity:0.6;mix-blend-mode:multiply;}.cls-10,.cls-11,.cls-12,.cls-13,.cls-14,.cls-15,.cls-7,.cls-8,.cls-9{stroke-linecap:round;stroke-linejoin:round;}.cls-10,.cls-11,.cls-12,.cls-13,.cls-14,.cls-15,.cls-8,.cls-9{stroke:#0c1733;}.cls-10,.cls-11,.cls-12,.cls-13,.cls-15,.cls-8,.cls-9{stroke-width:2px;}.cls-15,.cls-9{fill:none;}.cls-10{fill:#a3bdcc;}.cls-12{fill:#f9ef35;}.cls-14{stroke-width:2.65px;}.cls-15{stroke-dasharray:0 10.61;}</style></defs><title>Different types of Lien Waivers</title><g class="cls-1"><g id="Layer_1" data-name="Layer 1"><path class="cls-2" d="M274.33,845.89c17.83,42.49,62.44,66.32,101.94,81.24a669.28,669.28,0,0,0,169.66,39.66c29.25,2.93,58.6,3.21,88,3.77,28.87.54,58.25,1.47,86.3,8.49,52.83,13.22,98.91,44.41,149.56,63.58,87.21,33,187.52,39,276.72,2.35,247.39-101.73,421.13,13.52,559.65-101.73,55.88-46.5,22.31-191.6-88.5-249.89-53.32-28.06-109-51.44-163.47-77.16a12,12,0,0,0-10.79.7c-7.69-4.22-15.18-8.94-22.53-14-20.36-13.94-39.58-29.61-60.16-43.22a261.87,261.87,0,0,0-72.53-33.83c-54-15.41-111.48-16.24-167.48-14.84-113.58,2.83-226.64,22.34-337.45,51-111.88,28.88-221.65,66.73-330.79,106.09-26.05,9.39-52.25,18.47-78.1,28.51-21.06,8.18-41.39,18.1-60,31.56-17.69,12.79-33.11,29.73-41.28,50.83C264.7,800.62,265.59,825.08,274.33,845.89Z" transform="translate(-267.26 -128.97)"/><polygon class="cls-3" points="246.94 762.82 241.97 730.66 530.88 827.57 510.13 836.64 246.94 762.82"/><polygon class="cls-4" points="514.96 375.33 161.5 481.45 343.83 535.72 343.83 487.5 616.63 405.6 514.96 375.33"/><polygon class="cls-5" points="1414.45 654.85 1414.45 799.52 686.74 783.79 686.74 639.12 1414.45 654.85"/><polygon class="cls-4" points="797.71 411.28 526.15 493.28 526.15 541.78 343.83 487.5 616.63 405.6 697.29 381.38 797.71 411.28"/><polygon class="cls-6" points="848.58 590.53 686.74 639.12 686.74 686.04 526.15 638.23 161.5 529.67 161.5 481.45 343.83 535.72 343.83 487.5 526.15 541.78 526.15 493.28 848.58 590.53"/><polygon class="cls-4" points="1414.45 654.85 686.74 639.12 848.58 590.53 526.15 493.28 797.71 411.28 879.6 387.16 1202.02 484.42 1363.87 435.84 1414.45 654.85"/><polygon class="cls-7" points="589.9 473.51 561.53 482.04 463.19 452.44 491.14 443.78 589.9 473.51"/><path class="cls-8" d="M1087.32,565" transform="translate(-267.26 -128.97)"/><path class="cls-8" d="M1087.32,620.6" transform="translate(-267.26 -128.97)"/><polygon class="cls-7" points="338.03 489.16 310.42 497.92 211.32 468.09 239.84 459.33 338.03 489.16"/><path class="cls-8" d="M1291,535.25" transform="translate(-267.26 -128.97)"/><polygon class="cls-9" points="514.96 375.33 161.5 481.45 343.83 535.72 343.83 487.5 616.63 405.6 514.96 375.33"/><polygon class="cls-9" points="1414.45 654.85 1414.45 799.52 686.74 783.79 686.74 639.12 1414.45 654.85"/><polygon class="cls-9" points="797.71 411.28 526.15 493.28 526.15 541.78 343.83 487.5 616.63 405.6 697.29 381.38 797.71 411.28"/><polygon class="cls-9" points="848.58 590.53 686.74 639.12 686.74 686.04 526.15 638.23 161.5 529.67 161.5 481.45 343.83 535.72 343.83 487.5 526.15 541.78 526.15 493.28 848.58 590.53"/><polygon class="cls-9" points="1414.45 654.85 686.74 639.12 848.58 590.53 526.15 493.28 797.71 411.28 879.6 387.16 1202.02 484.42 1363.87 435.84 1414.45 654.85"/><polygon class="cls-7" points="1019.38 605.07 1046.99 613.83 1239.25 556.32 1211.64 547.56 1019.38 605.07"/><polygon class="cls-7" points="938.12 499.23 910.51 507.99 718.26 450.48 745.86 441.72 938.12 499.23"/><polygon class="cls-3" points="793.28 861.35 623.1 912.18 589.9 899.52 760.08 848.68 793.28 861.35"/><polygon class="cls-3" points="916.63 859.3 819 886.73 803.52 880.82 901.16 853.4 916.63 859.3"/><path class="cls-10" d="M964.39,824.54v8.08c15.24.29,31.29.91,42.85,7.4C998.23,827.91,981.5,825.29,964.39,824.54ZM976,869.23a19.22,19.22,0,0,1,1.58,8.11c0,8.88-4.71,16.89-13.19,23.4v14.33c14.49-7.27,22.85-17.56,22.85-29.37C987.24,876.77,982.92,871.91,976,869.23Zm-45.78-3.34v48.17l9.65,8.36V866.14C936.67,866.08,933.43,866,930.22,865.89Zm0-73.15v30.15a42.13,42.13,0,0,1-10-2.25c3,6.65,10.22,9.51,19.67,10.6V787.06A52.09,52.09,0,0,0,930.21,792.74Zm0-82.41v37.14c-35.1,14-58,40.62-57.94,70.73,0,14.34,4.42,23.44,11.43,29.22l.42.35a31.81,31.81,0,0,0,4.43,2.94c-4.17-5.67-6.63-13.46-6.63-24.16,0-30.11,22.84-56.67,57.94-70.72V718.68Z" transform="translate(-267.26 -128.97)"/><polygon class="cls-10" points="617.45 781.48 604.38 811.65 603.25 814.27 593.59 805.92 607.8 773.12 617.45 781.48"/><path class="cls-11" d="M939.88,922.42a83,83,0,0,1-55.17-12l-9.65-8.36a82.91,82.91,0,0,0,55.17,12Z" transform="translate(-267.26 -128.97)"/><path class="cls-10" d="M939.88,953.93v39.4L930.23,985V955.48C933.41,955.11,936.63,954.6,939.88,953.93Z" transform="translate(-267.26 -128.97)"/><path class="cls-11" d="M1021.22,751.81a76.05,76.05,0,0,0-11.67-3.48c-13.32-2.9-29-3-45.17.15v-9.86c17.63-2.07,34.21-.24,47.18,4.83Z" transform="translate(-267.26 -128.97)"/><polygon class="cls-11" points="697.12 582.64 672.6 589.71 662.95 581.35 687.46 574.29 697.12 582.64"/><path class="cls-8" d="M1007.24,840c-11.56-6.49-27.61-7.11-42.85-7.4V780.56a103.43,103.43,0,0,1,43.19,4.44l13.65-33.19a76.05,76.05,0,0,0-11.67-3.48c-13.32-2.9-29-3-45.17.15V711.62l-24.52,7.06v37.15c-35.1,14-57.94,40.61-57.94,70.72,0,10.7,2.46,18.49,6.63,24.16a25.32,25.32,0,0,0,2.19,2.62c9.08,9.65,24.06,11.91,39.48,12.56,3.21.13,6.45.19,9.65.25v56.28a83,83,0,0,1-55.17-12l-13.07,30.18-1.13,2.62c15.66,10.07,36.7,14.9,59.72,12.23,3.18-.37,6.4-.88,9.65-1.55v39.4l24.52-7.06V946.59c35.38-14.42,59.34-41.86,59.33-73.1C1023.86,855.59,1017.22,845.62,1007.24,840Zm-67.37-8.78c-9.45-1.09-16.7-4-19.67-10.6a18.51,18.51,0,0,1-1.51-7.78c0-7.74,4.23-14.62,11.52-20.12a52.09,52.09,0,0,1,9.66-5.68Zm24.52,83.83v-48.4A47.14,47.14,0,0,1,976,869.23c6.92,2.68,11.24,7.54,11.24,16.47C987.24,897.51,978.88,907.8,964.39,915.07Z" transform="translate(-267.26 -128.97)"/><line class="cls-9" x1="662.96" y1="693.92" x2="672.61" y2="702.27"/><line class="cls-9" x1="662.95" y1="618.5" x2="672.6" y2="626.85"/><line class="cls-9" x1="616.44" y1="718.45" x2="623.47" y2="724.35"/><polygon class="cls-12" points="913.24 814.35 806.91 848.68 806.91 742.35 913.24 708.02 913.24 814.35"/><polygon class="cls-8" points="897.4 803.62 822.75 827.73 822.75 753.08 897.4 728.97 897.4 803.62"/><line class="cls-9" x1="834.02" y1="767.68" x2="863.3" y2="798.4"/><line class="cls-9" x1="932.32" y1="709.47" x2="863.3" y2="798.4"/><polygon class="cls-12" points="1239.25 170.38 1239.25 522.17 1155.03 547.38 1088.6 567.26 1022.87 586.94 1022.87 235.15 1094.36 213.75 1108.43 209.54 1131.43 202.66 1145.49 198.45 1239.25 170.38"/><polygon class="cls-13" points="1192.69 364.04 1087.18 398.11 1087.18 292.6 1192.69 258.53 1192.69 364.04"/><polygon class="cls-8" points="1176.97 353.39 1102.89 377.31 1102.89 303.24 1176.97 279.32 1176.97 353.39"/><line class="cls-9" x1="1114.81" y1="310.35" x2="1166.62" y2="348.29"/><line class="cls-9" x1="1166.61" y1="299.56" x2="1114.82" y2="359.07"/><ellipse class="cls-8" cx="1398.32" cy="340.54" rx="33.65" ry="25.02" transform="translate(65.03 1178.43) rotate(-55.89)"/><ellipse class="cls-14" cx="1398.32" cy="340.54" rx="20.48" ry="15.23" transform="translate(65.03 1178.43) rotate(-55.89)"/><path class="cls-11" d="M1355.58,581.57a23.36,23.36,0,0,1-.93-7.44l-12.87,3.71-9.45,2.72-2,.57c-10.81,3.11-19.6,14.38-19.85,25.31l8.13-2.34a15.85,15.85,0,0,1,3.42-8.88,16.47,16.47,0,0,1,8.3-5.86l4.83-1.39,8.13-2.35,12.43-3.58Zm30.55,3.26a16.33,16.33,0,0,0-2.08-8.06,13.77,13.77,0,0,0-12.33-6.79,19.61,19.61,0,0,0-5.46.8l-4.08,1.18a13.8,13.8,0,0,0,.51,5,10.44,10.44,0,0,0,1.23,2.7l2.36-.68c4.22-1.21,7.93,0,10,2.78a9.4,9.4,0,0,1,1.74,5.7,12.68,12.68,0,0,1-.3,2.73,16.67,16.67,0,0,1-3.14,6.63,16.41,16.41,0,0,1-8.29,5.87l-35.94,10.35c-3.55,1-6.74.34-8.89-1.55l-9.44,2.72c3,6.38,10.07,9.43,18.34,7l35.92-10.35c11-3.16,19.87-14.71,19.87-25.8C1386.14,585,1386.14,584.93,1386.13,584.83Z" transform="translate(-267.26 -128.97)"/><path class="cls-11" d="M1343.29,585.62c-.24,10.93-9,22.19-19.85,25.31l-2,.58-9.44,2.72-24.49,7c-11,3.16-19.88-3.26-19.88-14.35s8.9-22.64,19.87-25.8l35.93-10.35a19.49,19.49,0,0,1,5.45-.8,13.71,13.71,0,0,1,12.89,7.86l-9.45,2.72c-2.14-1.9-5.33-2.58-8.88-1.56l-35.94,10.36a16.47,16.47,0,0,0-8.3,5.86,15.71,15.71,0,0,0-3.44,9.37c0,6.54,5.26,10.33,11.74,8.47l23-6.62,8.13-2.34,4.83-1.39a16.51,16.51,0,0,0,8.29-5.87,15.82,15.82,0,0,0,3.42-8.87Z" transform="translate(-267.26 -128.97)"/><path class="cls-11" d="M1509.81,561.78a19.51,19.51,0,0,0-5.46.8l-24.49,7.06-9.45,2.72-2,.57c-10.82,3.11-19.61,14.38-19.86,25.31l8.13-2.34a15.92,15.92,0,0,1,3.42-8.88,16.47,16.47,0,0,1,8.3-5.86l4.83-1.39,8.13-2.35,23-6.62c6.48-1.86,11.73,1.93,11.73,8.48a15.64,15.64,0,0,1-3.44,9.36,16.47,16.47,0,0,1-8.29,5.87l-35.94,10.35c-3.55,1-6.73.34-8.89-1.55l-9.44,2.72c3,6.38,10.08,9.43,18.34,7.05l35.92-10.35c11-3.16,19.87-14.71,19.87-25.8C1524.22,567.76,1518.13,561.78,1509.81,561.78Z" transform="translate(-267.26 -128.97)"/><path class="cls-11" d="M1415.14,590.65a14.25,14.25,0,0,0-1.28,5.74,10.34,10.34,0,0,0,.52,3.33c1.32,4,5.06,6.18,9.64,5.48.11.27.2.55.29.84a14.87,14.87,0,0,1,.18,7.33c-8.61,2-15.76-2-18-9.39a17.9,17.9,0,0,1-.75-5.25,21.25,21.25,0,0,1,.36-3.89c1.75-9.78,9.82-19.12,19.51-21.91l35.92-10.35a19.56,19.56,0,0,1,5.46-.8,13.69,13.69,0,0,1,12.88,7.86l-9.44,2.72c-2.15-1.9-5.34-2.58-8.89-1.56l-35.94,10.36a16.45,16.45,0,0,0-8.29,5.86A17.14,17.14,0,0,0,1415.14,590.65Z" transform="translate(-267.26 -128.97)"/><path class="cls-11" d="M1481.38,577.42c-.24,10.93-9,22.19-19.86,25.31l-2,.58-9.45,2.72-17.91,5.16a25.11,25.11,0,0,0-.34-8.13l16.73-4.82,8.13-2.34,4.83-1.39a16.49,16.49,0,0,0,8.3-5.87,15.89,15.89,0,0,0,3.42-8.87Z" transform="translate(-267.26 -128.97)"/><path class="cls-11" d="M1418.21,532.38,1410,537.7c-2.6-1.2-5.85-.93-9,1.07L1369.55,559a16.52,16.52,0,0,0-6.26,8,17.41,17.41,0,0,0-1.11,4.94,13.8,13.8,0,0,0,.51,5,10.44,10.44,0,0,0,1.23,2.7c2.59,4.07,7.62,5.09,12.35,2.1a9.4,9.4,0,0,1,1.74,5.7,12.68,12.68,0,0,1-.3,2.73c-9.16,5.21-18.75,1.7-22-8.17l-.15-.47a23.36,23.36,0,0,1-.93-7.44c.28-8.88,5.08-18.18,12.54-23l31.43-20.25a19.89,19.89,0,0,1,5-2.33A13.68,13.68,0,0,1,1418.21,532.38Z" transform="translate(-267.26 -128.97)"/><path class="cls-11" d="M1410.17,569.35l-1.74,1.12-8.26,5.32-14,9a16.33,16.33,0,0,0-2.08-8.06l12.42-8,7.12-4.59,4.22-2.72a16.41,16.41,0,0,0,6.26-8,15.85,15.85,0,0,0,.72-9.49l7.12-4.58C1424.82,549.94,1419.63,563.25,1410.17,569.35Z" transform="translate(-267.26 -128.97)"/><path class="cls-11" d="M1406.48,604l-16,10.27-7.12,4.58-4.22,2.72a16.43,16.43,0,0,0-6.26,8,15.91,15.91,0,0,0-.73,9.48l-7.11,4.59c-2.91-10.54,2.28-23.86,11.74-30l1.74-1.13,8.26-5.32,19.26-12.39a21.25,21.25,0,0,0-.36,3.89A17.9,17.9,0,0,0,1406.48,604Z" transform="translate(-267.26 -128.97)"/><path class="cls-11" d="M1432.18,611.19c-1,8.16-5.56,16.3-12.37,20.69l-31.43,20.25a19.75,19.75,0,0,1-5,2.34,13.7,13.7,0,0,1-14.6-3.83l8.27-5.32c2.6,1.21,5.85.94,9-1.06L1417.45,624a16.57,16.57,0,0,0,6.26-8,17.72,17.72,0,0,0,.78-2.64,14.87,14.87,0,0,0-.18-7.33c-.09-.29-.18-.57-.29-.84-1.66-4.31-5.5-6.35-9.64-5.48a10.34,10.34,0,0,1-.52-3.33,14.25,14.25,0,0,1,1.28-5.74c7.25-1.29,13.85,2.72,16.28,10.81.16.53.3,1.06.42,1.6A25.11,25.11,0,0,1,1432.18,611.19Z" transform="translate(-267.26 -128.97)"/><path class="cls-11" d="M1271.87,582.83a13.55,13.55,0,0,0-.6,3.91c0,6.54,5.26,10.34,11.73,8.48l7.13-2.05v8.21l-7.11,2c-11,3.16-19.88-3.26-19.88-14.34a23.74,23.74,0,0,1,1.63-8.44c3-8,10.07-15,18.24-17.36l7.12-2v8.22l-7.13,2a16.45,16.45,0,0,0-8.29,5.86A16.87,16.87,0,0,0,1271.87,582.83Z" transform="translate(-267.26 -128.97)"/><path class="cls-11" d="M1524.77,561.68a13.55,13.55,0,0,0,.6-3.91c0-6.54-5.26-10.34-11.73-8.48l-7.13,2.05v-8.21l7.11-2c11-3.16,19.88,3.26,19.88,14.34a23.74,23.74,0,0,1-1.63,8.44c-3,8-10.07,15-18.24,17.36l-7.12,2v-8.22l7.13-2a16.45,16.45,0,0,0,8.29-5.86A16.87,16.87,0,0,0,1524.77,561.68Z" transform="translate(-267.26 -128.97)"/><polygon class="cls-11" points="720 367.8 936.38 432.56 936.38 80.77 720 16 720 367.8"/><polygon class="cls-12" points="792.76 179.53 855.44 199.77 855.44 137.09 792.76 116.85 792.76 179.53"/><polygon class="cls-8" points="802.09 173.21 846.1 187.41 846.1 143.41 802.09 129.2 802.09 173.21"/><line class="cls-9" x1="808.03" y1="152.02" x2="825.29" y2="170.13"/><line class="cls-9" x1="865.98" y1="117.7" x2="825.29" y2="170.13"/><polygon class="cls-12" points="792.76 252.85 855.44 273.09 855.44 210.41 792.76 190.17 792.76 252.85"/><polygon class="cls-8" points="802.09 246.53 846.1 260.74 846.1 216.73 802.09 202.53 802.09 246.53"/><line class="cls-9" x1="808.03" y1="225.34" x2="825.29" y2="243.45"/><line class="cls-9" x1="865.98" y1="191.03" x2="825.29" y2="243.45"/><path class="cls-9" d="M1141.22,478.34l-13.91-7.58c-4-2.17-8-4.39-11.2-7.63-5.88-6-8-14.64-9.84-22.83-.72-3.16-1.32-6.87.79-9.33s6.5-2.32,9.12-.22,3.85,5.51,4.38,8.83c1.54,9.72-3.44,21.28-13.06,23.32-10,2.11-19.23-6.88-22.78-16.47-1.23-3.33-1.47-8.07,1.81-9.43,2-.81,4.29.19,5.77,1.72,3.94,4.07,3,11.41-1.23,15.13s-10.9,3.91-15.94,1.33-8.58-7.51-10.5-12.84a12.23,12.23,0,0,1-.83-6.84c.53-2.27,2.39-4.36,4.72-4.5,3.24-.19,5.65,3.76,4.65,6.85s-4.42,4.92-7.67,4.94-6.32-1.42-9.08-3.13a45.49,45.49,0,0,1-10.78-9.31" transform="translate(-267.26 -128.97)"/><line class="cls-15" x1="861.22" y1="358.16" x2="780.35" y2="333.07"/><ellipse class="cls-8" cx="1095.45" cy="186.16" rx="25.02" ry="33.65" transform="translate(-183.24 517.28) rotate(-34.11)"/><ellipse class="cls-10" cx="1095.45" cy="186.16" rx="15.23" ry="20.48" transform="translate(-183.24 517.29) rotate(-34.11)"/><polygon class="cls-13" points="625.92 65.77 625.92 238.76 614.58 226.74 593.62 231.66 578.84 216 557.88 220.92 543.1 205.26 522.14 210.17 507.36 194.52 486.39 199.43 471.61 183.78 450.65 188.69 435.86 173.03 414.89 177.94 409.54 172.28 409.54 1 503.31 29.07 517.37 33.28 540.36 40.16 554.44 44.37 625.92 65.77"/><polygon class="cls-13" points="614.58 243.65 625.92 255.67 625.92 439.56 409.54 374.79 409.54 189.19 414.89 194.86 435.86 189.95 450.65 205.6 471.61 200.69 486.39 216.34 507.36 211.43 522.14 227.09 543.1 222.17 557.88 237.83 578.84 232.91 593.62 248.57 614.58 243.65"/><line class="cls-15" x1="550.75" y1="365.16" x2="469.89" y2="340.07"/><ellipse class="cls-8" cx="784.99" cy="171.16" rx="25.02" ry="33.65" transform="translate(-228.22 340.62) rotate(-34.11)"/><ellipse class="cls-12" cx="784.99" cy="171.16" rx="15.23" ry="20.48" transform="translate(-228.22 340.62) rotate(-34.11)"/><polygon class="cls-12" points="488.3 157.61 550.98 177.85 550.98 115.17 488.3 94.93 488.3 157.61"/><polygon class="cls-8" points="497.63 151.29 541.64 165.5 541.64 121.49 497.63 107.28 497.63 151.29"/><line class="cls-9" x1="503.57" y1="130.1" x2="520.83" y2="148.21"/><line class="cls-9" x1="561.52" y1="95.79" x2="520.83" y2="148.21"/><polygon class="cls-12" points="488.95 288.81 539.01 304.98 539.01 254.92 488.95 238.76 488.95 288.81"/><polygon class="cls-8" points="496.41 283.76 531.55 295.11 531.55 259.97 496.41 248.62 496.41 283.76"/><path class="cls-8" d="M708.13,707.86a19.33,19.33,0,0,0-.14,2.3,20.19,20.19,0,0,0,1,6.15l1.34.38h0l30.9,8.9,9.12,2.63,33.57,9.67,8.59-3.92-38-12.76-8.12-2.34-26.75-7.7-10.85-3.13Z" transform="translate(-267.26 -128.97)"/><path class="cls-8" d="M509.26,658.78l182.11,52.47,8.31,2.39.17.05a29.35,29.35,0,0,1-.22-3.53,28.42,28.42,0,0,1,.38-4.65l-1.2-.34-9.21-2.65L519.68,654.86Z" transform="translate(-267.26 -128.97)"/><path class="cls-12" d="M710.29,716.7" transform="translate(-267.26 -128.97)"/><path class="cls-12" d="M509.24,875.51l274.63,79.12V737.9l-33.57-9.67-9.12-2.63-30.9-8.9-1.34-.39a20.24,20.24,0,0,0,19.24,14,19.43,19.43,0,0,0,3.16-.25,11.76,11.76,0,0,1,1.89,6.16,8.49,8.49,0,0,1-.24,2.06,29.27,29.27,0,0,1-4.81.4,28.56,28.56,0,0,1-28.34-25l-.17-.05-8.31-2.39L509.26,658.78Z" transform="translate(-267.26 -128.97)"/><polygon class="cls-10" points="267.34 727.94 491.25 792.45 491.27 627.52 267.35 563.01 267.34 727.94"/><polygon class="cls-8" points="446.26 680.68 469.63 687.41 469.63 663.8 446.26 657.07 446.26 680.68"/><polygon class="cls-8" points="408.13 669.69 431.5 676.42 431.51 652.82 408.14 646.09 408.13 669.69"/><polygon class="cls-8" points="370.01 658.71 393.38 665.44 393.38 641.84 370.01 635.1 370.01 658.71"/><polygon class="cls-8" points="331.88 647.72 355.25 654.46 355.25 630.85 331.88 624.12 331.88 647.72"/><polygon class="cls-8" points="293.76 636.74 317.13 643.47 317.13 619.87 293.76 613.13 293.76 636.74"/><polygon class="cls-8" points="446.26 716.01 469.63 722.75 469.63 699.14 446.26 692.41 446.26 716.01"/><polygon class="cls-8" points="408.13 705.03 431.5 711.76 431.5 688.16 408.13 681.42 408.13 705.03"/><polygon class="cls-8" points="370 694.04 393.38 700.78 393.38 677.17 370.01 670.44 370 694.04"/><polygon class="cls-12" points="331.88 683.06 355.25 689.79 355.25 666.19 331.88 659.46 331.88 683.06"/><polygon class="cls-8" points="293.75 672.08 317.12 678.81 317.13 655.2 293.76 648.47 293.75 672.08"/><polygon class="cls-8" points="446.25 751.35 469.62 758.08 469.63 734.48 446.26 727.74 446.25 751.35"/><polygon class="cls-8" points="408.13 740.36 431.5 747.1 431.5 723.49 408.13 716.76 408.13 740.36"/><polygon class="cls-8" points="370 729.38 393.37 736.11 393.37 712.51 370 705.77 370 729.38"/><polygon class="cls-8" points="331.88 718.4 355.25 725.13 355.25 701.52 331.88 694.79 331.88 718.4"/><polygon class="cls-8" points="293.75 707.41 317.12 714.14 317.12 690.54 293.75 683.81 293.75 707.41"/><polygon class="cls-11" points="516.61 825.65 525.2 821.73 525.22 605 525.22 605 525.21 605 516.62 608.93 516.61 825.65"/><path class="cls-10" d="M728.19,730.35a19.43,19.43,0,0,0,3.16-.25,13.12,13.12,0,0,0-7.25-5.71c-3.27-.93-6.14,0-7.76,2.11A20.06,20.06,0,0,0,728.19,730.35Z" transform="translate(-267.26 -128.97)"/><path class="cls-10" d="M716.26,736.11a13.32,13.32,0,0,0,7.84,6.75c4.33,1.25,7.95-.74,8.9-4.54a29.27,29.27,0,0,1-4.81.4A28.32,28.32,0,0,1,716.26,736.11Z" transform="translate(-267.26 -128.97)"/><ellipse class="cls-10" cx="557.19" cy="685.54" rx="7.96" ry="10.6" transform="translate(-577.33 388.36) rotate(-39.92)"/><path class="cls-8" d="M699.63,710.16a29.35,29.35,0,0,0,.22,3.53,28.56,28.56,0,0,0,28.34,25,29.27,29.27,0,0,0,4.81-.4,8.49,8.49,0,0,0,.24-2.06,11.76,11.76,0,0,0-1.89-6.16,19.43,19.43,0,0,1-3.16.25,20.24,20.24,0,0,1-19.24-14h0a20.19,20.19,0,0,1-1-6.15,19.33,19.33,0,0,1,.14-2.3,20.19,20.19,0,1,1,38.27,11l8.12,2.34a28.56,28.56,0,1,0-54.89-11.06Z" transform="translate(-267.26 -128.97)"/><path class="cls-8" d="M532.15,661.75a29.22,29.22,0,0,0,.22,3.53,28.52,28.52,0,0,0,28.34,25,29.27,29.27,0,0,0,4.81-.4,8.34,8.34,0,0,0,.25-2,11.76,11.76,0,0,0-1.89-6.16,20.75,20.75,0,0,1-3.17.25,20.26,20.26,0,0,1-19.24-14h0a20.19,20.19,0,0,1-1-6.15,19.46,19.46,0,0,1,.14-2.3,20.19,20.19,0,0,1,40.25,2.3,19.94,19.94,0,0,1-2,8.73l8.13,2.34a28.57,28.57,0,1,0-54.9-11.07Z" transform="translate(-267.26 -128.97)"/><polygon class="cls-8" points="121.66 410.78 338.03 475.55 338.03 123.75 121.66 58.98 121.66 410.78"/><path class="cls-9" d="M542.87,521.32,529,513.74c-4-2.17-8-4.39-11.21-7.63-5.87-6-8-14.64-9.84-22.83-.72-3.16-1.32-6.87.8-9.33s6.49-2.32,9.12-.22,3.84,5.51,4.37,8.83c1.55,9.72-3.43,21.28-13.05,23.32-10,2.12-19.24-6.88-22.78-16.47-1.24-3.33-1.48-8.07,1.8-9.42,2-.82,4.29.18,5.78,1.71,3.94,4.07,3.05,11.41-1.23,15.13s-10.91,3.91-16,1.33-8.57-7.51-10.5-12.84a12.23,12.23,0,0,1-.82-6.84c.52-2.27,2.39-4.36,4.72-4.5,3.24-.19,5.64,3.76,4.64,6.85s-4.41,4.92-7.66,4.94-6.33-1.42-9.09-3.13a45.45,45.45,0,0,1-10.77-9.31" transform="translate(-267.26 -128.97)"/><line class="cls-15" x1="262.87" y1="401.14" x2="182" y2="376.05"/><polygon class="cls-12" points="254.05 229.23 232.97 229.23 232.97 169.94 193.6 251.31 214.68 251.31 214.68 310.6 254.05 229.23"/><ellipse class="cls-8" cx="497.1" cy="229.14" rx="25.02" ry="33.65" transform="translate(-310.25 189.17) rotate(-34.11)"/><ellipse class="cls-14" cx="497.1" cy="229.14" rx="15.23" ry="20.48" transform="translate(-310.25 189.17) rotate(-34.11)"/></g></g></svg>