<svg xmlns="http://www.w3.org/2000/svg" viewBox="0 0 1200 937"><defs><style>.cls-1{isolation:isolate;}.cls-2,.cls-4{fill:#9dc7e0;}.cls-2{opacity:0.15;}.cls-3{opacity:0.25;mix-blend-mode:multiply;}.cls-10,.cls-5{fill:#fff;}.cls-12,.cls-13,.cls-14,.cls-5,.cls-6,.cls-8,.cls-9{stroke:#0c1733;stroke-linecap:round;stroke-linejoin:round;}.cls-5,.cls-6,.cls-8,.cls-9{stroke-width:2px;}.cls-6,.cls-7{fill:#cfdde5;}.cls-8{fill:#f9ef35;}.cls-11,.cls-12,.cls-13,.cls-14,.cls-16,.cls-17,.cls-9{fill:none;}.cls-11{stroke:#fff;}.cls-11,.cls-16,.cls-17{stroke-miterlimit:10;}.cls-11,.cls-12,.cls-13,.cls-14,.cls-17{stroke-width:5px;}.cls-13{stroke-dasharray:0 15.84;}.cls-14{stroke-dasharray:0 21;}.cls-15{fill:#a3bdcc;}.cls-16{stroke:#a3bdcc;stroke-width:7px;}.cls-17{stroke:#cfdde5;}</style></defs><title>01_Vector</title><g class="cls-1"><g id="Layer_1" data-name="Layer 1"><path class="cls-2" d="M1064.21,544.45a304.84,304.84,0,0,0-47.61,44.49c-6.56,7.62-12.49,15.3-17.91,23a346.24,346.24,0,0,0-21.15,34.35c-25.48,47-39.11,93.47-67.95,132.22C867,835.73,751.31,876,555.46,876,464,876,382.21,845.6,313.55,799.32a540.31,540.31,0,0,1-82.34-68.62C122.58,620.57,67.57,475.6,89.78,399.19,136.74,237.65,332.13,61,711.73,61c90.35,0,172.94,34.91,239.53,86.6q13.59,10.55,26.28,22C1108.6,287.59,1163.35,469.4,1064.21,544.45Z"/><g class="cls-3"><path class="cls-4" d="M1016.6,588.94c-6.56,7.62-12.49,15.3-17.91,23a25.54,25.54,0,0,1-18.25-1.22l-2.9,2.9v32.67c-25.48,47-39.11,93.47-67.95,132.22H823v20.79H689.61V610.16H749.5V541.24h228v24.84a25.47,25.47,0,0,1,39.06,22.86Z"/><polygon class="cls-4" points="490.37 160.73 515.27 160.73 540.17 160.73 540.17 135.82 515.27 135.82 490.37 135.82 465.46 135.82 440.56 135.82 415.66 135.82 390.8 135.82 390.76 135.82 365.9 135.82 341 160.73 435.46 160.73 435.46 240.33 435.46 364.84 416.15 364.84 416.15 262.35 291.09 262.35 291.09 256.08 291.09 315.69 231.21 315.69 231.21 401.2 429.16 401.2 429.16 364.84 490.37 364.84 555.5 364.84 555.5 292.86 555.5 282.35 490.37 282.35 490.37 260.33 555.5 260.33 555.5 182.75 490.37 182.75 490.37 160.73"/><path class="cls-4" d="M490.37,654v22H555.5v77.58H490.37v24.91H364.64v20.79H313.55a540.31,540.31,0,0,1-82.34-68.62V610.16H364.64v19h43l.14,129.41h27.72V554.41H341l24.9-24.9H540.17v24.9h-49.8v22H555.5V654Z"/><path class="cls-4" d="M1009.47,280.86v77.59H977.54v26.39h-90v16.37h-198V315.69H749.5V147.56H951.26q13.59,10.55,26.28,22v12.49a37.72,37.72,0,0,1,0,73.74v25.07Z"/></g><path d="M721.77,832.24h-8.43v8.88H709.7v-21H723v2.93h-9.67v6.23h8.43Z"/><path d="M725.56,821.51a1.85,1.85,0,0,1,.51-1.34,2.28,2.28,0,0,1,2.92,0,1.82,1.82,0,0,1,.52,1.34,1.76,1.76,0,0,1-.52,1.31,2.28,2.28,0,0,1-2.92,0A1.79,1.79,0,0,1,725.56,821.51Zm3.71,19.61h-3.5V825.55h3.5Z"/><path d="M736.32,825.55l.1,1.8a5.6,5.6,0,0,1,4.53-2.09q4.86,0,4.95,5.57v10.29h-3.5V831a3.17,3.17,0,0,0-.64-2.19,2.65,2.65,0,0,0-2.09-.71,3.36,3.36,0,0,0-3.15,1.91v11.08H733V825.55Z"/><path d="M758.76,841.12a5.35,5.35,0,0,1-.4-1.46,5.89,5.89,0,0,1-7.91.41,4.3,4.3,0,0,1-1.49-3.31,4.43,4.43,0,0,1,1.85-3.82,9,9,0,0,1,5.29-1.33h2.14v-1a2.74,2.74,0,0,0-.67-1.94,2.7,2.7,0,0,0-2.06-.73,3.07,3.07,0,0,0-2,.6,1.85,1.85,0,0,0-.76,1.52h-3.5a4,4,0,0,1,.85-2.4,5.7,5.7,0,0,1,2.31-1.74,8,8,0,0,1,3.26-.64,6.51,6.51,0,0,1,4.36,1.38,4.9,4.9,0,0,1,1.67,3.86v7a8,8,0,0,0,.59,3.35v.25Zm-3.84-2.52a4,4,0,0,0,2-.5,3.32,3.32,0,0,0,1.37-1.36v-2.93h-1.88a5.15,5.15,0,0,0-2.92.67,2.21,2.21,0,0,0-1,1.92,2,2,0,0,0,.67,1.6A2.57,2.57,0,0,0,754.92,838.6Z"/><path d="M769.12,841.12h-3.5V819h3.5Z"/><path d="M796.58,834.3a7.56,7.56,0,0,1-2.47,5.23,8.44,8.44,0,0,1-5.74,1.87,8.17,8.17,0,0,1-4.41-1.18,7.79,7.79,0,0,1-2.94-3.38,12.16,12.16,0,0,1-1.08-5.07v-2a12.22,12.22,0,0,1,1-5.22,7.93,7.93,0,0,1,3-3.49,8.47,8.47,0,0,1,4.54-1.22,8.1,8.1,0,0,1,5.58,1.88,7.83,7.83,0,0,1,2.46,5.32H793a5.11,5.11,0,0,0-1.32-3.26,4.33,4.33,0,0,0-3.1-1,4.27,4.27,0,0,0-3.65,1.73,8.77,8.77,0,0,0-1.3,5.09v1.86a9.18,9.18,0,0,0,1.22,5.18,4,4,0,0,0,3.56,1.79,4.71,4.71,0,0,0,3.22-1A5.05,5.05,0,0,0,793,834.3Z"/><path d="M798.84,833.19a9.21,9.21,0,0,1,.91-4.12,6.59,6.59,0,0,1,2.55-2.82,7.14,7.14,0,0,1,3.77-1,6.8,6.8,0,0,1,5.11,2,8,8,0,0,1,2.12,5.38l0,.82a9.27,9.27,0,0,1-.89,4.12,6.49,6.49,0,0,1-2.53,2.8,7.26,7.26,0,0,1-3.81,1,6.76,6.76,0,0,1-5.27-2.19,8.39,8.39,0,0,1-2-5.85Zm3.5.3a6.27,6.27,0,0,0,1,3.76,3.47,3.47,0,0,0,5.52,0,6.91,6.91,0,0,0,1-4,6.17,6.17,0,0,0-1-3.74,3.24,3.24,0,0,0-2.75-1.38,3.19,3.19,0,0,0-2.72,1.36A6.71,6.71,0,0,0,802.34,833.49Z"/><path d="M819.52,825.55l.1,1.8a5.6,5.6,0,0,1,4.53-2.09q4.86,0,5,5.57v10.29h-3.5V831a3.17,3.17,0,0,0-.64-2.19,2.65,2.65,0,0,0-2.09-.71,3.36,3.36,0,0,0-3.15,1.91v11.08h-3.5V825.55Z"/><path d="M832,833.22a9.29,9.29,0,0,1,1.67-5.78,5.38,5.38,0,0,1,4.48-2.18,5.09,5.09,0,0,1,4,1.73v-8h3.49v22.1h-3.16l-.17-1.61a5.18,5.18,0,0,1-4.19,1.89,5.3,5.3,0,0,1-4.42-2.2A9.55,9.55,0,0,1,832,833.22Zm3.5.3a6.58,6.58,0,0,0,.91,3.71,3,3,0,0,0,2.6,1.33,3.3,3.3,0,0,0,3.14-1.92V830a3.26,3.26,0,0,0-3.11-1.87,3,3,0,0,0-2.62,1.34A7.26,7.26,0,0,0,835.5,833.52Z"/><path d="M849.3,821.51a1.85,1.85,0,0,1,.51-1.34,1.91,1.91,0,0,1,1.46-.53,2,2,0,0,1,1.47.53,1.85,1.85,0,0,1,.51,1.34,1.79,1.79,0,0,1-.51,1.31,2,2,0,0,1-1.47.53,2,2,0,0,1-1.46-.53A1.79,1.79,0,0,1,849.3,821.51ZM853,841.12h-3.5V825.55H853Z"/><path d="M861.2,821.77v3.78h2.74v2.59H861.2v8.69a1.91,1.91,0,0,0,.35,1.29,1.64,1.64,0,0,0,1.26.39,5.14,5.14,0,0,0,1.22-.14v2.7a8.63,8.63,0,0,1-2.3.33q-4,0-4-4.44v-8.82h-2.56v-2.59h2.56v-3.78Z"/><path d="M866.62,821.51a1.85,1.85,0,0,1,.51-1.34,1.91,1.91,0,0,1,1.46-.53,2,2,0,0,1,1.47.53,1.86,1.86,0,0,1,.52,1.34,1.8,1.8,0,0,1-.52,1.31,2,2,0,0,1-1.47.53,2,2,0,0,1-1.46-.53A1.79,1.79,0,0,1,866.62,821.51Zm3.71,19.61h-3.49V825.55h3.49Z"/><path d="M873.48,833.19a9.07,9.07,0,0,1,.91-4.12,6.59,6.59,0,0,1,2.55-2.82,7.11,7.11,0,0,1,3.76-1,6.82,6.82,0,0,1,5.12,2,8,8,0,0,1,2.12,5.38l0,.82a9.27,9.27,0,0,1-.89,4.12,6.49,6.49,0,0,1-2.53,2.8,7.26,7.26,0,0,1-3.81,1,6.76,6.76,0,0,1-5.27-2.19,8.39,8.39,0,0,1-2-5.85Zm3.5.3a6.27,6.27,0,0,0,1,3.76,3.47,3.47,0,0,0,5.52,0,6.91,6.91,0,0,0,1-4,6.17,6.17,0,0,0-1-3.74,3.24,3.24,0,0,0-2.76-1.38,3.18,3.18,0,0,0-2.71,1.36A6.71,6.71,0,0,0,877,833.49Z"/><path d="M894.16,825.55l.1,1.8a5.6,5.6,0,0,1,4.53-2.09q4.86,0,5,5.57v10.29h-3.5V831a3.17,3.17,0,0,0-.64-2.19,2.67,2.67,0,0,0-2.09-.71,3.36,3.36,0,0,0-3.15,1.91v11.08h-3.5V825.55Z"/><path d="M916.6,841.12a5.35,5.35,0,0,1-.4-1.46,5.9,5.9,0,0,1-7.92.41,4.33,4.33,0,0,1-1.48-3.31,4.43,4.43,0,0,1,1.85-3.82,9,9,0,0,1,5.29-1.33h2.14v-1a2.44,2.44,0,0,0-2.73-2.67,3.07,3.07,0,0,0-2,.6,1.85,1.85,0,0,0-.76,1.52h-3.5a4,4,0,0,1,.85-2.4,5.7,5.7,0,0,1,2.31-1.74,8,8,0,0,1,3.26-.64,6.51,6.51,0,0,1,4.36,1.38,4.9,4.9,0,0,1,1.67,3.86v7a7.83,7.83,0,0,0,.59,3.35v.25Zm-3.84-2.52a4,4,0,0,0,2-.5,3.32,3.32,0,0,0,1.37-1.36v-2.93H914.2a5.15,5.15,0,0,0-2.92.67,2.19,2.19,0,0,0-1,1.92A2,2,0,0,0,911,838,2.57,2.57,0,0,0,912.76,838.6Z"/><path d="M927,841.12h-3.5V819H927Z"/><rect class="cls-5" x="719.5" y="521.24" width="157.26" height="237.28"/><rect class="cls-6" x="876.76" y="521.24" width="70.78" height="237.28"/><rect class="cls-7" x="737.75" y="537.15" width="30.45" height="35.48"/><rect class="cls-7" x="782.9" y="537.15" width="30.45" height="35.48"/><rect class="cls-7" x="828.06" y="537.15" width="30.45" height="35.48"/><rect class="cls-7" x="828.06" y="587.34" width="30.45" height="35.48"/><rect class="cls-7" x="828.06" y="637.53" width="30.45" height="35.48"/><rect class="cls-7" x="828.06" y="687.72" width="30.45" height="35.48"/><rect class="cls-8" x="901.89" y="654.55" width="77.58" height="77.58"/><rect class="cls-5" x="912.73" y="665.39" width="55.89" height="55.89"/><polyline class="cls-9" points="922.36 685.96 940.46 704.06 992.35 652.18"/><path class="cls-8" d="M943.14,549.6A25.51,25.51,0,0,0,938,578.34l-4.6,4.6v7.37h-7.37v7.38h-7.36v7.36h-7.37v7.38h-7.37l-1.28,13.69,13.69-1.29,34.09-34.09a25.48,25.48,0,1,0-7.3-41.14Zm31.48,13.91a6.71,6.71,0,0,1-3.35,1.81,6.62,6.62,0,1,1,3.35-1.81Z"/><line class="cls-9" x1="992.35" y1="758.53" x2="857.57" y2="758.53"/><rect class="cls-6" x="659.61" y="590.16" width="133.43" height="189.16"/><rect class="cls-10" x="680.14" y="624.06" width="39.51" height="5.65"/><rect class="cls-10" x="680.14" y="636.55" width="39.51" height="5.65"/><rect class="cls-10" x="680.14" y="664.02" width="54.44" height="5.65"/><rect class="cls-10" x="680.14" y="673.09" width="54.44" height="5.65"/><rect class="cls-10" x="680.14" y="682.16" width="54.44" height="5.65"/><rect class="cls-10" x="680.14" y="691.23" width="54.44" height="5.65"/><rect class="cls-10" x="680.14" y="700.3" width="54.44" height="5.65"/><rect class="cls-10" x="740.75" y="664.02" width="31.77" height="5.65"/><rect class="cls-10" x="740.75" y="673.09" width="31.77" height="5.65"/><rect class="cls-10" x="740.75" y="682.16" width="31.77" height="5.65"/><rect class="cls-10" x="740.75" y="691.23" width="31.77" height="5.65"/><rect class="cls-10" x="740.75" y="700.3" width="31.77" height="5.65"/><path class="cls-10" d="M761.49,640.47a4,4,0,0,0-1.1-2.86,9.55,9.55,0,0,0-3.67-2,28.56,28.56,0,0,1-4-1.69q-4.76-2.55-4.75-7.54a7.77,7.77,0,0,1,2.06-5.57,8.77,8.77,0,0,1,5.59-2.59v-4.44h3.26v4.48a8.06,8.06,0,0,1,5.48,3,10.25,10.25,0,0,1,1.94,6.49h-4.93a6.39,6.39,0,0,0-1.16-4,3.73,3.73,0,0,0-3.13-1.48,4.23,4.23,0,0,0-3.06,1.06,4,4,0,0,0-1.1,3,3.82,3.82,0,0,0,1.09,2.84,10.61,10.61,0,0,0,3.71,2,30.18,30.18,0,0,1,4.09,1.78,10.24,10.24,0,0,1,2.51,1.86,7.32,7.32,0,0,1,1.57,2.42,8.48,8.48,0,0,1,.55,3.2,7.61,7.61,0,0,1-2.11,5.59,9.27,9.27,0,0,1-5.88,2.53v4h-3.24v-3.95a8.68,8.68,0,0,1-8.38-9.38h4.95a5.62,5.62,0,0,0,1.3,4,4.71,4.71,0,0,0,3.66,1.41,5,5,0,0,0,3.53-1.12A3.87,3.87,0,0,0,761.49,640.47Z"/><rect class="cls-10" x="718.08" y="733.55" width="40.97" height="5.65"/><circle class="cls-11" cx="759.05" cy="736.37" r="13.47"/><rect class="cls-5" x="261.09" y="240.33" width="126.4" height="124.51"/><path d="M231,434.16v7.77h-3.64V421h8a8.12,8.12,0,0,1,5.58,1.83,6.17,6.17,0,0,1,2.06,4.84,6,6,0,0,1-2,4.8,8.52,8.52,0,0,1-5.66,1.71Zm0-2.94h4.37a4.28,4.28,0,0,0,3-.91,3.33,3.33,0,0,0,1-2.64,3.63,3.63,0,0,0-1-2.71,4,4,0,0,0-2.85-1H231Z"/><path d="M255,441.93a5.77,5.77,0,0,1-.4-1.45,5.43,5.43,0,0,1-4.08,1.74,5.5,5.5,0,0,1-3.83-1.34,4.28,4.28,0,0,1-1.48-3.31,4.41,4.41,0,0,1,1.85-3.82,8.91,8.91,0,0,1,5.28-1.33h2.15v-1a2.75,2.75,0,0,0-.68-1.94,2.7,2.7,0,0,0-2.06-.72,3.06,3.06,0,0,0-1.95.59,1.86,1.86,0,0,0-.77,1.52h-3.49a3.89,3.89,0,0,1,.85-2.4,5.57,5.57,0,0,1,2.31-1.74,8,8,0,0,1,3.25-.64,6.49,6.49,0,0,1,4.36,1.38,4.87,4.87,0,0,1,1.67,3.86v7a8,8,0,0,0,.59,3.35v.25Zm-3.84-2.52a4,4,0,0,0,2-.5,3.41,3.41,0,0,0,1.38-1.36v-2.93h-1.89a5.16,5.16,0,0,0-2.92.68,2.18,2.18,0,0,0-1,1.91,2,2,0,0,0,.67,1.6A2.6,2.6,0,0,0,251.17,439.41Z"/><path d="M269.8,429.56a8.25,8.25,0,0,0-1.42-.12,3.21,3.21,0,0,0-3.24,1.84v10.65h-3.49V426.36H265l.09,1.74a4,4,0,0,1,3.51-2,3.18,3.18,0,0,1,1.24.21Z"/><path d="M277.11,422.58v3.78h2.75V429h-2.75v8.69a1.89,1.89,0,0,0,.36,1.29,1.63,1.63,0,0,0,1.25.39,5.22,5.22,0,0,0,1.23-.14v2.71a8.69,8.69,0,0,1-2.3.33c-2.69,0-4-1.49-4-4.45V429h-2.56v-2.59h2.56v-3.78Z"/><path d="M282.54,422.32a1.87,1.87,0,0,1,.51-1.34,1.93,1.93,0,0,1,1.46-.53A2,2,0,0,1,286,421a1.87,1.87,0,0,1,.51,1.34,1.82,1.82,0,0,1-.51,1.32,2,2,0,0,1-1.47.52,1.93,1.93,0,0,1-1.46-.52A1.82,1.82,0,0,1,282.54,422.32Zm3.71,19.61h-3.5V426.36h3.5Z"/><path d="M299.36,441.93a5.31,5.31,0,0,1-.41-1.45,5.43,5.43,0,0,1-4.08,1.74,5.5,5.5,0,0,1-3.83-1.34,4.28,4.28,0,0,1-1.48-3.31,4.41,4.41,0,0,1,1.85-3.82,8.91,8.91,0,0,1,5.28-1.33h2.15v-1a2.75,2.75,0,0,0-.68-1.94,2.7,2.7,0,0,0-2.06-.72,3.06,3.06,0,0,0-2,.59,1.86,1.86,0,0,0-.77,1.52h-3.49a3.89,3.89,0,0,1,.85-2.4,5.57,5.57,0,0,1,2.31-1.74,8,8,0,0,1,3.26-.64,6.48,6.48,0,0,1,4.35,1.38,4.87,4.87,0,0,1,1.67,3.86v7a8,8,0,0,0,.59,3.35v.25Zm-3.85-2.52a4,4,0,0,0,1.95-.5,3.41,3.41,0,0,0,1.38-1.36v-2.93H297a5.16,5.16,0,0,0-2.92.68,2.18,2.18,0,0,0-1,1.91,2,2,0,0,0,.67,1.6A2.6,2.6,0,0,0,295.51,439.41Z"/><path d="M309.71,441.93h-3.49v-22.1h3.49Z"/><path d="M336.52,421v14a6.83,6.83,0,0,1-2.14,5.29,9.36,9.36,0,0,1-11.4,0,6.86,6.86,0,0,1-2.12-5.33V421h3.63v14a4.46,4.46,0,0,0,1.06,3.21,4.16,4.16,0,0,0,3.14,1.11q4.2,0,4.2-4.43V421Z"/><path d="M343.31,426.36l.1,1.8a5.6,5.6,0,0,1,4.53-2.09q4.86,0,4.95,5.57v10.29h-3.5V431.84a3.18,3.18,0,0,0-.64-2.19,2.65,2.65,0,0,0-2.09-.71,3.36,3.36,0,0,0-3.15,1.91v11.08H340V426.36Z"/><path d="M362.84,439.42a3.17,3.17,0,0,0,2.18-.76,2.62,2.62,0,0,0,.92-1.88h3.29a5.19,5.19,0,0,1-.9,2.71,6,6,0,0,1-2.31,2,6.81,6.81,0,0,1-3.13.74,6.63,6.63,0,0,1-5.18-2.12,8.37,8.37,0,0,1-1.91-5.84v-.36a8.26,8.26,0,0,1,1.89-5.69,6.61,6.61,0,0,1,5.18-2.14,6.42,6.42,0,0,1,4.53,1.62,5.83,5.83,0,0,1,1.83,4.25h-3.29a3.18,3.18,0,0,0-.92-2.2,3,3,0,0,0-2.18-.86,3.06,3.06,0,0,0-2.61,1.23,6.22,6.22,0,0,0-.94,3.73v.56a6.46,6.46,0,0,0,.91,3.78A3.07,3.07,0,0,0,362.84,439.42Z"/><path d="M371.22,434a9.23,9.23,0,0,1,.9-4.12,6.72,6.72,0,0,1,2.55-2.82,7.14,7.14,0,0,1,3.77-1,6.79,6.79,0,0,1,5.11,2,8,8,0,0,1,2.13,5.38v.82a9.27,9.27,0,0,1-.88,4.12,6.51,6.51,0,0,1-2.54,2.8,7.11,7.11,0,0,1-3.8,1,6.74,6.74,0,0,1-5.27-2.2,8.39,8.39,0,0,1-2-5.85Zm3.49.3a6.25,6.25,0,0,0,1,3.77,3.23,3.23,0,0,0,2.76,1.35,3.18,3.18,0,0,0,2.75-1.38,6.88,6.88,0,0,0,1-4,6.24,6.24,0,0,0-1-3.74,3.25,3.25,0,0,0-2.76-1.38,3.2,3.2,0,0,0-2.72,1.36A6.81,6.81,0,0,0,374.71,434.3Z"/><path d="M391.89,426.36l.1,1.8a5.6,5.6,0,0,1,4.53-2.09q4.88,0,5,5.57v10.29H398V431.84a3.23,3.23,0,0,0-.64-2.19,2.69,2.69,0,0,0-2.1-.71,3.36,3.36,0,0,0-3.15,1.91v11.08H388.6V426.36Z"/><path d="M404.38,434a9.29,9.29,0,0,1,1.67-5.78,5.34,5.34,0,0,1,4.47-2.18,5.08,5.08,0,0,1,4,1.73v-8H418v22.1h-3.17l-.17-1.61a5.17,5.17,0,0,1-4.19,1.9,5.32,5.32,0,0,1-4.42-2.21A9.55,9.55,0,0,1,404.38,434Zm3.5.3a6.5,6.5,0,0,0,.91,3.71,3,3,0,0,0,2.6,1.33,3.29,3.29,0,0,0,3.13-1.92v-6.64a3.25,3.25,0,0,0-3.11-1.87,3,3,0,0,0-2.61,1.34A7.18,7.18,0,0,0,407.88,434.33Z"/><path d="M421.67,422.32a1.87,1.87,0,0,1,.51-1.34,2.29,2.29,0,0,1,2.93,0,1.83,1.83,0,0,1,.52,1.34,1.79,1.79,0,0,1-.52,1.32,2.32,2.32,0,0,1-2.93,0A1.82,1.82,0,0,1,421.67,422.32Zm3.71,19.61h-3.49V426.36h3.49Z"/><path d="M433.57,422.58v3.78h2.75V429h-2.75v8.69a2,2,0,0,0,.35,1.29,1.67,1.67,0,0,0,1.26.39,5.28,5.28,0,0,0,1.23-.14v2.71a8.7,8.7,0,0,1-2.31.33c-2.68,0-4-1.49-4-4.45V429h-2.56v-2.59h2.56v-3.78Z"/><path d="M439,422.32a1.83,1.83,0,0,1,.52-1.34,2.28,2.28,0,0,1,2.92,0,1.83,1.83,0,0,1,.52,1.34,1.79,1.79,0,0,1-.52,1.32,2.31,2.31,0,0,1-2.92,0A1.79,1.79,0,0,1,439,422.32Zm3.72,19.61h-3.5V426.36h3.5Z"/><path d="M445.86,434a9.23,9.23,0,0,1,.9-4.12,6.72,6.72,0,0,1,2.55-2.82,7.14,7.14,0,0,1,3.77-1,6.8,6.8,0,0,1,5.11,2,8,8,0,0,1,2.13,5.38v.82a9.27,9.27,0,0,1-.88,4.12,6.51,6.51,0,0,1-2.54,2.8,7.11,7.11,0,0,1-3.8,1,6.74,6.74,0,0,1-5.27-2.2,8.39,8.39,0,0,1-2-5.85Zm3.49.3a6.25,6.25,0,0,0,1,3.77,3.23,3.23,0,0,0,2.76,1.35,3.18,3.18,0,0,0,2.75-1.38,6.88,6.88,0,0,0,1-4,6.17,6.17,0,0,0-1-3.74,3.42,3.42,0,0,0-5.47,0A6.81,6.81,0,0,0,449.35,434.3Z"/><path d="M466.53,426.36l.1,1.8a5.6,5.6,0,0,1,4.53-2.09q4.88,0,4.95,5.57v10.29h-3.49V431.84a3.23,3.23,0,0,0-.64-2.19,2.69,2.69,0,0,0-2.1-.71,3.36,3.36,0,0,0-3.15,1.91v11.08h-3.49V426.36Z"/><path d="M489,441.93a5.77,5.77,0,0,1-.4-1.45,5.43,5.43,0,0,1-4.08,1.74,5.5,5.5,0,0,1-3.83-1.34,4.28,4.28,0,0,1-1.48-3.31,4.41,4.41,0,0,1,1.85-3.82,8.91,8.91,0,0,1,5.28-1.33h2.15v-1a2.75,2.75,0,0,0-.68-1.94,2.7,2.7,0,0,0-2.06-.72,3.06,3.06,0,0,0-2,.59,1.86,1.86,0,0,0-.77,1.52h-3.49a3.89,3.89,0,0,1,.85-2.4,5.57,5.57,0,0,1,2.31-1.74,8,8,0,0,1,3.25-.64,6.49,6.49,0,0,1,4.36,1.38,4.87,4.87,0,0,1,1.67,3.86v7a8,8,0,0,0,.59,3.35v.25Zm-3.84-2.52a4,4,0,0,0,1.95-.5,3.41,3.41,0,0,0,1.38-1.36v-2.93h-1.89a5.16,5.16,0,0,0-2.92.68,2.18,2.18,0,0,0-1,1.91,2,2,0,0,0,.67,1.6A2.6,2.6,0,0,0,485.13,439.41Z"/><path d="M499.33,441.93h-3.49v-22.1h3.49Z"/><rect class="cls-7" x="275.76" y="255.63" width="24.47" height="24.51"/><rect class="cls-7" x="312.06" y="255.63" width="24.47" height="24.51"/><rect class="cls-7" x="348.35" y="255.63" width="24.47" height="24.51"/><rect class="cls-6" x="201.21" y="295.69" width="197.95" height="85.52"/><rect class="cls-11" x="209.48" y="303.96" width="181.41" height="68.98"/><line class="cls-12" x1="228.18" y1="362.2" x2="228.18" y2="362.2"/><line class="cls-13" x1="244.02" y1="362.2" x2="251.94" y2="362.2"/><line class="cls-12" x1="259.86" y1="362.2" x2="259.86" y2="362.2"/><line class="cls-12" x1="330.19" y1="362.2" x2="330.19" y2="362.2"/><line class="cls-14" x1="351.19" y1="362.2" x2="361.69" y2="362.2"/><line class="cls-12" x1="372.19" y1="362.2" x2="372.19" y2="362.2"/><path class="cls-9" d="M371.5,349.27c-9.64,4-15.74,2.46-18-1.69a6.84,6.84,0,0,1-.38-5.8c.9-2.19,3-3.83,4.84-3.17,3.12,1.12,2.6,5.95.31,9-2.75,3.69-6.89,5.5-9.89,5.05a5.94,5.94,0,0,1-5.08-6.35c.14-4.64,4-5.77,5.6-1.75s-4.72,9.27-10.68,8.23-7.35-3.78-7.35-3.78"/><rect class="cls-10" x="220.99" y="328.91" width="78.38" height="6.07"/><rect class="cls-10" x="220.99" y="314.11" width="78.38" height="6.07"/><rect class="cls-10" x="319.41" y="314.11" width="52.78" height="14.8"/><polyline class="cls-9" points="387.49 199.03 387.49 240.33 261.09 240.33 261.09 199.03"/><line class="cls-9" x1="303.23" y1="240.33" x2="303.23" y2="199.03"/><line class="cls-9" x1="345.36" y1="240.33" x2="345.36" y2="199.03"/><line class="cls-9" x1="261.09" y1="219.68" x2="387.49" y2="219.68"/><rect class="cls-6" x="435.47" y="339.94" width="24.9" height="24.9"/><rect class="cls-8" x="435.47" y="315.04" width="24.9" height="24.9"/><rect class="cls-8" x="435.47" y="290.14" width="24.9" height="24.9"/><rect class="cls-8" x="435.47" y="265.23" width="24.9" height="24.9"/><rect class="cls-6" x="435.47" y="240.33" width="24.9" height="24.9"/><rect class="cls-6" x="435.47" y="315.04" width="24.9" height="24.9"/><rect class="cls-6" x="435.47" y="290.14" width="24.9" height="24.9"/><rect class="cls-6" x="435.47" y="265.23" width="24.9" height="24.9"/><rect class="cls-6" x="435.47" y="215.43" width="24.9" height="24.9"/><rect class="cls-6" x="435.47" y="190.53" width="24.9" height="24.9"/><rect class="cls-6" x="435.47" y="165.63" width="24.9" height="24.9"/><rect class="cls-6" x="435.47" y="140.73" width="24.9" height="24.9"/><rect class="cls-6" x="435.47" y="115.82" width="24.9" height="24.9"/><rect class="cls-6" x="460.37" y="115.82" width="24.9" height="24.9"/><rect class="cls-6" x="485.27" y="115.82" width="24.9" height="24.9"/><rect class="cls-6" x="410.56" y="115.82" width="24.9" height="24.9"/><rect class="cls-6" x="385.66" y="115.82" width="24.9" height="24.9"/><rect class="cls-6" x="360.76" y="115.82" width="24.9" height="24.9"/><rect class="cls-6" x="335.9" y="115.82" width="24.9" height="24.9"/><polygon class="cls-6" points="335.9 115.82 311 140.73 335.9 140.73 335.9 115.82"/><line class="cls-9" x1="324.29" y1="140.73" x2="324.29" y2="157.81"/><line class="cls-9" x1="399.16" y1="364.84" x2="538.38" y2="364.84"/><rect class="cls-8" x="447.92" y="262.35" width="77.58" height="77.58"/><rect class="cls-5" x="458.76" y="273.2" width="55.89" height="55.89"/><polyline class="cls-9" points="468.39 293.77 486.49 311.87 538.38 259.98"/><rect class="cls-8" x="447.92" y="162.75" width="77.58" height="77.58"/><rect class="cls-5" x="458.76" y="173.6" width="55.89" height="55.89"/><polyline class="cls-9" points="468.39 194.16 486.49 212.26 538.38 160.38"/><rect class="cls-8" x="300.03" y="157.81" width="48.53" height="28.52"/><line class="cls-8" x1="330.53" y1="186.32" x2="330.53" y2="157.81"/><rect class="cls-5" x="261.09" y="644.24" width="126.4" height="114.28"/><polyline class="cls-9" points="387.49 604.63 387.49 644.24 261.09 644.24 261.09 604.63"/><line class="cls-9" x1="303.23" y1="629.77" x2="303.23" y2="590.16"/><line class="cls-9" x1="352.74" y1="644.24" x2="352.74" y2="604.63"/><line class="cls-9" x1="261.09" y1="623.59" x2="387.49" y2="623.59"/><rect class="cls-6" x="435.47" y="733.62" width="24.9" height="24.9"/><rect class="cls-8" x="435.47" y="708.72" width="24.9" height="24.9"/><rect class="cls-8" x="435.47" y="683.82" width="24.9" height="24.9"/><rect class="cls-8" x="435.47" y="658.92" width="24.9" height="24.9"/><rect class="cls-6" x="435.47" y="634.02" width="24.9" height="24.9"/><rect class="cls-6" x="435.47" y="708.72" width="24.9" height="24.9"/><rect class="cls-6" x="435.47" y="683.82" width="24.9" height="24.9"/><rect class="cls-6" x="435.47" y="658.92" width="24.9" height="24.9"/><rect class="cls-6" x="435.47" y="609.12" width="24.9" height="24.9"/><rect class="cls-6" x="435.47" y="584.21" width="24.9" height="24.9"/><rect class="cls-6" x="435.47" y="559.31" width="24.9" height="24.9"/><rect class="cls-6" x="435.47" y="534.41" width="24.9" height="24.9"/><rect class="cls-6" x="435.47" y="509.51" width="24.9" height="24.9"/><rect class="cls-6" x="460.37" y="509.51" width="24.9" height="24.9"/><rect class="cls-6" x="485.27" y="509.51" width="24.9" height="24.9"/><line class="cls-9" x1="387.49" y1="758.53" x2="538.38" y2="758.53"/><rect class="cls-8" x="447.92" y="656.04" width="77.58" height="77.58"/><rect class="cls-5" x="458.76" y="666.89" width="55.89" height="55.89"/><polyline class="cls-9" points="468.39 687.45 486.49 705.56 538.38 653.67"/><rect class="cls-8" x="447.92" y="556.43" width="77.58" height="77.58"/><rect class="cls-5" x="458.76" y="567.28" width="55.89" height="55.89"/><polyline class="cls-9" points="468.39 587.85 486.49 605.95 538.38 554.06"/><path d="M246.91,833.35v7.77h-3.64v-21h8a8.12,8.12,0,0,1,5.58,1.83,6.17,6.17,0,0,1,2.06,4.84,5.93,5.93,0,0,1-2,4.79,8.47,8.47,0,0,1-5.66,1.72Zm0-2.94h4.37a4.33,4.33,0,0,0,3-.91,3.36,3.36,0,0,0,1-2.64,3.62,3.62,0,0,0-1-2.71,4,4,0,0,0-2.85-1h-4.47Z"/><path d="M270.91,841.12a5.29,5.29,0,0,1-.41-1.46,5.43,5.43,0,0,1-4.08,1.74,5.5,5.5,0,0,1-3.83-1.33,4.29,4.29,0,0,1-1.48-3.31,4.41,4.41,0,0,1,1.85-3.82,8.91,8.91,0,0,1,5.28-1.33h2.15v-1a2.75,2.75,0,0,0-.68-1.94,2.7,2.7,0,0,0-2.06-.73,3.06,3.06,0,0,0-1.95.6,1.86,1.86,0,0,0-.77,1.52h-3.49a3.89,3.89,0,0,1,.85-2.4,5.57,5.57,0,0,1,2.31-1.74,8,8,0,0,1,3.26-.64,6.48,6.48,0,0,1,4.35,1.38,4.87,4.87,0,0,1,1.67,3.86v7a8,8,0,0,0,.59,3.35v.25Zm-3.85-2.52a4,4,0,0,0,1.95-.5,3.41,3.41,0,0,0,1.38-1.36v-2.93H268.5a5.17,5.17,0,0,0-2.92.67,2.21,2.21,0,0,0-1,1.92,2.06,2.06,0,0,0,.67,1.6A2.6,2.6,0,0,0,267.06,838.6Z"/><path d="M285.69,828.74a9.39,9.39,0,0,0-1.42-.11,3.21,3.21,0,0,0-3.24,1.84v10.65h-3.49V825.55h3.34l.08,1.74a4,4,0,0,1,3.51-2,3.39,3.39,0,0,1,1.24.2Z"/><path d="M293,821.77v3.78h2.75v2.59H293v8.69a1.91,1.91,0,0,0,.36,1.29,1.63,1.63,0,0,0,1.25.39,5.16,5.16,0,0,0,1.23-.14v2.7a8.69,8.69,0,0,1-2.3.33q-4,0-4-4.44v-8.82H287v-2.59h2.56v-3.78Z"/><path d="M298.43,821.51a1.85,1.85,0,0,1,.51-1.34,1.91,1.91,0,0,1,1.46-.53,2,2,0,0,1,1.47.53,1.85,1.85,0,0,1,.51,1.34,1.79,1.79,0,0,1-.51,1.31,2,2,0,0,1-1.47.53,2,2,0,0,1-1.46-.53A1.79,1.79,0,0,1,298.43,821.51Zm3.71,19.61h-3.5V825.55h3.5Z"/><path d="M315.25,841.12a5.29,5.29,0,0,1-.41-1.46,5.43,5.43,0,0,1-4.08,1.74,5.5,5.5,0,0,1-3.83-1.33,4.29,4.29,0,0,1-1.48-3.31,4.41,4.41,0,0,1,1.85-3.82,8.91,8.91,0,0,1,5.28-1.33h2.15v-1a2.75,2.75,0,0,0-.68-1.94,2.7,2.7,0,0,0-2.06-.73,3.06,3.06,0,0,0-1.95.6,1.85,1.85,0,0,0-.76,1.52h-3.5a3.89,3.89,0,0,1,.85-2.4,5.57,5.57,0,0,1,2.31-1.74,8,8,0,0,1,3.26-.64,6.48,6.48,0,0,1,4.35,1.38,4.87,4.87,0,0,1,1.67,3.86v7a8,8,0,0,0,.59,3.35v.25Zm-3.85-2.52a4,4,0,0,0,2-.5,3.41,3.41,0,0,0,1.38-1.36v-2.93h-1.89a5.17,5.17,0,0,0-2.92.67,2.21,2.21,0,0,0-1,1.92,2.06,2.06,0,0,0,.67,1.6A2.6,2.6,0,0,0,311.4,838.6Z"/><path d="M325.6,841.12h-3.49V819h3.49Z"/><path d="M353.07,834.3a7.57,7.57,0,0,1-2.48,5.23,8.42,8.42,0,0,1-5.74,1.87,8.2,8.2,0,0,1-4.41-1.18,7.79,7.79,0,0,1-2.94-3.38,12.16,12.16,0,0,1-1.08-5.07v-2a12.22,12.22,0,0,1,1.05-5.22,8,8,0,0,1,3-3.49,8.45,8.45,0,0,1,4.54-1.22,8.1,8.1,0,0,1,5.58,1.88,7.83,7.83,0,0,1,2.46,5.32h-3.63a5.16,5.16,0,0,0-1.31-3.26,4.35,4.35,0,0,0-3.1-1,4.26,4.26,0,0,0-3.65,1.73,8.69,8.69,0,0,0-1.3,5.09v1.86a9.18,9.18,0,0,0,1.21,5.18,4,4,0,0,0,3.56,1.79,4.74,4.74,0,0,0,3.23-1,5.05,5.05,0,0,0,1.36-3.21Z"/><path d="M355.33,833.19a9.2,9.2,0,0,1,.9-4.12,6.72,6.72,0,0,1,2.55-2.82,7.14,7.14,0,0,1,3.77-1,6.79,6.79,0,0,1,5.11,2,8,8,0,0,1,2.13,5.38v.82a9.27,9.27,0,0,1-.88,4.12,6.51,6.51,0,0,1-2.54,2.8,7.2,7.2,0,0,1-3.8,1,6.73,6.73,0,0,1-5.27-2.19,8.39,8.39,0,0,1-2-5.85Zm3.49.3a6.2,6.2,0,0,0,1,3.76,3.21,3.21,0,0,0,2.76,1.36,3.18,3.18,0,0,0,2.75-1.38,6.9,6.9,0,0,0,1-4,6.17,6.17,0,0,0-1-3.74,3.42,3.42,0,0,0-5.47,0A6.78,6.78,0,0,0,358.82,833.49Z"/><path d="M376,825.55l.1,1.8a5.6,5.6,0,0,1,4.53-2.09q4.88,0,4.95,5.57v10.29h-3.49V831a3.22,3.22,0,0,0-.64-2.19,2.69,2.69,0,0,0-2.1-.71A3.36,3.36,0,0,0,376.2,830v11.08h-3.49V825.55Z"/><path d="M388.49,833.22a9.29,9.29,0,0,1,1.67-5.78,5.34,5.34,0,0,1,4.47-2.18,5.08,5.08,0,0,1,4,1.73v-8h3.5v22.1H399l-.17-1.61a5.17,5.17,0,0,1-4.19,1.89,5.31,5.31,0,0,1-4.42-2.2A9.55,9.55,0,0,1,388.49,833.22Zm3.5.3a6.5,6.5,0,0,0,.91,3.71,3,3,0,0,0,2.6,1.33,3.3,3.3,0,0,0,3.13-1.92V830a3.25,3.25,0,0,0-3.11-1.87,3,3,0,0,0-2.61,1.34A7.18,7.18,0,0,0,392,833.52Z"/><path d="M405.78,821.51a1.85,1.85,0,0,1,.51-1.34,2.29,2.29,0,0,1,2.93,0,1.82,1.82,0,0,1,.52,1.34,1.76,1.76,0,0,1-.52,1.31,2.29,2.29,0,0,1-2.93,0A1.79,1.79,0,0,1,405.78,821.51Zm3.71,19.61H406V825.55h3.49Z"/><path d="M417.68,821.77v3.78h2.75v2.59h-2.75v8.69a2,2,0,0,0,.35,1.29,1.67,1.67,0,0,0,1.26.39,5.14,5.14,0,0,0,1.22-.14v2.7a8.58,8.58,0,0,1-2.3.33c-2.68,0-4-1.48-4-4.44v-8.82h-2.56v-2.59h2.56v-3.78Z"/><path d="M423.1,821.51a1.82,1.82,0,0,1,.52-1.34,2.28,2.28,0,0,1,2.92,0,1.82,1.82,0,0,1,.52,1.34,1.76,1.76,0,0,1-.52,1.31,2.28,2.28,0,0,1-2.92,0A1.76,1.76,0,0,1,423.1,821.51Zm3.72,19.61h-3.5V825.55h3.5Z"/><path d="M430,833.19a9.2,9.2,0,0,1,.9-4.12,6.72,6.72,0,0,1,2.55-2.82,7.14,7.14,0,0,1,3.77-1,6.8,6.8,0,0,1,5.11,2,8,8,0,0,1,2.13,5.38v.82a9.27,9.27,0,0,1-.88,4.12,6.51,6.51,0,0,1-2.54,2.8,7.2,7.2,0,0,1-3.8,1,6.73,6.73,0,0,1-5.27-2.19,8.39,8.39,0,0,1-2-5.85Zm3.49.3a6.2,6.2,0,0,0,1,3.76,3.21,3.21,0,0,0,2.76,1.36,3.18,3.18,0,0,0,2.75-1.38,6.9,6.9,0,0,0,1-4,6.17,6.17,0,0,0-1-3.74,3.42,3.42,0,0,0-5.47,0A6.78,6.78,0,0,0,433.46,833.49Z"/><path d="M450.64,825.55l.1,1.8a5.6,5.6,0,0,1,4.53-2.09q4.88,0,5,5.57v10.29h-3.49V831a3.22,3.22,0,0,0-.64-2.19,2.69,2.69,0,0,0-2.1-.71,3.36,3.36,0,0,0-3.15,1.91v11.08h-3.49V825.55Z"/><path d="M473.08,841.12a5.75,5.75,0,0,1-.4-1.46,5.43,5.43,0,0,1-4.08,1.74,5.5,5.5,0,0,1-3.83-1.33,4.29,4.29,0,0,1-1.48-3.31,4.41,4.41,0,0,1,1.85-3.82,8.91,8.91,0,0,1,5.28-1.33h2.15v-1a2.75,2.75,0,0,0-.68-1.94,2.7,2.7,0,0,0-2.06-.73,3,3,0,0,0-1.95.6,1.86,1.86,0,0,0-.77,1.52h-3.49a3.89,3.89,0,0,1,.85-2.4,5.57,5.57,0,0,1,2.31-1.74,8,8,0,0,1,3.25-.64,6.49,6.49,0,0,1,4.36,1.38,4.87,4.87,0,0,1,1.67,3.86v7a8,8,0,0,0,.59,3.35v.25Zm-3.84-2.52a4,4,0,0,0,1.95-.5,3.41,3.41,0,0,0,1.38-1.36v-2.93h-1.89a5.17,5.17,0,0,0-2.92.67,2.21,2.21,0,0,0-1,1.92,2.06,2.06,0,0,0,.67,1.6A2.6,2.6,0,0,0,469.24,838.6Z"/><path d="M483.44,841.12H480V819h3.49Z"/><rect class="cls-5" x="201.21" y="590.16" width="133.43" height="189.16"/><rect class="cls-7" x="221.73" y="624.06" width="39.51" height="5.65"/><rect class="cls-7" x="221.73" y="636.55" width="39.51" height="5.65"/><rect class="cls-7" x="221.73" y="664.02" width="54.44" height="5.65"/><rect class="cls-7" x="221.73" y="673.09" width="54.44" height="5.65"/><rect class="cls-7" x="221.73" y="682.16" width="54.44" height="5.65"/><rect class="cls-7" x="221.73" y="691.23" width="54.44" height="5.65"/><rect class="cls-7" x="221.73" y="700.3" width="54.44" height="5.65"/><rect class="cls-7" x="282.35" y="664.02" width="31.77" height="5.65"/><rect class="cls-7" x="282.35" y="673.09" width="31.77" height="5.65"/><rect class="cls-7" x="282.35" y="682.16" width="31.77" height="5.65"/><rect class="cls-7" x="282.35" y="691.23" width="31.77" height="5.65"/><rect class="cls-7" x="282.35" y="700.3" width="31.77" height="5.65"/><path class="cls-15" d="M303.08,640.47a3.91,3.91,0,0,0-1.1-2.86,9.48,9.48,0,0,0-3.67-2,29.64,29.64,0,0,1-4-1.69q-4.74-2.55-4.75-7.54a7.81,7.81,0,0,1,2.06-5.57,8.82,8.82,0,0,1,5.59-2.59v-4.44h3.26v4.48a8.06,8.06,0,0,1,5.49,3,10.31,10.31,0,0,1,1.94,6.49H303a6.38,6.38,0,0,0-1.15-4,3.75,3.75,0,0,0-3.13-1.48,4.2,4.2,0,0,0-3.06,1.06,4,4,0,0,0-1.1,3,3.78,3.78,0,0,0,1.09,2.84,10.55,10.55,0,0,0,3.7,2,30.4,30.4,0,0,1,4.1,1.78,10.43,10.43,0,0,1,2.51,1.86,7.48,7.48,0,0,1,1.57,2.42,8.48,8.48,0,0,1,.55,3.2,7.61,7.61,0,0,1-2.11,5.59,9.3,9.3,0,0,1-5.88,2.53v4H296.8v-3.95a8.68,8.68,0,0,1-8.38-9.38h5a5.66,5.66,0,0,0,1.29,4,4.71,4.71,0,0,0,3.66,1.41,5,5,0,0,0,3.54-1.12A3.86,3.86,0,0,0,303.08,640.47Z"/><rect class="cls-7" x="259.67" y="733.55" width="40.97" height="5.65"/><circle class="cls-16" cx="300.64" cy="736.37" r="13.47"/><rect class="cls-6" x="410.56" y="509.51" width="24.9" height="24.9"/><rect class="cls-6" x="385.66" y="509.51" width="24.9" height="24.9"/><rect class="cls-6" x="360.76" y="509.51" width="24.9" height="24.9"/><rect class="cls-6" x="335.9" y="509.51" width="24.9" height="24.9"/><polygon class="cls-6" points="335.9 509.51 311 534.41 335.9 534.41 335.9 509.51"/><rect class="cls-7" x="348.83" y="708.72" width="24.47" height="24.9"/><rect class="cls-7" x="348.83" y="658.92" width="24.47" height="24.9"/><line class="cls-8" x1="373.71" y1="534.41" x2="373.71" y2="555.7"/><rect class="cls-8" x="349.44" y="555.7" width="48.53" height="28.52"/><line class="cls-8" x1="379.95" y1="584.21" x2="379.95" y2="555.7"/><path d="M705.88,432.89h-8.43v8.88h-3.64V420.82h13.31v2.93h-9.67V430h8.43Z"/><path d="M709.67,422.16a1.85,1.85,0,0,1,.51-1.34,2.28,2.28,0,0,1,2.92,0,1.82,1.82,0,0,1,.52,1.34,1.76,1.76,0,0,1-.52,1.31,2.28,2.28,0,0,1-2.92,0A1.79,1.79,0,0,1,709.67,422.16Zm3.71,19.61h-3.5V426.2h3.5Z"/><path d="M720.43,426.2l.1,1.8a5.6,5.6,0,0,1,4.53-2.09q4.86,0,5,5.57v10.29h-3.5V431.68a3.17,3.17,0,0,0-.64-2.19,2.65,2.65,0,0,0-2.09-.71,3.36,3.36,0,0,0-3.15,1.91v11.08h-3.5V426.2Z"/><path d="M742.87,441.77a5.35,5.35,0,0,1-.4-1.46,5.86,5.86,0,0,1-7.91.41,4.29,4.29,0,0,1-1.49-3.31,4.43,4.43,0,0,1,1.85-3.82,9,9,0,0,1,5.29-1.33h2.14v-1a2.74,2.74,0,0,0-.67-1.94,2.7,2.7,0,0,0-2.06-.73,3.07,3.07,0,0,0-2,.6,1.85,1.85,0,0,0-.76,1.52h-3.5a4,4,0,0,1,.85-2.4,5.7,5.7,0,0,1,2.31-1.74,8,8,0,0,1,3.26-.64,6.51,6.51,0,0,1,4.36,1.38,4.9,4.9,0,0,1,1.67,3.86v7a8,8,0,0,0,.59,3.35v.25ZM739,439.25a4,4,0,0,0,2-.5,3.32,3.32,0,0,0,1.37-1.36v-2.93h-1.88a5.06,5.06,0,0,0-2.92.68,2.18,2.18,0,0,0-1,1.91,2,2,0,0,0,.67,1.6A2.57,2.57,0,0,0,739,439.25Z"/><path d="M753.23,441.77h-3.5v-22.1h3.5Z"/><path d="M780,420.82v14a6.83,6.83,0,0,1-2.13,5.29,9.36,9.36,0,0,1-11.41,0,6.82,6.82,0,0,1-2.11-5.33v-14H768v14a4.46,4.46,0,0,0,1.07,3.21,4.14,4.14,0,0,0,3.14,1.11q4.2,0,4.2-4.43v-13.9Z"/><path d="M786.82,426.2l.1,1.8a5.6,5.6,0,0,1,4.54-2.09q4.86,0,4.94,5.57v10.29h-3.49V431.68a3.22,3.22,0,0,0-.64-2.19,2.69,2.69,0,0,0-2.1-.71,3.36,3.36,0,0,0-3.15,1.91v11.08h-3.49V426.2Z"/><path d="M806.36,439.26a3.14,3.14,0,0,0,2.17-.76,2.6,2.6,0,0,0,.92-1.88h3.3a5.11,5.11,0,0,1-.91,2.71,5.88,5.88,0,0,1-2.3,2,6.85,6.85,0,0,1-3.14.74,6.66,6.66,0,0,1-5.18-2.12,8.42,8.42,0,0,1-1.91-5.84v-.36a8.22,8.22,0,0,1,1.9-5.69,6.6,6.6,0,0,1,5.18-2.14,6.37,6.37,0,0,1,4.52,1.62,5.8,5.8,0,0,1,1.84,4.25h-3.3a3.22,3.22,0,0,0-.91-2.2,3,3,0,0,0-2.18-.86,3.09,3.09,0,0,0-2.62,1.23,6.3,6.3,0,0,0-.93,3.73v.56a6.38,6.38,0,0,0,.91,3.78A3.07,3.07,0,0,0,806.36,439.26Z"/><path d="M814.73,433.84a9.24,9.24,0,0,1,.91-4.12,6.59,6.59,0,0,1,2.55-2.82,7.14,7.14,0,0,1,3.77-1,6.8,6.8,0,0,1,5.11,2,8,8,0,0,1,2.12,5.38l0,.82a9.27,9.27,0,0,1-.89,4.12,6.49,6.49,0,0,1-2.53,2.8,7.27,7.27,0,0,1-3.81,1,6.77,6.77,0,0,1-5.27-2.2,8.39,8.39,0,0,1-2-5.85Zm3.5.3a6.27,6.27,0,0,0,1,3.76,3.47,3.47,0,0,0,5.52,0,6.91,6.91,0,0,0,1-4,6.17,6.17,0,0,0-1-3.74,3.24,3.24,0,0,0-2.75-1.38,3.19,3.19,0,0,0-2.72,1.36A6.78,6.78,0,0,0,818.23,434.14Z"/><path d="M835.41,426.2l.1,1.8a5.6,5.6,0,0,1,4.53-2.09q4.86,0,5,5.57v10.29h-3.5V431.68a3.17,3.17,0,0,0-.64-2.19,2.65,2.65,0,0,0-2.09-.71,3.36,3.36,0,0,0-3.15,1.91v11.08h-3.5V426.2Z"/><path d="M847.9,433.87a9.29,9.29,0,0,1,1.66-5.78,5.38,5.38,0,0,1,4.48-2.18,5.09,5.09,0,0,1,4,1.73v-8h3.49v22.1h-3.16l-.17-1.61a5.18,5.18,0,0,1-4.19,1.9,5.31,5.31,0,0,1-4.42-2.21A9.55,9.55,0,0,1,847.9,433.87Zm3.49.3a6.58,6.58,0,0,0,.91,3.71,3,3,0,0,0,2.6,1.33,3.3,3.3,0,0,0,3.14-1.92v-6.64a3.25,3.25,0,0,0-3.11-1.87,3,3,0,0,0-2.62,1.34A7.26,7.26,0,0,0,851.39,434.17Z"/><path d="M865.19,422.16a1.85,1.85,0,0,1,.51-1.34,2,2,0,0,1,1.46-.53,2,2,0,0,1,1.47.53,1.85,1.85,0,0,1,.51,1.34,1.79,1.79,0,0,1-.51,1.31,2,2,0,0,1-1.47.53,2,2,0,0,1-1.46-.53A1.79,1.79,0,0,1,865.19,422.16Zm3.71,19.61h-3.5V426.2h3.5Z"/><path d="M877.09,422.42v3.78h2.74v2.59h-2.74v8.69a1.91,1.91,0,0,0,.35,1.29,1.64,1.64,0,0,0,1.26.39,5.14,5.14,0,0,0,1.22-.14v2.7a8.66,8.66,0,0,1-2.3.34c-2.69,0-4-1.49-4-4.45v-8.82H871V426.2h2.56v-3.78Z"/><path d="M882.51,422.16a1.85,1.85,0,0,1,.51-1.34,2,2,0,0,1,1.46-.53,2,2,0,0,1,1.47.53,1.86,1.86,0,0,1,.52,1.34,1.8,1.8,0,0,1-.52,1.31,2,2,0,0,1-1.47.53,2,2,0,0,1-1.46-.53A1.79,1.79,0,0,1,882.51,422.16Zm3.71,19.61h-3.49V426.2h3.49Z"/><path d="M889.37,433.84a9.1,9.1,0,0,1,.91-4.12,6.59,6.59,0,0,1,2.55-2.82,7.13,7.13,0,0,1,3.76-1,6.81,6.81,0,0,1,5.12,2,8,8,0,0,1,2.12,5.38l0,.82a9.27,9.27,0,0,1-.89,4.12,6.49,6.49,0,0,1-2.53,2.8,7.27,7.27,0,0,1-3.81,1,6.77,6.77,0,0,1-5.27-2.2,8.39,8.39,0,0,1-2-5.85Zm3.5.3a6.27,6.27,0,0,0,1,3.76,3.47,3.47,0,0,0,5.52,0,6.91,6.91,0,0,0,1-4,6.17,6.17,0,0,0-1-3.74,3.24,3.24,0,0,0-2.76-1.38,3.18,3.18,0,0,0-2.71,1.36A6.71,6.71,0,0,0,892.87,434.14Z"/><path d="M910.05,426.2l.1,1.8a5.6,5.6,0,0,1,4.53-2.09q4.86,0,5,5.57v10.29h-3.5V431.68a3.17,3.17,0,0,0-.64-2.19,2.65,2.65,0,0,0-2.09-.71,3.36,3.36,0,0,0-3.15,1.91v11.08h-3.5V426.2Z"/><path d="M932.49,441.77a5.35,5.35,0,0,1-.4-1.46,5.88,5.88,0,0,1-7.92.41,4.31,4.31,0,0,1-1.48-3.31,4.43,4.43,0,0,1,1.85-3.82,9,9,0,0,1,5.29-1.33H932v-1a2.74,2.74,0,0,0-.67-1.94,2.7,2.7,0,0,0-2.06-.73,3.07,3.07,0,0,0-2,.6,1.85,1.85,0,0,0-.76,1.52H923a4,4,0,0,1,.85-2.4,5.7,5.7,0,0,1,2.31-1.74,8,8,0,0,1,3.26-.64,6.51,6.51,0,0,1,4.36,1.38,4.9,4.9,0,0,1,1.67,3.86v7a7.83,7.83,0,0,0,.59,3.35v.25Zm-3.84-2.52a4,4,0,0,0,2-.5,3.32,3.32,0,0,0,1.37-1.36v-2.93h-1.88a5.06,5.06,0,0,0-2.92.68,2.16,2.16,0,0,0-1,1.91,2,2,0,0,0,.67,1.6A2.57,2.57,0,0,0,928.65,439.25Z"/><path d="M942.85,441.77h-3.5v-22.1h3.5Z"/><rect class="cls-5" x="719.5" y="127.56" width="157.26" height="237.28"/><rect class="cls-6" x="876.76" y="127.56" width="70.78" height="237.28"/><rect class="cls-7" x="737.75" y="143.47" width="30.45" height="35.48"/><rect class="cls-7" x="782.9" y="143.47" width="30.45" height="35.48"/><rect class="cls-7" x="828.06" y="143.47" width="30.45" height="35.48"/><rect class="cls-7" x="737.75" y="193.66" width="30.45" height="35.48"/><rect class="cls-7" x="782.9" y="193.66" width="30.45" height="35.48"/><rect class="cls-7" x="828.06" y="193.66" width="30.45" height="35.48"/><rect class="cls-7" x="737.75" y="243.84" width="30.45" height="35.48"/><rect class="cls-7" x="782.9" y="243.84" width="30.45" height="35.48"/><rect class="cls-7" x="828.06" y="243.84" width="30.45" height="35.48"/><rect class="cls-5" x="659.61" y="295.69" width="197.95" height="85.52"/><rect class="cls-17" x="667.88" y="303.96" width="181.41" height="68.98"/><line class="cls-12" x1="686.59" y1="362.2" x2="686.59" y2="362.2"/><line class="cls-13" x1="702.43" y1="362.2" x2="710.34" y2="362.2"/><line class="cls-12" x1="718.26" y1="362.2" x2="718.26" y2="362.2"/><line class="cls-12" x1="788.59" y1="362.2" x2="788.59" y2="362.2"/><line class="cls-14" x1="809.59" y1="362.2" x2="820.09" y2="362.2"/><line class="cls-12" x1="830.6" y1="362.2" x2="830.6" y2="362.2"/><path class="cls-9" d="M829.9,349.27c-9.63,4-15.73,2.46-18-1.69a6.84,6.84,0,0,1-.37-5.8c.9-2.19,3-3.83,4.83-3.17,3.12,1.12,2.61,5.95.31,9-2.75,3.69-6.88,5.5-9.88,5.05a6,6,0,0,1-5.09-6.35c.14-4.64,4-5.77,5.6-1.75s-4.71,9.27-10.68,8.23-7.35-3.78-7.35-3.78"/><rect class="cls-7" x="679.39" y="328.91" width="78.38" height="6.07"/><rect class="cls-7" x="679.39" y="314.11" width="78.38" height="6.07"/><rect class="cls-7" x="777.81" y="314.11" width="52.78" height="14.8"/><rect class="cls-8" x="901.89" y="260.86" width="77.58" height="77.58"/><rect class="cls-5" x="912.73" y="271.71" width="55.89" height="55.89"/><polyline class="cls-9" points="922.36 292.27 940.46 310.38 992.35 258.49"/><line class="cls-9" x1="992.35" y1="364.84" x2="857.57" y2="364.84"/><circle class="cls-8" cx="939.6" cy="198.92" r="37.71"/><path class="cls-5" d="M944.71,209.62a5.64,5.64,0,0,0-1.2-3.82,11.4,11.4,0,0,0-4.22-2.62q-3-1.23-5.57-2.49a19.24,19.24,0,0,1-4.4-2.92,11.41,11.41,0,0,1-2.83-3.85,12.78,12.78,0,0,1-1-5.29,11.39,11.39,0,0,1,3.51-8.58,15.15,15.15,0,0,1,9.36-3.92v-6.49h4.89v6.61a13.77,13.77,0,0,1,8.85,4.63,14.47,14.47,0,0,1,3.22,9.65H944.92a8.39,8.39,0,0,0-1.23-4.92,4,4,0,0,0-3.51-1.72,4,4,0,0,0-3.15,1.27,5.16,5.16,0,0,0-1.12,3.53,5,5,0,0,0,1.29,3.61,12.53,12.53,0,0,0,4.15,2.56q2.86,1.21,5.41,2.52a20.87,20.87,0,0,1,4.38,3,12.23,12.23,0,0,1,2.9,3.88,12.51,12.51,0,0,1,1,5.33,11.57,11.57,0,0,1-3.34,8.58,14.37,14.37,0,0,1-9.09,3.88v6.19h-4.9V222q-6.71-.7-10.29-4.6t-3.59-10.27h10.37a8,8,0,0,0,1.56,5.34,5.44,5.44,0,0,0,4.41,1.84,4.37,4.37,0,0,0,3.3-1.25A4.75,4.75,0,0,0,944.71,209.62Z"/></g></g></svg>