<svg xmlns="http://www.w3.org/2000/svg" viewBox="0 0 1200 937"><defs><style>.cls-1{isolation:isolate;}.cls-2,.cls-3{fill:#9dc7e0;}.cls-2{opacity:0.15;}.cls-3{opacity:0.25;mix-blend-mode:multiply;}.cls-4,.cls-6{fill:#fff;}.cls-10,.cls-4,.cls-5,.cls-8,.cls-9{stroke:#0c1733;stroke-linecap:round;stroke-linejoin:round;}.cls-10,.cls-4,.cls-5,.cls-6{stroke-width:2px;}.cls-5{fill:#f9ef35;}.cls-6{stroke:#000;stroke-miterlimit:10;}.cls-7{fill:#cfdde5;}.cls-10,.cls-8,.cls-9{fill:none;}.cls-8,.cls-9{stroke-width:5px;}.cls-9{stroke-dasharray:0 19.87;}.cls-11{fill:#0c1733;}</style></defs><title>01_Vector</title><g class="cls-1"><g id="Layer_1" data-name="Layer 1"><path class="cls-2" d="M149.6,580.07c-92.89-197,59.23-325.44,305.75-310C762.77,289.26,883.42,88.68,1003,186.67c101.74,83.37,97,525.38,3.13,608.94S243.88,780,149.6,580.07Z"/><path class="cls-3" d="M846,252.13a47.92,47.92,0,1,0-95.83,0H613.22V776.26h369.7V252.13Z"/><rect class="cls-4" x="583.22" y="222.13" width="369.7" height="524.13"/><circle class="cls-5" cx="768.07" cy="222.13" r="47.92"/><circle class="cls-6" cx="768.07" cy="222.13" r="26.11"/><rect class="cls-7" x="643.12" y="425.8" width="136.16" height="15.66"/><rect class="cls-7" x="643.12" y="387.72" width="136.16" height="15.66"/><rect class="cls-7" x="805.8" y="387.72" width="93.33" height="53.73"/><rect class="cls-7" x="643.12" y="303.28" width="256.01" height="15.66"/><rect class="cls-7" x="643.12" y="334.25" width="256.01" height="15.66"/><rect class="cls-7" x="643.12" y="479.27" width="119.65" height="15.66"/><rect class="cls-7" x="643.12" y="510.24" width="119.65" height="15.66"/><rect class="cls-7" x="643.12" y="541.21" width="119.65" height="15.66"/><rect class="cls-7" x="779.44" y="479.27" width="119.65" height="15.66"/><rect class="cls-7" x="779.44" y="510.24" width="119.65" height="15.66"/><rect class="cls-7" x="779.44" y="541.21" width="119.65" height="15.66"/><rect class="cls-7" x="643.12" y="594.69" width="255.97" height="15.66"/><rect class="cls-7" x="643.12" y="625.66" width="119.65" height="15.66"/><rect class="cls-7" x="643.12" y="656.63" width="119.65" height="15.66"/><line class="cls-8" x1="799.56" y1="668.67" x2="799.56" y2="668.67"/><line class="cls-9" x1="819.43" y1="668.67" x2="869.11" y2="668.67"/><line class="cls-8" x1="879.04" y1="668.67" x2="879.04" y2="668.67"/><path class="cls-10" d="M877.73,649.89c-18.23,7.52-29.77,4.64-34-3.2a12.92,12.92,0,0,1-.71-11c1.7-4.15,5.68-7.26,9.15-6,5.91,2.13,4.93,11.27.58,17.1-5.2,7-13,10.41-18.7,9.55-5.53-.83-9.82-5.38-9.62-12,.27-8.79,7.55-10.93,10.59-3.33s-8.92,17.55-20.21,15.59-13.9-7.15-13.9-7.15"/><path class="cls-11" d="M275.83,325.74v9h-4.2V310.54h9.25a9.33,9.33,0,0,1,6.43,2.11,7.09,7.09,0,0,1,2.38,5.58,6.89,6.89,0,0,1-2.33,5.54,9.79,9.79,0,0,1-6.53,2Zm0-3.38h5.05a5,5,0,0,0,3.42-1.06,3.87,3.87,0,0,0,1.17-3,4.16,4.16,0,0,0-1.19-3.13,4.65,4.65,0,0,0-3.29-1.21h-5.16Z"/><path class="cls-11" d="M302.37,320.43a9.81,9.81,0,0,0-1.64-.13,3.72,3.72,0,0,0-3.74,2.12v12.29h-4v-18h3.85l.1,2a4.55,4.55,0,0,1,4-2.35,3.68,3.68,0,0,1,1.43.24Z"/><path class="cls-11" d="M303.57,325.56a10.66,10.66,0,0,1,1-4.75,7.65,7.65,0,0,1,2.94-3.26,8.26,8.26,0,0,1,4.35-1.14,7.8,7.8,0,0,1,5.9,2.35,9.2,9.2,0,0,1,2.45,6.2l0,1a10.72,10.72,0,0,1-1,4.75,7.57,7.57,0,0,1-2.92,3.23,8.29,8.29,0,0,1-4.39,1.15,7.78,7.78,0,0,1-6.09-2.53,9.71,9.71,0,0,1-2.28-6.75Zm4,.35a7.17,7.17,0,0,0,1.15,4.34,3.7,3.7,0,0,0,3.19,1.57,3.66,3.66,0,0,0,3.17-1.59,8,8,0,0,0,1.14-4.67,7.13,7.13,0,0,0-1.17-4.31,3.94,3.94,0,0,0-6.32,0A7.89,7.89,0,0,0,307.6,325.91Z"/><path class="cls-11" d="M339.41,325.91a10.72,10.72,0,0,1-1.89,6.65,6.58,6.58,0,0,1-9.81.54v8.51h-4V316.75h3.72l.17,1.82a5.91,5.91,0,0,1,4.83-2.16,6.12,6.12,0,0,1,5.15,2.45,11,11,0,0,1,1.87,6.8Zm-4-.35a7.5,7.5,0,0,0-1.07-4.26,3.45,3.45,0,0,0-3.06-1.58,3.7,3.7,0,0,0-3.55,2v8a3.74,3.74,0,0,0,3.58,2.09,3.48,3.48,0,0,0,3-1.55A8.23,8.23,0,0,0,335.39,325.56Z"/><path class="cls-11" d="M350.73,335a8.32,8.32,0,0,1-6.22-2.42,8.78,8.78,0,0,1-2.38-6.43v-.5a10.78,10.78,0,0,1,1-4.8,7.93,7.93,0,0,1,2.91-3.3,7.77,7.77,0,0,1,4.19-1.18,7,7,0,0,1,5.66,2.35c1.34,1.56,2,3.76,2,6.62V327H346.2a5.4,5.4,0,0,0,1.48,3.51,4.45,4.45,0,0,0,3.28,1.3,5.48,5.48,0,0,0,4.52-2.24l2.17,2.07a7.21,7.21,0,0,1-2.88,2.5A9,9,0,0,1,350.73,335Zm-.48-15.39a3.4,3.4,0,0,0-2.68,1.16,6.08,6.08,0,0,0-1.31,3.24H354v-.3a4.9,4.9,0,0,0-1.08-3.06A3.37,3.37,0,0,0,350.25,319.65Z"/><path class="cls-11" d="M370.47,320.43a9.85,9.85,0,0,0-1.65-.13,3.7,3.7,0,0,0-3.73,2.12v12.29h-4v-18h3.85l.1,2a4.53,4.53,0,0,1,4.05-2.35,3.63,3.63,0,0,1,1.42.24Z"/><path class="cls-11" d="M378.9,312.38v4.37h3.17v3H378.9v10a2.23,2.23,0,0,0,.41,1.49,1.89,1.89,0,0,0,1.45.45,6.22,6.22,0,0,0,1.41-.16v3.12a10.09,10.09,0,0,1-2.65.38q-4.65,0-4.65-5.13V319.73h-3v-3h3v-4.37Z"/><path class="cls-11" d="M391.43,328.93l3.66-12.18h4.3l-7.14,20.68Q390.6,342,386.67,342a7.17,7.17,0,0,1-1.94-.3v-3.13l.76.05a3.92,3.92,0,0,0,2.3-.56,3.7,3.7,0,0,0,1.22-1.87l.58-1.54-6.31-17.86h4.35Z"/><path class="cls-11" d="M410.56,334.71V310.54h7.14a11.1,11.1,0,0,1,5.68,1.43,9.63,9.63,0,0,1,3.84,4,12.8,12.8,0,0,1,1.37,6v1.21a12.84,12.84,0,0,1-1.37,6,9.65,9.65,0,0,1-3.91,4,11.69,11.69,0,0,1-5.8,1.41Zm4.2-20.79v17.43h2.74a6.3,6.3,0,0,0,5.07-2.06,9,9,0,0,0,1.8-5.94V322a9.24,9.24,0,0,0-1.71-6,6.08,6.08,0,0,0-5-2.08Z"/><path class="cls-11" d="M440.29,335a8.32,8.32,0,0,1-6.22-2.42,8.74,8.74,0,0,1-2.38-6.43v-.5a10.78,10.78,0,0,1,1-4.8,7.93,7.93,0,0,1,2.91-3.3,7.76,7.76,0,0,1,4.18-1.18,7,7,0,0,1,5.67,2.35c1.34,1.56,2,3.76,2,6.62V327H435.76a5.35,5.35,0,0,0,1.48,3.51,4.44,4.44,0,0,0,3.28,1.3,5.49,5.49,0,0,0,4.52-2.24l2.17,2.07a7.21,7.21,0,0,1-2.88,2.5A9,9,0,0,1,440.29,335Zm-.48-15.39a3.4,3.4,0,0,0-2.68,1.16,6.08,6.08,0,0,0-1.31,3.24h7.69v-.3a4.9,4.9,0,0,0-1.08-3.06A3.37,3.37,0,0,0,439.81,319.65Z"/><path class="cls-11" d="M455.68,312.38v4.37h3.17v3h-3.17v10a2.23,2.23,0,0,0,.4,1.49,1.93,1.93,0,0,0,1.46.45,6.29,6.29,0,0,0,1.41-.16v3.12a10.17,10.17,0,0,1-2.66.38q-4.65,0-4.65-5.13V319.73h-2.95v-3h2.95v-4.37Z"/><path class="cls-11" d="M472.66,334.71a6.29,6.29,0,0,1-.47-1.68,6.26,6.26,0,0,1-4.71,2,6.35,6.35,0,0,1-4.42-1.54,5,5,0,0,1-1.71-3.82,5.1,5.1,0,0,1,2.14-4.41,10.35,10.35,0,0,1,6.1-1.53h2.47v-1.18a3.17,3.17,0,0,0-.78-2.24,3.12,3.12,0,0,0-2.37-.83,3.62,3.62,0,0,0-2.26.68,2.14,2.14,0,0,0-.88,1.76h-4a4.45,4.45,0,0,1,1-2.77,6.42,6.42,0,0,1,2.66-2,9.31,9.31,0,0,1,3.76-.74,7.53,7.53,0,0,1,5,1.59,5.68,5.68,0,0,1,1.93,4.46v8.1a9.14,9.14,0,0,0,.68,3.87v.28Zm-4.43-2.91a4.6,4.6,0,0,0,2.25-.58,3.89,3.89,0,0,0,1.58-1.56v-3.38h-2.17a5.93,5.93,0,0,0-3.37.78,2.5,2.5,0,0,0-1.13,2.2,2.36,2.36,0,0,0,.77,1.85A3,3,0,0,0,468.23,331.8Z"/><path class="cls-11" d="M480.33,312.08a2.14,2.14,0,0,1,.59-1.54,2.21,2.21,0,0,1,1.68-.62,2.27,2.27,0,0,1,1.7.62,2.14,2.14,0,0,1,.59,1.54,2.1,2.1,0,0,1-.59,1.52,2.31,2.31,0,0,1-1.7.61,2.24,2.24,0,0,1-1.68-.61A2.1,2.1,0,0,1,480.33,312.08Zm4.28,22.63h-4v-18h4Z"/><path class="cls-11" d="M493.29,334.71h-4v-25.5h4Z"/><path class="cls-11" d="M507.75,329.83a1.83,1.83,0,0,0-.89-1.65,9.65,9.65,0,0,0-2.94-1,15,15,0,0,1-3.44-1.1q-3-1.45-3-4.23a4.76,4.76,0,0,1,2-3.88,7.67,7.67,0,0,1,5-1.57,8.05,8.05,0,0,1,5.2,1.6,5,5,0,0,1,2,4.13h-4a2.46,2.46,0,0,0-.86-1.93,3.29,3.29,0,0,0-2.29-.77,3.57,3.57,0,0,0-2.17.61,1.94,1.94,0,0,0-.84,1.64,1.65,1.65,0,0,0,.78,1.45,10.93,10.93,0,0,0,3.16,1,14.84,14.84,0,0,1,3.73,1.24,5.23,5.23,0,0,1,2,1.73,4.43,4.43,0,0,1,.66,2.46,4.68,4.68,0,0,1-2,3.93,8.57,8.57,0,0,1-5.26,1.5,9.37,9.37,0,0,1-3.94-.8,6.43,6.43,0,0,1-2.68-2.19,5.13,5.13,0,0,1-1-3h3.92a2.88,2.88,0,0,0,1.08,2.2,4.21,4.21,0,0,0,2.64.77,4,4,0,0,0,2.42-.61A1.85,1.85,0,0,0,507.75,329.83Z"/><path class="cls-11" d="M275.83,414.6v9h-4.2V399.4h9.25a9.33,9.33,0,0,1,6.43,2.11,7.09,7.09,0,0,1,2.38,5.58,6.89,6.89,0,0,1-2.33,5.54,9.79,9.79,0,0,1-6.53,2Zm0-3.38h5.05a5,5,0,0,0,3.42-1.06,3.87,3.87,0,0,0,1.17-3,4.16,4.16,0,0,0-1.19-3.13,4.6,4.6,0,0,0-3.29-1.2h-5.16Z"/><path class="cls-11" d="M303.52,423.57a6.29,6.29,0,0,1-.47-1.68,6.26,6.26,0,0,1-4.71,2,6.35,6.35,0,0,1-4.42-1.54,4.94,4.94,0,0,1-1.71-3.82,5.12,5.12,0,0,1,2.14-4.41,10.35,10.35,0,0,1,6.1-1.53h2.47v-1.18a3.17,3.17,0,0,0-.78-2.24,3.12,3.12,0,0,0-2.37-.83,3.56,3.56,0,0,0-2.26.69,2.11,2.11,0,0,0-.88,1.75h-4a4.45,4.45,0,0,1,1-2.77,6.51,6.51,0,0,1,2.66-2,9.31,9.31,0,0,1,3.76-.73,7.52,7.52,0,0,1,5,1.58,5.68,5.68,0,0,1,1.93,4.46v8.1a9.14,9.14,0,0,0,.68,3.87v.28Zm-4.43-2.91a4.6,4.6,0,0,0,2.25-.58,3.77,3.77,0,0,0,1.58-1.56v-3.38h-2.17a5.93,5.93,0,0,0-3.37.78,2.5,2.5,0,0,0-1.13,2.2A2.38,2.38,0,0,0,297,420,3,3,0,0,0,299.09,420.66Z"/><path class="cls-11" d="M317.21,417.79l3.66-12.18h4.3L318,426.29q-1.65,4.53-5.58,4.53a7.17,7.17,0,0,1-1.94-.3v-3.13l.76.05a3.92,3.92,0,0,0,2.3-.56,3.71,3.71,0,0,0,1.22-1.86l.58-1.55-6.31-17.86h4.35Z"/><path class="cls-11" d="M331.27,405.61l.12,1.87a6.46,6.46,0,0,1,5.18-2.2c2.4,0,4.05.91,4.93,2.75a6.36,6.36,0,0,1,5.51-2.75,5.6,5.6,0,0,1,4.43,1.64,7.26,7.26,0,0,1,1.48,4.85v11.8h-4V411.88a3.54,3.54,0,0,0-.75-2.5,3.23,3.23,0,0,0-2.47-.8,3.37,3.37,0,0,0-2.25.74,3.85,3.85,0,0,0-1.22,1.93v12.32h-4V411.75c-.06-2.11-1.13-3.17-3.24-3.17a3.55,3.55,0,0,0-3.43,2v13h-4v-18Z"/><path class="cls-11" d="M365,423.9a8.32,8.32,0,0,1-6.21-2.41,8.77,8.77,0,0,1-2.39-6.44v-.49a10.79,10.79,0,0,1,1-4.81,7.88,7.88,0,0,1,2.92-3.3,7.73,7.73,0,0,1,4.18-1.17,7.07,7.07,0,0,1,5.67,2.34,9.9,9.9,0,0,1,2,6.62v1.63H360.44a5.41,5.41,0,0,0,1.49,3.52,4.47,4.47,0,0,0,3.28,1.29,5.47,5.47,0,0,0,4.51-2.24l2.18,2.07A7.21,7.21,0,0,1,369,423,9,9,0,0,1,365,423.9Zm-.48-15.39a3.42,3.42,0,0,0-2.68,1.16,6.08,6.08,0,0,0-1.3,3.24h7.68v-.3a4.79,4.79,0,0,0-1.08-3.06A3.37,3.37,0,0,0,364.49,408.51Z"/><path class="cls-11" d="M379.05,405.61l.12,2.07a6.45,6.45,0,0,1,5.23-2.4q5.61,0,5.71,6.42v11.87h-4V411.93a3.66,3.66,0,0,0-.74-2.53,3.08,3.08,0,0,0-2.41-.82,3.88,3.88,0,0,0-3.64,2.21v12.78h-4v-18Z"/><path class="cls-11" d="M399.27,401.24v4.37h3.17v3h-3.17v10a2.18,2.18,0,0,0,.41,1.49,1.89,1.89,0,0,0,1.45.45,6.29,6.29,0,0,0,1.41-.16v3.12a10.11,10.11,0,0,1-2.66.38c-3.1,0-4.64-1.71-4.64-5.13V408.6h-3v-3h3v-4.37Z"/><path class="cls-11" d="M414.38,423.57V399.4h7.13a11.13,11.13,0,0,1,5.69,1.43,9.75,9.75,0,0,1,3.84,4.05,12.83,12.83,0,0,1,1.36,6v1.21a12.72,12.72,0,0,1-1.37,6,9.57,9.57,0,0,1-3.9,4,11.69,11.69,0,0,1-5.8,1.41Zm4.2-20.78v17.43h2.73a6.31,6.31,0,0,0,5.08-2.07,9.11,9.11,0,0,0,1.8-5.94v-1.34a9.24,9.24,0,0,0-1.71-6,6.08,6.08,0,0,0-5-2.07Z"/><path class="cls-11" d="M444.11,423.9a8.35,8.35,0,0,1-6.22-2.41,8.77,8.77,0,0,1-2.38-6.44v-.49a10.66,10.66,0,0,1,1-4.81,7.93,7.93,0,0,1,2.91-3.3,7.73,7.73,0,0,1,4.18-1.17,7,7,0,0,1,5.67,2.34,9.9,9.9,0,0,1,2,6.62v1.63H439.57a5.46,5.46,0,0,0,1.49,3.52,4.47,4.47,0,0,0,3.28,1.29,5.46,5.46,0,0,0,4.51-2.24l2.18,2.07a7.21,7.21,0,0,1-2.88,2.5A8.91,8.91,0,0,1,444.11,423.9Zm-.48-15.39a3.44,3.44,0,0,0-2.69,1.16,6.08,6.08,0,0,0-1.3,3.24h7.69v-.3a4.9,4.9,0,0,0-1.08-3.06A3.38,3.38,0,0,0,443.63,408.51Z"/><path class="cls-11" d="M459.5,401.24v4.37h3.17v3H459.5v10a2.23,2.23,0,0,0,.4,1.49,1.91,1.91,0,0,0,1.45.45,6.31,6.31,0,0,0,1.42-.16v3.12a10.17,10.17,0,0,1-2.66.38q-4.65,0-4.65-5.13V408.6h-2.95v-3h2.95v-4.37Z"/><path class="cls-11" d="M476.48,423.57a6.29,6.29,0,0,1-.47-1.68,6.26,6.26,0,0,1-4.71,2,6.33,6.33,0,0,1-4.42-1.54,4.94,4.94,0,0,1-1.71-3.82,5.09,5.09,0,0,1,2.14-4.41,10.35,10.35,0,0,1,6.1-1.53h2.47v-1.18a3.17,3.17,0,0,0-.78-2.24,3.12,3.12,0,0,0-2.37-.83,3.54,3.54,0,0,0-2.26.69,2.11,2.11,0,0,0-.88,1.75h-4a4.51,4.51,0,0,1,1-2.77,6.54,6.54,0,0,1,2.67-2,9.27,9.27,0,0,1,3.76-.73,7.52,7.52,0,0,1,5,1.58,5.64,5.64,0,0,1,1.92,4.46v8.1a9.29,9.29,0,0,0,.68,3.87v.28Zm-4.43-2.91a4.54,4.54,0,0,0,2.24-.58,3.74,3.74,0,0,0,1.59-1.56v-3.38h-2.17a5.93,5.93,0,0,0-3.37.78,2.5,2.5,0,0,0-1.13,2.2A2.35,2.35,0,0,0,470,420,3,3,0,0,0,472.05,420.66Z"/><path class="cls-11" d="M484.15,400.94a2.1,2.1,0,0,1,.59-1.54,2.21,2.21,0,0,1,1.68-.62,2.23,2.23,0,0,1,1.69.62,2.11,2.11,0,0,1,.6,1.54,2.07,2.07,0,0,1-.6,1.52,2.23,2.23,0,0,1-1.69.61,2.21,2.21,0,0,1-1.68-.61A2.06,2.06,0,0,1,484.15,400.94Zm4.28,22.63h-4v-18h4Z"/><path class="cls-11" d="M497.11,423.57h-4v-25.5h4Z"/><path class="cls-11" d="M511.57,418.69a1.82,1.82,0,0,0-.89-1.64,9.34,9.34,0,0,0-2.94-1,14.82,14.82,0,0,1-3.44-1.1q-3-1.45-3-4.23a4.76,4.76,0,0,1,2-3.88,7.72,7.72,0,0,1,5-1.56,8.07,8.07,0,0,1,5.2,1.59,5.06,5.06,0,0,1,2,4.13h-4a2.49,2.49,0,0,0-.86-1.93,3.29,3.29,0,0,0-2.29-.77,3.57,3.57,0,0,0-2.17.61,1.94,1.94,0,0,0-.84,1.64A1.64,1.64,0,0,0,506,412a10.82,10.82,0,0,0,3.16,1,14.61,14.61,0,0,1,3.72,1.24,5.13,5.13,0,0,1,2,1.74,4.37,4.37,0,0,1,.66,2.45,4.68,4.68,0,0,1-2,3.93,8.57,8.57,0,0,1-5.26,1.5,9.19,9.19,0,0,1-3.94-.8,6.52,6.52,0,0,1-2.69-2.19,5.19,5.19,0,0,1-1-3h3.92a2.82,2.82,0,0,0,1.08,2.2,4.21,4.21,0,0,0,2.64.77,4,4,0,0,0,2.42-.61A1.87,1.87,0,0,0,511.57,418.69Z"/><path class="cls-11" d="M275.83,518.09v9h-4.2V502.88h9.25a9.38,9.38,0,0,1,6.43,2.11,7.1,7.1,0,0,1,2.38,5.59,6.87,6.87,0,0,1-2.33,5.53,9.8,9.8,0,0,1-6.53,2Zm0-3.39h5.05a5,5,0,0,0,3.42-1.05,3.91,3.91,0,0,0,1.17-3,4.16,4.16,0,0,0-1.19-3.13,4.6,4.6,0,0,0-3.29-1.2h-5.16Z"/><path class="cls-11" d="M303.52,527.05a6.31,6.31,0,0,1-.47-1.67,6.8,6.8,0,0,1-9.13.46,4.94,4.94,0,0,1-1.71-3.82,5.13,5.13,0,0,1,2.14-4.41,10.35,10.35,0,0,1,6.1-1.53h2.47V514.9a3.14,3.14,0,0,0-.78-2.23,3.08,3.08,0,0,0-2.37-.84,3.56,3.56,0,0,0-2.26.69,2.12,2.12,0,0,0-.88,1.75h-4a4.4,4.4,0,0,1,1-2.76,6.52,6.52,0,0,1,2.66-2,9.31,9.31,0,0,1,3.76-.73,7.58,7.58,0,0,1,5,1.58A5.7,5.7,0,0,1,307,514.8v8.1a9.07,9.07,0,0,0,.68,3.87v.28Zm-4.43-2.9a4.71,4.71,0,0,0,2.25-.58,3.89,3.89,0,0,0,1.58-1.56v-3.39h-2.17a5.93,5.93,0,0,0-3.37.78,2.52,2.52,0,0,0-1.13,2.21,2.38,2.38,0,0,0,.77,1.85A3,3,0,0,0,299.09,524.15Z"/><path class="cls-11" d="M317.21,521.27l3.66-12.18h4.3L318,529.77q-1.65,4.54-5.58,4.54a7.17,7.17,0,0,1-1.94-.3v-3.14l.76,0a3.92,3.92,0,0,0,2.3-.56,3.71,3.71,0,0,0,1.22-1.86l.58-1.54-6.31-17.87h4.35Z"/><path class="cls-11" d="M335.18,527.38A8.35,8.35,0,0,1,329,525a8.76,8.76,0,0,1-2.38-6.43V518a10.79,10.79,0,0,1,1-4.81,7.93,7.93,0,0,1,2.92-3.29,7.65,7.65,0,0,1,4.18-1.18,7,7,0,0,1,5.67,2.34,9.92,9.92,0,0,1,2,6.62v1.63H330.64a5.43,5.43,0,0,0,1.49,3.52,4.47,4.47,0,0,0,3.28,1.29,5.43,5.43,0,0,0,4.51-2.24L342.1,524a7.37,7.37,0,0,1-2.88,2.5A9,9,0,0,1,335.18,527.38ZM334.69,512a3.38,3.38,0,0,0-2.68,1.16,6,6,0,0,0-1.3,3.23h7.69v-.29a4.94,4.94,0,0,0-1.08-3.07A3.38,3.38,0,0,0,334.69,512Z"/><path class="cls-11" d="M354.91,512.78a9.81,9.81,0,0,0-1.64-.14,3.71,3.71,0,0,0-3.74,2.13v12.28h-4v-18h3.85l.1,2a4.56,4.56,0,0,1,4.05-2.34,3.89,3.89,0,0,1,1.43.23Z"/><path class="cls-11" d="M366.32,527.05V502.88h7.14a11.2,11.2,0,0,1,5.68,1.43,9.63,9.63,0,0,1,3.84,4.05,12.83,12.83,0,0,1,1.37,6v1.21a12.81,12.81,0,0,1-1.37,6,9.69,9.69,0,0,1-3.9,4,11.76,11.76,0,0,1-5.81,1.41Zm4.2-20.78V523.7h2.74a6.3,6.3,0,0,0,5.07-2.07,9,9,0,0,0,1.8-5.93v-1.35a9.26,9.26,0,0,0-1.71-6,6.06,6.06,0,0,0-5-2.07Z"/><path class="cls-11" d="M396.05,527.38a8.35,8.35,0,0,1-6.22-2.41,8.76,8.76,0,0,1-2.38-6.43V518a10.79,10.79,0,0,1,1-4.81,7.84,7.84,0,0,1,2.91-3.29,7.67,7.67,0,0,1,4.18-1.18,7,7,0,0,1,5.67,2.34,9.86,9.86,0,0,1,2,6.62v1.63H391.52a5.38,5.38,0,0,0,1.48,3.52,4.47,4.47,0,0,0,3.28,1.29,5.46,5.46,0,0,0,4.52-2.24L403,524a7.37,7.37,0,0,1-2.88,2.5A9,9,0,0,1,396.05,527.38ZM395.57,512a3.37,3.37,0,0,0-2.68,1.16,6,6,0,0,0-1.31,3.23h7.69v-.29a4.94,4.94,0,0,0-1.08-3.07A3.36,3.36,0,0,0,395.57,512Z"/><path class="cls-11" d="M411.44,504.72v4.37h3.17v3h-3.17v10a2.21,2.21,0,0,0,.4,1.49,1.93,1.93,0,0,0,1.46.46,6.31,6.31,0,0,0,1.41-.17V527a9.76,9.76,0,0,1-2.66.38q-4.65,0-4.65-5.13V512.08h-2.95v-3h2.95v-4.37Z"/><path class="cls-11" d="M428.42,527.05a6.31,6.31,0,0,1-.47-1.67,6.8,6.8,0,0,1-9.13.46,4.94,4.94,0,0,1-1.71-3.82,5.13,5.13,0,0,1,2.14-4.41,10.35,10.35,0,0,1,6.1-1.53h2.47V514.9a3.14,3.14,0,0,0-.78-2.23,3.08,3.08,0,0,0-2.37-.84,3.56,3.56,0,0,0-2.26.69,2.12,2.12,0,0,0-.88,1.75h-4a4.4,4.4,0,0,1,1-2.76,6.52,6.52,0,0,1,2.66-2,9.31,9.31,0,0,1,3.76-.73,7.58,7.58,0,0,1,5,1.58,5.7,5.7,0,0,1,1.93,4.46v8.1a9.07,9.07,0,0,0,.68,3.87v.28Zm-4.43-2.9a4.71,4.71,0,0,0,2.25-.58,3.89,3.89,0,0,0,1.58-1.56v-3.39h-2.17a5.93,5.93,0,0,0-3.37.78,2.52,2.52,0,0,0-1.13,2.21,2.38,2.38,0,0,0,.77,1.85A3,3,0,0,0,424,524.15Z"/><path class="cls-11" d="M436.09,504.43a2.17,2.17,0,0,1,.59-1.55,2.21,2.21,0,0,1,1.68-.61,2.27,2.27,0,0,1,1.7.61,2.17,2.17,0,0,1,.59,1.55,2.09,2.09,0,0,1-.59,1.51,2.27,2.27,0,0,1-1.7.61,2.21,2.21,0,0,1-1.68-.61A2.09,2.09,0,0,1,436.09,504.43Zm4.28,22.62h-4v-18h4Z"/><path class="cls-11" d="M449.05,527.05h-4v-25.5h4Z"/><path class="cls-11" d="M463.51,522.17a1.8,1.8,0,0,0-.89-1.64,9.34,9.34,0,0,0-2.94-1,15.52,15.52,0,0,1-3.44-1.09q-3-1.47-3-4.24a4.76,4.76,0,0,1,2-3.88,7.76,7.76,0,0,1,5-1.56,8,8,0,0,1,5.2,1.59,5,5,0,0,1,2,4.14h-4a2.48,2.48,0,0,0-.86-1.94,3.34,3.34,0,0,0-2.29-.77,3.57,3.57,0,0,0-2.17.61,1.94,1.94,0,0,0-.84,1.65,1.62,1.62,0,0,0,.78,1.44,10.93,10.93,0,0,0,3.16,1,15.25,15.25,0,0,1,3.73,1.24,5.25,5.25,0,0,1,2,1.74,4.38,4.38,0,0,1,.66,2.46,4.67,4.67,0,0,1-2,3.92,8.57,8.57,0,0,1-5.26,1.5,9.37,9.37,0,0,1-3.94-.79,6.43,6.43,0,0,1-2.68-2.19,5.16,5.16,0,0,1-1-3h3.92a2.87,2.87,0,0,0,1.08,2.2,4.15,4.15,0,0,0,2.64.77,4.1,4.1,0,0,0,2.42-.6A1.88,1.88,0,0,0,463.51,522.17Z"/><path class="cls-11" d="M275.83,633.5v9h-4.2V618.29h9.25a9.34,9.34,0,0,1,6.43,2.12,7.06,7.06,0,0,1,2.38,5.58,6.87,6.87,0,0,1-2.33,5.53,9.8,9.8,0,0,1-6.53,2Zm0-3.39h5.05a5,5,0,0,0,3.42-1.05,3.89,3.89,0,0,0,1.17-3,4.19,4.19,0,0,0-1.19-3.13,4.6,4.6,0,0,0-3.29-1.2h-5.16Z"/><path class="cls-11" d="M303.52,642.46a6.31,6.31,0,0,1-.47-1.67,6.26,6.26,0,0,1-4.71,2,6.35,6.35,0,0,1-4.42-1.55,4.93,4.93,0,0,1-1.71-3.81,5.1,5.1,0,0,1,2.14-4.41,10.27,10.27,0,0,1,6.1-1.54h2.47v-1.18a3.14,3.14,0,0,0-.78-2.23,3.08,3.08,0,0,0-2.37-.84,3.56,3.56,0,0,0-2.26.69,2.12,2.12,0,0,0-.88,1.75h-4a4.44,4.44,0,0,1,1-2.76,6.52,6.52,0,0,1,2.66-2,9.31,9.31,0,0,1,3.76-.73,7.53,7.53,0,0,1,5,1.59,5.66,5.66,0,0,1,1.93,4.45v8.1a9.07,9.07,0,0,0,.68,3.87v.28Zm-4.43-2.9a4.6,4.6,0,0,0,2.25-.58,3.89,3.89,0,0,0,1.58-1.56V634h-2.17a5.93,5.93,0,0,0-3.37.78,2.52,2.52,0,0,0-1.13,2.21,2.38,2.38,0,0,0,.77,1.85A3,3,0,0,0,299.09,639.56Z"/><path class="cls-11" d="M317.21,636.69l3.66-12.19h4.3L318,645.19q-1.65,4.53-5.58,4.53a7.17,7.17,0,0,1-1.94-.3v-3.14l.76.05a3.92,3.92,0,0,0,2.3-.55,3.75,3.75,0,0,0,1.22-1.87l.58-1.54-6.31-17.87h4.35Z"/><path class="cls-11" d="M335.18,642.8a8.35,8.35,0,0,1-6.22-2.42,8.74,8.74,0,0,1-2.38-6.43v-.5a10.78,10.78,0,0,1,1-4.8,8,8,0,0,1,2.92-3.3,7.65,7.65,0,0,1,4.18-1.18,7,7,0,0,1,5.67,2.34,9.93,9.93,0,0,1,2,6.63v1.62H330.64a5.41,5.41,0,0,0,1.49,3.52,4.48,4.48,0,0,0,3.28,1.3,5.46,5.46,0,0,0,4.51-2.24l2.18,2.07a7.29,7.29,0,0,1-2.88,2.5A9,9,0,0,1,335.18,642.8Zm-.49-15.39a3.42,3.42,0,0,0-2.68,1.16,6,6,0,0,0-1.3,3.24h7.69v-.3a4.9,4.9,0,0,0-1.08-3.06A3.36,3.36,0,0,0,334.69,627.41Z"/><path class="cls-11" d="M353.42,642.8a8.35,8.35,0,0,1-6.22-2.42,8.74,8.74,0,0,1-2.38-6.43v-.5a10.78,10.78,0,0,1,1-4.8,7.87,7.87,0,0,1,2.91-3.3,7.67,7.67,0,0,1,4.18-1.18,7,7,0,0,1,5.67,2.34c1.34,1.56,2,3.77,2,6.63v1.62H348.89a5.35,5.35,0,0,0,1.48,3.52,4.48,4.48,0,0,0,3.28,1.3,5.48,5.48,0,0,0,4.52-2.24l2.17,2.07a7.29,7.29,0,0,1-2.88,2.5A9,9,0,0,1,353.42,642.8Zm-.48-15.39a3.4,3.4,0,0,0-2.68,1.16,6.05,6.05,0,0,0-1.31,3.24h7.69v-.3a4.9,4.9,0,0,0-1.08-3.06A3.33,3.33,0,0,0,352.94,627.41Z"/><path class="cls-11" d="M372.61,642.46V618.29h7.14a11.2,11.2,0,0,1,5.68,1.43,9.71,9.71,0,0,1,3.85,4,13,13,0,0,1,1.36,6V631a12.88,12.88,0,0,1-1.37,6,9.73,9.73,0,0,1-3.9,4,11.73,11.73,0,0,1-5.81,1.41Zm4.2-20.78v17.43h2.74a6.3,6.3,0,0,0,5.07-2.07,9,9,0,0,0,1.8-5.93v-1.34a9.22,9.22,0,0,0-1.71-6,6,6,0,0,0-5-2.08Z"/><path class="cls-11" d="M402.34,642.8a8.35,8.35,0,0,1-6.22-2.42,8.78,8.78,0,0,1-2.38-6.43v-.5a10.78,10.78,0,0,1,1-4.8,7.87,7.87,0,0,1,2.91-3.3,7.68,7.68,0,0,1,4.19-1.18,7,7,0,0,1,5.66,2.34c1.34,1.56,2,3.77,2,6.63v1.62H397.81a5.4,5.4,0,0,0,1.48,3.52,4.49,4.49,0,0,0,3.28,1.3,5.48,5.48,0,0,0,4.52-2.24l2.17,2.07a7.29,7.29,0,0,1-2.88,2.5A9,9,0,0,1,402.34,642.8Zm-.48-15.39a3.4,3.4,0,0,0-2.68,1.16,6.05,6.05,0,0,0-1.31,3.24h7.69v-.3a4.9,4.9,0,0,0-1.08-3.06A3.33,3.33,0,0,0,401.86,627.41Z"/><path class="cls-11" d="M417.73,620.14v4.36h3.17v3h-3.17v10a2.15,2.15,0,0,0,.41,1.48,1.85,1.85,0,0,0,1.45.46,6.31,6.31,0,0,0,1.41-.17v3.13a10.11,10.11,0,0,1-2.66.38c-3.1,0-4.64-1.71-4.64-5.13V627.49h-3v-3h3v-4.36Z"/><path class="cls-11" d="M434.71,642.46a6,6,0,0,1-.46-1.67,6.77,6.77,0,0,1-9.13.46,4.93,4.93,0,0,1-1.71-3.81,5.1,5.1,0,0,1,2.13-4.41,10.27,10.27,0,0,1,6.1-1.54h2.47v-1.18a3.14,3.14,0,0,0-.78-2.23,3.08,3.08,0,0,0-2.37-.84,3.56,3.56,0,0,0-2.26.69,2.15,2.15,0,0,0-.88,1.75h-4a4.44,4.44,0,0,1,1-2.76,6.52,6.52,0,0,1,2.66-2,9.34,9.34,0,0,1,3.76-.73,7.53,7.53,0,0,1,5,1.59,5.66,5.66,0,0,1,1.93,4.45v8.1a9.07,9.07,0,0,0,.68,3.87v.28Zm-4.43-2.9a4.55,4.55,0,0,0,2.25-.58,3.89,3.89,0,0,0,1.58-1.56V634h-2.17a5.93,5.93,0,0,0-3.37.78,2.54,2.54,0,0,0-1.13,2.21,2.38,2.38,0,0,0,.77,1.85A3,3,0,0,0,430.28,639.56Z"/><path class="cls-11" d="M442.38,619.84a2.17,2.17,0,0,1,.59-1.55,2.24,2.24,0,0,1,1.68-.61,2.29,2.29,0,0,1,1.7.61,2.13,2.13,0,0,1,.6,1.55,2.08,2.08,0,0,1-.6,1.52,2.29,2.29,0,0,1-1.7.6,2.24,2.24,0,0,1-1.68-.6A2.11,2.11,0,0,1,442.38,619.84Zm4.28,22.62h-4v-18h4Z"/><path class="cls-11" d="M455.35,642.46h-4V617h4Z"/><path class="cls-11" d="M469.8,637.58a1.84,1.84,0,0,0-.88-1.64,9.52,9.52,0,0,0-2.95-1,15,15,0,0,1-3.44-1.09c-2-1-3-2.39-3-4.23a4.78,4.78,0,0,1,2-3.89,7.76,7.76,0,0,1,5-1.56,8,8,0,0,1,5.2,1.6,5,5,0,0,1,2,4.13h-4a2.48,2.48,0,0,0-.86-1.94,3.32,3.32,0,0,0-2.29-.77,3.6,3.6,0,0,0-2.17.62,1.94,1.94,0,0,0-.83,1.64,1.62,1.62,0,0,0,.78,1.44,10.53,10.53,0,0,0,3.15,1,15.07,15.07,0,0,1,3.73,1.25,5.34,5.34,0,0,1,2,1.73,4.51,4.51,0,0,1,.65,2.46,4.67,4.67,0,0,1-2,3.92,8.51,8.51,0,0,1-5.26,1.51,9.29,9.29,0,0,1-3.93-.8,6.46,6.46,0,0,1-2.69-2.19,5.21,5.21,0,0,1-1-3h3.92a2.85,2.85,0,0,0,1.08,2.2,4.15,4.15,0,0,0,2.64.78,4.09,4.09,0,0,0,2.42-.61A1.85,1.85,0,0,0,469.8,637.58Z"/><line class="cls-10" x1="614.96" y1="325.73" x2="525.89" y2="325.73"/><circle class="cls-11" cx="614.96" cy="325.73" r="3.76"/><line class="cls-10" x1="614.96" y1="414.59" x2="529.7" y2="414.59"/><circle class="cls-11" cx="614.96" cy="414.59" r="3.76"/><line class="cls-10" x1="614.96" y1="518.07" x2="481.65" y2="518.07"/><circle class="cls-11" cx="614.96" cy="518.07" r="3.76"/><line class="cls-10" x1="614.96" y1="633.48" x2="487.8" y2="633.48"/><circle class="cls-11" cx="614.96" cy="633.48" r="3.76"/></g></g></svg>