<svg xmlns="http://www.w3.org/2000/svg" viewBox="0 0 1200 937"><defs><style>.cls-1{isolation:isolate;}.cls-2,.cls-3{fill:#9dc7e0;}.cls-2{opacity:0.15;}.cls-3{opacity:0.25;mix-blend-mode:multiply;}.cls-4,.cls-7{fill:#fff;}.cls-4,.cls-5,.cls-6{stroke:#0c1733;stroke-linecap:round;stroke-linejoin:round;stroke-width:2px;}.cls-5{fill:#cfdde5;}.cls-6,.cls-8{fill:#f9ef35;}.cls-9{fill:#a3bdcc;}</style></defs><title>01_Vector</title><g class="cls-1"><g id="Layer_1" data-name="Layer 1"><path class="cls-2" d="M955.63,733.22c-9,10.2-21.73,18.55-37.3,25.11a191.3,191.3,0,0,1-28,9.16c-61.51,15.29-150.48,11-239.92-10.79a712.79,712.79,0,0,1-122-41.53c-42.1-18.88-81.18-41.95-113.86-68.94C373,612,341.91,571.46,328,525.1c0-.08-.05-.15-.07-.23-43-144,145.62-376.56,355.31-379.33,57.73-.76,109.9,37.12,153.65,94.16,39.12,51,71.51,117.31,95.15,185C978,556.47,990.88,693.51,955.63,733.22Z"/><path class="cls-3" d="M932.93,525.78,918.33,666v92.34a191.3,191.3,0,0,1-28,9.16H865.75l-10.59-37.24H777.39l29.94-63.53-3.82-23.43-62.09,22.52v14.6l-76.67,43.82L650.37,756.7a712.79,712.79,0,0,1-122-41.53l-46.14-79.3h-62.8l-4.92,10.36C373,612,341.91,571.46,328,525.1c0-.08-.05-.15-.07-.23h74.67V293H535.49V390.5l94.2,40.89V239.7H836.87c39.12,51,71.51,117.31,95.15,185v50.87H793.27v52.94l22.2,39.39,25.45-42.13Z"/><rect class="cls-4" x="606.84" y="205.44" width="302.33" height="235.87"/><polygon class="cls-5" points="379.74 490.6 379.74 258.75 512.64 258.75 512.64 356.24 606.85 397.13 720.03 397.13 770.42 413.93 770.42 494.25 793.06 534.42 793.06 604.52 718.57 631.54 718.57 646.15 641.9 689.96 622.18 734.51 637.51 791.47 552.81 762.26 459.33 601.6 396.53 601.6 376.08 644.69 312.55 603.79 312.55 565.09 224.19 490.6 379.74 490.6"/><polygon class="cls-6" points="842.9 733.23 895.48 733.23 895.48 631.72 910.08 491.51 818.07 491.51 773.52 565.27 784.48 632.45 754.54 695.99 832.31 695.99 842.9 733.23"/><path class="cls-7" d="M449.55,393h-11.8v32.54h-6.52V393h-11.7v-5.31h30Z"/><path class="cls-7" d="M467.54,401.36l7.95-13.68h7.59l-11.43,18.77,11.69,19.08h-7.67l-8.13-13.88-8.16,13.88h-7.64l11.72-19.08L452,387.68h7.59Z"/><path class="cls-8" d="M669.73,268.31l5.82-28.49h6.53l-8.74,37.85h-6.29L659.85,250l-7.35,27.63h-6.32l-8.73-37.85H644l5.88,28.44,7.22-28.44h5.51Z"/><path class="cls-8" d="M699.23,257.76l8.71-17.94h7.28l-12.69,23.92v13.93h-6.6V263.74l-12.71-23.92h7.3Z"/><path class="cls-9" d="M815.61,547.65l10.91,29,10.89-29h8.5v37.84h-6.55V573l.65-16.69-11.18,29.16h-4.7L813,556.36l.65,16.66v12.47h-6.55V547.65Z"/><path class="cls-9" d="M873.46,575.75a4.56,4.56,0,0,0-1.75-3.85,21.18,21.18,0,0,0-6.33-2.73,30.45,30.45,0,0,1-7.28-3.07q-5.18-3.24-5.17-8.47a9.22,9.22,0,0,1,3.73-7.54,15.12,15.12,0,0,1,9.68-3,16.25,16.25,0,0,1,7,1.46,11.59,11.59,0,0,1,4.86,4.14,10.68,10.68,0,0,1,1.76,6h-6.55a5.91,5.91,0,0,0-1.86-4.64,7.64,7.64,0,0,0-5.31-1.68,8,8,0,0,0-5,1.38,4.58,4.58,0,0,0-1.78,3.84,4.14,4.14,0,0,0,1.92,3.47,22.22,22.22,0,0,0,6.34,2.71,28.94,28.94,0,0,1,7.1,3,11.27,11.27,0,0,1,3.92,3.84,10,10,0,0,1,1.25,5.08,9,9,0,0,1-3.63,7.53Q872.8,586,866.58,586a18.43,18.43,0,0,1-7.56-1.52,12.68,12.68,0,0,1-5.35-4.19,10.51,10.51,0,0,1-1.91-6.24h6.58a6.12,6.12,0,0,0,2.13,5,9.31,9.31,0,0,0,6.11,1.77,8.07,8.07,0,0,0,5.15-1.4A4.45,4.45,0,0,0,873.46,575.75Z"/></g></g></svg>