<svg id="Layer_1" data-name="Layer 1" xmlns="http://www.w3.org/2000/svg" viewBox="0 0 1677.25 1000.36"><defs><style>.cls-1,.cls-2{fill:#9dc7e0;}.cls-1{opacity:0.15;}.cls-2{stroke:#9dc7e0;stroke-width:9px;opacity:0.25;}.cls-10,.cls-11,.cls-12,.cls-13,.cls-14,.cls-15,.cls-16,.cls-2,.cls-6,.cls-7,.cls-8,.cls-9{stroke-linecap:round;stroke-linejoin:round;}.cls-3,.cls-9{fill:#edf4f8;}.cls-10,.cls-4{fill:#fff;}.cls-5,.cls-7{fill:#cfdde5;}.cls-6{fill:#a3bdcc;}.cls-10,.cls-11,.cls-12,.cls-14,.cls-15,.cls-16,.cls-6,.cls-7,.cls-8,.cls-9{stroke:#0c1733;}.cls-10,.cls-11,.cls-12,.cls-16,.cls-6,.cls-7,.cls-8,.cls-9{stroke-width:2px;}.cls-12,.cls-13,.cls-14,.cls-15,.cls-8{fill:none;}.cls-11{fill:#f9ef35;}.cls-12{stroke-dasharray:0 10.61;}.cls-13{stroke:#fff;stroke-width:10px;}.cls-14,.cls-15{stroke-width:5px;}.cls-15{stroke-dasharray:0 20.33;}.cls-16{fill:#88adc2;}</style></defs><title>FAQ</title><path class="cls-1" d="M177.46,860.37c82.67,86.69,279.53,28,411.25,127.56,102.84,77.71,450,138,662.54,100.11,111.9-20,195.67-89.21,300.15-113.11C1659,950.32,1826.1,954.37,1838,859.64c15-119.94-238.92-123.83-313-172-92.66-79.74-216.38-112.12-344.66-110.07-301-9-593.84,66.47-878.59,139.76C229.46,733.56,120,800.11,177.46,860.37Z" transform="translate(-161.37 -99.32)"/><polygon class="cls-2" points="494.72 873.11 698.58 811.11 959.27 891.64 755.41 953.64 494.72 873.11"/><polygon class="cls-2" points="1014.54 834.77 1215.43 773.68 1431.86 839.57 1230.96 900.67 1014.54 834.77"/><polygon class="cls-2" points="1482.27 720.03 1536.08 703.36 1607.37 725.39 1553.57 742.06 1482.27 720.03"/><polygon class="cls-3" points="430.51 696.46 430.51 753.09 30.04 631.95 30.04 574.96 430.51 696.46"/><polygon class="cls-4" points="701.54 615.1 430.51 696.46 30.04 574.96 301.07 493.12 301.07 493.12 701.54 615.1"/><polygon class="cls-3" points="701.54 558.47 701.54 615.1 301.07 493.12 301.07 436.98 701.54 558.47"/><polygon class="cls-4" points="972.57 477.12 701.54 558.47 301.07 436.98 572.11 355.14 572.11 355.83 620.84 370.82 972.57 477.12"/><polygon class="cls-4" points="1337.31 366.53 1066.27 447.89 572.11 299.2 842.33 217.24 892.39 232.68 1337.31 366.53"/><polygon class="cls-5" points="972.58 477.12 972.57 590.38 430.51 753.09 430.51 696.46 701.54 615.1 701.54 558.47 972.58 477.12"/><polygon class="cls-5" points="1337.31 366.53 1337.31 536.57 1066.26 617.93 1066.27 504.67 1066.27 447.89 1337.31 366.53"/><polygon class="cls-3" points="572.11 299.2 572.11 355.83 620.84 370.82 972.57 477.12 972.58 477.12 972.57 590.38 1066.26 617.93 1066.27 447.89 572.11 299.2"/><path class="cls-6" d="M1706.2,615.46c0,.34-.07.68-.12,1l-40.47,13.11c1.18-11.26,4.85-19,10.71-22.54,4.08-2.4,9.2-2.78,15.27-.86A32.27,32.27,0,0,1,1706.2,615.46Z" transform="translate(-161.37 -99.32)"/><polygon class="cls-6" points="1589.03 651.82 1589.03 709.6 1548.58 722.71 1548.58 664.94 1549.33 664.69 1589.03 651.82"/><polygon class="cls-7" points="1589.03 651.82 1549.33 664.69 1548.58 664.94 1508.86 652.39 1540.16 642.24 1548.58 644.91 1549.33 644.67 1557.73 641.95 1557.75 641.95 1589.03 651.82"/><path class="cls-7" d="M1670.23,751.71v57.77L1710,822V764.25Z" transform="translate(-161.37 -99.32)"/><path class="cls-6" d="M1795,639.1c0,23.46-3.35,39.61-26,56.24-13.77,10-18.64,17.71-18.64,32.25v3.51l-31.27,10.17h0l-8.4,2.71-.75.25v-3.51c0-.65,0-1.29,0-1.9.23-7.65,2-13.36,5.89-18.64,2.94-3.94,7.09-7.63,12.7-11.73,22.61-16.62,26-32.77,26-56.24a85.88,85.88,0,0,0-.86-11.93,99.58,99.58,0,0,0-18.87-46.23,82.82,82.82,0,0,0-41.56-29.17,85.29,85.29,0,0,0-11.53-2.83c-9-1.49-16.51-1-22.85,1l39.21-12.73.9-.29c8.93-2.88,20.3-2.83,34.74,1.74C1779.41,566.2,1795,610.72,1795,639.1Z" transform="translate(-161.37 -99.32)"/><path class="cls-7" d="M1754.55,652.21c0,23.47-3.35,39.62-26,56.24-5.61,4.1-9.76,7.79-12.7,11.73-3.92,5.28-5.66,11-5.89,18.64,0,.61,0,1.25,0,1.9v3.51l-8.42-2.67-31.3-9.9v-7c0-23.12,5.62-37.71,27.68-54.81,12.81-9.69,17.34-15.38,17.37-28.38,0-9.08-2.61-18.75-9.08-26a32.27,32.27,0,0,0-14.61-9.27c-6.07-1.92-11.19-1.54-15.27.86-5.86,3.51-9.53,11.28-10.71,22.54l-38-12c1.11-19.75,7.84-47,31-54.45l.31-.09c6.34-2,13.89-2.49,22.85-1a85.29,85.29,0,0,1,11.53,2.83,82.82,82.82,0,0,1,41.56,29.17,99.58,99.58,0,0,1,18.87,46.23A85.88,85.88,0,0,1,1754.55,652.21Z" transform="translate(-161.37 -99.32)"/><polygon class="cls-2" points="692.02 273.34 592.78 305.42 592.78 362.19 331.29 446.61 331.29 502.32 269.41 523.09 269.41 539.42 355.91 509.82 356.95 454.18 618.67 370.15 618.68 313.21 721.76 282.2 692.02 273.34"/><polygon class="cls-8" points="430.51 696.46 430.51 753.09 30.04 631.95 30.04 574.96 430.51 696.46"/><polygon class="cls-8" points="701.54 615.1 430.51 696.46 30.04 574.96 301.07 493.12 301.07 493.12 701.54 615.1"/><polygon class="cls-8" points="701.54 558.47 701.54 615.1 301.07 493.12 301.07 436.98 701.54 558.47"/><polygon class="cls-8" points="972.57 477.12 701.54 558.47 301.07 436.98 572.11 355.14 572.11 355.83 620.84 370.82 972.57 477.12"/><polygon class="cls-8" points="1337.31 366.53 1066.27 447.89 572.11 299.2 842.33 217.24 892.39 232.68 1337.31 366.53"/><polygon class="cls-8" points="972.58 477.12 972.57 590.38 430.51 753.09 430.51 696.46 701.54 615.1 701.54 558.47 972.58 477.12"/><polygon class="cls-8" points="1337.31 366.53 1337.31 536.57 1066.26 617.93 1066.27 504.67 1066.27 447.89 1337.31 366.53"/><polygon class="cls-8" points="572.11 299.2 572.11 355.83 620.84 370.82 972.57 477.12 972.58 477.12 972.57 590.38 1066.26 617.93 1066.27 447.89 572.11 299.2"/><polygon class="cls-7" points="1216.72 586.44 1230.93 713.17 1013.16 805.45 1013.16 647.66 1216.72 586.44"/><polygon class="cls-9" points="1216.72 586.44 1230.93 713.17 1434.49 809.74 1434.49 651.95 1216.72 586.44"/><polygon class="cls-10" points="1385.07 713.76 1385.07 341.08 1172.37 275.21 1172.37 647.89 1385.07 713.76"/><ellipse class="cls-10" cx="1440.09" cy="415.02" rx="24.59" ry="33.08" transform="translate(-146.39 779.55) rotate(-34.11)"/><ellipse class="cls-11" cx="1440.09" cy="415.02" rx="14.97" ry="20.13" transform="translate(-146.39 779.55) rotate(-34.11)"/><polygon class="cls-10" points="1361.87 811.52 1361.87 438.84 1149.17 372.97 1149.17 745.65 1361.87 811.52"/><polygon class="cls-10" points="1338.24 818.72 1338.24 446.04 1125.55 380.17 1125.55 752.85 1338.24 818.72"/><polygon class="cls-10" points="1314.62 825.93 1314.62 453.25 1101.92 387.38 1101.92 760.06 1314.62 825.93"/><polygon class="cls-10" points="1290.99 832.8 1290.99 460.12 1078.3 394.25 1078.3 766.93 1290.99 832.8"/><polygon class="cls-10" points="1267.37 839.25 1267.37 466.57 1054.67 400.7 1054.67 773.38 1267.37 839.25"/><ellipse class="cls-10" cx="1322.39" cy="540.5" rx="24.59" ry="33.08" transform="translate(-237 735.13) rotate(-34.11)"/><ellipse class="cls-6" cx="1322.39" cy="540.5" rx="14.97" ry="20.13" transform="matrix(0.83, -0.56, 0.56, 0.83, -237, 735.14)"/><path class="cls-8" d="M1393.27,770.25l-19.09-10.4c-5.47-3-11-6-15.38-10.47-8.06-8.24-10.94-20.1-13.5-31.34-1-4.34-1.82-9.43,1.09-12.81s8.91-3.18,12.51-.3,5.28,7.57,6,12.13c2.12,13.33-4.72,29.21-17.92,32-13.73,2.91-26.4-9.44-31.27-22.6-1.69-4.57-2-11.08,2.48-12.94,2.7-1.12,5.89.25,7.93,2.35,5.41,5.58,4.18,15.67-1.69,20.76s-15,5.38-21.89,1.84-11.77-10.32-14.41-17.63c-1.09-3-1.85-6.27-1.13-9.39s3.28-6,6.47-6.17c4.45-.26,7.76,5.16,6.38,9.4s-6.06,6.75-10.52,6.78-8.68-2-12.47-4.3a62.54,62.54,0,0,1-14.79-12.78" transform="translate(-161.37 -99.32)"/><line class="cls-12" x1="1214.41" y1="683.01" x2="1103.41" y2="648.57"/><polygon class="cls-9" points="1013.16 647.66 1013.16 805.45 1230.93 870.96 1230.93 713.17 1013.16 647.66"/><polygon class="cls-7" points="1434.49 651.95 1434.49 809.74 1230.93 870.96 1230.93 713.17 1434.49 651.95"/><path class="cls-11" d="M1480,311.32c0,15.61-2.23,26.35-17.26,37.4a39.26,39.26,0,0,0-8.45,7.8c-2.6,3.51-3.76,7.31-3.91,12.4,0,.41,0,.83,0,1.26v2.34l-5.61-1.78-20.81-6.58v-4.68c0-15.38,3.73-25.08,18.4-36.45,8.53-6.45,11.54-10.23,11.56-18.88,0-6-1.74-12.47-6-17.27a21.37,21.37,0,0,0-9.72-6.16c-4-1.28-7.44-1-10.15.57-3.9,2.34-6.34,7.5-7.13,15l-25.28-8c.73-13.13,5.21-31.23,20.6-36.2l.21-.06a32.46,32.46,0,0,1,15.2-.67,58.08,58.08,0,0,1,7.67,1.89,55,55,0,0,1,27.63,19.4,66.16,66.16,0,0,1,12.55,30.74A57.35,57.35,0,0,1,1480,311.32Z" transform="translate(-161.37 -99.32)"/><polygon class="cls-2" points="115.38 736.91 223.62 701.52 287.26 721.18 179.01 756.57 115.38 736.91"/><polygon class="cls-2" points="583.18 622.46 403.34 564.92 330.29 586.6 512.86 645.01 583.18 622.46"/><ellipse class="cls-2" cx="880.5" cy="598.07" rx="25.93" ry="86.88" transform="translate(92.41 1359.1) rotate(-88.11)"/><ellipse class="cls-2" cx="1157.6" cy="461.5" rx="18.73" ry="93.04" transform="translate(496.89 1503.97) rotate(-88.11)"/><path class="cls-6" d="M1132.22,363.9l26.33,97.48c.9,3.37,10.59,3.69,21.62.71s19.24-8.13,18.33-11.5l-26.32-97.48Z" transform="translate(-161.37 -99.32)"/><ellipse class="cls-6" cx="1152.2" cy="358.51" rx="20.7" ry="6.32" transform="translate(-214.99 213.44) rotate(-15.11)"/><path class="cls-10" d="M1125.37,304.33l15,55.49c.51,1.92,6,2.1,12.31.41s10.95-4.63,10.43-6.55l-15-55.49Z" transform="translate(-161.37 -99.32)"/><path class="cls-6" d="M1133.75,101.83l-4.2-.16a46.89,46.89,0,0,0-15.66,2.79,55.52,55.52,0,0,0-11.28,5.54c-1.24.79-2.46,1.63-3.65,2.5a79.75,79.75,0,0,0-18.21,19.26c-20.91,30.51-28.52,78.94-16.75,122.54a127.15,127.15,0,0,0,14.72,34.56,85.8,85.8,0,0,0,17.72,20.67,61.24,61.24,0,0,0,14.73,9.16,49.17,49.17,0,0,0,15,3.93h0l4.9.19h.06a50.42,50.42,0,0,0,26.64-8.33c36.57-23.22,53.85-87.82,38.6-144.29C1185.43,129.46,1160.51,104.08,1133.75,101.83Zm21.1,201.64c-9.41,6-19.23,8.22-28.76,7.18-1-.1-2-.24-3-.43a45.49,45.49,0,0,1-11.76-3.89c-17.51-8.48-32.57-28.41-40.17-56.57-13.6-50.38,1.81-108,34.44-128.73a50.1,50.1,0,0,1,8.14-4.22,43.41,43.41,0,0,1,11.78-3s0,0,0,0c1-.12,2-.19,3.08-.21,25.63-.8,50.21,22.36,60.68,61.12C1202.89,225.11,1187.47,282.74,1154.85,303.47Z" transform="translate(-161.37 -99.32)"/><path class="cls-6" d="M1131.13,322.82a47.11,47.11,0,0,1-4.9-.19Z" transform="translate(-161.37 -99.32)"/><path class="cls-6" d="M1133.75,101.83l-4.2-.16C1131,101.66,1132.35,101.71,1133.75,101.83Z" transform="translate(-161.37 -99.32)"/><path class="cls-6" d="M1123.08,310.22a41.85,41.85,0,0,0,4.53-.73c-.5.4-1,.78-1.52,1.16C1125.08,310.55,1124.08,310.41,1123.08,310.22Z" transform="translate(-161.37 -99.32)"/><path class="cls-6" d="M1130.13,114.91a41.42,41.42,0,0,0-4.6-1.08c1-.12,2-.19,3.08-.21C1129.12,114,1129.62,114.47,1130.13,114.91Z" transform="translate(-161.37 -99.32)"/><path class="cls-9" d="M1189.29,174.74c13.6,50.37-1.82,108-34.44,128.73-9.41,6-19.23,8.22-28.76,7.18.51-.38,1-.76,1.52-1.16a47.42,47.42,0,0,0,15.45-6.48c32.62-20.71,48-78.34,34.44-128.73-8.63-31.95-26.87-53.31-47.37-59.37h0c-.51-.44-1-.88-1.52-1.29C1154.24,112.82,1178.82,136,1189.29,174.74Z" transform="translate(-161.37 -99.32)"/><path class="cls-9" d="M1123.08,310.22a41.85,41.85,0,0,0,4.53-.73c-.5.4-1,.78-1.52,1.16C1125.08,310.55,1124.08,310.41,1123.08,310.22Z" transform="translate(-161.37 -99.32)"/><path class="cls-9" d="M1130.13,114.91a41.42,41.42,0,0,0-4.6-1.08c1-.12,2-.19,3.08-.21C1129.12,114,1129.62,114.47,1130.13,114.91Z" transform="translate(-161.37 -99.32)"/><path class="cls-8" d="M1096.81,321.45a43.65,43.65,0,0,1-6.86-.27Z" transform="translate(-161.37 -99.32)"/><path class="cls-8" d="M1127.61,309.49c-.5.4-1,.78-1.52,1.16-1-.1-2-.24-3-.43A41.85,41.85,0,0,0,1127.61,309.49Z" transform="translate(-161.37 -99.32)"/><path class="cls-8" d="M1130.13,114.91a41.42,41.42,0,0,0-4.6-1.08c1-.12,2-.19,3.08-.21C1129.12,114,1129.62,114.47,1130.13,114.91Z" transform="translate(-161.37 -99.32)"/><path class="cls-11" d="M1177.5,174.28c13.6,50.39-1.82,108-34.44,128.73a47.42,47.42,0,0,1-15.45,6.48,41.85,41.85,0,0,1-4.53.73,45.49,45.49,0,0,1-11.76-3.89c-17.51-8.48-32.57-28.41-40.17-56.57-13.6-50.38,1.81-108,34.44-128.73a50.1,50.1,0,0,1,8.14-4.22,43.41,43.41,0,0,1,11.78-3s0,0,0,0a41.42,41.42,0,0,1,4.6,1.08h0C1150.63,121,1168.87,142.33,1177.5,174.28Z" transform="translate(-161.37 -99.32)"/><path class="cls-13" d="M1166.05,177.51a108.63,108.63,0,0,1,2.39,11" transform="translate(-161.37 -99.32)"/><path class="cls-13" d="M1135.4,133.62c8.73,4.57,16.68,12.56,22.95,23.39" transform="translate(-161.37 -99.32)"/><line class="cls-8" x1="972.38" y1="2.51" x2="972.55" y2="2.52"/><path class="cls-9" d="M1129.55,101.67a46.89,46.89,0,0,0-15.66,2.79,55.52,55.52,0,0,0-11.28,5.54c-1.24.79-2.46,1.63-3.65,2.5a79.75,79.75,0,0,0-18.21,19.26c-20.91,30.51-28.52,78.94-16.75,122.54a127.15,127.15,0,0,0,14.72,34.56,85.8,85.8,0,0,0,17.72,20.67,61.24,61.24,0,0,0,14.73,9.16,49.17,49.17,0,0,0,15,3.93l-29.33-1.17h0l-6.86-.27h-.07c-26.21-3-50.45-28.22-61.26-68.23-15.24-56.47,2-121.07,38.6-144.3,9.39-6,19.14-8.61,28.7-8.31h.09l1.14,0Z" transform="translate(-161.37 -99.32)"/><polygon class="cls-9" points="510.64 855.39 757.24 930.91 757.24 915.85 510.64 840.33 510.64 855.39"/><polygon class="cls-7" points="757.24 915.85 943.34 858.21 943.34 873.27 757.24 930.91 757.24 915.85"/><polygon class="cls-10" points="510.64 839.65 696.75 782.01 943.34 858.21 757.24 915.85 510.64 839.65"/><polygon class="cls-10" points="722.82 567.27 968.45 643.47 943.34 858.21 697.72 782.01 722.82 567.27"/><polygon class="cls-6" points="737.93 587.21 949.9 652.97 928.23 838.28 716.27 772.52 737.93 587.21"/><polygon class="cls-10" points="920.52 672.39 918.61 689.16 758.32 639.44 760.17 622.65 920.52 672.39"/><polygon class="cls-11" points="918.61 689.16 904.98 807.82 745.02 758.19 758.32 639.44 918.61 689.16"/><polygon class="cls-6" points="619.41 851.36 664.53 837.66 749.71 865.07 704.59 878.77 619.41 851.36"/><path class="cls-7" d="M977.09,839.68,975.35,858,988.29,862,990,843.77Z" transform="translate(-161.37 -99.32)"/><path class="cls-7" d="M1008.35,808.46c-.71,7.42-2.32,12.52-10.4,17.71a22,22,0,0,0-4.61,3.67,10.18,10.18,0,0,0-2.53,5.88,3.79,3.79,0,0,0-.07.6l-.11,1.11-2.74-.87-10.2-3.22.21-2.23c.69-7.32,3-11.91,10.92-17.26,4.59-3,6.28-4.81,6.68-8.92a11,11,0,0,0-2.26-8.25,9.74,9.74,0,0,0-4.62-3,6.55,6.55,0,0,0-5.15.23c-2.07,1.09-3.53,3.53-4.27,7.09l-12.39-3.91c1-6.24,4-14.83,12-17.13l.1,0a17.57,17.57,0,0,1,7.7-.24,28,28,0,0,1,3.78.93,24.77,24.77,0,0,1,13.06,9.35,28,28,0,0,1,4.93,14.68A24.83,24.83,0,0,1,1008.35,808.46Z" transform="translate(-161.37 -99.32)"/><polygon class="cls-11" points="214.14 567.38 289.76 544.67 289.76 502.51 175.13 536.92 175.13 744.83 214.14 733.12 214.14 651.13 276.45 632.42 276.45 593.48 214.14 612.18 214.14 567.38"/><polygon class="cls-7" points="175.13 744.83 129.26 730.99 129.26 523.09 175.13 536.92 175.13 744.83"/><polygon class="cls-10" points="129.26 523.09 243.89 488.67 289.76 502.51 175.13 536.92 129.26 523.09"/><polygon class="cls-10" points="230.57 579.64 276.45 593.48 214.14 612.18 214.14 584.57 230.57 579.64"/><path class="cls-11" d="M812.12,126.83l-24.94-7.92c-7.08-2.27-14.17-3-22.43-.5L395,229.64c-22.23,6.68-40.25,32.4-40.25,57.43v99.44c0,16.91,8.24,29.18,20.43,33.3h0l.11,0c.37.12.74.24,1.11.34L405,429s69.84-24.23,96.67-32.59c-3,34.27-14.81,65.36-14.81,65.36h0l28.26,8.75L539,392.1,537,390a152.55,152.55,0,0,0,5.2-14.53L764.75,308.5C787,301.82,805,276.1,805,251.07V151.63a48.09,48.09,0,0,0-.31-5.44Z" transform="translate(-161.37 -99.32)"/><path class="cls-10" d="M793,127.15,423.23,238.38C401,245.07,383,270.78,383,295.82v99.43c0,25,18,39.91,40.25,33.23l107.26-32.27c-1.36,37.62-15.36,74.35-15.36,74.35s40.64-37.26,55.34-86.38L793,317.25c22.22-6.69,40.24-32.4,40.24-57.44V160.38C833.25,135.34,815.23,120.47,793,127.15Z" transform="translate(-161.37 -99.32)"/><line class="cls-8" x1="270.73" y1="179.33" x2="543.27" y2="97.35"/><line class="cls-8" x1="270.73" y1="214.06" x2="543.27" y2="132.08"/><line class="cls-8" x1="270.73" y1="248.79" x2="543.27" y2="166.81"/><line class="cls-14" x1="407" y1="242.53" x2="407" y2="242.53"/><line class="cls-15" x1="426.47" y1="236.68" x2="533.54" y2="204.47"/><line class="cls-14" x1="543.27" y1="201.54" x2="543.27" y2="201.54"/><path class="cls-11" d="M749.92,251.54a47,47,0,0,1,.77-8.58,28,28,0,0,1,3-8.26,32.74,32.74,0,0,1,6.67-8.2c1.12-1.11,2.6-2.44,4.46-4a59.22,59.22,0,0,0,5.5-5.32,32.83,32.83,0,0,0,4.59-6.43,14.32,14.32,0,0,0,1.88-6.9,7.52,7.52,0,0,0-1.49-5,6.82,6.82,0,0,0-3.75-2.33,9.54,9.54,0,0,0-5,.27,14,14,0,0,0-5.89,3.52,25.88,25.88,0,0,0-4.2,5.42q-1.69,2.91-3,5.48l-13.32-6.48a40.91,40.91,0,0,1,6.27-12,44.53,44.53,0,0,1,9.44-9.26,38.48,38.48,0,0,1,11.45-5.7,31.2,31.2,0,0,1,9.71-1.33,18.88,18.88,0,0,1,8.92,2.37,16,16,0,0,1,6.41,7.11q2.39,4.85,2.39,12.5a40.74,40.74,0,0,1-.71,7.8,29.31,29.31,0,0,1-2.27,6.89,35.38,35.38,0,0,1-3.88,6.37,73.2,73.2,0,0,1-5.17,6.11q-3.63,3.69-7.25,6.88a42,42,0,0,0-6.08,6.52,12.17,12.17,0,0,0-2.45,7.39Zm.39,35.59V265.27l16.94-5.1V282Z" transform="translate(-161.37 -99.32)"/><polygon class="cls-16" points="748.14 474.68 794.02 488.52 785.35 479.31 748.14 474.68"/><path class="cls-16" d="M956.23,520.55c-3.76,12.52-27.63,5.55-34.28,16.75l-25.38-27a95.83,95.83,0,0,0,4.74-15.13A107.3,107.3,0,0,0,904,471.39,84.26,84.26,0,0,0,901.19,449a47.37,47.37,0,0,0-8.56-17.49c-.3-.37-.61-.71-.91-1.06l34.82-28.78a84.67,84.67,0,0,1,11.28,22c4,11.41,14.59,23.76,14.59,36.84C952.41,474.32,960.35,506.83,956.23,520.55Z" transform="translate(-161.37 -99.32)"/><path class="cls-7" d="M922,537.3l-25.38-27L886,499.08,849.57,510l-.23-2.7,14.59-51.56,27.79-25.33,34.82-28.78,12.55-9.88-44.67-13.52q-15.34-4.47-34.13,1.17a92,92,0,0,0-33.78,18.78,136.48,136.48,0,0,0-26.75,31.31,160.28,160.28,0,0,0-17.6,38.81,142.63,142.63,0,0,0-6.31,41.57,112.76,112.76,0,0,0,6,37.31,79.35,79.35,0,0,0,17,28.86,55.69,55.69,0,0,0,24.12,15.27l.15,0,.76.22,46.28,14-8.57-15.73a92.58,92.58,0,0,0,31.68-18q3.93-3.36,7.62-7.07l8.67,9.21,36.62-11Zm-62.14,10.34a42.07,42.07,0,0,1-7,1.49l-3.17-38.8,26.84,28.53A47.87,47.87,0,0,1,859.81,547.64Z" transform="translate(-161.37 -99.32)"/><polygon class="cls-16" points="760.95 453.38 715.07 439.54 688.22 411.02 733.85 424.59 760.95 453.38"/><polygon class="cls-10" points="688.22 411.02 733.85 424.59 770.48 413.6 724.6 399.76 688.22 411.02"/><path class="cls-11" d="M992,576.84l-24.2-25.71a158.41,158.41,0,0,0,15.64-35.55,143.35,143.35,0,0,0,6.18-41.39,111.25,111.25,0,0,0-5.95-36.73,81,81,0,0,0-17-29,57.3,57.3,0,0,0-26.4-16.38q-15.35-4.47-34.13,1.16A92.31,92.31,0,0,0,872.39,412a136.2,136.2,0,0,0-26.75,31.31A160.17,160.17,0,0,0,828,482.15a142.29,142.29,0,0,0-6.31,41.57,113,113,0,0,0,5.95,37.3,79.59,79.59,0,0,0,17,28.87,55.83,55.83,0,0,0,26.4,15.94q15.34,4.17,34.37-1.54A92.22,92.22,0,0,0,939.1,585.7q3.95-3.36,7.62-7.07l8.67,9.21Zm-86.33-15.37q-10.71,3.21-19,.59a27.78,27.78,0,0,1-13.91-9.88,50.32,50.32,0,0,1-8.44-17.52,82.67,82.67,0,0,1-2.86-22.28,107.38,107.38,0,0,1,2.74-23.81,91.69,91.69,0,0,1,8.32-22.7,71.65,71.65,0,0,1,13.79-18.49,47,47,0,0,1,19.39-11.24q10.45-3.13,18.79-.52a29.07,29.07,0,0,1,14,9.7,47.45,47.45,0,0,1,8.56,17.49,84.72,84.72,0,0,1,2.85,22.42A107.89,107.89,0,0,1,947.19,509a97.21,97.21,0,0,1-4.74,15.13l-10.6-11.26-36.63,11,27.1,28.79A48,48,0,0,1,905.69,561.47Z" transform="translate(-161.37 -99.32)"/><path class="cls-11" d="M572.82,491.48,514.79,682l40,12,11.44-43.12,55.6,16.69,11.44,50,40,12-58.27-225.4Zm1.51,128.71,19.66-74L613.65,632Z" transform="translate(-161.37 -99.32)"/><polygon class="cls-7" points="453.55 404.8 499.42 390.96 557.69 616.37 511.81 630.2 453.55 404.8"/><polygon class="cls-10" points="447.21 510.55 452.28 532.68 412.96 520.88 447.21 510.55"/><polygon class="cls-16" points="432.62 446.83 412.96 520.88 447.21 510.55 432.62 446.83"/><polygon class="cls-16" points="439.25 580.81 393.38 594.64 404.82 551.52 443.91 563.26 439.25 580.81"/><polygon class="cls-10" points="499.42 390.96 457.33 378.33 411.45 392.16 453.55 404.8 499.42 390.96"/></svg>