<svg xmlns="http://www.w3.org/2000/svg" viewBox="0 0 1200 937"><defs><style>.cls-1{isolation:isolate;}.cls-2,.cls-3{fill:#9dc7e0;}.cls-2{opacity:0.15;}.cls-3{opacity:0.25;mix-blend-mode:multiply;}.cls-4{fill:#f9ef35;}.cls-10,.cls-11,.cls-12,.cls-13,.cls-4,.cls-6,.cls-7{stroke:#0c1733;stroke-linecap:round;stroke-linejoin:round;}.cls-13,.cls-4,.cls-6,.cls-7,.cls-8{stroke-width:2px;}.cls-5,.cls-6,.cls-8{fill:#fff;}.cls-7,.cls-9{fill:#cfdde5;}.cls-8{stroke:#000;stroke-miterlimit:10;}.cls-10,.cls-11,.cls-12,.cls-13{fill:none;}.cls-10,.cls-11,.cls-12{stroke-width:5px;}.cls-11{stroke-dasharray:0 18.06;}.cls-12{stroke-dasharray:0 18.4;}.cls-14{fill:#a3bdcc;}</style></defs><title>01_Vector</title><g class="cls-1"><g id="Layer_1" data-name="Layer 1"><path class="cls-2" d="M952.06,627.49c-43.24,87.14-106.71,154.91-184,162.6q-7.26.72-14.69.73-21.3,0-41.82-.73-36.62-1.29-70.71-4.85C335.67,753.67,182.35,591.32,185,386.05c.91-69.62,60.17-123.14,146.23-160.75q7.8-3.42,15.89-6.65c32.46-13,68.22-23.9,105.75-32.69,17.12-4,34.61-7.59,52.32-10.73C686.67,143,891.73,156.49,965.11,214.57,1040.66,274.37,1025.71,479,952.06,627.49Z"/><path class="cls-3" d="M952.06,348.91V627.49c-43.24,87.14-106.71,154.91-184,162.6H711.58q-36.62-1.29-70.71-4.85V725H485.27V659.83h-154V218.65H439.7A47,47,0,0,1,452.88,186c17.12-4,34.61-7.59,52.32-10.73A47.14,47.14,0,0,1,534,218.65H642.43v18A47.13,47.13,0,0,1,688,283.78H796.45v18h0a47.15,47.15,0,0,1,47.14,47.14Z"/><rect class="cls-4" x="305.64" y="193.32" width="311.19" height="441.18"/><rect class="cls-5" x="353.49" y="279.98" width="215.46" height="13.18"/><rect class="cls-5" x="353.49" y="309.11" width="215.46" height="13.18"/><rect class="cls-5" x="353.49" y="356" width="128.05" height="13.18"/><rect class="cls-5" x="353.49" y="388.01" width="128.05" height="13.18"/><circle class="cls-6" cx="461.23" cy="193.32" r="47.14"/><circle class="cls-7" cx="461.23" cy="193.32" r="26.4"/><path class="cls-6" d="M275.69,416.49a11.07,11.07,0,0,0,.14,10.31,10.9,10.9,0,0,0,5.79,5,9.62,9.62,0,0,0,1.66.5h.09l22.22,6.54-8.16,4.45a24.87,24.87,0,0,1-32.24-7.55,23.4,23.4,0,0,1-1.47-2.36,24.87,24.87,0,0,1,9.91-33.72l31.52-17.19.48-.25V398l-25.39,13.86A11,11,0,0,0,275.69,416.49Z"/><path class="cls-6" d="M373.19,486.4a24.84,24.84,0,0,1-31.65,20.49l-34.43-10.12a24.89,24.89,0,0,1-17.8-25.26l12.86,3.79c.41.12.83.23,1.25.33a11,11,0,0,0,7.58,7.9l34.44,10.13a11,11,0,0,0,13.23-15c-.11-.25-.22-.49-.35-.73a11,11,0,0,1,5.52-14.44A24.9,24.9,0,0,1,373.19,486.4Z"/><path class="cls-6" d="M349.47,457.42a24.52,24.52,0,0,0-4.88,9.06,22.65,22.65,0,0,0-.78,3.67l-14.42-4.24-12.15-3.58a11,11,0,0,0-5-.27,8.4,8.4,0,0,0-1.1.27,11.1,11.1,0,0,1-5-.28l-12.15-3.57a24.87,24.87,0,0,1,26-9.72c.42.09.84.2,1.25.33L334,452.87Z"/><path class="cls-6" d="M427.68,485l-12.86-3.79q-.63-.18-1.26-.33A11,11,0,0,0,406,473L371.54,462.9a11,11,0,0,0-13.22,15,7,7,0,0,0,.35.73,11,11,0,0,1-5.52,14.45,25,25,0,0,1-9.34-22.94,22.65,22.65,0,0,1,.78-3.67,24.52,24.52,0,0,1,4.88-9.06,24.89,24.89,0,0,1,26-7.77l34.44,10.13A24.91,24.91,0,0,1,427.68,485Z"/><path class="cls-6" d="M329.39,465.91a24.89,24.89,0,0,1-26,9.72c-.42-.1-.84-.21-1.25-.33l-12.86-3.79-21.58-6.34a24.82,24.82,0,0,1-7-44.32,24.6,24.6,0,0,0,3,12.57,23.4,23.4,0,0,0,1.47,2.36,10.73,10.73,0,0,0-1,2.43,11.05,11.05,0,0,0,7.47,13.71l22.29,6.56,12.15,3.57a11.1,11.1,0,0,0,5,.28,10.38,10.38,0,0,0,1.1-.27,11,11,0,0,1,5,.27Z"/><path class="cls-6" d="M334,452.87l-12.86-3.78c-.41-.13-.83-.24-1.25-.33a11,11,0,0,0-7.58-7.9l-6.67-2,0,0-22.22-6.54h-.09l-1.66-.5a10.9,10.9,0,0,1-5.79-5,11.07,11.07,0,0,1-.14-10.31,25,25,0,0,1,6.06,1L304,424l1.63.48,10.56,3.1A24.88,24.88,0,0,1,334,452.87Z"/><path class="cls-6" d="M443.16,489.59a24.69,24.69,0,0,0-4.88,9.05,24,24,0,0,0-.78,3.67l-14.41-4.25-12.17-3.57a10.82,10.82,0,0,0-4.88-.3h0a10.17,10.17,0,0,0-1.35.31h0a10.83,10.83,0,0,1-4.88-.3l-12.16-3.58a24.9,24.9,0,0,1,26-9.72q.63.15,1.26.33L427.68,485Z"/><path class="cls-6" d="M423.09,498.06a24.92,24.92,0,0,1-26,9.74c-.42-.1-.84-.21-1.26-.34L383,503.68l-15.48-4.55a25,25,0,0,0,5.67-12.73l14.4,4.24,12.16,3.58a10.83,10.83,0,0,0,4.88.3h0a12,12,0,0,0,1.35-.31h0a10.82,10.82,0,0,1,4.88.3Z"/><path class="cls-6" d="M520.39,522.8a24.87,24.87,0,0,1-30.85,16.82l-28.34-8.33a24.69,24.69,0,0,0,4.89-9.06,23.61,23.61,0,0,0,.77-3.66l26.57,7.81a11,11,0,1,0,6.24-21.19l-34.44-10.13A11,11,0,0,0,452,510c.12.27.25.55.39.82a11,11,0,0,1-5.54,14.39,24.9,24.9,0,0,1-9.33-22.93,24,24,0,0,1,.78-3.67,24.84,24.84,0,0,1,30.85-16.82l34.43,10.12A24.88,24.88,0,0,1,520.39,522.8Z"/><path class="cls-6" d="M466.86,518.57a23.61,23.61,0,0,1-.77,3.66,24.86,24.86,0,0,1-30.86,16.83l-34.44-10.13A24.89,24.89,0,0,1,383,503.68l12.85,3.78c.42.13.84.24,1.26.34a11,11,0,0,0,7.58,7.88l34.44,10.13a11,11,0,0,0,13.24-15A6.16,6.16,0,0,0,452,510a11,11,0,0,1,5.54-14.4A24.87,24.87,0,0,1,466.86,518.57Z"/><rect class="cls-7" x="459.66" y="258.45" width="311.19" height="441.18"/><circle class="cls-6" cx="615.25" cy="258.45" r="47.14"/><circle class="cls-4" cx="615.25" cy="258.45" r="26.4"/><polygon class="cls-4" points="733.43 556.24 748.44 569.48 768.36 567.59 772.71 587.12 789.94 597.3 781.99 615.66 789.94 634.02 772.71 644.2 768.36 663.73 748.44 661.84 733.43 675.07 718.43 661.84 698.51 663.73 694.15 644.2 676.93 634.02 684.88 615.66 676.93 597.3 694.15 587.12 698.51 567.59 718.43 569.48 733.43 556.24"/><rect class="cls-6" x="615.27" y="323.58" width="311.19" height="441.18"/><circle class="cls-4" cx="770.86" cy="323.58" r="47.14"/><circle class="cls-8" cx="770.86" cy="323.58" r="26.4"/><rect class="cls-9" x="663.12" y="402.64" width="215.46" height="13.18"/><rect class="cls-9" x="663.12" y="431.77" width="215.46" height="13.18"/><rect class="cls-9" x="663.12" y="478.67" width="128.05" height="13.18"/><rect class="cls-9" x="809.83" y="478.67" width="68.74" height="77.19"/><rect class="cls-9" x="663.12" y="510.67" width="128.05" height="13.18"/><rect class="cls-9" x="663.12" y="542.68" width="128.05" height="13.18"/><line class="cls-10" x1="663.12" y1="636.54" x2="663.12" y2="636.54"/><line class="cls-11" x1="681.18" y1="636.54" x2="744.37" y2="636.54"/><line class="cls-10" x1="753.4" y1="636.54" x2="753.4" y2="636.54"/><line class="cls-10" x1="501.07" y1="618.98" x2="501.07" y2="618.98"/><line class="cls-12" x1="519.47" y1="618.98" x2="565.47" y2="618.98"/><line class="cls-10" x1="574.67" y1="618.98" x2="574.67" y2="618.98"/><path class="cls-13" d="M663.12,619c18.16,4.54,40.65,3.89,50-13.32,2.27-4.2,3.49-9.66,1.46-14.18-2.12-4.73-7.39-7.41-12.16-4.71-8.12,4.6-7.19,15.9-1.55,21.93,6.75,7.21,18.43,7.27,25.91,1.14,3.33-2.72,6.51-7.43,5.69-12-1.1-6.18-7.73-2.81-8.84,1.62-2.58,10.25,9.92,15.91,18.2,14a18.61,18.61,0,0,0,11.6-8"/><polygon class="cls-4" points="841.05 623.59 854.29 635.28 871.87 633.61 875.72 650.85 890.93 659.83 883.91 676.04 890.93 692.24 875.72 701.23 871.87 718.47 854.29 716.8 841.05 728.48 827.8 716.8 810.22 718.47 806.37 701.23 791.17 692.24 798.19 676.04 791.17 659.83 806.37 650.85 810.22 633.61 827.8 635.28 841.05 623.59"/><rect class="cls-14" x="501.07" y="365.85" width="73.59" height="73.59"/><rect class="cls-5" x="512.57" y="377.34" width="50.6" height="50.6"/><rect class="cls-14" x="501.07" y="480.47" width="73.59" height="73.59"/><rect class="cls-5" x="512.57" y="491.96" width="50.6" height="50.6"/><polyline class="cls-13" points="522.15 396.39 538.02 412.27 590.47 359.83"/></g></g></svg>