<svg xmlns="http://www.w3.org/2000/svg" viewBox="0 0 1817.98 1150.82"><defs><style>.cls-1{isolation:isolate;}.cls-2{fill:#9dc7e0;opacity:0.85;}.cls-11,.cls-25,.cls-27,.cls-3{fill:#edf4f8;}.cls-10,.cls-14,.cls-16,.cls-23,.cls-24,.cls-26,.cls-3,.cls-4,.cls-5,.cls-6,.cls-7{stroke:#0c1733;}.cls-10,.cls-11,.cls-12,.cls-14,.cls-16,.cls-17,.cls-18,.cls-19,.cls-20,.cls-21,.cls-22,.cls-23,.cls-24,.cls-25,.cls-26,.cls-3,.cls-4,.cls-5,.cls-6,.cls-7{stroke-linecap:round;stroke-linejoin:round;}.cls-10,.cls-14,.cls-16,.cls-26,.cls-3,.cls-4,.cls-5,.cls-6,.cls-7{stroke-width:2px;}.cls-4{fill:#a3bdcc;}.cls-14,.cls-15,.cls-5{fill:#fff;}.cls-6{fill:#f9ef35;}.cls-16,.cls-17,.cls-18,.cls-19,.cls-20,.cls-21,.cls-22,.cls-23,.cls-24,.cls-7{fill:none;}.cls-8{font-size:22.01px;font-family:ArialRoundedMTBold, Arial Rounded MT Bold;letter-spacing:0.07em;}.cls-9{letter-spacing:0.06em;}.cls-10,.cls-12{fill:#cfdde5;}.cls-11,.cls-25{stroke:#edf4f8;}.cls-11,.cls-12,.cls-25{stroke-width:10px;}.cls-11{mix-blend-mode:darken;}.cls-12{stroke:#cfdde5;opacity:0.6;}.cls-12,.cls-27{mix-blend-mode:multiply;}.cls-13{fill:#0c1733;}.cls-14{stroke-dasharray:0 4;}.cls-16{stroke-dasharray:0 3.93;}.cls-17,.cls-18,.cls-19,.cls-20,.cls-21,.cls-22{stroke:#88adc2;}.cls-17,.cls-18,.cls-19,.cls-20,.cls-21,.cls-22,.cls-23,.cls-24{stroke-width:5px;}.cls-18{stroke-dasharray:0 16.05;}.cls-19{stroke-dasharray:0 13.98;}.cls-20{stroke-dasharray:0 14.13;}.cls-21{stroke-dasharray:0 13.6;}.cls-22{stroke-dasharray:0 16.48;}.cls-24{stroke-dasharray:0 13.96;}.cls-26{fill:#88adc2;}</style></defs><g class="cls-1"><g id="Layer_2" data-name="Layer 2"><path class="cls-2" d="M1798.63,830.55c-8.08-25.33-25.55-46.27-46.23-62.47-21.77-17.07-46-30.09-71.29-41.11-31-13.52-62.63-26-94-38.73-131.4-53.56-263.75-105.39-399.55-146.83-134.53-41-272.71-71.57-413.13-82.52-69.25-5.4-140.54-8.29-208.92,6.19a343.39,343.39,0,0,0-93.12,34.86c-26.81,14.6-52.13,31.72-78.7,46.73-9.6,5.42-19.32,10.46-29.26,14.91a15.44,15.44,0,0,0-13.3-1.55l-210,79.64C88.88,659.5,10.9,681,12.25,750.79c.58,30.41,16.84,59.65,39.93,78.87,26.28,21.87,58.32,33.59,90.29,44.46a1784.51,1784.51,0,0,0,208.67,57.09c35.19,7.37,70.59,13.46,106.11,18.93,31.57,4.87,64.39,10,91.92,27.29,26.35,16.5,46.23,41.41,70.06,61.09a341.48,341.48,0,0,0,71.68,45.8c106.37,50.19,231.81,48.73,343,15.82,64.59-19.11,124.69-52.65,191.41-64.63,35.43-6.35,71.92-5.48,107.74-4.17,36.49,1.32,72.88,3,109.39,1.48a882.94,882.94,0,0,0,214-35.19c50.38-14.87,107.94-39.87,134.13-88.57C1803.46,885.19,1806.93,856.53,1798.63,830.55Z"/><polygon class="cls-3" points="1302.24 631.18 1142.2 582.38 1142.2 223.65 1302.24 272.45 1302.24 631.18"/><polygon class="cls-4" points="1415.04 596.37 1302.24 631.18 1302.24 272.45 1415.04 237.63 1415.04 596.37"/><polygon class="cls-5" points="1388.35 604.51 1343.52 618.34 1343.52 543.63 1387.05 530.46 1388.35 604.51"/><polygon class="cls-6" points="1415.04 237.63 1302.24 272.45 1142.2 223.65 1255.01 187.42 1415.04 237.63"/><line class="cls-6" x1="1367.1" y1="538" x2="1367.1" y2="610.51"/><polygon class="cls-5" points="1223.85 444.64 1245.25 451.56 1245.25 430.15 1223.85 423.24 1223.85 444.64"/><polygon class="cls-5" points="1193.08 434.68 1214.48 441.59 1214.48 420.19 1193.08 413.27 1193.08 434.68"/><polygon class="cls-5" points="1162.31 424.52 1183.71 431.44 1183.71 410.03 1162.31 403.12 1162.31 424.52"/><polygon class="cls-5" points="1254.62 455.62 1276.02 462.53 1276.02 441.12 1254.62 434.21 1254.62 455.62"/><polygon class="cls-5" points="1223.85 481.33 1245.25 488.25 1245.25 466.84 1223.85 459.93 1223.85 481.33"/><polygon class="cls-5" points="1193.08 471.37 1214.48 478.28 1214.48 456.88 1193.08 449.96 1193.08 471.37"/><polygon class="cls-5" points="1162.31 461.21 1183.71 468.12 1183.71 446.72 1162.31 439.81 1162.31 461.21"/><polygon class="cls-5" points="1254.62 492.31 1276.02 499.22 1276.02 477.81 1254.62 470.9 1254.62 492.31"/><polygon class="cls-5" points="1223.85 518.32 1245.25 525.23 1245.25 503.83 1223.85 496.92 1223.85 518.32"/><polygon class="cls-5" points="1193.08 508.35 1214.48 515.26 1214.48 493.86 1193.08 486.95 1193.08 508.35"/><polygon class="cls-5" points="1162.31 498.2 1183.71 505.11 1183.71 483.7 1162.31 476.79 1162.31 498.2"/><polygon class="cls-5" points="1254.62 529.29 1276.02 536.2 1276.02 514.8 1254.62 507.89 1254.62 529.29"/><polygon class="cls-5" points="1223.85 407.96 1245.25 414.87 1245.25 393.46 1223.85 386.55 1223.85 407.96"/><polygon class="cls-5" points="1193.08 397.99 1214.48 404.9 1214.48 383.5 1193.08 376.59 1193.08 397.99"/><polygon class="cls-5" points="1162.31 387.83 1183.71 394.75 1183.71 373.34 1162.31 366.43 1162.31 387.83"/><polygon class="cls-5" points="1254.62 418.93 1276.02 425.84 1276.02 404.43 1254.62 397.52 1254.62 418.93"/><polygon class="cls-5" points="1223.85 335.12 1245.25 342.03 1245.25 320.63 1223.85 313.72 1223.85 335.12"/><polygon class="cls-5" points="1193.08 325.16 1214.48 332.07 1214.48 310.66 1193.08 303.75 1193.08 325.16"/><polygon class="cls-5" points="1162.31 315 1183.71 321.91 1183.71 300.51 1162.31 293.6 1162.31 315"/><polygon class="cls-5" points="1254.62 346.09 1276.02 353 1276.02 331.6 1254.62 324.69 1254.62 346.09"/><polygon class="cls-5" points="1223.85 371.81 1245.25 378.72 1245.25 357.32 1223.85 350.41 1223.85 371.81"/><polygon class="cls-5" points="1193.08 361.85 1214.48 368.76 1214.48 347.35 1193.08 340.44 1193.08 361.85"/><polygon class="cls-5" points="1162.31 351.69 1183.71 358.6 1183.71 337.2 1162.31 330.29 1162.31 351.69"/><polygon class="cls-5" points="1254.62 382.78 1276.02 389.69 1276.02 368.29 1254.62 361.38 1254.62 382.78"/><polygon class="cls-5" points="1223.85 298.43 1245.25 305.34 1245.25 283.94 1223.85 277.03 1223.85 298.43"/><polygon class="cls-5" points="1193.08 288.47 1214.48 295.38 1214.48 273.97 1193.08 267.06 1193.08 288.47"/><polygon class="cls-5" points="1162.31 278.31 1183.71 285.22 1183.71 263.82 1162.31 256.91 1162.31 278.31"/><polygon class="cls-5" points="1254.62 309.4 1276.02 316.32 1276.02 294.91 1254.62 288 1254.62 309.4"/><polygon class="cls-5" points="1339.96 524.9 1318.55 531.81 1318.55 510.4 1339.96 503.49 1339.96 524.9"/><polygon class="cls-5" points="1370.4 514.93 1349 521.84 1349 500.44 1370.4 493.53 1370.4 514.93"/><polygon class="cls-5" points="1400.85 504.78 1379.44 511.69 1379.44 490.28 1400.85 483.37 1400.85 504.78"/><polygon class="cls-5" points="1339.96 488.11 1318.55 495.02 1318.55 473.62 1339.96 466.7 1339.96 488.11"/><polygon class="cls-5" points="1370.4 478.14 1349 485.06 1349 463.65 1370.4 456.74 1370.4 478.14"/><polygon class="cls-5" points="1400.85 467.99 1379.44 474.9 1379.44 453.5 1400.85 446.58 1400.85 467.99"/><polygon class="cls-5" points="1339.96 451.32 1318.55 458.23 1318.55 436.83 1339.96 429.92 1339.96 451.32"/><polygon class="cls-5" points="1370.4 441.36 1349 448.27 1349 426.86 1370.4 419.95 1370.4 441.36"/><polygon class="cls-5" points="1400.85 431.2 1379.44 438.11 1379.44 416.71 1400.85 409.8 1400.85 431.2"/><polygon class="cls-5" points="1339.96 414.53 1318.55 421.44 1318.55 400.04 1339.96 393.13 1339.96 414.53"/><polygon class="cls-5" points="1370.4 404.57 1349 411.48 1349 390.07 1370.4 383.16 1370.4 404.57"/><polygon class="cls-5" points="1400.85 394.41 1379.44 401.32 1379.44 379.92 1400.85 373.01 1400.85 394.41"/><polygon class="cls-5" points="1339.96 379.34 1318.55 386.25 1318.55 364.84 1339.96 357.93 1339.96 379.34"/><polygon class="cls-5" points="1370.4 369.37 1349 376.28 1349 354.88 1370.4 347.97 1370.4 369.37"/><polygon class="cls-5" points="1400.85 359.21 1379.44 366.13 1379.44 344.72 1400.85 337.81 1400.85 359.21"/><polygon class="cls-5" points="1339.96 342.55 1318.55 349.46 1318.55 328.06 1339.96 321.14 1339.96 342.55"/><polygon class="cls-5" points="1370.4 332.58 1349 339.49 1349 318.09 1370.4 311.18 1370.4 332.58"/><polygon class="cls-5" points="1400.85 322.43 1379.44 329.34 1379.44 307.93 1400.85 301.02 1400.85 322.43"/><polygon class="cls-5" points="1339.96 305.76 1318.55 312.67 1318.55 291.27 1339.96 284.36 1339.96 305.76"/><polygon class="cls-5" points="1370.4 295.79 1349 302.71 1349 281.3 1370.4 274.39 1370.4 295.79"/><polygon class="cls-5" points="1400.85 285.64 1379.44 292.55 1379.44 271.15 1400.85 264.23 1400.85 285.64"/><polygon class="cls-5" points="428.8 492.8 152.07 575.88 152.07 193.03 428.8 109.95 428.8 492.8"/><polygon class="cls-3" points="382.89 363.52 202.66 417.39 202.66 315.62 382.89 261.75 382.89 363.52"/><polygon class="cls-6" points="382.89 418.51 316.59 438.7 316.59 383.57 382.89 363.39 382.89 418.51"/><polygon class="cls-6" points="382.89 211.31 321.36 230.83 321.36 204.53 382.89 185 382.89 211.31"/><line class="cls-7" x1="288.61" y1="391.7" x2="288.61" y2="290.21"/><line class="cls-7" x1="241.17" y1="405.88" x2="241.17" y2="304.45"/><line class="cls-7" x1="362.9" y1="423.74" x2="362.9" y2="267.45"/><line class="cls-5" x1="200.78" y1="299.29" x2="381.01" y2="245.42"/><line class="cls-5" x1="200.78" y1="283.85" x2="381.01" y2="229.98"/><text class="cls-8" transform="matrix(1, -0.3, 0, 1, 199.11, 262.64)">IN<tspan class="cls-9" x="26.69" y="0">V</tspan><tspan x="43.08" y="0">OICE</tspan></text><polyline class="cls-3" points="576.67 547.97 576.67 420.66 807.43 491.33 807.43 567.01"/><polygon class="cls-10" points="807.43 491.33 1038.19 420.66 1038.19 554.02 807.43 568.16 807.43 491.33"/><polygon class="cls-5" points="1038.19 419.52 807.43 348.85 576.67 419.52 807.43 491.33 1038.19 419.52"/><polygon class="cls-11" points="653.84 409.23 774.16 371.96 933.59 421.23 813.27 458.49 653.84 409.23"/><polygon class="cls-12" points="1415.04 640.37 1037.25 752.69 991.37 738.56 537.13 873.61 110.59 742.23 576.29 603.77 622.19 617.91 1076.41 482.86 1302.76 552.58 1415.04 521.84 1415.04 640.37"/><polyline class="cls-3" points="603.16 428.77 807.43 491.33 807.43 568.16 1038.19 638.83 1038.19 745.93 606.82 613.83"/><polygon class="cls-10" points="1272.94 674.03 1038.19 745.93 1038.19 638.83 1272.94 566.92 1272.94 674.03"/><polygon class="cls-5" points="1272.94 566.92 1038.19 496.34 807.43 568.16 1038.19 638.83 1272.94 566.92"/><line class="cls-7" x1="999.92" y1="500.77" x2="1037.61" y2="511.41"/><polygon class="cls-3" points="537.4 862.9 129.09 741.35 129.09 684.71 537.4 806.27 537.4 862.9"/><polygon class="cls-10" points="984.98 729.77 537.4 864.14 537.4 807.51 984.98 673.14 984.98 729.77"/><polygon class="cls-5" points="984.98 673.14 576.67 549.98 490.92 575.1 129.09 684.36 537.4 807.51 984.98 673.14"/><polygon class="cls-11" points="543.65 731.53 597.45 714.87 668.74 736.9 614.94 753.57 543.65 731.53"/><polygon class="cls-12" points="752.16 960.34 805.96 943.67 877.25 965.71 823.45 982.37 752.16 960.34"/><polygon class="cls-12" points="851.88 992.03 905.68 975.37 976.97 997.4 923.17 1014.06 851.88 992.03"/><polygon class="cls-12" points="1158.53 873.5 1387.35 806.31 1573.07 865.17 1344.26 932.37 1158.53 873.5"/><polygon class="cls-11" points="287.2 690.23 341.01 673.56 412.3 695.59 358.49 712.26 287.2 690.23"/><polygon class="cls-5" points="403.04 695.02 362.66 708.83 294.79 689.1 294.79 650.13 313.52 643.72 313.52 532.92 294.41 527.37 294.41 498.92 313.52 488.81 353.84 475.04 384.06 483.77 384.06 650.53 403.04 656.05 403.04 695.02"/><polygon class="cls-6" points="362.66 669.86 362.66 708.83 294.79 689.1 294.79 650.13 313.52 655.58 313.52 532.92 294.41 527.37 294.41 498.92 313.46 488.85 313.52 488.81 343.69 497.58 343.69 664.34 362.66 669.86"/><line class="cls-5" x1="362.66" y1="708.83" x2="403.04" y2="695.02"/><line class="cls-5" x1="362.66" y1="669.86" x2="403.04" y2="656.05"/><line class="cls-5" x1="343.69" y1="664.34" x2="384.06" y2="650.53"/><line class="cls-5" x1="343.69" y1="497.58" x2="384.06" y2="483.77"/><line class="cls-5" x1="313.52" y1="488.81" x2="353.9" y2="475"/><line class="cls-5" x1="294.79" y1="650.13" x2="313.52" y2="643.72"/><path class="cls-5" d="M574.69,539.38c0,34.74-9.73,62.82-24.86,78.16l-14.23,9.92-43.08,14.83a36.64,36.64,0,0,1-22.2.22c-35.35-10.27-64-66.92-64-126.53,0-48.41,18.92-83.89,45-90l37.48-13a36.68,36.68,0,0,1,21.92-.14C546,423.13,574.69,479.78,574.69,539.38Z"/><path class="cls-7" d="M499.87,582.75c-14.64-13.75-25.49-42.38-26.06-73.09-.25-13.61,1.58-25.57,4.95-35"/><path class="cls-6" d="M470.31,426.67c-35.34-10.27-64,29.71-64,89.31s28.66,116.25,64,126.53,64-29.71,64-89.31S505.66,437,470.31,426.67Zm0,177.72c-19.65-6.89-36.14-43.12-36.84-80.91s14.66-62.85,34.3-56,36.14,43.12,36.84,80.91S489.92,611.28,470.28,604.39Z"/><path class="cls-10" d="M574.69,539.38c0,34.74-9.73,62.82-24.86,78.16l-14.23,9.92-43.08,14.83a36.64,36.64,0,0,1-22.2.22c-35.35-10.27-64-66.92-64-126.53,0-48.41,18.92-83.89,45-90l37.48-13a36.68,36.68,0,0,1,21.92-.14C546,423.13,574.69,479.78,574.69,539.38Z"/><path class="cls-7" d="M499.87,582.75c-14.64-13.75-25.49-42.38-26.06-73.09-.25-13.61,1.58-25.57,4.95-35"/><path class="cls-6" d="M470.31,426.67c-35.34-10.27-64,29.71-64,89.31s28.66,116.25,64,126.53,64-29.71,64-89.31S505.66,437,470.31,426.67Zm0,177.72c-19.65-6.89-36.14-43.12-36.84-80.91s14.66-62.85,34.3-56,36.14,43.12,36.84,80.91S489.92,611.28,470.28,604.39Z"/><polygon class="cls-5" points="661.96 719.73 621.59 733.54 553.72 713.81 553.72 674.84 572.45 668.43 572.45 557.64 553.34 552.08 553.34 523.63 572.45 513.53 612.76 499.75 642.99 508.48 642.99 675.24 661.96 680.76 661.96 719.73"/><polyline class="cls-5" points="612.76 499.75 612.82 499.71 642.99 508.48 642.99 675.24 661.96 680.76 661.96 719.73 661.96 719.73"/><polygon class="cls-6" points="621.59 694.58 621.59 733.54 553.72 713.81 553.72 674.84 572.45 680.29 572.45 557.64 553.34 552.08 553.34 523.63 572.38 513.57 572.45 513.53 602.61 522.3 602.61 689.06 621.59 694.58"/><line class="cls-5" x1="621.59" y1="733.54" x2="661.96" y2="719.73"/><line class="cls-5" x1="621.59" y1="694.57" x2="661.96" y2="680.76"/><line class="cls-5" x1="602.61" y1="689.06" x2="642.99" y2="675.24"/><line class="cls-5" x1="602.61" y1="522.3" x2="642.99" y2="508.48"/><line class="cls-5" x1="572.45" y1="513.53" x2="612.82" y2="499.71"/><line class="cls-5" x1="553.71" y1="674.84" x2="572.45" y2="668.44"/><polygon class="cls-6" points="1421.86 828.42 1249.35 774.25 1249.35 643.75 1421.86 697.92 1421.86 828.42"/><polygon class="cls-3" points="1376.17 880.49 1203.66 826.31 1203.66 789.12 1376.17 843.3 1376.17 880.49"/><polygon class="cls-10" points="1375.58 880.33 1568.03 820.39 1568.03 783.2 1375.58 843.14 1375.58 880.33"/><polygon class="cls-10" points="1568.03 783.31 1421.86 828.42 1421.86 671.27 1568.03 626.15 1568.03 783.31"/><line class="cls-7" x1="1438.38" y1="823.33" x2="1376.17" y2="843.3"/><line class="cls-7" x1="1249.35" y1="774.24" x2="1203.66" y2="789.12"/><path class="cls-5" d="M1356.34,656.66v170.1c0,.6.75,1.15,2,1.6a32,32,0,0,0,16.55,0c1.26-.45,2-1,2-1.6V656.66c0,.59-.75,1.15-2,1.6a32.24,32.24,0,0,1-16.55,0C1357.09,657.81,1356.34,657.25,1356.34,656.66Z"/><path class="cls-5" d="M1317.72,646.76V816.87c0,.59.76,1.14,2,1.6a32.2,32.2,0,0,0,16.54,0c1.27-.46,2-1,2-1.6V646.76c0,.6-.75,1.15-2,1.6a32.2,32.2,0,0,1-16.54,0C1318.48,647.91,1317.72,647.36,1317.72,646.76Z"/><path class="cls-5" d="M1279.11,633.52V803.63c0,.59.76,1.14,2,1.6a32.2,32.2,0,0,0,16.54,0c1.27-.46,2-1,2-1.6V633.52c0,.6-.75,1.15-2,1.6a32.2,32.2,0,0,1-16.54,0C1279.87,634.67,1279.11,634.12,1279.11,633.52Z"/><path class="cls-5" d="M1240.5,648.05V791.5c0,.6.76,1.15,2,1.6a31.92,31.92,0,0,0,16.54,0c1.27-.45,2-1,2-1.6V648.05c0,.6-.75,1.15-2,1.6a31.92,31.92,0,0,1-16.54,0C1241.26,649.2,1240.5,648.65,1240.5,648.05Z"/><polyline class="cls-5" points="1389.88 717.42 1456.68 695.98 1438.94 701.54 1595.91 653.09 1496.57 531.05 1291.52 591.13"/><polygon class="cls-11" points="1473.68 687.98 1438.86 638.76 1472.46 627.83 1473.68 687.98"/><polygon class="cls-11" points="1420.91 619.71 1386.1 570.49 1454.44 548.96 1494.05 595.79 1420.91 619.71"/><polygon class="cls-3" points="1389.88 717.42 1291.52 591.13 1202.74 660.3 1389.88 717.42"/><polygon class="cls-5" points="1456.92 752.36 1705.38 674.97 1705.38 544.36 1456.92 621.74 1456.92 752.36"/><polygon class="cls-5" points="1470.46 733.43 1691.85 664.46 1691.85 562.97 1470.46 631.94 1470.46 733.43"/><polygon class="cls-13" points="1632.73 627.6 1670.67 615.78 1670.67 598.38 1632.73 610.2 1632.73 627.6"/><line class="cls-7" x1="1491.21" y1="685.82" x2="1672.12" y2="629.46"/><line class="cls-14" x1="1602.82" y1="673.63" x2="1672.12" y2="652.04"/><line class="cls-7" x1="1602.82" y1="612.99" x2="1672.12" y2="591.4"/><line class="cls-14" x1="1491.21" y1="708.4" x2="1559.02" y2="687.27"/><line class="cls-7" x1="1491.21" y1="671.78" x2="1617.93" y2="632.3"/><path class="cls-7" d="M1618.32,675.57l5.47-5a21.53,21.53,0,0,0,4.24-4.71c2-3.37,2-7.53,1.92-11.45,0-1.52-.16-3.27-1.39-4.15a3.2,3.2,0,0,0-4.17.92,6.49,6.49,0,0,0-1,4.49c.38,4.58,3.92,9.28,8.52,9.13,4.77-.15,8-5.26,8.5-10,.19-1.65-.22-3.83-1.86-4.08a2.57,2.57,0,0,0-2.43,1.42c-1.34,2.28-.12,5.52,2.23,6.73a6.86,6.86,0,0,0,7.39-1.17,10.72,10.72,0,0,0,3.34-7,5.8,5.8,0,0,0-.39-3.2,2.61,2.61,0,0,0-2.64-1.51c-1.49.27-2.15,2.33-1.35,3.62a3.75,3.75,0,0,0,4,1.39,8.18,8.18,0,0,0,3.77-2.43,21.33,21.33,0,0,0,3.86-5.42"/><polygon class="cls-6" points="1561.79 548.06 1455.46 582.39 1455.46 476.06 1561.79 441.73 1561.79 548.06"/><polygon class="cls-5" points="1545.95 537.33 1471.3 561.43 1471.3 486.79 1545.95 462.68 1545.95 537.33"/><line class="cls-7" x1="1482.57" y1="501.39" x2="1511.84" y2="532.11"/><line class="cls-7" x1="1580.87" y1="443.18" x2="1511.84" y2="532.11"/><polygon class="cls-5" points="966.07 559.55 890.89 582.57 890.89 559.21 966.07 536.19 966.07 559.55"/><polygon class="cls-5" points="890.89 559.21 844.47 545 844.47 568.36 890.89 582.57 890.89 559.21"/><polygon class="cls-5" points="966.07 536.19 919.65 521.77 844.47 545 890.89 559.42 966.07 536.19"/><line class="cls-7" x1="890.89" y1="565.16" x2="966.07" y2="542.2"/><line class="cls-7" x1="890.89" y1="570.9" x2="966.07" y2="547.94"/><line class="cls-7" x1="890.89" y1="576.64" x2="966.07" y2="553.68"/><line class="cls-7" x1="844.47" y1="562.46" x2="890.89" y2="576.64"/><line class="cls-7" x1="844.47" y1="556.72" x2="890.89" y2="570.9"/><line class="cls-7" x1="844.47" y1="550.98" x2="890.89" y2="565.16"/><line class="cls-7" x1="867.61" y1="537.91" x2="914.03" y2="552.09"/><line class="cls-7" x1="897.06" y1="529.34" x2="941.67" y2="542.96"/><line class="cls-7" x1="915.01" y1="574.98" x2="915.01" y2="552.09"/><line class="cls-7" x1="942.16" y1="566.69" x2="942.16" y2="543.8"/><polygon class="cls-5" points="1107.24 556.55 1182.42 579.57 1182.42 556.21 1107.24 533.19 1107.24 556.55"/><polygon class="cls-5" points="1182.42 556.21 1228.85 542 1228.85 565.36 1182.42 579.57 1182.42 556.21"/><polygon class="cls-5" points="1107.24 533.19 1153.67 518.77 1228.85 542 1182.42 556.42 1107.24 533.19"/><line class="cls-7" x1="1182.42" y1="562.16" x2="1107.25" y2="539.2"/><line class="cls-7" x1="1182.42" y1="567.9" x2="1107.25" y2="544.94"/><line class="cls-7" x1="1182.42" y1="573.64" x2="1107.25" y2="550.68"/><line class="cls-7" x1="1228.85" y1="559.46" x2="1182.42" y2="573.64"/><line class="cls-7" x1="1228.85" y1="553.72" x2="1182.42" y2="567.9"/><line class="cls-7" x1="1228.85" y1="547.98" x2="1182.42" y2="562.16"/><line class="cls-7" x1="1205.71" y1="534.91" x2="1159.29" y2="549.09"/><line class="cls-7" x1="1176.26" y1="526.34" x2="1131.64" y2="539.96"/><line class="cls-7" x1="1158.31" y1="571.98" x2="1158.31" y2="549.09"/><line class="cls-7" x1="1131.16" y1="563.69" x2="1131.16" y2="540.8"/><polygon class="cls-3" points="644.84 362.88 833.67 420.71 833.67 409.18 644.84 351.35 644.84 362.88"/><polygon class="cls-10" points="833.67 409.18 976.19 365.04 976.19 376.57 833.67 420.71 833.67 409.18"/><polygon class="cls-5" points="644.84 350.83 787.36 306.69 976.19 365.04 833.67 409.18 644.84 350.83"/><polygon class="cls-5" points="807.32 142.25 995.41 200.6 976.19 365.04 788.1 306.69 807.32 142.25"/><polygon class="cls-4" points="818.89 157.51 981.21 207.87 964.62 349.78 802.3 299.42 818.89 157.51"/><polygon class="cls-5" points="889.66 105.34 969.38 128.88 948.48 312.66 825.99 274.66 841.19 136.87 889.66 105.34"/><polygon class="cls-5" points="842.57 136.87 884.47 148.97 889.66 105.34 842.57 136.87"/><polygon class="cls-4" points="728.13 359.8 762.69 349.3 827.91 370.29 793.36 380.78 728.13 359.8"/><polygon class="cls-5" points="908.8 153.52 946.7 165.28 942.82 198.4 904.93 186.65 908.8 153.52"/><line class="cls-5" x1="938.49" y1="216.47" x2="856.88" y2="191.15"/><line class="cls-5" x1="936.57" y1="229.98" x2="854.96" y2="204.66"/><line class="cls-5" x1="934.65" y1="244.56" x2="853.03" y2="219.24"/><path class="cls-7" d="M874.24,263.36l8.76,1a25.43,25.43,0,0,0,7.54.09c4.59-.87,8.3-4.13,11.76-7.27,1.34-1.22,2.79-2.71,2.61-4.51s-2.22-3.13-4.09-3a7.7,7.7,0,0,0-4.81,2.64c-3.8,3.93-5.21,10.79-1.47,14.79,3.88,4.15,11,3,15.63-.25,1.63-1.12,3.25-3.21,2.18-4.87a3,3,0,0,0-3.18-1.06c-3.09.6-5,4.23-4.26,7.29a8.17,8.17,0,0,0,6.85,5.69,12.76,12.76,0,0,0,8.88-2.51,6.85,6.85,0,0,0,2.56-2.86,3.11,3.11,0,0,0-.72-3.55c-1.42-1.12-3.78-.09-4.31,1.64a4.48,4.48,0,0,0,1.93,4.7,9.73,9.73,0,0,0,5.14,1.46,25.21,25.21,0,0,0,7.88-.81"/><line class="cls-15" x1="927.63" y1="284.51" x2="882.64" y2="270.55"/><line class="cls-7" x1="927.63" y1="284.51" x2="927.63" y2="284.51"/><line class="cls-16" x1="923.88" y1="283.34" x2="884.51" y2="271.13"/><line class="cls-7" x1="882.64" y1="270.55" x2="882.64" y2="270.55"/><line class="cls-17" x1="989.8" y1="344.05" x2="989.8" y2="344.05"/><line class="cls-18" x1="1005.12" y1="348.81" x2="1012.79" y2="351.18"/><line class="cls-17" x1="1020.45" y1="353.56" x2="1020.45" y2="353.56"/><line class="cls-19" x1="1022.35" y1="339.71" x2="1051.75" y2="125"/><line class="cls-17" x1="1052.69" y1="118.07" x2="1052.69" y2="118.07"/><line class="cls-20" x1="1039.14" y1="114.06" x2="896.86" y2="71.95"/><line class="cls-17" x1="890.08" y1="69.95" x2="890.08" y2="69.95"/><line class="cls-17" x1="890.08" y1="69.95" x2="890.08" y2="69.95"/><line class="cls-21" x1="877.05" y1="73.85" x2="714.16" y2="122.61"/><line class="cls-17" x1="707.68" y1="124.65" x2="707.68" y2="124.65"/><line class="cls-22" x1="707.68" y1="141.13" x2="707.68" y2="149.37"/><line class="cls-17" x1="707.68" y1="157.61" x2="707.68" y2="157.61"/><circle class="cls-5" cx="974.89" cy="337.04" r="24.51"/><circle class="cls-6" cx="974.89" cy="337.04" r="14.92"/><polygon class="cls-6" points="747.89 240.65 535.26 304.3 535.26 109.28 747.89 45.63 747.89 240.65"/><path class="cls-7" d="M571.48,218.3l18.34-10c5.26-2.86,10.6-5.79,14.78-10.07,7.75-7.92,10.52-19.31,13-30.11,1-4.18,1.75-9.07-1-12.32s-8.57-3.05-12-.28-5.07,7.27-5.77,11.65c-2,12.81,4.54,28.07,17.23,30.76,13.2,2.79,25.37-9.07,30-21.72,1.63-4.4,2-10.65-2.38-12.44C641,162.69,638,164,636,166c-5.2,5.36-4,15.06,1.62,20s14.39,5.16,21,1.76,11.31-9.92,13.85-16.94c1.05-2.89,1.78-6,1.09-9s-3.16-5.76-6.23-5.93c-4.27-.25-7.45,5-6.13,9s5.83,6.49,10.11,6.51,8.35-1.88,12-4.13A60.12,60.12,0,0,0,697.57,155"/><line class="cls-15" x1="588.28" y1="225.85" x2="694.97" y2="192.75"/><line class="cls-23" x1="588.28" y1="225.85" x2="588.28" y2="225.85"/><line class="cls-24" x1="601.62" y1="221.72" x2="688.3" y2="194.82"/><line class="cls-23" x1="694.97" y1="192.75" x2="694.97" y2="192.75"/><circle class="cls-5" cx="634.52" cy="93.72" r="29.53"/><circle class="cls-10" cx="634.52" cy="93.72" r="17.97"/><line class="cls-7" x1="562.19" y1="350.99" x2="564.15" y2="357.4"/><polygon class="cls-5" points="566.33 352.88 559.81 354.88 541.01 327.88 566.84 319.99 566.33 352.88"/><path class="cls-5" d="M540.86,327.39,475.62,113.82c-.23-.75.51-1.73,1.92-2.78a42,42,0,0,1,20.77-6.35c1.77.08,2.92.49,3.15,1.23L566.69,319.5c-.23-.75-1.38-1.15-3.15-1.23a42.17,42.17,0,0,0-20.76,6.34C541.37,325.66,540.63,326.64,540.86,327.39Z"/><path class="cls-5" d="M481.49,110.79,473.91,86c-.12-.39.26-.9,1-1.44a18.21,18.21,0,0,1,5.18-2.36,18.79,18.79,0,0,1,5.61-.94c.92,0,1.52.25,1.63.64l7.58,24.81"/><path class="cls-5" d="M487.48,82.4c.12.39-.26.9-1,1.45a21.87,21.87,0,0,1-10.78,3.29c-.91,0-1.52-.25-1.63-.64"/><path class="cls-5" d="M494.88,106.62c.12.39-.26.89-1,1.44a18.55,18.55,0,0,1-5.17,2.36,18.79,18.79,0,0,1-5.61.94c-.92,0-1.52-.26-1.64-.64"/><path class="cls-5" d="M475.77,114.31,541,327.89c.22.74,1.39,1.15,3.14,1.23A35.71,35.71,0,0,0,555,327.31a35.32,35.32,0,0,0,10-4.54c1.42-1,2.15-2,1.92-2.78L501.61,106.42c.23.75-.5,1.72-1.92,2.78a42.17,42.17,0,0,1-20.77,6.34C477.16,115.46,476,115.06,475.77,114.31Z"/><path class="cls-5" d="M505.32,118.56c.23.75-.5,1.73-1.92,2.78a35.27,35.27,0,0,1-10,4.54,35.71,35.71,0,0,1-10.8,1.81c-1.76-.09-2.92-.49-3.15-1.24"/><path class="cls-5" d="M550,264.79c.23.75-.5,1.73-1.92,2.78a35.32,35.32,0,0,1-10,4.54,35.76,35.76,0,0,1-10.81,1.81c-1.75-.09-2.92-.49-3.15-1.24"/><polyline class="cls-7" points="494.47 207.08 493.34 203.39 486.89 182.28 469.3 124.7 478.12 122"/><path class="cls-7" d="M498.69,194.44a11.72,11.72,0,0,1-4.17,12.81l-6.45-21.11A11.73,11.73,0,0,1,498.69,194.44Z"/><path class="cls-4" d="M541.15,328.36c.23.75,1.39,1.15,3.15,1.23a42.17,42.17,0,0,0,20.77-6.34c1.42-1.06,2.15-2,1.92-2.78l-17-55.68c.23.75-.5,1.73-1.92,2.78a35.32,35.32,0,0,1-10,4.54,35.76,35.76,0,0,1-10.81,1.81c-1.75-.09-2.92-.49-3.15-1.24L541,327.89c.22.74,1.39,1.15,3.14,1.23A35.71,35.71,0,0,0,555,327.31a35.32,35.32,0,0,0,10-4.54c1.42-1,2.15-2,1.92-2.78L550,264.79"/><polygon class="cls-11" points="935.29 583.79 1032.78 554.67 1144.83 589.29 1047.35 618.42 935.29 583.79"/><polygon class="cls-5" points="857.56 858.06 923.42 878.23 923.42 857.76 857.56 837.59 857.56 858.06"/><polygon class="cls-5" points="923.42 857.76 964.1 845.31 964.1 865.78 923.42 878.23 923.42 857.76"/><polygon class="cls-5" points="857.56 837.59 898.24 824.96 964.1 845.31 923.42 857.94 857.56 837.59"/><line class="cls-7" x1="923.42" y1="862.97" x2="857.56" y2="842.85"/><line class="cls-7" x1="923.42" y1="868" x2="857.56" y2="847.88"/><line class="cls-7" x1="923.42" y1="873.03" x2="857.56" y2="852.91"/><line class="cls-7" x1="964.1" y1="860.61" x2="923.42" y2="873.03"/><line class="cls-7" x1="964.1" y1="855.58" x2="923.42" y2="868"/><line class="cls-7" x1="964.1" y1="850.55" x2="923.42" y2="862.97"/><polygon class="cls-6" points="849.61 960.54 803.41 974.37 803.41 959.92 849.61 946.09 849.61 960.54"/><polygon class="cls-6" points="803.45 959.92 757.25 946.09 757.25 960.54 803.45 974.37 803.45 959.92"/><polygon class="cls-6" points="849.61 946.09 803.45 959.92 757.25 946.09 803.45 932.58 849.61 946.09"/><polygon class="cls-6" points="910.91 674.88 884.05 682.8 722.84 633.89 749.71 625.85 910.91 674.88"/><polygon class="cls-6" points="830.29 748.24 803.42 756.28 803.42 731.64 830.29 723.6 830.29 748.24"/><polygon class="cls-6" points="830.29 723.48 803.42 731.53 803.42 706.88 830.29 698.84 830.29 723.48"/><polygon class="cls-6" points="803.44 731.64 776.57 723.6 776.57 748.24 803.44 756.28 803.44 731.64"/><polygon class="cls-6" points="803.44 706.88 776.57 698.84 776.57 723.48 803.44 731.53 803.44 706.88"/><polygon class="cls-6" points="830.29 796.96 803.42 805 803.42 780.36 830.29 772.32 830.29 796.96"/><polygon class="cls-6" points="830.29 772.2 803.42 780.25 803.42 755.61 830.29 747.56 830.29 772.2"/><polygon class="cls-6" points="803.44 780.36 776.57 772.32 776.57 796.96 803.44 805 803.44 780.36"/><polygon class="cls-6" points="803.44 755.61 776.57 747.56 776.57 772.2 803.44 780.25 803.44 755.61"/><polygon class="cls-6" points="830.29 845.68 803.42 853.73 803.42 829.08 830.29 821.04 830.29 845.68"/><polygon class="cls-6" points="830.29 820.93 803.42 828.97 803.42 804.33 830.29 796.28 830.29 820.93"/><polygon class="cls-6" points="803.44 829.08 776.57 821.04 776.57 845.68 803.44 853.73 803.44 829.08"/><polygon class="cls-6" points="803.44 804.33 776.57 796.28 776.57 820.93 803.44 828.97 803.44 804.33"/><polygon class="cls-6" points="830.29 895.18 803.42 903.23 803.42 878.59 830.29 870.54 830.29 895.18"/><polygon class="cls-6" points="830.29 870.43 803.42 878.47 803.42 853.83 830.29 845.79 830.29 870.43"/><polygon class="cls-6" points="803.44 878.59 776.57 870.54 776.57 895.18 803.44 903.23 803.44 878.59"/><polygon class="cls-6" points="803.44 853.83 776.57 845.79 776.57 870.43 803.44 878.47 803.44 853.83"/><polygon class="cls-6" points="830.29 944.35 803.42 952.4 803.42 927.75 830.29 919.71 830.29 944.35"/><polygon class="cls-6" points="830.29 919.6 803.42 927.64 803.42 903 830.29 894.96 830.29 919.6"/><polygon class="cls-6" points="803.44 927.75 776.57 919.71 776.57 944.35 803.44 952.4 803.44 927.75"/><polygon class="cls-6" points="803.44 903 776.57 894.96 776.57 919.6 803.44 927.64 803.44 903"/><polygon class="cls-6" points="830.29 699.52 803.42 707.56 803.42 682.92 830.29 674.88 830.29 699.52"/><polygon class="cls-6" points="803.44 682.92 776.57 674.88 776.57 699.52 803.44 707.56 803.44 682.92"/><polygon class="cls-6" points="803.44 658.16 776.57 650.12 776.57 674.76 803.44 682.8 803.44 658.16"/><polygon class="cls-6" points="830.29 666.58 803.42 658.53 803.42 683.18 830.29 691.22 830.29 666.58"/><polygon class="cls-6" points="857.18 674.5 830.31 666.46 830.31 691.1 857.18 699.15 857.18 674.5"/><polygon class="cls-6" points="884 682.92 857.13 674.88 857.13 699.52 884 707.56 884 682.92"/><polygon class="cls-6" points="884.05 682.8 884.05 707.45 910.91 715.49 884.05 682.8"/><polygon class="cls-6" points="776.57 650.24 749.71 642.19 749.71 666.83 776.57 674.88 776.57 650.24"/><polygon class="cls-6" points="749.71 641.82 722.84 633.78 722.84 658.42 749.71 666.46 749.71 641.82"/><polygon class="cls-6" points="937.78 707.45 910.91 715.49 884.05 682.92 910.91 674.88 937.78 707.45"/><polygon class="cls-6" points="851.18 613.57 808.77 626.26 766.36 614.15 808.77 601.45 851.18 613.57"/><polygon class="cls-6" points="808.77 626.26 766.36 613.57 766.36 652.46 808.77 665.16 808.77 626.26"/><polygon class="cls-5" points="798.48 632.62 776.65 626.09 776.65 646.1 798.48 652.63 798.48 632.62"/><polygon class="cls-6" points="851.18 652.46 808.77 665.16 808.77 626.26 851.18 613.57 851.18 652.46"/><polygon class="cls-5" points="841.08 646.22 818.87 652.87 818.87 632.5 841.08 625.85 841.08 646.22"/><polygon class="cls-6" points="918.02 831.59 878.51 844.01 878.51 864.31 902.3 871.58 902.3 851.41 943.83 839.1 918.02 831.59"/><line class="cls-7" x1="878.51" y1="844.01" x2="902.3" y2="851.41"/><line class="cls-7" x1="899.28" y1="837.75" x2="923.06" y2="845.15"/><line class="cls-7" x1="910.91" y1="715.49" x2="910.91" y2="840.69"/><polyline class="cls-5" points="989.53 449 1078.92 422.81 1135.53 492.36 1046.07 519.97"/><polygon class="cls-5" points="1046.07 616.16 940.49 583 940.49 486.81 1046.07 519.97 1046.07 616.16"/><polygon class="cls-10" points="1135.53 588.54 1046.07 616.16 1046.07 519.97 1135.53 492.36 1135.53 588.54"/><polyline class="cls-5" points="989.53 449 940.49 486.81 1046.07 519.97"/><line class="cls-5" x1="1046.07" y1="519.97" x2="989.53" y2="449"/><polygon class="cls-6" points="1015.62 568.51 1031.06 573.27 1031.06 546.52 1015.62 541.75 1015.62 568.51"/><polygon class="cls-6" points="1085.98 569.82 1070.54 574.58 1070.54 547.83 1085.98 543.06 1085.98 569.82"/><polygon class="cls-6" points="1116.02 560.94 1100.58 565.7 1100.58 538.95 1116.02 534.18 1116.02 560.94"/><polygon class="cls-6" points="954.97 547.88 968.79 552.65 968.79 525.89 954.97 521.12 954.97 547.88"/><polygon class="cls-6" points="980.38 595.52 1005.41 603.39 1005.41 537.27 980.38 529.08 980.38 595.52"/><polygon class="cls-4" points="1135.53 492.36 1046.07 519.97 940.49 486.81 1029.94 458.98 1135.53 492.36"/><line class="cls-7" x1="967.28" y1="466.15" x2="967.28" y2="495.28"/><line class="cls-7" x1="1011.78" y1="477.14" x2="1011.78" y2="509.11"/><line class="cls-7" x1="988.84" y1="450.44" x2="988.84" y2="501.26"/><line class="cls-5" x1="1061.33" y1="515.26" x2="1004.95" y2="444.48"/><line class="cls-5" x1="1077.11" y1="510.24" x2="1021.1" y2="439.94"/><line class="cls-5" x1="1092.92" y1="504.92" x2="1037.23" y2="435.02"/><line class="cls-5" x1="1108.36" y1="500.94" x2="1052.69" y2="431.07"/><line class="cls-5" x1="1123.35" y1="495.47" x2="1068.13" y2="426.15"/><line class="cls-5" x1="1029.94" y1="458.98" x2="940.49" y2="486.59"/><line class="cls-5" x1="1029.94" y1="458.98" x2="1135.53" y2="492.13"/><line class="cls-5" x1="1046.07" y1="519.97" x2="989.53" y2="449"/><ellipse class="cls-25" cx="482.77" cy="701.91" rx="16.14" ry="54.09" transform="translate(-293.95 1051.84) rotate(-79.73)"/><polygon class="cls-10" points="642.99 675.38 602.61 689.2 602.61 522.44 642.99 508.62 642.99 675.38"/><polygon class="cls-10" points="661.96 719.73 621.59 733.54 621.59 694.58 661.96 680.76 661.96 719.73"/><polygon class="cls-26" points="661.96 680.82 621.59 694.63 602.61 689.12 642.99 675.3 661.96 680.82"/><polygon class="cls-10" points="384.13 650.57 343.75 664.38 343.75 497.62 384.13 483.81 384.13 650.57"/><polygon class="cls-10" points="403.04 695.02 362.66 708.83 362.66 669.86 403.04 656.05 403.04 695.02"/><polygon class="cls-26" points="403.1 656.2 362.73 670.02 343.75 664.5 384.13 650.68 403.1 656.2"/><path class="cls-26" d="M499.87,582.74c-5.93,17.15-16.86,26.11-29.6,21.64-19.64-6.89-36.14-43.11-36.84-80.91s14.66-62.84,34.31-56a30.94,30.94,0,0,1,11,7.15c-3.36,9.41-5.19,21.38-4.94,35C474.38,540.37,485.23,569,499.87,582.74Z"/><path class="cls-5" d="M474.74,471.29q-.67-.5-1.35-.93C473.84,470.64,474.29,471,474.74,471.29Z"/><path class="cls-5" d="M499.87,582.74c-14.64-13.74-25.49-42.37-26.06-73.08-.25-13.61,1.58-25.58,4.94-35C493.21,488.56,504,518,504.58,548.43,504.83,561.72,503.09,573.44,499.87,582.74Z"/></g><g id="Shadows"><path class="cls-27" d="M563,296.9c7.72.2,14.31-4.09,21.43-6.48a16.88,16.88,0,0,0-1.19-2.26q-8.41-13-15.63-26.69-3.71-7.05-7-14.27c-1.11-2.41-2.19-4.83-3.26-7.26l-.45-1c-.5-1.21-1-2.43-1.48-3.64a334,334,0,0,1-17.66-60.14,13.86,13.86,0,0,0-2-4.81c.18,14.93.82,29.91-1.52,44.68.62,2,1.23,4,1.85,6q4.53,14.84,9.17,29.66c2.64,8.38,4,17.41,7.16,25.63a143.25,143.25,0,0,1,8.45,21A4.88,4.88,0,0,1,563,296.9Z"/><path class="cls-27" d="M429,413.21a4.31,4.31,0,0,1,.48-2.54,49.4,49.4,0,0,1,.09-7.88,6.48,6.48,0,0,1,.31-1.38c-.27-3.7-.46-7.4-.54-11.11a18.21,18.21,0,0,0-12.64,12.43c-.89,3-1.83,6.08-2.88,9.09-.57,1.63-1.18,3.24-1.79,4.86l0,.08c-.26.57-1,2.42-1,2.44-1.34,2.89-2.8,5.72-4.41,8.47-.74,1.25-1.5,2.49-2.31,3.7-.52.8-1.12,1.56-1.63,2.37a76.58,76.58,0,0,1-6.15,6.46l-1.24,1.06-.12.06c-1.45.8-2.78,1.82-4.24,2.62-.71.39-1.43.75-2.16,1.1l-.22.08c-2,.69-3.92,1.3-5.93,1.81q-2.6.65-5.22,1.12c-.88.16-1.77.27-2.64.45a4.42,4.42,0,0,0-.86.14l-.57.07c-15.91,1.88-32.22,3.2-47.36,8.8-16.8,6.23-30.61,16.13-40.71,31.07-9.57,14.15-14.23,31.33-18,47.8a19.25,19.25,0,0,0-.43,5.56c6.71-2.74,13.91-4,20.93-5.77,3.62-.91,7.33-1.54,10.88-2.72,1.41-.47,3.55-1,4.61-2.14.82-.86,1-1.24.61-1.61a40.41,40.41,0,0,1-4.39-.27c-3.36-.43-5.52-2.84-4.82-6.33,1.72-8.61-4.68-19,3.28-25.7a40.89,40.89,0,0,1,19.84-8.81c.18-.1.37-.21.57-.3a157.11,157.11,0,0,1,16.61-6.45c5.11-1.62,10-4,15.32-4.93a4.13,4.13,0,0,1,4.87-1.23c1.71.62,3.42,1.24,5.11,1.89a58.56,58.56,0,0,1,11.15,2.3c3.74,1.08,8.64,2.39,11.32,5.44,3.68,4.18,1.91,11,1.71,16-.05,1.22-.12,2.49-.11,3.71,0,1.6.32,1.23.1,1a2.16,2.16,0,0,0,1.29.32c3.32-1,6.72-1.56,10.09-2.63,4.29-1.37,7.87-3.31,12.32-3.7a58.22,58.22,0,0,0,.23-6.49c-.18-7.42,2-14.18,4.27-21.17,3.41-10.52,7.17-22.75,15.65-30.37a5.48,5.48,0,0,1,1.34-.89C429.37,431.83,430,422.51,429,413.21Z"/></g></g></svg>