<?xml version="1.0" encoding="utf-8"?>
<!-- Generator: Adobe Illustrator 23.0.1, SVG Export Plug-In . SVG Version: 6.00 Build 0)  -->
<svg version="1.1" id="Layer_1" xmlns="http://www.w3.org/2000/svg" xmlns:xlink="http://www.w3.org/1999/xlink" x="0px" y="0px"
	 viewBox="0 0 1464.78 888.61" style="enable-background:new 0 0 1464.78 888.61;" xml:space="preserve">
<style type="text/css">
	.st0{opacity:0.15;fill:#9DC7E0;enable-background:new    ;}
	.st1{opacity:0.25;fill:#9DC7E0;enable-background:new    ;}
	.st2{fill:#EDF4F8;stroke:#0C1733;stroke-width:2;stroke-linecap:round;stroke-linejoin:round;}
	.st3{fill:#CFDDE5;stroke:#0C1733;stroke-width:2;stroke-linecap:round;stroke-linejoin:round;}
	.st4{fill:#FFFFFF;stroke:#0C1733;stroke-width:2;stroke-linecap:round;stroke-linejoin:round;}
	.st5{fill:#EDF4F8;stroke:#EDF4F8;stroke-linecap:round;stroke-linejoin:round;}
	.st6{fill:#A3BDCC;stroke:#0C1733;stroke-width:2;stroke-linecap:round;stroke-linejoin:round;}
	.st7{fill:#F9EF35;stroke:#0C1733;stroke-width:2;stroke-linecap:round;stroke-linejoin:round;}
	.st8{fill:none;stroke:#0C1733;stroke-width:2;stroke-linecap:round;stroke-linejoin:round;}
	.st9{fill:none;stroke:#0C1733;stroke-width:2;stroke-linecap:round;stroke-linejoin:round;stroke-dasharray:0,10.61;}
	.st10{fill:#FFFFFF;stroke:#000000;stroke-width:2;stroke-linecap:round;stroke-linejoin:round;}
	.st11{fill:none;stroke:#000000;stroke-width:2;stroke-linecap:round;stroke-linejoin:round;}
	.st12{opacity:0.6;}
	.st13{fill:#CFDDE5;stroke:#CFDDE5;stroke-width:2.6;stroke-linecap:round;stroke-linejoin:round;}
	.st14{fill:none;stroke:#0C1733;stroke-width:2.7;stroke-linecap:round;stroke-linejoin:round;}
</style>
<title>State Statutes</title>
<g>
	<g>
		<path class="st0" d="M14.39,674.8c74.72,65.69,278.42,14.61,373.41,115.57c113.86,121,376.4,125.06,537.82,40.48
			c87.9-46.06,162.21-79.15,251.16-89.76c92.05-20.56,264.73-22.87,287.74-115.22c9.86-76.34-222.54-121.81-288.17-157.1
			c-83-59.72-190.39-37.37-300.19-30.37c-258.27,5.38-510.67,52.95-751.3,123.3C63.63,577.61-37.61,629.13,14.39,674.8z"/>
		<path class="st1" d="M1375.81,508.06l-136.23-18l-9.42-13.79l-37.57-55l-32.09-0.92v-11.43l-15-4.53l-26.39-2l-10.84-5.64v-39.9
			l-29,2.67l-10.88-3.32l-71.29-38l-45.09,8.9v99.38l-10.17,5.32l-97.35-20.5l-26.34,16.6v-18l-12.1-3.66l-96,28.81l-20.55-6.19
			L140.9,544.61v7.68l-26.67,2.75v77.82l82.81,55.06l53.17,23.54l139.81,26.67l45.85-3l67.62,5.52l55.9-8.62l0,0l102.71-7.87
			l44.81-9.63l14.48-3.04v-5l28.75-6.49l53.66,1.11l35,6.72l40.12-2.55v-11.86l25.47-4.62l119.1,11.91l44.82-7.71v-50l77.57-14.2
			l-0.07-20.5l24.34-10.23l87.75-10.74l1.86,0.75l0.6,0.25l2.2,0.89l1.07,0.43l1.91,0.78l1.43,0.57c2.14,0.9,4.37,1.79,6.33,2.57
			l1.84,0.73l1.08,0.43l0.52,0.2l1.16,0.46l0.71,0.28l0.18,0.07l0.16,0.06c0.84,0.24,65.43,2.92,96.37,4.18l1.46,0.06l2.82,0.12
			l5.15,0.21l2.16,0.09l1.83,0.07h0.43l0.9,0.05l1.41,0.06V522.8L1375.81,508.06z"/>
		<polygon class="st2" points="521.21,484.43 323.48,424.97 323.48,296.32 521.21,355.79 		"/>
		<polygon class="st3" points="737.95,419.36 521.21,484.43 521.21,355.79 737.95,290.72 		"/>
		<polygon class="st4" points="737.95,290.72 540.23,231.08 498.7,243.24 323.48,296.15 521.21,355.79 		"/>
		<polygon class="st5" points="667.41,291.64 536.99,252.31 509.6,260.33 394.03,295.23 524.45,334.56 		"/>
		<polygon class="st2" points="428.94,275.25 428.94,48.99 583.89,1 583.89,227.27 		"/>
		<polygon class="st2" points="446.15,280.62 446.15,54.35 601.1,6.37 601.1,232.63 		"/>
		<polygon class="st2" points="463.36,285.81 463.36,59.54 618.32,11.55 618.32,237.82 		"/>
		<polygon class="st2" points="480.57,290.79 480.57,64.52 635.53,16.53 635.53,242.8 		"/>
		<polygon class="st2" points="497.79,295.87 497.79,69.6 652.74,21.61 652.74,247.88 		"/>
		
			<ellipse transform="matrix(0.5608 -0.828 0.828 0.5608 210.3307 498.8055)" class="st4" cx="575.31" cy="51.16" rx="24.1" ry="17.92"/>
		
			<ellipse transform="matrix(0.5608 -0.828 0.828 0.5608 210.3389 498.8011)" class="st6" cx="575.31" cy="51.15" rx="14.67" ry="10.9"/>
		<path class="st7" d="M699.32,120.42c-0.39,0.09-0.78,0.14-1.18,0.14c-2.31-0.01-4.31-1.59-4.85-3.83l-1.38-5.68
			c-6.4,10.84-13.7,21.13-21.82,30.75c-18.31,21.88-50.73,52.8-101.2,75.83c-33,15-65.71,23.43-94.74,24.29
			c-1.68,0.05-3.34,0.07-5,0.07c-22,0-40.83-4.38-53.45-12.5c-8.87-5.7-13.75-12.87-13.75-20.19c0-25.15,24.11-34.08,25.13-34.45
			c0.59-0.21,1.22-0.31,1.85-0.29v10.36c-4.47,2.08-17,9.25-17,24.38c0,3.74,3.34,8,9.16,11.78c17.9,11.51,68.29,21.82,143.62-12.55
			c48.58-22.17,79.78-51.83,97.4-72.81c7.67-9.09,14.59-18.79,20.69-29l-5.7,2.3c-2.43,1.31-5.46,0.4-6.77-2.03
			c-1.31-2.43-0.4-5.46,2.03-6.77c0.33-0.18,0.67-0.31,1.03-0.41l18.39-7.42c0.21-0.08,0.42-0.15,0.64-0.2h0.05l0,0
			c0.29-0.07,0.59-0.11,0.89-0.12h0.28c0.21,0,0.42,0,0.63,0h0.27c0.28,0.05,0.56,0.12,0.83,0.22h0.08c0.24,0.09,0.48,0.21,0.7,0.34
			l0.23,0.14c0.17,0.11,0.33,0.24,0.49,0.37l0.22,0.19l0.12,0.11c0.12,0.13,0.23,0.27,0.34,0.41c0.04,0.04,0.08,0.09,0.12,0.14
			c0.17,0.24,0.32,0.49,0.45,0.75c0,0.07,0.06,0.15,0.1,0.22c0.09,0.22,0.17,0.44,0.23,0.66c0,0.05,0,0.09,0,0.14l4.5,18.59
			c0.68,2.68-0.94,5.4-3.62,6.08C699.33,120.42,699.32,120.42,699.32,120.42z"/>
		<path class="st8" d="M523.63,163.7l13.91-7.57c4-2.18,8-4.39,11.2-7.63c5.87-6,8-14.64,9.84-22.83c0.72-3.17,1.32-6.87-0.8-9.34
			s-6.49-2.31-9.12-0.21s-3.84,5.51-4.37,8.83c-1.55,9.71,3.44,21.28,13.06,23.32c10,2.11,19.23-6.88,22.78-16.47
			c1.23-3.33,1.47-8.07-1.81-9.43c-2-0.82-4.29,0.19-5.78,1.72c-3.94,4.06-3,11.41,1.23,15.12s10.91,3.92,16,1.34
			s8.57-7.52,10.5-12.84c0.92-2.16,1.21-4.54,0.82-6.85c-0.52-2.27-2.39-4.36-4.71-4.49c-3.25-0.19-5.65,3.76-4.65,6.85
			s4.41,4.92,7.66,4.94s6.33-1.43,9.09-3.14c4.06-2.52,7.69-5.66,10.77-9.31"/>
		<line class="st9" x1="536.37" y1="172.5" x2="617.24" y2="147.41"/>
		<path class="st1" d="M854.04,780.5c-14.71-3.83-65.47,4.93-112.79,19.46l-72.71,22.32c-47.32,14.54-74,29.56-59.28,33.39
			s65.47-4.93,112.79-19.46l72.71-22.33C842.08,799.35,868.76,784.33,854.04,780.5z"/>
		<path class="st10" d="M1267,561.55l6.33,2.56C1271.39,563.34,1269.14,562.44,1267,561.55z"/>
		<path class="st10" d="M1375.39,570.53c-30.94-1.26-95.53-3.94-96.37-4.19L1375.39,570.53z"/>
		<polygon class="st2" points="995.34,322.49 952.05,341.6 952.05,297.75 		"/>
		<polygon class="st10" points="982.04,362.02 954.49,370.31 954.49,370.3 		"/>
		<polygon class="st2" points="1391.51,493.39 1391.51,571.2 1390.1,571.14 1389.19,571.1 1388.76,571.08 1386.94,571.01 
			1384.78,570.92 1379.63,570.71 1376.81,570.59 1375.35,570.53 1372.36,570.41 1278.98,566.35 1278.82,566.29 1278.64,566.22 
			1277.93,565.95 1276.77,565.48 1276.25,565.28 1275.17,564.85 1273.33,564.12 1271.82,563.51 1268.61,562.22 1266.99,561.56 
			1265.57,560.98 1263.66,560.2 1262.59,559.77 1260.39,558.88 1259.79,558.63 1257.93,557.89 1170.18,568.62 1145.64,578.87 
			1145.64,501.06 1169.79,490.86 1204.12,486.65 1257.93,480.08 1278.98,488.54 1383.31,493.04 1385.67,493.14 1386.72,493.19 
			1387.8,493.23 1388.76,493.27 1389.19,493.29 1390.1,493.33 1391.51,493.39 		"/>
		<polygon class="st3" points="1145.64,501.06 1145.64,578.87 1141.76,580.51 1141.76,522.9 1113.87,514.49 1133.42,506.23 		"/>
		<polygon class="st10" points="1170.18,568.62 1141.76,580.57 1141.76,580.51 1145.64,578.87 		"/>
		<polygon class="st10" points="1383.31,493.04 1278.98,488.54 1383.31,493.04 		"/>
		<polygon class="st2" points="1145.64,524.08 1145.91,599.35 1068.34,613.55 1068.34,585.77 1049.04,579.96 1049.04,539.11 		"/>
		<polygon class="st3" points="1049.04,539.11 1049.04,579.95 1021.02,571.5 		"/>
		<polygon class="st2" points="1068.34,585.77 1068.34,663.58 1023.51,671.29 904.42,659.38 878.87,664.03 878.87,598.08 
			868.86,588.05 904.42,581.57 1021.02,593.24 1023.51,593.49 		"/>
		<polygon class="st2" points="878.87,598.08 878.87,675.88 838.75,678.43 803.78,671.71 750.12,670.6 750.12,592.8 803.78,593.9 
			838.75,600.63 868.86,598.71 		"/>
		<polygon class="st3" points="750.12,592.8 750.12,670.6 721.37,677.09 721.37,604.29 714.66,600.78 		"/>
		<polygon class="st2" points="706.93,607.39 706.93,685.2 662.12,694.82 559.4,702.69 559.39,702.69 559.39,624.89 662.12,617.01 
					"/>
		<polygon class="st2" points="559.39,624.89 559.39,702.69 503.49,711.31 435.87,705.79 390.02,708.74 250.21,682.07 
			197.03,658.53 197.03,581.18 197.74,581.04 250.19,604.27 390.02,630.93 435.87,627.98 503.49,633.51 		"/>
		<polygon class="st2" points="197.03,580.72 197.03,658.53 114.23,603.47 114.23,525.65 		"/>
		<polygon class="st10" points="205.75,579.34 197.74,581.04 197.03,581.18 197.03,580.72 		"/>
		<polygon class="st2" points="714.66,605.73 706.93,607.39 706.93,685.2 721.37,682.1 721.37,677.09 721.37,604.29 		"/>
		<polygon class="st7" points="1239.58,460.71 1195.45,473.96 1168.88,481.94 1168.85,481.95 1168.84,481.95 1075.94,453.92 
			1102.88,445.83 1109.64,445.89 1230.16,446.92 		"/>
		<path class="st10" d="M954.49,370.29L954.49,370.29l27.55-8.29L954.49,370.29z M941.61,480.12h0.23l0.53-0.27L941.61,480.12z"/>
		<path class="st10" d="M1075.94,453.91l26.94-8.08l6.76,0.05l120.52,1l-37.57-55l-32.09-0.93l-11.52-0.33l-12.83-3.82l24.35-7.31
			l-15-4.53l-26.39-2l-10.84-5.64l-5.19-2.7l-11.14-5.8l11.14-21.4l0,0l-24.58-1.4l-25.37,12.78l-20.69-5l36-17l-71.29-38
			l-45.09,8.9l43.33,24.79L952.1,341.6l30,20.42l-27.55,8.29l0,0l-2.44,0.74l2.61,2.95l5.51,6.2l0,0l7.79,8.8l-15.91,8.14
			l-10.21,5.22l-60.34,18.12l-21.53,6.46l-44.87-13.54l-36.55-11l39.6-21.82l-12.1-3.65l-96,28.81l-20.55-6.19L140.9,515.22v7.68
			l-26.67,2.75l82.81,55.07l8.72-1.38l0,0l82.5-13l120-21l43.13-8.25l15.55-3l-14.68-6.75l-37.57-17.3l120.59-26.49l45.11,16.79
			l34.42,12.78l-91.82,20.68l76,30.59l63.11,25.13l44.78,17.82l7.73-1.65l6.71-1.44l-6.66-3.45l35.46-8l-5.87-1.77l70.14-17.52
			l-90.28-31.9l56.16-14.08l43.2,13.75l25.73-4.57l34.6-2.58l20.86-7.44l7.4-0.59l17.6-6l25.22-3l30.32,9.15l38.94,5.37l25,7.52
			l96.6-15l-31.77-9.59l-19.31-5.81l-37.4,11.22l-71.89-34.92l38.92-11.69l109.1,32.87l12.21-5.16l-20.18-6.09l43.38-13
			L1075.94,453.91z M964.3,477.8l-12.63-0.73l-9.3,2.79l-0.53,0.27h-0.23l-60.3,18.1l-4.46,1.34l-61.24-18.48l-32.37-3.48
			l-11.45-1.24l30.09-9l32.72-9.83l111.31,8.3l15.08,4.56l14.07,4.25L964.3,477.8z"/>
		<polygon class="st7" points="941.84,402.36 881.5,420.48 815.1,400.44 818.15,398.53 818.15,398.52 844.49,381.91 		"/>
		<polygon class="st7" points="706.93,607.39 662.12,617.01 559.39,624.89 514.45,604.29 495.69,595.69 507.21,592.22 
			494.76,586.32 578.5,568.75 599.03,564.43 662.15,589.56 		"/>
		<polygon class="st7" points="1391.51,493.39 1390.1,493.33 1389.19,493.29 1388.76,493.27 1387.8,493.23 1386.72,493.19 
			1385.67,493.14 1383.31,493.04 1278.98,488.54 1257.93,480.08 1204.12,486.65 1169.79,490.86 1145.64,501.06 1125.45,494.97 
			1168.84,481.95 1168.85,481.95 1168.88,481.94 1195.45,473.96 1239.58,460.71 1375.81,478.67 1391.51,493.39 		"/>
		<polygon class="st7" points="1108.23,327.46 1103.03,337.43 1078.45,336.03 1053.13,348.78 1032.44,343.81 1068.42,326.81 
			1079.26,330.13 		"/>
		<polygon class="st7" points="1133.42,506.23 1113.87,514.49 1094.56,508.67 1057.16,519.9 985.26,484.97 1024.19,473.29 		"/>
		<polygon class="st7" points="975.06,474.61 964.3,477.83 951.66,477.1 942.37,479.89 941.61,480.12 881.31,498.23 876.85,499.56 
			815.61,481.09 783.24,477.6 771.79,476.37 801.88,467.33 834.6,457.5 945.91,465.8 960.99,470.37 		"/>
		<polygon class="st7" points="521.2,607.39 358.15,587.39 306.06,563.22 408.26,545.32 494.76,586.32 507.21,592.22 495.68,595.69 
			514.45,604.29 		"/>
		<polygon class="st7" points="559.39,624.89 503.48,633.51 435.86,627.98 390.02,630.93 250.19,604.26 197.74,581.04 
			205.75,579.34 205.78,579.34 288.28,566.33 306.06,563.22 358.15,587.39 521.2,607.39 		"/>
		<polygon class="st10" points="205.75,579.34 197.74,581.04 197.03,580.72 		"/>
		<polygon class="st7" points="1068.34,585.77 1023.51,593.49 1021.02,593.24 904.42,581.57 868.86,588.05 878.87,598.08 
			868.86,598.71 838.75,600.63 803.78,593.9 750.12,592.8 744.25,591.03 814.34,573.51 724.06,541.61 780.22,527.54 823.42,541.28 
			849.15,536.72 883.74,534.13 904.61,526.69 912,526.1 929.6,520.07 954.83,517.06 985.15,526.21 1024.09,531.58 1049.04,539.11 
			1021.02,571.5 1049.04,579.95 1049.04,579.96 		"/>
		<polygon class="st7" points="599.03,564.43 578.5,568.75 494.76,586.32 408.26,545.32 451.33,537.09 466.89,534.13 485.73,541.71 
			522.98,533.84 		"/>
		<polygon class="st7" points="614.81,513.12 522.98,533.84 485.73,541.71 466.89,534.13 452.21,527.38 414.64,510.08 
			535.23,483.59 580.39,500.34 		"/>
		<polygon class="st3" points="1160.49,379.54 1160.49,391.05 1148.98,390.72 1136.14,386.85 		"/>
		<polygon class="st3" points="1108.23,327.46 1108.23,367.35 1103.03,364.64 1103.03,337.43 		"/>
		<polygon class="st3" points="1103.03,337.44 1103.03,364.64 1091.9,358.84 		"/>
		<line class="st11" x1="1133.43" y1="506.23" x2="1133.43" y2="519.9"/>
		<line class="st11" x1="815.1" y1="413.41" x2="815.1" y2="413.4"/>
		<polygon class="st2" points="881.5,420.48 859.97,426.94 815.1,413.39 815.1,400.44 		"/>
		<polygon class="st3" points="818.15,380.56 818.15,398.53 815.1,400.44 815.1,413.39 778.55,402.37 		"/>
		<polygon class="st2" points="982.04,362.02 952.05,371.03 952.05,341.6 		"/>
		<polygon class="st10" points="982.04,362.02 954.49,370.31 954.49,370.3 		"/>
		<polygon class="st2" points="967.95,388.99 952.05,397.13 952.05,371.03 954.66,373.98 960.17,380.18 960.17,380.2 		"/>
		<g class="st12">
			<polygon class="st13" points="782.33,513.11 660.44,551.53 620.62,537.99 742.51,499.57 			"/>
		</g>
		<path class="st5" d="M260.69,525.31c0-2.32-4.75-4.43-12.54-6c-8.6-1.74-20.91-2.83-34.57-2.83s-26,1.09-34.57,2.83
			c-7.77,1.57-12.54,3.68-12.54,6c-0.01,0.1-0.01,0.19,0,0.29c0,0.1,0,0.2,0,0.3c0,2.31,4.77,4.42,12.54,6
			c8.6,1.74,20.91,2.83,34.57,2.83s26-1.09,34.57-2.83c7.79-1.58,12.54-3.69,12.54-6c0.01-0.1,0.01-0.2,0-0.3
			C260.7,525.5,260.7,525.41,260.69,525.31z"/>
		<path class="st6" d="M781.3,264.51c-1.47-1.25-2.72-2.73-3.69-4.4l6.78-14.21v-30.68l-19.17-8l0,0c-2.74-1.32-5.87-1.6-8.8-0.78
			c-2.33,0.63-4.79,0.59-7.1-0.11l-3.93-18.87l-14.91-5.82c-0.94-0.52-1.95-0.91-3-1.16l-0.27-0.1l0,0
			c-5.68-1.3-12.31,1.41-17.88,8.53l0,0c-6.62,8.45-15.26,11.16-21.87,6.87c-10.58-6.87-25,4.39-29.39,23
			c-2.78,11.62-9.77,21.12-17.68,24.02c-12.72,4.7-21.63,25.14-18.17,41.68l0,0c2.17,10.35-0.5,23-6.75,32.07l0,0
			c-10,14.47-10,36.28,0,44.48c6.25,5.12,8.92,16.11,6.75,27.82c-2.4,13,1.17,24.12,7.84,28.61l0,0h0.07
			c1.33,0.88,2.82,1.49,4.38,1.8l15.4,6.36l4.59-1.19c1.65,2.3,2.87,4.87,3.59,7.61l0,0c1.51,5.44,4.23,9.23,7.55,11.36v0.05
			l0.21,0.09c1.23,0.76,2.58,1.3,4,1.6l16.8,6.76l11.05-23.28c3.83-1.51,8.15-1.07,11.6,1.18l0,0c10.57,6.87,25-4.4,29.38-23
			c2.75-11.62,9.74-21.12,17.7-24.06c12.71-4.7,21.62-25.14,18.16-41.69c-2.17-10.35,0.5-23,6.76-32.06l0,0
			C791.3,294.52,791.3,272.7,781.3,264.51z"/>
		<path class="st6" d="M732.75,490.56l-34.86-10.76c-1.42-0.33-2.91,0.13-3.89,1.22l-34.86,32.62c-3.23,3-6.84,0.75-6.84-4.32
			V264.18c0-3.9,2.19-7.74,4.9-8.59l77.49-24.33c2.7-0.85,4.9,1.62,4.9,5.51v245.16C739.59,487.01,735.98,491.55,732.75,490.56z"/>
		<path class="st3" d="M726.44,436.57L726.44,436.57c-6.62-4.29-15.25-1.58-21.87,6.87l0,0c-10.58,13.51-25,11.29-29.39-4.52l0,0
			c-2.75-9.89-9.73-15-17.69-13l0,0c-12.72,3.29-21.62-11.57-18.16-30.28l0,0c2.17-11.71-0.5-22.7-6.76-27.82l0,0
			c-10-8.2-10-30,0-44.48l0,0c6.26-9.06,8.93-21.72,6.76-32.07l0,0c-3.46-16.54,5.44-37,18.16-41.68l0,0
			c8-2.94,14.94-12.44,17.69-24.06l0,0c4.4-18.57,18.81-29.84,29.39-23l0,0c6.62,4.3,15.25,1.58,21.87-6.87l0,0
			c10.58-13.51,25-11.29,29.39,4.52l0,0c2.75,9.89,9.73,15,17.69,13l0,0c12.72-3.28,21.63,11.57,18.16,30.28l0,0
			c-2.16,11.71,0.51,22.7,6.76,27.82l0,0c10,8.2,10,30,0,44.48l0,0c-6.25,9.06-8.92,21.72-6.76,32.07l0,0
			c3.47,16.54-5.44,37-18.16,41.68l0,0c-8,2.94-14.94,12.44-17.69,24.06l0,0C751.39,432.17,737.02,443.44,726.44,436.57z"/>
		
			<ellipse transform="matrix(0.2436 -0.9699 0.9699 0.2436 231.2341 935.6099)" class="st7" cx="715.46" cy="319.56" rx="99.11" ry="63.42"/>
		<polyline class="st14" points="670.14,348 697.78,379.12 760.87,268.5 		"/>
		<path class="st2" d="M841.44,755.1c-10.42,6.74-29,17.84-45.46,22.53l-63.23,18.17c-42.28,12.18-82.2,14.47-109.9,11.62
			c10.51-9.77,3.67-17.8,37.89-27.55l63.59-18c22.66-6.41,81.3-14.45,90.11-15.63L841.44,755.1z"/>
		<path class="st3" d="M852.49,753.56c0,0-7,15-11.43,20.52s-20.3,21.07-70.42,35.47l-50.12,14.39
			c-53.85,15.51-96.54,3.29-109.71-10.93c0,0,68.32,3.31,123.3-12.53l63.22-18.13C822.68,775.11,852.49,753.56,852.49,753.56z"/>
		<polygon class="st3" points="744,795.76 691.3,778.4 729.9,764.73 782.6,782.09 		"/>
		<path class="st7" d="M857.39,752.8c-0.28-1.82-1.56-3.33-3.31-3.91l-37.58-12.38c-0.7-0.24-1.45-0.31-2.18-0.21
			c-2.75,0.36-67.52,9-92.61,16.06l-63.61,18c-30.21,9.44-50.27,38.44-51.24,39.72c-1.61,2.19-1.15,5.27,1.04,6.88
			c0.84,0.62,1.86,0.96,2.91,0.96h0.23c4-0.19,69.53,3.1,124.43-12.72l63.21-18.13c25.88-7.39,55.44-28.63,56.69-29.52
			C856.89,756.48,857.68,754.64,857.39,752.8z M796.03,777.62l-63.28,18.18c-42.28,12.18-80.17,10.56-109.9,11.62
			c10.51-9.77,3.67-17.8,37.89-27.55l63.59-18c22.66-6.41,81.3-14.45,90.11-15.63l27,8.9c-10.42,6.66-29.05,17.8-45.46,22.49
			L796.03,777.62z"/>
		<path class="st3" d="M729.91,576.16v201.7c0,1.07,2.82,1.94,6.3,1.94s6.3-0.87,6.3-1.94v-201.7H729.91z"/>
		<ellipse class="st2" cx="736.21" cy="576.16" rx="6.3" ry="1.94"/>
		<path class="st4" d="M729.91,576.16c-76,60.77-107.06,231.22-107.06,231.22l107.06-42.65V576.16z"/>
		<path class="st4" d="M742.51,576.16c36,88.92,103.47,146.42,103.47,146.42l-103.47,19.9V576.16z"/>
		<path class="st3" d="M845.98,722.58l-103.47,19.9V750l103.47-19.9c1.93-0.47,3.28-2.2,3.26-4.18
			C849.24,723.8,847.75,722.24,845.98,722.58z"/>
		<path class="st6" d="M178.87,266.8c0,0.28-0.06,0.56-0.1,0.83l-33,10.71c1-9.19,4-15.53,8.75-18.4c3.32-2,7.5-2.27,12.46-0.7
			C171.56,260.63,175.67,263.24,178.87,266.8z"/>
		<polygon class="st6" points="214.96,377.6 214.96,424.77 181.93,435.48 181.93,388.31 182.54,388.1 		"/>
		<polygon class="st3" points="214.96,377.6 182.54,388.1 181.93,388.31 149.5,378.06 175.06,369.78 181.93,371.96 182.54,371.76 
			189.4,369.54 189.42,369.54 		"/>
		<path class="st3" d="M149.5,378.06v47.17l32.43,10.24V388.3L149.5,378.06z"/>
		<path class="st6" d="M251.39,286.13c0,19.15-2.73,32.34-21.2,45.91c-11.25,8.19-15.22,14.46-15.22,26.33v2.86l-25.58,8.31l0,0
			l-6.85,2.26l-0.61,0.21v-2.87c0-0.53,0-1,0-1.55c0.19-6.25,1.61-10.91,4.81-15.22c2.4-3.22,5.79-6.23,10.37-9.58
			c18.5-13.62,21.28-26.8,21.28-45.99c-0.01-3.26-0.24-6.51-0.7-9.74c-1.84-13.68-7.14-26.67-15.4-37.74
			c-8.54-11.3-20.4-19.63-33.93-23.82c-3.08-0.98-6.22-1.76-9.41-2.31c-7.33-1.22-13.48-0.81-18.66,0.81l32-10.39l0.74-0.24
			c7.28-2.35,16.56-2.31,28.36,1.43C238.64,226.6,251.39,262.96,251.39,286.13z"/>
		<path class="st3" d="M218.39,296.8c0,19.16-2.73,32.34-21.19,45.91c-4.58,3.35-8,6.36-10.37,9.58c-3.2,4.31-4.62,9-4.81,15.22
			c0,0.5,0,1,0,1.55v2.87l-6.96-2.13l-25.56-8.08v-5.75c0-18.88,4.59-30.79,22.6-44.75c10.46-7.92,14.16-12.56,14.18-23.17
			c0-7.41-2.13-15.31-7.41-21.21c-3.21-3.56-7.34-6.18-11.93-7.56c-5-1.57-9.14-1.26-12.46,0.7c-4.79,2.87-7.79,9.21-8.75,18.4
			l-31-9.8c0.9-16.12,6.39-38.35,25.29-44.45l0.26-0.08c5.18-1.62,11.33-2,18.66-0.81c3.19,0.55,6.33,1.33,9.41,2.31
			c13.53,4.19,25.39,12.52,33.93,23.82c8.26,11.07,13.56,24.06,15.4,37.74C218.14,290.32,218.38,293.56,218.39,296.8z"/>
		<path class="st6" d="M892.69,123.05c0,0.21,0,0.43-0.07,0.64l-25.38,8.22c0.73-7.06,3-11.93,6.71-14.13
			c2.56-1.5,5.77-1.74,9.58-0.54C887.06,118.3,890.23,120.31,892.69,123.05z"/>
		<polygon class="st6" points="920.41,208.14 920.41,244.37 895.04,252.6 895.04,216.37 895.51,216.21 		"/>
		<polygon class="st3" points="920.41,208.14 895.51,216.21 895.04,216.37 870.13,208.5 889.76,202.13 895.04,203.81 895.51,203.66 
			900.78,201.95 900.79,201.95 		"/>
		<path class="st3" d="M870.13,208.49v36.24l24.91,7.86v-36.23L870.13,208.49z"/>
		<path class="st6" d="M948.39,137.88c0,14.71-2.1,24.84-16.29,35.26c-8.64,6.3-11.69,11.11-11.69,20.23v2.2l-19.61,6.38l0,0
			l-5.27,1.7l-0.47,0.16v-2.2c0-0.42,0-0.81,0-1.2c0.15-4.8,1.24-8.38,3.7-11.69c2.29-2.83,4.98-5.31,8-7.35
			c14.18-10.43,16.28-20.55,16.28-35.27c-0.01-2.5-0.19-5-0.54-7.48c-1.41-10.52-5.48-20.5-11.83-29
			c-6.55-8.68-15.67-15.08-26.06-18.29c-2.37-0.76-4.78-1.36-7.23-1.78c-4.76-0.93-9.67-0.71-14.33,0.63l24.58-8L888.2,82
			c5.6-1.8,12.73-1.78,21.79,1.09C938.6,92.16,948.39,120.08,948.39,137.88z"/>
		<path class="st3" d="M923.01,146.1c0,14.72-2.1,24.84-16.28,35.27c-3.02,2.04-5.71,4.52-8,7.35c-2.46,3.31-3.55,6.89-3.7,11.69
			c0,0.39,0,0.78,0,1.2v2.19l-5.28-1.68l-19.63-6.2v-4.42c0-14.5,3.53-23.65,17.36-34.37c8-6.08,10.88-9.65,10.89-17.8
			c0-5.69-1.63-11.76-5.69-16.29c-2.46-2.74-5.63-4.75-9.16-5.81c-3.81-1.2-7-1-9.58,0.54c-3.67,2.2-6,7.07-6.71,14.13l-23.84-7.51
			c0.7-12.39,4.91-29.46,19.43-34.15l0.2-0.05c4.66-1.34,9.57-1.56,14.33-0.63c2.45,0.42,4.86,1.02,7.23,1.78
			c10.39,3.21,19.51,9.61,26.06,18.29c6.35,8.5,10.42,18.48,11.83,29C922.82,141.1,923,143.6,923.01,146.1z"/>
		<path class="st6" d="M1140.39,106.21c0,0.26,0,0.53-0.08,0.79l-31.43,10.18c0.92-8.74,3.77-14.77,8.32-17.5
			c3.17-1.86,7.14-2.16,11.85-0.66C1133.42,100.33,1137.34,102.82,1140.39,106.21z"/>
		<polygon class="st6" points="1174.75,211.56 1174.75,256.42 1143.34,266.6 1143.34,221.74 1143.92,221.55 		"/>
		<polygon class="st3" points="1174.75,211.56 1143.92,221.55 1143.34,221.74 1112.5,212 1136.8,204.12 1143.34,206.19 1143.92,206 
			1150.45,203.89 1150.46,203.89 		"/>
		<path class="st3" d="M1112.5,211.99v44.86l30.84,9.74v-44.85L1112.5,211.99z"/>
		<path class="st6" d="M1209.39,124.57c0,18.21-2.6,30.75-20.17,43.66c-10.69,7.79-14.47,13.75-14.47,25v2.72l-24.28,7.9l0,0
			l-6.53,2.11l-0.58,0.19v-2.72c0-0.51,0-1,0-1.48c0.17-5.94,1.53-10.38,4.57-14.47c2.82-3.51,6.15-6.58,9.87-9.11
			c17.54-12.91,20.15-25.45,20.15-43.66c-0.01-3.1-0.23-6.2-0.67-9.27c-1.76-13.01-6.8-25.36-14.65-35.89
			c-8.12-10.72-19.39-18.63-32.24-22.61c-2.95-0.94-5.95-1.67-9-2.2c-7-1.16-12.82-0.77-17.74,0.78l30.44-9.88l0.7-0.23
			c6.93-2.24,15.76-2.2,27,1.35C1197.27,67.96,1209.39,102.53,1209.39,124.57z"/>
		<path class="st3" d="M1177.97,134.8c0,18.21-2.61,30.75-20.15,43.66c-3.72,2.53-7.05,5.6-9.87,9.11c-3,4.09-4.4,8.53-4.57,14.47
			c0,0.47,0,1,0,1.48v2.72l-6.54-2.07l-24.3-7.69v-5.47c0-18,4.36-29.27,21.49-42.55c10-7.53,13.47-11.94,13.49-22
			c0-7.05-2-14.56-7.06-20.17c-3.05-3.39-6.97-5.88-11.34-7.19c-4.71-1.5-8.68-1.2-11.85,0.66c-4.55,2.73-7.4,8.76-8.32,17.5
			l-29.56-9.4c0.86-15.33,6.08-36.47,24-42.27l0.25-0.07c4.92-1.55,10.78-1.94,17.74-0.78c3.05,0.53,6.05,1.26,9,2.2
			c12.86,3.98,24.15,11.91,32.27,22.65c7.85,10.53,12.89,22.88,14.65,35.89C1177.74,128.57,1177.97,131.68,1177.97,134.8z"/>
		<path class="st6" d="M1300.74,300.43c0,0.18,0,0.35-0.06,0.53l-20.8,6.74c0.61-5.79,2.5-9.78,5.51-11.58
			c2.09-1.24,4.72-1.44,7.84-0.45C1296.12,296.54,1298.72,298.19,1300.74,300.43z"/>
		<polygon class="st6" points="1323.46,370.17 1323.46,399.86 1302.67,406.6 1302.67,376.91 1303.06,376.78 		"/>
		<polygon class="st3" points="1323.46,370.17 1303.06,376.78 1302.67,376.91 1282.26,370.46 1298.34,365.24 1302.67,366.62 
			1303.06,366.49 1307.37,365.09 1307.39,365.09 		"/>
		<path class="st3" d="M1282.26,370.45v29.7l20.41,6.44V376.9L1282.26,370.45z"/>
		<path class="st6" d="M1346.39,312.59c0,12-1.72,20.35-13.35,28.89c-7.08,5.16-9.58,9.11-9.58,16.58v1.8l-16.07,5.23l0,0l-4.32,1.4
			l-0.39,0.12v-1.81c0-0.34,0-0.66,0-1c-0.07-3.43,0.99-6.8,3-9.58c1.87-2.31,4.07-4.33,6.53-6c11.62-8.54,13.34-16.84,13.34-28.9
			c-0.01-2.05-0.15-4.1-0.44-6.13c-1.16-8.61-4.5-16.79-9.7-23.75c-5.37-7.11-12.84-12.36-21.35-15c-1.94-0.62-3.92-1.1-5.93-1.45
			c-3.9-0.76-7.92-0.59-11.74,0.51l20.15-6.54l0.46-0.15c4.59-1.48,10.43-1.46,17.85,0.89
			C1338.39,275.12,1346.39,298,1346.39,312.59z"/>
		<path class="st3" d="M1325.59,319.32c0,12.06-1.72,20.36-13.34,28.9c-2.46,1.67-4.66,3.69-6.53,6c-2.01,2.78-3.07,6.15-3,9.58
			c0,0.32,0,0.64,0,1v1.8l-4.33-1.37l-16.08-5.09v-3.62c0-11.88,2.89-19.37,14.22-28.16c6.59-5,8.92-7.91,8.93-14.59
			c0.13-4.87-1.53-9.62-4.67-13.35c-2.02-2.24-4.62-3.89-7.51-4.76c-3.12-1-5.75-0.79-7.84,0.45c-3,1.8-4.9,5.79-5.51,11.58
			l-19.54-6.16c0.57-10.15,4-24.14,15.92-28l0.17-0.05c3.82-1.1,7.84-1.27,11.74-0.51c2.01,0.35,3.99,0.83,5.93,1.45
			c8.51,2.64,15.98,7.89,21.35,15c5.2,6.96,8.54,15.14,9.7,23.75C1325.47,315.21,1325.6,317.26,1325.59,319.32z"/>
	</g>
</g>
</svg>
