<svg xmlns="http://www.w3.org/2000/svg" viewBox="0 0 1200 937"><defs><style>.cls-1{isolation:isolate;}.cls-2,.cls-3{fill:#9dc7e0;}.cls-2{opacity:0.15;}.cls-3{opacity:0.25;mix-blend-mode:multiply;}.cls-4,.cls-6{fill:#fff;}.cls-4,.cls-5{stroke:#0c1733;stroke-linecap:round;stroke-linejoin:round;}.cls-4,.cls-5,.cls-6{stroke-width:2px;}.cls-5{fill:#f9ef35;}.cls-6{stroke:#000;stroke-miterlimit:10;}.cls-7{fill:#cfdde5;}.cls-8{fill:#a3bdcc;}.cls-9{fill:#edf4f8;}</style></defs><title>01_Vector</title><g class="cls-1"><g id="Layer_1" data-name="Layer 1"><path class="cls-2" d="M707.91,793c-160.95,51.51-549.12-82.15-511-272.61,13.32-66.44,154.15-48,286-65.06a555.15,555.15,0,0,0,56.56-10.09c126.19-30,242.26-154.33,347.85-141.92a29.68,29.68,0,0,1,4.75,1C969.38,326.48,1103.9,666.23,707.91,793Z"/><path class="cls-3" d="M892.06,304.26l-104.74,415h-348l43.58-264a555.15,555.15,0,0,0,56.56-10.09c126.19-30,242.26-154.33,347.85-141.92A29.68,29.68,0,0,1,892.06,304.26Z"/><rect class="cls-4" x="426.46" y="198.1" width="348.58" height="494.2"/><circle class="cls-5" cx="600.75" cy="198.1" r="52.8"/><circle class="cls-6" cx="600.75" cy="198.1" r="28.78"/><rect class="cls-7" x="474.95" y="275.49" width="257.31" height="20.58"/><rect class="cls-7" x="474.95" y="602.56" width="154.57" height="50.43"/><rect class="cls-8" x="474.95" y="326.91" width="54.56" height="20.58"/><rect class="cls-8" x="541.41" y="326.91" width="89.48" height="20.58"/><rect class="cls-8" x="642.79" y="326.91" width="89.48" height="20.58"/><rect class="cls-7" x="474.95" y="369.26" width="54.56" height="10.29"/><rect class="cls-9" x="541.41" y="369.26" width="89.48" height="10.29"/><rect class="cls-9" x="642.79" y="369.26" width="89.48" height="10.29"/><rect class="cls-7" x="474.95" y="401.32" width="54.56" height="10.29"/><rect class="cls-9" x="541.41" y="401.32" width="89.48" height="10.29"/><rect class="cls-9" x="642.79" y="401.32" width="89.48" height="10.29"/><rect class="cls-8" x="474.95" y="455.14" width="54.56" height="20.58"/><rect class="cls-8" x="541.41" y="455.14" width="89.48" height="20.58"/><rect class="cls-8" x="642.79" y="455.14" width="89.48" height="20.58"/><rect class="cls-7" x="474.95" y="497.48" width="54.56" height="10.29"/><rect class="cls-9" x="541.41" y="497.48" width="89.48" height="10.29"/><rect class="cls-9" x="642.79" y="497.48" width="89.48" height="10.29"/><rect class="cls-7" x="474.95" y="529.54" width="54.56" height="10.29"/><rect class="cls-9" x="541.41" y="529.54" width="89.48" height="10.29"/><rect class="cls-9" x="642.79" y="529.54" width="89.48" height="10.29"/><rect class="cls-7" x="474.95" y="561.6" width="54.56" height="10.29"/><rect class="cls-9" x="541.41" y="561.6" width="89.48" height="10.29"/><rect class="cls-9" x="642.79" y="561.6" width="89.48" height="10.29"/></g></g></svg>