<?xml version="1.0" encoding="utf-8"?>
<!-- Generator: Adobe Illustrator 23.0.1, SVG Export Plug-In . SVG Version: 6.00 Build 0)  -->
<svg version="1.1" id="Layer_1" xmlns="http://www.w3.org/2000/svg" xmlns:xlink="http://www.w3.org/1999/xlink" x="0px" y="0px"
	 viewBox="0 0 1200 937" style="enable-background:new 0 0 1200 937;" xml:space="preserve">
<style type="text/css">
	.st0{opacity:0.15;fill:#9DC7E0;enable-background:new    ;}
	.st1{fill:none;stroke:#0C1733;stroke-width:2;stroke-linecap:round;stroke-linejoin:round;}
	.st2{fill:#CFDDE5;}
	.st3{fill:#F5F8FA;}
	.st4{opacity:0.25;fill:#9DC7E0;enable-background:new    ;}
	.st5{fill:#A3BDCC;}
	.st6{fill:#FFFFFF;stroke:#0C1733;stroke-width:2;stroke-linecap:round;stroke-linejoin:round;}
	.st7{fill:#A3BDCC;stroke:#0C1733;stroke-width:2;stroke-linecap:round;stroke-linejoin:round;}
	.st8{fill:#F9EF35;stroke:#0C1733;stroke-width:2;stroke-linecap:round;stroke-linejoin:round;}
</style>
<title>01_Vector</title>
<g>
	<g>
		<path class="st0" d="M1025.2,591.8c-22.3,27.7-52.3,52.1-87.7,73.4c-3.1,1.9-6.3,3.8-9.5,5.6H213.9
			c-65.6-37.5-76.1-88.2-63.5-146.7c27.3-126.7,237.5-337.4,433.8-337.4C801.3,186.8,1158.6,426,1025.2,591.8z"/>
		<polyline class="st1" points="1041.5,670.8 932.8,670.8 204.2,670.8 158.7,670.8 		"/>
		<rect x="566.3" y="444.9" class="st2" width="331.2" height="226"/>
		<polygon class="st3" points="566.3,444.9 566.3,670.8 302.7,670.8 302.7,444.9 434.5,290.7 		"/>
		<rect x="302.4" y="643.3" class="st4" width="595.1" height="27.5"/>
		<polygon class="st2" points="765.7,290.7 434.5,290.7 566.3,444.9 897.5,444.9 		"/>
		<rect x="566.3" y="444.9" class="st1" width="331.2" height="226"/>
		<polyline class="st1" points="566.3,670.8 302.7,670.8 302.7,444.9 434.5,290.7 566.3,444.9 		"/>
		<polyline class="st1" points="897.5,444.9 765.7,290.7 434.5,290.7 		"/>
		<rect x="622.5" y="484.1" class="st5" width="80.2" height="80.2"/>
		<rect x="761.2" y="484.1" class="st5" width="80.2" height="80.2"/>
		<path class="st6" d="M910.1,389.1c-0.3,1.3-0.7,2.5-1.2,3.7c-5.9,15-21.3,24-37.2,21.7l-7.9-9.2l19.5-11.3l0,0
			c0.7-0.3,1.4-0.7,2-1.1c7-4.8,8.9-14.4,4.1-21.4c-2.1-3.1-5.2-5.3-8.8-6.2l-48.4-12.9c-4.1-1.1-8.6-0.4-12.2,1.9l-12.6-14.7
			c8.5-6.4,19.5-8.5,29.7-5.8l48.4,12.9C904,351.6,915,370.6,910.1,389.1L910.1,389.1z"/>
		<path class="st6" d="M755.8,563.8l-43.3,25.1c-11.9,6.9-26.7,6.1-37.8-2c-3.9-2.8-7.2-6.5-9.6-10.7c-0.9-1.5-1.6-3.1-2.3-4.7
			c-4.5-11.5-2.5-24.5,5.1-34.2l0,0c8.3,1.6,13.7,9.5,12.2,17.8c-0.1,0.3-0.2,0.6-0.2,1c-1.5,8.4,4.1,16.4,12.4,17.9
			c3.6,0.6,7.3,0,10.4-1.8l43.3-25.1c4.7-2.7,7.6-7.8,7.7-13.2c0.5-0.3,1.1-0.6,1.6-0.9l16.2-9.4
			C776.3,539.1,769.8,555.7,755.8,563.8z"/>
		<path class="st6" d="M761.1,507.5l-15.3,8.9c-2,1.1-4.2,1.8-6.5,2l0,0c-0.7-0.1-1.3-0.1-2,0l0,0c-2.3,0.2-4.5,0.8-6.5,2l-15.3,8.9
			l-18.1,10.5c-0.6-1.6-1.4-3.2-2.3-4.7c-2.4-4.2-5.7-7.8-9.6-10.7l19.5-11.3l16.2-9.4c0.5-0.3,1-0.6,1.6-0.9l0,0
			C735.3,496.5,750.4,498.4,761.1,507.5z"/>
		<path class="st6" d="M674.7,587L639,607.6c-16.5,9.6-37.8,4-47.4-12.5c-7.1-12.1-6.1-27.3,2.4-38.5c6.1,5.8,10.3,13.3,12.2,21.5
			l0,0c0,1.4,0.3,2.9,0.8,4.2l0,0c0.3,1,0.8,2,1.3,2.9c3.8,6.6,11.9,9.4,19,6.6c0.7-0.3,1.4-0.6,2-1l33.4-19.4
			c0.6,1.6,1.4,3.2,2.3,4.7C667.4,580.5,670.7,584.2,674.7,587z"/>
		<path class="st6" d="M692.2,574c-8.2-1.6-13.7-9.5-12.2-17.8c0.1-0.3,0.2-0.6,0.2-1c1.5-8.3-4-16.3-12.2-17.8l0,0
			c-3.6-0.7-7.4-0.1-10.6,1.8l-36.3,21c-2.8-5.8-6.5-11.2-11-15.9l37.6-21.8c16.6-9.5,37.7-3.9,47.3,12.7c0.9,1.5,1.6,3.1,2.3,4.7
			C701.8,551.3,699.8,564.3,692.2,574z"/>
		<path class="st6" d="M872.2,489.3l-43.3,25.1c-11.9,6.9-26.7,6.1-37.8-2c-3.9-2.8-7.2-6.5-9.6-10.6c-0.9-1.5-1.6-3.1-2.3-4.7
			c-4.5-11.5-2.5-24.5,5.1-34.2l0,0c8.3,1.6,13.7,9.5,12.2,17.8c-0.1,0.3-0.2,0.6-0.2,1c-0.7,3.6,0,7.3,1.8,10.4
			c4.3,7.4,13.7,9.9,21.1,5.6l43.3-25.1c4.7-2.7,7.6-7.8,7.7-13.2c0.5-0.3,1.1-0.6,1.6-0.9l16.2-9.4
			C892.7,464.6,886.2,481.2,872.2,489.3z"/>
		<path class="st6" d="M877.5,433l-15.3,8.9c-2,1.1-4.2,1.8-6.4,2l0,0c-0.7-0.1-1.4-0.1-2.1,0l0,0c-2.3,0.2-4.5,0.8-6.5,2l-15.3,8.9
			l-18.1,10.5c-2.4-6.2-6.5-11.5-11.9-15.4l19.5-11.3l16.2-9.4c0.5-0.3,1-0.6,1.6-0.9l0,0C851.7,422,866.8,423.8,877.5,433z"/>
		<path class="st6" d="M791.1,512.4l-19.5,11.3l-16.2,9.4c-0.5,0.3-1,0.6-1.6,0.9c-12.6,6.4-27.7,4.6-38.4-4.6l15.3-8.9
			c2-1.2,4.2-1.8,6.5-2l0,0c0.7,0,1.3,0,2,0l0,0c2.3-0.2,4.5-0.9,6.5-2l15.3-8.9l18.2-10.6c0.6,1.6,1.4,3.2,2.3,4.7
			C783.9,505.9,787.2,509.6,791.1,512.4z"/>
		<path class="st6" d="M808.6,499.5c-4.4-0.8-8.2-3.5-10.4-7.4c-1.8-3.2-2.5-6.9-1.8-10.4c0.1-0.3,0.2-0.6,0.2-1
			c1.5-8.3-4-16.3-12.2-17.8l0,0c-3.6-0.7-7.4-0.1-10.6,1.8l-43.3,25.1c-4.7,2.7-7.7,7.8-7.7,13.3l0,0c-0.5,0.3-1.1,0.5-1.6,0.9
			l-16.2,9.4c-4.7-15.4,1.9-32,15.8-40.1L764,448c16.6-9.6,37.8-4,47.4,12.6C818.5,472.9,817.4,488.4,808.6,499.5L808.6,499.5z"/>
		<path class="st6" d="M453.6,587.3c-11.1,8.1-25.9,8.9-37.8,2.1l-43.4-25c-16.6-9.6-22.3-30.7-12.8-47.3c1.9-3.4,4.4-6.4,7.3-8.9
			c10.7-9.2,25.9-11.1,38.4-4.7c0.1,8.2-6.3,15.1-14.6,15.5c-0.7-0.1-1.3-0.1-2,0c-5.2,0.3-9.9,3.2-12.5,7.7c-1.4,2.4-2.1,5.1-2,7.8
			c0,5.5,3,10.5,7.7,13.2l43.4,25c3.2,1.9,7,2.5,10.7,1.8c2.7,3.4,6,6.3,9.8,8.5L453.6,587.3z"/>
		<path class="st6" d="M465.5,571.8l-9.9-5.7c-3.6-2.1-6.2-5.6-7.3-9.6c0-0.3-0.1-0.6-0.2-1c-1-4.1-3.6-7.5-7.3-9.6l-9.9-5.7
			l-18.2-10.5c2.9-2.5,5.4-5.5,7.4-8.9c1.3-2.3,2.4-4.7,3.1-7.3l19.5,11.2l7.7,4.4c3.8,2.2,7.1,5,9.8,8.5
			C468,547.3,470,560.3,465.5,571.8z"/>
		<path class="st6" d="M480.5,522.7c-11.9-6.8-26.7-6-37.8,2.1l7.7,4.4c3.8,2.2,7.1,5,9.8,8.5c3.7-0.7,7.5-0.1,10.7,1.8l36.3,20.9
			c2.8-5.8,6.5-11.2,11-15.9L480.5,522.7z"/>
		<path class="st6" d="M536.7,595.1c-3.6,6.3-9.1,11.3-15.7,14.2c-10.2,4.7-22,4.1-31.7-1.5l-35.7-20.6l-7.6-4.4
			c-14.8-8.6-21.2-26.7-15-42.6l9.9,5.7c3.6,2.1,6.2,5.6,7.3,9.6c0,0.3,0.1,0.6,0.2,1c1,4.1,3.6,7.5,7.3,9.6l9.9,5.7l33.4,19.2
			c0.6,0.4,1.3,0.7,2,1c7.1,2.8,15.2,0,19-6.7c0.5-0.9,1-1.9,1.3-2.9l0,0l0,0c0.4-1.4,0.7-2.8,0.7-4.2l0,0
			c1.9-8.2,6.1-15.7,12.1-21.5C542.6,567.9,543.6,583,536.7,595.1z"/>
		<path class="st6" d="M423.3,513.6c-0.8,2.5-1.8,5-3.1,7.3c-1.9,3.4-4.4,6.4-7.4,8.9c-10.7,9.2-25.8,11.1-38.4,4.7
			c-0.1-2.7,0.6-5.5,2-7.8c2.6-4.5,7.3-7.4,12.5-7.7c0.7,0,1.3,0,2,0c8.5-0.5,15-7.7,14.6-16.2c-0.3-5.2-3.2-9.9-7.7-12.5l-43.4-25
			c-3.2-1.9-7-2.5-10.6-1.8c-0.9-1.2-1.9-2.3-3-3.3c-2.1-2-4.3-3.7-6.8-5.1l-7.7-4.4c11.1-8.1,25.9-8.9,37.8-2l1.8,1l41.6,24
			C421.3,481.6,427.9,498.2,423.3,513.6z"/>
		<path class="st6" d="M891.5,384.1c-1,3.6-3.2,6.7-6.2,8.8l-2,1.1l0,0l-19.5,11.3l-8.6,5l-8.5,4.9c-4.7,2.7-7.6,7.8-7.7,13.2l0,0
			c-0.5,0.3-1.1,0.5-1.6,0.9l-16.2,9.4c-3.8-12.4-0.3-25.9,9-35c2-2,4.3-3.7,6.8-5.1l14-8.1l1.4-0.8l28-16.2
			c2.5-1.4,5.1-2.6,7.9-3.3C891.7,373.9,892.9,379.2,891.5,384.1z"/>
		<path class="st6" d="M915.2,433.4L897,444l-9,5.2l-16.2,9.4c-0.5,0.3-1,0.6-1.6,0.9c-12.6,6.4-27.7,4.6-38.4-4.6l15.3-8.9
			c2-1.2,4.2-1.8,6.5-2l0,0c0.7,0,1.4,0,2.1,0l0,0c2.3-0.2,4.5-0.9,6.4-2l15.4-9l6.7-3.9l21.3-12.3c7.4-4.3,9.9-13.7,5.6-21.1
			c-0.6-1-1.3-2-2.2-2.9c0.5-1.2,0.9-2.4,1.2-3.7c1.6-5.9,1.6-12.1-0.1-18c17.9,6.8,26.9,26.7,20.2,44.7
			C927.4,423.2,922.1,429.4,915.2,433.4L915.2,433.4z"/>
		<path class="st6" d="M367,508.1c-5,4.3-8.6,9.9-10.5,16.2L337,513l-7.7-4.4c-3.8-2.2-7.1-5-9.8-8.5c-7.3-9.3-9.5-21.6-5.7-32.8
			c0.1-0.5,0.3-0.9,0.5-1.4l1.5,0.8l8.5,4.9c3.6,2.1,6.3,5.6,7.3,9.6c0,0.3,0.1,0.6,0.2,1c1,4.1,3.6,7.5,7.3,9.6l9.9,5.7L367,508.1z
			"/>
		<path class="st6" d="M282.6,426.7c-5.5,6.5-4.8,16.2,1.7,21.7c0.4,0.3,0.8,0.7,1.2,1l0,0c0.7,0.5,1.4,0.9,2.2,1.3l14.9,8.6v11.1
			c-16.8,4.1-34.2-4.8-40.6-20.9c-2.7-6.9-3.2-14.6-1.2-21.8c3.2-11.9,12.5-21.2,24.5-24.5l48.4-13c5.3-1.4,10.9-1.6,16.3-0.4
			l-17.7,20.8l-41.9,11.3C287.3,422.7,284.6,424.3,282.6,426.7z"/>
		<path class="st6" d="M329.4,508.6c-3.8-2.2-7.1-5-9.8-8.5c-3.6,0.7-7.4,0.1-10.6-1.8l-6.2-3.6l-37.2-21.4
			c-7.4-4.2-9.9-13.6-5.7-21c0.6-1.1,1.4-2.1,2.2-3c-2.7-6.9-3.2-14.6-1.2-21.8c-17.9,6.8-26.9,26.8-20,44.7
			c2.8,7.5,8.2,13.7,15.1,17.7l43.4,25c1.1,0.6,2.3,1.2,3.4,1.7c11.3,4.9,24.4,3.4,34.3-3.8L329.4,508.6z"/>
		<path class="st6" d="M348.9,497.6l-9.9-5.7c-3.6-2.1-6.2-5.6-7.3-9.6c0-0.3-0.1-0.6-0.2-1c-1-4.1-3.6-7.5-7.3-9.6l-8.5-4.9
			l-1.5-0.8l-11.7-6.8l-14.9-8.6l-2.2-1.3l0,0c-7-4.8-8.7-14.5-3.9-21.4c0.3-0.4,0.6-0.8,1-1.2c2.8,0.8,5.4,1.9,7.9,3.3l16.8,9.7
			l11.2,6.4l7.7,4.4l7.7,4.4c2.5,1.4,4.8,3.1,6.8,5.1c1.1,1,2.1,2.2,3,3.3C351.4,473.1,353.4,486.1,348.9,497.6z"/>
		<path class="st7" d="M521,609.3v24.3h-20V612C507.8,613.1,514.7,612.1,521,609.3z"/>
		<path class="st7" d="M627.3,587.7v4.3c-7.1,2.8-15.2,0-19-6.6c-0.5-0.9-1-1.9-1.3-2.9l0,0c-0.2-1.4-0.4-2.8-0.8-4.2l0,0
			c-5.3-23.2-28.5-37.8-51.7-32.4c-16.2,3.7-28.8,16.4-32.5,32.5l0,0c-0.3,1.4-0.6,2.8-0.7,4.2l0,0l0,0c-0.3,1-0.8,2-1.3,2.9
			c-3.8,6.6-11.9,9.4-19,6.7v-4.3c0-34.9,28.2-63.2,63.1-63.3S627.4,552.7,627.3,587.7L627.3,587.7z"/>
		<path class="st7" d="M627.4,611.8v21.6h-20v-24.3C613.6,612,620.6,612.9,627.4,611.8z"/>
		<path class="st8" d="M638.1,633.4l-147.7,0.2c-7.6,0-13.7,6.1-13.7,13.7c0,0,0,0,0,0l0.1,89.2c0,7.6,6.2,13.7,13.7,13.7h0
			l147.7-0.2c7.6,0,13.7-6.2,13.7-13.7l-0.1-89.2C651.8,639.5,645.6,633.4,638.1,633.4z M572.8,690.3v11.2c0,4.7-3.8,8.5-8.5,8.5
			s-8.5-3.8-8.5-8.5v-11.2c-6.6-4.7-8.2-13.9-3.5-20.5c4.7-6.6,13.9-8.2,20.5-3.5c6.6,4.7,8.2,13.9,3.5,20.5
			C575.3,688.2,574.2,689.3,572.8,690.3z"/>
		<path class="st8" d="M579,678.3c0,4.8-2.3,9.2-6.2,12v11.2c0,4.7-3.8,8.5-8.5,8.5s-8.5-3.8-8.5-8.5v-11.2
			c-6.6-4.7-8.2-13.9-3.5-20.5c4.7-6.6,13.9-8.2,20.5-3.5C576.6,669.1,579,673.5,579,678.3L579,678.3z"/>
		<path class="st7" d="M579,678.3c0,4.8-2.3,9.2-6.2,12v11.2c0,4.7-3.8,8.5-8.5,8.5s-8.5-3.8-8.5-8.5v-11.2
			c-6.6-4.7-8.2-13.9-3.5-20.5c4.7-6.6,13.9-8.2,20.5-3.5C576.6,669.1,579,673.5,579,678.3L579,678.3z"/>
	</g>
</g>
</svg>
