<svg xmlns="http://www.w3.org/2000/svg" viewBox="0 0 1200 937"><defs><style>.cls-1{isolation:isolate;}.cls-2,.cls-3{fill:#9dc7e0;}.cls-2{opacity:0.15;}.cls-3{opacity:0.25;mix-blend-mode:multiply;}.cls-4,.cls-6{fill:#fff;}.cls-10,.cls-4,.cls-5,.cls-8,.cls-9{stroke:#0c1733;stroke-linecap:round;stroke-linejoin:round;}.cls-10,.cls-4,.cls-5,.cls-6{stroke-width:2px;}.cls-5{fill:#f9ef35;}.cls-6{stroke:#000;stroke-miterlimit:10;}.cls-7{fill:#cfdde5;}.cls-10,.cls-8,.cls-9{fill:none;}.cls-8,.cls-9{stroke-width:5px;}.cls-9{stroke-dasharray:0 21.38;}</style></defs><title>01_Vector</title><g class="cls-1"><g id="Layer_1" data-name="Layer 1"><path class="cls-2" d="M861.09,781.42C724.41,880.82,118.85,661.56,180.32,477.3c23.18-69.48,112-107.46,246.14-125.07q12-1.59,24.54-3a119.32,119.32,0,0,0,23.95-5.1,121.55,121.55,0,0,0,28.15-13.35,165.64,165.64,0,0,0,26.64-21.45q3.1-3,6.12-6.21c5.56-5.84,10.91-12,16.15-18.45,9.77-12,19.15-24.84,28.67-37.76q3.86-5.22,7.74-10.44,3.75-5,7.59-10c7.48-9.76,15.23-19.33,23.46-28.39q4.2-4.64,8.59-9.06a223.11,223.11,0,0,1,18.65-16.94C674.11,150,707.65,135,753.09,135c70.72,0,93.1,43.22,97.57,101.7,6,78.73-20.39,185.13-5,251.08.23,1,.46,1.94.7,2.9C882.43,638.16,1015,669.45,861.09,781.42Z"/><path class="cls-3" d="M845.67,487.76c.23,1,.46,1.94.7,2.9l-59,228.64h-348l6-27L475,557.77,478,544l3.15-14.29,4.08-18.46L488.36,497l4.07-18.45,3.15-14.3,4.07-18.45L513.72,382l4.07-18.45,3.15-14.29L525,330.83l4.73-21.45,1.37-6.21,4.07-18.45,10.64-48.23H564.5l23.92,0,48.52,0,138.1.08,75.62.05C856.68,315.41,830.27,421.81,845.67,487.76Z"/><rect class="cls-4" x="426.46" y="198.1" width="348.58" height="494.2"/><circle class="cls-5" cx="600.75" cy="198.1" r="52.8"/><circle class="cls-6" cx="600.75" cy="198.1" r="28.78"/><rect class="cls-7" x="474.95" y="284.72" width="257.31" height="18.45"/><rect class="cls-7" x="474.95" y="330.82" width="257.31" height="18.45"/><rect class="cls-7" x="474.95" y="363.57" width="257.31" height="18.45"/><rect class="cls-7" x="533.57" y="396.31" width="134.36" height="18.45"/><rect class="cls-7" x="474.95" y="445.79" width="257.31" height="18.45"/><rect class="cls-7" x="474.95" y="478.54" width="192.97" height="18.45"/><rect class="cls-7" x="474.95" y="511.28" width="257.31" height="18.45"/><rect class="cls-7" x="474.95" y="544.03" width="192.97" height="18.45"/><line class="cls-8" x1="625.36" y1="644.38" x2="625.36" y2="644.38"/><line class="cls-9" x1="646.74" y1="644.38" x2="721.58" y2="644.38"/><line class="cls-8" x1="732.27" y1="644.38" x2="732.27" y2="644.38"/><path class="cls-10" d="M625.69,621.76c19.07,8.42,52.72,13.21,64.81-9.12,2.34-4.32,3.59-9.93,1.5-14.58-2.18-4.86-7.6-7.61-12.5-4.83-8.34,4.72-7.39,16.34-1.59,22.53,6.93,7.42,17.38,8.52,24.58,4.4s12.92-9.87,14-18.4-8.32-11.93-12.92-1,7.9,21.86,16.4,19.9a19.16,19.16,0,0,0,11.93-8.19"/></g></g></svg>