<svg id="Layer_1" data-name="Layer 1" xmlns="http://www.w3.org/2000/svg" viewBox="0 0 1842.42 1007.82"><defs><style>.cls-1,.cls-18,.cls-9{fill:#9dc7e0;}.cls-1{opacity:0.15;}.cls-2{fill:#edf4f8;}.cls-10,.cls-11,.cls-12,.cls-13,.cls-15,.cls-16,.cls-17,.cls-2,.cls-3,.cls-4,.cls-5,.cls-6,.cls-7{stroke:#0c1733;stroke-linecap:round;stroke-linejoin:round;}.cls-10,.cls-17,.cls-2,.cls-3,.cls-4,.cls-5,.cls-6,.cls-7{stroke-width:2px;}.cls-3{fill:#cfdde5;}.cls-11,.cls-14,.cls-4,.cls-7{fill:#fff;}.cls-5{fill:#a3bdcc;}.cls-13,.cls-15,.cls-16,.cls-6{fill:none;}.cls-7{stroke-dasharray:0 4;}.cls-18,.cls-8{opacity:0.25;}.cls-10,.cls-12{fill:#f9ef35;}.cls-11,.cls-12{stroke-width:2.65px;}.cls-13{stroke-width:2.08px;}.cls-15,.cls-16{stroke-width:5.2px;}.cls-16{stroke-dasharray:0 14.51;}.cls-17{fill:#fff200;}</style></defs><title>Introducing Lien Waiver Software</title><path class="cls-1" d="M1782.51,591.52q-5.34,1.14-10.78,2.7L1542.28,660l.13-55-97.59,125.09,97.12,74.07.14-60.82,220.38-63.19c36.58-10.49,66.23,10.66,66.23,47.23,0,18.29-7.41,37-19.4,52.39s-28.54,27.58-46.83,32.83l-638.59,178-52.23-13.77c16.42-24.82,24-43.42,77.71-50,98.84-12.08,229.24,0,271.8-115.1,26.69-72.19-109.31-122.14-176.64-154-85.89-55.43-192-27.66-301.35-15.1C685.5,661.1,435.84,721.43,199.09,803.91c-60.29,19-158.76,75.61-104.58,118.57,78,61.81,278.81.45,378.8,96.45,116.37,111.74,367.1,106.23,525.21,21l92.93,25.41a121.69,121.69,0,0,0,64.79-.18l615.49-172c41.28-11.84,78.65-39.28,105.7-74.09s43.78-77,43.78-118.25C1921.21,621.92,1860,574.81,1782.51,591.52Z" transform="translate(-78.79 -95.59)"/><path class="cls-1" d="M233.37,661.26q5.34-1.14,10.78-2.7l69.45-19.91-.13,55,97.59-125.09-97.12-74.07-.14,60.82-60.38,17.31c-36.58,10.49-66.23-10.66-66.23-47.23,0-18.29,7.41-37,19.4-52.39s28.54-27.58,46.83-32.83L818.89,277l60-100.45-634.74,183c-41.28,11.84-78.65,39.28-105.7,74.09s-43.78,77-43.78,118.25C94.67,630.86,155.84,678,233.37,661.26Z" transform="translate(-78.79 -95.59)"/><polyline class="cls-2" points="590.51 530.83 590.51 403.52 821.27 474.19 821.27 549.87"/><polygon class="cls-3" points="821.27 474.19 1052.03 403.52 1052.03 536.88 821.27 551.02 821.27 474.19"/><path class="cls-4" d="M900.06,640.46" transform="translate(-78.79 -95.59)"/><path class="cls-4" d="M900.06,696.07" transform="translate(-78.79 -95.59)"/><path class="cls-4" d="M1130.82,499.12C1056.43,520.5,973.75,547,900.06,569.79c-37.52-11.94-190.48-58.38-230.76-70.67,57.39-18.34,173.33-54.51,230.76-71.82C962.72,446.83,1069,478.07,1130.82,499.12Z" transform="translate(-78.79 -95.59)"/><polygon class="cls-1" points="1299.8 661.61 1051.09 735.56 1005.21 721.43 550.97 856.48 124.43 725.1 590.13 586.64 636.03 600.78 1018.79 557.45 1299.8 661.61"/><polyline class="cls-2" points="617 411.63 821.27 474.19 821.27 551.02 1052.03 621.69 1052.03 728.8 620.66 596.69"/><polygon class="cls-3" points="1286.78 549.79 1286.78 656.9 1052.03 728.8 1052.03 621.69 1239.17 564.37 1286.78 549.79"/><polygon class="cls-4" points="1286.78 549.79 1052.03 479.2 821.27 551.02 1052.03 621.69 1286.78 549.79"/><polygon class="cls-2" points="551.24 845.76 142.93 724.21 142.93 667.58 551.24 789.13 551.24 845.76"/><polygon class="cls-3" points="998.82 712.63 551.24 847.01 551.24 790.38 998.82 656 998.82 712.63"/><polygon class="cls-4" points="998.82 656 590.51 532.85 504.76 557.96 142.93 667.22 551.24 790.38 998.82 656"/><path class="cls-4" d="M1103.71,610.73" transform="translate(-78.79 -95.59)"/><polygon class="cls-4" points="998.07 307.64 1246.53 230.25 1246.53 99.63 998.07 177.02 998.07 307.64"/><polygon class="cls-4" points="1011.61 288.71 1233 219.74 1233 118.25 1011.61 187.22 1011.61 288.71"/><polygon class="cls-5" points="1173.88 182.88 1211.82 171.06 1211.82 157.66 1173.88 169.48 1173.88 182.88"/><line class="cls-6" x1="1032.36" y1="241.09" x2="1213.27" y2="184.73"/><line class="cls-7" x1="1143.97" y1="228.91" x2="1213.27" y2="207.32"/><line class="cls-6" x1="1143.97" y1="168.27" x2="1213.27" y2="146.68"/><line class="cls-7" x1="1032.36" y1="263.68" x2="1100.16" y2="242.55"/><line class="cls-6" x1="1032.36" y1="227.06" x2="1159.08" y2="187.58"/><path class="cls-6" d="M1233.81,318.81l6.86-2.77a21.15,21.15,0,0,0,5.61-2.94c3-2.47,4.49-6.36,5.8-10.06.5-1.43,1-3.12.13-4.38a3.19,3.19,0,0,0-4.22-.59,6.51,6.51,0,0,0-2.51,3.87c-1.24,4.42.45,10.06,4.81,11.52,4.53,1.52,9.29-2.16,11.45-6.42.76-1.48,1.12-3.66-.33-4.47a2.58,2.58,0,0,0-2.77.49c-2.05,1.67-2,5.13-.24,7.08a6.84,6.84,0,0,0,7.32,1.48,10.73,10.73,0,0,0,5.57-5.39,5.72,5.72,0,0,0,.75-3.13,2.61,2.61,0,0,0-2-2.35c-1.49-.26-2.82,1.45-2.52,2.93a3.75,3.75,0,0,0,3.29,2.71,8.16,8.16,0,0,0,4.38-1,20.82,20.82,0,0,0,5.5-3.74" transform="translate(-78.79 -95.59)"/><g class="cls-8"><path class="cls-9" d="M1007.22,472.85c0,6.42-6.05,9.78-12.24,12.68-5.12,2.39-12.35,5.19-21.49,8.33-18.46,6.33-43,13.43-69,20-24.52,6.18-48,11.24-66.06,14.28-13.37,2.25-21.59,3-26.84,3-6.94,0-8.68-1.38-10.21-2.58a8.92,8.92,0,0,1-3.45-7c0-6.41,6-9.78,12.23-12.68a230.35,230.35,0,0,1,21.5-8.33c18.45-6.33,42.95-13.43,69-20,24.52-6.18,48-11.25,66.07-14.28,31-5.21,34.36-2.57,37-.45A8.94,8.94,0,0,1,1007.22,472.85Z" transform="translate(-78.79 -95.59)"/></g><path class="cls-5" d="M930.41,274.29v10.93c20.61.39,42.32,1.24,58,10C976.17,278.84,953.55,275.3,930.41,274.29Zm15.7,60.44a26,26,0,0,1,2.14,11c0,12-6.37,22.84-17.83,31.64v19.38C950,386.88,961.31,373,961.31,357,961.31,344.92,955.47,338.34,946.11,334.73Zm-61.9-4.52v65.14l13.06,11.3V330.54C892.93,330.47,888.55,330.38,884.21,330.21Zm0-98.92v40.77a56.92,56.92,0,0,1-13.55-3c4,9,13.82,12.85,26.6,14.33V223.61A70.23,70.23,0,0,0,884.2,231.29Zm0-111.44v50.23c-47.47,19-78.36,54.92-78.35,95.63,0,19.4,6,31.7,15.46,39.53l.57.46a42.55,42.55,0,0,0,6,4c-5.63-7.67-9-18.2-9-32.67,0-40.72,30.89-76.63,78.36-95.64V131.15Z" transform="translate(-78.79 -95.59)"/><polygon class="cls-5" points="743.88 294.87 726.2 335.68 724.67 339.22 711.62 327.92 730.83 283.57 743.88 294.87"/><path class="cls-2" d="M897.27,406.65a112.16,112.16,0,0,1-74.6-16.19l-13-11.29a112.14,112.14,0,0,0,74.59,16.18Z" transform="translate(-78.79 -95.59)"/><path class="cls-5" d="M897.27,449.26v53.28l-13-11.3V451.35Q890.67,450.62,897.27,449.26Z" transform="translate(-78.79 -95.59)"/><path class="cls-2" d="M1007.25,175.94a101.55,101.55,0,0,0-15.77-4.7c-18-3.93-39.22-4.06-61.08.2V158.11c23.84-2.8,46.26-.33,63.8,6.53Z" transform="translate(-78.79 -95.59)"/><polygon class="cls-2" points="851.6 26 818.45 35.55 805.4 24.26 838.55 14.7 851.6 26"/><path class="cls-4" d="M988.36,295.23c-15.63-8.77-37.34-9.62-58-10v-70.4a139.72,139.72,0,0,1,58.4,6l18.45-44.89a101.55,101.55,0,0,0-15.77-4.7c-18-3.93-39.22-4.06-61.08.2V121.59l-33.15,9.56v50.22c-47.47,19-78.36,54.92-78.36,95.64,0,14.47,3.33,25,9,32.67a36.58,36.58,0,0,0,3,3.54c12.28,13,32.53,16.11,53.39,17,4.34.17,8.72.26,13,.33v76.11a112.16,112.16,0,0,1-74.6-16.19L805,431.27l-1.53,3.54c21.18,13.62,49.64,20.15,80.76,16.54q6.45-.74,13-2.09v53.28L930.43,493V439.33c47.85-19.49,80.24-56.6,80.24-98.84C1010.83,316.28,1001.86,302.8,988.36,295.23Zm-91.11-11.88c-12.78-1.48-22.57-5.34-26.6-14.33a25.21,25.21,0,0,1-2-10.52c0-10.47,5.72-19.78,15.58-27.21a70.23,70.23,0,0,1,13-7.68Zm33.17,113.36V331.26a63.81,63.81,0,0,1,15.7,3.47c9.36,3.61,15.2,10.19,15.2,22.26C961.31,373,950,386.88,930.42,396.71Z" transform="translate(-78.79 -95.59)"/><line class="cls-6" x1="805.41" y1="176.47" x2="818.47" y2="187.76"/><line class="cls-6" x1="805.4" y1="74.49" x2="818.46" y2="85.78"/><line class="cls-6" x1="742.51" y1="209.65" x2="752.02" y2="217.62"/><g class="cls-8"><path class="cls-9" d="M727.14,721.21a6.5,6.5,0,0,1-4.59,6.21l-92.78,28.67a6.5,6.5,0,0,1-3.84,0l-70-21.69a6.5,6.5,0,0,1,0-12.43l92.78-28.67a6.45,6.45,0,0,1,3.84,0l70,21.69A6.51,6.51,0,0,1,727.14,721.21Z" transform="translate(-78.79 -95.59)"/></g><g class="cls-8"><path class="cls-9" d="M597.36,762.45a6.52,6.52,0,0,1-4.58,6.22L500,797.34a6.57,6.57,0,0,1-1.92.29,6.69,6.69,0,0,1-1.93-.29l-70-21.69a6.5,6.5,0,0,1,0-12.43l92.78-28.67a6.45,6.45,0,0,1,3.84,0l70,21.68A6.5,6.5,0,0,1,597.36,762.45Z" transform="translate(-78.79 -95.59)"/></g><polygon class="cls-4" points="504.67 470.5 418.96 496.75 418.96 470.12 504.67 443.87 504.67 470.5"/><polygon class="cls-4" points="418.96 470.12 366.02 453.91 366.02 480.55 418.96 496.75 418.96 470.12"/><polygon class="cls-4" points="504.67 443.87 451.74 427.43 366.02 453.91 418.96 470.36 504.67 443.87"/><line class="cls-6" x1="418.96" y1="476.9" x2="504.67" y2="450.72"/><line class="cls-6" x1="418.96" y1="483.45" x2="504.67" y2="457.27"/><line class="cls-6" x1="418.96" y1="489.99" x2="504.67" y2="463.81"/><line class="cls-6" x1="366.02" y1="473.82" x2="418.96" y2="489.99"/><line class="cls-6" x1="366.02" y1="467.28" x2="418.96" y2="483.45"/><line class="cls-6" x1="366.02" y1="460.73" x2="418.96" y2="476.9"/><polygon class="cls-10" points="515.02 625.87 575.14 643.87 575.14 625.07 515.02 607.07 515.02 625.87"/><polygon class="cls-10" points="575.09 625.07 635.21 607.07 635.21 625.87 575.09 643.87 575.09 625.07"/><polygon class="cls-10" points="515.02 607.07 575.09 625.07 635.21 607.07 575.09 589.48 515.02 607.07"/><polygon class="cls-10" points="435.24 254.11 470.2 264.43 680 200.78 645.03 190.31 435.24 254.11"/><polygon class="cls-10" points="540.17 349.59 575.13 360.06 575.13 327.99 540.17 317.52 540.17 349.59"/><polygon class="cls-10" points="540.17 317.37 575.13 327.84 575.13 295.77 540.17 285.3 540.17 317.37"/><polygon class="cls-10" points="575.1 327.99 610.07 317.52 610.07 349.59 575.1 360.06 575.1 327.99"/><polygon class="cls-10" points="575.1 295.77 610.07 285.3 610.07 317.37 575.1 327.84 575.1 295.77"/><polygon class="cls-10" points="540.17 412.99 575.13 423.46 575.13 391.39 540.17 380.93 540.17 412.99"/><polygon class="cls-10" points="540.17 380.78 575.13 391.24 575.13 359.17 540.17 348.71 540.17 380.78"/><polygon class="cls-10" points="575.1 391.39 610.07 380.93 610.07 412.99 575.1 423.46 575.1 391.39"/><polygon class="cls-10" points="575.1 359.17 610.07 348.71 610.07 380.78 575.1 391.24 575.1 359.17"/><polygon class="cls-10" points="540.17 476.4 575.13 486.87 575.13 454.8 540.17 444.33 540.17 476.4"/><polygon class="cls-10" points="540.17 444.18 575.13 454.65 575.13 422.58 540.17 412.11 540.17 444.18"/><polygon class="cls-10" points="575.1 454.8 610.07 444.33 610.07 476.4 575.1 486.87 575.1 454.8"/><polygon class="cls-10" points="575.1 422.58 610.07 412.11 610.07 444.18 575.1 454.65 575.1 422.58"/><polygon class="cls-10" points="540.17 540.82 575.13 551.29 575.13 519.22 540.17 508.75 540.17 540.82"/><polygon class="cls-10" points="540.17 508.6 575.13 519.07 575.13 487 540.17 476.53 540.17 508.6"/><polygon class="cls-10" points="575.1 519.22 610.07 508.75 610.07 540.82 575.1 551.29 575.1 519.22"/><polygon class="cls-10" points="575.1 487 610.07 476.53 610.07 508.6 575.1 519.07 575.1 487"/><polygon class="cls-10" points="540.17 604.81 575.13 615.28 575.13 583.21 540.17 572.74 540.17 604.81"/><polygon class="cls-10" points="540.17 572.59 575.13 583.06 575.13 550.99 540.17 540.52 540.17 572.59"/><polygon class="cls-10" points="575.1 583.21 610.07 572.74 610.07 604.81 575.1 615.28 575.1 583.21"/><polygon class="cls-10" points="575.1 550.99 610.07 540.52 610.07 572.59 575.1 583.06 575.1 550.99"/><polygon class="cls-10" points="540.17 286.18 575.13 296.65 575.13 264.58 540.17 254.11 540.17 286.18"/><polygon class="cls-10" points="575.1 264.58 610.07 254.11 610.07 286.18 575.1 296.65 575.1 264.58"/><polygon class="cls-10" points="575.1 232.36 610.07 221.9 610.07 253.97 575.1 264.43 575.1 232.36"/><polygon class="cls-10" points="540.17 243.31 575.13 232.85 575.13 264.92 540.17 275.38 540.17 243.31"/><polygon class="cls-10" points="505.17 253.63 540.14 243.16 540.14 275.23 505.17 285.7 505.17 253.63"/><polygon class="cls-10" points="470.27 264.58 505.23 254.11 505.23 286.18 470.27 296.65 470.27 264.58"/><polygon class="cls-10" points="470.2 264.43 470.2 296.5 435.24 306.97 470.2 264.43"/><polygon class="cls-10" points="610.07 222.05 645.03 211.58 645.03 243.65 610.07 254.11 610.07 222.05"/><polygon class="cls-10" points="645.03 211.09 680 200.63 680 232.7 645.03 243.16 645.03 211.09"/><polygon class="cls-10" points="400.27 296.5 435.24 306.97 470.2 264.58 435.24 254.11 400.27 296.5"/><polygon class="cls-10" points="512.98 174.33 568.17 190.85 623.36 175.08 568.17 158.56 512.98 174.33"/><polygon class="cls-10" points="568.17 190.85 623.36 174.33 623.36 224.94 568.17 241.47 568.17 190.85"/><polygon class="cls-4" points="581.57 199.12 609.96 190.62 609.96 216.67 581.57 225.17 581.57 199.12"/><polygon class="cls-10" points="512.98 224.94 568.17 241.47 568.17 190.85 512.98 174.33 512.98 224.94"/><polygon class="cls-4" points="526.12 216.83 555.03 225.48 555.03 198.97 526.12 190.31 526.12 216.83"/><polygon class="cls-10" points="425.98 436.06 477.4 452.22 477.4 478.64 446.45 488.1 446.45 461.86 392.4 445.83 425.98 436.06"/><line class="cls-6" x1="477.4" y1="452.22" x2="446.45" y2="461.86"/><line class="cls-6" x1="450.38" y1="444.07" x2="419.43" y2="453.71"/><line class="cls-6" x1="435.24" y1="306.97" x2="435.24" y2="447.91"/><g class="cls-8"><path class="cls-9" d="M1018.91,929.45a8,8,0,0,1-5.75,7.8L630.61,1047.63a7.93,7.93,0,0,1-2.21.32,7.77,7.77,0,0,1-1.92-.24l-20.11-5a8,8,0,0,1-.3-15.36L988.63,917a8,8,0,0,1,4.14-.07l20.11,5A8,8,0,0,1,1018.91,929.45Z" transform="translate(-78.79 -95.59)"/></g><polygon class="cls-10" points="1104.4 107.33 998.07 141.66 998.07 35.33 1104.4 1 1104.4 107.33"/><polygon class="cls-4" points="1088.56 96.61 1013.91 120.71 1013.91 46.06 1088.56 21.96 1088.56 96.61"/><line class="cls-6" x1="1025.18" y1="60.66" x2="1054.46" y2="91.39"/><line class="cls-6" x1="1123.49" y1="2.45" x2="1054.46" y2="91.39"/><polygon class="cls-2" points="1219.1 483.42 998.07 549.59 998.07 346.87 1219.1 280.7 1219.1 483.42"/><ellipse class="cls-11" cx="1187.38" cy="418.37" rx="34.37" ry="25.56" transform="translate(96.39 1071.35) rotate(-55.89)"/><ellipse class="cls-12" cx="1187.38" cy="418.37" rx="20.92" ry="15.55" transform="translate(96.39 1071.34) rotate(-55.89)"/><path class="cls-13" d="M1265,511.26l-21.67,1.53c-6.2.44-12.52.87-18.58-.53-11.22-2.59-20-11-28.24-19.09-3.17-3.12-6.61-7-6-11.37.64-4.57,5.78-7.48,10.37-7s8.52,3.52,11.58,7c9,10.07,11.77,27.11,2.16,36.58-10,9.84-27.3,6.28-38.48-2.18-3.89-2.93-7.67-8.23-4.89-12.22,1.67-2.4,5.09-3,7.94-2.29,7.56,1.78,12,10.93,9.77,18.38s-9.71,12.58-17.43,13.33-15.47-2.34-21.63-7.07c-2.54-1.94-4.94-4.28-6-7.29s-.46-6.81,2.12-8.68c3.61-2.62,9.31.17,10.44,4.47s-1.46,9-5.2,11.37-8.36,3-12.82,3.1a62.32,62.32,0,0,1-19.32-2.78" transform="translate(-78.79 -95.59)"/><line class="cls-14" x1="1053.19" y1="468.05" x2="1164.09" y2="433.64"/><line class="cls-15" x1="1053.19" y1="468.05" x2="1053.19" y2="468.05"/><line class="cls-16" x1="1067.05" y1="463.75" x2="1157.16" y2="435.79"/><line class="cls-15" x1="1164.09" y1="433.64" x2="1164.09" y2="433.64"/><g class="cls-8"><path class="cls-9" d="M1386.14,849.48c0,7.46-9.81,10.4-17.19,12-8.63,1.82-20,2.83-32.07,2.83s-23.44-1-32.06-2.83c-7.39-1.57-17.2-4.51-17.2-12s9.81-10.4,17.2-12c8.62-1.83,20-2.84,32.06-2.84s23.44,1,32.07,2.84C1376.33,839.08,1386.14,842,1386.14,849.48Z" transform="translate(-78.79 -95.59)"/></g><line class="cls-6" x1="1247.82" y1="741.99" x2="1244.18" y2="753.94"/><polygon class="cls-17" points="1240.1 745.53 1252.25 749.24 1287.25 698.99 1239.15 684.3 1240.1 745.53"/><path class="cls-4" d="M1366.32,793.67l121.45-397.61c.43-1.39-1-3.22-3.58-5.18-3.91-2.87-10.64-6-18.56-8.44s-15.25-3.56-20.1-3.37c-3.29.15-5.43.9-5.86,2.3L1318.22,779c.43-1.39,2.57-2.14,5.86-2.29,4.85-.2,12.18,1,20.1,3.36s14.66,5.57,18.57,8.45C1365.37,790.44,1366.75,792.27,1366.32,793.67Z" transform="translate(-78.79 -95.59)"/><path class="cls-10" d="M1476.85,390.43,1491,344.24c.22-.72-.49-1.67-1.86-2.69a40.5,40.5,0,0,0-20.08-6.13c-1.7.08-2.82.47-3,1.19l-14.11,46.19" transform="translate(-78.79 -95.59)"/><path class="cls-10" d="M1465.68,337.58c-.22.72.49,1.67,1.86,2.69a40.69,40.69,0,0,0,20.08,6.13c1.7-.08,2.82-.47,3-1.19" transform="translate(-78.79 -95.59)"/><path class="cls-10" d="M1451.92,382.66c-.23.72.48,1.67,1.85,2.69a40.69,40.69,0,0,0,20.08,6.13c1.7-.08,2.82-.47,3-1.19" transform="translate(-78.79 -95.59)"/><path class="cls-4" d="M1487.49,397,1366,794.58c-.42,1.4-2.58,2.14-5.86,2.3-4.84.2-12.19-1-20.11-3.37s-14.64-5.57-18.55-8.44c-2.64-2-4-3.79-3.58-5.18l121.45-397.6c-.43,1.39.93,3.21,3.58,5.17,3.91,2.88,10.63,6,18.54,8.44s15.27,3.57,20.12,3.37C1484.9,399.12,1487.06,398.37,1487.49,397Z" transform="translate(-78.79 -95.59)"/><path class="cls-4" d="M1400.48,681.85" transform="translate(-78.79 -95.59)"/><path class="cls-4" d="M1352.38,667.16" transform="translate(-78.79 -95.59)"/><path class="cls-4" d="M1432.48,404.9c-.42,1.39.94,3.21,3.58,5.17,3.91,2.88,10.63,6,18.55,8.44s15.26,3.57,20.11,3.37c3.27-.15,5.44-.9,5.86-2.29" transform="translate(-78.79 -95.59)"/><path class="cls-4" d="M1349.33,677.12c-.42,1.4.94,3.22,3.58,5.18,3.91,2.88,10.63,6,18.55,8.44s15.26,3.57,20.11,3.37c3.27-.15,5.44-.9,5.86-2.29" transform="translate(-78.79 -95.59)"/><polyline class="cls-6" points="1373.89 474.08 1375.99 467.22 1387.99 427.93 1420.74 320.72 1404.33 315.71"/><path class="cls-6" d="M1444.82,546.15a21.84,21.84,0,0,0,7.77,23.85l12-39.29A21.84,21.84,0,0,0,1444.82,546.15Z" transform="translate(-78.79 -95.59)"/><path class="cls-5" d="M1365.78,795.46c-.43,1.4-2.59,2.14-5.86,2.3-4.85.2-12.2-1-20.12-3.37s-14.64-5.57-18.55-8.44c-2.64-2-4-3.79-3.57-5.18l31.65-103.65c-.42,1.4.94,3.22,3.58,5.18,3.91,2.88,10.63,6,18.55,8.44s15.26,3.57,20.11,3.37c3.27-.15,5.44-.9,5.86-2.29L1366,794.58c-.42,1.4-2.58,2.14-5.86,2.3-4.84.2-12.19-1-20.11-3.37s-14.64-5.57-18.55-8.44c-2.64-2-4-3.79-3.58-5.18l31.39-102.77" transform="translate(-78.79 -95.59)"/><path class="cls-3" d="M864.41,948.86c-.35-1.72-2.61-3.45-6.83-4.85,0,0-70.64-14.48-71.67-14.73V877L678,905.1v56.31h0c-.09,1.9,2.2,3.87,6.89,5.42l46.52,22.4c9.3,3.08,24.48,3.4,33.91.71l92-26.25c5-1.44,7.4-3.46,7.09-5.49v-8.52a2.81,2.81,0,0,0,0-.71v-.12Z" transform="translate(-78.79 -95.59)"/><path class="cls-3" d="M857.34,954.47l-92,26.24c-9.43,2.69-24.61,2.38-33.91-.71l-44.82-21.92V937.82" transform="translate(-78.79 -95.59)"/><path class="cls-2" d="M958,548.13l15-16.77-17.64-8a5.75,5.75,0,0,0-.94-.43h0a5.8,5.8,0,0,0-3.48,0L569,632.92a10.28,10.28,0,0,0-6.89,9.47l1.41,265.79.24,43.81a5.79,5.79,0,0,0,2.21,4.82h0a4.81,4.81,0,0,0,1.67.77l17.15,7.92,14.54-16.26L952.65,847.45a10.28,10.28,0,0,0,6.89-9.49l-.24-43.8Z" transform="translate(-78.79 -95.59)"/><path class="cls-5" d="M976.06,536.67l1.41,265.79-395.77,114-1.42-265.79a10.28,10.28,0,0,1,6.89-9.47l381.93-110C972.93,530.09,976,532.54,976.06,536.67Z" transform="translate(-78.79 -95.59)"/><path class="cls-3" d="M977.47,802.46l.24,43.8a10.28,10.28,0,0,1-6.89,9.49l-381.93,110c-3.82,1.1-6.94-1.35-7-5.49l-.23-43.81Z" transform="translate(-78.79 -95.59)"/><line class="cls-6" x1="620.23" y1="858.9" x2="700.91" y2="835.49"/><polygon class="cls-2" points="824.6 506.89 824.6 549.08 578.27 620.04 578.27 577.85 824.6 506.89"/><polygon class="cls-4" points="824.61 688.32 578.29 759.29 578.27 620.04 824.6 549.08 824.61 688.32"/><ellipse class="cls-12" cx="677.41" cy="689.1" rx="11.46" ry="8.52" transform="translate(-351.79 768.01) rotate(-55.89)"/><ellipse class="cls-12" cx="705.45" cy="681.14" rx="11.46" ry="8.52" transform="matrix(0.56, -0.83, 0.83, 0.56, -332.89, 787.74)"/><ellipse class="cls-12" cx="733.49" cy="673.18" rx="11.46" ry="8.52" transform="translate(-313.98 807.46) rotate(-55.89)"/><line class="cls-6" x1="604.33" y1="647.79" x2="750.87" y2="605.58"/><line class="cls-6" x1="604.33" y1="668.9" x2="750.87" y2="626.68"/><line class="cls-6" x1="604.33" y1="690" x2="750.87" y2="647.79"/><line class="cls-6" x1="604.33" y1="711.11" x2="750.87" y2="668.9"/><polygon class="cls-4" points="795.44 618.47 769.73 625.88 769.73 599.91 795.44 592.5 795.44 618.47"/><polygon class="cls-10" points="795.44 657.35 769.73 664.75 769.73 638.78 795.44 631.38 795.44 657.35"/><path class="cls-18" d="M1055.59,675.24,1241,620.73a23.17,23.17,0,0,1,12.2-.25l23.35,5.83a2.22,2.22,0,0,1,.09,4.28L1090.55,685.3a23.32,23.32,0,0,1-12.54.16l-22.36-6A2.22,2.22,0,0,1,1055.59,675.24Z" transform="translate(-78.79 -95.59)"/></svg>