<svg xmlns="http://www.w3.org/2000/svg" viewBox="0 0 1578.29 995.2"><defs><style>.cls-1{isolation:isolate;}.cls-10,.cls-2,.cls-4{fill:#9dc7e0;}.cls-2{opacity:0.15;}.cls-10,.cls-3{opacity:0.25;}.cls-26,.cls-4{opacity:0.6;mix-blend-mode:multiply;}.cls-12,.cls-14,.cls-24,.cls-5{fill:#edf4f8;}.cls-14,.cls-15,.cls-16,.cls-17,.cls-18,.cls-19,.cls-20,.cls-21,.cls-22,.cls-23,.cls-24,.cls-25,.cls-5,.cls-6,.cls-7,.cls-8,.cls-9{stroke:#0c1733;}.cls-12,.cls-14,.cls-15,.cls-16,.cls-17,.cls-18,.cls-19,.cls-20,.cls-21,.cls-22,.cls-23,.cls-24,.cls-25,.cls-26,.cls-27,.cls-5,.cls-6,.cls-7,.cls-8,.cls-9{stroke-linecap:round;stroke-linejoin:round;}.cls-12,.cls-18,.cls-21,.cls-5,.cls-6,.cls-7,.cls-8,.cls-9{stroke-width:2px;}.cls-15,.cls-23,.cls-25,.cls-26,.cls-6{fill:#cfdde5;}.cls-16,.cls-22,.cls-7{fill:#fff;}.cls-13,.cls-17,.cls-8{fill:#f9ef35;}.cls-19,.cls-20,.cls-21,.cls-27,.cls-9{fill:none;}.cls-11{mix-blend-mode:darken;}.cls-12{stroke:#edf4f8;}.cls-14,.cls-15,.cls-16,.cls-17{stroke-width:2.26px;}.cls-18{fill:#a3bdcc;}.cls-19{stroke-width:2.12px;}.cls-20{stroke-width:1.99px;}.cls-21{stroke-dasharray:0 14.03;}.cls-22,.cls-23{stroke-width:2.65px;}.cls-24,.cls-25{stroke-width:2.65px;}.cls-26{stroke:#cfdde5;stroke-width:2.6px;}.cls-27{stroke:#fff;stroke-width:10px;}</style></defs><title>Sworn Statements</title><g class="cls-1"><g id="Layer_1" data-name="Layer 1"><path class="cls-2" d="M313,905.21c77.32,74.87,249.11,12.17,370.49,96.36,94.78,65.74,478.26,147.79,645.31,51.39,91-52.5,123.63-89.17,215.68-101.27,95.26-23.44,244.18-36.5,244.18-135.82S1567.44,724.26,1499.53,684c-85.85-68.07-197-91.61-310.65-83.63-267.28,6.13-523.34,88.71-772.36,168.9C353.2,787.46,259.25,853.17,313,905.21Z" transform="translate(-210.35 -101.9)"/><g class="cls-3"><polygon class="cls-4" points="814.21 900.8 908.46 923.36 1023.53 879.2 921.35 862.05 814.21 900.8"/><ellipse class="cls-4" cx="1015.85" cy="1012.31" rx="10.72" ry="35.77" transform="translate(-368.01 1734.79) rotate(-79.99)"/></g><path class="cls-5" d="M428.51,554.43l-.29,0-.12,0-.66-.09h0l-.76,0-.75,0a16,16,0,0,0-2.46.19h0l-.81.14h0l-.19.05A22.75,22.75,0,0,0,411,561.36c-6.71,6.94-11.19,18.11-11.11,29.78,0,.4,0,.8,0,1.19a2.81,2.81,0,0,0,0,.29q0,.57.06,1.14c0,.34.05.68.08,1s0,.4,0,.6.06.53.1.8,0,.31.06.46c.09.74.22,1.47.36,2.18,0,0,0,0,0,.07l.24,1.12c.08.35.17.69.26,1,0,.14.08.29.11.43l.24.83c.11.35.22.68.33,1l.06.17.36,1h0c.26.68.55,1.34.84,2l0,0a.13.13,0,0,0,0,.07c.3.64.63,1.26,1,1.86s.71,1.21,1.1,1.77l.05.07c.17.25.35.51.54.76s.41.53.62.78.21.26.32.38c.31.36.62.7,1,1l.38.38c.35.33.7.65,1.06.95.12.1.24.2.37.29s.24.2.37.29l.8.56h0l.34.22.34.21h0l0,0c.39.24.8.46,1.2.66l0,0,.78.35c.28.12.57.22.84.32a12.17,12.17,0,0,0,1.3.4c.25.07.5.12.76.18l-11.87-2.33h-.07c-.28-.06-.57-.12-.85-.2s-.29-.08-.44-.12l-.42-.13c-.46-.15-.91-.32-1.35-.5l-.34-.15-.41-.19c-.4-.2-.81-.42-1.2-.65l0,0h0c-.12-.06-.23-.14-.35-.21l-.38-.25c-.26-.17-.51-.35-.76-.54l-.37-.29-.37-.29a20.52,20.52,0,0,1-1.74-1.64l-.32-.36-.33-.36-.32-.39a22.83,22.83,0,0,1-1.77-2.47l-.54-.9c-.34-.6-.66-1.22-1-1.87l0-.07s0,0,0,0c-.26-.56-.52-1.14-.75-1.74-.06-.17-.13-.34-.2-.51s-.17-.48-.26-.73l-.06-.17c-.1-.3-.2-.6-.29-.91l-.3-1c-.05-.19-.09-.36-.14-.54a.58.58,0,0,1,0-.14c-.06-.23-.12-.46-.17-.7s-.17-.74-.24-1.11-.19-1-.26-1.48c0-.25-.09-.52-.12-.78l-.06-.46c0-.26-.07-.53-.1-.8s0-.4-.05-.6-.06-.68-.08-1-.05-.76-.06-1.14a2.71,2.71,0,0,1,0-.29c0-.39,0-.78,0-1.18a46.44,46.44,0,0,1,3-16.67,38.85,38.85,0,0,1,8.1-13.12,22.94,22.94,0,0,1,11.49-6.78,16.75,16.75,0,0,1,3.48-.37l.75,0,.75.06a11.12,11.12,0,0,1,1.14.15l.32.06.69.13,1.45.29Z" transform="translate(-210.35 -101.9)"/><path class="cls-6" d="M445.45,581.46a46.17,46.17,0,0,1-3,16.66,38.72,38.72,0,0,1-8.11,13.12h0A22.84,22.84,0,0,1,422.86,618a16.12,16.12,0,0,1-3.48.38l-.74,0-.76,0h0l-.65-.09-.13,0-.67-.11-.12,0c-.26-.06-.51-.11-.76-.18-.44-.12-.87-.25-1.3-.4-.27-.1-.56-.2-.84-.32l-.78-.35,0,0c-.4-.2-.81-.42-1.2-.66l0,0h0l-.34-.21-.34-.22h0l-.8-.56-.37-.29-.37-.29c-.36-.3-.71-.62-1.06-.95l-.38-.38c-.33-.34-.64-.68-1-1-.11-.12-.21-.25-.32-.38s-.41-.52-.62-.78-.37-.51-.54-.76l-.05-.07c-.39-.56-.76-1.16-1.1-1.77s-.67-1.22-1-1.86a.13.13,0,0,1,0-.07l0,0c-.29-.64-.58-1.3-.84-2h0l-.36-1-.06-.17c-.11-.34-.22-.67-.33-1l-.24-.83c0-.14-.08-.29-.11-.43-.09-.34-.18-.69-.26-1l-.24-1.12s0,0,0-.07c-.14-.71-.27-1.44-.36-2.18,0-.15,0-.31-.06-.46s-.07-.53-.1-.8,0-.4,0-.6-.06-.68-.08-1,0-.76-.06-1.14a2.81,2.81,0,0,1,0-.29c0-.39,0-.79,0-1.19-.08-11.67,4.4-22.84,11.11-29.78a22.75,22.75,0,0,1,11.48-6.77l.19-.05h0l.81-.14h0a16,16,0,0,1,2.46-.19l.75,0,.76,0h0l.66.09.12,0,.29,0a3,3,0,0,1,.32.06h.07c.29.06.58.12.88.2l.81.23c.44.15.89.31,1.32.49l.78.35,0,0,.75.39.5.29a17.18,17.18,0,0,1,2.25,1.61c.23.18.44.37.66.57s.71.67,1.05,1,.44.47.66.73l.33.4c.21.24.4.5.6.76l.3.41c.2.28.39.56.58.85s.55.88.81,1.33a.75.75,0,0,1,.07.12c.15.26.3.54.44.82s.33.64.49,1v0c.15.32.29.65.43,1s.29.68.42,1h0c.13.35.26.71.38,1.07.22.63.42,1.28.6,1.94l.12.43c.09.34.17.69.25,1s.18.79.26,1.19l.24,1.34c.06.36.11.74.16,1.12s.1.84.14,1.27.08.85.11,1.28v0c0,.38,0,.77.06,1.16a2.81,2.81,0,0,1,0,.29C445.44,580.66,445.45,581.06,445.45,581.46Z" transform="translate(-210.35 -101.9)"/><line class="cls-6" x1="205.17" y1="451.44" x2="205.17" y2="390.95"/><path class="cls-5" d="M723.23,446.39l-.29,0-.13,0c-.22,0-.43-.06-.65-.08h0l-.75-.06-.75,0a14.75,14.75,0,0,0-2.46.2h0a7.62,7.62,0,0,0-.81.14h0l-.19,0a22.87,22.87,0,0,0-11.48,6.77c-6.71,6.94-11.18,18.11-11.1,29.79,0,.4,0,.79,0,1.18,0,.1,0,.19,0,.29q0,.57.06,1.14c0,.34.05.68.08,1l.06.6.09.8.06.46c.1.74.23,1.47.37,2.18a.22.22,0,0,0,0,.08q.1.56.24,1.11c.08.35.16.69.25,1l.12.44.24.82q.15.53.33,1a.7.7,0,0,0,.06.17c.11.34.23.66.35,1v0c.26.67.54,1.33.84,2v0l0,.07c.31.65.63,1.27,1,1.87s.72,1.2,1.1,1.76l.05.07c.18.26.36.51.55.76s.4.53.61.78l.32.39c.31.35.63.7,1,1l.39.38c.34.33.69.65,1.06.95a3.37,3.37,0,0,0,.37.29,4.57,4.57,0,0,0,.36.29c.26.2.54.39.81.57h0l.34.22a3.87,3.87,0,0,0,.34.21h0l0,0c.4.23.8.45,1.21.65l0,0c.25.12.51.24.78.35s.56.23.84.32a12,12,0,0,0,1.29.4l.77.18-11.88-2.33h-.06l-.86-.19-.43-.13-.43-.13a13.73,13.73,0,0,1-1.35-.5l-.33-.15-.41-.19c-.41-.2-.81-.42-1.2-.65,0,0,0,0,0,0h0a3.13,3.13,0,0,1-.34-.21l-.39-.25q-.37-.25-.75-.54l-.37-.28-.37-.3a19,19,0,0,1-1.74-1.64l-.33-.35-.32-.37c-.11-.13-.21-.26-.32-.38a24,24,0,0,1-1.77-2.48c-.19-.3-.37-.59-.54-.9-.35-.6-.67-1.22-1-1.87l0-.07h0c-.26-.57-.51-1.15-.74-1.74-.07-.17-.13-.34-.2-.52s-.18-.48-.26-.72l-.06-.18c-.1-.29-.2-.6-.29-.9s-.21-.69-.3-1c0-.18-.1-.36-.14-.54a.65.65,0,0,1,0-.13c-.06-.23-.11-.47-.17-.7s-.17-.75-.24-1.12-.18-1-.26-1.48c0-.25-.08-.52-.11-.78a3.4,3.4,0,0,1-.06-.46c0-.26-.07-.53-.1-.79l-.06-.61c0-.34-.06-.67-.07-1s0-.76-.06-1.15a2.64,2.64,0,0,1,0-.29c0-.39,0-.78,0-1.18a46.23,46.23,0,0,1,3-16.67,38.5,38.5,0,0,1,8.1-13.11,22.77,22.77,0,0,1,11.48-6.78,16.89,16.89,0,0,1,3.48-.37c.26,0,.5,0,.75,0l.75.05a10.43,10.43,0,0,1,1.14.16l.33.05.69.13,1.45.29Z" transform="translate(-210.35 -101.9)"/><path class="cls-6" d="M740.16,473.42a46,46,0,0,1-3,16.67,38.65,38.65,0,0,1-8.1,13.11h0A22.89,22.89,0,0,1,717.57,510a16.73,16.73,0,0,1-3.47.37c-.25,0-.5,0-.75,0l-.75-.05h0l-.65-.09h-.13l-.67-.12-.11,0-.77-.18c-.43-.11-.86-.25-1.29-.4s-.56-.2-.84-.32-.53-.23-.78-.35l0,0c-.41-.2-.81-.42-1.21-.65l0,0h0a3.87,3.87,0,0,1-.34-.21l-.34-.22h0c-.27-.18-.55-.37-.81-.57l-.36-.29c-.13-.09-.25-.19-.37-.29-.37-.3-.72-.62-1.06-.95l-.39-.38c-.32-.33-.64-.68-1-1l-.32-.39-.61-.78c-.19-.25-.37-.5-.55-.76l-.05-.07c-.38-.56-.75-1.15-1.1-1.76s-.66-1.22-1-1.87l0-.07v0c-.3-.64-.58-1.3-.84-2v0c-.12-.33-.24-.65-.35-1a.7.7,0,0,1-.06-.17q-.18-.5-.33-1l-.24-.82-.12-.44c-.09-.34-.17-.68-.25-1s-.17-.74-.24-1.11a.22.22,0,0,1,0-.08c-.14-.71-.27-1.44-.37-2.18l-.06-.46-.09-.8-.06-.6c0-.34-.06-.68-.08-1s0-.76-.06-1.14c0-.1,0-.19,0-.29,0-.39,0-.78,0-1.18-.08-11.68,4.39-22.85,11.1-29.79a22.87,22.87,0,0,1,11.48-6.77l.19,0h0a7.62,7.62,0,0,1,.81-.14h0a14.75,14.75,0,0,1,2.46-.2l.75,0,.75.06h0c.22,0,.43,0,.65.08l.13,0,.29,0,.32.06h.06c.3.06.59.12.88.2l.81.23c.45.15.89.31,1.33.49l.78.35,0,0,.75.38.49.29A18.27,18.27,0,0,1,731,450l.66.57c.35.33.7.68,1,1s.44.48.65.73.23.27.34.4.4.5.6.77.2.26.29.4.4.56.58.85.56.88.82,1.33l.07.12c.15.26.29.54.44.82s.32.64.48,1a0,0,0,0,1,0,0c.15.32.3.65.44,1s.28.67.41,1c0,0,0,0,0,0,.13.35.27.7.39,1.07.22.62.41,1.27.6,1.93,0,.15.07.29.11.44.09.33.18.68.25,1s.19.79.26,1.19.17.89.24,1.34.12.74.16,1.12.11.84.15,1.27.08.85.11,1.28v0c0,.38,0,.78.06,1.16,0,.1,0,.2,0,.29C740.15,472.63,740.16,473,740.16,473.42Z" transform="translate(-210.35 -101.9)"/><line class="cls-6" x1="499.89" y1="343.4" x2="499.89" y2="282.91"/><polygon class="cls-7" points="648.06 223.67 589.24 241.28 530.41 224.48 589.24 206.87 648.06 223.67"/><polygon class="cls-5" points="589.24 241.28 530.41 224.51 530.41 278.46 589.24 295.23 589.24 241.28"/><polygon class="cls-6" points="648.06 277.62 589.24 295.23 589.24 241.28 648.06 223.67 648.06 277.62"/><polygon class="cls-7" points="589.24 241.32 530.41 258.93 471.59 242.12 530.41 224.51 589.24 241.32"/><polygon class="cls-5" points="530.41 258.93 471.59 242.16 471.59 296.11 530.41 312.88 530.41 258.93"/><polygon class="cls-8" points="589.24 295.27 530.41 312.88 530.41 258.93 589.24 241.32 589.24 295.27"/><polygon class="cls-7" points="530.41 258.96 471.59 276.57 412.77 259.76 471.59 242.16 530.41 258.96"/><polygon class="cls-5" points="471.59 276.57 412.77 259.8 412.77 313.75 471.59 330.52 471.59 276.57"/><polygon class="cls-6" points="530.41 312.91 471.59 330.52 471.59 276.57 530.41 258.96 530.41 312.91"/><polygon class="cls-7" points="471.59 276.61 412.77 294.21 353.94 277.41 412.77 259.8 471.59 276.61"/><polygon class="cls-5" points="412.77 294.21 353.94 277.45 353.94 331.4 412.77 348.17 412.77 294.21"/><polygon class="cls-6" points="471.59 330.56 412.77 348.17 412.77 294.21 471.59 276.61 471.59 330.56"/><polygon class="cls-7" points="412.77 294.32 353.94 311.93 295.12 295.13 353.94 277.52 412.77 294.32"/><polygon class="cls-5" points="353.94 311.93 295.12 295.16 295.12 349.11 353.94 365.88 353.94 311.93"/><polygon class="cls-6" points="412.77 348.27 353.94 365.88 353.94 311.93 412.77 294.32 412.77 348.27"/><polygon class="cls-7" points="353.94 311.95 295.12 329.56 236.29 312.75 295.12 295.14 353.94 311.95"/><polygon class="cls-5" points="295.12 329.56 236.29 312.79 236.29 366.74 295.12 383.51 295.12 329.56"/><polygon class="cls-8" points="353.94 365.9 295.12 383.51 295.12 329.56 353.94 311.95 353.94 365.9"/><polygon class="cls-7" points="295.12 329.59 236.29 347.2 177.47 330.4 236.29 312.79 295.12 329.59"/><polygon class="cls-5" points="236.29 347.2 177.47 330.43 177.47 384.38 236.29 401.15 236.29 347.2"/><polygon class="cls-6" points="295.12 383.54 236.29 401.15 236.29 347.2 295.12 329.59 295.12 383.54"/><polygon class="cls-7" points="236.29 347.24 177.47 364.85 118.65 348.04 177.47 330.43 236.29 347.24"/><polygon class="cls-5" points="177.47 364.85 118.65 348.08 118.65 402.03 177.47 418.8 177.47 364.85"/><polygon class="cls-6" points="236.29 401.19 177.47 418.8 177.47 364.85 236.29 347.24 236.29 401.19"/><polygon class="cls-7" points="177.47 364.88 118.65 382.49 59.82 365.69 118.65 348.08 177.47 364.88"/><polygon class="cls-5" points="118.65 382.49 59.82 365.72 59.82 419.67 118.65 436.44 118.65 382.49"/><polygon class="cls-6" points="177.47 418.83 118.65 436.44 118.65 382.49 177.47 364.88 177.47 418.83"/><polygon class="cls-7" points="118.65 382.6 59.82 400.21 1 383.4 59.82 365.79 118.65 382.6"/><polygon class="cls-5" points="59.82 400.21 1 383.44 1 437.39 59.82 454.16 59.82 400.21"/><polygon class="cls-8" points="118.65 436.55 59.82 454.16 59.82 400.21 118.65 382.6 118.65 436.55"/><path class="cls-6" d="M351.37,356.48c-.14-.33-.28-.66-.44-1h0C351.09,355.82,351.24,356.15,351.37,356.48Z" transform="translate(-210.35 -101.9)"/><path class="cls-6" d="M351.37,356.48c-.14-.33-.28-.66-.44-1h0C351.09,355.82,351.24,356.15,351.37,356.48Z" transform="translate(-210.35 -101.9)"/><path class="cls-6" d="M351.37,356.48c-.14-.33-.28-.66-.44-1h0C351.09,355.82,351.24,356.15,351.37,356.48Z" transform="translate(-210.35 -101.9)"/><line class="cls-9" x1="140.59" y1="253.6" x2="140.58" y2="253.6"/><path class="cls-6" d="M351.37,356.48c-.14-.33-.28-.66-.44-1h0C351.09,355.82,351.24,356.15,351.37,356.48Z" transform="translate(-210.35 -101.9)"/><path class="cls-5" d="M341.22,342.82l-.29,0-.13,0-.65-.08h0q-.37,0-.75-.06l-.75,0a14.75,14.75,0,0,0-2.46.2h0a7.62,7.62,0,0,0-.81.14h0l-.2,0a22.91,22.91,0,0,0-11.47,6.77c-6.72,6.94-11.19,18.11-11.11,29.79,0,.4,0,.79,0,1.18,0,.1,0,.2,0,.29,0,.38,0,.76.06,1.14s0,.68.08,1l.06.6.09.8.06.46c.1.74.23,1.47.37,2.18a.22.22,0,0,0,0,.08c.07.37.16.75.24,1.11s.16.69.25,1l.12.44.24.82q.15.53.33,1a1.77,1.77,0,0,0,.06.17c.11.34.23.66.35,1v0c.26.68.54,1.33.84,2v0l0,.07c.31.65.63,1.27,1,1.87s.71,1.2,1.1,1.76a.43.43,0,0,0,0,.07c.18.26.36.51.55.76s.4.53.61.78l.33.39c.3.35.62.7.94,1l.39.38c.35.33.7.65,1.06.95.12.11.24.2.37.3l.37.28c.26.2.53.39.8.57h0l.34.22a3.87,3.87,0,0,0,.34.21h0l.05,0c.39.23.79.45,1.2.65l0,0c.25.12.51.25.78.35s.56.23.84.32a12,12,0,0,0,1.29.4l.77.18-11.88-2.33h-.06c-.29-.05-.57-.12-.85-.19l-.44-.12-.43-.14c-.45-.14-.9-.31-1.35-.5l-.33-.14-.41-.2c-.4-.2-.81-.41-1.2-.65l0,0h0l-.35-.22-.39-.25-.75-.54-.37-.28-.37-.3a19,19,0,0,1-1.74-1.64l-.33-.35-.32-.37c-.11-.13-.21-.26-.32-.38a24,24,0,0,1-1.77-2.48c-.18-.3-.37-.59-.54-.9-.35-.6-.67-1.22-1-1.87a.11.11,0,0,1,0-.06l0,0c-.26-.56-.51-1.14-.74-1.74-.07-.17-.13-.34-.2-.52l-.26-.72-.06-.18c-.1-.29-.2-.6-.29-.9s-.2-.69-.3-1c-.05-.18-.1-.36-.14-.54s0-.09,0-.13c-.06-.23-.11-.47-.17-.7s-.17-.75-.24-1.12-.18-1-.26-1.48c0-.25-.08-.52-.11-.78s0-.3-.06-.46-.07-.53-.1-.79,0-.4,0-.61-.06-.67-.08-1-.05-.76-.06-1.14c0-.1,0-.2,0-.29,0-.4,0-.79,0-1.19a46.23,46.23,0,0,1,3-16.67,38.65,38.65,0,0,1,8.1-13.11,22.77,22.77,0,0,1,11.48-6.78,16.89,16.89,0,0,1,3.48-.37c.26,0,.5,0,.75,0l.75.05a10.43,10.43,0,0,1,1.14.16l.33,0,.69.13,1.45.29Z" transform="translate(-210.35 -101.9)"/><path class="cls-6" d="M358.16,369.85a46.44,46.44,0,0,1-3,16.67A38.67,38.67,0,0,1,347,399.63h0a23,23,0,0,1-11.48,6.78,16.58,16.58,0,0,1-3.47.37c-.25,0-.5,0-.74,0l-.76-.05h0l-.66-.08-.12,0-.67-.12-.12,0-.77-.18a12.74,12.74,0,0,1-1.29-.4c-.28-.09-.56-.2-.84-.32s-.53-.23-.78-.35l0,0c-.41-.2-.81-.42-1.2-.65l-.05,0h0a3.87,3.87,0,0,1-.34-.21l-.34-.22h0c-.27-.18-.54-.37-.8-.57l-.37-.28-.37-.3c-.36-.3-.71-.62-1.06-.95l-.39-.38c-.32-.33-.64-.68-.94-1l-.33-.39c-.2-.25-.41-.51-.61-.78s-.37-.5-.55-.76a.43.43,0,0,1,0-.07c-.39-.56-.76-1.15-1.1-1.76s-.67-1.22-1-1.87l0-.07v0c-.3-.64-.58-1.29-.84-2v0c-.12-.33-.24-.65-.35-1a1.77,1.77,0,0,1-.06-.17q-.18-.49-.33-1l-.24-.82-.12-.44c-.09-.34-.17-.68-.25-1s-.17-.74-.24-1.11a.22.22,0,0,1,0-.08c-.14-.71-.27-1.44-.37-2.18l-.06-.46-.09-.8-.06-.6c0-.34-.06-.68-.08-1s0-.76-.06-1.14c0-.09,0-.19,0-.29,0-.39,0-.78,0-1.18-.08-11.68,4.39-22.85,11.11-29.79A22.91,22.91,0,0,1,335.15,343l.2,0h0a7.62,7.62,0,0,1,.81-.14h0a14.75,14.75,0,0,1,2.46-.2l.75,0q.38,0,.75.06h0l.65.08.13,0,.29,0,.32.06h.06l.88.2.81.23c.45.15.89.31,1.33.49l.78.35,0,0,.75.38.49.29a18.27,18.27,0,0,1,2.26,1.61c.22.18.44.38.66.57s.7.68,1,1,.44.48.65.73.23.27.34.4.4.5.6.77.2.26.29.4.4.56.59.85.55.88.81,1.33a.75.75,0,0,1,.07.12l.44.82c.17.32.32.64.48,1a0,0,0,0,1,0,0c.16.32.3.65.44,1l.42,1v0c.14.35.27.7.39,1.07.22.63.42,1.27.6,1.93,0,.15.08.29.11.44.09.33.18.68.26,1s.18.8.26,1.19.16.89.23,1.34.12.74.16,1.12.11.84.15,1.27.08.85.11,1.28v0c0,.39.05.78.06,1.16,0,.1,0,.2,0,.29C358.14,369.06,358.16,369.45,358.16,369.85Z" transform="translate(-210.35 -101.9)"/><line class="cls-6" x1="117.88" y1="304.39" x2="117.88" y2="364.88"/><path class="cls-5" d="M753.11,221.14l-.29,0-.13,0L752,221h0l-.76-.05-.75,0a16,16,0,0,0-2.46.19h0l-.81.14h0l-.19,0a22.84,22.84,0,0,0-11.48,6.78c-6.71,6.94-11.19,18.11-11.11,29.78,0,.4,0,.79,0,1.19,0,.09,0,.19,0,.29q0,.57.06,1.14c0,.34.05.68.08,1,0,.19,0,.4,0,.6s.06.53.1.8l.06.46c.1.74.22,1.47.36,2.18,0,0,0,.05,0,.07.08.38.16.75.25,1.12s.16.69.25,1c0,.14.08.29.11.43s.16.56.25.83.21.68.32,1l.06.18.36,1h0q.39,1,.84,2v0s0,0,0,.06c.31.65.63,1.27,1,1.87s.71,1.2,1.1,1.77l.05.07c.17.25.36.51.54.75s.41.54.62.79l.32.38c.31.36.62.7,1,1l.39.39c.34.33.69.65,1.05.94.12.11.25.21.37.3a3.27,3.27,0,0,0,.37.28c.26.2.53.39.8.57h0l.34.22.34.21h0s0,0,0,0a12.75,12.75,0,0,0,1.2.65l0,0,.78.35.84.32a12.17,12.17,0,0,0,1.3.4c.25.07.51.12.77.17L729,282.46h-.07c-.28-.05-.57-.12-.85-.19l-.43-.12-.43-.13c-.46-.15-.91-.32-1.35-.5l-.33-.15-.41-.19c-.41-.2-.81-.42-1.21-.66l0,0h0l-.34-.21-.39-.25-.76-.54-.36-.29c-.13-.09-.25-.19-.37-.29a17.89,17.89,0,0,1-1.74-1.64l-.33-.36-.33-.37c-.11-.12-.21-.25-.32-.38a22.83,22.83,0,0,1-1.77-2.47l-.54-.9c-.34-.6-.66-1.23-1-1.87l0-.07s0,0,0,0c-.26-.56-.51-1.14-.74-1.74-.07-.17-.14-.34-.2-.51s-.18-.49-.26-.73a.7.7,0,0,1-.06-.17c-.11-.3-.2-.6-.29-.91s-.21-.68-.31-1c0-.18-.09-.35-.14-.53l0-.14c-.06-.23-.12-.46-.17-.7s-.17-.74-.24-1.12-.18-1-.26-1.47c0-.25-.09-.52-.12-.78l-.06-.46-.09-.8-.06-.6c0-.34-.06-.68-.08-1s0-.76-.06-1.14c0-.1,0-.19,0-.29,0-.39,0-.79,0-1.18a46,46,0,0,1,3-16.67,38.68,38.68,0,0,1,8.09-13.12A22.94,22.94,0,0,1,735,218.93a16.75,16.75,0,0,1,3.48-.37l.75,0,.75.06a11.12,11.12,0,0,1,1.14.15l.33.06.68.13,1.46.28Z" transform="translate(-210.35 -101.9)"/><path class="cls-6" d="M770,248.16a46.23,46.23,0,0,1-3,16.67,38.85,38.85,0,0,1-8.1,13.12h0a22.84,22.84,0,0,1-11.47,6.77,16.12,16.12,0,0,1-3.48.38l-.74,0-.75-.05h0l-.65-.09-.13,0-.67-.11-.11,0c-.26,0-.52-.1-.77-.17-.44-.12-.87-.25-1.3-.4l-.84-.32-.78-.35,0,0a12.75,12.75,0,0,1-1.2-.65s0,0,0,0h0l-.34-.21-.34-.22h0c-.27-.18-.54-.37-.8-.57l-.37-.28c-.12-.1-.25-.19-.37-.3-.36-.29-.71-.61-1.05-.94l-.39-.39c-.33-.33-.64-.67-1-1l-.32-.38c-.21-.25-.41-.52-.62-.79s-.37-.5-.54-.75l-.05-.07c-.39-.57-.75-1.16-1.1-1.77s-.66-1.22-1-1.87c0,0,0,0,0-.06v0q-.45-1-.84-2h0l-.36-1-.06-.18c-.11-.33-.22-.67-.32-1s-.17-.55-.25-.83-.07-.29-.11-.43c-.09-.34-.18-.69-.25-1s-.17-.74-.25-1.12c0,0,0-.05,0-.07-.14-.71-.26-1.44-.36-2.18l-.06-.46c0-.27-.07-.53-.1-.8s0-.41,0-.6c0-.34-.06-.68-.08-1s0-.76-.06-1.14c0-.1,0-.2,0-.29,0-.4,0-.79,0-1.19-.08-11.67,4.4-22.84,11.11-29.78A22.84,22.84,0,0,1,747,221.29l.19,0h0l.81-.14h0a16,16,0,0,1,2.46-.19l.75,0,.76.05h0l.65.09.13,0,.29,0,.32.06h.06c.29,0,.58.12.88.2s.54.14.81.23c.45.14.89.31,1.32.49l.78.35,0,0c.26.12.51.26.75.39l.5.29a17.18,17.18,0,0,1,2.25,1.61c.23.18.44.37.66.57s.71.67,1,1,.45.47.66.73.23.26.34.4.39.5.59.76l.3.41c.2.28.39.55.58.84.28.44.56.89.82,1.34l.06.11c.15.27.3.55.44.83s.33.64.49,1c0,0,0,0,0,0,.15.32.3.65.43,1s.29.68.42,1a0,0,0,0,1,0,0c.13.35.26.71.38,1.07.22.63.42,1.28.6,1.94l.12.43c.09.34.17.68.25,1s.18.79.26,1.19.16.89.24,1.34.11.74.16,1.12.1.84.14,1.27.08.84.11,1.28v0c0,.38,0,.77.06,1.16a2.83,2.83,0,0,1,0,.29C770,247.37,770,247.77,770,248.16Z" transform="translate(-210.35 -101.9)"/><line class="cls-6" x1="529.76" y1="182.71" x2="529.76" y2="243.2"/><path class="cls-5" d="M517.35,239.87l-.29,0-.13,0-.65-.08h0c-.26,0-.5,0-.76-.06l-.75,0a14.83,14.83,0,0,0-2.46.2h0a7.62,7.62,0,0,0-.81.14h0l-.19,0a22.9,22.9,0,0,0-11.48,6.77c-6.71,6.94-11.19,18.11-11.11,29.79,0,.4,0,.79,0,1.18a2.71,2.71,0,0,0,0,.29q0,.57.06,1.14c0,.34,0,.68.08,1s0,.4.05.6.06.54.1.8l.06.46c.1.74.22,1.47.36,2.18,0,0,0,.05,0,.08.08.37.16.75.25,1.11s.16.69.25,1c0,.15.08.29.11.44s.16.55.25.82.21.69.32,1l.06.17.36,1v0c.26.68.54,1.33.84,2,0,0,0,0,0,0s0,0,0,.07c.31.65.63,1.27,1,1.87s.71,1.2,1.1,1.76l.05.07c.17.26.36.51.54.76s.41.53.62.78l.32.39c.31.35.62.7.95,1l.39.38c.34.33.69.65,1.05.95.12.11.25.2.37.3l.37.28c.26.2.53.39.8.57h0l.34.22.34.21h0l0,0c.39.23.8.45,1.2.65l0,0c.26.12.52.25.78.35s.57.23.84.32a12.17,12.17,0,0,0,1.3.4c.25.07.51.12.77.18l-11.88-2.33h-.07c-.28-.05-.56-.12-.85-.19l-.43-.12-.43-.14a12.84,12.84,0,0,1-1.35-.5l-.33-.14-.41-.2c-.41-.2-.81-.41-1.21-.65l0,0h0l-.34-.22-.39-.25c-.25-.17-.51-.35-.76-.54l-.36-.28-.37-.3a16.75,16.75,0,0,1-1.74-1.64l-.33-.35-.33-.37c-.11-.13-.21-.26-.32-.38a24,24,0,0,1-1.77-2.48l-.54-.9c-.34-.6-.66-1.22-1-1.87l0-.06v0c-.26-.56-.51-1.14-.74-1.74-.07-.17-.14-.34-.2-.52s-.18-.48-.26-.72a.64.64,0,0,1-.06-.18c-.11-.29-.2-.6-.29-.9s-.21-.69-.31-1c0-.18-.09-.36-.14-.54l0-.13c-.06-.23-.12-.47-.17-.7s-.17-.75-.24-1.12-.18-1-.26-1.48c0-.25-.09-.52-.12-.78l-.06-.46-.09-.79-.06-.61c0-.34-.06-.67-.08-1s-.05-.76-.06-1.14c0-.1,0-.2,0-.29,0-.4,0-.79,0-1.19a46,46,0,0,1,3-16.67,38.63,38.63,0,0,1,8.09-13.11,22.8,22.8,0,0,1,11.49-6.78,16.75,16.75,0,0,1,3.48-.37c.25,0,.5,0,.75,0l.75.05a11.16,11.16,0,0,1,1.14.16l.33.05.68.13,1.46.29Z" transform="translate(-210.35 -101.9)"/><path class="cls-6" d="M534.28,266.9a46.23,46.23,0,0,1-3,16.67,38.81,38.81,0,0,1-8.1,13.11h0a22.93,22.93,0,0,1-11.47,6.78,16.75,16.75,0,0,1-3.48.37c-.24,0-.49,0-.74,0l-.75-.05h0l-.65-.08-.13,0-.67-.12-.11,0c-.26-.06-.52-.11-.77-.18a12.17,12.17,0,0,1-1.3-.4c-.27-.09-.56-.2-.84-.32s-.52-.23-.78-.35l0,0c-.4-.2-.81-.42-1.2-.65l0,0h0l-.34-.21-.34-.22h0c-.27-.18-.54-.37-.8-.57l-.37-.28-.37-.3c-.36-.3-.71-.62-1.05-.95l-.39-.38c-.33-.33-.64-.68-.95-1l-.32-.39c-.21-.25-.41-.51-.62-.78s-.37-.5-.54-.76l-.05-.07c-.39-.56-.75-1.15-1.1-1.76s-.66-1.22-1-1.87c0,0,0-.05,0-.07s0,0,0,0c-.3-.64-.58-1.29-.84-2v0l-.36-1-.06-.17c-.11-.33-.22-.67-.32-1s-.17-.55-.25-.82-.07-.29-.11-.44c-.09-.34-.18-.68-.25-1s-.17-.74-.25-1.11c0,0,0,0,0-.08-.14-.71-.26-1.44-.36-2.18l-.06-.46c0-.26-.07-.53-.1-.8s0-.4-.05-.6-.06-.68-.08-1-.05-.76-.06-1.14a2.71,2.71,0,0,1,0-.29c0-.39,0-.78,0-1.18-.08-11.68,4.4-22.85,11.11-29.79A22.9,22.9,0,0,1,511.28,240l.19,0h0a7.62,7.62,0,0,1,.81-.14h0a14.83,14.83,0,0,1,2.46-.2l.75,0c.26,0,.5,0,.76.06h0l.65.08.13,0,.29,0,.32.06h.06l.88.2.81.23c.45.15.89.31,1.32.49l.78.35,0,0c.26.12.51.25.75.38l.5.29a18.17,18.17,0,0,1,2.25,1.61c.23.18.44.38.66.57s.71.68,1,1,.45.48.66.73l.34.4c.2.25.39.5.59.77l.3.4c.2.28.39.56.58.85s.56.88.82,1.33l.06.12c.15.27.3.54.44.82s.33.64.49,1c0,0,0,0,0,0,.15.32.3.65.43,1s.29.67.42,1c0,0,0,0,0,0,.13.35.26.7.38,1.07.22.63.42,1.27.6,1.93l.12.44c.09.33.17.68.25,1s.18.8.26,1.19.16.89.24,1.34.11.74.16,1.12l.15,1.27c0,.43.07.85.1,1.28v0c0,.39.05.78.06,1.16,0,.1,0,.2,0,.29C534.27,266.11,534.28,266.5,534.28,266.9Z" transform="translate(-210.35 -101.9)"/><line class="cls-6" x1="294" y1="201.44" x2="294" y2="311.93"/><ellipse class="cls-10" cx="1287.25" cy="821.69" rx="61.34" ry="12.64"/><path class="cls-10" d="M1672.08,860.62c.22,3.92-9.71,9.38-22.19,12.2s-22.76,1.95-23-2,9.7-9.38,22.18-12.2S1671.85,856.71,1672.08,860.62Z" transform="translate(-210.35 -101.9)"/><polygon class="cls-7" points="1209.87 418.75 979.11 490.57 607.06 375.06 837.82 303.25 1209.87 418.75"/><polygon class="cls-7" points="979.11 604.94 599.15 723.18 227.1 607.68 607.06 489.43 979.11 604.94"/><polygon class="cls-5" points="599.15 723.18 599.15 815.33 227.1 699.83 227.1 607.68 599.15 723.18"/><polygon class="cls-6" points="1402.85 676.28 1402.85 735.03 1079.36 835.73 1079.36 776.98 1402.85 676.28"/><polygon class="cls-5" points="979.11 490.57 979.11 604.94 607.06 489.43 607.06 375.06 979.11 490.57"/><polygon class="cls-6" points="1209.87 418.75 1209.87 615.96 1130.44 591.24 806.96 691.95 806.96 750.71 599.15 815.33 599.15 723.18 979.11 604.94 979.11 490.57 1209.87 418.75"/><polygon class="cls-5" points="1079.36 776.98 1079.36 835.73 806.96 750.71 806.96 691.95 1079.36 776.98"/><polygon class="cls-7" points="1402.85 676.28 1079.36 776.98 806.96 691.95 1130.44 591.24 1209.87 615.96 1402.85 676.28"/><g class="cls-11"><polygon class="cls-12" points="295.12 605.12 515.47 672.82 827.41 573.48 607.06 505.78 295.12 605.12"/></g><polygon class="cls-7" points="225.38 549.02 508.42 636.44 837.89 533.23 554.85 445.82 225.38 549.02"/><path class="cls-13" d="M733.4,644.81c-15.95,5.33-51.62,2.15-79.65-7.1s-37.83-21.07-21.88-26.4,51.62-2.15,79.66,7.11S749.36,639.49,733.4,644.81Z" transform="translate(-210.35 -101.9)"/><line class="cls-9" x1="363.85" y1="531.67" x2="390.68" y2="561.2"/><line class="cls-9" x1="426.13" y1="550.41" x2="328.4" y2="542.47"/><line class="cls-9" x1="572.37" y1="549.96" x2="599.21" y2="579.49"/><line class="cls-9" x1="634.65" y1="568.7" x2="536.93" y2="560.75"/><path class="cls-9" d="M761.43,697.65c-18.24-6-36.21-13.89-52.14-21.37-33.57-15.75-35.54-34.19-35.09-41.26" transform="translate(-210.35 -101.9)"/><path class="cls-6" d="M713.52,636.53c-9.82,3-31.78,1.21-49-4s-23.3-11.82-13.47-14.82,31.78-1.2,49,4S723.34,633.54,713.52,636.53Z" transform="translate(-210.35 -101.9)"/><line class="cls-9" x1="551.08" y1="574.96" x2="551.08" y2="595.74"/><line class="cls-9" x1="506.56" y1="601.95" x2="551.08" y2="595.74"/><line class="cls-7" x1="733.69" y1="550.37" x2="500.56" y2="478.37"/><polygon class="cls-14" points="898.51 902.86 787.11 878.08 786.58 870.51 897.98 895.29 898.51 902.86"/><polygon class="cls-15" points="1015.58 858.51 898.51 902.86 898 895.62 1015.07 851.27 1015.58 858.51"/><polygon class="cls-16" points="1015.07 851.27 903.64 826.06 881.2 834.39 786.57 870.41 898 895.62 1015.07 851.27"/><path class="cls-15" d="M1098.56,732.8c-3.3-31.22-30.53-47.24-61.78-35.84-31.76,11.58-55.69,47.13-53.66,79.58,0,.17,0,.33,0,.5L996.9,972l115.9-43.91L1099,732.63Zm-6,124.47-79.78,30.22-7.77-110.74c0-.12,0-.23,0-.34-1.39-22.35,15.07-46.81,36.94-54.78,21.5-7.84,40.25,3.17,42.52,24.67l.31-.12Z" transform="translate(-210.35 -101.9)"/><polygon class="cls-14" points="902.09 884.86 815.7 865.64 810.88 797.26 897.27 816.48 902.09 884.86"/><polygon class="cls-15" points="992.88 850.47 902.09 884.86 897.28 816.73 988.07 782.34 992.88 850.47"/><polygon class="cls-17" points="954.63 811.78 933.03 819.97 931.88 803.76 953.49 795.57 954.63 811.78"/><polygon class="cls-16" points="988.07 782.34 901.66 762.79 884.25 769.25 810.87 797.18 897.28 816.73 988.07 782.34"/><polygon class="cls-17" points="953.4 795.39 868.04 775.64 846.34 783.86 931.7 803.62 953.4 795.39"/><polygon class="cls-14" points="879.25 818.18 792.86 798.96 788.03 730.58 874.42 749.79 879.25 818.18"/><polygon class="cls-15" points="970.04 783.78 879.25 818.18 874.44 750.05 965.23 715.66 970.04 783.78"/><polygon class="cls-17" points="931.79 745.1 910.19 753.29 909.04 737.08 930.65 728.89 931.79 745.1"/><polygon class="cls-16" points="965.23 715.66 878.81 696.11 861.41 702.57 788.03 730.5 874.44 750.05 965.23 715.66"/><polygon class="cls-17" points="930.56 728.71 845.2 708.96 823.5 717.18 908.86 736.94 930.56 728.71"/><polygon class="cls-14" points="893.53 747.52 807.14 728.3 802.31 659.92 888.7 679.14 893.53 747.52"/><polygon class="cls-15" points="984.32 713.13 893.53 747.52 888.72 679.4 979.51 645 984.32 713.13"/><polygon class="cls-17" points="946.07 674.45 924.47 682.63 923.32 666.42 944.93 658.23 946.07 674.45"/><polygon class="cls-16" points="979.51 645 893.09 625.45 875.69 631.91 802.31 659.85 888.72 679.4 979.51 645"/><polygon class="cls-17" points="944.84 658.06 859.48 638.3 837.78 646.52 923.14 666.28 944.84 658.06"/><path class="cls-18" d="M1047.9,980.92c0-18.85-15.28-38.51-34.13-43.92-8-2.28-15.29-1.64-21.09,1.27h0c-.38.18-.75.38-1.11.59l-11.79,6.3-1.73,38.46s11.64,12,12.23,12.53,31.92,14.45,31.92,14.45l10.59-5.67a23.2,23.2,0,0,0,5.11-2.74h0C1044.08,997.78,1047.9,990.34,1047.9,980.92Z" transform="translate(-210.35 -101.9)"/><ellipse class="cls-18" cx="1002.76" cy="976.98" rx="29.58" ry="39.37" transform="translate(-605.23 793.67) rotate(-40.92)"/><ellipse class="cls-16" cx="1002.76" cy="976.98" rx="16.44" ry="21.88" transform="translate(-605.23 793.68) rotate(-40.92)"/><polygon class="cls-7" points="1485.17 597.33 1485.17 631.98 1478.34 627.98 1478.34 599.29 1485.17 597.33"/><polygon class="cls-6" points="1505.44 568.2 1490.65 583.9 1483.03 591.99 1478.34 596.97 1475.34 600.15 1468.52 596.15 1498.61 564.2 1505.44 568.2"/><polygon class="cls-7" points="1525.71 585.71 1525.71 620.35 1485.17 631.98 1485.17 597.33 1518.89 587.66 1525.71 585.71"/><polygon class="cls-18" points="1535.54 582.89 1525.71 585.71 1518.89 587.66 1485.17 597.33 1478.34 599.29 1475.34 600.15 1478.34 596.97 1483.03 591.99 1490.65 583.9 1505.44 568.2 1527.85 579.14 1535.54 582.89"/><path class="cls-19" d="M1649.49,600.29a49.94,49.94,0,0,1,10.49-14,44.42,44.42,0,0,1,17.93-10.47,33.1,33.1,0,0,1,9.08-1.33,25.43,25.43,0,0,1,8.64,1.44c9.12,3.22,15.16,11.72,15.16,23.34v70.52" transform="translate(-210.35 -101.9)"/><line class="cls-9" x1="1464.16" y1="529.8" x2="1460.73" y2="527.85"/><line class="cls-9" x1="1417.1" y1="598.24" x2="1413.44" y2="595.97"/><path class="cls-18" d="M1641.64,730.55v.79l-7.88,2.26,6.82,4,7.88-2.26v-6.75Zm0,22.69v.8l-7.88,2.26,6.82,4,7.88-2.26v-6.76Zm12.56-108.43a7.92,7.92,0,0,1,.58,3.09c0,5.21-4.22,10.64-9.43,12.13a9.54,9.54,0,0,1-2,.36c1.32,3.23,4.79,4.8,8.85,3.64,5.21-1.49,9.43-6.92,9.43-12.13C1661.6,647.39,1658.44,644.53,1654.2,644.81Zm-35.67,49.8a23.64,23.64,0,0,0,5.21,3.23Zm48-67.45,4.56,2.59A23.25,23.25,0,0,0,1666.52,627.16Zm-12.32,17.65a7.92,7.92,0,0,1,.58,3.09c0,5.21-4.22,10.64-9.43,12.13a9.54,9.54,0,0,1-2,.36c1.32,3.23,4.79,4.8,8.85,3.64,5.21-1.49,9.43-6.92,9.43-12.13C1661.6,647.39,1658.44,644.53,1654.2,644.81Z" transform="translate(-210.35 -101.9)"/><path class="cls-5" d="M1641.58,776c-4.53-.06-7.82-3.32-7.82-8.28V756.3l6.82,4v11.37A9,9,0,0,0,1641.58,776Z" transform="translate(-210.35 -101.9)"/><path class="cls-5" d="M1640.58,704.24v26.5l-6.82-3.89V703.06A27.8,27.8,0,0,0,1640.58,704.24Z" transform="translate(-210.35 -101.9)"/><polygon class="cls-5" points="1430.23 635.7 1430.23 651.64 1423.41 647.64 1423.41 631.7 1430.23 635.7"/><path class="cls-5" d="M1672.4,630.77c-5.77-2.25-12.73-2.53-20.23-.38C1632.17,636.12,1616,657,1616,677c0,9.26,3.47,16.71,9.2,21.46-.47-.17-.92-.36-1.37-.57l0,0-5.21-3.23,0,0c-5.82-4.76-9.36-12.26-9.36-21.61,0-20,16.21-40.86,36.21-46.59a37.53,37.53,0,0,1,6.82-1.31,28.68,28.68,0,0,1,14.35,2.08l4.56,2.59Q1671.76,630.23,1672.4,630.77Z" transform="translate(-210.35 -101.9)"/><path class="cls-5" d="M1674.53,631.71l2.31,1.31A23.72,23.72,0,0,0,1674.53,631.71Zm-34,99v.11l.13,0Z" transform="translate(-210.35 -101.9)"/><path class="cls-8" d="M1676.87,633l0,0-2.31-1.31h0a19,19,0,0,0-2.11-.93c-5.77-2.25-12.73-2.53-20.23-.38C1632.17,636.12,1616,657,1616,677c0,9.26,3.47,16.71,9.2,21.46a20.87,20.87,0,0,0,2.29,1.7l.48.3a24.39,24.39,0,0,0,5.83,2.62,27.8,27.8,0,0,0,6.82,1.18v26.5l.13.07.93-.26,6.82-2v6.75l-7.88,2.26v15.94l1.06-.3,6.82-2V758l-7.88,2.26v11.37a9,9,0,0,0,1,4.28,7.28,7.28,0,0,0,2.33,2.65l.22.13a9,9,0,0,0,7.45.79l1.18-.34c6.08-1.74,11-8.08,11-14.15V697.6c14.32-9,24.62-25.44,24.62-41.38C1688.38,645.77,1684,637.62,1676.87,633Zm-24.7,31c-4.06,1.16-7.53-.41-8.85-3.64a7.92,7.92,0,0,1-.58-3.09c0-5.21,4.22-10.64,9.43-12.13a9.54,9.54,0,0,1,2-.36c4.24-.28,7.4,2.58,7.4,7.09C1661.6,657.11,1657.38,662.54,1652.17,664Z" transform="translate(-210.35 -101.9)"/><line class="cls-9" x1="1431.29" y1="629.44" x2="1430.36" y2="628.91"/><line class="cls-9" x1="1433.56" y1="676.7" x2="1428.41" y2="673.56"/><line class="cls-9" x1="1438.11" y1="656.14" x2="1431.28" y2="652.14"/><line class="cls-9" x1="1438.11" y1="633.44" x2="1431.28" y2="629.44"/><path class="cls-20" d="M1640.42,628.14c-.05-1-.07-2-.07-3,0-8.28,4.14-17.11,9.14-24.87a141.33,141.33,0,0,1,10.49-14c-6.29,11.36,0,24.9,0,38.9v.11c0,1.27,0,2.51-.11,3.73-.38,6.43-1.69,12.06-3.57,15.94a15.74,15.74,0,0,1-1.54,2.62h0c-1.37,1.88-2.93,2.95-4.59,2.95a5.14,5.14,0,0,1-3.66-1.83" transform="translate(-210.35 -101.9)"/><polygon class="cls-8" points="1234.91 260.36 1234.91 612.15 1150.69 637.36 1084.26 657.24 1018.53 676.92 1018.53 325.13 1090.02 303.73 1104.09 299.52 1127.09 292.64 1141.15 288.43 1234.91 260.36"/><path class="cls-9" d="M1276.55,702.08,1295,692c5.28-2.88,10.65-5.82,14.85-10.11,7.79-8,10.57-19.41,13-30.26,1-4.2,1.76-9.11-1-12.37s-8.61-3.07-12.09-.29-5.09,7.31-5.79,11.71c-2,12.87,4.55,28.2,17.3,30.9,13.26,2.81,25.5-9.11,30.2-21.82,1.63-4.42,2-10.7-2.4-12.5-2.61-1.08-5.68.24-7.65,2.27-5.23,5.39-4,15.13,1.62,20s14.46,5.19,21.14,1.77,11.37-10,13.92-17c1-2.9,1.79-6.06,1.09-9.07s-3.17-5.78-6.25-6c-4.3-.25-7.49,5-6.16,9.08s5.85,6.52,10.16,6.55,8.38-1.89,12-4.16a59.74,59.74,0,0,0,14.28-12.34" transform="translate(-210.35 -101.9)"/><line class="cls-9" x1="1083.08" y1="607.77" x2="1083.08" y2="607.77"/><line class="cls-21" x1="1096.48" y1="603.62" x2="1183.57" y2="576.6"/><line class="cls-9" x1="1190.27" y1="574.52" x2="1190.27" y2="574.52"/><polygon class="cls-7" points="1202.19 323.34 1202.19 347.76 1051.24 392.95 1051.24 368.52 1202.19 323.34"/><ellipse class="cls-22" cx="1337.07" cy="403.45" rx="33.65" ry="25.02" transform="translate(42.94 1182.43) rotate(-55.89)"/><ellipse class="cls-23" cx="1337.07" cy="403.45" rx="20.48" ry="15.23" transform="translate(42.93 1182.43) rotate(-55.89)"/><line class="cls-7" x1="1186.07" y1="379.77" x2="1052.24" y2="419.83"/><line class="cls-7" x1="1176.75" y1="402.49" x2="1052.24" y2="439.76"/><line class="cls-7" x1="1203.2" y1="414.5" x2="1052.24" y2="459.69"/><line class="cls-7" x1="1145.15" y1="451.8" x2="1052.24" y2="479.61"/><line class="cls-7" x1="1126.72" y1="488.24" x2="1052.24" y2="510.03"/><line class="cls-7" x1="1126.72" y1="500.68" x2="1052.24" y2="522.48"/><path class="cls-18" d="M1523.16,727.3V894.48c0,2.15-11.62,3.9-26,3.9s-25.94-1.75-25.94-3.9V727.3c0,2.15,11.62,3.9,25.94,3.9S1523.16,729.45,1523.16,727.3Z" transform="translate(-210.35 -101.9)"/><path class="cls-18" d="M1523.16,727.3c0,2.15-11.62,3.9-26,3.9s-25.94-1.75-25.94-3.9c0-.44.49-.86,1.38-1.25,3.48-1.54,13.17-2.64,24.56-2.64s21.08,1.1,24.57,2.64C1522.67,726.44,1523.16,726.86,1523.16,727.3Z" transform="translate(-210.35 -101.9)"/><path class="cls-7" d="M1512.77,625.75V726c0,1.29-7,2.33-15.56,2.33s-15.55-1-15.55-2.33V625.75c0,1.29,7,2.34,15.55,2.34S1512.77,627,1512.77,625.75Z" transform="translate(-210.35 -101.9)"/><path class="cls-5" d="M1602.92,540.49v70.84h-40.15a9.8,9.8,0,0,1-9.8-9.8l-2-7.87h-24.13v53.52c0,2.45-13.25,4.44-29.62,4.44s-29.61-2-29.61-4.44v-59a42.42,42.42,0,0,0-21.06-12.28c-21-4.82-43.06,1.21-79.49,17.76,0,0,22.78-59,114.6-59,14.35,0,25.23-1.81,35,2s6.48,17.4,18.72,17.4H1552l1-3.68a9.79,9.79,0,0,1,9.8-9.8Z" transform="translate(-210.35 -101.9)"/><ellipse class="cls-6" cx="1393.22" cy="474.01" rx="8" ry="35.42"/><polygon class="cls-13" points="777.74 527.92 738.75 539.63 631.4 506.22 670.38 494.51 777.74 527.92"/><path class="cls-23" d="M949,589.56,842,556.27v-15a11.87,11.87,0,0,1,8.46-11.37l26.9-8.09a11.84,11.84,0,0,1,7,0l95.16,29.61a11.88,11.88,0,0,1,8.35,11.34v15.07L949,589.56" transform="translate(-210.35 -101.9)"/><path class="cls-23" d="M951.66,582.21,836.28,546.3V530.16a12.8,12.8,0,0,1,9.13-12.27l29-8.73a12.86,12.86,0,0,1,7.5,0l102.63,31.94a12.82,12.82,0,0,1,9,12.24v16.24l-41.9,12.59" transform="translate(-210.35 -101.9)"/><path class="cls-23" d="M849.24,524.66l95.44,29.71a23.87,23.87,0,0,0,14,.06l20.63-6.2" transform="translate(-210.35 -101.9)"/><path class="cls-24" d="M931.43,479.1v53c0,2.78-7.39,5-16.51,5s-16.51-2.26-16.51-5v-53Z" transform="translate(-210.35 -101.9)"/><circle class="cls-25" cx="704.57" cy="360.96" r="29.94"/><polygon class="cls-26" points="1019.61 717.66 1047.21 726.42 1239.47 668.92 1211.86 660.16 1019.61 717.66"/><polygon class="cls-10" points="621.68 923.94 649.28 932.7 748.79 900.46 721.18 891.7 621.68 923.94"/><polygon class="cls-8" points="723.59 683.64 646.87 708.41 646.87 631.69 723.59 606.92 723.59 683.64"/><polygon class="cls-7" points="712.16 675.9 658.3 693.29 658.3 639.43 712.16 622.04 712.16 675.9"/><line class="cls-9" x1="666.43" y1="649.96" x2="687.55" y2="672.13"/><line class="cls-9" x1="737.36" y1="607.96" x2="687.55" y2="672.13"/><polygon class="cls-8" points="723.59 782.92 646.87 807.69 646.87 730.97 723.59 706.2 723.59 782.92"/><polygon class="cls-7" points="712.16 775.18 658.3 792.57 658.3 738.71 712.16 721.32 712.16 775.18"/><line class="cls-9" x1="666.43" y1="749.25" x2="687.55" y2="771.41"/><line class="cls-9" x1="737.36" y1="707.25" x2="687.55" y2="771.41"/><polygon class="cls-8" points="723.59 875.76 646.87 900.54 646.87 823.81 723.59 799.04 723.59 875.76"/><polygon class="cls-7" points="712.16 868.02 658.3 885.42 658.3 831.55 712.16 814.16 712.16 868.02"/><line class="cls-9" x1="666.43" y1="842.09" x2="687.55" y2="864.26"/><line class="cls-9" x1="737.36" y1="800.09" x2="687.55" y2="864.26"/><ellipse class="cls-26" cx="879.4" cy="405.88" rx="83.12" ry="19.72"/><path class="cls-18" d="M1090,366.49,1063.64,464c-.91,3.37-10.6,3.68-21.63.7s-19.24-8.12-18.33-11.49L1050,355.7Z" transform="translate(-210.35 -101.9)"/><ellipse class="cls-18" cx="1069.98" cy="361.09" rx="6.32" ry="20.7" transform="translate(232.09 1198.04) rotate(-74.89)"/><path class="cls-7" d="M1096.81,306.92l-15,55.49c-.52,1.92-6,2.1-12.31.4s-11-4.63-10.44-6.54l15-55.5Z" transform="translate(-210.35 -101.9)"/><path class="cls-18" d="M1025.75,172.78c-15.25,56.47,2,121.08,38.61,144.3a50.56,50.56,0,0,0,26.63,8.33h.06l4.9-.2h0a49.75,49.75,0,0,0,15-3.93,61.28,61.28,0,0,0,14.73-9.17,85.55,85.55,0,0,0,17.72-20.66,127.08,127.08,0,0,0,14.72-34.57c11.77-43.59,4.16-92-16.75-122.53a79.62,79.62,0,0,0-18.21-19.27q-1.79-1.31-3.65-2.49a55.05,55.05,0,0,0-11.28-5.55,47.38,47.38,0,0,0-15.65-2.79l-4.21.16C1061.67,106.67,1036.75,132.05,1025.75,172.78Zm7.14,4.54c10.47-38.75,35-61.91,60.69-61.12,1,0,2,.1,3.07.21,0,0,0,0,0,0a43.43,43.43,0,0,1,11.78,3,49.74,49.74,0,0,1,8.15,4.21c32.62,20.73,48,78.36,34.43,128.73-7.6,28.16-22.66,48.09-40.16,56.58a45.66,45.66,0,0,1-11.77,3.88c-1,.19-2,.33-3,.44-9.53,1-19.34-1.22-28.76-7.19C1034.71,285.33,1019.29,227.7,1032.89,177.32Z" transform="translate(-210.35 -101.9)"/><path class="cls-18" d="M1091.05,325.41a47.11,47.11,0,0,0,4.9-.2Z" transform="translate(-210.35 -101.9)"/><path class="cls-18" d="M1088.43,104.41l4.21-.16C1091.23,104.24,1089.83,104.29,1088.43,104.41Z" transform="translate(-210.35 -101.9)"/><path class="cls-18" d="M1099.1,312.8a41.8,41.8,0,0,1-4.53-.72l1.52,1.16C1097.1,313.13,1098.1,313,1099.1,312.8Z" transform="translate(-210.35 -101.9)"/><path class="cls-18" d="M1092.06,117.49a43,43,0,0,1,4.59-1.08c-1-.11-2.05-.18-3.07-.21C1093.06,116.62,1092.56,117.05,1092.06,117.49Z" transform="translate(-210.35 -101.9)"/><path class="cls-5" d="M1032.89,177.32c-13.6,50.38,1.82,108,34.44,128.73,9.42,6,19.23,8.23,28.76,7.19l-1.52-1.16a47.86,47.86,0,0,1-15.45-6.48c-32.61-20.72-48-78.35-34.43-128.73,8.62-32,26.86-53.31,47.36-59.37h0c.5-.44,1-.87,1.52-1.29C1067.94,115.41,1043.36,138.57,1032.89,177.32Z" transform="translate(-210.35 -101.9)"/><path class="cls-5" d="M1099.1,312.8a41.8,41.8,0,0,1-4.53-.72l1.52,1.16C1097.1,313.13,1098.1,313,1099.1,312.8Z" transform="translate(-210.35 -101.9)"/><path class="cls-5" d="M1092.06,117.49a43,43,0,0,1,4.59-1.08c-1-.11-2.05-.18-3.07-.21C1093.06,116.62,1092.56,117.05,1092.06,117.49Z" transform="translate(-210.35 -101.9)"/><path class="cls-9" d="M1125.37,324a45.07,45.07,0,0,0,6.87-.28Z" transform="translate(-210.35 -101.9)"/><path class="cls-9" d="M1094.57,312.08l1.52,1.16c1-.11,2-.25,3-.44A41.8,41.8,0,0,1,1094.57,312.08Z" transform="translate(-210.35 -101.9)"/><path class="cls-9" d="M1092.06,117.49a43,43,0,0,1,4.59-1.08c-1-.11-2.05-.18-3.07-.21C1093.06,116.62,1092.56,117.05,1092.06,117.49Z" transform="translate(-210.35 -101.9)"/><path class="cls-8" d="M1044.69,176.87c-13.61,50.38,1.82,108,34.43,128.73a47.86,47.86,0,0,0,15.45,6.48,41.8,41.8,0,0,0,4.53.72,45.66,45.66,0,0,0,11.77-3.88c17.5-8.49,32.56-28.42,40.16-56.58,13.61-50.37-1.81-108-34.43-128.73a49.74,49.74,0,0,0-8.15-4.21,43.43,43.43,0,0,0-11.78-3s0,0,0,0a43,43,0,0,0-4.59,1.08h0C1071.55,123.56,1053.31,144.92,1044.69,176.87Z" transform="translate(-210.35 -101.9)"/><path class="cls-27" d="M1056.13,180.1a107.84,107.84,0,0,0-2.39,11" transform="translate(-210.35 -101.9)"/><path class="cls-27" d="M1086.78,136.2c-8.73,4.57-16.68,12.56-23,23.4" transform="translate(-210.35 -101.9)"/><line class="cls-9" x1="878.08" y1="2.51" x2="877.91" y2="2.52"/><path class="cls-5" d="M1092.64,104.25a47.38,47.38,0,0,1,15.65,2.79,55.05,55.05,0,0,1,11.28,5.55q1.86,1.18,3.65,2.49a79.62,79.62,0,0,1,18.21,19.27c20.91,30.5,28.52,78.94,16.75,122.53a127.08,127.08,0,0,1-14.72,34.57,85.55,85.55,0,0,1-17.72,20.66,61.28,61.28,0,0,1-14.73,9.17,49.75,49.75,0,0,1-15,3.93l29.33-1.17h0l6.87-.28h.06c26.21-3,50.45-28.21,61.26-68.23,15.25-56.46-2-121.07-38.6-144.29-9.39-6-19.14-8.62-28.7-8.31h-.08l-1.15,0Z" transform="translate(-210.35 -101.9)"/></g></g></svg>