<svg xmlns="http://www.w3.org/2000/svg" viewBox="0 0 1200 937"><defs><style>.cls-1{isolation:isolate;}.cls-2,.cls-3{fill:#9dc7e0;}.cls-2{opacity:0.15;}.cls-3{opacity:0.25;mix-blend-mode:multiply;}.cls-4,.cls-6{fill:#fff;}.cls-4,.cls-5{stroke:#0c1733;stroke-linecap:round;stroke-linejoin:round;}.cls-4,.cls-5,.cls-6{stroke-width:2px;}.cls-5{fill:#f9ef35;}.cls-6{stroke:#000;stroke-miterlimit:10;}.cls-7{fill:#cfdde5;}.cls-8{fill:#a3bdcc;}.cls-9{fill:#edf4f8;}</style></defs><title>01_Vector</title><g class="cls-1"><g id="Layer_1" data-name="Layer 1"><path class="cls-2" d="M814,758.68C701.2,799.56,597.07,804.56,493.43,800.2c-74.82-3.14-133.81-20.56-157.53-55.79-94.22-140-129.75-329.64,11.57-387.17C393.7,338.42,482.24,331.8,581.6,338c95.38,6,200.74,23.82,288.17,54.11C975.51,428.77,1055,483.58,1059,557.64,1063.33,637.19,943.28,711.83,814,758.68Z"/><path class="cls-3" d="M869.77,392.15,787.32,719.3h-348l61.94-375.21c26.31-2.88,53.25-4.89,80.34-6C677,344,782.34,361.86,869.77,392.15Z"/><rect class="cls-4" x="426.46" y="198.1" width="348.58" height="494.2"/><circle class="cls-5" cx="600.75" cy="198.1" r="52.8"/><circle class="cls-6" cx="600.75" cy="198.1" r="28.78"/><rect class="cls-7" x="474.95" y="292.82" width="257.31" height="20.58"/><path class="cls-8" d="M726.91,431.36a18.13,18.13,0,0,0-3.94-2.67c-1.52-.79-3.14-1.54-4.85-2.27a11.38,11.38,0,0,1-3.74-2.3,4.49,4.49,0,0,1-1.16-3.25,4.63,4.63,0,0,1,1-3.16,3.56,3.56,0,0,1,2.84-1.15,3.65,3.65,0,0,1,3.15,1.55,7.52,7.52,0,0,1,1.11,4.42h9.34a13,13,0,0,0-2.89-8.67,12,12,0,0,0-6.95-4v-6.14h-6.4v6a13.08,13.08,0,0,0-7.4,3.4,10.17,10.17,0,0,0-3.16,7.7,11.55,11.55,0,0,0,.89,4.76A10.3,10.3,0,0,0,707.3,429a17.16,17.16,0,0,0,4,2.63c1.53.76,3.2,1.5,5,2.24a10,10,0,0,1,3.79,2.35,5.07,5.07,0,0,1,1.08,3.43,4.28,4.28,0,0,1-1.08,3.09,3.92,3.92,0,0,1-3,1.12,4.9,4.9,0,0,1-4-1.65,7.2,7.2,0,0,1-1.4-4.8h-9.32a13.09,13.09,0,0,0,3.22,9.23,13.59,13.59,0,0,0,8.25,4v5.73h6.4V450.7a12.43,12.43,0,0,0,7.17-3.36,10.41,10.41,0,0,0,3-7.71,11.09,11.09,0,0,0-.94-4.79A10.66,10.66,0,0,0,726.91,431.36Z"/><path class="cls-8" d="M726.91,495.47A18.13,18.13,0,0,0,723,492.8q-2.28-1.17-4.85-2.27a11.55,11.55,0,0,1-3.74-2.29,4.52,4.52,0,0,1-1.16-3.25,4.66,4.66,0,0,1,1-3.17,3.6,3.6,0,0,1,2.84-1.15,3.65,3.65,0,0,1,3.15,1.55,7.53,7.53,0,0,1,1.11,4.43h9.34a12.91,12.91,0,0,0-2.89-8.67,12,12,0,0,0-6.95-4v-6.13h-6.4v6a13.15,13.15,0,0,0-7.4,3.4,10.2,10.2,0,0,0-3.16,7.7,11.55,11.55,0,0,0,.89,4.76,10.44,10.44,0,0,0,2.54,3.46,17.46,17.46,0,0,0,4,2.62q2.29,1.14,5,2.24a10,10,0,0,1,3.79,2.36,5,5,0,0,1,1.08,3.42,4.28,4.28,0,0,1-1.08,3.09,3.88,3.88,0,0,1-3,1.12,4.9,4.9,0,0,1-4-1.65,7.16,7.16,0,0,1-1.4-4.8h-9.32a13.08,13.08,0,0,0,3.22,9.23,13.54,13.54,0,0,0,8.25,4v5.73h6.4v-5.69a12.48,12.48,0,0,0,7.17-3.35,10.43,10.43,0,0,0,3-7.72,11.12,11.12,0,0,0-.94-4.79A10.88,10.88,0,0,0,726.91,495.47Z"/><path class="cls-8" d="M726.91,559.58a18.87,18.87,0,0,0-3.94-2.67c-1.52-.78-3.14-1.54-4.85-2.26a11.55,11.55,0,0,1-3.74-2.3,4.5,4.5,0,0,1-1.16-3.25,4.66,4.66,0,0,1,1-3.17,3.6,3.6,0,0,1,2.84-1.15,3.65,3.65,0,0,1,3.15,1.55,7.55,7.55,0,0,1,1.11,4.43h9.34a13,13,0,0,0-2.89-8.67,12,12,0,0,0-6.95-4V532h-6.4v6a13.15,13.15,0,0,0-7.4,3.4,10.2,10.2,0,0,0-3.16,7.7,11.52,11.52,0,0,0,.89,4.76,10.44,10.44,0,0,0,2.54,3.46,17.83,17.83,0,0,0,4,2.63q2.29,1.13,5,2.24a9.88,9.88,0,0,1,3.79,2.35,5.06,5.06,0,0,1,1.08,3.43,4.25,4.25,0,0,1-1.08,3.08,3.88,3.88,0,0,1-3,1.12,4.92,4.92,0,0,1-4-1.64,7.2,7.2,0,0,1-1.4-4.8h-9.32a13.07,13.07,0,0,0,3.22,9.22,13.54,13.54,0,0,0,8.25,4v5.72h6.4v-5.69a12.42,12.42,0,0,0,7.17-3.35,10.41,10.41,0,0,0,3-7.72,11.08,11.08,0,0,0-.94-4.78A10.81,10.81,0,0,0,726.91,559.58Z"/><rect class="cls-7" x="474.95" y="638.23" width="111.86" height="14.76"/><rect class="cls-8" x="474.95" y="371.7" width="45.07" height="20.58"/><rect class="cls-8" x="529.85" y="371.7" width="73.92" height="20.58"/><rect class="cls-8" x="613.6" y="371.7" width="117.07" height="20.58"/><rect class="cls-7" x="474.95" y="403.75" width="45.07" height="20.58"/><rect class="cls-9" x="529.85" y="403.75" width="73.92" height="20.58"/><rect class="cls-9" x="613.6" y="403.75" width="73.92" height="20.58"/><rect class="cls-7" x="474.95" y="435.81" width="45.07" height="20.58"/><rect class="cls-9" x="529.85" y="435.81" width="73.92" height="20.58"/><rect class="cls-9" x="613.6" y="435.81" width="73.92" height="20.58"/><rect class="cls-7" x="474.95" y="467.87" width="45.07" height="20.58"/><rect class="cls-9" x="529.85" y="467.87" width="73.92" height="20.58"/><rect class="cls-9" x="613.6" y="467.87" width="73.92" height="20.58"/><rect class="cls-7" x="474.95" y="499.92" width="45.07" height="20.58"/><rect class="cls-9" x="529.85" y="499.92" width="73.92" height="20.58"/><rect class="cls-9" x="613.6" y="499.92" width="73.92" height="20.58"/><rect class="cls-7" x="474.95" y="531.98" width="45.07" height="20.58"/><rect class="cls-9" x="529.85" y="531.98" width="73.92" height="20.58"/><rect class="cls-9" x="613.6" y="531.98" width="73.92" height="20.58"/><rect class="cls-7" x="474.95" y="564.04" width="45.07" height="20.58"/><rect class="cls-9" x="529.85" y="564.04" width="73.92" height="20.58"/><rect class="cls-9" x="613.6" y="564.04" width="73.92" height="20.58"/></g></g></svg>