<?xml version="1.0" encoding="utf-8"?>
<!-- Generator: Adobe Illustrator 23.0.1, SVG Export Plug-In . SVG Version: 6.00 Build 0)  -->
<svg version="1.1" id="Layer_1" xmlns="http://www.w3.org/2000/svg" xmlns:xlink="http://www.w3.org/1999/xlink" x="0px" y="0px"
	 viewBox="0 0 1200 937" style="enable-background:new 0 0 1200 937;" xml:space="preserve">
<style type="text/css">
	.st0{opacity:0.15;fill:#9DC7E0;enable-background:new    ;}
	.st1{opacity:0.25;fill:#9DC7E0;enable-background:new    ;}
	.st2{fill:#FFFFFF;stroke:#0C1733;stroke-width:2;stroke-linecap:round;stroke-linejoin:round;}
	.st3{fill:#F9EF35;stroke:#0C1733;stroke-width:2;stroke-linecap:round;stroke-linejoin:round;}
	.st4{fill:#FFFFFF;stroke:#000000;stroke-width:2;stroke-miterlimit:10;}
	.st5{fill:#CFDDE5;}
	.st6{fill:none;stroke:#0C1733;stroke-width:5;stroke-linecap:round;stroke-linejoin:round;}
	.st7{fill:none;stroke:#0C1733;stroke-width:5;stroke-linecap:round;stroke-linejoin:round;stroke-dasharray:0,21.31;}
	.st8{fill:none;stroke:#0C1733;stroke-width:2;stroke-linecap:round;stroke-linejoin:round;}
	.st9{fill:none;stroke:#0C1733;stroke-width:5;stroke-linecap:round;stroke-linejoin:round;stroke-dasharray:0,21.6;}
	.st10{fill:none;stroke:#0C1733;stroke-width:5;stroke-linecap:round;stroke-linejoin:round;stroke-dasharray:0,21.48;}
</style>
<title>01_Vector</title>
<g>
	<g>
		<path class="st0" d="M964.3,416.1c-1.8,18.4-5.1,36.7-9.9,54.5c-8.1,29.6-19.6,58.3-34.3,85.3c-6.4,12-13.5,23.7-21.1,35.2
			c-24.1,36.4-53.6,68.9-87.5,96.5c-42.2,34.1-91.3,59.5-144.6,70.9c-122.3,26.2-233.8,8.1-312.9-34.7
			c-33.7-18.2-61.5-40.9-81.8-66.7c-24.2-30.7-37.7-65.6-37.7-102.2c0-56.7,13.9-106.7,37.7-150.1c20.6-37.5,48.6-70.1,81.6-97.9
			c9.8-8.3,20.1-16.1,30.7-23.5c0.9-0.6,1.8-1.3,2.8-1.9c18.6-12.7,38-24.1,58.2-34.1c75.5-37.6,161.5-57.7,240.6-60.7
			c92.5-3.5,175.6,16.5,221.5,59.2C953.7,288.9,970.4,350.4,964.3,416.1z"/>
		<path class="st1" d="M721.5,417.1v-61.9c0-15.9-12.9-28.9-28.9-28.9H582.8v-41.9h-115c-0.1-22.2-18.1-17.2-40.4-17.2
			c-21.4,0-39.1-6.1-40.1,15.3c0,0.6,0,1.3,0,1.9h-115v373.7c20.3,25.7,48.1,48.4,81.8,66.7h228.7v-70.8h111
			c15.9,0,28.9-12.9,28.9-28.9v-68.2h197.5c14.7-27,26.2-55.6,34.3-85.3c4.9-17.9,8.2-36.1,9.9-54.5H721.5z M688.6,609.1
			c0,6-4.8,10.8-10.8,10.8h-95V353.7h94c6,0,10.8,3.8,10.8,9.8v53.6h-74.7v139.8h75.7V609.1z"/>
		<rect x="247.1" y="258.5" class="st2" width="310.6" height="440.4"/>
		<circle class="st3" cx="402.5" cy="258.5" r="40.3"/>
		<circle class="st4" cx="402.5" cy="258.5" r="21.9"/>
		<rect x="297.5" y="337.4" class="st5" width="215.1" height="13.1"/>
		<rect x="297.5" y="366.4" class="st5" width="215.1" height="13.1"/>
		<rect x="297.5" y="440" class="st5" width="114.4" height="13.1"/>
		<rect x="297.5" y="407.9" class="st5" width="114.4" height="13.1"/>
		<rect x="434.1" y="407.9" class="st5" width="78.4" height="45"/>
		<rect x="297.5" y="471.9" class="st5" width="215.1" height="13.1"/>
		<rect x="297.5" y="503.9" class="st5" width="215.1" height="13.2"/>
		<line class="st6" x1="297.5" y1="614.7" x2="297.5" y2="614.7"/>
		<line class="st7" x1="318.8" y1="614.7" x2="393.4" y2="614.7"/>
		<line class="st6" x1="404" y1="614.7" x2="404" y2="614.7"/>
		<path class="st8" d="M402.3,589.5c-24.4,10.1-39.9,6.2-45.6-4.3c-2.5-4.5-2.8-9.9-1-14.7c2.3-5.5,7.6-9.7,12.3-8
			c7.9,2.8,6.6,15.1,0.8,22.9c-7,9.4-17.5,14-25.1,12.8c-7.4-1.1-13.2-7.2-12.9-16.1c0.4-11.8,10.1-14.7,14.2-4.5
			s-12,23.5-27.1,20.9s-18.6-9.6-18.6-9.6"/>
		<path class="st3" d="M521.8,628h146.9c15.9,0,28.9-12.9,28.9-28.9v-50.7h-34v34.8c0,6-4.9,10.8-10.8,10.8h0h-131v-26.7L478.1,611
			l43.7,43.7V628z"/>
		<rect x="587.9" y="353.5" class="st2" width="405" height="175"/>
		<path class="st5" d="M980.9,516.5H599.8V365.4h381.1V516.5z M609.8,506.5h361.1V375.4H609.8V506.5z"/>
		<line class="st6" x1="643" y1="489.6" x2="643" y2="489.6"/>
		<line class="st9" x1="664.7" y1="489.6" x2="697" y2="489.6"/>
		<line class="st6" x1="707.8" y1="489.6" x2="707.8" y2="489.6"/>
		<line class="st6" x1="851.7" y1="489.6" x2="851.7" y2="489.6"/>
		<line class="st10" x1="873.2" y1="489.6" x2="926.9" y2="489.6"/>
		<line class="st6" x1="937.7" y1="489.6" x2="937.7" y2="489.6"/>
		<path class="st8" d="M936.3,469.3c-19.7,8.1-32.2,5-36.8-3.5c-2-3.6-2.3-8-0.8-11.9c1.8-4.5,6.1-7.8,9.9-6.5
			c6.4,2.3,5.3,12.2,0.6,18.5c-5.6,7.5-14.1,11.3-20.2,10.3c-6-0.9-10.6-5.8-10.4-13c0.3-9.5,8.2-11.8,11.5-3.6s-9.7,19-21.8,16.9
			s-15-7.7-15-7.7"/>
		<rect x="628.3" y="421.5" class="st5" width="160.4" height="12.4"/>
		<rect x="628.3" y="391.2" class="st5" width="160.4" height="12.4"/>
		<rect x="829.7" y="391.2" class="st5" width="108" height="30.3"/>
		<polygon class="st1" points="732.2,375.4 715.3,392.4 702.8,404.8 688.5,419.1 674.2,404.8 661.8,392.4 644.8,375.4 671.5,375.4 
			671.5,354.5 705.5,354.5 705.5,375.4 		"/>
		<path class="st3" d="M696.5,365.2V330c0-15.9-12.9-28.9-28.9-28.9h-89.9v26.3h74c6,0,10.8,4.8,10.8,10.8c0,0,0,0,0,0v27h-26.7
			l43.7,43.7l43.7-43.7L696.5,365.2z"/>
		<path class="st1" d="M521.8,654.7l13.2,13.2c-0.3-0.3,0-30.3,0-30.3h21.8V628h-35L521.8,654.7z"/>
		<polygon class="st1" points="521.8,584.5 535,571.3 535,594 521.8,594 		"/>
	</g>
</g>
</svg>
