<?xml version="1.0" encoding="utf-8"?>
<!-- Generator: Adobe Illustrator 25.2.0, SVG Export Plug-In . SVG Version: 6.00 Build 0)  -->
<svg version="1.1" id="Layer_1" xmlns="http://www.w3.org/2000/svg" xmlns:xlink="http://www.w3.org/1999/xlink" x="0px" y="0px"
	 viewBox="0 0 1160.7 844.6" style="enable-background:new 0 0 1160.7 844.6;" xml:space="preserve">
<style type="text/css">
	.st0{opacity:0.15;enable-background:new    ;}
	.st1{fill:#9DC7E0;}
	.st2{fill:#F9EF35;}
	.st3{fill:none;stroke:#0C1733;stroke-width:2.0793;stroke-linecap:round;stroke-linejoin:round;stroke-miterlimit:10;}
	.st4{fill:none;stroke:#0C1733;stroke-width:5.1982;stroke-linecap:round;stroke-linejoin:round;stroke-miterlimit:10;}
	.st5{fill:#0C1733;}
	
		.st6{fill:none;stroke:#0C1733;stroke-width:5.1982;stroke-linecap:round;stroke-linejoin:round;stroke-miterlimit:10;stroke-dasharray:0,14.5166;}
	.st7{fill:#FFFFFF;}
	.st8{fill:none;stroke:#0C1733;stroke-width:2.0792;stroke-linecap:round;stroke-linejoin:round;stroke-miterlimit:10;}
	.st9{fill:#CFDDE5;}
	.st10{fill:none;stroke:#0C1733;stroke-width:1.5667;stroke-linecap:round;stroke-linejoin:round;stroke-miterlimit:10;}
	.st11{fill:#EDF4F8;}
	.st12{fill:none;stroke:#EDF4F8;stroke-width:8.3851;stroke-linecap:round;stroke-linejoin:round;stroke-miterlimit:10;}
	.st13{fill:#A3BDCC;}
	.st14{fill:none;stroke:#0C1733;stroke-width:1.677;stroke-linecap:round;stroke-linejoin:round;stroke-miterlimit:10;}
	.st15{fill:none;stroke:#0C1733;stroke-width:2.3354;stroke-linecap:round;stroke-linejoin:round;stroke-miterlimit:10;}
	.st16{opacity:0.25;enable-background:new    ;}
	.st17{fill:none;stroke:#EDF4F8;stroke-width:10.3964;stroke-linecap:round;stroke-linejoin:round;stroke-miterlimit:10;}
	.st18{fill:none;stroke:#EDF4F8;stroke-width:2.35;stroke-linecap:round;stroke-linejoin:round;stroke-miterlimit:10;}
	
		.st19{fill:none;stroke:#0C1733;stroke-width:2.0793;stroke-linecap:round;stroke-linejoin:round;stroke-miterlimit:10;stroke-dasharray:0,4.0811;}
	.st20{fill:none;stroke:#0C1733;stroke-width:1.6771;stroke-linecap:round;stroke-linejoin:round;stroke-miterlimit:10;}
</style>
<g>
	<g class="st0">
		<g>
			<g>
				<path class="st1" d="M21,657.1c13.9,33.3,48.9,51.9,79.8,63.6c42.7,16.1,87.5,26.6,132.9,31.1c22.9,2.3,45.9,2.5,68.9,3
					c22.6,0.4,45.7,1.2,67.6,6.7c41.4,10.3,77.5,34.8,117.2,49.8c68.3,25.8,147.2,31.3,216.7,1.8c16.8-7.1,32.7-16.6,47.5-27.8
					c16-12.2,29.8-28,47.2-38.1c18.3-10.4,39.2-12.7,59.3-14.8c22.6-2.4,45.3-5.1,67.8-8.8c45.2-7.3,90.1-17.5,134.3-30.4
					c20.7-6,41.4-12.7,59.1-26.2c15.5-11.9,27.3-30.8,29.2-50.9c4.5-46.3-43.6-63.4-75.4-78.4c-42.7-20.1-85.4-40.3-128.1-60.5
					c-2.7-1.3-5.8-0.9-8.5,0.5c-6-3.3-11.9-7.1-17.6-11c-16-10.9-31-23.2-47.2-33.8c-17.6-11.7-36.6-20.8-56.8-26.5
					c-42.3-12.1-87.3-12.7-131.2-11.6c-89,2.2-177.5,17.5-264.4,39.9C331.9,457.5,246,487.1,160.5,518c-20.4,7.4-41,14.5-61.2,22.3
					c-16.5,6.4-32.4,14.2-47,24.8c-13.9,10-25.9,23.3-32.4,39.8C13.5,621.7,14.2,640.9,21,657.1z"/>
			</g>
		</g>
	</g>
</g>
<g>
	<polygon class="st2" points="386.5,457.9 165.5,524.1 165.5,321.3 386.5,255.1 	"/>
	<polygon class="st3" points="386.5,457.9 165.5,524.1 165.5,321.3 386.5,255.1 	"/>
	<path class="st3" d="M203.2,434.6c6.3-3.4,12.7-6.9,19-10.4c5.5-3,11-6,15.4-10.5c8.1-8.2,11-20.1,13.5-31.3
		c1-4.3,1.8-9.4-1.1-12.8c-3-3.5-8.9-3.2-12.5-0.3c-3.6,2.9-5.2,7.6-6,12.1c-2.1,13.3,4.7,29.2,17.9,32c13.7,2.9,26.4-9.4,31.3-22.6
		c1.7-4.5,2-11-2.5-12.9c-2.7-1.1-5.9,0.2-7.9,2.4c-5.4,5.6-4.2,15.7,1.7,20.8c5.9,5.1,15,5.4,21.9,1.8c6.9-3.5,11.8-10.3,14.4-17.6
		c1.1-3,1.9-6.3,1.1-9.4c-0.7-3.1-3.3-6-6.5-6.2c-4.5-0.2-7.8,5.2-6.3,9.4s6,6.7,10.5,6.8c4.5,0,8.7-2,12.5-4.3
		c5.6-3.4,10.6-7.8,14.8-12.8"/>
	<line class="st4" x1="220.6" y1="442.4" x2="220.6" y2="442.4"/>
	<path class="st5" d="M223.2,442.4c0,1.4-1.2,2.6-2.6,2.6c-1.4,0-2.6-1.2-2.6-2.6c0-1.4,1.2-2.6,2.6-2.6
		C222.1,439.8,223.2,441,223.2,442.4z"/>
	<line class="st6" x1="234.5" y1="438.2" x2="324.6" y2="410.2"/>
	<line class="st4" x1="331.6" y1="408" x2="331.6" y2="408"/>
	
		<ellipse transform="matrix(0.9239 -0.3827 0.3827 0.9239 -130.9149 157.9416)" class="st5" cx="331.6" cy="408" rx="2.6" ry="2.6"/>
	
		<ellipse transform="matrix(0.5607 -0.828 0.828 0.5607 -124.8398 359.1265)" class="st7" cx="276" cy="297.2" rx="34.4" ry="25.5"/>
	
		<ellipse transform="matrix(0.5607 -0.828 0.828 0.5607 -124.8398 359.1271)" class="st8" cx="276" cy="297.2" rx="34.4" ry="25.5"/>
	<path class="st9" d="M287.8,279.9c7.1,4.8,7.7,16.5,1.2,26.1c-6.5,9.6-17.5,13.4-24.6,8.6c-7.1-4.8-7.7-16.5-1.2-26.1
		C269.6,278.9,280.6,275.1,287.8,279.9z"/>
	<ellipse transform="matrix(0.5607 -0.828 0.828 0.5607 -124.8385 359.128)" class="st8" cx="276" cy="297.2" rx="20.9" ry="15.6"/>
	<polygon class="st7" points="851.1,374.1 670.3,318.8 489.6,374.1 670.3,430.5 	"/>
	<polygon class="st10" points="851.1,374.1 670.3,318.8 489.6,374.1 670.3,430.5 	"/>
	<ellipse class="st11" cx="670.3" cy="374.6" rx="49.7" ry="15.4"/>
	<ellipse class="st12" cx="670.3" cy="374.6" rx="49.7" ry="15.4"/>
	<path class="st13" d="M650.5,352.1c-9.9-7.8-7.8-18.6,4.7-24.4c12.5-5.7,25.1-4.1,35.1,3.6c9.9,7.7,7.8,18.6-4.7,24.4
		C673,361.5,660.4,359.9,650.5,352.1z"/>
	<path class="st14" d="M650.5,352.1c-9.9-7.8-7.8-18.6,4.7-24.4c12.5-5.7,25.1-4.1,35.1,3.6c9.9,7.7,7.8,18.6-4.7,24.4
		C673,361.5,660.4,359.9,650.5,352.1z"/>
	<ellipse class="st2" cx="670.3" cy="331.5" rx="44.7" ry="13.8"/>
	<ellipse class="st15" cx="670.3" cy="331.5" rx="44.6" ry="13.8"/>
	<ellipse class="st2" cx="670.3" cy="321.6" rx="44.7" ry="13.8"/>
	<ellipse class="st15" cx="670.3" cy="321.6" rx="44.6" ry="13.8"/>
	<ellipse class="st2" cx="670.3" cy="311.5" rx="44.7" ry="13.8"/>
	<ellipse class="st15" cx="670.3" cy="311.5" rx="44.6" ry="13.8"/>
	<ellipse class="st2" cx="670.3" cy="301.6" rx="44.7" ry="13.8"/>
	<ellipse class="st15" cx="670.3" cy="301.6" rx="44.6" ry="13.8"/>
	<path class="st2" d="M715,281.6v9.9c0,7.6-20,13.8-44.7,13.8c-24.7,0-44.6-6.2-44.6-13.8v-9.9c0-7.6,20-13.8,44.6-13.8
		C695,267.9,715,274,715,281.6z"/>
	<path class="st15" d="M715,281.6v9.9c0,7.6-20,13.8-44.7,13.8s-44.6-6.2-44.6-13.8v-9.9c0-7.6,20-13.8,44.6-13.8
		C695,267.9,715,274,715,281.6z"/>
	<ellipse class="st13" cx="670.3" cy="281.6" rx="32.7" ry="7.5"/>
	<ellipse class="st14" cx="670.3" cy="281.6" rx="32.7" ry="7.5"/>
	
		<ellipse transform="matrix(6.213752e-02 -0.9981 0.9981 6.213752e-02 451.1968 836.2844)" class="st2" cx="670.6" cy="178.1" rx="49.7" ry="49.7"/>
	<path class="st14" d="M625.7,281.6c-0.4-23-10.2-36.4-19.7-49.3c-4.9-6.7-10-13.6-13.8-21.8c-9.2-19.9-15.3-50.8-8.1-74.7
		c11.6-38.6,44.7-62.7,86.2-62.7s74.6,24,86.2,62.7c7.2,23.9,1.1,54.7-8.1,74.7c-3.8,8.2-8.9,15.1-13.8,21.8
		c-9.6,12.9-19.3,26.4-19.7,49.3"/>
	<line class="st14" x1="694.2" y1="175" x2="686.4" y2="283.8"/>
	<line class="st14" x1="654.8" y1="279.1" x2="647.4" y2="168.4"/>
	<path class="st14" d="M709,288.6c-7.7,4.2-22.2,6.9-38.6,6.9c-16.5,0-30.9-2.7-38.6-6.9"/>
	<path class="st14" d="M647.4,168.4c-0.9-11.7,18.3-13,18.3,1c0,9.1-6,8.5-6,0.9c0-13.3,20.4-13.1,20.4,1.8"/>
	<path class="st14" d="M680,172.2c0,9.1-6,8.5-6,0.9c0-14,20.4-13.6,20.4,1.8"/>
	<line class="st14" x1="762.5" y1="86.2" x2="788.6" y2="60.2"/>
	<line class="st14" x1="578.8" y1="86.2" x2="552.7" y2="60.2"/>
	<line class="st14" x1="637" y1="52.6" x2="627.4" y2="16.9"/>
	<line class="st14" x1="704.7" y1="52.7" x2="714.1" y2="17"/>
	<polyline class="st11" points="489.6,474.8 489.6,375.1 670.3,430.5 670.3,489.7 	"/>
	<polyline class="st10" points="489.6,474.8 489.6,375.1 670.3,430.5 670.3,489.7 	"/>
	<polygon class="st9" points="670.3,430.5 851.1,375.1 851.1,479.5 670.3,490.6 	"/>
	<polygon class="st10" points="670.3,430.5 851.1,375.1 851.1,479.5 670.3,490.6 	"/>
</g>
<g>
	<g class="st16">
		<g>
			<g>
				<polygon class="st1" points="1045.2,577.2 850.4,635.1 814.4,624.1 458.6,729.8 124.5,626.9 489.3,518.5 525.3,529.5 
					825.1,495.6 				"/>
			</g>
		</g>
	</g>
</g>
<g>
	<polyline class="st11" points="510.3,381.4 670.3,430.5 670.3,490.6 851.1,545.9 851.1,629.8 513.2,526.4 	"/>
	<polyline class="st10" points="510.3,381.4 670.3,430.5 670.3,490.6 851.1,545.9 851.1,629.8 513.2,526.4 	"/>
	<polygon class="st9" points="1035,573.6 851.1,629.8 851.1,545.9 1035,489.6 	"/>
	<polygon class="st10" points="1035,573.6 851.1,629.8 851.1,545.9 1035,489.6 	"/>
	<polygon class="st7" points="1035,489.6 851.1,434.4 670.3,490.6 851.1,545.9 	"/>
	<polygon class="st10" points="1035,489.6 851.1,434.4 670.3,490.6 851.1,545.9 	"/>
	<polygon class="st11" points="458.8,721.5 139,626.3 139,581.9 458.8,677.1 	"/>
	<polygon class="st10" points="458.8,721.5 139,626.3 139,581.9 458.8,677.1 	"/>
	<polygon class="st9" points="809.5,617.2 458.8,722.5 458.8,678.1 809.5,572.9 	"/>
	<polygon class="st10" points="809.5,617.2 458.8,722.5 458.8,678.1 809.5,572.9 	"/>
	<polygon class="st7" points="809.5,572.9 489.6,476.4 422.4,496 139,581.6 458.8,678.1 	"/>
	<polygon class="st10" points="809.5,572.9 489.6,476.4 422.4,496 139,581.6 458.8,678.1 	"/>
	<polygon class="st11" points="267.6,600.2 392.7,561.5 558.5,612.7 433.4,651.4 	"/>
	<polygon class="st17" points="267.6,600.2 392.7,561.5 558.5,612.7 433.4,651.4 	"/>
	<polygon class="st11" points="803.4,505.3 937.2,463 959.9,469.6 826.1,511.9 	"/>
	<polygon class="st18" points="803.4,505.3 937.2,463 959.9,469.6 826.1,511.9 	"/>
	<polygon class="st11" points="258.3,552 479.5,620 479.5,608 258.3,540 	"/>
	<polygon class="st3" points="258.3,552 479.5,620 479.5,608 258.3,540 	"/>
	<polygon class="st9" points="479.5,608 627.7,562.2 627.7,574.2 479.5,620 	"/>
	<polygon class="st3" points="479.5,608 627.7,562.2 627.7,574.2 479.5,620 	"/>
	<polygon class="st7" points="258.3,539.5 406.4,493.6 627.7,562.2 479.5,608 	"/>
	<polygon class="st3" points="258.3,539.5 406.4,493.6 627.7,562.2 479.5,608 	"/>
	<polygon class="st7" points="427.2,322.7 647.6,391.2 627.7,562.2 407.2,493.6 	"/>
	<polygon class="st3" points="427.2,322.7 647.6,391.2 627.7,562.2 407.2,493.6 	"/>
	<polygon class="st13" points="439.3,338.5 632.9,398.8 615.7,546.3 422,486.1 	"/>
	<polygon class="st3" points="439.3,338.5 632.9,398.8 615.7,546.3 422,486.1 	"/>
	<polygon class="st7" points="512.8,284.3 595.7,308.7 573.8,501.3 446.4,461.7 462.5,317.1 	"/>
	<polygon class="st3" points="512.8,284.3 595.7,308.7 573.8,501.3 446.4,461.7 462.5,317.1 	"/>
	<polygon class="st7" points="463.9,317.1 507.4,329.6 512.8,284.3 	"/>
	<polygon class="st3" points="463.9,317.1 507.4,329.6 512.8,284.3 	"/>
	<polygon class="st13" points="362.4,554.5 398.3,543.5 466.1,565.3 430.2,576.2 	"/>
	<polygon class="st3" points="362.4,554.5 398.3,543.5 466.1,565.3 430.2,576.2 	"/>
	<polygon class="st7" points="532.7,334.4 572.1,346.6 568,381 528.7,368.8 	"/>
	<polygon class="st3" points="532.7,334.4 572.1,346.6 568,381 528.7,368.8 	"/>
	<line class="st3" x1="563.6" y1="399.8" x2="478.7" y2="373.5"/>
	<line class="st3" x1="561.5" y1="413.8" x2="476.7" y2="387.5"/>
	<line class="st3" x1="559.6" y1="429" x2="474.7" y2="402.7"/>
	<path class="st3" d="M496.8,448.5c3.1,0.3,6.1,0.7,9.1,1c2.6,0.3,5.2,0.5,7.8,0.1c4.8-0.9,8.6-4.3,12.2-7.6
		c1.4-1.3,2.9-2.8,2.7-4.7c-0.2-2-2.4-3.3-4.2-3.1c-2,0.2-3.7,1.3-5,2.7c-3.9,4.1-5.4,11.2-1.6,15.4c4.1,4.3,11.4,3.1,16.3-0.2
		c1.7-1.2,3.4-3.4,2.3-5.1c-0.6-1-2.1-1.3-3.3-1.1c-3.2,0.6-5.2,4.4-4.5,7.6s3.8,5.5,7.1,5.9c3.3,0.4,6.6-0.7,9.2-2.6
		c1.1-0.8,2.2-1.7,2.7-3c0.5-1.3,0.3-2.9-0.8-3.7c-1.5-1.2-3.9-0.1-4.5,1.7c-0.5,1.8,0.5,3.8,2,4.9c1.6,1.1,3.4,1.4,5.3,1.6
		c2.7,0.2,5.6-0.2,8.2-0.9"/>
	<line class="st3" x1="552.3" y1="470.6" x2="552.3" y2="470.6"/>
	<path class="st5" d="M553.3,470.6c0,0.6-0.5,1-1,1c-0.6,0-1-0.5-1-1c0-0.6,0.5-1,1-1C552.9,469.5,553.3,470,553.3,470.6z"/>
	<line class="st19" x1="548.4" y1="469.4" x2="507.5" y2="456.6"/>
	<line class="st3" x1="505.5" y1="456.1" x2="505.5" y2="456.1"/>
	<path class="st5" d="M506.6,456.1c0,0.6-0.5,1-1,1c-0.6,0-1-0.5-1-1c0-0.6,0.5-1,1-1C506.1,455,506.6,455.5,506.6,456.1z"/>
	<polygon class="st7" points="982.8,427.2 804.3,478.8 804.3,230.9 982.8,179.3 	"/>
	<polygon class="st14" points="982.8,427.2 804.3,478.8 804.3,230.9 982.8,179.3 	"/>
	<line class="st14" x1="842" y1="467.9" x2="842" y2="279"/>
	<path class="st2" d="M847.8,267.7c4.6,2.3,5.7,9.3,2.6,15.5c-3.2,6.3-9.5,9.4-14.1,7.1c-4.6-2.3-5.7-9.3-2.6-15.5
		C836.9,268.5,843.2,265.4,847.8,267.7z"/>
	<ellipse transform="matrix(0.4519 -0.8921 0.8921 0.4519 212.6363 904.084)" class="st20" cx="842" cy="279" rx="12.7" ry="9.3"/>
	<path class="st2" d="M847.8,314c4.6,2.3,5.7,9.3,2.6,15.5c-3.2,6.3-9.5,9.4-14,7.1c-4.6-2.3-5.7-9.3-2.6-15.5
		C836.9,314.8,843.2,311.7,847.8,314z"/>
	
		<ellipse transform="matrix(0.4519 -0.8921 0.8921 0.4519 171.3238 929.4503)" class="st20" cx="842" cy="325.3" rx="12.7" ry="9.3"/>
	<path class="st2" d="M847.8,360.3c4.6,2.3,5.7,9.3,2.6,15.5c-3.2,6.3-9.5,9.4-14.1,7.1c-4.6-2.3-5.7-9.3-2.6-15.5
		C836.9,361.1,843.2,358,847.8,360.3z"/>
	<path class="st20" d="M847.8,360.3c4.6,2.3,5.7,9.3,2.6,15.5c-3.2,6.3-9.5,9.4-14.1,7.1c-4.6-2.3-5.7-9.3-2.6-15.5
		C836.9,361.1,843.2,358,847.8,360.3z"/>
	<path class="st2" d="M847.7,406.6c4.6,2.3,5.7,9.3,2.6,15.5c-3.2,6.3-9.5,9.4-14.1,7.1c-4.6-2.3-5.7-9.3-2.6-15.5
		C836.9,407.5,843.2,404.3,847.7,406.6z"/>
	
		<ellipse transform="matrix(0.4519 -0.8921 0.8921 0.4519 88.6966 980.2039)" class="st20" cx="842" cy="417.9" rx="12.7" ry="9.3"/>
	<polygon class="st11" points="907,258 862.3,270.9 862.3,260.5 907,247.7 	"/>
	<polygon class="st10" points="907,258 862.3,270.9 862.3,260.5 907,247.7 	"/>
	<polygon class="st11" points="907,304.3 862.3,317.1 862.3,306.8 907,293.9 	"/>
	<polygon class="st10" points="907,304.3 862.3,317.1 862.3,306.8 907,293.9 	"/>
	<polygon class="st11" points="907,350.5 862.3,363.3 862.3,353 907,340.1 	"/>
	<polygon class="st10" points="907,350.5 862.3,363.3 862.3,353 907,340.1 	"/>
	<polygon class="st11" points="907,396.6 862.3,409.5 862.3,399.2 907,386.3 	"/>
	<polygon class="st10" points="907,396.6 862.3,409.5 862.3,399.2 907,386.3 	"/>
	<line class="st14" x1="862.3" y1="279.6" x2="954.1" y2="253"/>
	<line class="st14" x1="862.3" y1="287.7" x2="943.9" y2="264.1"/>
	<line class="st14" x1="862.3" y1="326" x2="954.1" y2="299.5"/>
	<line class="st14" x1="862.3" y1="334" x2="943.9" y2="310.5"/>
	<line class="st14" x1="862.3" y1="372.3" x2="954.1" y2="345.9"/>
	<line class="st14" x1="862.3" y1="380.5" x2="943.9" y2="356.9"/>
	<line class="st14" x1="862.3" y1="419.2" x2="954.1" y2="392.7"/>
	<line class="st14" x1="862.3" y1="427.2" x2="943.9" y2="403.7"/>
	<line class="st3" x1="193.5" y1="572.5" x2="195.6" y2="579.3"/>
	<polygon class="st7" points="197.8,574.6 191,576.6 171.5,548.6 198.4,540.4 	"/>
	<polygon class="st3" points="197.8,574.6 191,576.6 171.5,548.6 198.4,540.4 	"/>
	<path class="st7" d="M171.4,548L103.5,326c-0.2-0.8,0.5-1.8,2-2.9c2.2-1.6,6-3.4,10.3-4.7c4.4-1.3,8.5-2,11.2-1.9
		c1.9,0.1,3.1,0.5,3.3,1.3l67.8,222.1c-0.2-0.8-1.4-1.2-3.3-1.3c-2.7-0.1-6.8,0.5-11.2,1.9c-4.4,1.3-8.2,3.1-10.3,4.7
		C171.8,546.2,171.1,547.2,171.4,548z"/>
	<path class="st3" d="M171.4,548L103.5,326c-0.2-0.8,0.5-1.8,2-2.9c2.2-1.6,6-3.4,10.3-4.7s8.5-2,11.2-1.9c1.9,0.1,3.1,0.5,3.3,1.3
		l67.8,222.1c-0.2-0.8-1.4-1.2-3.3-1.3c-2.7-0.1-6.8,0.5-11.2,1.9c-4.4,1.3-8.2,3.1-10.3,4.7C171.8,546.2,171.1,547.2,171.4,548z"/>
	<path class="st7" d="M109.6,322.8l-7.9-25.8c-0.2-0.4,0.3-0.9,1-1.5c1.2-0.9,3.1-1.7,5.4-2.4c2.4-0.7,4.4-1,5.8-1
		c0.9,0,1.6,0.2,1.7,0.7l7.9,25.8"/>
	<path class="st3" d="M109.6,322.8l-7.9-25.8c-0.2-0.4,0.3-0.9,1-1.5c1.2-0.9,3.1-1.7,5.4-2.4c2.4-0.7,4.4-1,5.8-1
		c0.9,0,1.6,0.2,1.7,0.7l7.9,25.8"/>
	<path class="st7" d="M115.8,293.4c0.2,0.4-0.3,0.9-1,1.5c-1.2,0.9-3.1,1.7-5.4,2.4c-2.3,0.7-4.4,1-5.9,1c-0.9-0.1-1.6-0.2-1.7-0.7"
		/>
	<path class="st3" d="M115.8,293.4c0.2,0.4-0.3,0.9-1,1.5c-1.2,0.9-3.1,1.7-5.4,2.4c-2.3,0.7-4.4,1-5.9,1c-0.9-0.1-1.6-0.2-1.7-0.7"
		/>
	<path class="st7" d="M123.5,318.5c0.2,0.4-0.3,0.9-1,1.5c-1.2,0.9-3.1,1.7-5.4,2.4c-2.3,0.7-4.4,1-5.9,1c-0.9-0.1-1.6-0.2-1.7-0.7"
		/>
	<path class="st3" d="M123.5,318.5c0.2,0.4-0.3,0.9-1,1.5c-1.2,0.9-3.1,1.7-5.4,2.4c-2.3,0.7-4.4,1-5.9,1c-0.9-0.1-1.6-0.2-1.7-0.7"
		/>
	<path class="st7" d="M103.7,326.5l67.8,222.1c0.2,0.8,1.5,1.2,3.3,1.3c2.7,0.1,6.8-0.5,11.2-1.9c4.4-1.3,8.1-3.1,10.3-4.7
		c1.5-1.1,2.3-2.1,2-2.9l-67.8-222.1c0.2,0.8-0.5,1.8-2,2.9c-2.2,1.6-6,3.4-10.3,4.7c-4.4,1.3-8.5,2-11.2,1.9
		C105.1,327.7,103.9,327.3,103.7,326.5z"/>
	<path class="st3" d="M103.7,326.5l67.8,222.1c0.2,0.8,1.5,1.2,3.3,1.3c2.7,0.1,6.8-0.5,11.2-1.9c4.4-1.3,8.1-3.1,10.3-4.7
		c1.5-1.1,2.3-2.1,2-2.9l-67.8-222.1c0.2,0.8-0.5,1.8-2,2.9c-2.2,1.6-6,3.4-10.3,4.7c-4.4,1.3-8.5,2-11.2,1.9
		C105.1,327.7,103.9,327.3,103.7,326.5z"/>
	<path class="st7" d="M134.4,331c0.2,0.8-0.5,1.8-2,2.9c-2.2,1.6-6,3.4-10.3,4.7c-4.4,1.3-8.5,2-11.2,1.9c-1.8-0.1-3.1-0.5-3.3-1.3"
		/>
	<path class="st3" d="M134.4,331c0.2,0.8-0.5,1.8-2,2.9c-2.2,1.6-6,3.4-10.3,4.7c-4.4,1.3-8.5,2-11.2,1.9c-1.8-0.1-3.1-0.5-3.3-1.3"
		/>
	<path class="st7" d="M180.8,482.9c0.2,0.8-0.5,1.8-2,2.9c-2.2,1.6-6,3.4-10.3,4.7c-4.4,1.3-8.5,2-11.2,1.9
		c-1.8-0.1-3.1-0.5-3.3-1.3"/>
	<path class="st3" d="M180.8,482.9c0.2,0.8-0.5,1.8-2,2.9c-2.2,1.6-6,3.4-10.3,4.7s-8.5,2-11.2,1.9c-1.8-0.1-3.1-0.5-3.3-1.3"/>
	<polyline class="st3" points="123.1,422.9 121.9,419.1 115.2,397.2 96.9,337.3 106.1,334.5 	"/>
	<path class="st3" d="M127.5,409.9c1.6,5.1-0.3,10.3-4.3,13.3l-6.7-21.9C121.5,401.5,125.9,404.8,127.5,409.9z"/>
	<path class="st13" d="M171.7,549c0.2,0.8,1.5,1.2,3.3,1.3c2.7,0.1,6.8-0.5,11.2-1.9c4.4-1.3,8.1-3.1,10.3-4.7
		c1.5-1.1,2.3-2.1,2-2.9l-17.6-57.9c0.2,0.8-0.5,1.8-2,2.9c-2.2,1.6-6,3.4-10.3,4.7c-4.4,1.3-8.5,2-11.2,1.9
		c-1.8-0.1-3.1-0.5-3.3-1.3l17.5,57.4c0.2,0.8,1.5,1.2,3.3,1.3c2.7,0.1,6.8-0.5,11.2-1.9c4.4-1.3,8.1-3.1,10.3-4.7
		c1.5-1.1,2.3-2.1,2-2.9l-17.5-57.4"/>
	<path class="st3" d="M171.7,549c0.2,0.8,1.5,1.2,3.3,1.3c2.7,0.1,6.8-0.5,11.2-1.9c4.4-1.3,8.1-3.1,10.3-4.7c1.5-1.1,2.3-2.1,2-2.9
		l-17.6-57.9c0.2,0.8-0.5,1.8-2,2.9c-2.2,1.6-6,3.4-10.3,4.7s-8.5,2-11.2,1.9c-1.8-0.1-3.1-0.5-3.3-1.3l17.5,57.4
		c0.2,0.8,1.5,1.2,3.3,1.3c2.7,0.1,6.8-0.5,11.2-1.9s8.1-3.1,10.3-4.7c1.5-1.1,2.3-2.1,2-2.9l-17.5-57.4"/>
	<polygon class="st2" points="1076.7,517.8 993.4,544.7 993.4,461.4 1076.7,434.5 	"/>
	<polygon class="st10" points="1076.7,517.8 993.4,544.7 993.4,461.4 1076.7,434.5 	"/>
	<polygon class="st7" points="1064.2,509.4 1005.8,528.3 1005.8,469.9 1064.2,451 	"/>
	<polygon class="st10" points="1064.2,509.4 1005.8,528.3 1005.8,469.9 1064.2,451 	"/>
	<line class="st10" x1="1014.6" y1="481.3" x2="1037.5" y2="505.3"/>
	<line class="st10" x1="1091.6" y1="435.7" x2="1037.5" y2="505.3"/>
	<polygon class="st2" points="612.5,449.6 610.3,468.1 595.2,463.4 597.4,444.9 	"/>
	<polygon class="st14" points="612.5,449.6 610.3,468.1 595.2,463.4 597.4,444.9 	"/>
	<polygon class="st2" points="608.2,486.5 606,504.9 590.9,500.2 593.1,481.8 	"/>
	<polygon class="st14" points="608.2,486.5 606,504.9 590.9,500.2 593.1,481.8 	"/>
	<polygon class="st2" points="616.8,412.7 614.7,431.2 599.5,426.5 601.7,408 	"/>
	<polygon class="st14" points="616.8,412.7 614.7,431.2 599.5,426.5 601.7,408 	"/>
	<line class="st14" x1="614" y1="437.3" x2="598.9" y2="432.6"/>
	<line class="st14" x1="609.7" y1="474.2" x2="594.6" y2="469.5"/>
	<line class="st14" x1="605.3" y1="511.1" x2="590.3" y2="506.4"/>
</g>
</svg>
