<svg xmlns="http://www.w3.org/2000/svg" viewBox="0 0 1200 937"><defs><style>.cls-1{isolation:isolate;}.cls-2,.cls-3{fill:#9dc7e0;}.cls-2{opacity:0.15;}.cls-3{opacity:0.25;mix-blend-mode:multiply;}.cls-4{fill:none;}.cls-10,.cls-4,.cls-6,.cls-9{stroke:#0c1733;stroke-linecap:round;stroke-linejoin:round;}.cls-10,.cls-4,.cls-6,.cls-7,.cls-9{stroke-width:2px;}.cls-5,.cls-7{fill:#fff;}.cls-6{fill:#f9ef35;}.cls-7{stroke:#000;stroke-miterlimit:10;}.cls-8,.cls-9{fill:#cfdde5;}.cls-10{fill:#a3bdcc;}</style></defs><title>01_Vector</title><g class="cls-1"><g id="Layer_1" data-name="Layer 1"><path class="cls-2" d="M829.63,670.15h-497c-107-63.07-125.91-163.5-76-235.89C319.09,343.42,440,382.69,544.09,388c5.88.3,11.71.5,17.48.54,19.42.2,38.08-1.18,55.45-5.27,96.14-22.63,159.14-98.19,248.18-65.52,16,5.85,32.74,15.17,50.71,28.9l.9.69C1013.56,421.91,973.61,582.8,829.63,670.15Z"/><path class="cls-3" d="M865.2,317.77,797.43,670.15H536.83V388c8.37.43,16.63.64,24.74.54,19.42.2,38.08-1.18,55.45-5.27C713.16,360.66,776.16,285.1,865.2,317.77Z"/><polyline class="cls-4" points="945.79 670.15 829.63 670.15 332.59 670.15 254.21 670.15"/><rect class="cls-5" x="425.71" y="251.92" width="348.58" height="418.24"/><rect class="cls-3" x="425.71" y="642.63" width="348.58" height="27.52"/><rect class="cls-4" x="425.71" y="251.92" width="348.58" height="418.24"/><circle class="cls-6" cx="600" cy="251.92" r="52.8"/><circle class="cls-7" cx="600" cy="251.92" r="25"/><rect class="cls-8" x="482.19" y="331.55" width="241.35" height="14.76"/><rect class="cls-8" x="482.19" y="413.3" width="117.81" height="14.76"/><rect class="cls-8" x="482.19" y="377.3" width="117.81" height="14.76"/><rect class="cls-8" x="617.88" y="377.3" width="105.7" height="86.62"/><rect class="cls-8" x="482.19" y="449.15" width="117.81" height="14.76"/><path class="cls-9" d="M829.73,451.7a34.09,34.09,0,0,1-1.22,3.7,34.72,34.72,0,0,1-41.25,20.82l-12.51-3.35,28.07-16.22A14.69,14.69,0,0,0,805,455.4l0,0a15.41,15.41,0,0,0-4.81-27.53l-25.94-6.95V400.94l30.92,8.29a34.71,34.71,0,0,1,24.52,42.47Z"/><path class="cls-9" d="M791.68,551.87l-43.38,25a34.68,34.68,0,0,1-47.37-12.69,33.4,33.4,0,0,1-2.26-4.72,34.75,34.75,0,0,1,5.13-34.18h0A15.36,15.36,0,0,1,716,543.18c-.08.32-.15.64-.2,1a15.41,15.41,0,0,0,22.85,16.09l43.38-25a15.39,15.39,0,0,0,7.69-13.2c.54-.27,1.07-.56,1.59-.86l16.2-9.36A34.75,34.75,0,0,1,791.68,551.87Z"/><path class="cls-9" d="M797,495.6l-15.31,8.84a15.29,15.29,0,0,1-6.54,2,11.77,11.77,0,0,0-2,0,15.18,15.18,0,0,0-6.56,2l-15.31,8.84-18.15,10.49a33.57,33.57,0,0,0-2.27-4.73,34.54,34.54,0,0,0-9.6-10.67l19.5-11.26,16.2-9.35c.53-.3,1.06-.59,1.6-.86A34.74,34.74,0,0,1,797,495.6Z"/><path class="cls-9" d="M710.53,574.9l-35.7,20.61a34.68,34.68,0,0,1-44.91-51.07,43,43,0,0,1,12.17,21.49,15.51,15.51,0,0,0,.76,4.39,15.89,15.89,0,0,0,1.29,2.86,15.43,15.43,0,0,0,19,6.62,15.13,15.13,0,0,0,2-1l33.47-19.32a33.4,33.4,0,0,0,2.26,4.72A34.45,34.45,0,0,0,710.53,574.9Z"/><path class="cls-9" d="M728,562a15.36,15.36,0,0,1-12.2-17.86c.08-.32.15-.64.2-1a15.36,15.36,0,0,0-12.21-17.86h0a15.32,15.32,0,0,0-10.64,1.77L656.87,548a63.3,63.3,0,0,0-11-15.9l37.65-21.74a34.7,34.7,0,0,1,47.37,12.69,33.57,33.57,0,0,1,2.27,4.73A34.76,34.76,0,0,1,728,562Z"/><path class="cls-9" d="M834.71,496.08l-27.18,15.69-16.2,9.36c-.52.3-1.05.59-1.59.86a34.72,34.72,0,0,1-38.42-4.66l15.31-8.84a15.18,15.18,0,0,1,6.56-2,14.39,14.39,0,0,0,2,0,15.29,15.29,0,0,0,6.54-2L797,495.6l28.07-16.2a15.42,15.42,0,0,0,5.64-21,15.15,15.15,0,0,0-2.21-3,34.55,34.55,0,0,0,1.18-21.75,34.65,34.65,0,0,1,5,62.43Z"/><path class="cls-9" d="M392.07,432.69a15.39,15.39,0,0,0,2.87,22.67h0a16.83,16.83,0,0,0,2.25,1.3l28.05,16.2-12.52,3.35a34.72,34.72,0,0,1-41.25-20.82,34.53,34.53,0,0,1-1.18-21.74,34.67,34.67,0,0,1,24.48-24.43l30.92-8.29v19.95l-25.93,6.95A15.26,15.26,0,0,0,392.07,432.69Z"/><path class="cls-9" d="M501.33,559.5a33.46,33.46,0,0,1-2.27,4.72,34.68,34.68,0,0,1-47.37,12.69l-43.38-25a34.73,34.73,0,0,1-15.84-40.09l16.19,9.35c.53.3,1.06.59,1.6.86a15.39,15.39,0,0,0,7.69,13.2l43.38,25a15.39,15.39,0,0,0,22.85-16.09c-.05-.32-.12-.64-.2-1a15.36,15.36,0,0,1,12.21-17.86A34.78,34.78,0,0,1,501.33,559.5Z"/><path class="cls-9" d="M478.69,512.42a34.64,34.64,0,0,0-11.87,15.39l-18.15-10.48-15.31-8.84a15.33,15.33,0,0,0-6.55-2,13.09,13.09,0,0,0-2,0,15.29,15.29,0,0,1-6.54-2L403,495.6A34.72,34.72,0,0,1,441.41,491c.53.26,1.06.55,1.58.85l16.2,9.35Z"/><path class="cls-9" d="M554.12,532.15a62.73,62.73,0,0,0-11,15.89l-36.3-20.95A15.39,15.39,0,0,0,484,543.18c0,.32.12.64.2,1A15.36,15.36,0,0,1,472,562a34.67,34.67,0,0,1,44.48-51.6Z"/><path class="cls-9" d="M572.53,582.82A34.44,34.44,0,0,1,556.83,597a34.62,34.62,0,0,1-31.67-1.53l-35.69-20.62a34.51,34.51,0,0,0,9.59-10.67,33.46,33.46,0,0,0,2.27-4.72l33.47,19.32a15.13,15.13,0,0,0,2,1,15.42,15.42,0,0,0,19-6.62,15.31,15.31,0,0,0,2-7.2,43,43,0,0,1,12.17-21.54A34.76,34.76,0,0,1,572.53,582.82Z"/><path class="cls-9" d="M448.67,517.33A34.72,34.72,0,0,1,410.26,522c-.54-.27-1.07-.56-1.6-.86l-16.19-9.35-27.19-15.7a34.65,34.65,0,0,1,5-62.42,34.53,34.53,0,0,0,1.18,21.74,15.15,15.15,0,0,0-2.21,3,15.42,15.42,0,0,0,5.64,21L403,495.6l15.31,8.84a15.29,15.29,0,0,0,6.54,2,13.09,13.09,0,0,0,2,0,15.33,15.33,0,0,1,6.55,2Z"/><path class="cls-9" d="M811.12,446.71a15.41,15.41,0,0,1-6.08,8.66l0,0-2.17,1.25-28.07,16.22-.46.26-8,4.62A15.38,15.38,0,0,0,758.6,491c-.54.27-1.07.56-1.6.86l-16.2,9.35a34.68,34.68,0,0,1,15.86-40.1L772,452.19l2.27-1.31L800,436a34.26,34.26,0,0,1,7.89-3.33A15.39,15.39,0,0,1,811.12,446.71Z"/><path class="cls-9" d="M459.19,501.16,443,491.81c-.52-.3-1.05-.59-1.58-.85a15.41,15.41,0,0,0-7.71-13.21l-8-4.62-.45-.26-28.05-16.2-2.25-1.3h0a15.39,15.39,0,0,1-2.87-22.67A34.7,34.7,0,0,1,400,436l25.74,14.86,2.28,1.31,15.36,8.87a34.71,34.71,0,0,1,15.85,40.1Z"/><path class="cls-10" d="M663.17,575.52v4.28a15.43,15.43,0,0,1-19-6.62,15.89,15.89,0,0,1-1.29-2.86,39.85,39.85,0,0,0-.76-4.39,43.18,43.18,0,0,0-84.19.05,38.46,38.46,0,0,0-.75,4.29,15.07,15.07,0,0,1-1.3,2.91,15.42,15.42,0,0,1-19,6.62v-4.28a63.14,63.14,0,0,1,109-43.38,63.3,63.3,0,0,1,11,15.9A62.66,62.66,0,0,1,663.17,575.52Z"/><path class="cls-10" d="M556.83,597v39.11h-20V599.69A34.85,34.85,0,0,0,556.83,597Z"/><path class="cls-10" d="M663.17,599.69v36.46h-20V597A34.86,34.86,0,0,0,663.17,599.69Z"/><rect class="cls-6" x="512.47" y="621.28" width="175.06" height="116.61" rx="13.7"/><path class="cls-10" d="M614.7,666.1a14.7,14.7,0,1,0-23.18,12v11.19a8.48,8.48,0,0,0,17,0V678.09A14.65,14.65,0,0,0,614.7,666.1Z"/></g></g></svg>