<svg xmlns="http://www.w3.org/2000/svg" viewBox="0 0 1200 937"><defs><style>.cls-1{isolation:isolate;}.cls-2,.cls-3{fill:#9dc7e0;}.cls-2{opacity:0.15;}.cls-3{opacity:0.25;mix-blend-mode:multiply;}.cls-4,.cls-6{fill:#fff;}.cls-10,.cls-4,.cls-5,.cls-8,.cls-9{stroke:#0c1733;stroke-linecap:round;stroke-linejoin:round;}.cls-10,.cls-4,.cls-5,.cls-6{stroke-width:2px;}.cls-5{fill:#f9ef35;}.cls-6{stroke:#000;stroke-miterlimit:10;}.cls-7{fill:#cfdde5;}.cls-10,.cls-8,.cls-9{fill:none;}.cls-8,.cls-9{stroke-width:5px;}.cls-9{stroke-dasharray:0 18.75;}</style></defs><title>01_Vector</title><g class="cls-1"><g id="Layer_1" data-name="Layer 1"><path class="cls-2" d="M764.31,780.92C597,804.82,118.53,653.26,180,469c24.57-73.63,173.13-117.08,320.94-133.21,128.93-14.09,272.85-7.44,376.09,18,74.54,18.33,127.88,46.44,139.06,83.56C1060.51,584.8,928.16,757.51,764.31,780.92Z"/><path class="cls-3" d="M877,353.75,787,711H439l61.94-375.21C629.87,321.7,773.79,328.35,877,353.75Z"/><rect class="cls-4" x="426.13" y="189.8" width="348.58" height="494.2"/><circle class="cls-5" cx="600.43" cy="189.8" r="52.8"/><circle class="cls-6" cx="600.43" cy="189.8" r="29.57"/><rect class="cls-7" x="479.73" y="278.37" width="241.35" height="14.76"/><rect class="cls-7" x="479.73" y="311" width="241.35" height="14.76"/><rect class="cls-7" x="479.73" y="363.53" width="143.44" height="14.76"/><rect class="cls-7" x="644.08" y="363.53" width="77" height="50.62"/><rect class="cls-7" x="479.73" y="399.38" width="143.44" height="14.76"/><rect class="cls-7" x="479.73" y="435.24" width="83.38" height="14.76"/><line class="cls-8" x1="522.62" y1="594.5" x2="522.62" y2="594.5"/><line class="cls-9" x1="541.37" y1="594.5" x2="663.24" y2="594.5"/><line class="cls-8" x1="672.62" y1="594.5" x2="672.62" y2="594.5"/><path class="cls-10" d="M498.12,562.76c26.76,11.82,74,18.54,90.94-12.79,3.28-6.06,5-13.93,2.1-20.45-3.06-6.82-10.66-10.68-17.53-6.79-11.7,6.63-10.38,22.93-2.24,31.62,9.73,10.4,26.58,10.49,37.37,1.65,4.8-3.93,9.38-10.71,8.21-17.29-1.59-8.92-11.15-4.05-12.76,2.33-3.71,14.78,14.32,22.94,26.25,20.2,6.64-1.53,13.13-5.62,16.73-11.5s4.65-15.38-3.22-18.3-12.82,5.62-11.89,12.5c1,7.44,7.12,12.85,13.55,15.94,16.35,7.84,37.19,3,51.49-7"/></g></g></svg>