<svg xmlns="http://www.w3.org/2000/svg" viewBox="0 0 1200 937"><defs><style>.cls-1{isolation:isolate;}.cls-2,.cls-3{fill:#9dc7e0;}.cls-2{opacity:0.15;}.cls-3{opacity:0.25;mix-blend-mode:multiply;}.cls-4,.cls-6{fill:#cfdde5;}.cls-10,.cls-11,.cls-13,.cls-14,.cls-15,.cls-4,.cls-5{stroke:#0c1733;stroke-linecap:round;stroke-linejoin:round;}.cls-10,.cls-11,.cls-12,.cls-15,.cls-4,.cls-5{stroke-width:2px;}.cls-12,.cls-5,.cls-9{fill:#fff;}.cls-7{fill:#a3bdcc;}.cls-10,.cls-8{fill:#edf4f8;}.cls-11{fill:#f9ef35;}.cls-12{stroke:#000;stroke-miterlimit:10;}.cls-13,.cls-14,.cls-15{fill:none;}.cls-13,.cls-14{stroke-width:5px;}.cls-14{stroke-dasharray:0 19.09;}</style></defs><title>01_Vector</title><g class="cls-1"><g id="Layer_1" data-name="Layer 1"><path class="cls-2" d="M986.5,719.33a120,120,0,0,1-18.89,31.24c-21.09,25.27-52.5,42.27-90.79,52.39-25.79,6.82-54.7,10.53-85.68,11.54-5.67.19-11.42.29-17.22.29-35,.07-72.22-3.06-110.34-8.79-17.39-2.61-35-5.77-52.57-9.41-180.49-37.3-366-125.72-412.65-206.85-48-83.52,41.64-268.11,165-378.73,72.43-64.93,156.48-104.38,231.1-82.92,4.67,1.35,9.32,2.93,13.91,4.76Q628.2,140.74,647,149q33.54,14.76,63.89,30.69C812.19,232.77,887.18,294.9,937.32,361.78a430,430,0,0,1,30.29,46.16C1024.33,508.15,1029.09,616.37,986.5,719.33Z"/><path class="cls-3" d="M967.61,407.94V750.57c-21.09,25.27-52.5,42.27-90.79,52.39H656.42V737.83H500.81V672.7h-154V231.52H455.24a47.14,47.14,0,1,1,94.28,0H658v18a47.13,47.13,0,0,1,45.56,47.1H812v18h0a47.14,47.14,0,0,1,47.14,47.14h78.17A430,430,0,0,1,967.61,407.94Z"/><rect class="cls-4" x="316.79" y="211.52" width="311.19" height="441.18"/><circle class="cls-5" cx="472.38" cy="211.52" r="47.14"/><circle class="cls-4" cx="472.38" cy="211.52" r="25.69"/><rect class="cls-6" x="360.08" y="296.08" width="229.71" height="18.37"/><rect class="cls-6" x="360.08" y="604.43" width="99.86" height="13.18"/><rect class="cls-7" x="360.08" y="362.03" width="48.71" height="18.37"/><rect class="cls-7" x="419.41" y="362.03" width="79.88" height="18.37"/><rect class="cls-7" x="509.91" y="362.03" width="79.88" height="18.37"/><rect class="cls-8" x="360.08" y="390.65" width="48.71" height="18.37"/><rect class="cls-9" x="419.41" y="390.65" width="79.88" height="18.37"/><rect class="cls-9" x="509.91" y="390.65" width="79.88" height="18.37"/><rect class="cls-8" x="360.08" y="419.27" width="48.71" height="18.37"/><rect class="cls-9" x="419.41" y="419.27" width="79.88" height="18.37"/><rect class="cls-9" x="509.91" y="419.27" width="79.88" height="18.37"/><rect class="cls-8" x="360.08" y="447.88" width="48.71" height="18.37"/><rect class="cls-9" x="419.41" y="447.88" width="79.88" height="18.37"/><rect class="cls-9" x="509.91" y="447.88" width="79.88" height="18.37"/><rect class="cls-8" x="360.08" y="476.5" width="48.71" height="18.37"/><rect class="cls-9" x="419.41" y="476.5" width="79.88" height="18.37"/><rect class="cls-9" x="509.91" y="476.5" width="79.88" height="18.37"/><rect class="cls-8" x="360.08" y="505.12" width="48.71" height="18.37"/><rect class="cls-9" x="419.41" y="505.12" width="79.88" height="18.37"/><rect class="cls-9" x="509.91" y="505.12" width="79.88" height="18.37"/><rect class="cls-8" x="360.08" y="533.74" width="48.71" height="18.37"/><rect class="cls-9" x="419.41" y="533.74" width="79.88" height="18.37"/><rect class="cls-9" x="509.91" y="533.74" width="79.88" height="18.37"/><rect class="cls-8" x="360.08" y="562.35" width="48.71" height="18.37"/><rect class="cls-9" x="419.41" y="562.35" width="79.88" height="18.37"/><rect class="cls-9" x="509.91" y="562.35" width="79.88" height="18.37"/><rect class="cls-10" x="470.81" y="276.65" width="311.19" height="441.18"/><circle class="cls-5" cx="626.4" cy="276.65" r="47.14"/><circle class="cls-11" cx="626.4" cy="276.65" r="25.69"/><rect class="cls-6" x="514.1" y="345.74" width="229.71" height="18.37"/><rect class="cls-6" x="514.1" y="637.72" width="137.99" height="45.02"/><rect class="cls-7" x="514.1" y="391.65" width="48.71" height="18.37"/><rect class="cls-7" x="573.43" y="391.65" width="79.88" height="18.37"/><rect class="cls-7" x="663.93" y="391.65" width="79.88" height="18.37"/><rect class="cls-6" x="514.1" y="429.45" width="48.71" height="9.19"/><rect class="cls-9" x="573.43" y="429.45" width="79.88" height="9.19"/><rect class="cls-9" x="663.93" y="429.45" width="79.88" height="9.19"/><rect class="cls-6" x="514.1" y="458.07" width="48.71" height="9.19"/><rect class="cls-9" x="573.43" y="458.07" width="79.88" height="9.19"/><rect class="cls-9" x="663.93" y="458.07" width="79.88" height="9.19"/><rect class="cls-7" x="514.1" y="506.12" width="48.71" height="18.37"/><rect class="cls-7" x="573.43" y="506.12" width="79.88" height="18.37"/><rect class="cls-7" x="663.93" y="506.12" width="79.88" height="18.37"/><rect class="cls-6" x="514.1" y="543.92" width="48.71" height="9.19"/><rect class="cls-9" x="573.43" y="543.92" width="79.88" height="9.19"/><rect class="cls-9" x="663.93" y="543.92" width="79.88" height="9.19"/><rect class="cls-6" x="514.1" y="572.54" width="48.71" height="9.19"/><rect class="cls-9" x="573.43" y="572.54" width="79.88" height="9.19"/><rect class="cls-9" x="663.93" y="572.54" width="79.88" height="9.19"/><rect class="cls-6" x="514.1" y="601.15" width="48.71" height="9.19"/><rect class="cls-9" x="573.43" y="601.15" width="79.88" height="9.19"/><rect class="cls-9" x="663.93" y="601.15" width="79.88" height="9.19"/><rect class="cls-5" x="626.42" y="341.78" width="311.19" height="441.18"/><circle class="cls-11" cx="782.01" cy="341.78" r="47.14"/><circle class="cls-12" cx="782.01" cy="341.78" r="25.69"/><rect class="cls-6" x="669.71" y="419.11" width="229.71" height="16.47"/><rect class="cls-6" x="669.71" y="460.27" width="229.71" height="16.47"/><rect class="cls-6" x="669.71" y="489.5" width="229.71" height="16.47"/><rect class="cls-6" x="722.04" y="518.73" width="119.95" height="16.47"/><rect class="cls-6" x="669.71" y="562.9" width="229.71" height="16.47"/><rect class="cls-6" x="669.71" y="592.13" width="172.27" height="16.47"/><rect class="cls-6" x="669.71" y="621.36" width="229.71" height="16.47"/><rect class="cls-6" x="669.71" y="650.6" width="172.27" height="16.47"/><line class="cls-13" x1="803.98" y1="740.18" x2="803.98" y2="740.18"/><line class="cls-14" x1="823.07" y1="740.18" x2="889.88" y2="740.18"/><line class="cls-13" x1="899.42" y1="740.18" x2="899.42" y2="740.18"/><path class="cls-15" d="M804.28,720c17,7.52,47.06,11.8,57.86-8.14,2.08-3.85,3.2-8.86,1.34-13-2-4.34-6.79-6.8-11.16-4.32-7.45,4.22-6.6,14.59-1.43,20.12,6.2,6.62,15.52,7.6,22,3.93s11.54-8.82,12.53-16.43-7.43-10.65-11.53-.89,7,19.52,14.64,17.77a17.12,17.12,0,0,0,10.65-7.32"/></g></g></svg>