<?xml version="1.0" encoding="utf-8"?>
<!-- Generator: Adobe Illustrator 24.0.3, SVG Export Plug-In . SVG Version: 6.00 Build 0)  -->
<svg version="1.1" id="Layer_1" xmlns="http://www.w3.org/2000/svg" xmlns:xlink="http://www.w3.org/1999/xlink" x="0px" y="0px"
	 viewBox="0 0 512 512" style="enable-background:new 0 0 512 512;" xml:space="preserve">
<path d="M192.5,208.5c0-17.5-14.2-31.7-31.7-31.7H145c-35,0-63.5,28.4-63.5,63.5v47.6c0,35,28.4,63.5,63.5,63.5h15.9
	c17.5,0,31.7-14.2,31.7-31.7V208.5z M367,351.2c35,0,63.5-28.4,63.5-63.5v-47.6c0-35-28.4-63.5-63.5-63.5h-15.9
	c-17.5,0-31.7,14.2-31.7,31.7v111c0,17.5,14.2,31.7,31.7,31.7H367z"/>
<path d="M512,256c-1.8,53.1-19.1,103.4-48,145.2c-16.7,24.2-37.3,45.5-61,62.8c-41.1,30-91.4,48-147,48c-9.6,0-19-0.5-28.3-1.6
	C207.2,505,192,486.3,192,464c0-3.3,0.3-6.6,1-9.8c4.5-21.8,23.8-38.2,47-38.2h32c23.2,0,42.5,16.4,47,38.2
	c82.1-26.1,142.2-101.9,144.9-191.9c0-3.8,0-6.1,0-6.3h0.1c0-92.7-61-171.5-145-198.2C299.1,51.4,278,48,256,48s-43.1,3.4-63,9.8
	C110.8,83.9,50.7,159.8,48.1,249.9c0,3.7,0,5.8,0,6.1H48v16c0,8.8-7.2,16-16,16H16c-6.2,0-11.5-3.5-14.2-8.6
	C0.9,271.7,0.3,263.9,0,256c1.8-53.1,19.1-103.4,48-145.2C64.7,86.6,85.3,65.3,109,48c41.1-30,91.4-48,147-48c9.6,0,19,0.5,28.3,1.6
	C405,15.2,496,114.7,510.2,232.6C511.1,240.3,511.7,248.1,512,256z"/>
</svg>
