<svg xmlns="http://www.w3.org/2000/svg" xmlns:xlink="http://www.w3.org/1999/xlink" width="134.74" height="132.244" viewBox="0 0 134.74 132.244">
  <defs>
    <clipPath id="clip-path">
      <rect id="_Container" data-name="*Container" width="134.74" height="132.244" rx="66.122" transform="translate(0 0)" fill="#e6f0f7"/>
    </clipPath>
  </defs>
  <g id="Group_20" data-name="Group 20" transform="translate(0)" clip-path="url(#clip-path)">
    <circle id="Ellipse_307" data-name="Ellipse 307" cx="2.535" cy="2.535" r="2.535" transform="translate(43.718 5.674)" fill="#1f1f22"/>
    <circle id="Ellipse_307-2" data-name="Ellipse 307" cx="2.535" cy="2.535" r="2.535" transform="translate(57.718 5.674)" fill="#1f1f22"/>
    <circle id="Ellipse_307-3" data-name="Ellipse 307" cx="2.535" cy="2.535" r="2.535" transform="translate(71.718 5.674)" fill="#1f1f22"/>
    <circle id="Ellipse_307-4" data-name="Ellipse 307" cx="2.535" cy="2.535" r="2.535" transform="translate(85.718 5.674)" fill="#1f1f22"/>
    <circle id="Ellipse_307-5" data-name="Ellipse 307" cx="2.535" cy="2.535" r="2.535" transform="translate(29.718 18.674)" fill="#1f1f22"/>
    <circle id="Ellipse_307-6" data-name="Ellipse 307" cx="2.535" cy="2.535" r="2.535" transform="translate(43.718 18.674)" fill="#1f1f22"/>
    <circle id="Ellipse_307-7" data-name="Ellipse 307" cx="2.535" cy="2.535" r="2.535" transform="translate(57.718 18.674)" fill="#1f1f22"/>
    <circle id="Ellipse_307-8" data-name="Ellipse 307" cx="2.535" cy="2.535" r="2.535" transform="translate(71.718 18.674)" fill="#1f1f22"/>
    <circle id="Ellipse_307-9" data-name="Ellipse 307" cx="2.535" cy="2.535" r="2.535" transform="translate(85.718 18.674)" fill="#1f1f22"/>
    <circle id="Ellipse_307-10" data-name="Ellipse 307" cx="2.535" cy="2.535" r="2.535" transform="translate(99.718 18.674)" fill="#1f1f22"/>
    <circle id="Ellipse_307-11" data-name="Ellipse 307" cx="2.535" cy="2.535" r="2.535" transform="translate(15.718 31.674)" fill="#1f1f22"/>
    <circle id="Ellipse_307-12" data-name="Ellipse 307" cx="2.535" cy="2.535" r="2.535" transform="translate(29.718 31.674)" fill="#1f1f22"/>
    <circle id="Ellipse_307-13" data-name="Ellipse 307" cx="2.535" cy="2.535" r="2.535" transform="translate(43.718 31.674)" fill="#1f1f22"/>
    <circle id="Ellipse_307-14" data-name="Ellipse 307" cx="2.535" cy="2.535" r="2.535" transform="translate(57.718 31.674)" fill="#1f1f22"/>
    <circle id="Ellipse_307-15" data-name="Ellipse 307" cx="2.535" cy="2.535" r="2.535" transform="translate(71.718 31.674)" fill="#1f1f22"/>
    <circle id="Ellipse_307-16" data-name="Ellipse 307" cx="2.535" cy="2.535" r="2.535" transform="translate(85.718 31.674)" fill="#1f1f22"/>
    <circle id="Ellipse_307-17" data-name="Ellipse 307" cx="2.535" cy="2.535" r="2.535" transform="translate(99.718 31.674)" fill="#1f1f22"/>
    <circle id="Ellipse_307-18" data-name="Ellipse 307" cx="2.535" cy="2.535" r="2.535" transform="translate(113.718 31.674)" fill="#1f1f22"/>
    <circle id="Ellipse_307-19" data-name="Ellipse 307" cx="2.535" cy="2.535" r="2.535" transform="translate(15.718 44.674)" fill="#1f1f22"/>
    <circle id="Ellipse_307-20" data-name="Ellipse 307" cx="2.535" cy="2.535" r="2.535" transform="translate(29.718 44.674)" fill="#1f1f22"/>
    <circle id="Ellipse_307-21" data-name="Ellipse 307" cx="2.535" cy="2.535" r="2.535" transform="translate(43.718 44.674)" fill="#1f1f22"/>
    <circle id="Ellipse_307-22" data-name="Ellipse 307" cx="2.535" cy="2.535" r="2.535" transform="translate(57.718 44.674)" fill="#1f1f22"/>
    <circle id="Ellipse_307-23" data-name="Ellipse 307" cx="2.535" cy="2.535" r="2.535" transform="translate(71.718 44.674)" fill="#1f1f22"/>
    <circle id="Ellipse_307-24" data-name="Ellipse 307" cx="2.535" cy="2.535" r="2.535" transform="translate(85.718 44.674)" fill="#1f1f22"/>
    <circle id="Ellipse_307-25" data-name="Ellipse 307" cx="2.535" cy="2.535" r="2.535" transform="translate(99.718 44.674)" fill="#1f1f22"/>
    <circle id="Ellipse_307-26" data-name="Ellipse 307" cx="2.535" cy="2.535" r="2.535" transform="translate(113.718 44.674)" fill="#1f1f22"/>
    <circle id="Ellipse_307-27" data-name="Ellipse 307" cx="2.535" cy="2.535" r="2.535" transform="translate(1.718 57.674)" fill="#1f1f22"/>
    <circle id="Ellipse_307-28" data-name="Ellipse 307" cx="2.535" cy="2.535" r="2.535" transform="translate(15.718 57.674)" fill="#1f1f22"/>
    <circle id="Ellipse_307-29" data-name="Ellipse 307" cx="2.535" cy="2.535" r="2.535" transform="translate(29.718 57.674)" fill="#1f1f22"/>
    <circle id="Ellipse_307-30" data-name="Ellipse 307" cx="2.535" cy="2.535" r="2.535" transform="translate(43.718 57.674)" fill="#1f1f22"/>
    <circle id="Ellipse_307-31" data-name="Ellipse 307" cx="2.535" cy="2.535" r="2.535" transform="translate(57.718 57.674)" fill="#1f1f22"/>
    <circle id="Ellipse_307-32" data-name="Ellipse 307" cx="2.535" cy="2.535" r="2.535" transform="translate(71.718 57.674)" fill="#1f1f22"/>
    <circle id="Ellipse_307-33" data-name="Ellipse 307" cx="2.535" cy="2.535" r="2.535" transform="translate(85.718 57.674)" fill="#1f1f22"/>
    <circle id="Ellipse_307-34" data-name="Ellipse 307" cx="2.535" cy="2.535" r="2.535" transform="translate(99.718 57.674)" fill="#1f1f22"/>
    <circle id="Ellipse_307-35" data-name="Ellipse 307" cx="2.535" cy="2.535" r="2.535" transform="translate(113.718 57.674)" fill="#1f1f22"/>
    <circle id="Ellipse_307-36" data-name="Ellipse 307" cx="2.535" cy="2.535" r="2.535" transform="translate(127.718 57.674)" fill="#1f1f22"/>
    <circle id="Ellipse_307-37" data-name="Ellipse 307" cx="2.535" cy="2.535" r="2.535" transform="translate(1.718 70.674)" fill="#1f1f22"/>
    <circle id="Ellipse_307-38" data-name="Ellipse 307" cx="2.535" cy="2.535" r="2.535" transform="translate(15.718 70.674)" fill="#1f1f22"/>
    <circle id="Ellipse_307-39" data-name="Ellipse 307" cx="2.535" cy="2.535" r="2.535" transform="translate(29.718 70.674)" fill="#1f1f22"/>
    <circle id="Ellipse_307-40" data-name="Ellipse 307" cx="2.535" cy="2.535" r="2.535" transform="translate(43.718 70.674)" fill="#1f1f22"/>
    <circle id="Ellipse_307-41" data-name="Ellipse 307" cx="2.535" cy="2.535" r="2.535" transform="translate(57.718 70.674)" fill="#1f1f22"/>
    <circle id="Ellipse_307-42" data-name="Ellipse 307" cx="2.535" cy="2.535" r="2.535" transform="translate(71.718 70.674)" fill="#1f1f22"/>
    <circle id="Ellipse_307-43" data-name="Ellipse 307" cx="2.535" cy="2.535" r="2.535" transform="translate(85.718 70.674)" fill="#1f1f22"/>
    <circle id="Ellipse_307-44" data-name="Ellipse 307" cx="2.535" cy="2.535" r="2.535" transform="translate(99.718 70.674)" fill="#1f1f22"/>
    <circle id="Ellipse_307-45" data-name="Ellipse 307" cx="2.535" cy="2.535" r="2.535" transform="translate(113.718 70.674)" fill="#1f1f22"/>
    <circle id="Ellipse_307-46" data-name="Ellipse 307" cx="2.535" cy="2.535" r="2.535" transform="translate(127.718 70.674)" fill="#1f1f22"/>
    <circle id="Ellipse_307-47" data-name="Ellipse 307" cx="2.535" cy="2.535" r="2.535" transform="translate(15.718 83.674)" fill="#1f1f22"/>
    <circle id="Ellipse_307-48" data-name="Ellipse 307" cx="2.535" cy="2.535" r="2.535" transform="translate(29.718 83.674)" fill="#1f1f22"/>
    <circle id="Ellipse_307-49" data-name="Ellipse 307" cx="2.535" cy="2.535" r="2.535" transform="translate(43.718 83.674)" fill="#1f1f22"/>
    <circle id="Ellipse_307-50" data-name="Ellipse 307" cx="2.535" cy="2.535" r="2.535" transform="translate(57.718 83.674)" fill="#1f1f22"/>
    <circle id="Ellipse_307-51" data-name="Ellipse 307" cx="2.535" cy="2.535" r="2.535" transform="translate(71.718 83.674)" fill="#1f1f22"/>
    <circle id="Ellipse_307-52" data-name="Ellipse 307" cx="2.535" cy="2.535" r="2.535" transform="translate(85.718 83.674)" fill="#1f1f22"/>
    <circle id="Ellipse_307-53" data-name="Ellipse 307" cx="2.535" cy="2.535" r="2.535" transform="translate(99.718 83.674)" fill="#1f1f22"/>
    <circle id="Ellipse_307-54" data-name="Ellipse 307" cx="2.535" cy="2.535" r="2.535" transform="translate(113.718 83.674)" fill="#1f1f22"/>
    <circle id="Ellipse_307-55" data-name="Ellipse 307" cx="2.535" cy="2.535" r="2.535" transform="translate(15.718 96.674)" fill="#1f1f22"/>
    <circle id="Ellipse_307-56" data-name="Ellipse 307" cx="2.535" cy="2.535" r="2.535" transform="translate(29.718 96.674)" fill="#1f1f22"/>
    <circle id="Ellipse_307-57" data-name="Ellipse 307" cx="2.535" cy="2.535" r="2.535" transform="translate(43.718 96.674)" fill="#1f1f22"/>
    <circle id="Ellipse_307-58" data-name="Ellipse 307" cx="2.535" cy="2.535" r="2.535" transform="translate(57.718 96.674)" fill="#1f1f22"/>
    <circle id="Ellipse_307-59" data-name="Ellipse 307" cx="2.535" cy="2.535" r="2.535" transform="translate(71.718 96.674)" fill="#1f1f22"/>
    <circle id="Ellipse_307-60" data-name="Ellipse 307" cx="2.535" cy="2.535" r="2.535" transform="translate(85.718 96.674)" fill="#1f1f22"/>
    <circle id="Ellipse_307-61" data-name="Ellipse 307" cx="2.535" cy="2.535" r="2.535" transform="translate(99.718 96.674)" fill="#1f1f22"/>
    <circle id="Ellipse_307-62" data-name="Ellipse 307" cx="2.535" cy="2.535" r="2.535" transform="translate(113.718 96.674)" fill="#1f1f22"/>
    <circle id="Ellipse_307-63" data-name="Ellipse 307" cx="2.535" cy="2.535" r="2.535" transform="translate(29.718 109.674)" fill="#1f1f22"/>
    <circle id="Ellipse_307-64" data-name="Ellipse 307" cx="2.535" cy="2.535" r="2.535" transform="translate(43.718 109.674)" fill="#1f1f22"/>
    <circle id="Ellipse_307-65" data-name="Ellipse 307" cx="2.535" cy="2.535" r="2.535" transform="translate(57.718 109.674)" fill="#1f1f22"/>
    <circle id="Ellipse_307-66" data-name="Ellipse 307" cx="2.535" cy="2.535" r="2.535" transform="translate(71.718 109.674)" fill="#1f1f22"/>
    <circle id="Ellipse_307-67" data-name="Ellipse 307" cx="2.535" cy="2.535" r="2.535" transform="translate(85.718 109.674)" fill="#1f1f22"/>
    <circle id="Ellipse_307-68" data-name="Ellipse 307" cx="2.535" cy="2.535" r="2.535" transform="translate(99.718 109.674)" fill="#1f1f22"/>
    <circle id="Ellipse_307-69" data-name="Ellipse 307" cx="2.535" cy="2.535" r="2.535" transform="translate(43.718 122.674)" fill="#1f1f22"/>
    <circle id="Ellipse_307-70" data-name="Ellipse 307" cx="2.535" cy="2.535" r="2.535" transform="translate(57.718 122.674)" fill="#1f1f22"/>
    <circle id="Ellipse_307-71" data-name="Ellipse 307" cx="2.535" cy="2.535" r="2.535" transform="translate(71.718 122.674)" fill="#1f1f22"/>
    <circle id="Ellipse_307-72" data-name="Ellipse 307" cx="2.535" cy="2.535" r="2.535" transform="translate(85.718 122.674)" fill="#1f1f22"/>
  </g>
</svg>
