<svg width="17" height="17" viewBox="0 0 17 17" fill="none" xmlns="http://www.w3.org/2000/svg">
<path d="M16.106 13.8486L13.0786 10.8213C12.9272 10.7002 12.7456 10.6094 12.564 10.6094H12.0796C12.897 9.5498 13.4116 8.21777 13.4116 6.73438C13.4116 3.2832 10.5659 0.4375 7.11475 0.4375C3.6333 0.4375 0.817871 3.2832 0.817871 6.73438C0.817871 10.2158 3.6333 13.0312 7.11475 13.0312C8.56787 13.0312 9.8999 12.5469 10.9897 11.6992V12.2139C10.9897 12.3955 11.0503 12.5771 11.2017 12.7285L14.1987 15.7256C14.5015 16.0283 14.9556 16.0283 15.228 15.7256L16.0757 14.8779C16.3784 14.6055 16.3784 14.1514 16.106 13.8486ZM7.11475 10.6094C4.96533 10.6094 3.23975 8.88379 3.23975 6.73438C3.23975 4.61523 4.96533 2.85938 7.11475 2.85938C9.23389 2.85938 10.9897 4.61523 10.9897 6.73438C10.9897 8.88379 9.23389 10.6094 7.11475 10.6094Z" fill="black"/>
</svg>
