<svg width="62" height="55" viewBox="0 0 62 55" fill="none" xmlns="http://www.w3.org/2000/svg">
<path d="M56.1875 27.75H46.5V20C46.5 15.7617 49.8906 12.25 54.25 12.25H55.2188C56.793 12.25 58.125 11.0391 58.125 9.34375V3.53125C58.125 1.95703 56.793 0.625 55.2188 0.625H54.25C43.4727 0.625 34.875 9.34375 34.875 20V49.0625C34.875 52.332 37.418 54.875 40.6875 54.875H56.1875C59.3359 54.875 62 52.332 62 49.0625V33.5625C62 30.4141 59.3359 27.75 56.1875 27.75ZM21.3125 27.75H11.625V20C11.625 15.7617 15.0156 12.25 19.375 12.25H20.3438C21.918 12.25 23.25 11.0391 23.25 9.34375V3.53125C23.25 1.95703 21.918 0.625 20.3438 0.625H19.375C8.59766 0.625 0 9.34375 0 20V49.0625C0 52.332 2.54297 54.875 5.8125 54.875H21.3125C24.4609 54.875 27.125 52.332 27.125 49.0625V33.5625C27.125 30.4141 24.4609 27.75 21.3125 27.75Z" fill="#9DC7E0"/>
</svg>
