<?xml version="1.0" encoding="UTF-8"?>
<svg width="169px" height="70px" viewBox="0 0 169 70" version="1.1" xmlns="http://www.w3.org/2000/svg" xmlns:xlink="http://www.w3.org/1999/xlink">
    <title>Built Pay Lt Bgd</title>
    <g id="Brand-Taxonomy" stroke="none" stroke-width="1" fill="none" fill-rule="evenodd">
        <g id="Product-Logos---B4L" transform="translate(-1672.000000, -203.000000)">
            <g id="Built-Pay-Lt-Bgd" transform="translate(1672.478000, 203.337500)">
                <path d="M54.637625,0 C55.3832094,0 55.995929,0.594888083 56.0654338,1.35553999 L56.072,1.5 L56.072,66.825 C56.072,67.6534271 55.4298084,68.325 54.637625,68.325 C53.8920406,68.325 53.279321,67.7301119 53.2098162,66.96946 L53.20325,66.825 L53.20325,1.5 C53.20325,0.671572875 53.8454416,0 54.637625,0 Z" id="Line-2-Copy-3" fill="#0C1733" fill-rule="nonzero"></path>
                <path d="M79.97,51.6625 L79.97,38.9185 L89.258,38.9185 C93.578,38.9185 96.827,37.8475 99.005,35.7055 C101.183,33.5635 102.272,30.5665 102.272,26.7145 C102.272,22.8625 101.228,19.8835 99.14,17.7775 C97.052,15.6715 93.938,14.6185 89.798,14.6185 L89.798,14.6185 L72.14,14.6185 L72.14,51.6625 L79.97,51.6625 Z M89.096,32.2765 L79.97,32.2765 L79.97,21.2605 L89.096,21.2605 C90.788,21.2605 92.084,21.7375 92.984,22.6915 C93.884,23.6455 94.334,24.9865 94.334,26.7145 C94.334,28.4785 93.884,29.8465 92.984,30.8185 C92.084,31.7905 90.788,32.2765 89.096,32.2765 L89.096,32.2765 Z M130.669636,52.3105 C132.361636,52.3105 133.783636,52.0225 134.935636,51.4465 L134.935636,51.4465 L134.935636,46.2625 L133.423636,46.2625 C132.883636,46.2625 132.433636,46.1095 132.073636,45.8035 C131.713636,45.4975 131.533636,45.0205 131.533636,44.3725 L131.533636,44.3725 L131.533636,31.8445 C131.533636,28.8565 130.570636,26.5705 128.644636,24.9865 C126.718636,23.4025 123.811636,22.6105 119.923636,22.6105 C116.431636,22.6105 113.632636,23.3305 111.526636,24.7705 C109.420636,26.2105 108.367636,28.1185 108.367636,30.4945 C108.367636,31.0705 108.385636,31.4665 108.421636,31.6825 L108.421636,31.6825 L115.549636,31.6825 L115.549636,30.8725 C115.549636,30.1885 115.900636,29.5945 116.602636,29.0905 C117.304636,28.5865 118.483636,28.3345 120.139636,28.3345 C121.687636,28.3345 122.740636,28.6765 123.298636,29.3605 C123.856636,30.0445 124.135636,31.0165 124.135636,32.2765 L124.135636,32.2765 L124.135636,34.2745 C118.663636,34.2745 114.433636,35.0395 111.445636,36.5695 C108.457636,38.0995 106.963636,40.6825 106.963636,44.3185 C106.963636,47.3425 107.881636,49.4305 109.717636,50.5825 C111.553636,51.7345 113.569636,52.3105 115.765636,52.3105 C117.925636,52.3105 119.680636,51.9955 121.030636,51.3655 C122.380636,50.7355 123.577636,49.8085 124.621636,48.5845 L124.621636,48.5845 L124.945636,48.5845 C125.305636,49.7725 125.980636,50.6905 126.970636,51.3385 C127.960636,51.9865 129.193636,52.3105 130.669636,52.3105 Z M118.087636,46.4785 C116.863636,46.4785 115.954636,46.2085 115.360636,45.6685 C114.766636,45.1285 114.469636,44.4085 114.469636,43.5085 C114.469636,40.6285 117.691636,39.1885 124.135636,39.1885 L124.135636,39.1885 L124.135636,40.0525 C124.135636,41.9965 123.649636,43.5535 122.677636,44.7235 C121.705636,45.8935 120.175636,46.4785 118.087636,46.4785 Z M144.433272,61.4905 C146.593272,61.4905 148.420272,61.0045 149.914272,60.0325 C151.408272,59.0605 152.623272,57.7735 153.559272,56.1715 C154.495272,54.5695 155.395272,52.5805 156.259272,50.2045 L156.259272,50.2045 L165.817272,23.2585 L158.311272,23.2585 L154.099272,36.6505 C153.631272,38.2345 152.965272,40.6825 152.101272,43.9945 L152.101272,43.9945 L151.831272,43.9945 C151.039272,40.4665 150.373272,38.0005 149.833272,36.5965 L149.833272,36.5965 L144.487272,23.2585 L136.765272,23.2585 L147.889272,51.6625 C147.385272,53.0665 146.737272,54.0745 145.945272,54.6865 C145.153272,55.2985 144.127272,55.6045 142.867272,55.6045 L142.867272,55.6045 L139.357272,55.6045 L139.357272,60.7885 C140.761272,61.2565 142.453272,61.4905 144.433272,61.4905 Z" id="Pay" fill="#040A1A" fill-rule="nonzero"></path>
                <g id="Built-Logo/brandmark/red" transform="translate(0.000000, 12.662500)" fill="#CF392B">
                    <path d="M30.332463,27.4486123 L18.5,20.5966388 L6.66753704,27.4486123 L6.66753704,16.7923348 L18.5,9.94568722 L30.332463,16.7980044 L30.332463,27.4486123 Z M18.5,2.22351542 L6.66753704,9.07566079 L6.66753704,0 L0,0 L0,38.9299031 L0.17575,38.9299031 L18.5,28.3188106 L36.8184259,38.9299031 L37,38.9299031 L37,12.9368326 L18.5,2.22351542 L18.5,2.22351542 Z" id="Fill-1"></path>
                </g>
            </g>
        </g>
    </g>
</svg>