<svg xmlns="http://www.w3.org/2000/svg" viewBox="0 0 462.76 447.77"><defs><style>.cls-1{fill:#72b5e4;}.cls-2{fill:#568aad;}.cls-3{fill:#fff;}.cls-4{fill:#b6b8ba;}.cls-5{fill:#52586b;}</style></defs><title>electronic-signaturesmdpi</title><g id="Layer_2" data-name="Layer 2"><g id="Layer_2-2" data-name="Layer 2"><rect class="cls-1" width="462.76" height="447.77" rx="84.31" ry="84.31"/><path class="cls-2" d="M329.21,169H145a7,7,0,1,1,0-14.06H329.21a7,7,0,0,1,0,14.06Z"/><path class="cls-2" d="M329.21,215.64h-133a7,7,0,1,1,0-14.05h133a7,7,0,1,1,0,14.05Z"/><path class="cls-2" d="M172.24,215.64H145a7,7,0,1,1,0-14.05h27.28a7,7,0,0,1,0,14.05Z"/><path class="cls-2" d="M329.21,260.48h-133a7,7,0,1,1,0-14.06h133a7,7,0,0,1,0,14.06Z"/><path class="cls-2" d="M172.24,260.48H145a7,7,0,1,1,0-14.06h27.28a7,7,0,0,1,0,14.06Z"/><path class="cls-2" d="M329.21,305.31h-133a7,7,0,1,1,0-14.05h133a7,7,0,1,1,0,14.05Z"/><path class="cls-2" d="M172.24,305.31H145a7,7,0,1,1,0-14.05h27.28a7,7,0,0,1,0,14.05Z"/><path class="cls-2" d="M329.21,350.15h-133a7,7,0,1,1,0-14.05h133a7,7,0,1,1,0,14.05Z"/><path class="cls-2" d="M172.24,350.15H145a7,7,0,1,1,0-14.05h27.28a7,7,0,0,1,0,14.05Z"/><path class="cls-2" d="M329.21,105.43H145a7,7,0,1,1,0-14.05H329.21a7,7,0,1,1,0,14.05Z"/><path class="cls-3" d="M353.76,78V363.5a14.08,14.08,0,0,1-11.21,13.77h0a14,14,0,0,1-2.81.28H119.51a14,14,0,0,1-14-14V78c0-8.65,5.9-15.73,13.32-16.16l.72,0H339.7l.72,0C347.86,62.24,353.76,69.32,353.76,78Z"/><path class="cls-4" d="M321.74,161.49H137.48a7,7,0,0,1,0-14.06H321.74a7,7,0,1,1,0,14.06Z"/><path class="cls-4" d="M321.74,124.18H137.48a7,7,0,0,1,0-14.06H321.74a7,7,0,1,1,0,14.06Z"/><path class="cls-4" d="M321.74,208.16h-133a7,7,0,1,1,0-14.05h133a7,7,0,1,1,0,14.05Z"/><path class="cls-4" d="M164.76,208.16H137.48a7,7,0,0,1,0-14.05h27.28a7,7,0,1,1,0,14.05Z"/><path class="cls-4" d="M321.74,253h-133a7,7,0,1,1,0-14.06h133a7,7,0,1,1,0,14.06Z"/><path class="cls-4" d="M164.76,253H137.48a7,7,0,0,1,0-14.06h27.28a7,7,0,0,1,0,14.06Z"/><path class="cls-4" d="M321.74,297.83h-133a7,7,0,1,1,0-14.05h133a7,7,0,1,1,0,14.05Z"/><path class="cls-4" d="M164.76,297.83H137.48a7,7,0,0,1,0-14.05h27.28a7,7,0,1,1,0,14.05Z"/><path class="cls-5" d="M258.66,336.51c-5.39,4.26-6.53,4.19-11.15,4.95-2.42.39-6,1-6.56-1.08a13.07,13.07,0,0,0,1.23-9.77c-1.41-6.06-6-10.17-10.34-9.16s-6.65,6.73-5.24,12.79a13.29,13.29,0,0,0,5,8c-.7,3.08-5.13,4.8-7.77,4.89-2,.06-5-.34-6.39-2a16.76,16.76,0,0,0,2.8-9.58c0-7.51-4.32-13.6-9.64-13.6s-9.64,6.09-9.64,13.6c0,4.89,1.83,9.17,4.58,11.57-1.24,4.62-11.31,6-14.69.6a21.4,21.4,0,0,0,2.88-11.07c0-9.06-4.91-16.4-11-16.4s-11,7.34-11,16.4a20.32,20.32,0,0,0,4,12.68c-1.63,5.55-12.31,8.18-17.81,8.1-9.12-.13-15.55-1.9-18.5-3.08s-6.4,2.39,4.39,7c8.11,3.47,27,3.74,39.36-6.3.87-.7.8-.15,1.65.17,13.9,5.34,19.82,1.11,26.29-4.24.31-.26.86-.1,1.65.13,15.76,4.57,21.48-2.87,23.64-4.83,1.41-1.28,1.07-.88,3.44-.75a29.77,29.77,0,0,0,15.48-2.62C263.68,338.94,264.37,332,258.66,336.51Zm-74.55,8.63c-1.85.1-3.54-3.19-3.76-7.35s1.1-7.61,3-7.7,3.54,3.19,3.76,7.35S186,345,184.11,345.14Zm27.27-2.89c-1.63.09-3.09-2.57-3.27-5.93s1-6.16,2.62-6.25,3.09,2.57,3.27,5.93S213,342.16,211.38,342.25Zm24.6-3.76c-1.48.31-3.19-1.85-3.82-4.83s.06-5.65,1.54-6,3.19,1.85,3.82,4.83S237.46,338.18,236,338.49Z"/></g></g></svg>