<svg xmlns="http://www.w3.org/2000/svg" viewBox="0 0 462.76 447.77"><defs><style>.cls-1{fill:#436ab3;}.cls-2{fill:#568aad;}.cls-3{fill:#fff;}.cls-4{fill:#73b5e3;}.cls-5{fill:#b6b8ba;}.cls-6{fill:#6ac17b;}.cls-7{fill:#818285;}</style></defs><title>Asset 6mdpi</title><g id="Layer_2" data-name="Layer 2"><g id="Layer_2-2" data-name="Layer 2"><rect class="cls-1" width="462.76" height="447.77" rx="84.31" ry="84.31"/><path class="cls-2" d="M329.21,169H145a7,7,0,1,1,0-14.06H329.21a7,7,0,0,1,0,14.06Z"/><path class="cls-2" d="M329.21,215.64h-133a7,7,0,1,1,0-14.05h133a7,7,0,1,1,0,14.05Z"/><path class="cls-2" d="M172.24,215.64H145a7,7,0,1,1,0-14.05h27.28a7,7,0,0,1,0,14.05Z"/><path class="cls-2" d="M329.21,260.48h-133a7,7,0,1,1,0-14.06h133a7,7,0,0,1,0,14.06Z"/><path class="cls-2" d="M172.24,260.48H145a7,7,0,1,1,0-14.06h27.28a7,7,0,0,1,0,14.06Z"/><path class="cls-2" d="M329.21,305.31h-133a7,7,0,1,1,0-14.05h133a7,7,0,1,1,0,14.05Z"/><path class="cls-2" d="M172.24,305.31H145a7,7,0,1,1,0-14.05h27.28a7,7,0,0,1,0,14.05Z"/><path class="cls-2" d="M329.21,350.15h-133a7,7,0,1,1,0-14.05h133a7,7,0,1,1,0,14.05Z"/><path class="cls-2" d="M172.24,350.15H145a7,7,0,1,1,0-14.05h27.28a7,7,0,0,1,0,14.05Z"/><path class="cls-2" d="M329.21,105.43H145a7,7,0,1,1,0-14.05H329.21a7,7,0,1,1,0,14.05Z"/><path class="cls-3" d="M353.76,78V363.5a14.08,14.08,0,0,1-11.21,13.77h0a14,14,0,0,1-2.81.28H119.51a14,14,0,0,1-14-14V78c0-8.65,5.9-15.73,13.32-16.16l.72,0H339.7l.72,0C347.86,62.24,353.76,69.32,353.76,78Z"/><path class="cls-4" d="M353.76,78v42.1H105.46V78c0-8.65,5.9-15.73,13.32-16.16l.72,0H339.7l.72,0C347.86,62.24,353.76,69.32,353.76,78Z"/><path class="cls-5" d="M321.74,161.49H137.48a7,7,0,0,1,0-14.06H321.74a7,7,0,1,1,0,14.06Z"/><path class="cls-5" d="M321.74,208.16h-133a7,7,0,1,1,0-14.05h133a7,7,0,1,1,0,14.05Z"/><path class="cls-5" d="M164.76,208.16H137.48a7,7,0,0,1,0-14.05h27.28a7,7,0,1,1,0,14.05Z"/><path class="cls-5" d="M321.74,253h-133a7,7,0,1,1,0-14.06h133a7,7,0,1,1,0,14.06Z"/><path class="cls-5" d="M164.76,253H137.48a7,7,0,0,1,0-14.06h27.28a7,7,0,0,1,0,14.06Z"/><path class="cls-5" d="M321.74,297.83h-133a7,7,0,1,1,0-14.05h133a7,7,0,1,1,0,14.05Z"/><path class="cls-5" d="M164.76,297.83H137.48a7,7,0,0,1,0-14.05h27.28a7,7,0,1,1,0,14.05Z"/><path class="cls-5" d="M321.74,342.67h-133a7,7,0,1,1,0-14.05h133a7,7,0,1,1,0,14.05Z"/><path class="cls-5" d="M164.76,342.67H137.48a7,7,0,0,1,0-14.05h27.28a7,7,0,1,1,0,14.05Z"/><path class="cls-6" d="M321.74,98H137.48a7,7,0,0,1,0-14.05H321.74a7,7,0,1,1,0,14.05Z"/><path id="path3024" class="cls-2" d="M354,302.3l5.11,0c0,1.69,0,3.38.06,5.08,1.69,0,3.39,0,5.09.06,0,1.69,0,3.39.09,5.09,1.7,0,3.4,0,5.09.06q0,2.54,0,5.08,2.51,0,5,.05c0,1.7.07,3.39.13,5.09,1.69,0,3.39,0,5.08,0,0,1.7,0,3.39,0,5.09,1.69,0,3.39,0,5.08.12,0,1.67.07,3.34.07,5,1.69,0,3.39.05,5.09,0,0,1.7,0,3.4,0,5.11-1.72.08-3.44.07-5.15,0,0-1.7,0-3.4,0-5.1-1.72,0-3.45,0-5.17,0,0-1.72,0-3.44,0-5.16h-5.11q0-2.56,0-5.12c-1.72,0-3.45,0-5.17,0,0-1.72,0-3.44,0-5.16h-5.11c0-1.71,0-3.43,0-5.14-1.71,0-3.42,0-5.13,0,0-1.7,0-3.4,0-5.1-1.69,0-3.39,0-5.08,0C353.95,305.73,354,304,354,302.3Z"/><path id="path4097" class="cls-3" d="M340.93,286.79h-2.5c-.12,19,0,38.08-.07,57.12,0,10.1-.08,20.2.06,30.29,3.43,0,6.85,0,10.28,0,.09-1.47.12-3,.12-4.44v-.67h.67c1.46,0,2.91,0,4.36,0a33.07,33.07,0,0,0,0-4.49l-.09-.83.83.11a30.35,30.35,0,0,0,4.52,0c0-1.44.06-2.88.08-4.31v-.66h.66c1.13,0,2.27,0,3.41-.07l.75,0-.05.75c-.24,3.14.29,6.29.12,9.43,1.48,0,3,.07,4.45.08h.65v.65c0,3.19,0,6.37.07,9.56q2.2,0,4.4,0h.65V380c0,1.48,0,3,0,4.45,3.45,0,6.9,0,10.35,0a28.31,28.31,0,0,0,.08-4.43l0-.73.73,0c1.46,0,2.93,0,4.38,0,0-3.43,0-6.87,0-10.3-1.47,0-2.95-.06-4.42-.07h-.65v-.64c-.05-3.19,0-6.37,0-9.56-1.48-.06-3-.08-4.45,0l-.7,0,0-.7q.07-1.85.07-3.68v-.66h.66c6.59,0,13.19,0,19.78-.08,0-3.42.05-6.84,0-10.26q-2.23,0-4.45,0H395v-.64c0-1.48,0-3,0-4.45-1.47,0-2.95,0-4.43,0h-.65v-.65c0-1.47,0-2.94-.06-4.41-1.47-.07-3-.11-4.45-.09h-.67v-.67q0-2.24,0-4.46-2.23,0-4.45,0l-.64,0v-.64c0-1.46,0-2.91-.06-4.36-1.47-.08-2.93-.09-4.41-.1h-.65v-.65c0-1.48,0-3,0-4.45l-4.45,0h-.63l0-.63c-.05-1.48-.12-3-.12-4.46-1.45,0-2.9,0-4.35,0h-.64l0-.64c0-1.48-.06-3,0-4.44l-4.45,0H359l0-.63c-.06-1.48-.08-3-.08-4.46-1.48,0-3,0-4.43,0h-.65v-.65c0-1.48,0-3,0-4.43l-4.46,0h-.64v-.64c0-1.48,0-3,0-4.45-1.48,0-3,0-4.48,0h-.66v-.65c0-1.49,0-3-.1-4.46Z"/><path id="path3022" class="cls-7" d="M338.43,286.8c1.67,0,3.33,0,5,0q.11,2.55.11,5.11c1.71,0,3.42,0,5.12,0,0,1.7,0,3.4,0,5.09q-2.58,0-5.17,0c0,24,0,48,0,71.95,1.7,0,3.4,0,5.1,0,0-1.7,0-3.39,0-5.08a26.22,26.22,0,0,1,5.11.13,27.12,27.12,0,0,1,.08,5.08c-1.67,0-3.34,0-5,0,0,1.7,0,3.4-.13,5.1-3.42,0-6.85,0-10.28,0-.14-10.09,0-20.19-.06-30.29C338.39,324.87,338.32,305.83,338.43,286.8Z"/><path id="path3024-2" data-name="path3024" class="cls-7" d="M348.69,297l5.11,0c0,1.69,0,3.38.06,5.07,1.7,0,3.39,0,5.09.06,0,1.7,0,3.39.09,5.09,1.7,0,3.4,0,5.09.06q0,2.54,0,5.08,2.51,0,5,.05c0,1.7.07,3.39.13,5.08,1.69,0,3.39,0,5.08,0q0,2.54,0,5.09c1.69,0,3.39,0,5.08.12,0,1.67.07,3.34.07,5q2.54.06,5.09,0,0,2.55,0,5.11c-1.72.08-3.44.07-5.16,0,0-1.7,0-3.4,0-5.1-1.73,0-3.45,0-5.17,0,0-1.72,0-3.44,0-5.16h-5.11c0-1.71,0-3.41,0-5.12-1.72,0-3.45,0-5.17,0,0-1.72,0-3.44,0-5.17H359c0-1.71,0-3.43,0-5.14-1.71,0-3.42,0-5.13,0,0-1.7,0-3.4,0-5.1-1.69,0-3.39,0-5.09,0C348.68,300.46,348.68,298.74,348.69,297Z"/><path id="path3028" class="cls-7" d="M384.69,333c1.71,0,3.41,0,5.11.1,0,1.69,0,3.37.07,5.06,1.7,0,3.39,0,5.08.05,0,1.7,0,3.4,0,5.1,1.7,0,3.39,0,5.09,0,.06,3.42.05,6.84,0,10.26-6.82.07-13.63.07-20.44.09,0,1.68,0,3.36-.08,5-1.72.09-3.44.07-5.16.05q-.07-5.14,0-10.29c6.85,0,13.7,0,20.55,0q0-2.57,0-5.15c-1.71,0-3.43,0-5.14,0,0-1.7,0-3.4,0-5.11q-2.54,0-5.09,0C384.66,336.44,384.66,334.71,384.69,333Z"/><path id="path3032" class="cls-7" d="M359,353.57q2.55,0,5.1,0a30.7,30.7,0,0,1-.1,5.28c-1.6.13-3.2.11-4.8.09,0,1.66,0,3.31-.08,5a24.43,24.43,0,0,1-5.11-.11,22.39,22.39,0,0,1-.16-5.08h5.12c0-1.72,0-3.44,0-5.15Z"/><path id="path3034" class="cls-7" d="M364,358.85a41,41,0,0,1,5.28-.1c0,3.42,0,6.84,0,10.25,1.71,0,3.43,0,5.14,0,0,3.4,0,6.81,0,10.21,3.43.05,6.87-.11,10.3.09a25.46,25.46,0,0,1-.05,5.15c-3.45,0-6.9,0-10.35,0q0-2.55,0-5.1c-1.68,0-3.37,0-5.06-.05-.06-3.4,0-6.81-.08-10.21-1.7,0-3.4,0-5.09-.09C364.25,365.62,363.57,362.23,364,358.85Z"/><path id="path3036" class="cls-7" d="M379.56,358.7c1.71-.08,3.42,0,5.13,0,0,3.4,0,6.81,0,10.21,1.69,0,3.38,0,5.07.08,0,3.43.06,6.87,0,10.3-1.69,0-3.39.09-5.08,0-.19-3.42,0-6.85-.06-10.28-1.72,0-3.44,0-5.16,0C379.51,365.58,379.47,362.14,379.56,358.7Z"/></g></g></svg>