<svg xmlns="http://www.w3.org/2000/svg" viewBox="0 0 463.7 448.68"><defs><style>.cls-1{fill:#426ab3;}.cls-2{fill:#fff;}.cls-3{fill:#6ac17b;}.cls-4{fill:#c0c2c4;}</style></defs><title>fast-integrationsmdpi</title><g id="Layer_2" data-name="Layer 2"><g id="Layer_2-2" data-name="Layer 2"><rect class="cls-1" width="463.7" height="448.68" rx="84.48" ry="84.48"/><path class="cls-2" d="M383.35,210.74v27.2a6.8,6.8,0,0,1-6.8,6.8H355.84a122.68,122.68,0,0,1-6.15,23l17.93,10.35a6.79,6.79,0,0,1,2.49,9.28l-13.6,23.55a6.79,6.79,0,0,1-9.28,2.49l-18-10.37a123.88,123.88,0,0,1-16.81,16.81l10.37,18a6.79,6.79,0,0,1-2.49,9.28l-23.54,13.6a6.79,6.79,0,0,1-9.29-2.48l-10.35-17.92a123.36,123.36,0,0,1-23,6.14v20.72a6.8,6.8,0,0,1-6.8,6.79H220.83a6.8,6.8,0,0,1-6.8-6.79V346.4a123.34,123.34,0,0,1-23-6.14L180.7,358.19a6.79,6.79,0,0,1-9.28,2.48l-23.55-13.6a6.79,6.79,0,0,1-2.49-9.28l10.37-18A124,124,0,0,1,138.94,303l-18,10.37a6.79,6.79,0,0,1-9.28-2.49L98.1,287.35a6.79,6.79,0,0,1,2.49-9.28l17.92-10.35a122.74,122.74,0,0,1-6.15-23H91.66a6.8,6.8,0,0,1-6.8-6.8v-27.2a6.52,6.52,0,0,1,.45-2.42,6.78,6.78,0,0,1,6.35-4.38h20.71a122.64,122.64,0,0,1,6.15-23l-17.92-10.35a6.8,6.8,0,0,1-2.49-9.29l13.6-23.54a6.8,6.8,0,0,1,9.28-2.5l18,10.37a124.39,124.39,0,0,1,16.81-16.81l-10.37-18a6.8,6.8,0,0,1,2.49-9.28L171.42,88a6.8,6.8,0,0,1,9.28,2.49l10.35,17.92a122.78,122.78,0,0,1,23-6.15V81.57a6.8,6.8,0,0,1,6.8-6.8h26.55a6.8,6.8,0,0,1,6.8,6.8v20.71a122.79,122.79,0,0,1,23,6.15L287.51,90.5A6.8,6.8,0,0,1,296.79,88l23.54,13.6a6.8,6.8,0,0,1,2.49,9.28l-10.37,18a124.32,124.32,0,0,1,16.81,16.81l18-10.37a6.8,6.8,0,0,1,9.28,2.5l13.6,23.54a6.81,6.81,0,0,1-2.49,9.29L349.7,181a122.58,122.58,0,0,1,6.15,23h20.71A6.8,6.8,0,0,1,383.35,210.74Z"/><path class="cls-2" d="M383.35,210.74v27.2a6.8,6.8,0,0,1-6.8,6.8H355.84a122.68,122.68,0,0,1-6.15,23l17.93,10.35a6.79,6.79,0,0,1,2.49,9.28l-13.6,23.55a6.79,6.79,0,0,1-9.28,2.49l-18-10.37a123.88,123.88,0,0,1-16.81,16.81l10.37,18a6.79,6.79,0,0,1-2.49,9.28l-23.54,13.6a6.79,6.79,0,0,1-9.29-2.48l-10.35-17.92a123.36,123.36,0,0,1-23,6.14v20.72a6.8,6.8,0,0,1-6.8,6.79H220.83a6.8,6.8,0,0,1-6.8-6.79V346.4a123.34,123.34,0,0,1-23-6.14L180.7,358.19a6.79,6.79,0,0,1-9.28,2.48l-23.55-13.6a6.79,6.79,0,0,1-2.49-9.28l10.37-18A124,124,0,0,1,138.94,303l-18,10.37a6.79,6.79,0,0,1-9.28-2.49L98.1,287.35a6.79,6.79,0,0,1,2.49-9.28l17.92-10.35a122.74,122.74,0,0,1-6.15-23H91.66a6.8,6.8,0,0,1-6.8-6.8v-27.2a6.52,6.52,0,0,1,.45-2.42,6.78,6.78,0,0,1,6.35-4.38h20.71a122.64,122.64,0,0,1,6.15-23l-17.92-10.35a6.8,6.8,0,0,1-2.49-9.29l13.6-23.54a6.8,6.8,0,0,1,9.28-2.5l18,10.37a124.39,124.39,0,0,1,16.81-16.81l-10.37-18a6.8,6.8,0,0,1,2.49-9.28L171.42,88a6.8,6.8,0,0,1,9.28,2.49l10.35,17.92a122.78,122.78,0,0,1,23-6.15V81.57a6.8,6.8,0,0,1,6.8-6.8h26.55a6.8,6.8,0,0,1,6.8,6.8v20.71a122.79,122.79,0,0,1,23,6.15L287.51,90.5A6.8,6.8,0,0,1,296.79,88l23.54,13.6a6.8,6.8,0,0,1,2.49,9.28l-10.37,18a124.32,124.32,0,0,1,16.81,16.81l18-10.37a6.8,6.8,0,0,1,9.28,2.5l13.6,23.54a6.81,6.81,0,0,1-2.49,9.29L349.7,181a122.58,122.58,0,0,1,6.15,23h20.71A6.8,6.8,0,0,1,383.35,210.74Z"/><circle class="cls-1" cx="234.11" cy="224.34" r="18.78"/><path class="cls-3" d="M164.37,281.83a11.44,11.44,0,0,1-9.11-4.64,13.49,13.49,0,0,1,1.59-18L199,221.63,156.85,184a13.49,13.49,0,0,1-1.59-18,11.21,11.21,0,0,1,16.62-1.72L225,211.79a13.44,13.44,0,0,1,0,19.69l-53.15,47.43A11.22,11.22,0,0,1,164.37,281.83Z"/><path class="cls-3" d="M154.61,222.34H89.91a9.49,9.49,0,0,1-9.57-9.42c0-5.2,4.28-9,9.57-9h64.7c5.28,0,9.57,3.79,9.57,9A9.49,9.49,0,0,1,154.61,222.34Z"/><path class="cls-3" d="M147,248H123.39c-5.76,0-10.42-4.22-10.42-9.42s4.67-9.42,10.42-9.42H147c5.75,0,10.43,4.22,10.43,9.42S152.8,248,147,248Z"/><path class="cls-4" d="M233.6,302.26a78,78,0,0,1-48.48-16.91L201,271.15A57.36,57.36,0,0,0,234.7,282a57.94,57.94,0,1,0-30.64-107.13l-15.66-14a77.22,77.22,0,0,1,45.2-14.43,77.92,77.92,0,0,1,0,155.84Z"/><path class="cls-2" d="M233.6,148.42a75.92,75.92,0,1,1-45.35,136.82l12.91-11.53A59.32,59.32,0,0,0,234.7,284a59.94,59.94,0,1,0-30.41-111.61l-12.66-11.31a75.22,75.22,0,0,1,42-12.64m0-4a79.62,79.62,0,0,0-48.37,16.29l18.63,16.64a55.95,55.95,0,1,1-3,91.24L182,285.41a79.92,79.92,0,1,0,51.56-141Z"/><path class="cls-4" d="M233.6,303.26a79,79,0,0,1-50-17.87l17.37-15.51A56.37,56.37,0,0,0,234.7,281,56.94,56.94,0,1,0,204,176.09l-17.15-15.32A78.92,78.92,0,1,1,233.6,303.26Z"/><path class="cls-2" d="M233.6,146.42a77.92,77.92,0,1,1-48.48,138.93L201,271.15A57.36,57.36,0,0,0,234.7,282a57.94,57.94,0,1,0-30.64-107.13l-15.66-14a77.21,77.21,0,0,1,45.2-14.43m0-2a79.62,79.62,0,0,0-48.37,16.29l18.63,16.64a55.95,55.95,0,1,1-3,91.24L182,285.41a79.92,79.92,0,1,0,51.56-141Z"/></g></g></svg>