<svg xmlns="http://www.w3.org/2000/svg" viewBox="0 0 463.82 448.8"><defs><style>.cls-1{fill:#426ab3;}.cls-2{fill:#fff;}.cls-3{fill:#6ac17b;}.cls-4{fill:#b6b8ba;}</style></defs><title>live-chat-supportmdpi</title><g id="Layer_2" data-name="Layer 2"><g id="Layer_2-2" data-name="Layer 2"><rect class="cls-1" width="463.82" height="448.8" rx="84.5" ry="84.5"/><path class="cls-2" d="M313.86,90H150a44.6,44.6,0,0,0-44.6,44.6V304.09a44.6,44.6,0,0,0,44.6,44.6H288.22l70.25,30.1V134.6A44.6,44.6,0,0,0,313.86,90Z"/><path class="cls-3" d="M232.78,311.64c-34.47,0-66-15.15-89.48-35.66a7.58,7.58,0,1,1,10-11.43c37.93,33.06,99.17,50.43,157.29,0A7.59,7.59,0,0,1,320.51,276C291.08,301.53,260.92,311.64,232.78,311.64Z"/><path class="cls-4" d="M313.09,143.25H185.87a6.72,6.72,0,1,1,0-13.44H313.09a6.72,6.72,0,1,1,0,13.44Z"/><path class="cls-4" d="M163,143.25H136.87a6.72,6.72,0,0,1,0-13.44H163a6.72,6.72,0,1,1,0,13.44Z"/><path class="cls-4" d="M313.09,224.83H185.87a6.72,6.72,0,1,1,0-13.44H313.09a6.72,6.72,0,1,1,0,13.44Z"/><path class="cls-4" d="M163,224.83H136.87a6.72,6.72,0,0,1,0-13.44H163a6.72,6.72,0,1,1,0,13.44Z"/><path class="cls-4" d="M141.71,186.13H268.94a6.72,6.72,0,1,0,0-13.44H141.71a6.72,6.72,0,1,0,0,13.44Z"/><path class="cls-4" d="M291.85,186.13h26.09a6.72,6.72,0,1,0,0-13.44H291.85a6.72,6.72,0,1,0,0,13.44Z"/></g></g></svg>