<svg xmlns="http://www.w3.org/2000/svg" viewBox="0 0 462.76 447.77"><defs><style>.cls-1{fill:#72b5e4;}.cls-2,.cls-6{fill:#fff;}.cls-3{fill:#b6b8ba;}.cls-4{fill:#e0e1e2;}.cls-5{fill:#6ac17b;}.cls-6{font-size:78.41px;font-family:Montserrat-SemiBold, Montserrat;font-weight:700;}</style></defs><title>live-payment-statusmdpi</title><g id="Layer_2" data-name="Layer 2"><g id="Layer_2-2" data-name="Layer 2"><rect class="cls-1" width="462.76" height="447.77" rx="84.31" ry="84.31"/><rect class="cls-2" x="94.54" y="118.2" width="285.88" height="186.32"/><path class="cls-3" d="M351.68,182.58H267a4.47,4.47,0,1,1,0-8.94h84.66a4.47,4.47,0,1,1,0,8.94Z"/><path class="cls-3" d="M251.78,182.58H234.42a4.47,4.47,0,0,1,0-8.94h17.36a4.47,4.47,0,1,1,0,8.94Z"/><path class="cls-3" d="M351.68,236.86H267a4.47,4.47,0,1,1,0-8.94h84.66a4.47,4.47,0,1,1,0,8.94Z"/><path class="cls-3" d="M251.78,236.86H234.42a4.47,4.47,0,0,1,0-8.94h17.36a4.47,4.47,0,1,1,0,8.94Z"/><path class="cls-3" d="M237.65,211.11H322.3a4.47,4.47,0,1,0,0-8.94H237.65a4.47,4.47,0,1,0,0,8.94Z"/><path class="cls-3" d="M337.55,211.11h17.36a4.47,4.47,0,0,0,0-8.94H337.55a4.47,4.47,0,1,0,0,8.94Z"/><path class="cls-4" d="M380.28,97.23H90.3a12,12,0,0,0-12,12V307.65a12,12,0,0,0,12,12h290a12,12,0,0,0,12-12V109.27A12,12,0,0,0,380.28,97.23Zm-5.2,202.18h-276V121.19h276Z"/><path class="cls-4" d="M308.08,339.8V353H164.87V339.8a12,12,0,0,1,12-12H296A12,12,0,0,1,308.08,339.8Z"/><circle class="cls-5" cx="164.87" cy="208.46" r="50.63"/><text class="cls-6" transform="matrix(1, 0, 0, 1, 138.67, 235.69)">$</text></g></g></svg>