<svg xmlns="http://www.w3.org/2000/svg" viewBox="0 0 462.76 447.77"><defs><style>.cls-1{isolation:isolate;}.cls-2{fill:#72b5e4;}.cls-3{fill:#fff;}.cls-4{fill:#b6b8ba;}.cls-5{fill:#6ac17b;}.cls-6{fill:#dedfe0;}.cls-7{mix-blend-mode:multiply;}.cls-8{fill:#bfc1c3;}</style></defs><title>match-your-brandmdpi</title><g class="cls-1"><g id="Layer_2" data-name="Layer 2"><g id="Layer_2-2" data-name="Layer 2"><rect class="cls-2" width="462.76" height="447.77" rx="84.31" ry="84.31"/><path class="cls-3" d="M378.35,152.37V372.95a12.38,12.38,0,0,1-9.87,12.11h0a12.29,12.29,0,0,1-2.47.25H172.19a12.36,12.36,0,0,1-12.36-12.37V121.66c0-7.62,5.19-13.85,11.72-14.22l.64,0H328.83Z"/><path class="cls-4" d="M350.17,146.46H188a6.19,6.19,0,0,1,0-12.37H350.17a6.19,6.19,0,1,1,0,12.37Z"/><path class="cls-4" d="M350.17,182H188a6.19,6.19,0,0,1,0-12.37H350.17a6.19,6.19,0,1,1,0,12.37Z"/><path class="cls-4" d="M334.95,306.14c-4.71-2.55-13.19-2.55-17.58,0L264,335.93c-4.7,2.55-12.87,2.55-17.58,0L222.89,323c-4.71-2.55-12.87-2.55-17.57,0l-30.6,16.53v26.84H363.46V321.61Z"/><circle class="cls-5" cx="255.84" cy="297.7" r="20.6"/><polygon class="cls-6" points="378.35 152.37 328.83 152.37 328.83 107.41 378.35 152.37"/><g class="cls-7"><path class="cls-8" d="M318,107.78V340.44a12.38,12.38,0,0,1-9.87,12.11h0a12.31,12.31,0,0,1-2.47.25H160.4V125.08c0-7.62,12.33-13.85,18.87-14.22.21,0,.42-3.08.63-3.08H318Z"/></g><path class="cls-3" d="M302.94,107.41V328a12.39,12.39,0,0,1-9.87,12.12h0a12.3,12.3,0,0,1-2.47.25H96.77A12.36,12.36,0,0,1,84.41,328V76.7c0-7.62,5.19-13.85,11.73-14.22l.63,0H253.42Z"/><path class="cls-4" d="M274.75,101.51H112.59a6.18,6.18,0,0,1,0-12.37H274.75a6.18,6.18,0,1,1,0,12.37Z"/><path class="cls-4" d="M274.75,137H112.59a6.19,6.19,0,0,1,0-12.37H274.75a6.19,6.19,0,1,1,0,12.37Z"/><path class="cls-4" d="M259.53,261.18c-4.71-2.55-13.19-2.55-17.58,0L188.59,291c-4.7,2.55-12.87,2.55-17.58,0l-23.54-12.91c-4.7-2.55-12.87-2.55-17.58,0L99.3,294.59v26.84H288V276.65Z"/><circle class="cls-5" cx="180.43" cy="250.7" r="20.6"/><polygon class="cls-6" points="302.94 107.41 253.42 107.41 253.42 62.46 302.94 107.41"/></g></g></g></svg>