<?xml version="1.0" encoding="utf-8"?>
<!-- Generator: Adobe Illustrator 26.2.1, SVG Export Plug-In . SVG Version: 6.00 Build 0)  -->
<svg version="1.1" id="Layer_1" xmlns="http://www.w3.org/2000/svg" xmlns:xlink="http://www.w3.org/1999/xlink" x="0px" y="0px"
	 viewBox="0 0 22 22" style="enable-background:new 0 0 22 22;" xml:space="preserve">
<style type="text/css">
	.st0{clip-path:url(#SVGID_00000165915698224358949210000011946217326903169689_);fill:#E13C26;}
</style>
<g>
	<defs>
		<rect id="SVGID_1_" x="1" y="4" width="20" height="14"/>
	</defs>
	<clipPath id="SVGID_00000003799712469520254060000007120923697376932995_">
		<use xlink:href="#SVGID_1_"  style="overflow:visible;"/>
	</clipPath>
	<path style="clip-path:url(#SVGID_00000003799712469520254060000007120923697376932995_);fill:#E13C26;" d="M6.2,11.8
		c-0.4-0.3-0.8-0.6-1.4-0.6H2.9c-1.1,0-1.9,0.9-1.9,1.9v1c0,0.5,0.4,1,1,1h2C4.1,13.6,5,12.4,6.2,11.8z M13,12.2h-0.2
		c-0.6,0.3-1.3,0.5-2.1,0.5c-0.8,0-1.5-0.2-2.1-0.5H8.4c-1.9,0-3.5,1.6-3.5,3.5v0.8c0,0.8,0.6,1.5,1.5,1.5H15c0.8,0,1.5-0.6,1.5-1.5
		v-0.8C16.5,13.7,14.9,12.2,13,12.2z M10.7,11.2c1.8,0,3.4-1.5,3.4-3.4c0-1.8-1.5-3.4-3.4-3.4C8.8,4.4,7.3,6,7.3,7.8
		C7.3,9.7,8.8,11.2,10.7,11.2z M18.4,11.2h-1.9c-0.5,0-1,0.2-1.4,0.6c1.2,0.7,2.1,1.9,2.3,3.3h2c0.5,0,1-0.4,1-1v-1
		C20.4,12.1,19.5,11.2,18.4,11.2z M17.5,10.2c1.1,0,1.9-0.8,1.9-1.9c0-1.1-0.9-1.9-1.9-1.9c-1.1,0-1.9,0.9-1.9,1.9
		C15.5,9.4,16.4,10.2,17.5,10.2z M3.9,10.2c1.1,0,1.9-0.8,1.9-1.9c0-1.1-0.9-1.9-1.9-1.9C2.8,6.3,2,7.2,2,8.3
		C2,9.4,2.8,10.2,3.9,10.2z"/>
</g>
</svg>
