<?xml version="1.0" encoding="utf-8"?>
<!-- Generator: Adobe Illustrator 24.3.0, SVG Export Plug-In . SVG Version: 6.00 Build 0)  -->
<svg version="1.1" id="Layer_1" xmlns="http://www.w3.org/2000/svg" xmlns:xlink="http://www.w3.org/1999/xlink" x="0px" y="0px"
	 viewBox="0 0 285.1 110" style="enable-background:new 0 0 285.1 110;" xml:space="preserve">
<style type="text/css">
	.st0{fill:#003C78;}
	.st1{fill:#B30E39;}
</style>
<g>
	<path class="st0" d="M76.6,65c-1.5,0.7-2.7,1.7-4.1,2.5c-0.3,0.2-0.5,0.4-0.3,0.9c0.9,3.2-2.8,5.6-5.2,4.6
		c-0.5-0.2-0.6-0.2-0.8,0.3C65,75.7,63.6,76.5,61,76c-0.5-0.1-0.6,0-0.7,0.4c-0.7,1.8-2,2.9-4,2.8c-0.4,0-0.6,0.1-0.8,0.5
		c-0.8,1.8-2.6,2.4-4.5,1.8c-1.2-0.4-2.2-1.1-3.2-1.8c-0.4-0.3-0.7-0.3-1.2-0.1c-2.3,1.4-3.6,1.2-5.4-1c-0.2-0.3-0.4-0.2-0.6-0.2
		c-1.9,0.1-3.3-0.8-4-2.5c-0.2-0.5-0.5-0.4-0.8-0.5c-2-0.1-3.4-1-4-3c-0.1-0.5-0.4-0.4-0.7-0.4c-2.3-0.1-3.8-1.8-3.3-4.1
		c0.1-0.5,0-0.8-0.4-1.1c-1.2-0.9-2.5-1.6-3.8-2.2c-0.5-0.2-0.8-0.2-1.1,0.4c-0.5,1-1.1,2-1.8,3c-0.9,1.4-1.5,1.6-3,0.8
		c-1.6-0.8-1.6-0.8-2.6,0.6c-1.3,1.8-2.6,3.6-4.2,5.3c-1.1,1.2-1.6,1.3-2.9,0.3c-2.6-1.8-5.1-3.6-7.6-5.4C-0.1,69.1,0,68.6,0,68.1
		c0-12.6,0-25.3,0-37.9c0-9.7,0-19.3,0-29C0,0.2,0.2,0,1.2,0c10.3,0,20.6,0,30.8,0c0.4,0,0.7,0,1.2,0c-0.5,1.4-1,2.6-1.5,3.9
		c-0.2,0.5-0.7,0.4-1,0.4c-2.5,0-5,0-7.6,0c0,0.5,0.4,0.6,0.6,0.8c1.8,1.4,3.6,2.8,5.4,4.1c0.6,0.4,0.7,0.8,0.5,1.5
		c-0.9,2.5-1.7,5.1-2.6,8c2.6-1.7,4.9-3.1,7.1-4.6c0.7-0.5,1.2-0.5,1.9,0c2.3,1.5,4.6,3,7.1,4.7c-0.8-2.7-1.4-5.2-2.2-7.6
		c-0.3-1-0.1-1.6,0.7-2.2c1.9-1.4,3.7-2.9,5.8-4.7c-1.1,0-1.9,0-2.6,0c-1.8,0-3.7,0-5.5,0c-0.6,0-1-0.2-1.1-0.8
		c-0.3-0.9-0.6-1.8-1-2.7c-0.4-0.8,0-0.9,0.6-0.8c0.1,0,0.2,0,0.4,0c33.5,0,66.9,0,100.4,0c0.5,0,1,0,1.6,0c-0.3,0.2-0.7,0.2-1,0.2
		c-4.5,0.6-6.8,3.3-6.8,7.8c0,1.3,0,2.6,0,4c0,2.6-0.6,3.2-3.2,3.2c-7,0-14.1,0-21.1,0c-1.5,0-3,0.2-4.5,0.5c-4,0.9-6.4,3.4-7,7.5
		c-0.4,2.7,0,5.5-0.1,8.3c0,0.6-0.2,1-0.8,1.3c-7.7,3.5-15.3,7.1-23,10.5c-1.1,0.5-1.4,1.2-1.2,2.4c1.3-0.2,2.5-1.8,3.8-0.1
		c-0.7,0.3-1.4,0.6-2.3,1c1,1.1,1.8,2.2,2.6,3.3c3.3,5,4.9,10.7,6.1,16.5c0.5,2.3,0.4,2.3,2.6,1.2c0.2,1.5-0.3,2.1-2,2.4
		c-0.8,0.2-1.3-0.1-1.5-0.9c-0.2-0.9-0.3-1.7-0.5-2.6C79.7,63,79.4,62.9,76.6,65z M19.7,41.6C19.7,41.6,19.8,41.6,19.7,41.6
		c0.2,0,0.2-0.1,0.1-0.1C19.8,41.5,19.7,41.6,19.7,41.6c0.4-0.7-0.1-1.3-0.3-1.9c-0.3-1.4-1.4-3-0.9-4.2c0.5-1.2,2.1-1.9,3.3-2.9
		c1-0.8,2-1.7,3.3-2.7c-2.8,0-5.3,0-7.8,0c-0.9,0-1.3-0.3-1.6-1.1c-0.9-2.6-1.9-5.1-3-7.8c-1.1,2.7-2.1,5.2-3,7.8
		c-0.3,0.9-0.8,1.2-1.7,1.2c-2.2-0.1-4.3,0-6.5,0c-0.3,0-0.6-0.2-0.9,0.2c2.3,1.7,4.5,3.5,6.8,5.1c0.9,0.7,2,1.1,3.1,1.6
		C13.5,38.5,16.6,40.1,19.7,41.6z M4.9,23.3c2.4-1.3,4.5-2.8,6.7-4.3c0.8-0.5,1.3-0.6,2.1,0c2.2,1.6,4.6,3,7.1,4.6
		c-0.8-2.8-1.5-5.5-2.3-8.1c-0.2-0.6-0.1-0.9,0.4-1.3c1.6-1.3,3.2-2.6,4.9-3.9c0.4-0.3,0.8-0.7,1.4-1.2c-2.9,0-5.4,0-8,0
		c-0.8,0-1.1-0.3-1.4-1c-1-2.6-2-5.2-3-8c-1.1,2.8-2.1,5.4-3.1,8C9.3,8.9,9,9.1,8.3,9.1c-1.5-0.1-3,0-4.6,0c-1,0-2.1-0.1-3.3,0.1
		c2.2,1.7,4.3,3.3,6.4,4.9c0.6,0.4,0.6,0.8,0.4,1.4c-0.7,2-1.3,3.9-1.9,5.9C5.1,22,4.7,22.6,4.9,23.3c0,0-0.1,0-0.1,0
		c0,0,0,0.1,0,0.1C4.8,23.4,4.8,23.3,4.9,23.3z M28.5,66c0.2-0.2,0.3-0.4,0.5-0.6c1.3-1.9,2.7-1.6,4.3-0.7c0.8,0.5,1.6,1.1,2,2
		c0.1,0.3,0.3,0.5,0.7,0.5c1.8,0,3,0.9,3.8,2.4c0.2,0.4,0.4,0.5,0.9,0.6c1.5,0.1,2.8,0.8,3.6,2.1c0.4,0.7,0.8,1.1,1.6,1.3
		c1.7,0.4,3.1,2.4,2.6,3.8c-0.4,0.9,0,1.3,0.6,1.6c0.6,0.3,1.1,0.7,1.7,1c0.6,0.3,1.3,0.5,2.1,0.3c0.7-0.2,1.2-0.6,1.4-1.2
		c0.2-0.7-0.3-1-0.8-1.3c-1.2-0.9-2.4-1.8-3.5-2.7c-0.4-0.3-1-0.5-0.4-1.2c0.5-0.7,0.9-0.2,1.3,0.1c1.6,1.2,3.1,2.4,4.7,3.5
		c1,0.8,2.3,0.4,3.1-0.7c0.8-1.1,0.7-1.7-0.4-2.6c-1.4-1.2-2.8-2.4-4.2-3.6c-0.4-0.3-0.9-0.5-0.3-1.2c0.6-0.7,0.9-0.1,1.2,0.2
		c1.9,1.6,3.7,3.1,5.6,4.7c1.3,1.1,2.8,0.9,3.8-0.3c1.1-1.4,1-2.2-0.4-3.3c-1.9-1.6-3.7-3.3-5.5-5C58,65.2,57.4,65,58,64.3
		c0.6-0.7,0.8-0.1,1.2,0.2c2.5,2.3,5,4.5,7.6,6.8c1.1,0.9,2.5,0.7,3.5-0.4c0.9-1,0.9-1.8-0.1-3.1c-0.2-0.2-0.4-0.5-0.6-0.7
		c-4.5-4.7-9.5-8.9-14.3-13.3c-2.4-2.2-4.9-1-7.4-1c-0.2,0-0.3,0.3-0.5,0.5c-1.8,1.9-4.2,2.6-6.7,2.6c-1.7,0-3.1-0.6-3.9-2.3
		c-0.6-1.3-0.6-1.8,0.7-2.5c2.1-1,3.6-2.6,4.9-4.5c0.9-1.2,2.1-1.7,3.6-1.8c1.9,0,3.8-0.4,5.6-1c0.9-0.3,1.8-0.5,2.8-0.7
		c2.1-0.4,4,0.3,6.2,0.5c-1.4-1.5-2.7-2.6-4.8-2.3c-1.6,0.3-3.3,0.6-5,0.3c-2.5-0.4-4.7,0.5-6.9,1.5c-4.2,2.1-8.4,4-13.3,3.8
		c-1.8-0.1-1.8,0-2.1,1.7c-0.9,4.7-2.5,9.1-4.6,13.4c-0.2,0.4-0.7,0.9,0.2,1.2C25.7,64,27.2,64.9,28.5,66z M65.1,60.7
		c2.1,2,4,3.7,5.7,5.7c0.4,0.4,0.6,0.2,0.9,0c2.2-1.5,4.5-3.1,7-4.1c0.4-0.2,0.5-0.3,0.4-0.7c-1.3-5-3.3-9.6-6.6-13.5
		c-0.5-0.7-1.2-1-2.1-0.9c-0.8,0.1-1.6-0.1-2.4-0.3c-2.2-0.8-4.5-1.2-6.9-1.6c-2.8-0.4-5.6-1.3-8.5-0.3c-2,0.8-4.2,1.2-6.3,1.2
		c-1.7,0-2.7,0.8-3.6,2.1c-1,1.5-2.2,2.7-3.9,3.5c-1.2,0.6-1.2,1.4-0.1,2.2c0.4,0.3,0.9,0.5,1.5,0.5c1.9,0.1,3.8-0.1,5.1-1.3
		c1.4-1.3,2.9-1.7,4.7-1.9c2.3-0.3,4.2,0.1,6,1.5c2.1,1.7,3.9,3.5,6,5.2c2.1,1.8,4.6,2.1,6.9,0.6c0.6-0.4,0.9,0,1.2,0.3
		c0.5,0.5-0.2,0.7-0.4,0.9C68.5,60.6,67,60.8,65.1,60.7z M23,25c0.1,0.5,0.5,0.7,0.8,0.9c1.6,1.2,3.2,2.6,4.9,3.7
		c1,0.7,1.2,1.4,0.8,2.5c-0.9,2.3-1.6,4.7-2.5,7.4c2.6-1.7,4.9-3.1,7.1-4.7c0.7-0.5,1.2-0.4,1.9,0c2.3,1.5,4.6,3,7.1,4.7
		c-0.8-2.8-1.5-5.3-2.3-7.8c-0.2-0.8-0.1-1.3,0.6-1.8c2-1.5,3.9-3.1,6.1-4.9c-2.8,0-5.4,0-7.9,0c-0.8,0-1.2-0.2-1.5-1
		c-0.9-2.5-1.9-5-3-7.7c-0.3,0.6-0.4,0.9-0.6,1.3c-0.9,2.2-1.8,4.4-2.6,6.6c-0.3,0.7-0.6,1-1.4,1C28.2,25,25.6,25,23,25z M69.6,20.6
		c0-0.1-0.1-0.2-0.1-0.3c-2.5,0-5,0-7.5,0c-0.9,0-1.2-0.3-1.5-1.1c-0.9-2.5-1.9-5-3-7.8c-1,2.5-1.8,4.6-2.7,6.8
		c-0.8,2.1-0.8,2.1-3,2.1c-1.5,0-3,0-4.4,0c-0.7,0-1.4,0-2.4,0c2.2,1.7,4,3.2,5.9,4.5c1.1,0.8,1.4,1.4,0.9,2.7
		c-0.9,2.3-1.6,4.6-2.4,7.3c2.6-1.7,4.9-3.1,7.2-4.7c0.7-0.4,1.1-0.5,1.8,0c1.5,1.1,3,2,4.6,3c0.8,0.5,1.5,1.1,2.6,1.5
		c-0.8-2.7-1.4-5.2-2.2-7.6c-0.2-0.8-0.2-1.3,0.5-1.8C65.8,23.7,67.7,22.1,69.6,20.6z M25.1,45.1c-0.1,0.3-0.2,0.7-0.3,1
		C23.7,52.9,21,59,17.5,64.8c-1,1.7-1.1,1.7,0.7,2.7c0.7,0.4,1.1,0.3,1.4-0.3c0.6-1.1,1.3-2.1,1.8-3.2c2.6-4.9,4.8-10.1,5.7-15.6
		C27.6,45.9,27.5,45.9,25.1,45.1z M40.8,71.5c-0.4-0.1-0.7,0.1-1,0.4c-0.6,0.8-1.3,1.5-1.8,2.4c-0.4,0.8-0.3,1.5,0.5,2
		c0.8,0.5,1.6,1.1,2.5,0.4c0.9-0.7,1.5-1.7,2.2-2.7c0.2-0.3,0.2-0.6,0-0.9C42.6,72.2,41.8,71.7,40.8,71.5z M35.4,74
		c1,0,3.4-2.7,3.2-3.6c0-0.1-0.1-0.2-0.1-0.3c-0.8-1.7-2.7-2-3.9-0.6c-0.3,0.4-0.6,0.7-0.9,1.1c-0.4,0.6-0.8,1.3-0.4,2
		C33.7,73.4,34.5,73.9,35.4,74z M29,68.7c0,0.9,1,1.9,1.9,1.9c0.8,0,3.1-2.4,3.1-3.2c0-0.7-1.9-2.2-2.8-2.1
		C30.4,65.4,29,67.5,29,68.7z M44.1,79c0.9,0,1.5-0.4,2.1-0.9c0.5-0.4,1.1-0.9,0.8-1.7c-0.3-0.8-0.9-1.4-1.8-1.6
		c-0.8-0.2-1.2,0.4-1.6,1c-0.3,0.4-0.6,0.8-0.8,1.2C42.1,78.2,42.6,78.9,44.1,79z"/>
	<path class="st1" d="M75.2,45.5c-1.2-1.7-2.5-0.2-3.8,0.1c-0.2-1.1,0.1-1.8,1.2-2.4c7.7-3.5,15.3-7,23-10.5
		c0.6-0.3,0.8-0.7,0.8-1.3c0.1-2.8-0.3-5.5,0.1-8.3c0.6-4.1,3-6.6,7-7.5c1.5-0.3,3-0.5,4.5-0.5c7,0,14.1,0,21.1,0
		c2.6,0,3.2-0.6,3.2-3.2c0-1.3,0-2.6,0-4c0-4.5,2.3-7.1,6.8-7.8c0.4,0,0.7,0,1-0.2c0.4,0,0.9,0,1.3,0c21.2,0,42.5,0,63.7,0
		c0.3,0,0.6,0,0.9,0c0.2,0.5-0.2,0.7-0.4,1c-2.2,3.5-4.5,7-6.7,10.5c-0.5,0.8-1,1-1.9,1c-18.1,0-36.2,0-54.3,0c-2,0-4,0.1-5.9,0.7
		c-3.1,1-4.8,3.4-4.5,6.6c0.4,0.1,0.5-0.2,0.6-0.4c0.9-2.1,2.6-3.2,4.8-3.8c1.7-0.5,3.5-0.5,5.2-0.5c14.6,0,29.1,0,43.7,0
		c0.3,0,0.7,0,1.2,0.1c-0.5,0.8-0.9,1.5-1.4,2.2c-2,3.1-4,6.2-6,9.4c-0.4,0.7-0.9,0.9-1.7,0.9c-12.2,0-24.3,0-36.5,0
		c-1.2,0-2.3,0.1-3.5,0.2c-4.7,0.7-6.6,3.1-6.4,8.1c0.3-0.7,0.5-1.3,0.8-1.8c1.4-2.5,3.8-3.3,6.4-3.6c1.4-0.2,2.9-0.2,4.3-0.2
		c8.1,0,16.2,0,24.4,0c0.4,0,0.8,0,1.1,0c0.1,0.5-0.2,0.8-0.4,1c-2.2,3.5-4.5,7.1-6.7,10.6c-0.4,0.7-0.9,0.9-1.7,0.9
		c-6.6,0-13.1,0-19.7,0.1c-1.9,0-3.7,0.3-5.3,1.2c-1.9,1-3,2.6-3.2,4.8c-0.1,1.9,0,3.8,0,5.6c0,2.4-0.7,3.1-3.1,3.4
		C128.1,58,127,58,126,58c-6.6,0-13.1,0-19.7,0.1c-1.2,0-2.5,0.2-3.7,0.6c-3.6,1-5.5,3.3-5.5,7.6c0,2.1-0.8,3.2-2.7,4
		c-3.6,1.6-7,3.4-10.5,5.1c-0.7,0.4-1.1,0.1-1.6-0.3c-0.8-0.9-1.5-1.9-2.1-2.9c-1.4-2.3-2.6-4.7-3.6-7.1c2.8-2.1,3.1-2,3.6,1.4
		c0.1,0.9,0.3,1.7,0.5,2.6c0.2,0.8,0.7,1.1,1.5,0.9c1.7-0.4,2.2-0.9,2-2.4c-0.3-4.4-1.4-8.6-3-12.7C79.8,51.2,78.1,47.9,75.2,45.5z
		 M132.2,26c-0.7,1.3-1.9,1.6-3.2,1.6c-7,0-13.9,0-20.9,0.1c-2.5,0-5,0.3-7.3,1.4c-2.8,1.4-4.2,4.1-3.8,7c1.1-3.2,3.5-4.7,6.6-5.4
		c1.7-0.3,3.3-0.5,5-0.5c6.6,0,13.1,0,19.7,0c3.8,0,4.1-0.3,4-4.1C132.2,26.1,132.2,26.1,132.2,26z M97.2,51.1c0.1,0,0.2,0,0.2,0
		c0.1-0.2,0.2-0.3,0.3-0.5c1-2.5,2.9-3.9,5.5-4.6c1.5-0.4,3-0.6,4.5-0.6c5.6,0,11.1,0,16.7,0c1.8,0,3.7,0,5.5,0c1,0,1.9-0.4,2.2-1.5
		c0.2-0.7,0.3-1.5,0-2.4c-1,1.5-2.4,1.4-3.8,1.4c-6.4-0.2-12.8,0.1-19.2,0c-1.3,0-2.6,0-3.8,0.1C101,43.3,97.4,45.6,97.2,51.1z"/>
	<path class="st0" d="M217.8,95.9c0.6,0.2,1.1,0.4,1.5,0.5c2.7,1,4.4,2.8,4.6,5.7c0.2,2.9-1,5.1-3.5,6.6c-1.6,0.9-3.3,1.3-5.2,1.4
		c-3.5,0.1-7,0-10.9,0c2-1.5,1.4-3.5,1.5-5.4c0-5.4,0-10.9,0-16.3c0-1.2-0.1-2.4-1.3-3.1c0.3-0.4,0.6-0.3,0.9-0.2
		c3.4,0.1,6.9-0.2,10.3,0.1c0.6,0.1,1.2,0.2,1.8,0.3c4.2,1.2,5.5,5.5,2.5,8.8C219.5,94.9,218.8,95.5,217.8,95.9z M209.3,102.7
		c0,1.4,0,2.7,0,4.1c0,0.6,0.2,0.9,0.8,0.9c2.2,0.1,4.5,0.3,6.6-0.4c2.3-0.7,3.5-2.3,3.4-4.8c-0.1-2.3-1.3-3.8-3.7-4.4
		c-2.2-0.5-4.4-0.3-6.7-0.2c-0.6,0-0.5,0.4-0.5,0.7C209.3,100,209.3,101.3,209.3,102.7z M211.7,95.5c1.5,0,2.9-0.2,3.7-0.6
		c1.6-0.7,2.4-2.1,2.3-4c-0.2-1.8-1.1-3-2.8-3.4c-1.6-0.4-3.2-0.3-4.7-0.1c-0.8,0.1-0.9,0.4-0.9,1.1c0,1.5,0,3,0,4.5
		C209.3,95.5,209.3,95.5,211.7,95.5z"/>
	<path class="st0" d="M71.8,110c-1.8,0-3.5,0-5.3,0c1.7-1.4,1.4-3.2,1.4-4.9c0-5.6,0-11.1,0-16.7c0-1.3-0.3-2.4-1.5-3.4
		c1.8,0,3.4,0,4.9,0c0.5,0,0.8,0.5,1.1,0.9c4.6,5.4,9.1,10.7,13.7,16.1c0.1,0.1,0.2,0.2,0.3,0.4c0.3-0.4,0.2-0.7,0.2-1.1
		c0-4.3,0-8.6,0-12.8c0-1.3-0.1-2.5-1.5-3.4c2,0,3.6,0,5.4,0c-1.3,1-1.4,2.3-1.4,3.7c0,7.2,0,14.3-0.3,21.7
		c-6.1-7.1-12.2-14.2-18.4-21.5c0,1.1,0,2,0,2.8c0,4.8,0,9.7,0,14.5C70.4,107.6,70.5,108.9,71.8,110z"/>
	<path class="st0" d="M93.8,95.8c0.3-1.2,0.6-2.4,0.9-3.6c0.1-0.4,0.3-0.5,0.6-0.5c2.8-0.7,5.7-1,8.5-0.5c3.1,0.6,4.7,2.6,4.8,5.8
		c0,2.9,0,5.8,0,8.6c0,2.1,0.3,2.4,2.2,2.7c-1.4,2.4-3.8,2.6-5.1,0.3c-0.4-0.7-0.6-0.6-1.1-0.1c-2,2.2-7.8,2.2-10,0.6
		c-3.4-2.4-3.3-6.9,0.3-9c2-1.1,4.2-1.2,6.3-1.7c0.7-0.1,1.3-0.3,2-0.5c1-0.4,1.8-1,1.8-2.3c0-1.3-0.8-2-1.9-2.3
		c-3-0.7-5.8-0.4-8.2,1.7c-0.3,0.2-0.5,0.5-0.8,0.7C93.9,95.9,93.8,95.9,93.8,95.8z M105,102.2c0-0.6,0-1.2,0-1.8
		c0-0.4-0.1-0.6-0.6-0.5c-2,0.6-4.1,1-6.1,1.7c-1.9,0.6-2.7,2.1-2.3,4c0.3,1.7,1.9,2.8,3.7,2.7C103,108.1,105,105.8,105,102.2z"/>
	<path class="st0" d="M170.8,95.8c0.3-1.2,0.6-2.3,0.8-3.5c0.1-0.4,0.3-0.5,0.6-0.6c2.8-0.6,5.6-1,8.4-0.4c3.2,0.6,4.8,2.5,4.8,5.8
		c0.1,3,0,6.1,0,9.1c0,1.7,0.5,2.2,2.5,2.2c-0.9,0.7-1,2-2.3,2c-1.7,0.1-2.8-0.7-3.5-2.3c-0.5,0.4-1,0.8-1.5,1.2
		c-1.9,1.5-7.4,1.5-9.5-0.3c-3-2.5-2.8-6.8,0.6-8.7c2-1.1,4.2-1.3,6.3-1.6c0.7-0.1,1.5-0.3,2.2-0.6c1-0.4,1.7-1.1,1.6-2.3
		c-0.1-1.2-0.8-1.9-1.8-2.1c-3.1-0.8-5.9-0.4-8.4,1.7c-0.1,0.1-0.2,0.2-0.3,0.3c-0.1,0.1-0.2,0.2-0.3,0.3
		C171,95.9,170.9,95.8,170.8,95.8z M182.2,101.9c0-0.5,0-1,0-1.4c0-0.5,0-0.7-0.7-0.6c-2,0.6-4,1-6,1.6c-2,0.6-2.8,2.1-2.4,4.1
		c0.3,1.7,1.9,2.8,3.8,2.7C180.2,108,182.2,105.6,182.2,101.9z"/>
	<path class="st0" d="M244.2,108.4c-0.8,0.8-1,2.1-2.6,2c-1.5-0.1-2.5-1-3.1-2.4c-2.1,2.6-4.9,2.5-7.8,2.4c-2.3-0.1-4.8-2.4-5.2-4.5
		c-0.5-2.5,0.8-4.7,3.3-5.9c1.8-0.9,3.8-1,5.7-1.3c0.7-0.1,1.4-0.3,2.1-0.5c1-0.4,1.8-1.1,1.7-2.3c-0.1-1.2-0.8-1.9-1.9-2.2
		c-2.8-0.7-5.5-0.4-8,1.4c-0.4,0.3-0.8,0.6-1.4,1.1c0.3-1.4,0.6-2.6,0.9-3.8c0.1-0.4,0.4-0.5,0.7-0.6c2.9-0.6,5.9-1,8.9-0.3
		c2.6,0.6,4.1,2.4,4.2,5.1c0.1,3.1,0.1,6.2,0.1,9.3C241.8,107.8,242.2,108.2,244.2,108.4z M238.3,99.7c-2.4,0.6-4.7,1.2-7,1.9
		c-1.6,0.5-2.3,1.8-2.1,3.5c0.1,1.5,1.2,2.7,2.6,3.1c2.7,0.6,6.1-1.7,6.4-4.4C238.5,102.5,238.3,101.2,238.3,99.7z"/>
	<path class="st0" d="M264.2,110c-2,0-4,0-6.2,0c1.5-1.1,1.5-2.6,1.4-4c0-2.5,0-5,0-7.4c0-3-2-5.1-4.9-5c-2.8,0-5,2.3-5,5
		c0,2.8,0,5.5,0,8.3c0,1.2,0.3,2.2,1.4,3.1c-2.2,0-4.1,0-6.2,0c1.8-1.6,1.3-3.7,1.3-5.6c0.1-3.2,0-6.3,0-9.5c0-1.2-0.2-2.4-1.6-3.4
		c1.7,0,3.2,0,4.6,0c0.3,0,0.5,0.2,0.5,0.5c0,0.4,0,0.8,0,1.2c0.5,0.1,0.6-0.3,0.9-0.5c2.4-1.7,5-2.1,7.8-1.4c3,0.7,4.7,3.2,4.7,6.9
		c0,2.7,0,5.4,0,8C263,108.4,263,108.5,264.2,110z"/>
	<path class="st0" d="M168,110c-2.3,0-4.3,0-6.5,0c1.5-1.1,1.5-2.5,1.5-4c0-2.6,0-5.1,0-7.7c0-2.8-2-4.7-4.7-4.8
		c-2.6,0-5.1,2-5.1,4.5c-0.1,3.1,0,6.2,0,9.2c0,1.1,0.5,1.9,1.4,2.7c-2.2,0-4.1,0-6.4,0c1.6-1.2,1.5-2.6,1.5-4.1c0-3.6,0-7.1,0-10.7
		c0-1.4-0.1-2.6-1.5-3.7c1.7,0,3.1,0,4.5,0c0.4,0,0.5,0.2,0.5,0.6c0,0.4-0.1,0.8,0.1,1.2c1.7-1.5,3.7-2.1,5.9-2.3
		c3.9-0.3,6.9,2.1,7.2,6c0.3,3.3,0.1,6.6,0.1,9.8C166.5,108,166.7,109.1,168,110z"/>
	<path class="st0" d="M137.7,110.4c-4.8,0.6-9.8-4.2-9.7-9.6c0.1-5.3,4.4-9.7,9.7-9.7c5.3,0,9.7,4.4,9.8,9.8
		C147.5,106.4,142.4,111,137.7,110.4z M132,101.1c0,1.3,0.2,2.9,1,4.3c0.9,1.9,2.5,3,4.6,3c2.1,0,3.7-0.9,4.7-2.8
		c1.6-3.2,1.7-6.6-0.2-9.7c-1.9-3.3-6.2-3.4-8.5-0.3C132.4,97.1,132,98.9,132,101.1z"/>
	<path class="st0" d="M11.7,94.1c0,1.8,0,3.3,0,5c-2-2.1-4.4-1.2-6.6-1.4c-0.5,0-0.5,0.3-0.5,0.6c0,3,0,6,0,9c0,1,0.4,1.9,1.5,2.7
		c-2.2,0-4.2,0-6.4,0c1.3-1,1.5-2.3,1.4-3.7c0-5.9,0-11.7,0-17.6c0-1.3-0.1-2.6-1.3-3.5C0.3,84.9,0.7,85,1,85c4,0,8,0,12,0
		c0.9,0,1.4,0.2,1.3,1.2c0,0.1,0.1,0.2,0.1,0.3c0.1,0.6,0.4,1.5,0.1,1.8c-0.3,0.4-1-0.4-1.5-0.5c-2.5-0.6-5-0.7-7.6-0.3
		c-0.5,0.1-0.7,0.3-0.7,0.8c0,2.2,0,4.4,0,6.6c0,0.4,0.1,0.7,0.6,0.6c1.4,0,2.8,0,4.2-0.1C10.3,95.5,11,94.9,11.7,94.1z"/>
	<path class="st0" d="M32.3,105.9c1.8,1,3.7,1.9,5.8,2.2c1.5,0.2,3,0.1,4.4-0.7c1.9-1.1,2-3.1,0.1-4.2c-1.4-0.8-2.9-1.3-4.4-1.9
		c-0.9-0.4-1.8-0.7-2.6-1.2c-3.1-1.8-3.2-5.5-0.3-7.5c2.4-1.7,5.1-1.6,7.8-1.2c0.3,0,0.6,0.1,0.8,0.2c1.9,0.4,1.9,0.4,1.9,2.4
		c0,0.9-0.2,1.2-1.1,0.6c-1.6-1-3.4-1.4-5.3-1c-1.1,0.2-2.1,0.6-2.3,1.9c-0.2,1.3,0.7,2,1.7,2.5c1.3,0.6,2.7,1.2,4.1,1.7
		c0.5,0.2,1,0.4,1.5,0.7c1.7,0.8,3,1.9,3.1,4c0.1,2.2-0.9,3.8-2.8,4.9c-2.9,1.7-6.1,1.4-9.2,0.9c-0.2,0-0.3-0.1-0.5-0.1
		C32.7,109.3,32.2,108.6,32.3,105.9z"/>
	<path class="st0" d="M116.3,87c0,1.4,0,2.5,0,3.6c0,0.7,0.2,0.9,0.9,0.9c0.8,0,1.5,0,2.3,0c0.4,0,1.1-0.3,1,0.4
		c-0.1,0.6,0.1,1.7-1.1,1.7c-0.7,0-1.4,0-2,0c-0.8-0.1-1.1,0.1-1.1,1c0.1,3.3,0,6.6,0,10c0,3.3,1,4,4.1,3.2c0,1.9-0.7,2.6-2.4,2.6
		c-3.5,0-5.1-1.6-5.1-5.1c0-3.5-0.1-7,0-10.4c0-1.1-0.3-1.4-1.3-1.3c-0.3,0-0.8,0.2-0.9-0.2c-0.1-0.3,0.3-0.5,0.5-0.7
		C112.8,91,114.4,89.1,116.3,87z"/>
	<path class="st0" d="M194.9,110.1c-2.3,0-4.3,0-6.6,0c1.9-1.3,1.5-3.1,1.5-4.8c0-5.6,0-11.3,0-16.9c0-1.2-0.2-2.4-1.3-3.4
		c1.4,0,2.8,0,4.2,0c0.8,0,0.5,0.7,0.5,1.1c0,6.4,0,12.9,0,19.3c0,0.4,0,0.7,0,1.1C193.3,107.8,193.5,109,194.9,110.1z"/>
	<path class="st0" d="M272.2,110.1c-2.3,0-4.2,0-6.5,0c1.9-1.5,1.5-3.4,1.5-5.2c0-5.5,0-11,0-16.5c0-1.2-0.2-2.3-1.3-3.3
		c1.4,0,2.9,0,4.3,0c0.7,0,0.4,0.7,0.4,1.1c0,4.5,0,9,0,13.4c0,2.4,0,4.7,0,7.1C270.7,107.9,270.8,109,272.2,110.1z"/>
	<path class="st0" d="M58,107.6c-0.4,1-0.6,1.7-0.9,2.4c-0.1,0.2-0.2,0.3-0.4,0.4c-3.2,1.1-6.3-1-6.4-4.3c-0.1-3.7-0.1-7.3,0-11
		c0-1.2-0.3-1.7-1.5-1.5c-0.3,0-0.7,0.2-0.8-0.2c-0.1-0.3,0.2-0.5,0.4-0.7c1.8-1.7,3.5-3.6,5.4-5.7c0,1.5,0,2.6,0,3.7
		c0,0.6,0.1,0.9,0.8,0.8c0.8,0,1.5,0,2.3,0c0.4,0,1.1-0.3,1,0.4c-0.1,0.6,0.1,1.7-1.2,1.7c-0.8,0-1.6,0-2.4,0
		c-0.5,0-0.7,0.2-0.7,0.7c0,3.6,0,7.2,0,10.8c0,0.4,0.1,0.8,0.2,1.2c0.4,1.7,1.4,2.3,3,1.8C57.1,107.9,57.4,107.8,58,107.6z"/>
	<path class="st0" d="M28.5,110c-2.3,0-4.2,0-6.4,0c1.4-1.1,1.5-2.4,1.5-3.7c0-3.8,0-7.7,0-11.5c0-1.2-0.3-2.3-1.6-3.3
		c1.8,0,3.2,0,4.6,0c0.4,0,0.3,0.4,0.3,0.6c0,0.5,0,1,0,1.6c0.5,0,0.6-0.4,0.8-0.6c0.9-0.8,1.9-1.4,3-1.7c1.6-0.4,1.7-0.3,1.7,1.3
		c0,0.2,0,0.3,0,0.5c0.1,1.1,0.1,1.8-1.4,1.2c-1.1-0.5-2.6,0.4-3.3,1.7C27.2,97,27,97.9,27,98.9c0,2.7,0,5.4,0,8
		C27,108.1,27.3,109.1,28.5,110z"/>
	<path class="st0" d="M277.4,91.5c2.2,0,4.1,0,6.3,0c-0.8,0.5-1.4,0.8-1.9,1.1c-2.2,1.5-4,3.4-5.9,5.3c-0.4,0.4-0.4,0.6-0.1,1
		c2.1,2.8,4.3,5.6,6.4,8.4c0.8,1,1.8,1.9,2.9,2.7c-2.4,0-4.7,0-7.1,0c0.7-1.1,0.2-2-0.5-2.9c-1.8-2.4-3.6-4.8-5.4-7.1
		c-0.6-0.8-0.7-1.2,0.2-1.9c1.8-1.5,3.6-2.9,5.1-4.7C277.7,92.9,278.4,92.4,277.4,91.5z"/>
	<path class="st0" d="M127.2,110.1c-2.1,0-4.1,0-6.3,0c1.8-1.3,1.6-3,1.6-4.6c0-3.5,0-7,0-10.5c0-1.2-0.3-2.4-1.7-3.4
		c1.7,0,3.2,0,4.6,0c0.7,0,0.5,0.6,0.5,1c0,3.3,0,6.6,0,9.9c0,1.3,0,2.6,0,4C125.9,108.3,126,108.7,127.2,110.1z"/>
	<path class="st0" d="M20.7,110.1c-2.3,0-4.2,0-6.5,0c1.9-1.6,1.4-3.6,1.4-5.5c0-3.2,0-6.3,0-9.5c0-1.3-0.2-2.5-1.5-3.6
		c1.7,0,3.1,0,4.4,0c0.7,0,0.5,0.6,0.5,1c0,4,0,8,0,12c0,0.7,0,1.4,0,2C19.1,107.8,19.3,109,20.7,110.1z"/>
	<path class="st0" d="M126,86.9c0,1.1-0.9,2.1-2.1,2.1c-1.1,0-2.1-0.8-2.2-1.9c-0.1-1.2,0.9-2.3,2.1-2.3C125,84.8,126,85.8,126,86.9
		z"/>
	<path class="st0" d="M19.3,86.9c0,1.2-0.9,2.1-2.1,2.1C15.9,89,15,88,15,86.9c0-1.1,1-2.1,2.1-2.1C18.3,84.8,19.2,85.7,19.3,86.9z"
		/>
	<path class="st0" d="M177.8,33.6c0.4-1,0.6-1.9,0.9-2.7c0.1-0.3,0.2-0.7,0.7-0.7c0.6,0.1,0.4,0.5,0.4,0.8c0,1,0,2,0,3
		c0,0.2,0.1,0.4-0.2,0.5c-0.3,0-0.4-0.2-0.4-0.4c0-0.6,0-1.2-0.3-1.9c-0.2,0.6-0.4,1.2-0.6,1.9c-0.1,0.2-0.1,0.5-0.4,0.5
		c-0.4,0-0.5-0.2-0.5-0.5c-0.2-0.6-0.4-1.2-0.9-1.8c0,0.6,0,1.1,0,1.7c0,0.3,0.1,0.6-0.4,0.6c-0.5,0-0.3-0.4-0.3-0.6c0-1,0-2,0-3
		c0-0.2-0.1-0.6,0.3-0.6c0.3,0,0.6,0,0.7,0.4C177.1,31.6,177.4,32.5,177.8,33.6z"/>
	<path class="st0" d="M173.3,32.7c0-0.3,0-0.6,0-0.8c0.1-0.7-0.1-1.1-0.9-1c-0.2,0-0.5,0-0.5-0.3c0-0.4,0.3-0.3,0.5-0.3
		c0.8,0,1.6,0,2.4,0c0.2,0,0.5,0,0.5,0.3c0,0.2-0.2,0.3-0.4,0.3c-1-0.2-1,0.4-1,1.1c0,0.7,0,1.3,0,2c0,0.2,0.1,0.5-0.3,0.5
		c-0.4,0-0.3-0.3-0.3-0.5C173.3,33.6,173.3,33.1,173.3,32.7z"/>
</g>
</svg>
