<svg width="697" height="56" viewBox="0 0 697 56" fill="none" xmlns="http://www.w3.org/2000/svg">
<g style="mix-blend-mode:multiply" opacity="0.2">
<mask id="mask0" style="mask-type:alpha" maskUnits="userSpaceOnUse" x="0" y="0" width="697" height="56">
<path d="M0.5 8.34626C0.5 3.79506 4.29165 0.160709 8.83878 0.35344L696.5 29.5L8.80435 55.6838C4.26999 55.8565 0.5 52.2273 0.5 47.6896L0.5 8.34626Z" fill="#C4C4C4"/>
</mask>
<g mask="url(#mask0)">
<path d="M1568.25 -892.733L411.479 -317.055" stroke="#0D1832" stroke-width="5"/>
<path d="M1562.19 -879.267L405.413 -303.589" stroke="#0D1832" stroke-width="5"/>
<path d="M1557.13 -868.046L400.359 -292.368" stroke="#0D1832" stroke-width="5"/>
<path d="M1557.13 -868.046L400.359 -292.368" stroke="#0D1832" stroke-width="5"/>
<path d="M1551.07 -854.58L394.291 -278.902" stroke="#0D1832" stroke-width="5"/>
<path d="M1545 -841.114L388.225 -265.436" stroke="#0D1832" stroke-width="5"/>
<path d="M1539.94 -829.892L383.168 -254.214" stroke="#0D1832" stroke-width="5"/>
<path d="M1532.87 -814.184L376.091 -238.506" stroke="#0D1832" stroke-width="5"/>
<path d="M1526.8 -800.718L370.023 -225.04" stroke="#0D1832" stroke-width="5"/>
<path d="M1520.73 -787.251L363.957 -211.574" stroke="#0D1832" stroke-width="5"/>
<path d="M1515.67 -776.031L358.9 -200.353" stroke="#0D1832" stroke-width="5"/>
<path d="M1515.67 -776.031L358.9 -200.353" stroke="#0D1832" stroke-width="5"/>
<path d="M1509.61 -762.565L352.834 -186.887" stroke="#0D1832" stroke-width="5"/>
<path d="M1503.54 -749.099L346.766 -173.421" stroke="#0D1832" stroke-width="5"/>
<path d="M1498.49 -737.878L341.712 -162.2" stroke="#0D1832" stroke-width="5"/>
<path d="M1491.41 -722.168L334.633 -146.491" stroke="#0D1832" stroke-width="5"/>
<path d="M1485.34 -708.702L328.567 -133.024" stroke="#0D1832" stroke-width="5"/>
<path d="M1479.27 -695.236L322.499 -119.558" stroke="#0D1832" stroke-width="5"/>
<path d="M1474.22 -684.016L317.444 -108.338" stroke="#0D1832" stroke-width="5"/>
<path d="M1474.22 -684.016L317.444 -108.338" stroke="#0D1832" stroke-width="5"/>
<path d="M1468.15 -670.55L311.378 -94.8716" stroke="#0D1832" stroke-width="5"/>
<path d="M1462.08 -657.083L305.31 -81.4056" stroke="#0D1832" stroke-width="5"/>
<path d="M1457.03 -645.863L300.256 -70.1851" stroke="#0D1832" stroke-width="5"/>
<path d="M1449.95 -630.153L293.176 -54.4752" stroke="#0D1832" stroke-width="5"/>
<path d="M1443.89 -616.687L287.111 -41.0091" stroke="#0D1832" stroke-width="5"/>
<path d="M1437.82 -603.221L281.043 -27.543" stroke="#0D1832" stroke-width="5"/>
<path d="M1432.76 -592L275.988 -16.3226" stroke="#0D1832" stroke-width="5"/>
<path d="M1428.21 -581.9L271.438 -6.22198" stroke="#0D1832" stroke-width="5"/>
<path d="M1422.14 -568.436L265.37 7.24238" stroke="#0D1832" stroke-width="5"/>
<path d="M1416.08 -554.969L259.304 20.7084" stroke="#0D1832" stroke-width="5"/>
<path d="M1411.02 -543.749L254.249 31.9289" stroke="#0D1832" stroke-width="5"/>
<path d="M1403.94 -528.039L247.17 47.6389" stroke="#0D1832" stroke-width="5"/>
<path d="M1397.88 -514.573L241.104 61.1049" stroke="#0D1832" stroke-width="5"/>
<path d="M1391.81 -501.107L235.036 74.571" stroke="#0D1832" stroke-width="5"/>
<path d="M1386.76 -489.886L229.982 85.7914" stroke="#0D1832" stroke-width="5"/>
<path d="M1386.76 -489.886L229.982 85.7914" stroke="#0D1832" stroke-width="5"/>
<path d="M1380.69 -476.42L223.916 99.2578" stroke="#0D1832" stroke-width="5"/>
<path d="M1374.62 -462.954L217.848 112.724" stroke="#0D1832" stroke-width="5"/>
<path d="M1369.57 -451.734L212.791 123.944" stroke="#0D1832" stroke-width="5"/>
<path d="M1362.49 -436.024L205.714 139.654" stroke="#0D1832" stroke-width="5"/>
<path d="M1356.42 -422.558L199.648 153.12" stroke="#0D1832" stroke-width="5"/>
<path d="M1350.35 -409.092L193.58 166.586" stroke="#0D1832" stroke-width="5"/>
<path d="M1345.3 -397.871L188.525 177.807" stroke="#0D1832" stroke-width="5"/>
<path d="M1345.3 -397.871L188.525 177.807" stroke="#0D1832" stroke-width="5"/>
<path d="M1339.23 -384.405L182.457 191.273" stroke="#0D1832" stroke-width="5"/>
<path d="M1333.17 -370.939L176.391 204.739" stroke="#0D1832" stroke-width="5"/>
<path d="M1328.11 -359.718L171.337 215.96" stroke="#0D1832" stroke-width="5"/>
<path d="M1321.03 -344.009L164.258 231.669" stroke="#0D1832" stroke-width="5"/>
<path d="M1314.96 -330.542L158.19 245.136" stroke="#0D1832" stroke-width="5"/>
<path d="M1308.9 -317.078L152.124 258.6" stroke="#0D1832" stroke-width="5"/>
<path d="M1303.84 -305.856L147.069 269.822" stroke="#0D1832" stroke-width="5"/>
<path d="M1303.84 -305.856L147.069 269.822" stroke="#0D1832" stroke-width="5"/>
<path d="M1297.78 -292.39L141.001 283.288" stroke="#0D1832" stroke-width="5"/>
<path d="M1291.71 -278.923L134.935 296.755" stroke="#0D1832" stroke-width="5"/>
<path d="M1286.65 -267.703L129.879 307.975" stroke="#0D1832" stroke-width="5"/>
<path d="M1279.58 -251.993L122.801 323.685" stroke="#0D1832" stroke-width="5"/>
<path d="M1273.51 -238.527L116.734 337.151" stroke="#0D1832" stroke-width="5"/>
<path d="M1267.44 -225.063L110.668 350.615" stroke="#0D1832" stroke-width="5"/>
<path d="M1262.39 -213.84L105.611 361.838" stroke="#0D1832" stroke-width="5"/>
<path d="M1256.07 -199.814L99.2927 375.864" stroke="#0D1832" stroke-width="5"/>
<path d="M1250 -186.348L93.2248 389.33" stroke="#0D1832" stroke-width="5"/>
<path d="M1243.93 -172.882L87.1589 402.796" stroke="#0D1832" stroke-width="5"/>
<path d="M1238.88 -161.661L82.1023 414.016" stroke="#0D1832" stroke-width="5"/>
<path d="M1231.8 -145.952L75.0256 429.726" stroke="#0D1832" stroke-width="5"/>
<path d="M1225.73 -132.486L68.9577 443.192" stroke="#0D1832" stroke-width="5"/>
<path d="M1219.67 -119.021L62.8918 456.657" stroke="#0D1832" stroke-width="5"/>
<path d="M1214.61 -107.799L57.8347 467.879" stroke="#0D1832" stroke-width="5"/>
<path d="M1214.61 -107.799L57.8347 467.879" stroke="#0D1832" stroke-width="5"/>
<path d="M1208.54 -94.3328L51.7688 481.345" stroke="#0D1832" stroke-width="5"/>
<path d="M1202.48 -80.8667L45.7009 494.811" stroke="#0D1832" stroke-width="5"/>
<path d="M1197.42 -69.6462L40.6462 506.032" stroke="#0D1832" stroke-width="5"/>
<path d="M1190.34 -53.9363L33.5671 521.742" stroke="#0D1832" stroke-width="5"/>
<path d="M1184.28 -40.4702L27.5012 535.208" stroke="#0D1832" stroke-width="5"/>
<path d="M1178.21 -27.0061L21.4333 548.672" stroke="#0D1832" stroke-width="5"/>
<path d="M1173.15 -15.7836L16.3786 559.894" stroke="#0D1832" stroke-width="5"/>
<path d="M1173.15 -15.7836L16.3786 559.894" stroke="#0D1832" stroke-width="5"/>
<path d="M1167.09 -2.3175L10.3127 573.36" stroke="#0D1832" stroke-width="5"/>
<path d="M1161.02 11.1467L4.24485 586.825" stroke="#0D1832" stroke-width="5"/>
<path d="M1155.96 22.3691L-0.809838 598.047" stroke="#0D1832" stroke-width="5"/>
<path d="M1148.89 38.0789L-7.88894 613.757" stroke="#0D1832" stroke-width="5"/>
<path d="M1142.82 51.5432L-13.9549 627.221" stroke="#0D1832" stroke-width="5"/>
<path d="M1136.75 65.0093L-20.0227 640.687" stroke="#0D1832" stroke-width="5"/>
<path d="M1131.7 76.2318L-25.0774 651.91" stroke="#0D1832" stroke-width="5"/>
<path d="M1131.7 76.2318L-25.0774 651.91" stroke="#0D1832" stroke-width="5"/>
<path d="M1125.63 89.6979L-31.1453 665.376" stroke="#0D1832" stroke-width="5"/>
<path d="M1119.56 103.162L-37.2112 678.84" stroke="#0D1832" stroke-width="5"/>
<path d="M1114.51 114.383L-42.2664 690.06" stroke="#0D1832" stroke-width="5"/>
<path d="M1107.43 130.094L-49.345 705.772" stroke="#0D1832" stroke-width="5"/>
<path d="M1101.36 143.558L-55.4129 719.236" stroke="#0D1832" stroke-width="5"/>
<path d="M1095.3 157.025L-61.4788 732.703" stroke="#0D1832" stroke-width="5"/>
<path d="M1090.24 168.247L-66.5335 743.925" stroke="#0D1832" stroke-width="5"/>
<path d="M1085.69 178.346L-71.0843 754.024" stroke="#0D1832" stroke-width="5"/>
<path d="M1079.62 191.81L-77.1497 767.488" stroke="#0D1832" stroke-width="5"/>
<path d="M1073.56 205.276L-83.218 780.954" stroke="#0D1832" stroke-width="5"/>
<path d="M1068.5 216.498L-88.2747 792.176" stroke="#0D1832" stroke-width="5"/>
<path d="M1061.42 232.208L-95.3513 807.886" stroke="#0D1832" stroke-width="5"/>
<path d="M1055.36 245.674L-101.417 821.352" stroke="#0D1832" stroke-width="5"/>
<path d="M1049.29 259.139L-107.485 834.816" stroke="#0D1832" stroke-width="5"/>
<path d="M1044.23 270.361L-112.54 846.039" stroke="#0D1832" stroke-width="5"/>
<path d="M1044.23 270.361L-112.54 846.039" stroke="#0D1832" stroke-width="5"/>
<path d="M1038.17 283.825L-118.608 859.503" stroke="#0D1832" stroke-width="5"/>
<path d="M1032.1 297.291L-124.674 872.969" stroke="#0D1832" stroke-width="5"/>
<path d="M1027.05 308.514L-129.729 884.192" stroke="#0D1832" stroke-width="5"/>
<path d="M1019.97 324.224L-136.808 899.902" stroke="#0D1832" stroke-width="5"/>
<path d="M1013.9 337.69L-142.876 913.368" stroke="#0D1832" stroke-width="5"/>
<path d="M1007.83 351.154L-148.942 926.832" stroke="#0D1832" stroke-width="5"/>
<path d="M1002.78 362.374L-153.996 938.052" stroke="#0D1832" stroke-width="5"/>
<path d="M1002.78 362.374L-153.996 938.052" stroke="#0D1832" stroke-width="5"/>
<path d="M996.71 375.841L-160.064 951.518" stroke="#0D1832" stroke-width="5"/>
<path d="M674.062 -903.992L-482.712 -328.314" stroke="#0D1832" stroke-width="5"/>
<path d="M669.008 -892.771L-487.767 -317.094" stroke="#0D1832" stroke-width="5"/>
<path d="M669.008 -892.771L-487.767 -317.094" stroke="#0D1832" stroke-width="5"/>
<path d="M662.942 -879.305L-493.833 -303.627" stroke="#0D1832" stroke-width="5"/>
<path d="M656.874 -865.839L-499.901 -290.161" stroke="#0D1832" stroke-width="5"/>
<path d="M651.819 -854.617L-504.955 -278.939" stroke="#0D1832" stroke-width="5"/>
<path d="M644.74 -838.909L-512.034 -263.231" stroke="#0D1832" stroke-width="5"/>
<path d="M638.674 -825.443L-518.1 -249.765" stroke="#0D1832" stroke-width="5"/>
<path d="M632.606 -811.977L-524.168 -236.299" stroke="#0D1832" stroke-width="5"/>
<path d="M627.552 -800.756L-529.223 -225.078" stroke="#0D1832" stroke-width="5"/>
<path d="M623.001 -790.656L-533.773 -214.978" stroke="#0D1832" stroke-width="5"/>
<path d="M616.934 -777.189L-539.841 -201.512" stroke="#0D1832" stroke-width="5"/>
<path d="M610.868 -763.725L-545.907 -188.047" stroke="#0D1832" stroke-width="5"/>
<path d="M605.812 -752.505L-550.962 -176.827" stroke="#0D1832" stroke-width="5"/>
<path d="M598.734 -736.793L-558.041 -161.115" stroke="#0D1832" stroke-width="5"/>
<path d="M592.666 -723.329L-564.109 -147.651" stroke="#0D1832" stroke-width="5"/>
<path d="M586.6 -709.863L-570.175 -134.185" stroke="#0D1832" stroke-width="5"/>
<path d="M581.545 -698.64L-575.23 -122.962" stroke="#0D1832" stroke-width="5"/>
<path d="M581.545 -698.64L-575.23 -122.962" stroke="#0D1832" stroke-width="5"/>
<path d="M575.477 -685.176L-581.298 -109.498" stroke="#0D1832" stroke-width="5"/>
<path d="M569.411 -671.71L-587.364 -96.0318" stroke="#0D1832" stroke-width="5"/>
<path d="M564.354 -660.489L-592.42 -84.8113" stroke="#0D1832" stroke-width="5"/>
<path d="M557.278 -644.78L-599.497 -69.1016" stroke="#0D1832" stroke-width="5"/>
<path d="M551.212 -631.313L-605.563 -55.6353" stroke="#0D1832" stroke-width="5"/>
<path d="M545.144 -617.847L-611.631 -42.1692" stroke="#0D1832" stroke-width="5"/>
<path d="M540.087 -606.625L-616.688 -30.9468" stroke="#0D1832" stroke-width="5"/>
<path d="M540.087 -606.625L-616.688 -30.9468" stroke="#0D1832" stroke-width="5"/>
<path d="M534.021 -593.161L-622.754 -17.4827" stroke="#0D1832" stroke-width="5"/>
<path d="M527.953 -579.694L-628.822 -4.01641" stroke="#0D1832" stroke-width="5"/>
<path d="M522.898 -568.474L-633.876 7.20405" stroke="#0D1832" stroke-width="5"/>
<path d="M515.819 -552.764L-640.955 22.9138" stroke="#0D1832" stroke-width="5"/>
<path d="M509.753 -539.298L-647.021 36.3798" stroke="#0D1832" stroke-width="5"/>
<path d="M503.686 -525.832L-653.089 49.8461" stroke="#0D1832" stroke-width="5"/>
<path d="M498.631 -514.611L-658.144 61.0666" stroke="#0D1832" stroke-width="5"/>
<path d="M498.631 -514.611L-658.144 61.0666" stroke="#0D1832" stroke-width="5"/>
<path d="M492.565 -501.145L-664.21 74.5327" stroke="#0D1832" stroke-width="5"/>
<path d="M486.499 -487.679L-670.276 87.999" stroke="#0D1832" stroke-width="5"/>
<path d="M481.442 -476.458L-675.332 99.2194" stroke="#0D1832" stroke-width="5"/>
<path d="M474.365 -460.749L-682.409 114.929" stroke="#0D1832" stroke-width="5"/>
<path d="M468.297 -447.283L-688.477 128.395" stroke="#0D1832" stroke-width="5"/>
<path d="M462.231 -433.816L-694.543 141.862" stroke="#0D1832" stroke-width="5"/>
<path d="M457.175 -422.596L-699.6 153.082" stroke="#0D1832" stroke-width="5"/>
<path d="M450.856 -408.568L-705.918 167.11" stroke="#0D1832" stroke-width="5"/>
<path d="M444.789 -395.104L-711.986 180.574" stroke="#0D1832" stroke-width="5"/>
<path d="M438.723 -381.638L-718.052 194.04" stroke="#0D1832" stroke-width="5"/>
<path d="M433.666 -370.417L-723.109 205.261" stroke="#0D1832" stroke-width="5"/>
<path d="M426.589 -354.707L-730.186 220.971" stroke="#0D1832" stroke-width="5"/>
<path d="M420.521 -341.241L-736.254 234.437" stroke="#0D1832" stroke-width="5"/>
<path d="M414.455 -327.775L-742.32 247.903" stroke="#0D1832" stroke-width="5"/>
<path d="M409.398 -316.554L-747.376 259.123" stroke="#0D1832" stroke-width="5"/>
<path d="M409.398 -316.554L-747.376 259.123" stroke="#0D1832" stroke-width="5"/>
<path d="M403.333 -303.088L-753.442 272.59" stroke="#0D1832" stroke-width="5"/>
<path d="M397.265 -289.622L-759.51 286.056" stroke="#0D1832" stroke-width="5"/>
<path d="M392.21 -278.402L-764.565 297.276" stroke="#0D1832" stroke-width="5"/>
<path d="M385.131 -262.692L-771.644 312.986" stroke="#0D1832" stroke-width="5"/>
<path d="M379.065 -249.226L-777.71 326.452" stroke="#0D1832" stroke-width="5"/>
<path d="M372.997 -235.76L-783.778 339.918" stroke="#0D1832" stroke-width="5"/>
<path d="M367.942 -224.539L-788.832 351.139" stroke="#0D1832" stroke-width="5"/>
<path d="M367.942 -224.539L-788.832 351.139" stroke="#0D1832" stroke-width="5"/>
<path d="M361.876 -211.073L-794.898 364.605" stroke="#0D1832" stroke-width="5"/>
<path d="M355.809 -197.607L-800.966 378.071" stroke="#0D1832" stroke-width="5"/>
<path d="M350.753 -186.386L-806.021 389.292" stroke="#0D1832" stroke-width="5"/>
<path d="M343.675 -170.677L-813.1 405.001" stroke="#0D1832" stroke-width="5"/>
<path d="M337.609 -157.211L-819.166 418.467" stroke="#0D1832" stroke-width="5"/>
<path d="M331.541 -143.746L-825.234 431.932" stroke="#0D1832" stroke-width="5"/>
<path d="M326.486 -132.524L-830.288 443.154" stroke="#0D1832" stroke-width="5"/>
<path d="M326.486 -132.524L-830.288 443.154" stroke="#0D1832" stroke-width="5"/>
<path d="M320.418 -119.058L-836.356 456.62" stroke="#0D1832" stroke-width="5"/>
<path d="M314.353 -105.592L-842.422 470.086" stroke="#0D1832" stroke-width="5"/>
<path d="M309.297 -94.3711L-847.477 481.307" stroke="#0D1832" stroke-width="5"/>
<path d="M302.219 -78.6613L-854.556 497.017" stroke="#0D1832" stroke-width="5"/>
<path d="M296.151 -65.1952L-860.624 510.483" stroke="#0D1832" stroke-width="5"/>
<path d="M290.085 -51.731L-866.69 523.947" stroke="#0D1832" stroke-width="5"/>
<path d="M285.03 -40.5085L-871.745 535.169" stroke="#0D1832" stroke-width="5"/>
<path d="M280.479 -30.4099L-876.295 545.268" stroke="#0D1832" stroke-width="5"/>
<path d="M274.412 -16.9437L-882.363 558.734" stroke="#0D1832" stroke-width="5"/>
<path d="M268.346 -3.47961L-888.429 572.198" stroke="#0D1832" stroke-width="5"/>
<path d="M263.289 7.74292L-893.486 583.421" stroke="#0D1832" stroke-width="5"/>
<path d="M256.212 23.4528L-900.563 599.131" stroke="#0D1832" stroke-width="5"/>
<path d="M250.146 36.9188L-906.629 612.597" stroke="#0D1832" stroke-width="5"/>
<path d="M244.078 50.385L-912.697 626.063" stroke="#0D1832" stroke-width="5"/>
<path d="M239.021 61.6055L-917.753 637.283" stroke="#0D1832" stroke-width="5"/>
<path d="M239.021 61.6055L-917.753 637.283" stroke="#0D1832" stroke-width="5"/>
<path d="M232.956 75.0715L-923.819 650.749" stroke="#0D1832" stroke-width="5"/>
<path d="M226.888 88.5358L-929.887 664.214" stroke="#0D1832" stroke-width="5"/>
<path d="M221.833 99.7582L-934.942 675.436" stroke="#0D1832" stroke-width="5"/>
<path d="M214.754 115.468L-942.021 691.146" stroke="#0D1832" stroke-width="5"/>
<path d="M208.688 128.934L-948.087 704.612" stroke="#0D1832" stroke-width="5"/>
<path d="M202.622 142.4L-954.153 718.078" stroke="#0D1832" stroke-width="5"/>
<path d="M197.565 153.621L-959.209 729.299" stroke="#0D1832" stroke-width="5"/>
<path d="M197.565 153.621L-959.209 729.299" stroke="#0D1832" stroke-width="5"/>
<path d="M191.5 167.085L-965.275 742.763" stroke="#0D1832" stroke-width="5"/>
<path d="M185.434 180.551L-971.341 756.229" stroke="#0D1832" stroke-width="5"/>
<path d="M180.376 191.774L-976.398 767.451" stroke="#0D1832" stroke-width="5"/>
<path d="M173.3 207.483L-983.475 783.161" stroke="#0D1832" stroke-width="5"/>
<path d="M167.232 220.95L-989.543 796.628" stroke="#0D1832" stroke-width="5"/>
<path d="M161.166 234.414L-995.609 810.092" stroke="#0D1832" stroke-width="5"/>
<path d="M156.109 245.636L-1000.67 821.314" stroke="#0D1832" stroke-width="5"/>
<path d="M156.109 245.636L-1000.67 821.314" stroke="#0D1832" stroke-width="5"/>
<path d="M150.042 259.1L-1006.73 834.778" stroke="#0D1832" stroke-width="5"/>
<path d="M143.976 272.566L-1012.8 848.244" stroke="#0D1832" stroke-width="5"/>
<path d="M138.92 283.789L-1017.85 859.467" stroke="#0D1832" stroke-width="5"/>
<path d="M131.842 299.499L-1024.93 875.177" stroke="#0D1832" stroke-width="5"/>
<path d="M125.776 312.965L-1031 888.643" stroke="#0D1832" stroke-width="5"/>
<path d="M119.71 326.429L-1037.06 902.107" stroke="#0D1832" stroke-width="5"/>
<path d="M114.653 337.65L-1042.12 913.327" stroke="#0D1832" stroke-width="5"/>
</g>
</g>
</svg>
