<svg width="60" height="561" viewBox="0 0 60 561" fill="none" xmlns="http://www.w3.org/2000/svg">
<g style="mix-blend-mode:multiply" opacity="0.2">
<mask id="mask0" style="mask-type:alpha" maskUnits="userSpaceOnUse" x="1" y="5" width="59" height="556">
<path d="M34.6604 17.5868C37.3329 18.8733 39.0742 21.5329 39.1848 24.4969L59.1455 559.828L1.51078 15.1788C0.851258 8.94631 7.28944 4.4102 12.9365 7.12871L34.6604 17.5868Z" fill="#C4C4C4"/>
</mask>
<g mask="url(#mask0)">
<path d="M963.923 1554.56L366.995 408.611" stroke="#0D1832" stroke-width="5"/>
<path d="M952.611 1549.72L355.683 403.764" stroke="#0D1832" stroke-width="5"/>
<path d="M952.611 1549.72L355.683 403.764" stroke="#0D1832" stroke-width="5"/>
<path d="M939.035 1543.9L342.108 397.945" stroke="#0D1832" stroke-width="5"/>
<path d="M925.459 1538.08L328.532 392.129" stroke="#0D1832" stroke-width="5"/>
<path d="M914.146 1533.23L317.218 387.28" stroke="#0D1832" stroke-width="5"/>
<path d="M898.31 1526.45L301.382 380.494" stroke="#0D1832" stroke-width="5"/>
<path d="M884.734 1520.63L287.806 374.676" stroke="#0D1832" stroke-width="5"/>
<path d="M871.158 1514.81L274.231 368.86" stroke="#0D1832" stroke-width="5"/>
<path d="M859.846 1509.96L262.919 364.011" stroke="#0D1832" stroke-width="5"/>
<path d="M859.846 1509.96L262.919 364.011" stroke="#0D1832" stroke-width="5"/>
<path d="M846.271 1504.15L249.343 358.194" stroke="#0D1832" stroke-width="5"/>
<path d="M832.695 1498.33L235.767 352.376" stroke="#0D1832" stroke-width="5"/>
<path d="M821.383 1493.48L224.455 347.529" stroke="#0D1832" stroke-width="5"/>
<path d="M805.545 1486.7L208.617 340.741" stroke="#0D1832" stroke-width="5"/>
<path d="M791.969 1480.88L195.042 334.925" stroke="#0D1832" stroke-width="5"/>
<path d="M778.394 1475.06L181.466 329.107" stroke="#0D1832" stroke-width="5"/>
<path d="M767.082 1470.21L170.154 324.26" stroke="#0D1832" stroke-width="5"/>
<path d="M767.082 1470.21L170.154 324.26" stroke="#0D1832" stroke-width="5"/>
<path d="M753.506 1464.4L156.578 318.443" stroke="#0D1832" stroke-width="5"/>
<path d="M739.93 1458.58L143.002 312.625" stroke="#0D1832" stroke-width="5"/>
<path d="M728.618 1453.73L131.691 307.778" stroke="#0D1832" stroke-width="5"/>
<path d="M712.78 1446.94L115.853 300.99" stroke="#0D1832" stroke-width="5"/>
<path d="M699.205 1441.13L102.277 295.174" stroke="#0D1832" stroke-width="5"/>
<path d="M685.629 1435.31L88.7014 289.356" stroke="#0D1832" stroke-width="5"/>
<path d="M674.317 1430.46L77.3894 284.509" stroke="#0D1832" stroke-width="5"/>
<path d="M664.134 1426.1L67.2063 280.145" stroke="#0D1832" stroke-width="5"/>
<path d="M650.56 1420.28L53.6326 274.327" stroke="#0D1832" stroke-width="5"/>
<path d="M636.984 1414.46L40.0569 268.511" stroke="#0D1832" stroke-width="5"/>
<path d="M625.672 1409.62L28.7449 263.664" stroke="#0D1832" stroke-width="5"/>
<path d="M609.834 1402.83L12.907 256.876" stroke="#0D1832" stroke-width="5"/>
<path d="M596.259 1397.01L-0.668717 251.06" stroke="#0D1832" stroke-width="5"/>
<path d="M582.683 1391.2L-14.2444 245.241" stroke="#0D1832" stroke-width="5"/>
<path d="M571.371 1386.35L-25.5564 240.394" stroke="#0D1832" stroke-width="5"/>
<path d="M571.371 1386.35L-25.5564 240.394" stroke="#0D1832" stroke-width="5"/>
<path d="M557.795 1380.53L-39.1321 234.578" stroke="#0D1832" stroke-width="5"/>
<path d="M544.22 1374.71L-52.7078 228.76" stroke="#0D1832" stroke-width="5"/>
<path d="M532.908 1369.86L-64.0198 223.911" stroke="#0D1832" stroke-width="5"/>
<path d="M517.07 1363.08L-79.8577 217.125" stroke="#0D1832" stroke-width="5"/>
<path d="M503.494 1357.26L-93.4334 211.309" stroke="#0D1832" stroke-width="5"/>
<path d="M489.918 1351.44L-107.009 205.49" stroke="#0D1832" stroke-width="5"/>
<path d="M478.606 1346.6L-118.321 200.644" stroke="#0D1832" stroke-width="5"/>
<path d="M478.606 1346.6L-118.321 200.644" stroke="#0D1832" stroke-width="5"/>
<path d="M465.031 1340.78L-131.897 194.825" stroke="#0D1832" stroke-width="5"/>
<path d="M451.455 1334.96L-145.472 189.009" stroke="#0D1832" stroke-width="5"/>
<path d="M440.143 1330.12L-156.784 184.162" stroke="#0D1832" stroke-width="5"/>
<path d="M424.305 1323.33L-172.622 177.374" stroke="#0D1832" stroke-width="5"/>
<path d="M410.729 1317.51L-186.198 171.556" stroke="#0D1832" stroke-width="5"/>
<path d="M397.155 1311.69L-199.772 165.739" stroke="#0D1832" stroke-width="5"/>
<path d="M385.842 1306.85L-211.086 160.893" stroke="#0D1832" stroke-width="5"/>
<path d="M385.842 1306.85L-211.086 160.893" stroke="#0D1832" stroke-width="5"/>
<path d="M372.266 1301.03L-224.661 155.074" stroke="#0D1832" stroke-width="5"/>
<path d="M358.69 1295.21L-238.238 149.258" stroke="#0D1832" stroke-width="5"/>
<path d="M347.378 1290.36L-249.549 144.409" stroke="#0D1832" stroke-width="5"/>
<path d="M331.541 1283.58L-265.387 137.623" stroke="#0D1832" stroke-width="5"/>
<path d="M317.965 1277.76L-278.963 131.805" stroke="#0D1832" stroke-width="5"/>
<path d="M304.391 1271.94L-292.537 125.988" stroke="#0D1832" stroke-width="5"/>
<path d="M293.077 1267.09L-303.85 121.139" stroke="#0D1832" stroke-width="5"/>
<path d="M278.937 1261.04L-317.991 115.081" stroke="#0D1832" stroke-width="5"/>
<path d="M265.361 1255.22L-331.567 109.263" stroke="#0D1832" stroke-width="5"/>
<path d="M251.785 1249.4L-345.142 103.446" stroke="#0D1832" stroke-width="5"/>
<path d="M240.473 1244.55L-356.454 98.5976" stroke="#0D1832" stroke-width="5"/>
<path d="M224.635 1237.77L-372.292 91.812" stroke="#0D1832" stroke-width="5"/>
<path d="M211.06 1231.95L-385.868 85.9936" stroke="#0D1832" stroke-width="5"/>
<path d="M197.486 1226.13L-399.442 80.1772" stroke="#0D1832" stroke-width="5"/>
<path d="M186.172 1221.28L-410.756 75.3283" stroke="#0D1832" stroke-width="5"/>
<path d="M186.172 1221.28L-410.756 75.3283" stroke="#0D1832" stroke-width="5"/>
<path d="M172.596 1215.47L-424.331 69.5119" stroke="#0D1832" stroke-width="5"/>
<path d="M159.021 1209.65L-437.907 63.6936" stroke="#0D1832" stroke-width="5"/>
<path d="M147.708 1204.8L-449.219 58.8466" stroke="#0D1832" stroke-width="5"/>
<path d="M131.871 1198.01L-465.057 52.0588" stroke="#0D1832" stroke-width="5"/>
<path d="M118.295 1192.2L-478.633 46.2426" stroke="#0D1832" stroke-width="5"/>
<path d="M104.721 1186.38L-492.206 40.4243" stroke="#0D1832" stroke-width="5"/>
<path d="M93.4072 1181.53L-503.52 35.5773" stroke="#0D1832" stroke-width="5"/>
<path d="M93.4072 1181.53L-503.52 35.5773" stroke="#0D1832" stroke-width="5"/>
<path d="M79.8315 1175.71L-517.096 29.7609" stroke="#0D1832" stroke-width="5"/>
<path d="M66.2573 1169.9L-530.67 23.9426" stroke="#0D1832" stroke-width="5"/>
<path d="M54.9438 1165.05L-541.984 19.0957" stroke="#0D1832" stroke-width="5"/>
<path d="M39.106 1158.26L-557.822 12.3081" stroke="#0D1832" stroke-width="5"/>
<path d="M25.5322 1152.45L-571.395 6.49166" stroke="#0D1832" stroke-width="5"/>
<path d="M11.9565 1146.63L-584.971 0.673296" stroke="#0D1832" stroke-width="5"/>
<path d="M0.642578 1141.78L-596.285 -4.17363" stroke="#0D1832" stroke-width="5"/>
<path d="M0.642578 1141.78L-596.285 -4.17363" stroke="#0D1832" stroke-width="5"/>
<path d="M-12.9331 1135.96L-609.861 -9.99199" stroke="#0D1832" stroke-width="5"/>
<path d="M-26.5073 1130.15L-623.435 -15.8084" stroke="#0D1832" stroke-width="5"/>
<path d="M-37.8188 1125.3L-634.746 -20.6553" stroke="#0D1832" stroke-width="5"/>
<path d="M-53.6587 1118.51L-650.586 -27.4432" stroke="#0D1832" stroke-width="5"/>
<path d="M-67.2324 1112.69L-664.16 -33.2615" stroke="#0D1832" stroke-width="5"/>
<path d="M-80.8086 1106.88L-677.736 -39.0777" stroke="#0D1832" stroke-width="5"/>
<path d="M-92.1221 1102.03L-689.05 -43.9246" stroke="#0D1832" stroke-width="5"/>
<path d="M-102.303 1097.67L-699.231 -48.2879" stroke="#0D1832" stroke-width="5"/>
<path d="M-115.877 1091.85L-712.804 -54.1043" stroke="#0D1832" stroke-width="5"/>
<path d="M-129.453 1086.03L-726.38 -59.9227" stroke="#0D1832" stroke-width="5"/>
<path d="M-140.767 1081.18L-737.694 -64.7715" stroke="#0D1832" stroke-width="5"/>
<path d="M-156.604 1074.4L-753.532 -71.5574" stroke="#0D1832" stroke-width="5"/>
<path d="M-170.18 1068.58L-767.108 -77.3736" stroke="#0D1832" stroke-width="5"/>
<path d="M-183.754 1062.76L-780.681 -83.1919" stroke="#0D1832" stroke-width="5"/>
<path d="M-195.068 1057.92L-791.995 -88.0389" stroke="#0D1832" stroke-width="5"/>
<path d="M-195.068 1057.92L-791.995 -88.0389" stroke="#0D1832" stroke-width="5"/>
<path d="M-208.642 1052.1L-805.569 -93.8572" stroke="#0D1832" stroke-width="5"/>
<path d="M-222.217 1046.28L-819.145 -99.6736" stroke="#0D1832" stroke-width="5"/>
<path d="M-233.531 1041.43L-830.459 -104.521" stroke="#0D1832" stroke-width="5"/>
<path d="M-249.369 1034.65L-846.297 -111.308" stroke="#0D1832" stroke-width="5"/>
<path d="M-262.945 1028.83L-859.872 -117.127" stroke="#0D1832" stroke-width="5"/>
<path d="M-276.519 1023.01L-873.447 -122.943" stroke="#0D1832" stroke-width="5"/>
<path d="M-287.831 1018.16L-884.758 -127.79" stroke="#0D1832" stroke-width="5"/>
<path d="M-287.831 1018.16L-884.758 -127.79" stroke="#0D1832" stroke-width="5"/>
<path d="M-301.407 1012.35L-898.334 -133.608" stroke="#0D1832" stroke-width="5"/>
<path d="M-314.982 1006.53L-911.91 -139.425" stroke="#0D1832" stroke-width="5"/>
<path d="M972.254 666.135L375.326 -479.819" stroke="#0D1832" stroke-width="5"/>
<path d="M960.942 661.288L364.014 -484.666" stroke="#0D1832" stroke-width="5"/>
<path d="M960.942 661.288L364.014 -484.666" stroke="#0D1832" stroke-width="5"/>
<path d="M947.366 655.471L350.439 -490.482" stroke="#0D1832" stroke-width="5"/>
<path d="M933.791 649.653L336.863 -496.301" stroke="#0D1832" stroke-width="5"/>
<path d="M922.477 644.806L325.549 -501.148" stroke="#0D1832" stroke-width="5"/>
<path d="M906.641 638.018L309.713 -507.936" stroke="#0D1832" stroke-width="5"/>
<path d="M893.065 632.202L296.137 -513.752" stroke="#0D1832" stroke-width="5"/>
<path d="M879.489 626.384L282.562 -519.57" stroke="#0D1832" stroke-width="5"/>
<path d="M868.177 621.537L271.25 -524.417" stroke="#0D1832" stroke-width="5"/>
<path d="M857.994 617.174L261.067 -528.78" stroke="#0D1832" stroke-width="5"/>
<path d="M844.418 611.355L247.491 -534.599" stroke="#0D1832" stroke-width="5"/>
<path d="M830.845 605.539L233.917 -540.415" stroke="#0D1832" stroke-width="5"/>
<path d="M819.533 600.692L222.605 -545.262" stroke="#0D1832" stroke-width="5"/>
<path d="M803.693 593.904L206.765 -552.05" stroke="#0D1832" stroke-width="5"/>
<path d="M790.119 588.086L193.192 -557.868" stroke="#0D1832" stroke-width="5"/>
<path d="M776.543 582.27L179.616 -563.684" stroke="#0D1832" stroke-width="5"/>
<path d="M765.229 577.423L168.302 -568.531" stroke="#0D1832" stroke-width="5"/>
<path d="M765.229 577.423L168.302 -568.531" stroke="#0D1832" stroke-width="5"/>
<path d="M751.656 571.604L154.728 -574.35" stroke="#0D1832" stroke-width="5"/>
<path d="M738.08 565.788L141.153 -580.166" stroke="#0D1832" stroke-width="5"/>
<path d="M726.768 560.939L129.841 -585.015" stroke="#0D1832" stroke-width="5"/>
<path d="M710.93 554.153L114.003 -591.801" stroke="#0D1832" stroke-width="5"/>
<path d="M697.354 548.337L100.427 -597.617" stroke="#0D1832" stroke-width="5"/>
<path d="M683.779 542.519L86.8513 -603.435" stroke="#0D1832" stroke-width="5"/>
<path d="M672.465 537.669L75.5373 -608.284" stroke="#0D1832" stroke-width="5"/>
<path d="M672.465 537.669L75.5373 -608.284" stroke="#0D1832" stroke-width="5"/>
<path d="M658.891 531.853L61.9636 -614.101" stroke="#0D1832" stroke-width="5"/>
<path d="M645.315 526.035L48.3879 -619.919" stroke="#0D1832" stroke-width="5"/>
<path d="M634.003 521.188L37.0759 -624.766" stroke="#0D1832" stroke-width="5"/>
<path d="M618.166 514.4L21.238 -631.554" stroke="#0D1832" stroke-width="5"/>
<path d="M604.59 508.584L7.66234 -637.37" stroke="#0D1832" stroke-width="5"/>
<path d="M591.014 502.765L-5.91335 -643.189" stroke="#0D1832" stroke-width="5"/>
<path d="M579.702 497.918L-17.2254 -648.035" stroke="#0D1832" stroke-width="5"/>
<path d="M579.702 497.918L-17.2254 -648.035" stroke="#0D1832" stroke-width="5"/>
<path d="M566.126 492.102L-30.801 -653.852" stroke="#0D1832" stroke-width="5"/>
<path d="M552.55 486.286L-44.3772 -659.668" stroke="#0D1832" stroke-width="5"/>
<path d="M541.239 481.437L-55.6887 -664.517" stroke="#0D1832" stroke-width="5"/>
<path d="M525.401 474.651L-71.5266 -671.303" stroke="#0D1832" stroke-width="5"/>
<path d="M511.825 468.833L-85.1023 -677.121" stroke="#0D1832" stroke-width="5"/>
<path d="M498.249 463.016L-98.6785 -682.938" stroke="#0D1832" stroke-width="5"/>
<path d="M486.938 458.167L-109.99 -687.786" stroke="#0D1832" stroke-width="5"/>
<path d="M472.795 452.109L-124.133 -693.845" stroke="#0D1832" stroke-width="5"/>
<path d="M459.221 446.291L-137.706 -699.663" stroke="#0D1832" stroke-width="5"/>
<path d="M445.646 440.475L-151.282 -705.479" stroke="#0D1832" stroke-width="5"/>
<path d="M434.333 435.626L-162.594 -710.328" stroke="#0D1832" stroke-width="5"/>
<path d="M418.496 428.84L-178.432 -717.114" stroke="#0D1832" stroke-width="5"/>
<path d="M404.92 423.022L-192.008 -722.932" stroke="#0D1832" stroke-width="5"/>
<path d="M391.344 417.205L-205.583 -728.749" stroke="#0D1832" stroke-width="5"/>
<path d="M380.032 412.356L-216.895 -733.598" stroke="#0D1832" stroke-width="5"/>
<path d="M380.032 412.356L-216.895 -733.598" stroke="#0D1832" stroke-width="5"/>
<path d="M366.457 406.54L-230.471 -739.414" stroke="#0D1832" stroke-width="5"/>
<path d="M352.881 400.722L-244.047 -745.232" stroke="#0D1832" stroke-width="5"/>
<path d="M341.569 395.875L-255.359 -750.079" stroke="#0D1832" stroke-width="5"/>
<path d="M325.731 389.087L-271.197 -756.867" stroke="#0D1832" stroke-width="5"/>
<path d="M312.155 383.271L-284.772 -762.683" stroke="#0D1832" stroke-width="5"/>
<path d="M298.58 377.452L-298.348 -768.502" stroke="#0D1832" stroke-width="5"/>
<path d="M287.268 372.605L-309.66 -773.349" stroke="#0D1832" stroke-width="5"/>
<path d="M287.268 372.605L-309.66 -773.349" stroke="#0D1832" stroke-width="5"/>
<path d="M273.692 366.789L-323.236 -779.165" stroke="#0D1832" stroke-width="5"/>
<path d="M260.116 360.971L-336.812 -784.983" stroke="#0D1832" stroke-width="5"/>
<path d="M248.804 356.124L-348.123 -789.83" stroke="#0D1832" stroke-width="5"/>
<path d="M232.966 349.336L-363.961 -796.618" stroke="#0D1832" stroke-width="5"/>
<path d="M219.391 343.52L-377.537 -802.434" stroke="#0D1832" stroke-width="5"/>
<path d="M205.816 337.701L-391.111 -808.253" stroke="#0D1832" stroke-width="5"/>
<path d="M194.503 332.854L-402.425 -813.1" stroke="#0D1832" stroke-width="5"/>
<path d="M194.503 332.854L-402.425 -813.1" stroke="#0D1832" stroke-width="5"/>
<path d="M180.927 327.036L-416.001 -818.918" stroke="#0D1832" stroke-width="5"/>
<path d="M167.351 321.22L-429.576 -824.734" stroke="#0D1832" stroke-width="5"/>
<path d="M156.04 316.373L-440.888 -829.581" stroke="#0D1832" stroke-width="5"/>
<path d="M140.202 309.585L-456.726 -836.369" stroke="#0D1832" stroke-width="5"/>
<path d="M126.626 303.767L-470.302 -842.187" stroke="#0D1832" stroke-width="5"/>
<path d="M113.052 297.95L-483.876 -848.004" stroke="#0D1832" stroke-width="5"/>
<path d="M101.738 293.104L-495.19 -852.85" stroke="#0D1832" stroke-width="5"/>
<path d="M91.5571 288.74L-505.37 -857.214" stroke="#0D1832" stroke-width="5"/>
<path d="M77.9814 282.922L-518.946 -863.032" stroke="#0D1832" stroke-width="5"/>
<path d="M64.4077 277.105L-532.52 -868.848" stroke="#0D1832" stroke-width="5"/>
<path d="M53.0938 272.256L-543.834 -873.698" stroke="#0D1832" stroke-width="5"/>
<path d="M37.2559 265.471L-559.672 -880.483" stroke="#0D1832" stroke-width="5"/>
<path d="M23.6802 259.654L-573.247 -886.3" stroke="#0D1832" stroke-width="5"/>
<path d="M10.104 253.836L-586.824 -892.118" stroke="#0D1832" stroke-width="5"/>
<path d="M-1.20752 248.987L-598.135 -896.967" stroke="#0D1832" stroke-width="5"/>
<path d="M-1.20752 248.987L-598.135 -896.967" stroke="#0D1832" stroke-width="5"/>
<path d="M-14.7832 243.171L-611.711 -902.783" stroke="#0D1832" stroke-width="5"/>
<path d="M-28.3574 237.353L-625.285 -908.601" stroke="#0D1832" stroke-width="5"/>
<path d="M-39.6709 232.505L-636.598 -913.449" stroke="#0D1832" stroke-width="5"/>
<path d="M-55.5088 225.718L-652.436 -920.236" stroke="#0D1832" stroke-width="5"/>
<path d="M-69.0845 219.901L-666.012 -926.053" stroke="#0D1832" stroke-width="5"/>
<path d="M-82.6606 214.085L-679.588 -931.869" stroke="#0D1832" stroke-width="5"/>
<path d="M-93.9722 209.236L-690.9 -936.718" stroke="#0D1832" stroke-width="5"/>
<path d="M-93.9722 209.236L-690.9 -936.718" stroke="#0D1832" stroke-width="5"/>
<path d="M-107.546 203.42L-704.473 -942.534" stroke="#0D1832" stroke-width="5"/>
<path d="M-121.122 197.604L-718.05 -948.35" stroke="#0D1832" stroke-width="5"/>
<path d="M-132.436 192.754L-729.364 -953.2" stroke="#0D1832" stroke-width="5"/>
<path d="M-148.273 185.969L-745.201 -959.985" stroke="#0D1832" stroke-width="5"/>
<path d="M-161.85 180.15L-758.777 -965.804" stroke="#0D1832" stroke-width="5"/>
<path d="M-175.423 174.334L-772.351 -971.62" stroke="#0D1832" stroke-width="5"/>
<path d="M-186.737 169.485L-783.665 -976.469" stroke="#0D1832" stroke-width="5"/>
<path d="M-186.737 169.485L-783.665 -976.469" stroke="#0D1832" stroke-width="5"/>
<path d="M-200.311 163.667L-797.239 -982.287" stroke="#0D1832" stroke-width="5"/>
<path d="M-213.887 157.851L-810.814 -988.103" stroke="#0D1832" stroke-width="5"/>
<path d="M-225.201 153.003L-822.128 -992.95" stroke="#0D1832" stroke-width="5"/>
<path d="M-241.038 146.216L-837.966 -999.738" stroke="#0D1832" stroke-width="5"/>
<path d="M-254.614 140.399L-851.542 -1005.55" stroke="#0D1832" stroke-width="5"/>
<path d="M-268.188 134.583L-865.115 -1011.37" stroke="#0D1832" stroke-width="5"/>
<path d="M-279.5 129.734L-876.428 -1016.22" stroke="#0D1832" stroke-width="5"/>
</g>
</g>
</svg>
